mtllib ciws.mtl
o ciws
s 1
usemtl dark
v 0.080000 0.000000 0.080000
v 0.920000 0.000000 0.080000
v 0.920000 0.100000 0.080000
v 0.080000 0.100000 0.080000
vt 0.000000 0.000000
vt 1.000000 0.000000
vt 1.000000 1.000000
vt 0.000000 1.000000
f 1/1 2/2 3/3 4/4
v 0.920000 0.000000 0.920000
v 0.080000 0.000000 0.920000
v 0.080000 0.100000 0.920000
v 0.920000 0.100000 0.920000
vt 0.000000 0.000000
vt 1.000000 0.000000
vt 1.000000 1.000000
vt 0.000000 1.000000
f 5/5 6/6 7/7 8/8
v 0.080000 0.000000 0.920000
v 0.080000 0.000000 0.080000
v 0.080000 0.100000 0.080000
v 0.080000 0.100000 0.920000
vt 0.000000 0.000000
vt 1.000000 0.000000
vt 1.000000 1.000000
vt 0.000000 1.000000
f 9/9 10/10 11/11 12/12
v 0.920000 0.000000 0.080000
v 0.920000 0.000000 0.920000
v 0.920000 0.100000 0.920000
v 0.920000 0.100000 0.080000
vt 0.000000 0.000000
vt 1.000000 0.000000
vt 1.000000 1.000000
vt 0.000000 1.000000
f 13/13 14/14 15/15 16/16
v 0.080000 0.100000 0.080000
v 0.920000 0.100000 0.080000
v 0.920000 0.100000 0.920000
v 0.080000 0.100000 0.920000
vt 0.000000 0.000000
vt 1.000000 0.000000
vt 1.000000 1.000000
vt 0.000000 1.000000
f 17/17 18/18 19/19 20/20
v 0.080000 0.000000 0.920000
v 0.920000 0.000000 0.920000
v 0.920000 0.000000 0.080000
v 0.080000 0.000000 0.080000
vt 0.000000 0.000000
vt 1.000000 0.000000
vt 1.000000 1.000000
vt 0.000000 1.000000
f 21/21 22/22 23/23 24/24
usemtl white
v 0.160000 0.100000 0.160000
v 0.840000 0.100000 0.160000
v 0.840000 0.180000 0.160000
v 0.160000 0.180000 0.160000
vt 0.000000 0.000000
vt 1.000000 0.000000
vt 1.000000 1.000000
vt 0.000000 1.000000
f 25/25 26/26 27/27 28/28
v 0.840000 0.100000 0.840000
v 0.160000 0.100000 0.840000
v 0.160000 0.180000 0.840000
v 0.840000 0.180000 0.840000
vt 0.000000 0.000000
vt 1.000000 0.000000
vt 1.000000 1.000000
vt 0.000000 1.000000
f 29/29 30/30 31/31 32/32
v 0.160000 0.100000 0.840000
v 0.160000 0.100000 0.160000
v 0.160000 0.180000 0.160000
v 0.160000 0.180000 0.840000
vt 0.000000 0.000000
vt 1.000000 0.000000
vt 1.000000 1.000000
vt 0.000000 1.000000
f 33/33 34/34 35/35 36/36
v 0.840000 0.100000 0.160000
v 0.840000 0.100000 0.840000
v 0.840000 0.180000 0.840000
v 0.840000 0.180000 0.160000
vt 0.000000 0.000000
vt 1.000000 0.000000
vt 1.000000 1.000000
vt 0.000000 1.000000
f 37/37 38/38 39/39 40/40
v 0.160000 0.180000 0.160000
v 0.840000 0.180000 0.160000
v 0.840000 0.180000 0.840000
v 0.160000 0.180000 0.840000
vt 0.000000 0.000000
vt 1.000000 0.000000
vt 1.000000 1.000000
vt 0.000000 1.000000
f 41/41 42/42 43/43 44/44
v 0.160000 0.100000 0.840000
v 0.840000 0.100000 0.840000
v 0.840000 0.100000 0.160000
v 0.160000 0.100000 0.160000
vt 0.000000 0.000000
vt 1.000000 0.000000
vt 1.000000 1.000000
vt 0.000000 1.000000
f 45/45 46/46 47/47 48/48
v 0.500000 0.160000 0.300000
v 0.544504 0.160000 0.305014
v 0.544504 0.420000 0.305014
v 0.500000 0.420000 0.300000
vt 0.000000 0.000000
vt 0.035714 0.000000
vt 0.035714 1.000000
vt 0.000000 1.000000
f 49/49 50/50 51/51 52/52
v 0.500000 0.160000 0.500000
v 0.544504 0.160000 0.305014
v 0.500000 0.160000 0.300000
vt 0.000000 0.000000
vt 1.000000 0.000000
vt 1.000000 1.000000
f 53/53 54/54 55/55
v 0.500000 0.420000 0.500000
v 0.500000 0.420000 0.300000
v 0.544504 0.420000 0.305014
vt 0.000000 0.000000
vt 1.000000 0.000000
vt 1.000000 1.000000
f 56/56 57/57 58/58
v 0.544504 0.160000 0.305014
v 0.586777 0.160000 0.319806
v 0.586777 0.420000 0.319806
v 0.544504 0.420000 0.305014
vt 0.035714 0.000000
vt 0.071429 0.000000
vt 0.071429 1.000000
vt 0.035714 1.000000
f 59/59 60/60 61/61 62/62
v 0.500000 0.160000 0.500000
v 0.586777 0.160000 0.319806
v 0.544504 0.160000 0.305014
vt 0.000000 0.000000
vt 1.000000 0.000000
vt 1.000000 1.000000
f 63/63 64/64 65/65
v 0.500000 0.420000 0.500000
v 0.544504 0.420000 0.305014
v 0.586777 0.420000 0.319806
vt 0.000000 0.000000
vt 1.000000 0.000000
vt 1.000000 1.000000
f 66/66 67/67 68/68
v 0.586777 0.160000 0.319806
v 0.624698 0.160000 0.343634
v 0.624698 0.420000 0.343634
v 0.586777 0.420000 0.319806
vt 0.071429 0.000000
vt 0.107143 0.000000
vt 0.107143 1.000000
vt 0.071429 1.000000
f 69/69 70/70 71/71 72/72
v 0.500000 0.160000 0.500000
v 0.624698 0.160000 0.343634
v 0.586777 0.160000 0.319806
vt 0.000000 0.000000
vt 1.000000 0.000000
vt 1.000000 1.000000
f 73/73 74/74 75/75
v 0.500000 0.420000 0.500000
v 0.586777 0.420000 0.319806
v 0.624698 0.420000 0.343634
vt 0.000000 0.000000
vt 1.000000 0.000000
vt 1.000000 1.000000
f 76/76 77/77 78/78
v 0.624698 0.160000 0.343634
v 0.656366 0.160000 0.375302
v 0.656366 0.420000 0.375302
v 0.624698 0.420000 0.343634
vt 0.107143 0.000000
vt 0.142857 0.000000
vt 0.142857 1.000000
vt 0.107143 1.000000
f 79/79 80/80 81/81 82/82
v 0.500000 0.160000 0.500000
v 0.656366 0.160000 0.375302
v 0.624698 0.160000 0.343634
vt 0.000000 0.000000
vt 1.000000 0.000000
vt 1.000000 1.000000
f 83/83 84/84 85/85
v 0.500000 0.420000 0.500000
v 0.624698 0.420000 0.343634
v 0.656366 0.420000 0.375302
vt 0.000000 0.000000
vt 1.000000 0.000000
vt 1.000000 1.000000
f 86/86 87/87 88/88
v 0.656366 0.160000 0.375302
v 0.680194 0.160000 0.413223
v 0.680194 0.420000 0.413223
v 0.656366 0.420000 0.375302
vt 0.142857 0.000000
vt 0.178571 0.000000
vt 0.178571 1.000000
vt 0.142857 1.000000
f 89/89 90/90 91/91 92/92
v 0.500000 0.160000 0.500000
v 0.680194 0.160000 0.413223
v 0.656366 0.160000 0.375302
vt 0.000000 0.000000
vt 1.000000 0.000000
vt 1.000000 1.000000
f 93/93 94/94 95/95
v 0.500000 0.420000 0.500000
v 0.656366 0.420000 0.375302
v 0.680194 0.420000 0.413223
vt 0.000000 0.000000
vt 1.000000 0.000000
vt 1.000000 1.000000
f 96/96 97/97 98/98
v 0.680194 0.160000 0.413223
v 0.694986 0.160000 0.455496
v 0.694986 0.420000 0.455496
v 0.680194 0.420000 0.413223
vt 0.178571 0.000000
vt 0.214286 0.000000
vt 0.214286 1.000000
vt 0.178571 1.000000
f 99/99 100/100 101/101 102/102
v 0.500000 0.160000 0.500000
v 0.694986 0.160000 0.455496
v 0.680194 0.160000 0.413223
vt 0.000000 0.000000
vt 1.000000 0.000000
vt 1.000000 1.000000
f 103/103 104/104 105/105
v 0.500000 0.420000 0.500000
v 0.680194 0.420000 0.413223
v 0.694986 0.420000 0.455496
vt 0.000000 0.000000
vt 1.000000 0.000000
vt 1.000000 1.000000
f 106/106 107/107 108/108
v 0.694986 0.160000 0.455496
v 0.700000 0.160000 0.500000
v 0.700000 0.420000 0.500000
v 0.694986 0.420000 0.455496
vt 0.214286 0.000000
vt 0.250000 0.000000
vt 0.250000 1.000000
vt 0.214286 1.000000
f 109/109 110/110 111/111 112/112
v 0.500000 0.160000 0.500000
v 0.700000 0.160000 0.500000
v 0.694986 0.160000 0.455496
vt 0.000000 0.000000
vt 1.000000 0.000000
vt 1.000000 1.000000
f 113/113 114/114 115/115
v 0.500000 0.420000 0.500000
v 0.694986 0.420000 0.455496
v 0.700000 0.420000 0.500000
vt 0.000000 0.000000
vt 1.000000 0.000000
vt 1.000000 1.000000
f 116/116 117/117 118/118
v 0.700000 0.160000 0.500000
v 0.694986 0.160000 0.544504
v 0.694986 0.420000 0.544504
v 0.700000 0.420000 0.500000
vt 0.250000 0.000000
vt 0.285714 0.000000
vt 0.285714 1.000000
vt 0.250000 1.000000
f 119/119 120/120 121/121 122/122
v 0.500000 0.160000 0.500000
v 0.694986 0.160000 0.544504
v 0.700000 0.160000 0.500000
vt 0.000000 0.000000
vt 1.000000 0.000000
vt 1.000000 1.000000
f 123/123 124/124 125/125
v 0.500000 0.420000 0.500000
v 0.700000 0.420000 0.500000
v 0.694986 0.420000 0.544504
vt 0.000000 0.000000
vt 1.000000 0.000000
vt 1.000000 1.000000
f 126/126 127/127 128/128
v 0.694986 0.160000 0.544504
v 0.680194 0.160000 0.586777
v 0.680194 0.420000 0.586777
v 0.694986 0.420000 0.544504
vt 0.285714 0.000000
vt 0.321429 0.000000
vt 0.321429 1.000000
vt 0.285714 1.000000
f 129/129 130/130 131/131 132/132
v 0.500000 0.160000 0.500000
v 0.680194 0.160000 0.586777
v 0.694986 0.160000 0.544504
vt 0.000000 0.000000
vt 1.000000 0.000000
vt 1.000000 1.000000
f 133/133 134/134 135/135
v 0.500000 0.420000 0.500000
v 0.694986 0.420000 0.544504
v 0.680194 0.420000 0.586777
vt 0.000000 0.000000
vt 1.000000 0.000000
vt 1.000000 1.000000
f 136/136 137/137 138/138
v 0.680194 0.160000 0.586777
v 0.656366 0.160000 0.624698
v 0.656366 0.420000 0.624698
v 0.680194 0.420000 0.586777
vt 0.321429 0.000000
vt 0.357143 0.000000
vt 0.357143 1.000000
vt 0.321429 1.000000
f 139/139 140/140 141/141 142/142
v 0.500000 0.160000 0.500000
v 0.656366 0.160000 0.624698
v 0.680194 0.160000 0.586777
vt 0.000000 0.000000
vt 1.000000 0.000000
vt 1.000000 1.000000
f 143/143 144/144 145/145
v 0.500000 0.420000 0.500000
v 0.680194 0.420000 0.586777
v 0.656366 0.420000 0.624698
vt 0.000000 0.000000
vt 1.000000 0.000000
vt 1.000000 1.000000
f 146/146 147/147 148/148
v 0.656366 0.160000 0.624698
v 0.624698 0.160000 0.656366
v 0.624698 0.420000 0.656366
v 0.656366 0.420000 0.624698
vt 0.357143 0.000000
vt 0.392857 0.000000
vt 0.392857 1.000000
vt 0.357143 1.000000
f 149/149 150/150 151/151 152/152
v 0.500000 0.160000 0.500000
v 0.624698 0.160000 0.656366
v 0.656366 0.160000 0.624698
vt 0.000000 0.000000
vt 1.000000 0.000000
vt 1.000000 1.000000
f 153/153 154/154 155/155
v 0.500000 0.420000 0.500000
v 0.656366 0.420000 0.624698
v 0.624698 0.420000 0.656366
vt 0.000000 0.000000
vt 1.000000 0.000000
vt 1.000000 1.000000
f 156/156 157/157 158/158
v 0.624698 0.160000 0.656366
v 0.586777 0.160000 0.680194
v 0.586777 0.420000 0.680194
v 0.624698 0.420000 0.656366
vt 0.392857 0.000000
vt 0.428571 0.000000
vt 0.428571 1.000000
vt 0.392857 1.000000
f 159/159 160/160 161/161 162/162
v 0.500000 0.160000 0.500000
v 0.586777 0.160000 0.680194
v 0.624698 0.160000 0.656366
vt 0.000000 0.000000
vt 1.000000 0.000000
vt 1.000000 1.000000
f 163/163 164/164 165/165
v 0.500000 0.420000 0.500000
v 0.624698 0.420000 0.656366
v 0.586777 0.420000 0.680194
vt 0.000000 0.000000
vt 1.000000 0.000000
vt 1.000000 1.000000
f 166/166 167/167 168/168
v 0.586777 0.160000 0.680194
v 0.544504 0.160000 0.694986
v 0.544504 0.420000 0.694986
v 0.586777 0.420000 0.680194
vt 0.428571 0.000000
vt 0.464286 0.000000
vt 0.464286 1.000000
vt 0.428571 1.000000
f 169/169 170/170 171/171 172/172
v 0.500000 0.160000 0.500000
v 0.544504 0.160000 0.694986
v 0.586777 0.160000 0.680194
vt 0.000000 0.000000
vt 1.000000 0.000000
vt 1.000000 1.000000
f 173/173 174/174 175/175
v 0.500000 0.420000 0.500000
v 0.586777 0.420000 0.680194
v 0.544504 0.420000 0.694986
vt 0.000000 0.000000
vt 1.000000 0.000000
vt 1.000000 1.000000
f 176/176 177/177 178/178
v 0.544504 0.160000 0.694986
v 0.500000 0.160000 0.700000
v 0.500000 0.420000 0.700000
v 0.544504 0.420000 0.694986
vt 0.464286 0.000000
vt 0.500000 0.000000
vt 0.500000 1.000000
vt 0.464286 1.000000
f 179/179 180/180 181/181 182/182
v 0.500000 0.160000 0.500000
v 0.500000 0.160000 0.700000
v 0.544504 0.160000 0.694986
vt 0.000000 0.000000
vt 1.000000 0.000000
vt 1.000000 1.000000
f 183/183 184/184 185/185
v 0.500000 0.420000 0.500000
v 0.544504 0.420000 0.694986
v 0.500000 0.420000 0.700000
vt 0.000000 0.000000
vt 1.000000 0.000000
vt 1.000000 1.000000
f 186/186 187/187 188/188
v 0.500000 0.160000 0.700000
v 0.455496 0.160000 0.694986
v 0.455496 0.420000 0.694986
v 0.500000 0.420000 0.700000
vt 0.500000 0.000000
vt 0.535714 0.000000
vt 0.535714 1.000000
vt 0.500000 1.000000
f 189/189 190/190 191/191 192/192
v 0.500000 0.160000 0.500000
v 0.455496 0.160000 0.694986
v 0.500000 0.160000 0.700000
vt 0.000000 0.000000
vt 1.000000 0.000000
vt 1.000000 1.000000
f 193/193 194/194 195/195
v 0.500000 0.420000 0.500000
v 0.500000 0.420000 0.700000
v 0.455496 0.420000 0.694986
vt 0.000000 0.000000
vt 1.000000 0.000000
vt 1.000000 1.000000
f 196/196 197/197 198/198
v 0.455496 0.160000 0.694986
v 0.413223 0.160000 0.680194
v 0.413223 0.420000 0.680194
v 0.455496 0.420000 0.694986
vt 0.535714 0.000000
vt 0.571429 0.000000
vt 0.571429 1.000000
vt 0.535714 1.000000
f 199/199 200/200 201/201 202/202
v 0.500000 0.160000 0.500000
v 0.413223 0.160000 0.680194
v 0.455496 0.160000 0.694986
vt 0.000000 0.000000
vt 1.000000 0.000000
vt 1.000000 1.000000
f 203/203 204/204 205/205
v 0.500000 0.420000 0.500000
v 0.455496 0.420000 0.694986
v 0.413223 0.420000 0.680194
vt 0.000000 0.000000
vt 1.000000 0.000000
vt 1.000000 1.000000
f 206/206 207/207 208/208
v 0.413223 0.160000 0.680194
v 0.375302 0.160000 0.656366
v 0.375302 0.420000 0.656366
v 0.413223 0.420000 0.680194
vt 0.571429 0.000000
vt 0.607143 0.000000
vt 0.607143 1.000000
vt 0.571429 1.000000
f 209/209 210/210 211/211 212/212
v 0.500000 0.160000 0.500000
v 0.375302 0.160000 0.656366
v 0.413223 0.160000 0.680194
vt 0.000000 0.000000
vt 1.000000 0.000000
vt 1.000000 1.000000
f 213/213 214/214 215/215
v 0.500000 0.420000 0.500000
v 0.413223 0.420000 0.680194
v 0.375302 0.420000 0.656366
vt 0.000000 0.000000
vt 1.000000 0.000000
vt 1.000000 1.000000
f 216/216 217/217 218/218
v 0.375302 0.160000 0.656366
v 0.343634 0.160000 0.624698
v 0.343634 0.420000 0.624698
v 0.375302 0.420000 0.656366
vt 0.607143 0.000000
vt 0.642857 0.000000
vt 0.642857 1.000000
vt 0.607143 1.000000
f 219/219 220/220 221/221 222/222
v 0.500000 0.160000 0.500000
v 0.343634 0.160000 0.624698
v 0.375302 0.160000 0.656366
vt 0.000000 0.000000
vt 1.000000 0.000000
vt 1.000000 1.000000
f 223/223 224/224 225/225
v 0.500000 0.420000 0.500000
v 0.375302 0.420000 0.656366
v 0.343634 0.420000 0.624698
vt 0.000000 0.000000
vt 1.000000 0.000000
vt 1.000000 1.000000
f 226/226 227/227 228/228
v 0.343634 0.160000 0.624698
v 0.319806 0.160000 0.586777
v 0.319806 0.420000 0.586777
v 0.343634 0.420000 0.624698
vt 0.642857 0.000000
vt 0.678571 0.000000
vt 0.678571 1.000000
vt 0.642857 1.000000
f 229/229 230/230 231/231 232/232
v 0.500000 0.160000 0.500000
v 0.319806 0.160000 0.586777
v 0.343634 0.160000 0.624698
vt 0.000000 0.000000
vt 1.000000 0.000000
vt 1.000000 1.000000
f 233/233 234/234 235/235
v 0.500000 0.420000 0.500000
v 0.343634 0.420000 0.624698
v 0.319806 0.420000 0.586777
vt 0.000000 0.000000
vt 1.000000 0.000000
vt 1.000000 1.000000
f 236/236 237/237 238/238
v 0.319806 0.160000 0.586777
v 0.305014 0.160000 0.544504
v 0.305014 0.420000 0.544504
v 0.319806 0.420000 0.586777
vt 0.678571 0.000000
vt 0.714286 0.000000
vt 0.714286 1.000000
vt 0.678571 1.000000
f 239/239 240/240 241/241 242/242
v 0.500000 0.160000 0.500000
v 0.305014 0.160000 0.544504
v 0.319806 0.160000 0.586777
vt 0.000000 0.000000
vt 1.000000 0.000000
vt 1.000000 1.000000
f 243/243 244/244 245/245
v 0.500000 0.420000 0.500000
v 0.319806 0.420000 0.586777
v 0.305014 0.420000 0.544504
vt 0.000000 0.000000
vt 1.000000 0.000000
vt 1.000000 1.000000
f 246/246 247/247 248/248
v 0.305014 0.160000 0.544504
v 0.300000 0.160000 0.500000
v 0.300000 0.420000 0.500000
v 0.305014 0.420000 0.544504
vt 0.714286 0.000000
vt 0.750000 0.000000
vt 0.750000 1.000000
vt 0.714286 1.000000
f 249/249 250/250 251/251 252/252
v 0.500000 0.160000 0.500000
v 0.300000 0.160000 0.500000
v 0.305014 0.160000 0.544504
vt 0.000000 0.000000
vt 1.000000 0.000000
vt 1.000000 1.000000
f 253/253 254/254 255/255
v 0.500000 0.420000 0.500000
v 0.305014 0.420000 0.544504
v 0.300000 0.420000 0.500000
vt 0.000000 0.000000
vt 1.000000 0.000000
vt 1.000000 1.000000
f 256/256 257/257 258/258
v 0.300000 0.160000 0.500000
v 0.305014 0.160000 0.455496
v 0.305014 0.420000 0.455496
v 0.300000 0.420000 0.500000
vt 0.750000 0.000000
vt 0.785714 0.000000
vt 0.785714 1.000000
vt 0.750000 1.000000
f 259/259 260/260 261/261 262/262
v 0.500000 0.160000 0.500000
v 0.305014 0.160000 0.455496
v 0.300000 0.160000 0.500000
vt 0.000000 0.000000
vt 1.000000 0.000000
vt 1.000000 1.000000
f 263/263 264/264 265/265
v 0.500000 0.420000 0.500000
v 0.300000 0.420000 0.500000
v 0.305014 0.420000 0.455496
vt 0.000000 0.000000
vt 1.000000 0.000000
vt 1.000000 1.000000
f 266/266 267/267 268/268
v 0.305014 0.160000 0.455496
v 0.319806 0.160000 0.413223
v 0.319806 0.420000 0.413223
v 0.305014 0.420000 0.455496
vt 0.785714 0.000000
vt 0.821429 0.000000
vt 0.821429 1.000000
vt 0.785714 1.000000
f 269/269 270/270 271/271 272/272
v 0.500000 0.160000 0.500000
v 0.319806 0.160000 0.413223
v 0.305014 0.160000 0.455496
vt 0.000000 0.000000
vt 1.000000 0.000000
vt 1.000000 1.000000
f 273/273 274/274 275/275
v 0.500000 0.420000 0.500000
v 0.305014 0.420000 0.455496
v 0.319806 0.420000 0.413223
vt 0.000000 0.000000
vt 1.000000 0.000000
vt 1.000000 1.000000
f 276/276 277/277 278/278
v 0.319806 0.160000 0.413223
v 0.343634 0.160000 0.375302
v 0.343634 0.420000 0.375302
v 0.319806 0.420000 0.413223
vt 0.821429 0.000000
vt 0.857143 0.000000
vt 0.857143 1.000000
vt 0.821429 1.000000
f 279/279 280/280 281/281 282/282
v 0.500000 0.160000 0.500000
v 0.343634 0.160000 0.375302
v 0.319806 0.160000 0.413223
vt 0.000000 0.000000
vt 1.000000 0.000000
vt 1.000000 1.000000
f 283/283 284/284 285/285
v 0.500000 0.420000 0.500000
v 0.319806 0.420000 0.413223
v 0.343634 0.420000 0.375302
vt 0.000000 0.000000
vt 1.000000 0.000000
vt 1.000000 1.000000
f 286/286 287/287 288/288
v 0.343634 0.160000 0.375302
v 0.375302 0.160000 0.343634
v 0.375302 0.420000 0.343634
v 0.343634 0.420000 0.375302
vt 0.857143 0.000000
vt 0.892857 0.000000
vt 0.892857 1.000000
vt 0.857143 1.000000
f 289/289 290/290 291/291 292/292
v 0.500000 0.160000 0.500000
v 0.375302 0.160000 0.343634
v 0.343634 0.160000 0.375302
vt 0.000000 0.000000
vt 1.000000 0.000000
vt 1.000000 1.000000
f 293/293 294/294 295/295
v 0.500000 0.420000 0.500000
v 0.343634 0.420000 0.375302
v 0.375302 0.420000 0.343634
vt 0.000000 0.000000
vt 1.000000 0.000000
vt 1.000000 1.000000
f 296/296 297/297 298/298
v 0.375302 0.160000 0.343634
v 0.413223 0.160000 0.319806
v 0.413223 0.420000 0.319806
v 0.375302 0.420000 0.343634
vt 0.892857 0.000000
vt 0.928571 0.000000
vt 0.928571 1.000000
vt 0.892857 1.000000
f 299/299 300/300 301/301 302/302
v 0.500000 0.160000 0.500000
v 0.413223 0.160000 0.319806
v 0.375302 0.160000 0.343634
vt 0.000000 0.000000
vt 1.000000 0.000000
vt 1.000000 1.000000
f 303/303 304/304 305/305
v 0.500000 0.420000 0.500000
v 0.375302 0.420000 0.343634
v 0.413223 0.420000 0.319806
vt 0.000000 0.000000
vt 1.000000 0.000000
vt 1.000000 1.000000
f 306/306 307/307 308/308
v 0.413223 0.160000 0.319806
v 0.455496 0.160000 0.305014
v 0.455496 0.420000 0.305014
v 0.413223 0.420000 0.319806
vt 0.928571 0.000000
vt 0.964286 0.000000
vt 0.964286 1.000000
vt 0.928571 1.000000
f 309/309 310/310 311/311 312/312
v 0.500000 0.160000 0.500000
v 0.455496 0.160000 0.305014
v 0.413223 0.160000 0.319806
vt 0.000000 0.000000
vt 1.000000 0.000000
vt 1.000000 1.000000
f 313/313 314/314 315/315
v 0.500000 0.420000 0.500000
v 0.413223 0.420000 0.319806
v 0.455496 0.420000 0.305014
vt 0.000000 0.000000
vt 1.000000 0.000000
vt 1.000000 1.000000
f 316/316 317/317 318/318
v 0.455496 0.160000 0.305014
v 0.500000 0.160000 0.300000
v 0.500000 0.420000 0.300000
v 0.455496 0.420000 0.305014
vt 0.964286 0.000000
vt 1.000000 0.000000
vt 1.000000 1.000000
vt 0.964286 1.000000
f 319/319 320/320 321/321 322/322
v 0.500000 0.160000 0.500000
v 0.500000 0.160000 0.300000
v 0.455496 0.160000 0.305014
vt 0.000000 0.000000
vt 1.000000 0.000000
vt 1.000000 1.000000
f 323/323 324/324 325/325
v 0.500000 0.420000 0.500000
v 0.455496 0.420000 0.305014
v 0.500000 0.420000 0.300000
vt 0.000000 0.000000
vt 1.000000 0.000000
vt 1.000000 1.000000
f 326/326 327/327 328/328
usemtl yellow
v 0.500000 0.180000 0.128000
v 0.508485 0.180000 0.131515
v 0.508485 0.199200 0.131515
v 0.500000 0.199200 0.128000
vt 0.000000 0.000000
vt 0.125000 0.000000
vt 0.125000 1.000000
vt 0.000000 1.000000
f 329/329 330/330 331/331 332/332
v 0.500000 0.180000 0.140000
v 0.508485 0.180000 0.131515
v 0.500000 0.180000 0.128000
vt 0.000000 0.000000
vt 1.000000 0.000000
vt 1.000000 1.000000
f 333/333 334/334 335/335
v 0.500000 0.199200 0.140000
v 0.500000 0.199200 0.128000
v 0.508485 0.199200 0.131515
vt 0.000000 0.000000
vt 1.000000 0.000000
vt 1.000000 1.000000
f 336/336 337/337 338/338
v 0.508485 0.180000 0.131515
v 0.512000 0.180000 0.140000
v 0.512000 0.199200 0.140000
v 0.508485 0.199200 0.131515
vt 0.125000 0.000000
vt 0.250000 0.000000
vt 0.250000 1.000000
vt 0.125000 1.000000
f 339/339 340/340 341/341 342/342
v 0.500000 0.180000 0.140000
v 0.512000 0.180000 0.140000
v 0.508485 0.180000 0.131515
vt 0.000000 0.000000
vt 1.000000 0.000000
vt 1.000000 1.000000
f 343/343 344/344 345/345
v 0.500000 0.199200 0.140000
v 0.508485 0.199200 0.131515
v 0.512000 0.199200 0.140000
vt 0.000000 0.000000
vt 1.000000 0.000000
vt 1.000000 1.000000
f 346/346 347/347 348/348
v 0.512000 0.180000 0.140000
v 0.508485 0.180000 0.148485
v 0.508485 0.199200 0.148485
v 0.512000 0.199200 0.140000
vt 0.250000 0.000000
vt 0.375000 0.000000
vt 0.375000 1.000000
vt 0.250000 1.000000
f 349/349 350/350 351/351 352/352
v 0.500000 0.180000 0.140000
v 0.508485 0.180000 0.148485
v 0.512000 0.180000 0.140000
vt 0.000000 0.000000
vt 1.000000 0.000000
vt 1.000000 1.000000
f 353/353 354/354 355/355
v 0.500000 0.199200 0.140000
v 0.512000 0.199200 0.140000
v 0.508485 0.199200 0.148485
vt 0.000000 0.000000
vt 1.000000 0.000000
vt 1.000000 1.000000
f 356/356 357/357 358/358
v 0.508485 0.180000 0.148485
v 0.500000 0.180000 0.152000
v 0.500000 0.199200 0.152000
v 0.508485 0.199200 0.148485
vt 0.375000 0.000000
vt 0.500000 0.000000
vt 0.500000 1.000000
vt 0.375000 1.000000
f 359/359 360/360 361/361 362/362
v 0.500000 0.180000 0.140000
v 0.500000 0.180000 0.152000
v 0.508485 0.180000 0.148485
vt 0.000000 0.000000
vt 1.000000 0.000000
vt 1.000000 1.000000
f 363/363 364/364 365/365
v 0.500000 0.199200 0.140000
v 0.508485 0.199200 0.148485
v 0.500000 0.199200 0.152000
vt 0.000000 0.000000
vt 1.000000 0.000000
vt 1.000000 1.000000
f 366/366 367/367 368/368
v 0.500000 0.180000 0.152000
v 0.491515 0.180000 0.148485
v 0.491515 0.199200 0.148485
v 0.500000 0.199200 0.152000
vt 0.500000 0.000000
vt 0.625000 0.000000
vt 0.625000 1.000000
vt 0.500000 1.000000
f 369/369 370/370 371/371 372/372
v 0.500000 0.180000 0.140000
v 0.491515 0.180000 0.148485
v 0.500000 0.180000 0.152000
vt 0.000000 0.000000
vt 1.000000 0.000000
vt 1.000000 1.000000
f 373/373 374/374 375/375
v 0.500000 0.199200 0.140000
v 0.500000 0.199200 0.152000
v 0.491515 0.199200 0.148485
vt 0.000000 0.000000
vt 1.000000 0.000000
vt 1.000000 1.000000
f 376/376 377/377 378/378
v 0.491515 0.180000 0.148485
v 0.488000 0.180000 0.140000
v 0.488000 0.199200 0.140000
v 0.491515 0.199200 0.148485
vt 0.625000 0.000000
vt 0.750000 0.000000
vt 0.750000 1.000000
vt 0.625000 1.000000
f 379/379 380/380 381/381 382/382
v 0.500000 0.180000 0.140000
v 0.488000 0.180000 0.140000
v 0.491515 0.180000 0.148485
vt 0.000000 0.000000
vt 1.000000 0.000000
vt 1.000000 1.000000
f 383/383 384/384 385/385
v 0.500000 0.199200 0.140000
v 0.491515 0.199200 0.148485
v 0.488000 0.199200 0.140000
vt 0.000000 0.000000
vt 1.000000 0.000000
vt 1.000000 1.000000
f 386/386 387/387 388/388
v 0.488000 0.180000 0.140000
v 0.491515 0.180000 0.131515
v 0.491515 0.199200 0.131515
v 0.488000 0.199200 0.140000
vt 0.750000 0.000000
vt 0.875000 0.000000
vt 0.875000 1.000000
vt 0.750000 1.000000
f 389/389 390/390 391/391 392/392
v 0.500000 0.180000 0.140000
v 0.491515 0.180000 0.131515
v 0.488000 0.180000 0.140000
vt 0.000000 0.000000
vt 1.000000 0.000000
vt 1.000000 1.000000
f 393/393 394/394 395/395
v 0.500000 0.199200 0.140000
v 0.488000 0.199200 0.140000
v 0.491515 0.199200 0.131515
vt 0.000000 0.000000
vt 1.000000 0.000000
vt 1.000000 1.000000
f 396/396 397/397 398/398
v 0.491515 0.180000 0.131515
v 0.500000 0.180000 0.128000
v 0.500000 0.199200 0.128000
v 0.491515 0.199200 0.131515
vt 0.875000 0.000000
vt 1.000000 0.000000
vt 1.000000 1.000000
vt 0.875000 1.000000
f 399/399 400/400 401/401 402/402
v 0.500000 0.180000 0.140000
v 0.500000 0.180000 0.128000
v 0.491515 0.180000 0.131515
vt 0.000000 0.000000
vt 1.000000 0.000000
vt 1.000000 1.000000
f 403/403 404/404 405/405
v 0.500000 0.199200 0.140000
v 0.491515 0.199200 0.131515
v 0.500000 0.199200 0.128000
vt 0.000000 0.000000
vt 1.000000 0.000000
vt 1.000000 1.000000
f 406/406 407/407 408/408
v 0.711603 0.180000 0.196754
v 0.720088 0.180000 0.200269
v 0.720088 0.199200 0.200269
v 0.711603 0.199200 0.196754
vt 0.000000 0.000000
vt 0.125000 0.000000
vt 0.125000 1.000000
vt 0.000000 1.000000
f 409/409 410/410 411/411 412/412
v 0.711603 0.180000 0.208754
v 0.720088 0.180000 0.200269
v 0.711603 0.180000 0.196754
vt 0.000000 0.000000
vt 1.000000 0.000000
vt 1.000000 1.000000
f 413/413 414/414 415/415
v 0.711603 0.199200 0.208754
v 0.711603 0.199200 0.196754
v 0.720088 0.199200 0.200269
vt 0.000000 0.000000
vt 1.000000 0.000000
vt 1.000000 1.000000
f 416/416 417/417 418/418
v 0.720088 0.180000 0.200269
v 0.723603 0.180000 0.208754
v 0.723603 0.199200 0.208754
v 0.720088 0.199200 0.200269
vt 0.125000 0.000000
vt 0.250000 0.000000
vt 0.250000 1.000000
vt 0.125000 1.000000
f 419/419 420/420 421/421 422/422
v 0.711603 0.180000 0.208754
v 0.723603 0.180000 0.208754
v 0.720088 0.180000 0.200269
vt 0.000000 0.000000
vt 1.000000 0.000000
vt 1.000000 1.000000
f 423/423 424/424 425/425
v 0.711603 0.199200 0.208754
v 0.720088 0.199200 0.200269
v 0.723603 0.199200 0.208754
vt 0.000000 0.000000
vt 1.000000 0.000000
vt 1.000000 1.000000
f 426/426 427/427 428/428
v 0.723603 0.180000 0.208754
v 0.720088 0.180000 0.217239
v 0.720088 0.199200 0.217239
v 0.723603 0.199200 0.208754
vt 0.250000 0.000000
vt 0.375000 0.000000
vt 0.375000 1.000000
vt 0.250000 1.000000
f 429/429 430/430 431/431 432/432
v 0.711603 0.180000 0.208754
v 0.720088 0.180000 0.217239
v 0.723603 0.180000 0.208754
vt 0.000000 0.000000
vt 1.000000 0.000000
vt 1.000000 1.000000
f 433/433 434/434 435/435
v 0.711603 0.199200 0.208754
v 0.723603 0.199200 0.208754
v 0.720088 0.199200 0.217239
vt 0.000000 0.000000
vt 1.000000 0.000000
vt 1.000000 1.000000
f 436/436 437/437 438/438
v 0.720088 0.180000 0.217239
v 0.711603 0.180000 0.220754
v 0.711603 0.199200 0.220754
v 0.720088 0.199200 0.217239
vt 0.375000 0.000000
vt 0.500000 0.000000
vt 0.500000 1.000000
vt 0.375000 1.000000
f 439/439 440/440 441/441 442/442
v 0.711603 0.180000 0.208754
v 0.711603 0.180000 0.220754
v 0.720088 0.180000 0.217239
vt 0.000000 0.000000
vt 1.000000 0.000000
vt 1.000000 1.000000
f 443/443 444/444 445/445
v 0.711603 0.199200 0.208754
v 0.720088 0.199200 0.217239
v 0.711603 0.199200 0.220754
vt 0.000000 0.000000
vt 1.000000 0.000000
vt 1.000000 1.000000
f 446/446 447/447 448/448
v 0.711603 0.180000 0.220754
v 0.703117 0.180000 0.217239
v 0.703117 0.199200 0.217239
v 0.711603 0.199200 0.220754
vt 0.500000 0.000000
vt 0.625000 0.000000
vt 0.625000 1.000000
vt 0.500000 1.000000
f 449/449 450/450 451/451 452/452
v 0.711603 0.180000 0.208754
v 0.703117 0.180000 0.217239
v 0.711603 0.180000 0.220754
vt 0.000000 0.000000
vt 1.000000 0.000000
vt 1.000000 1.000000
f 453/453 454/454 455/455
v 0.711603 0.199200 0.208754
v 0.711603 0.199200 0.220754
v 0.703117 0.199200 0.217239
vt 0.000000 0.000000
vt 1.000000 0.000000
vt 1.000000 1.000000
f 456/456 457/457 458/458
v 0.703117 0.180000 0.217239
v 0.699603 0.180000 0.208754
v 0.699603 0.199200 0.208754
v 0.703117 0.199200 0.217239
vt 0.625000 0.000000
vt 0.750000 0.000000
vt 0.750000 1.000000
vt 0.625000 1.000000
f 459/459 460/460 461/461 462/462
v 0.711603 0.180000 0.208754
v 0.699603 0.180000 0.208754
v 0.703117 0.180000 0.217239
vt 0.000000 0.000000
vt 1.000000 0.000000
vt 1.000000 1.000000
f 463/463 464/464 465/465
v 0.711603 0.199200 0.208754
v 0.703117 0.199200 0.217239
v 0.699603 0.199200 0.208754
vt 0.000000 0.000000
vt 1.000000 0.000000
vt 1.000000 1.000000
f 466/466 467/467 468/468
v 0.699603 0.180000 0.208754
v 0.703117 0.180000 0.200269
v 0.703117 0.199200 0.200269
v 0.699603 0.199200 0.208754
vt 0.750000 0.000000
vt 0.875000 0.000000
vt 0.875000 1.000000
vt 0.750000 1.000000
f 469/469 470/470 471/471 472/472
v 0.711603 0.180000 0.208754
v 0.703117 0.180000 0.200269
v 0.699603 0.180000 0.208754
vt 0.000000 0.000000
vt 1.000000 0.000000
vt 1.000000 1.000000
f 473/473 474/474 475/475
v 0.711603 0.199200 0.208754
v 0.699603 0.199200 0.208754
v 0.703117 0.199200 0.200269
vt 0.000000 0.000000
vt 1.000000 0.000000
vt 1.000000 1.000000
f 476/476 477/477 478/478
v 0.703117 0.180000 0.200269
v 0.711603 0.180000 0.196754
v 0.711603 0.199200 0.196754
v 0.703117 0.199200 0.200269
vt 0.875000 0.000000
vt 1.000000 0.000000
vt 1.000000 1.000000
vt 0.875000 1.000000
f 479/479 480/480 481/481 482/482
v 0.711603 0.180000 0.208754
v 0.711603 0.180000 0.196754
v 0.703117 0.180000 0.200269
vt 0.000000 0.000000
vt 1.000000 0.000000
vt 1.000000 1.000000
f 483/483 484/484 485/485
v 0.711603 0.199200 0.208754
v 0.703117 0.199200 0.200269
v 0.711603 0.199200 0.196754
vt 0.000000 0.000000
vt 1.000000 0.000000
vt 1.000000 1.000000
f 486/486 487/487 488/488
v 0.842380 0.180000 0.376754
v 0.850866 0.180000 0.380269
v 0.850866 0.199200 0.380269
v 0.842380 0.199200 0.376754
vt 0.000000 0.000000
vt 0.125000 0.000000
vt 0.125000 1.000000
vt 0.000000 1.000000
f 489/489 490/490 491/491 492/492
v 0.842380 0.180000 0.388754
v 0.850866 0.180000 0.380269
v 0.842380 0.180000 0.376754
vt 0.000000 0.000000
vt 1.000000 0.000000
vt 1.000000 1.000000
f 493/493 494/494 495/495
v 0.842380 0.199200 0.388754
v 0.842380 0.199200 0.376754
v 0.850866 0.199200 0.380269
vt 0.000000 0.000000
vt 1.000000 0.000000
vt 1.000000 1.000000
f 496/496 497/497 498/498
v 0.850866 0.180000 0.380269
v 0.854380 0.180000 0.388754
v 0.854380 0.199200 0.388754
v 0.850866 0.199200 0.380269
vt 0.125000 0.000000
vt 0.250000 0.000000
vt 0.250000 1.000000
vt 0.125000 1.000000
f 499/499 500/500 501/501 502/502
v 0.842380 0.180000 0.388754
v 0.854380 0.180000 0.388754
v 0.850866 0.180000 0.380269
vt 0.000000 0.000000
vt 1.000000 0.000000
vt 1.000000 1.000000
f 503/503 504/504 505/505
v 0.842380 0.199200 0.388754
v 0.850866 0.199200 0.380269
v 0.854380 0.199200 0.388754
vt 0.000000 0.000000
vt 1.000000 0.000000
vt 1.000000 1.000000
f 506/506 507/507 508/508
v 0.854380 0.180000 0.388754
v 0.850866 0.180000 0.397239
v 0.850866 0.199200 0.397239
v 0.854380 0.199200 0.388754
vt 0.250000 0.000000
vt 0.375000 0.000000
vt 0.375000 1.000000
vt 0.250000 1.000000
f 509/509 510/510 511/511 512/512
v 0.842380 0.180000 0.388754
v 0.850866 0.180000 0.397239
v 0.854380 0.180000 0.388754
vt 0.000000 0.000000
vt 1.000000 0.000000
vt 1.000000 1.000000
f 513/513 514/514 515/515
v 0.842380 0.199200 0.388754
v 0.854380 0.199200 0.388754
v 0.850866 0.199200 0.397239
vt 0.000000 0.000000
vt 1.000000 0.000000
vt 1.000000 1.000000
f 516/516 517/517 518/518
v 0.850866 0.180000 0.397239
v 0.842380 0.180000 0.400754
v 0.842380 0.199200 0.400754
v 0.850866 0.199200 0.397239
vt 0.375000 0.000000
vt 0.500000 0.000000
vt 0.500000 1.000000
vt 0.375000 1.000000
f 519/519 520/520 521/521 522/522
v 0.842380 0.180000 0.388754
v 0.842380 0.180000 0.400754
v 0.850866 0.180000 0.397239
vt 0.000000 0.000000
vt 1.000000 0.000000
vt 1.000000 1.000000
f 523/523 524/524 525/525
v 0.842380 0.199200 0.388754
v 0.850866 0.199200 0.397239
v 0.842380 0.199200 0.400754
vt 0.000000 0.000000
vt 1.000000 0.000000
vt 1.000000 1.000000
f 526/526 527/527 528/528
v 0.842380 0.180000 0.400754
v 0.833895 0.180000 0.397239
v 0.833895 0.199200 0.397239
v 0.842380 0.199200 0.400754
vt 0.500000 0.000000
vt 0.625000 0.000000
vt 0.625000 1.000000
vt 0.500000 1.000000
f 529/529 530/530 531/531 532/532
v 0.842380 0.180000 0.388754
v 0.833895 0.180000 0.397239
v 0.842380 0.180000 0.400754
vt 0.000000 0.000000
vt 1.000000 0.000000
vt 1.000000 1.000000
f 533/533 534/534 535/535
v 0.842380 0.199200 0.388754
v 0.842380 0.199200 0.400754
v 0.833895 0.199200 0.397239
vt 0.000000 0.000000
vt 1.000000 0.000000
vt 1.000000 1.000000
f 536/536 537/537 538/538
v 0.833895 0.180000 0.397239
v 0.830380 0.180000 0.388754
v 0.830380 0.199200 0.388754
v 0.833895 0.199200 0.397239
vt 0.625000 0.000000
vt 0.750000 0.000000
vt 0.750000 1.000000
vt 0.625000 1.000000
f 539/539 540/540 541/541 542/542
v 0.842380 0.180000 0.388754
v 0.830380 0.180000 0.388754
v 0.833895 0.180000 0.397239
vt 0.000000 0.000000
vt 1.000000 0.000000
vt 1.000000 1.000000
f 543/543 544/544 545/545
v 0.842380 0.199200 0.388754
v 0.833895 0.199200 0.397239
v 0.830380 0.199200 0.388754
vt 0.000000 0.000000
vt 1.000000 0.000000
vt 1.000000 1.000000
f 546/546 547/547 548/548
v 0.830380 0.180000 0.388754
v 0.833895 0.180000 0.380269
v 0.833895 0.199200 0.380269
v 0.830380 0.199200 0.388754
vt 0.750000 0.000000
vt 0.875000 0.000000
vt 0.875000 1.000000
vt 0.750000 1.000000
f 549/549 550/550 551/551 552/552
v 0.842380 0.180000 0.388754
v 0.833895 0.180000 0.380269
v 0.830380 0.180000 0.388754
vt 0.000000 0.000000
vt 1.000000 0.000000
vt 1.000000 1.000000
f 553/553 554/554 555/555
v 0.842380 0.199200 0.388754
v 0.830380 0.199200 0.388754
v 0.833895 0.199200 0.380269
vt 0.000000 0.000000
vt 1.000000 0.000000
vt 1.000000 1.000000
f 556/556 557/557 558/558
v 0.833895 0.180000 0.380269
v 0.842380 0.180000 0.376754
v 0.842380 0.199200 0.376754
v 0.833895 0.199200 0.380269
vt 0.875000 0.000000
vt 1.000000 0.000000
vt 1.000000 1.000000
vt 0.875000 1.000000
f 559/559 560/560 561/561 562/562
v 0.842380 0.180000 0.388754
v 0.842380 0.180000 0.376754
v 0.833895 0.180000 0.380269
vt 0.000000 0.000000
vt 1.000000 0.000000
vt 1.000000 1.000000
f 563/563 564/564 565/565
v 0.842380 0.199200 0.388754
v 0.833895 0.199200 0.380269
v 0.842380 0.199200 0.376754
vt 0.000000 0.000000
vt 1.000000 0.000000
vt 1.000000 1.000000
f 566/566 567/567 568/568
v 0.842380 0.180000 0.599246
v 0.850866 0.180000 0.602761
v 0.850866 0.199200 0.602761
v 0.842380 0.199200 0.599246
vt 0.000000 0.000000
vt 0.125000 0.000000
vt 0.125000 1.000000
vt 0.000000 1.000000
f 569/569 570/570 571/571 572/572
v 0.842380 0.180000 0.611246
v 0.850866 0.180000 0.602761
v 0.842380 0.180000 0.599246
vt 0.000000 0.000000
vt 1.000000 0.000000
vt 1.000000 1.000000
f 573/573 574/574 575/575
v 0.842380 0.199200 0.611246
v 0.842380 0.199200 0.599246
v 0.850866 0.199200 0.602761
vt 0.000000 0.000000
vt 1.000000 0.000000
vt 1.000000 1.000000
f 576/576 577/577 578/578
v 0.850866 0.180000 0.602761
v 0.854380 0.180000 0.611246
v 0.854380 0.199200 0.611246
v 0.850866 0.199200 0.602761
vt 0.125000 0.000000
vt 0.250000 0.000000
vt 0.250000 1.000000
vt 0.125000 1.000000
f 579/579 580/580 581/581 582/582
v 0.842380 0.180000 0.611246
v 0.854380 0.180000 0.611246
v 0.850866 0.180000 0.602761
vt 0.000000 0.000000
vt 1.000000 0.000000
vt 1.000000 1.000000
f 583/583 584/584 585/585
v 0.842380 0.199200 0.611246
v 0.850866 0.199200 0.602761
v 0.854380 0.199200 0.611246
vt 0.000000 0.000000
vt 1.000000 0.000000
vt 1.000000 1.000000
f 586/586 587/587 588/588
v 0.854380 0.180000 0.611246
v 0.850866 0.180000 0.619731
v 0.850866 0.199200 0.619731
v 0.854380 0.199200 0.611246
vt 0.250000 0.000000
vt 0.375000 0.000000
vt 0.375000 1.000000
vt 0.250000 1.000000
f 589/589 590/590 591/591 592/592
v 0.842380 0.180000 0.611246
v 0.850866 0.180000 0.619731
v 0.854380 0.180000 0.611246
vt 0.000000 0.000000
vt 1.000000 0.000000
vt 1.000000 1.000000
f 593/593 594/594 595/595
v 0.842380 0.199200 0.611246
v 0.854380 0.199200 0.611246
v 0.850866 0.199200 0.619731
vt 0.000000 0.000000
vt 1.000000 0.000000
vt 1.000000 1.000000
f 596/596 597/597 598/598
v 0.850866 0.180000 0.619731
v 0.842380 0.180000 0.623246
v 0.842380 0.199200 0.623246
v 0.850866 0.199200 0.619731
vt 0.375000 0.000000
vt 0.500000 0.000000
vt 0.500000 1.000000
vt 0.375000 1.000000
f 599/599 600/600 601/601 602/602
v 0.842380 0.180000 0.611246
v 0.842380 0.180000 0.623246
v 0.850866 0.180000 0.619731
vt 0.000000 0.000000
vt 1.000000 0.000000
vt 1.000000 1.000000
f 603/603 604/604 605/605
v 0.842380 0.199200 0.611246
v 0.850866 0.199200 0.619731
v 0.842380 0.199200 0.623246
vt 0.000000 0.000000
vt 1.000000 0.000000
vt 1.000000 1.000000
f 606/606 607/607 608/608
v 0.842380 0.180000 0.623246
v 0.833895 0.180000 0.619731
v 0.833895 0.199200 0.619731
v 0.842380 0.199200 0.623246
vt 0.500000 0.000000
vt 0.625000 0.000000
vt 0.625000 1.000000
vt 0.500000 1.000000
f 609/609 610/610 611/611 612/612
v 0.842380 0.180000 0.611246
v 0.833895 0.180000 0.619731
v 0.842380 0.180000 0.623246
vt 0.000000 0.000000
vt 1.000000 0.000000
vt 1.000000 1.000000
f 613/613 614/614 615/615
v 0.842380 0.199200 0.611246
v 0.842380 0.199200 0.623246
v 0.833895 0.199200 0.619731
vt 0.000000 0.000000
vt 1.000000 0.000000
vt 1.000000 1.000000
f 616/616 617/617 618/618
v 0.833895 0.180000 0.619731
v 0.830380 0.180000 0.611246
v 0.830380 0.199200 0.611246
v 0.833895 0.199200 0.619731
vt 0.625000 0.000000
vt 0.750000 0.000000
vt 0.750000 1.000000
vt 0.625000 1.000000
f 619/619 620/620 621/621 622/622
v 0.842380 0.180000 0.611246
v 0.830380 0.180000 0.611246
v 0.833895 0.180000 0.619731
vt 0.000000 0.000000
vt 1.000000 0.000000
vt 1.000000 1.000000
f 623/623 624/624 625/625
v 0.842380 0.199200 0.611246
v 0.833895 0.199200 0.619731
v 0.830380 0.199200 0.611246
vt 0.000000 0.000000
vt 1.000000 0.000000
vt 1.000000 1.000000
f 626/626 627/627 628/628
v 0.830380 0.180000 0.611246
v 0.833895 0.180000 0.602761
v 0.833895 0.199200 0.602761
v 0.830380 0.199200 0.611246
vt 0.750000 0.000000
vt 0.875000 0.000000
vt 0.875000 1.000000
vt 0.750000 1.000000
f 629/629 630/630 631/631 632/632
v 0.842380 0.180000 0.611246
v 0.833895 0.180000 0.602761
v 0.830380 0.180000 0.611246
vt 0.000000 0.000000
vt 1.000000 0.000000
vt 1.000000 1.000000
f 633/633 634/634 635/635
v 0.842380 0.199200 0.611246
v 0.830380 0.199200 0.611246
v 0.833895 0.199200 0.602761
vt 0.000000 0.000000
vt 1.000000 0.000000
vt 1.000000 1.000000
f 636/636 637/637 638/638
v 0.833895 0.180000 0.602761
v 0.842380 0.180000 0.599246
v 0.842380 0.199200 0.599246
v 0.833895 0.199200 0.602761
vt 0.875000 0.000000
vt 1.000000 0.000000
vt 1.000000 1.000000
vt 0.875000 1.000000
f 639/639 640/640 641/641 642/642
v 0.842380 0.180000 0.611246
v 0.842380 0.180000 0.599246
v 0.833895 0.180000 0.602761
vt 0.000000 0.000000
vt 1.000000 0.000000
vt 1.000000 1.000000
f 643/643 644/644 645/645
v 0.842380 0.199200 0.611246
v 0.833895 0.199200 0.602761
v 0.842380 0.199200 0.599246
vt 0.000000 0.000000
vt 1.000000 0.000000
vt 1.000000 1.000000
f 646/646 647/647 648/648
v 0.711603 0.180000 0.779246
v 0.720088 0.180000 0.782761
v 0.720088 0.199200 0.782761
v 0.711603 0.199200 0.779246
vt 0.000000 0.000000
vt 0.125000 0.000000
vt 0.125000 1.000000
vt 0.000000 1.000000
f 649/649 650/650 651/651 652/652
v 0.711603 0.180000 0.791246
v 0.720088 0.180000 0.782761
v 0.711603 0.180000 0.779246
vt 0.000000 0.000000
vt 1.000000 0.000000
vt 1.000000 1.000000
f 653/653 654/654 655/655
v 0.711603 0.199200 0.791246
v 0.711603 0.199200 0.779246
v 0.720088 0.199200 0.782761
vt 0.000000 0.000000
vt 1.000000 0.000000
vt 1.000000 1.000000
f 656/656 657/657 658/658
v 0.720088 0.180000 0.782761
v 0.723603 0.180000 0.791246
v 0.723603 0.199200 0.791246
v 0.720088 0.199200 0.782761
vt 0.125000 0.000000
vt 0.250000 0.000000
vt 0.250000 1.000000
vt 0.125000 1.000000
f 659/659 660/660 661/661 662/662
v 0.711603 0.180000 0.791246
v 0.723603 0.180000 0.791246
v 0.720088 0.180000 0.782761
vt 0.000000 0.000000
vt 1.000000 0.000000
vt 1.000000 1.000000
f 663/663 664/664 665/665
v 0.711603 0.199200 0.791246
v 0.720088 0.199200 0.782761
v 0.723603 0.199200 0.791246
vt 0.000000 0.000000
vt 1.000000 0.000000
vt 1.000000 1.000000
f 666/666 667/667 668/668
v 0.723603 0.180000 0.791246
v 0.720088 0.180000 0.799731
v 0.720088 0.199200 0.799731
v 0.723603 0.199200 0.791246
vt 0.250000 0.000000
vt 0.375000 0.000000
vt 0.375000 1.000000
vt 0.250000 1.000000
f 669/669 670/670 671/671 672/672
v 0.711603 0.180000 0.791246
v 0.720088 0.180000 0.799731
v 0.723603 0.180000 0.791246
vt 0.000000 0.000000
vt 1.000000 0.000000
vt 1.000000 1.000000
f 673/673 674/674 675/675
v 0.711603 0.199200 0.791246
v 0.723603 0.199200 0.791246
v 0.720088 0.199200 0.799731
vt 0.000000 0.000000
vt 1.000000 0.000000
vt 1.000000 1.000000
f 676/676 677/677 678/678
v 0.720088 0.180000 0.799731
v 0.711603 0.180000 0.803246
v 0.711603 0.199200 0.803246
v 0.720088 0.199200 0.799731
vt 0.375000 0.000000
vt 0.500000 0.000000
vt 0.500000 1.000000
vt 0.375000 1.000000
f 679/679 680/680 681/681 682/682
v 0.711603 0.180000 0.791246
v 0.711603 0.180000 0.803246
v 0.720088 0.180000 0.799731
vt 0.000000 0.000000
vt 1.000000 0.000000
vt 1.000000 1.000000
f 683/683 684/684 685/685
v 0.711603 0.199200 0.791246
v 0.720088 0.199200 0.799731
v 0.711603 0.199200 0.803246
vt 0.000000 0.000000
vt 1.000000 0.000000
vt 1.000000 1.000000
f 686/686 687/687 688/688
v 0.711603 0.180000 0.803246
v 0.703117 0.180000 0.799731
v 0.703117 0.199200 0.799731
v 0.711603 0.199200 0.803246
vt 0.500000 0.000000
vt 0.625000 0.000000
vt 0.625000 1.000000
vt 0.500000 1.000000
f 689/689 690/690 691/691 692/692
v 0.711603 0.180000 0.791246
v 0.703117 0.180000 0.799731
v 0.711603 0.180000 0.803246
vt 0.000000 0.000000
vt 1.000000 0.000000
vt 1.000000 1.000000
f 693/693 694/694 695/695
v 0.711603 0.199200 0.791246
v 0.711603 0.199200 0.803246
v 0.703117 0.199200 0.799731
vt 0.000000 0.000000
vt 1.000000 0.000000
vt 1.000000 1.000000
f 696/696 697/697 698/698
v 0.703117 0.180000 0.799731
v 0.699603 0.180000 0.791246
v 0.699603 0.199200 0.791246
v 0.703117 0.199200 0.799731
vt 0.625000 0.000000
vt 0.750000 0.000000
vt 0.750000 1.000000
vt 0.625000 1.000000
f 699/699 700/700 701/701 702/702
v 0.711603 0.180000 0.791246
v 0.699603 0.180000 0.791246
v 0.703117 0.180000 0.799731
vt 0.000000 0.000000
vt 1.000000 0.000000
vt 1.000000 1.000000
f 703/703 704/704 705/705
v 0.711603 0.199200 0.791246
v 0.703117 0.199200 0.799731
v 0.699603 0.199200 0.791246
vt 0.000000 0.000000
vt 1.000000 0.000000
vt 1.000000 1.000000
f 706/706 707/707 708/708
v 0.699603 0.180000 0.791246
v 0.703117 0.180000 0.782761
v 0.703117 0.199200 0.782761
v 0.699603 0.199200 0.791246
vt 0.750000 0.000000
vt 0.875000 0.000000
vt 0.875000 1.000000
vt 0.750000 1.000000
f 709/709 710/710 711/711 712/712
v 0.711603 0.180000 0.791246
v 0.703117 0.180000 0.782761
v 0.699603 0.180000 0.791246
vt 0.000000 0.000000
vt 1.000000 0.000000
vt 1.000000 1.000000
f 713/713 714/714 715/715
v 0.711603 0.199200 0.791246
v 0.699603 0.199200 0.791246
v 0.703117 0.199200 0.782761
vt 0.000000 0.000000
vt 1.000000 0.000000
vt 1.000000 1.000000
f 716/716 717/717 718/718
v 0.703117 0.180000 0.782761
v 0.711603 0.180000 0.779246
v 0.711603 0.199200 0.779246
v 0.703117 0.199200 0.782761
vt 0.875000 0.000000
vt 1.000000 0.000000
vt 1.000000 1.000000
vt 0.875000 1.000000
f 719/719 720/720 721/721 722/722
v 0.711603 0.180000 0.791246
v 0.711603 0.180000 0.779246
v 0.703117 0.180000 0.782761
vt 0.000000 0.000000
vt 1.000000 0.000000
vt 1.000000 1.000000
f 723/723 724/724 725/725
v 0.711603 0.199200 0.791246
v 0.703117 0.199200 0.782761
v 0.711603 0.199200 0.779246
vt 0.000000 0.000000
vt 1.000000 0.000000
vt 1.000000 1.000000
f 726/726 727/727 728/728
v 0.500000 0.180000 0.848000
v 0.508485 0.180000 0.851515
v 0.508485 0.199200 0.851515
v 0.500000 0.199200 0.848000
vt 0.000000 0.000000
vt 0.125000 0.000000
vt 0.125000 1.000000
vt 0.000000 1.000000
f 729/729 730/730 731/731 732/732
v 0.500000 0.180000 0.860000
v 0.508485 0.180000 0.851515
v 0.500000 0.180000 0.848000
vt 0.000000 0.000000
vt 1.000000 0.000000
vt 1.000000 1.000000
f 733/733 734/734 735/735
v 0.500000 0.199200 0.860000
v 0.500000 0.199200 0.848000
v 0.508485 0.199200 0.851515
vt 0.000000 0.000000
vt 1.000000 0.000000
vt 1.000000 1.000000
f 736/736 737/737 738/738
v 0.508485 0.180000 0.851515
v 0.512000 0.180000 0.860000
v 0.512000 0.199200 0.860000
v 0.508485 0.199200 0.851515
vt 0.125000 0.000000
vt 0.250000 0.000000
vt 0.250000 1.000000
vt 0.125000 1.000000
f 739/739 740/740 741/741 742/742
v 0.500000 0.180000 0.860000
v 0.512000 0.180000 0.860000
v 0.508485 0.180000 0.851515
vt 0.000000 0.000000
vt 1.000000 0.000000
vt 1.000000 1.000000
f 743/743 744/744 745/745
v 0.500000 0.199200 0.860000
v 0.508485 0.199200 0.851515
v 0.512000 0.199200 0.860000
vt 0.000000 0.000000
vt 1.000000 0.000000
vt 1.000000 1.000000
f 746/746 747/747 748/748
v 0.512000 0.180000 0.860000
v 0.508485 0.180000 0.868485
v 0.508485 0.199200 0.868485
v 0.512000 0.199200 0.860000
vt 0.250000 0.000000
vt 0.375000 0.000000
vt 0.375000 1.000000
vt 0.250000 1.000000
f 749/749 750/750 751/751 752/752
v 0.500000 0.180000 0.860000
v 0.508485 0.180000 0.868485
v 0.512000 0.180000 0.860000
vt 0.000000 0.000000
vt 1.000000 0.000000
vt 1.000000 1.000000
f 753/753 754/754 755/755
v 0.500000 0.199200 0.860000
v 0.512000 0.199200 0.860000
v 0.508485 0.199200 0.868485
vt 0.000000 0.000000
vt 1.000000 0.000000
vt 1.000000 1.000000
f 756/756 757/757 758/758
v 0.508485 0.180000 0.868485
v 0.500000 0.180000 0.872000
v 0.500000 0.199200 0.872000
v 0.508485 0.199200 0.868485
vt 0.375000 0.000000
vt 0.500000 0.000000
vt 0.500000 1.000000
vt 0.375000 1.000000
f 759/759 760/760 761/761 762/762
v 0.500000 0.180000 0.860000
v 0.500000 0.180000 0.872000
v 0.508485 0.180000 0.868485
vt 0.000000 0.000000
vt 1.000000 0.000000
vt 1.000000 1.000000
f 763/763 764/764 765/765
v 0.500000 0.199200 0.860000
v 0.508485 0.199200 0.868485
v 0.500000 0.199200 0.872000
vt 0.000000 0.000000
vt 1.000000 0.000000
vt 1.000000 1.000000
f 766/766 767/767 768/768
v 0.500000 0.180000 0.872000
v 0.491515 0.180000 0.868485
v 0.491515 0.199200 0.868485
v 0.500000 0.199200 0.872000
vt 0.500000 0.000000
vt 0.625000 0.000000
vt 0.625000 1.000000
vt 0.500000 1.000000
f 769/769 770/770 771/771 772/772
v 0.500000 0.180000 0.860000
v 0.491515 0.180000 0.868485
v 0.500000 0.180000 0.872000
vt 0.000000 0.000000
vt 1.000000 0.000000
vt 1.000000 1.000000
f 773/773 774/774 775/775
v 0.500000 0.199200 0.860000
v 0.500000 0.199200 0.872000
v 0.491515 0.199200 0.868485
vt 0.000000 0.000000
vt 1.000000 0.000000
vt 1.000000 1.000000
f 776/776 777/777 778/778
v 0.491515 0.180000 0.868485
v 0.488000 0.180000 0.860000
v 0.488000 0.199200 0.860000
v 0.491515 0.199200 0.868485
vt 0.625000 0.000000
vt 0.750000 0.000000
vt 0.750000 1.000000
vt 0.625000 1.000000
f 779/779 780/780 781/781 782/782
v 0.500000 0.180000 0.860000
v 0.488000 0.180000 0.860000
v 0.491515 0.180000 0.868485
vt 0.000000 0.000000
vt 1.000000 0.000000
vt 1.000000 1.000000
f 783/783 784/784 785/785
v 0.500000 0.199200 0.860000
v 0.491515 0.199200 0.868485
v 0.488000 0.199200 0.860000
vt 0.000000 0.000000
vt 1.000000 0.000000
vt 1.000000 1.000000
f 786/786 787/787 788/788
v 0.488000 0.180000 0.860000
v 0.491515 0.180000 0.851515
v 0.491515 0.199200 0.851515
v 0.488000 0.199200 0.860000
vt 0.750000 0.000000
vt 0.875000 0.000000
vt 0.875000 1.000000
vt 0.750000 1.000000
f 789/789 790/790 791/791 792/792
v 0.500000 0.180000 0.860000
v 0.491515 0.180000 0.851515
v 0.488000 0.180000 0.860000
vt 0.000000 0.000000
vt 1.000000 0.000000
vt 1.000000 1.000000
f 793/793 794/794 795/795
v 0.500000 0.199200 0.860000
v 0.488000 0.199200 0.860000
v 0.491515 0.199200 0.851515
vt 0.000000 0.000000
vt 1.000000 0.000000
vt 1.000000 1.000000
f 796/796 797/797 798/798
v 0.491515 0.180000 0.851515
v 0.500000 0.180000 0.848000
v 0.500000 0.199200 0.848000
v 0.491515 0.199200 0.851515
vt 0.875000 0.000000
vt 1.000000 0.000000
vt 1.000000 1.000000
vt 0.875000 1.000000
f 799/799 800/800 801/801 802/802
v 0.500000 0.180000 0.860000
v 0.500000 0.180000 0.848000
v 0.491515 0.180000 0.851515
vt 0.000000 0.000000
vt 1.000000 0.000000
vt 1.000000 1.000000
f 803/803 804/804 805/805
v 0.500000 0.199200 0.860000
v 0.491515 0.199200 0.851515
v 0.500000 0.199200 0.848000
vt 0.000000 0.000000
vt 1.000000 0.000000
vt 1.000000 1.000000
f 806/806 807/807 808/808
v 0.288397 0.180000 0.779246
v 0.296883 0.180000 0.782761
v 0.296883 0.199200 0.782761
v 0.288397 0.199200 0.779246
vt 0.000000 0.000000
vt 0.125000 0.000000
vt 0.125000 1.000000
vt 0.000000 1.000000
f 809/809 810/810 811/811 812/812
v 0.288397 0.180000 0.791246
v 0.296883 0.180000 0.782761
v 0.288397 0.180000 0.779246
vt 0.000000 0.000000
vt 1.000000 0.000000
vt 1.000000 1.000000
f 813/813 814/814 815/815
v 0.288397 0.199200 0.791246
v 0.288397 0.199200 0.779246
v 0.296883 0.199200 0.782761
vt 0.000000 0.000000
vt 1.000000 0.000000
vt 1.000000 1.000000
f 816/816 817/817 818/818
v 0.296883 0.180000 0.782761
v 0.300397 0.180000 0.791246
v 0.300397 0.199200 0.791246
v 0.296883 0.199200 0.782761
vt 0.125000 0.000000
vt 0.250000 0.000000
vt 0.250000 1.000000
vt 0.125000 1.000000
f 819/819 820/820 821/821 822/822
v 0.288397 0.180000 0.791246
v 0.300397 0.180000 0.791246
v 0.296883 0.180000 0.782761
vt 0.000000 0.000000
vt 1.000000 0.000000
vt 1.000000 1.000000
f 823/823 824/824 825/825
v 0.288397 0.199200 0.791246
v 0.296883 0.199200 0.782761
v 0.300397 0.199200 0.791246
vt 0.000000 0.000000
vt 1.000000 0.000000
vt 1.000000 1.000000
f 826/826 827/827 828/828
v 0.300397 0.180000 0.791246
v 0.296883 0.180000 0.799731
v 0.296883 0.199200 0.799731
v 0.300397 0.199200 0.791246
vt 0.250000 0.000000
vt 0.375000 0.000000
vt 0.375000 1.000000
vt 0.250000 1.000000
f 829/829 830/830 831/831 832/832
v 0.288397 0.180000 0.791246
v 0.296883 0.180000 0.799731
v 0.300397 0.180000 0.791246
vt 0.000000 0.000000
vt 1.000000 0.000000
vt 1.000000 1.000000
f 833/833 834/834 835/835
v 0.288397 0.199200 0.791246
v 0.300397 0.199200 0.791246
v 0.296883 0.199200 0.799731
vt 0.000000 0.000000
vt 1.000000 0.000000
vt 1.000000 1.000000
f 836/836 837/837 838/838
v 0.296883 0.180000 0.799731
v 0.288397 0.180000 0.803246
v 0.288397 0.199200 0.803246
v 0.296883 0.199200 0.799731
vt 0.375000 0.000000
vt 0.500000 0.000000
vt 0.500000 1.000000
vt 0.375000 1.000000
f 839/839 840/840 841/841 842/842
v 0.288397 0.180000 0.791246
v 0.288397 0.180000 0.803246
v 0.296883 0.180000 0.799731
vt 0.000000 0.000000
vt 1.000000 0.000000
vt 1.000000 1.000000
f 843/843 844/844 845/845
v 0.288397 0.199200 0.791246
v 0.296883 0.199200 0.799731
v 0.288397 0.199200 0.803246
vt 0.000000 0.000000
vt 1.000000 0.000000
vt 1.000000 1.000000
f 846/846 847/847 848/848
v 0.288397 0.180000 0.803246
v 0.279912 0.180000 0.799731
v 0.279912 0.199200 0.799731
v 0.288397 0.199200 0.803246
vt 0.500000 0.000000
vt 0.625000 0.000000
vt 0.625000 1.000000
vt 0.500000 1.000000
f 849/849 850/850 851/851 852/852
v 0.288397 0.180000 0.791246
v 0.279912 0.180000 0.799731
v 0.288397 0.180000 0.803246
vt 0.000000 0.000000
vt 1.000000 0.000000
vt 1.000000 1.000000
f 853/853 854/854 855/855
v 0.288397 0.199200 0.791246
v 0.288397 0.199200 0.803246
v 0.279912 0.199200 0.799731
vt 0.000000 0.000000
vt 1.000000 0.000000
vt 1.000000 1.000000
f 856/856 857/857 858/858
v 0.279912 0.180000 0.799731
v 0.276397 0.180000 0.791246
v 0.276397 0.199200 0.791246
v 0.279912 0.199200 0.799731
vt 0.625000 0.000000
vt 0.750000 0.000000
vt 0.750000 1.000000
vt 0.625000 1.000000
f 859/859 860/860 861/861 862/862
v 0.288397 0.180000 0.791246
v 0.276397 0.180000 0.791246
v 0.279912 0.180000 0.799731
vt 0.000000 0.000000
vt 1.000000 0.000000
vt 1.000000 1.000000
f 863/863 864/864 865/865
v 0.288397 0.199200 0.791246
v 0.279912 0.199200 0.799731
v 0.276397 0.199200 0.791246
vt 0.000000 0.000000
vt 1.000000 0.000000
vt 1.000000 1.000000
f 866/866 867/867 868/868
v 0.276397 0.180000 0.791246
v 0.279912 0.180000 0.782761
v 0.279912 0.199200 0.782761
v 0.276397 0.199200 0.791246
vt 0.750000 0.000000
vt 0.875000 0.000000
vt 0.875000 1.000000
vt 0.750000 1.000000
f 869/869 870/870 871/871 872/872
v 0.288397 0.180000 0.791246
v 0.279912 0.180000 0.782761
v 0.276397 0.180000 0.791246
vt 0.000000 0.000000
vt 1.000000 0.000000
vt 1.000000 1.000000
f 873/873 874/874 875/875
v 0.288397 0.199200 0.791246
v 0.276397 0.199200 0.791246
v 0.279912 0.199200 0.782761
vt 0.000000 0.000000
vt 1.000000 0.000000
vt 1.000000 1.000000
f 876/876 877/877 878/878
v 0.279912 0.180000 0.782761
v 0.288397 0.180000 0.779246
v 0.288397 0.199200 0.779246
v 0.279912 0.199200 0.782761
vt 0.875000 0.000000
vt 1.000000 0.000000
vt 1.000000 1.000000
vt 0.875000 1.000000
f 879/879 880/880 881/881 882/882
v 0.288397 0.180000 0.791246
v 0.288397 0.180000 0.779246
v 0.279912 0.180000 0.782761
vt 0.000000 0.000000
vt 1.000000 0.000000
vt 1.000000 1.000000
f 883/883 884/884 885/885
v 0.288397 0.199200 0.791246
v 0.279912 0.199200 0.782761
v 0.288397 0.199200 0.779246
vt 0.000000 0.000000
vt 1.000000 0.000000
vt 1.000000 1.000000
f 886/886 887/887 888/888
v 0.157620 0.180000 0.599246
v 0.166105 0.180000 0.602761
v 0.166105 0.199200 0.602761
v 0.157620 0.199200 0.599246
vt 0.000000 0.000000
vt 0.125000 0.000000
vt 0.125000 1.000000
vt 0.000000 1.000000
f 889/889 890/890 891/891 892/892
v 0.157620 0.180000 0.611246
v 0.166105 0.180000 0.602761
v 0.157620 0.180000 0.599246
vt 0.000000 0.000000
vt 1.000000 0.000000
vt 1.000000 1.000000
f 893/893 894/894 895/895
v 0.157620 0.199200 0.611246
v 0.157620 0.199200 0.599246
v 0.166105 0.199200 0.602761
vt 0.000000 0.000000
vt 1.000000 0.000000
vt 1.000000 1.000000
f 896/896 897/897 898/898
v 0.166105 0.180000 0.602761
v 0.169620 0.180000 0.611246
v 0.169620 0.199200 0.611246
v 0.166105 0.199200 0.602761
vt 0.125000 0.000000
vt 0.250000 0.000000
vt 0.250000 1.000000
vt 0.125000 1.000000
f 899/899 900/900 901/901 902/902
v 0.157620 0.180000 0.611246
v 0.169620 0.180000 0.611246
v 0.166105 0.180000 0.602761
vt 0.000000 0.000000
vt 1.000000 0.000000
vt 1.000000 1.000000
f 903/903 904/904 905/905
v 0.157620 0.199200 0.611246
v 0.166105 0.199200 0.602761
v 0.169620 0.199200 0.611246
vt 0.000000 0.000000
vt 1.000000 0.000000
vt 1.000000 1.000000
f 906/906 907/907 908/908
v 0.169620 0.180000 0.611246
v 0.166105 0.180000 0.619731
v 0.166105 0.199200 0.619731
v 0.169620 0.199200 0.611246
vt 0.250000 0.000000
vt 0.375000 0.000000
vt 0.375000 1.000000
vt 0.250000 1.000000
f 909/909 910/910 911/911 912/912
v 0.157620 0.180000 0.611246
v 0.166105 0.180000 0.619731
v 0.169620 0.180000 0.611246
vt 0.000000 0.000000
vt 1.000000 0.000000
vt 1.000000 1.000000
f 913/913 914/914 915/915
v 0.157620 0.199200 0.611246
v 0.169620 0.199200 0.611246
v 0.166105 0.199200 0.619731
vt 0.000000 0.000000
vt 1.000000 0.000000
vt 1.000000 1.000000
f 916/916 917/917 918/918
v 0.166105 0.180000 0.619731
v 0.157620 0.180000 0.623246
v 0.157620 0.199200 0.623246
v 0.166105 0.199200 0.619731
vt 0.375000 0.000000
vt 0.500000 0.000000
vt 0.500000 1.000000
vt 0.375000 1.000000
f 919/919 920/920 921/921 922/922
v 0.157620 0.180000 0.611246
v 0.157620 0.180000 0.623246
v 0.166105 0.180000 0.619731
vt 0.000000 0.000000
vt 1.000000 0.000000
vt 1.000000 1.000000
f 923/923 924/924 925/925
v 0.157620 0.199200 0.611246
v 0.166105 0.199200 0.619731
v 0.157620 0.199200 0.623246
vt 0.000000 0.000000
vt 1.000000 0.000000
vt 1.000000 1.000000
f 926/926 927/927 928/928
v 0.157620 0.180000 0.623246
v 0.149134 0.180000 0.619731
v 0.149134 0.199200 0.619731
v 0.157620 0.199200 0.623246
vt 0.500000 0.000000
vt 0.625000 0.000000
vt 0.625000 1.000000
vt 0.500000 1.000000
f 929/929 930/930 931/931 932/932
v 0.157620 0.180000 0.611246
v 0.149134 0.180000 0.619731
v 0.157620 0.180000 0.623246
vt 0.000000 0.000000
vt 1.000000 0.000000
vt 1.000000 1.000000
f 933/933 934/934 935/935
v 0.157620 0.199200 0.611246
v 0.157620 0.199200 0.623246
v 0.149134 0.199200 0.619731
vt 0.000000 0.000000
vt 1.000000 0.000000
vt 1.000000 1.000000
f 936/936 937/937 938/938
v 0.149134 0.180000 0.619731
v 0.145620 0.180000 0.611246
v 0.145620 0.199200 0.611246
v 0.149134 0.199200 0.619731
vt 0.625000 0.000000
vt 0.750000 0.000000
vt 0.750000 1.000000
vt 0.625000 1.000000
f 939/939 940/940 941/941 942/942
v 0.157620 0.180000 0.611246
v 0.145620 0.180000 0.611246
v 0.149134 0.180000 0.619731
vt 0.000000 0.000000
vt 1.000000 0.000000
vt 1.000000 1.000000
f 943/943 944/944 945/945
v 0.157620 0.199200 0.611246
v 0.149134 0.199200 0.619731
v 0.145620 0.199200 0.611246
vt 0.000000 0.000000
vt 1.000000 0.000000
vt 1.000000 1.000000
f 946/946 947/947 948/948
v 0.145620 0.180000 0.611246
v 0.149134 0.180000 0.602761
v 0.149134 0.199200 0.602761
v 0.145620 0.199200 0.611246
vt 0.750000 0.000000
vt 0.875000 0.000000
vt 0.875000 1.000000
vt 0.750000 1.000000
f 949/949 950/950 951/951 952/952
v 0.157620 0.180000 0.611246
v 0.149134 0.180000 0.602761
v 0.145620 0.180000 0.611246
vt 0.000000 0.000000
vt 1.000000 0.000000
vt 1.000000 1.000000
f 953/953 954/954 955/955
v 0.157620 0.199200 0.611246
v 0.145620 0.199200 0.611246
v 0.149134 0.199200 0.602761
vt 0.000000 0.000000
vt 1.000000 0.000000
vt 1.000000 1.000000
f 956/956 957/957 958/958
v 0.149134 0.180000 0.602761
v 0.157620 0.180000 0.599246
v 0.157620 0.199200 0.599246
v 0.149134 0.199200 0.602761
vt 0.875000 0.000000
vt 1.000000 0.000000
vt 1.000000 1.000000
vt 0.875000 1.000000
f 959/959 960/960 961/961 962/962
v 0.157620 0.180000 0.611246
v 0.157620 0.180000 0.599246
v 0.149134 0.180000 0.602761
vt 0.000000 0.000000
vt 1.000000 0.000000
vt 1.000000 1.000000
f 963/963 964/964 965/965
v 0.157620 0.199200 0.611246
v 0.149134 0.199200 0.602761
v 0.157620 0.199200 0.599246
vt 0.000000 0.000000
vt 1.000000 0.000000
vt 1.000000 1.000000
f 966/966 967/967 968/968
v 0.157620 0.180000 0.376754
v 0.166105 0.180000 0.380269
v 0.166105 0.199200 0.380269
v 0.157620 0.199200 0.376754
vt 0.000000 0.000000
vt 0.125000 0.000000
vt 0.125000 1.000000
vt 0.000000 1.000000
f 969/969 970/970 971/971 972/972
v 0.157620 0.180000 0.388754
v 0.166105 0.180000 0.380269
v 0.157620 0.180000 0.376754
vt 0.000000 0.000000
vt 1.000000 0.000000
vt 1.000000 1.000000
f 973/973 974/974 975/975
v 0.157620 0.199200 0.388754
v 0.157620 0.199200 0.376754
v 0.166105 0.199200 0.380269
vt 0.000000 0.000000
vt 1.000000 0.000000
vt 1.000000 1.000000
f 976/976 977/977 978/978
v 0.166105 0.180000 0.380269
v 0.169620 0.180000 0.388754
v 0.169620 0.199200 0.388754
v 0.166105 0.199200 0.380269
vt 0.125000 0.000000
vt 0.250000 0.000000
vt 0.250000 1.000000
vt 0.125000 1.000000
f 979/979 980/980 981/981 982/982
v 0.157620 0.180000 0.388754
v 0.169620 0.180000 0.388754
v 0.166105 0.180000 0.380269
vt 0.000000 0.000000
vt 1.000000 0.000000
vt 1.000000 1.000000
f 983/983 984/984 985/985
v 0.157620 0.199200 0.388754
v 0.166105 0.199200 0.380269
v 0.169620 0.199200 0.388754
vt 0.000000 0.000000
vt 1.000000 0.000000
vt 1.000000 1.000000
f 986/986 987/987 988/988
v 0.169620 0.180000 0.388754
v 0.166105 0.180000 0.397239
v 0.166105 0.199200 0.397239
v 0.169620 0.199200 0.388754
vt 0.250000 0.000000
vt 0.375000 0.000000
vt 0.375000 1.000000
vt 0.250000 1.000000
f 989/989 990/990 991/991 992/992
v 0.157620 0.180000 0.388754
v 0.166105 0.180000 0.397239
v 0.169620 0.180000 0.388754
vt 0.000000 0.000000
vt 1.000000 0.000000
vt 1.000000 1.000000
f 993/993 994/994 995/995
v 0.157620 0.199200 0.388754
v 0.169620 0.199200 0.388754
v 0.166105 0.199200 0.397239
vt 0.000000 0.000000
vt 1.000000 0.000000
vt 1.000000 1.000000
f 996/996 997/997 998/998
v 0.166105 0.180000 0.397239
v 0.157620 0.180000 0.400754
v 0.157620 0.199200 0.400754
v 0.166105 0.199200 0.397239
vt 0.375000 0.000000
vt 0.500000 0.000000
vt 0.500000 1.000000
vt 0.375000 1.000000
f 999/999 1000/1000 1001/1001 1002/1002
v 0.157620 0.180000 0.388754
v 0.157620 0.180000 0.400754
v 0.166105 0.180000 0.397239
vt 0.000000 0.000000
vt 1.000000 0.000000
vt 1.000000 1.000000
f 1003/1003 1004/1004 1005/1005
v 0.157620 0.199200 0.388754
v 0.166105 0.199200 0.397239
v 0.157620 0.199200 0.400754
vt 0.000000 0.000000
vt 1.000000 0.000000
vt 1.000000 1.000000
f 1006/1006 1007/1007 1008/1008
v 0.157620 0.180000 0.400754
v 0.149134 0.180000 0.397239
v 0.149134 0.199200 0.397239
v 0.157620 0.199200 0.400754
vt 0.500000 0.000000
vt 0.625000 0.000000
vt 0.625000 1.000000
vt 0.500000 1.000000
f 1009/1009 1010/1010 1011/1011 1012/1012
v 0.157620 0.180000 0.388754
v 0.149134 0.180000 0.397239
v 0.157620 0.180000 0.400754
vt 0.000000 0.000000
vt 1.000000 0.000000
vt 1.000000 1.000000
f 1013/1013 1014/1014 1015/1015
v 0.157620 0.199200 0.388754
v 0.157620 0.199200 0.400754
v 0.149134 0.199200 0.397239
vt 0.000000 0.000000
vt 1.000000 0.000000
vt 1.000000 1.000000
f 1016/1016 1017/1017 1018/1018
v 0.149134 0.180000 0.397239
v 0.145620 0.180000 0.388754
v 0.145620 0.199200 0.388754
v 0.149134 0.199200 0.397239
vt 0.625000 0.000000
vt 0.750000 0.000000
vt 0.750000 1.000000
vt 0.625000 1.000000
f 1019/1019 1020/1020 1021/1021 1022/1022
v 0.157620 0.180000 0.388754
v 0.145620 0.180000 0.388754
v 0.149134 0.180000 0.397239
vt 0.000000 0.000000
vt 1.000000 0.000000
vt 1.000000 1.000000
f 1023/1023 1024/1024 1025/1025
v 0.157620 0.199200 0.388754
v 0.149134 0.199200 0.397239
v 0.145620 0.199200 0.388754
vt 0.000000 0.000000
vt 1.000000 0.000000
vt 1.000000 1.000000
f 1026/1026 1027/1027 1028/1028
v 0.145620 0.180000 0.388754
v 0.149134 0.180000 0.380269
v 0.149134 0.199200 0.380269
v 0.145620 0.199200 0.388754
vt 0.750000 0.000000
vt 0.875000 0.000000
vt 0.875000 1.000000
vt 0.750000 1.000000
f 1029/1029 1030/1030 1031/1031 1032/1032
v 0.157620 0.180000 0.388754
v 0.149134 0.180000 0.380269
v 0.145620 0.180000 0.388754
vt 0.000000 0.000000
vt 1.000000 0.000000
vt 1.000000 1.000000
f 1033/1033 1034/1034 1035/1035
v 0.157620 0.199200 0.388754
v 0.145620 0.199200 0.388754
v 0.149134 0.199200 0.380269
vt 0.000000 0.000000
vt 1.000000 0.000000
vt 1.000000 1.000000
f 1036/1036 1037/1037 1038/1038
v 0.149134 0.180000 0.380269
v 0.157620 0.180000 0.376754
v 0.157620 0.199200 0.376754
v 0.149134 0.199200 0.380269
vt 0.875000 0.000000
vt 1.000000 0.000000
vt 1.000000 1.000000
vt 0.875000 1.000000
f 1039/1039 1040/1040 1041/1041 1042/1042
v 0.157620 0.180000 0.388754
v 0.157620 0.180000 0.376754
v 0.149134 0.180000 0.380269
vt 0.000000 0.000000
vt 1.000000 0.000000
vt 1.000000 1.000000
f 1043/1043 1044/1044 1045/1045
v 0.157620 0.199200 0.388754
v 0.149134 0.199200 0.380269
v 0.157620 0.199200 0.376754
vt 0.000000 0.000000
vt 1.000000 0.000000
vt 1.000000 1.000000
f 1046/1046 1047/1047 1048/1048
v 0.288397 0.180000 0.196754
v 0.296883 0.180000 0.200269
v 0.296883 0.199200 0.200269
v 0.288397 0.199200 0.196754
vt 0.000000 0.000000
vt 0.125000 0.000000
vt 0.125000 1.000000
vt 0.000000 1.000000
f 1049/1049 1050/1050 1051/1051 1052/1052
v 0.288397 0.180000 0.208754
v 0.296883 0.180000 0.200269
v 0.288397 0.180000 0.196754
vt 0.000000 0.000000
vt 1.000000 0.000000
vt 1.000000 1.000000
f 1053/1053 1054/1054 1055/1055
v 0.288397 0.199200 0.208754
v 0.288397 0.199200 0.196754
v 0.296883 0.199200 0.200269
vt 0.000000 0.000000
vt 1.000000 0.000000
vt 1.000000 1.000000
f 1056/1056 1057/1057 1058/1058
v 0.296883 0.180000 0.200269
v 0.300397 0.180000 0.208754
v 0.300397 0.199200 0.208754
v 0.296883 0.199200 0.200269
vt 0.125000 0.000000
vt 0.250000 0.000000
vt 0.250000 1.000000
vt 0.125000 1.000000
f 1059/1059 1060/1060 1061/1061 1062/1062
v 0.288397 0.180000 0.208754
v 0.300397 0.180000 0.208754
v 0.296883 0.180000 0.200269
vt 0.000000 0.000000
vt 1.000000 0.000000
vt 1.000000 1.000000
f 1063/1063 1064/1064 1065/1065
v 0.288397 0.199200 0.208754
v 0.296883 0.199200 0.200269
v 0.300397 0.199200 0.208754
vt 0.000000 0.000000
vt 1.000000 0.000000
vt 1.000000 1.000000
f 1066/1066 1067/1067 1068/1068
v 0.300397 0.180000 0.208754
v 0.296883 0.180000 0.217239
v 0.296883 0.199200 0.217239
v 0.300397 0.199200 0.208754
vt 0.250000 0.000000
vt 0.375000 0.000000
vt 0.375000 1.000000
vt 0.250000 1.000000
f 1069/1069 1070/1070 1071/1071 1072/1072
v 0.288397 0.180000 0.208754
v 0.296883 0.180000 0.217239
v 0.300397 0.180000 0.208754
vt 0.000000 0.000000
vt 1.000000 0.000000
vt 1.000000 1.000000
f 1073/1073 1074/1074 1075/1075
v 0.288397 0.199200 0.208754
v 0.300397 0.199200 0.208754
v 0.296883 0.199200 0.217239
vt 0.000000 0.000000
vt 1.000000 0.000000
vt 1.000000 1.000000
f 1076/1076 1077/1077 1078/1078
v 0.296883 0.180000 0.217239
v 0.288397 0.180000 0.220754
v 0.288397 0.199200 0.220754
v 0.296883 0.199200 0.217239
vt 0.375000 0.000000
vt 0.500000 0.000000
vt 0.500000 1.000000
vt 0.375000 1.000000
f 1079/1079 1080/1080 1081/1081 1082/1082
v 0.288397 0.180000 0.208754
v 0.288397 0.180000 0.220754
v 0.296883 0.180000 0.217239
vt 0.000000 0.000000
vt 1.000000 0.000000
vt 1.000000 1.000000
f 1083/1083 1084/1084 1085/1085
v 0.288397 0.199200 0.208754
v 0.296883 0.199200 0.217239
v 0.288397 0.199200 0.220754
vt 0.000000 0.000000
vt 1.000000 0.000000
vt 1.000000 1.000000
f 1086/1086 1087/1087 1088/1088
v 0.288397 0.180000 0.220754
v 0.279912 0.180000 0.217239
v 0.279912 0.199200 0.217239
v 0.288397 0.199200 0.220754
vt 0.500000 0.000000
vt 0.625000 0.000000
vt 0.625000 1.000000
vt 0.500000 1.000000
f 1089/1089 1090/1090 1091/1091 1092/1092
v 0.288397 0.180000 0.208754
v 0.279912 0.180000 0.217239
v 0.288397 0.180000 0.220754
vt 0.000000 0.000000
vt 1.000000 0.000000
vt 1.000000 1.000000
f 1093/1093 1094/1094 1095/1095
v 0.288397 0.199200 0.208754
v 0.288397 0.199200 0.220754
v 0.279912 0.199200 0.217239
vt 0.000000 0.000000
vt 1.000000 0.000000
vt 1.000000 1.000000
f 1096/1096 1097/1097 1098/1098
v 0.279912 0.180000 0.217239
v 0.276397 0.180000 0.208754
v 0.276397 0.199200 0.208754
v 0.279912 0.199200 0.217239
vt 0.625000 0.000000
vt 0.750000 0.000000
vt 0.750000 1.000000
vt 0.625000 1.000000
f 1099/1099 1100/1100 1101/1101 1102/1102
v 0.288397 0.180000 0.208754
v 0.276397 0.180000 0.208754
v 0.279912 0.180000 0.217239
vt 0.000000 0.000000
vt 1.000000 0.000000
vt 1.000000 1.000000
f 1103/1103 1104/1104 1105/1105
v 0.288397 0.199200 0.208754
v 0.279912 0.199200 0.217239
v 0.276397 0.199200 0.208754
vt 0.000000 0.000000
vt 1.000000 0.000000
vt 1.000000 1.000000
f 1106/1106 1107/1107 1108/1108
v 0.276397 0.180000 0.208754
v 0.279912 0.180000 0.200269
v 0.279912 0.199200 0.200269
v 0.276397 0.199200 0.208754
vt 0.750000 0.000000
vt 0.875000 0.000000
vt 0.875000 1.000000
vt 0.750000 1.000000
f 1109/1109 1110/1110 1111/1111 1112/1112
v 0.288397 0.180000 0.208754
v 0.279912 0.180000 0.200269
v 0.276397 0.180000 0.208754
vt 0.000000 0.000000
vt 1.000000 0.000000
vt 1.000000 1.000000
f 1113/1113 1114/1114 1115/1115
v 0.288397 0.199200 0.208754
v 0.276397 0.199200 0.208754
v 0.279912 0.199200 0.200269
vt 0.000000 0.000000
vt 1.000000 0.000000
vt 1.000000 1.000000
f 1116/1116 1117/1117 1118/1118
v 0.279912 0.180000 0.200269
v 0.288397 0.180000 0.196754
v 0.288397 0.199200 0.196754
v 0.279912 0.199200 0.200269
vt 0.875000 0.000000
vt 1.000000 0.000000
vt 1.000000 1.000000
vt 0.875000 1.000000
f 1119/1119 1120/1120 1121/1121 1122/1122
v 0.288397 0.180000 0.208754
v 0.288397 0.180000 0.196754
v 0.279912 0.180000 0.200269
vt 0.000000 0.000000
vt 1.000000 0.000000
vt 1.000000 1.000000
f 1123/1123 1124/1124 1125/1125
v 0.288397 0.199200 0.208754
v 0.279912 0.199200 0.200269
v 0.288397 0.199200 0.196754
vt 0.000000 0.000000
vt 1.000000 0.000000
vt 1.000000 1.000000
f 1126/1126 1127/1127 1128/1128
usemtl dark
v 0.180000 0.100000 0.180000
v 0.340000 0.100000 0.180000
v 0.340000 0.280000 0.180000
v 0.180000 0.280000 0.180000
vt 0.000000 0.000000
vt 1.000000 0.000000
vt 1.000000 1.000000
vt 0.000000 1.000000
f 1129/1129 1130/1130 1131/1131 1132/1132
v 0.340000 0.100000 0.340000
v 0.180000 0.100000 0.340000
v 0.180000 0.280000 0.340000
v 0.340000 0.280000 0.340000
vt 0.000000 0.000000
vt 1.000000 0.000000
vt 1.000000 1.000000
vt 0.000000 1.000000
f 1133/1133 1134/1134 1135/1135 1136/1136
v 0.180000 0.100000 0.340000
v 0.180000 0.100000 0.180000
v 0.180000 0.280000 0.180000
v 0.180000 0.280000 0.340000
vt 0.000000 0.000000
vt 1.000000 0.000000
vt 1.000000 1.000000
vt 0.000000 1.000000
f 1137/1137 1138/1138 1139/1139 1140/1140
v 0.340000 0.100000 0.180000
v 0.340000 0.100000 0.340000
v 0.340000 0.280000 0.340000
v 0.340000 0.280000 0.180000
vt 0.000000 0.000000
vt 1.000000 0.000000
vt 1.000000 1.000000
vt 0.000000 1.000000
f 1141/1141 1142/1142 1143/1143 1144/1144
v 0.180000 0.280000 0.180000
v 0.340000 0.280000 0.180000
v 0.340000 0.280000 0.340000
v 0.180000 0.280000 0.340000
vt 0.000000 0.000000
vt 1.000000 0.000000
vt 1.000000 1.000000
vt 0.000000 1.000000
f 1145/1145 1146/1146 1147/1147 1148/1148
v 0.180000 0.100000 0.340000
v 0.340000 0.100000 0.340000
v 0.340000 0.100000 0.180000
v 0.180000 0.100000 0.180000
vt 0.000000 0.000000
vt 1.000000 0.000000
vt 1.000000 1.000000
vt 0.000000 1.000000
f 1149/1149 1150/1150 1151/1151 1152/1152
usemtl accent
v 0.660000 0.100000 0.660000
v 0.820000 0.100000 0.660000
v 0.820000 0.240000 0.660000
v 0.660000 0.240000 0.660000
vt 0.000000 0.000000
vt 1.000000 0.000000
vt 1.000000 1.000000
vt 0.000000 1.000000
f 1153/1153 1154/1154 1155/1155 1156/1156
v 0.820000 0.100000 0.820000
v 0.660000 0.100000 0.820000
v 0.660000 0.240000 0.820000
v 0.820000 0.240000 0.820000
vt 0.000000 0.000000
vt 1.000000 0.000000
vt 1.000000 1.000000
vt 0.000000 1.000000
f 1157/1157 1158/1158 1159/1159 1160/1160
v 0.660000 0.100000 0.820000
v 0.660000 0.100000 0.660000
v 0.660000 0.240000 0.660000
v 0.660000 0.240000 0.820000
vt 0.000000 0.000000
vt 1.000000 0.000000
vt 1.000000 1.000000
vt 0.000000 1.000000
f 1161/1161 1162/1162 1163/1163 1164/1164
v 0.820000 0.100000 0.660000
v 0.820000 0.100000 0.820000
v 0.820000 0.240000 0.820000
v 0.820000 0.240000 0.660000
vt 0.000000 0.000000
vt 1.000000 0.000000
vt 1.000000 1.000000
vt 0.000000 1.000000
f 1165/1165 1166/1166 1167/1167 1168/1168
v 0.660000 0.240000 0.660000
v 0.820000 0.240000 0.660000
v 0.820000 0.240000 0.820000
v 0.660000 0.240000 0.820000
vt 0.000000 0.000000
vt 1.000000 0.000000
vt 1.000000 1.000000
vt 0.000000 1.000000
f 1169/1169 1170/1170 1171/1171 1172/1172
v 0.660000 0.100000 0.820000
v 0.820000 0.100000 0.820000
v 0.820000 0.100000 0.660000
v 0.660000 0.100000 0.660000
vt 0.000000 0.000000
vt 1.000000 0.000000
vt 1.000000 1.000000
vt 0.000000 1.000000
f 1173/1173 1174/1174 1175/1175 1176/1176
