mtllib cruise_pad.mtl
o cruise_pad
s 1
usemtl concrete
v 0.000000 0.000000 0.000000
v 1.000000 0.000000 0.000000
v 1.000000 0.100000 0.000000
v 0.000000 0.100000 0.000000
vt 0.000000 0.000000
vt 1.000000 0.000000
vt 1.000000 1.000000
vt 0.000000 1.000000
f 1/1 2/2 3/3 4/4
v 1.000000 0.000000 1.000000
v 0.000000 0.000000 1.000000
v 0.000000 0.100000 1.000000
v 1.000000 0.100000 1.000000
vt 0.000000 0.000000
vt 1.000000 0.000000
vt 1.000000 1.000000
vt 0.000000 1.000000
f 5/5 6/6 7/7 8/8
v 0.000000 0.000000 1.000000
v 0.000000 0.000000 0.000000
v 0.000000 0.100000 0.000000
v 0.000000 0.100000 1.000000
vt 0.000000 0.000000
vt 1.000000 0.000000
vt 1.000000 1.000000
vt 0.000000 1.000000
f 9/9 10/10 11/11 12/12
v 1.000000 0.000000 0.000000
v 1.000000 0.000000 1.000000
v 1.000000 0.100000 1.000000
v 1.000000 0.100000 0.000000
vt 0.000000 0.000000
vt 1.000000 0.000000
vt 1.000000 1.000000
vt 0.000000 1.000000
f 13/13 14/14 15/15 16/16
v 0.000000 0.100000 0.000000
v 1.000000 0.100000 0.000000
v 1.000000 0.100000 1.000000
v 0.000000 0.100000 1.000000
vt 0.000000 0.000000
vt 1.000000 0.000000
vt 1.000000 1.000000
vt 0.000000 1.000000
f 17/17 18/18 19/19 20/20
v 0.000000 0.000000 1.000000
v 1.000000 0.000000 1.000000
v 1.000000 0.000000 0.000000
v 0.000000 0.000000 0.000000
vt 0.000000 0.000000
vt 1.000000 0.000000
vt 1.000000 1.000000
vt 0.000000 1.000000
f 21/21 22/22 23/23 24/24
usemtl dark
v 0.040000 0.100000 0.080000
v 0.960000 0.100000 0.080000
v 0.960000 0.160000 0.080000
v 0.040000 0.160000 0.080000
vt 0.000000 0.000000
vt 1.000000 0.000000
vt 1.000000 1.000000
vt 0.000000 1.000000
f 25/25 26/26 27/27 28/28
v 0.960000 0.100000 0.920000
v 0.040000 0.100000 0.920000
v 0.040000 0.160000 0.920000
v 0.960000 0.160000 0.920000
vt 0.000000 0.000000
vt 1.000000 0.000000
vt 1.000000 1.000000
vt 0.000000 1.000000
f 29/29 30/30 31/31 32/32
v 0.040000 0.100000 0.920000
v 0.040000 0.100000 0.080000
v 0.040000 0.160000 0.080000
v 0.040000 0.160000 0.920000
vt 0.000000 0.000000
vt 1.000000 0.000000
vt 1.000000 1.000000
vt 0.000000 1.000000
f 33/33 34/34 35/35 36/36
v 0.960000 0.100000 0.080000
v 0.960000 0.100000 0.920000
v 0.960000 0.160000 0.920000
v 0.960000 0.160000 0.080000
vt 0.000000 0.000000
vt 1.000000 0.000000
vt 1.000000 1.000000
vt 0.000000 1.000000
f 37/37 38/38 39/39 40/40
v 0.040000 0.160000 0.080000
v 0.960000 0.160000 0.080000
v 0.960000 0.160000 0.920000
v 0.040000 0.160000 0.920000
vt 0.000000 0.000000
vt 1.000000 0.000000
vt 1.000000 1.000000
vt 0.000000 1.000000
f 41/41 42/42 43/43 44/44
v 0.040000 0.100000 0.920000
v 0.960000 0.100000 0.920000
v 0.960000 0.100000 0.080000
v 0.040000 0.100000 0.080000
vt 0.000000 0.000000
vt 1.000000 0.000000
vt 1.000000 1.000000
vt 0.000000 1.000000
f 45/45 46/46 47/47 48/48
usemtl body
v 0.180000 0.160000 0.720000
v 0.820000 0.160000 0.720000
v 0.820000 0.280000 0.720000
v 0.180000 0.280000 0.720000
vt 0.000000 0.000000
vt 1.000000 0.000000
vt 1.000000 1.000000
vt 0.000000 1.000000
f 49/49 50/50 51/51 52/52
v 0.820000 0.160000 0.880000
v 0.180000 0.160000 0.880000
v 0.180000 0.280000 0.880000
v 0.820000 0.280000 0.880000
vt 0.000000 0.000000
vt 1.000000 0.000000
vt 1.000000 1.000000
vt 0.000000 1.000000
f 53/53 54/54 55/55 56/56
v 0.180000 0.160000 0.880000
v 0.180000 0.160000 0.720000
v 0.180000 0.280000 0.720000
v 0.180000 0.280000 0.880000
vt 0.000000 0.000000
vt 1.000000 0.000000
vt 1.000000 1.000000
vt 0.000000 1.000000
f 57/57 58/58 59/59 60/60
v 0.820000 0.160000 0.720000
v 0.820000 0.160000 0.880000
v 0.820000 0.280000 0.880000
v 0.820000 0.280000 0.720000
vt 0.000000 0.000000
vt 1.000000 0.000000
vt 1.000000 1.000000
vt 0.000000 1.000000
f 61/61 62/62 63/63 64/64
v 0.180000 0.280000 0.720000
v 0.820000 0.280000 0.720000
v 0.820000 0.280000 0.880000
v 0.180000 0.280000 0.880000
vt 0.000000 0.000000
vt 1.000000 0.000000
vt 1.000000 1.000000
vt 0.000000 1.000000
f 65/65 66/66 67/67 68/68
v 0.180000 0.160000 0.880000
v 0.820000 0.160000 0.880000
v 0.820000 0.160000 0.720000
v 0.180000 0.160000 0.720000
vt 0.000000 0.000000
vt 1.000000 0.000000
vt 1.000000 1.000000
vt 0.000000 1.000000
f 69/69 70/70 71/71 72/72
usemtl dark
v 0.220000 0.220000 0.200000
v 0.340000 0.220000 0.200000
v 0.340000 0.340000 0.200000
v 0.220000 0.340000 0.200000
vt 0.000000 0.000000
vt 1.000000 0.000000
vt 1.000000 1.000000
vt 0.000000 1.000000
f 73/73 74/74 75/75 76/76
v 0.340000 0.220000 0.860000
v 0.220000 0.220000 0.860000
v 0.220000 0.340000 0.860000
v 0.340000 0.340000 0.860000
vt 0.000000 0.000000
vt 1.000000 0.000000
vt 1.000000 1.000000
vt 0.000000 1.000000
f 77/77 78/78 79/79 80/80
v 0.220000 0.220000 0.860000
v 0.220000 0.220000 0.200000
v 0.220000 0.340000 0.200000
v 0.220000 0.340000 0.860000
vt 0.000000 0.000000
vt 1.000000 0.000000
vt 1.000000 1.000000
vt 0.000000 1.000000
f 81/81 82/82 83/83 84/84
v 0.340000 0.220000 0.200000
v 0.340000 0.220000 0.860000
v 0.340000 0.340000 0.860000
v 0.340000 0.340000 0.200000
vt 0.000000 0.000000
vt 1.000000 0.000000
vt 1.000000 1.000000
vt 0.000000 1.000000
f 85/85 86/86 87/87 88/88
v 0.220000 0.340000 0.200000
v 0.340000 0.340000 0.200000
v 0.340000 0.340000 0.860000
v 0.220000 0.340000 0.860000
vt 0.000000 0.000000
vt 1.000000 0.000000
vt 1.000000 1.000000
vt 0.000000 1.000000
f 89/89 90/90 91/91 92/92
v 0.220000 0.220000 0.860000
v 0.340000 0.220000 0.860000
v 0.340000 0.220000 0.200000
v 0.220000 0.220000 0.200000
vt 0.000000 0.000000
vt 1.000000 0.000000
vt 1.000000 1.000000
vt 0.000000 1.000000
f 93/93 94/94 95/95 96/96
v 0.660000 0.220000 0.200000
v 0.780000 0.220000 0.200000
v 0.780000 0.340000 0.200000
v 0.660000 0.340000 0.200000
vt 0.000000 0.000000
vt 1.000000 0.000000
vt 1.000000 1.000000
vt 0.000000 1.000000
f 97/97 98/98 99/99 100/100
v 0.780000 0.220000 0.860000
v 0.660000 0.220000 0.860000
v 0.660000 0.340000 0.860000
v 0.780000 0.340000 0.860000
vt 0.000000 0.000000
vt 1.000000 0.000000
vt 1.000000 1.000000
vt 0.000000 1.000000
f 101/101 102/102 103/103 104/104
v 0.660000 0.220000 0.860000
v 0.660000 0.220000 0.200000
v 0.660000 0.340000 0.200000
v 0.660000 0.340000 0.860000
vt 0.000000 0.000000
vt 1.000000 0.000000
vt 1.000000 1.000000
vt 0.000000 1.000000
f 105/105 106/106 107/107 108/108
v 0.780000 0.220000 0.200000
v 0.780000 0.220000 0.860000
v 0.780000 0.340000 0.860000
v 0.780000 0.340000 0.200000
vt 0.000000 0.000000
vt 1.000000 0.000000
vt 1.000000 1.000000
vt 0.000000 1.000000
f 109/109 110/110 111/111 112/112
v 0.660000 0.340000 0.200000
v 0.780000 0.340000 0.200000
v 0.780000 0.340000 0.860000
v 0.660000 0.340000 0.860000
vt 0.000000 0.000000
vt 1.000000 0.000000
vt 1.000000 1.000000
vt 0.000000 1.000000
f 113/113 114/114 115/115 116/116
v 0.660000 0.220000 0.860000
v 0.780000 0.220000 0.860000
v 0.780000 0.220000 0.200000
v 0.660000 0.220000 0.200000
vt 0.000000 0.000000
vt 1.000000 0.000000
vt 1.000000 1.000000
vt 0.000000 1.000000
f 117/117 118/118 119/119 120/120
usemtl yellow
v 0.460000 0.280000 0.780000
v 0.540000 0.280000 0.780000
v 0.540000 0.400000 0.780000
v 0.460000 0.400000 0.780000
vt 0.000000 0.000000
vt 1.000000 0.000000
vt 1.000000 1.000000
vt 0.000000 1.000000
f 121/121 122/122 123/123 124/124
v 0.540000 0.280000 0.860000
v 0.460000 0.280000 0.860000
v 0.460000 0.400000 0.860000
v 0.540000 0.400000 0.860000
vt 0.000000 0.000000
vt 1.000000 0.000000
vt 1.000000 1.000000
vt 0.000000 1.000000
f 125/125 126/126 127/127 128/128
v 0.460000 0.280000 0.860000
v 0.460000 0.280000 0.780000
v 0.460000 0.400000 0.780000
v 0.460000 0.400000 0.860000
vt 0.000000 0.000000
vt 1.000000 0.000000
vt 1.000000 1.000000
vt 0.000000 1.000000
f 129/129 130/130 131/131 132/132
v 0.540000 0.280000 0.780000
v 0.540000 0.280000 0.860000
v 0.540000 0.400000 0.860000
v 0.540000 0.400000 0.780000
vt 0.000000 0.000000
vt 1.000000 0.000000
vt 1.000000 1.000000
vt 0.000000 1.000000
f 133/133 134/134 135/135 136/136
v 0.460000 0.400000 0.780000
v 0.540000 0.400000 0.780000
v 0.540000 0.400000 0.860000
v 0.460000 0.400000 0.860000
vt 0.000000 0.000000
vt 1.000000 0.000000
vt 1.000000 1.000000
vt 0.000000 1.000000
f 137/137 138/138 139/139 140/140
v 0.460000 0.280000 0.860000
v 0.540000 0.280000 0.860000
v 0.540000 0.280000 0.780000
v 0.460000 0.280000 0.780000
vt 0.000000 0.000000
vt 1.000000 0.000000
vt 1.000000 1.000000
vt 0.000000 1.000000
f 141/141 142/142 143/143 144/144
usemtl body
v 0.440000 0.300000 0.180000
v 0.560000 0.300000 0.180000
v 0.560000 0.420000 0.180000
v 0.440000 0.420000 0.180000
vt 0.000000 0.000000
vt 1.000000 0.000000
vt 1.000000 1.000000
vt 0.000000 1.000000
f 145/145 146/146 147/147 148/148
v 0.560000 0.300000 0.820000
v 0.440000 0.300000 0.820000
v 0.440000 0.420000 0.820000
v 0.560000 0.420000 0.820000
vt 0.000000 0.000000
vt 1.000000 0.000000
vt 1.000000 1.000000
vt 0.000000 1.000000
f 149/149 150/150 151/151 152/152
v 0.440000 0.300000 0.820000
v 0.440000 0.300000 0.180000
v 0.440000 0.420000 0.180000
v 0.440000 0.420000 0.820000
vt 0.000000 0.000000
vt 1.000000 0.000000
vt 1.000000 1.000000
vt 0.000000 1.000000
f 153/153 154/154 155/155 156/156
v 0.560000 0.300000 0.180000
v 0.560000 0.300000 0.820000
v 0.560000 0.420000 0.820000
v 0.560000 0.420000 0.180000
vt 0.000000 0.000000
vt 1.000000 0.000000
vt 1.000000 1.000000
vt 0.000000 1.000000
f 157/157 158/158 159/159 160/160
v 0.440000 0.420000 0.180000
v 0.560000 0.420000 0.180000
v 0.560000 0.420000 0.820000
v 0.440000 0.420000 0.820000
vt 0.000000 0.000000
vt 1.000000 0.000000
vt 1.000000 1.000000
vt 0.000000 1.000000
f 161/161 162/162 163/163 164/164
v 0.440000 0.300000 0.820000
v 0.560000 0.300000 0.820000
v 0.560000 0.300000 0.180000
v 0.440000 0.300000 0.180000
vt 0.000000 0.000000
vt 1.000000 0.000000
vt 1.000000 1.000000
vt 0.000000 1.000000
f 165/165 166/166 167/167 168/168
usemtl dark
v 0.080000 0.100000 0.780000
v 0.200000 0.100000 0.780000
v 0.200000 0.620000 0.780000
v 0.080000 0.620000 0.780000
vt 0.000000 0.000000
vt 1.000000 0.000000
vt 1.000000 1.000000
vt 0.000000 1.000000
f 169/169 170/170 171/171 172/172
v 0.200000 0.100000 0.960000
v 0.080000 0.100000 0.960000
v 0.080000 0.620000 0.960000
v 0.200000 0.620000 0.960000
vt 0.000000 0.000000
vt 1.000000 0.000000
vt 1.000000 1.000000
vt 0.000000 1.000000
f 173/173 174/174 175/175 176/176
v 0.080000 0.100000 0.960000
v 0.080000 0.100000 0.780000
v 0.080000 0.620000 0.780000
v 0.080000 0.620000 0.960000
vt 0.000000 0.000000
vt 1.000000 0.000000
vt 1.000000 1.000000
vt 0.000000 1.000000
f 177/177 178/178 179/179 180/180
v 0.200000 0.100000 0.780000
v 0.200000 0.100000 0.960000
v 0.200000 0.620000 0.960000
v 0.200000 0.620000 0.780000
vt 0.000000 0.000000
vt 1.000000 0.000000
vt 1.000000 1.000000
vt 0.000000 1.000000
f 181/181 182/182 183/183 184/184
v 0.080000 0.620000 0.780000
v 0.200000 0.620000 0.780000
v 0.200000 0.620000 0.960000
v 0.080000 0.620000 0.960000
vt 0.000000 0.000000
vt 1.000000 0.000000
vt 1.000000 1.000000
vt 0.000000 1.000000
f 185/185 186/186 187/187 188/188
v 0.080000 0.100000 0.960000
v 0.200000 0.100000 0.960000
v 0.200000 0.100000 0.780000
v 0.080000 0.100000 0.780000
vt 0.000000 0.000000
vt 1.000000 0.000000
vt 1.000000 1.000000
vt 0.000000 1.000000
f 189/189 190/190 191/191 192/192
v 0.800000 0.100000 0.780000
v 0.920000 0.100000 0.780000
v 0.920000 0.620000 0.780000
v 0.800000 0.620000 0.780000
vt 0.000000 0.000000
vt 1.000000 0.000000
vt 1.000000 1.000000
vt 0.000000 1.000000
f 193/193 194/194 195/195 196/196
v 0.920000 0.100000 0.960000
v 0.800000 0.100000 0.960000
v 0.800000 0.620000 0.960000
v 0.920000 0.620000 0.960000
vt 0.000000 0.000000
vt 1.000000 0.000000
vt 1.000000 1.000000
vt 0.000000 1.000000
f 197/197 198/198 199/199 200/200
v 0.800000 0.100000 0.960000
v 0.800000 0.100000 0.780000
v 0.800000 0.620000 0.780000
v 0.800000 0.620000 0.960000
vt 0.000000 0.000000
vt 1.000000 0.000000
vt 1.000000 1.000000
vt 0.000000 1.000000
f 201/201 202/202 203/203 204/204
v 0.920000 0.100000 0.780000
v 0.920000 0.100000 0.960000
v 0.920000 0.620000 0.960000
v 0.920000 0.620000 0.780000
vt 0.000000 0.000000
vt 1.000000 0.000000
vt 1.000000 1.000000
vt 0.000000 1.000000
f 205/205 206/206 207/207 208/208
v 0.800000 0.620000 0.780000
v 0.920000 0.620000 0.780000
v 0.920000 0.620000 0.960000
v 0.800000 0.620000 0.960000
vt 0.000000 0.000000
vt 1.000000 0.000000
vt 1.000000 1.000000
vt 0.000000 1.000000
f 209/209 210/210 211/211 212/212
v 0.800000 0.100000 0.960000
v 0.920000 0.100000 0.960000
v 0.920000 0.100000 0.780000
v 0.800000 0.100000 0.780000
vt 0.000000 0.000000
vt 1.000000 0.000000
vt 1.000000 1.000000
vt 0.000000 1.000000
f 213/213 214/214 215/215 216/216
v 0.040000 0.100000 0.860000
v 0.960000 0.100000 0.860000
v 0.960000 0.550000 0.860000
v 0.040000 0.550000 0.860000
vt 0.000000 0.000000
vt 1.000000 0.000000
vt 1.000000 1.000000
vt 0.000000 1.000000
f 217/217 218/218 219/219 220/220
v 0.960000 0.100000 0.980000
v 0.040000 0.100000 0.980000
v 0.040000 0.550000 0.980000
v 0.960000 0.550000 0.980000
vt 0.000000 0.000000
vt 1.000000 0.000000
vt 1.000000 1.000000
vt 0.000000 1.000000
f 221/221 222/222 223/223 224/224
v 0.040000 0.100000 0.980000
v 0.040000 0.100000 0.860000
v 0.040000 0.550000 0.860000
v 0.040000 0.550000 0.980000
vt 0.000000 0.000000
vt 1.000000 0.000000
vt 1.000000 1.000000
vt 0.000000 1.000000
f 225/225 226/226 227/227 228/228
v 0.960000 0.100000 0.860000
v 0.960000 0.100000 0.980000
v 0.960000 0.550000 0.980000
v 0.960000 0.550000 0.860000
vt 0.000000 0.000000
vt 1.000000 0.000000
vt 1.000000 1.000000
vt 0.000000 1.000000
f 229/229 230/230 231/231 232/232
v 0.040000 0.550000 0.860000
v 0.960000 0.550000 0.860000
v 0.960000 0.550000 0.980000
v 0.040000 0.550000 0.980000
vt 0.000000 0.000000
vt 1.000000 0.000000
vt 1.000000 1.000000
vt 0.000000 1.000000
f 233/233 234/234 235/235 236/236
v 0.040000 0.100000 0.980000
v 0.960000 0.100000 0.980000
v 0.960000 0.100000 0.860000
v 0.040000 0.100000 0.860000
vt 0.000000 0.000000
vt 1.000000 0.000000
vt 1.000000 1.000000
vt 0.000000 1.000000
f 237/237 238/238 239/239 240/240
usemtl olive
v 0.060000 0.160000 0.060000
v 0.220000 0.160000 0.060000
v 0.220000 0.380000 0.060000
v 0.060000 0.380000 0.060000
vt 0.000000 0.000000
vt 1.000000 0.000000
vt 1.000000 1.000000
vt 0.000000 1.000000
f 241/241 242/242 243/243 244/244
v 0.220000 0.160000 0.220000
v 0.060000 0.160000 0.220000
v 0.060000 0.380000 0.220000
v 0.220000 0.380000 0.220000
vt 0.000000 0.000000
vt 1.000000 0.000000
vt 1.000000 1.000000
vt 0.000000 1.000000
f 245/245 246/246 247/247 248/248
v 0.060000 0.160000 0.220000
v 0.060000 0.160000 0.060000
v 0.060000 0.380000 0.060000
v 0.060000 0.380000 0.220000
vt 0.000000 0.000000
vt 1.000000 0.000000
vt 1.000000 1.000000
vt 0.000000 1.000000
f 249/249 250/250 251/251 252/252
v 0.220000 0.160000 0.060000
v 0.220000 0.160000 0.220000
v 0.220000 0.380000 0.220000
v 0.220000 0.380000 0.060000
vt 0.000000 0.000000
vt 1.000000 0.000000
vt 1.000000 1.000000
vt 0.000000 1.000000
f 253/253 254/254 255/255 256/256
v 0.060000 0.380000 0.060000
v 0.220000 0.380000 0.060000
v 0.220000 0.380000 0.220000
v 0.060000 0.380000 0.220000
vt 0.000000 0.000000
vt 1.000000 0.000000
vt 1.000000 1.000000
vt 0.000000 1.000000
f 257/257 258/258 259/259 260/260
v 0.060000 0.160000 0.220000
v 0.220000 0.160000 0.220000
v 0.220000 0.160000 0.060000
v 0.060000 0.160000 0.060000
vt 0.000000 0.000000
vt 1.000000 0.000000
vt 1.000000 1.000000
vt 0.000000 1.000000
f 261/261 262/262 263/263 264/264
usemtl glass
v 0.080000 0.380000 0.080000
v 0.200000 0.380000 0.080000
v 0.200000 0.500000 0.080000
v 0.080000 0.500000 0.080000
vt 0.000000 0.000000
vt 1.000000 0.000000
vt 1.000000 1.000000
vt 0.000000 1.000000
f 265/265 266/266 267/267 268/268
v 0.200000 0.380000 0.200000
v 0.080000 0.380000 0.200000
v 0.080000 0.500000 0.200000
v 0.200000 0.500000 0.200000
vt 0.000000 0.000000
vt 1.000000 0.000000
vt 1.000000 1.000000
vt 0.000000 1.000000
f 269/269 270/270 271/271 272/272
v 0.080000 0.380000 0.200000
v 0.080000 0.380000 0.080000
v 0.080000 0.500000 0.080000
v 0.080000 0.500000 0.200000
vt 0.000000 0.000000
vt 1.000000 0.000000
vt 1.000000 1.000000
vt 0.000000 1.000000
f 273/273 274/274 275/275 276/276
v 0.200000 0.380000 0.080000
v 0.200000 0.380000 0.200000
v 0.200000 0.500000 0.200000
v 0.200000 0.500000 0.080000
vt 0.000000 0.000000
vt 1.000000 0.000000
vt 1.000000 1.000000
vt 0.000000 1.000000
f 277/277 278/278 279/279 280/280
v 0.080000 0.500000 0.080000
v 0.200000 0.500000 0.080000
v 0.200000 0.500000 0.200000
v 0.080000 0.500000 0.200000
vt 0.000000 0.000000
vt 1.000000 0.000000
vt 1.000000 1.000000
vt 0.000000 1.000000
f 281/281 282/282 283/283 284/284
v 0.080000 0.380000 0.200000
v 0.200000 0.380000 0.200000
v 0.200000 0.380000 0.080000
v 0.080000 0.380000 0.080000
vt 0.000000 0.000000
vt 1.000000 0.000000
vt 1.000000 1.000000
vt 0.000000 1.000000
f 285/285 286/286 287/287 288/288
usemtl yellow
v 0.500000 0.340000 0.270000
v 0.517634 0.340000 0.275729
v 0.517634 0.420000 0.275729
v 0.500000 0.420000 0.270000
vt 0.000000 0.000000
vt 0.100000 0.000000
vt 0.100000 1.000000
vt 0.000000 1.000000
f 289/289 290/290 291/291 292/292
v 0.500000 0.340000 0.300000
v 0.517634 0.340000 0.275729
v 0.500000 0.340000 0.270000
vt 0.000000 0.000000
vt 1.000000 0.000000
vt 1.000000 1.000000
f 293/293 294/294 295/295
v 0.500000 0.420000 0.300000
v 0.500000 0.420000 0.270000
v 0.517634 0.420000 0.275729
vt 0.000000 0.000000
vt 1.000000 0.000000
vt 1.000000 1.000000
f 296/296 297/297 298/298
v 0.517634 0.340000 0.275729
v 0.528532 0.340000 0.290729
v 0.528532 0.420000 0.290729
v 0.517634 0.420000 0.275729
vt 0.100000 0.000000
vt 0.200000 0.000000
vt 0.200000 1.000000
vt 0.100000 1.000000
f 299/299 300/300 301/301 302/302
v 0.500000 0.340000 0.300000
v 0.528532 0.340000 0.290729
v 0.517634 0.340000 0.275729
vt 0.000000 0.000000
vt 1.000000 0.000000
vt 1.000000 1.000000
f 303/303 304/304 305/305
v 0.500000 0.420000 0.300000
v 0.517634 0.420000 0.275729
v 0.528532 0.420000 0.290729
vt 0.000000 0.000000
vt 1.000000 0.000000
vt 1.000000 1.000000
f 306/306 307/307 308/308
v 0.528532 0.340000 0.290729
v 0.528532 0.340000 0.309271
v 0.528532 0.420000 0.309271
v 0.528532 0.420000 0.290729
vt 0.200000 0.000000
vt 0.300000 0.000000
vt 0.300000 1.000000
vt 0.200000 1.000000
f 309/309 310/310 311/311 312/312
v 0.500000 0.340000 0.300000
v 0.528532 0.340000 0.309271
v 0.528532 0.340000 0.290729
vt 0.000000 0.000000
vt 1.000000 0.000000
vt 1.000000 1.000000
f 313/313 314/314 315/315
v 0.500000 0.420000 0.300000
v 0.528532 0.420000 0.290729
v 0.528532 0.420000 0.309271
vt 0.000000 0.000000
vt 1.000000 0.000000
vt 1.000000 1.000000
f 316/316 317/317 318/318
v 0.528532 0.340000 0.309271
v 0.517634 0.340000 0.324271
v 0.517634 0.420000 0.324271
v 0.528532 0.420000 0.309271
vt 0.300000 0.000000
vt 0.400000 0.000000
vt 0.400000 1.000000
vt 0.300000 1.000000
f 319/319 320/320 321/321 322/322
v 0.500000 0.340000 0.300000
v 0.517634 0.340000 0.324271
v 0.528532 0.340000 0.309271
vt 0.000000 0.000000
vt 1.000000 0.000000
vt 1.000000 1.000000
f 323/323 324/324 325/325
v 0.500000 0.420000 0.300000
v 0.528532 0.420000 0.309271
v 0.517634 0.420000 0.324271
vt 0.000000 0.000000
vt 1.000000 0.000000
vt 1.000000 1.000000
f 326/326 327/327 328/328
v 0.517634 0.340000 0.324271
v 0.500000 0.340000 0.330000
v 0.500000 0.420000 0.330000
v 0.517634 0.420000 0.324271
vt 0.400000 0.000000
vt 0.500000 0.000000
vt 0.500000 1.000000
vt 0.400000 1.000000
f 329/329 330/330 331/331 332/332
v 0.500000 0.340000 0.300000
v 0.500000 0.340000 0.330000
v 0.517634 0.340000 0.324271
vt 0.000000 0.000000
vt 1.000000 0.000000
vt 1.000000 1.000000
f 333/333 334/334 335/335
v 0.500000 0.420000 0.300000
v 0.517634 0.420000 0.324271
v 0.500000 0.420000 0.330000
vt 0.000000 0.000000
vt 1.000000 0.000000
vt 1.000000 1.000000
f 336/336 337/337 338/338
v 0.500000 0.340000 0.330000
v 0.482366 0.340000 0.324271
v 0.482366 0.420000 0.324271
v 0.500000 0.420000 0.330000
vt 0.500000 0.000000
vt 0.600000 0.000000
vt 0.600000 1.000000
vt 0.500000 1.000000
f 339/339 340/340 341/341 342/342
v 0.500000 0.340000 0.300000
v 0.482366 0.340000 0.324271
v 0.500000 0.340000 0.330000
vt 0.000000 0.000000
vt 1.000000 0.000000
vt 1.000000 1.000000
f 343/343 344/344 345/345
v 0.500000 0.420000 0.300000
v 0.500000 0.420000 0.330000
v 0.482366 0.420000 0.324271
vt 0.000000 0.000000
vt 1.000000 0.000000
vt 1.000000 1.000000
f 346/346 347/347 348/348
v 0.482366 0.340000 0.324271
v 0.471468 0.340000 0.309271
v 0.471468 0.420000 0.309271
v 0.482366 0.420000 0.324271
vt 0.600000 0.000000
vt 0.700000 0.000000
vt 0.700000 1.000000
vt 0.600000 1.000000
f 349/349 350/350 351/351 352/352
v 0.500000 0.340000 0.300000
v 0.471468 0.340000 0.309271
v 0.482366 0.340000 0.324271
vt 0.000000 0.000000
vt 1.000000 0.000000
vt 1.000000 1.000000
f 353/353 354/354 355/355
v 0.500000 0.420000 0.300000
v 0.482366 0.420000 0.324271
v 0.471468 0.420000 0.309271
vt 0.000000 0.000000
vt 1.000000 0.000000
vt 1.000000 1.000000
f 356/356 357/357 358/358
v 0.471468 0.340000 0.309271
v 0.471468 0.340000 0.290729
v 0.471468 0.420000 0.290729
v 0.471468 0.420000 0.309271
vt 0.700000 0.000000
vt 0.800000 0.000000
vt 0.800000 1.000000
vt 0.700000 1.000000
f 359/359 360/360 361/361 362/362
v 0.500000 0.340000 0.300000
v 0.471468 0.340000 0.290729
v 0.471468 0.340000 0.309271
vt 0.000000 0.000000
vt 1.000000 0.000000
vt 1.000000 1.000000
f 363/363 364/364 365/365
v 0.500000 0.420000 0.300000
v 0.471468 0.420000 0.309271
v 0.471468 0.420000 0.290729
vt 0.000000 0.000000
vt 1.000000 0.000000
vt 1.000000 1.000000
f 366/366 367/367 368/368
v 0.471468 0.340000 0.290729
v 0.482366 0.340000 0.275729
v 0.482366 0.420000 0.275729
v 0.471468 0.420000 0.290729
vt 0.800000 0.000000
vt 0.900000 0.000000
vt 0.900000 1.000000
vt 0.800000 1.000000
f 369/369 370/370 371/371 372/372
v 0.500000 0.340000 0.300000
v 0.482366 0.340000 0.275729
v 0.471468 0.340000 0.290729
vt 0.000000 0.000000
vt 1.000000 0.000000
vt 1.000000 1.000000
f 373/373 374/374 375/375
v 0.500000 0.420000 0.300000
v 0.471468 0.420000 0.290729
v 0.482366 0.420000 0.275729
vt 0.000000 0.000000
vt 1.000000 0.000000
vt 1.000000 1.000000
f 376/376 377/377 378/378
v 0.482366 0.340000 0.275729
v 0.500000 0.340000 0.270000
v 0.500000 0.420000 0.270000
v 0.482366 0.420000 0.275729
vt 0.900000 0.000000
vt 1.000000 0.000000
vt 1.000000 1.000000
vt 0.900000 1.000000
f 379/379 380/380 381/381 382/382
v 0.500000 0.340000 0.300000
v 0.500000 0.340000 0.270000
v 0.482366 0.340000 0.275729
vt 0.000000 0.000000
vt 1.000000 0.000000
vt 1.000000 1.000000
f 383/383 384/384 385/385
v 0.500000 0.420000 0.300000
v 0.482366 0.420000 0.275729
v 0.500000 0.420000 0.270000
vt 0.000000 0.000000
vt 1.000000 0.000000
vt 1.000000 1.000000
f 386/386 387/387 388/388
v 0.500000 0.340000 0.450000
v 0.517634 0.340000 0.455729
v 0.517634 0.420000 0.455729
v 0.500000 0.420000 0.450000
vt 0.000000 0.000000
vt 0.100000 0.000000
vt 0.100000 1.000000
vt 0.000000 1.000000
f 389/389 390/390 391/391 392/392
v 0.500000 0.340000 0.480000
v 0.517634 0.340000 0.455729
v 0.500000 0.340000 0.450000
vt 0.000000 0.000000
vt 1.000000 0.000000
vt 1.000000 1.000000
f 393/393 394/394 395/395
v 0.500000 0.420000 0.480000
v 0.500000 0.420000 0.450000
v 0.517634 0.420000 0.455729
vt 0.000000 0.000000
vt 1.000000 0.000000
vt 1.000000 1.000000
f 396/396 397/397 398/398
v 0.517634 0.340000 0.455729
v 0.528532 0.340000 0.470729
v 0.528532 0.420000 0.470729
v 0.517634 0.420000 0.455729
vt 0.100000 0.000000
vt 0.200000 0.000000
vt 0.200000 1.000000
vt 0.100000 1.000000
f 399/399 400/400 401/401 402/402
v 0.500000 0.340000 0.480000
v 0.528532 0.340000 0.470729
v 0.517634 0.340000 0.455729
vt 0.000000 0.000000
vt 1.000000 0.000000
vt 1.000000 1.000000
f 403/403 404/404 405/405
v 0.500000 0.420000 0.480000
v 0.517634 0.420000 0.455729
v 0.528532 0.420000 0.470729
vt 0.000000 0.000000
vt 1.000000 0.000000
vt 1.000000 1.000000
f 406/406 407/407 408/408
v 0.528532 0.340000 0.470729
v 0.528532 0.340000 0.489271
v 0.528532 0.420000 0.489271
v 0.528532 0.420000 0.470729
vt 0.200000 0.000000
vt 0.300000 0.000000
vt 0.300000 1.000000
vt 0.200000 1.000000
f 409/409 410/410 411/411 412/412
v 0.500000 0.340000 0.480000
v 0.528532 0.340000 0.489271
v 0.528532 0.340000 0.470729
vt 0.000000 0.000000
vt 1.000000 0.000000
vt 1.000000 1.000000
f 413/413 414/414 415/415
v 0.500000 0.420000 0.480000
v 0.528532 0.420000 0.470729
v 0.528532 0.420000 0.489271
vt 0.000000 0.000000
vt 1.000000 0.000000
vt 1.000000 1.000000
f 416/416 417/417 418/418
v 0.528532 0.340000 0.489271
v 0.517634 0.340000 0.504271
v 0.517634 0.420000 0.504271
v 0.528532 0.420000 0.489271
vt 0.300000 0.000000
vt 0.400000 0.000000
vt 0.400000 1.000000
vt 0.300000 1.000000
f 419/419 420/420 421/421 422/422
v 0.500000 0.340000 0.480000
v 0.517634 0.340000 0.504271
v 0.528532 0.340000 0.489271
vt 0.000000 0.000000
vt 1.000000 0.000000
vt 1.000000 1.000000
f 423/423 424/424 425/425
v 0.500000 0.420000 0.480000
v 0.528532 0.420000 0.489271
v 0.517634 0.420000 0.504271
vt 0.000000 0.000000
vt 1.000000 0.000000
vt 1.000000 1.000000
f 426/426 427/427 428/428
v 0.517634 0.340000 0.504271
v 0.500000 0.340000 0.510000
v 0.500000 0.420000 0.510000
v 0.517634 0.420000 0.504271
vt 0.400000 0.000000
vt 0.500000 0.000000
vt 0.500000 1.000000
vt 0.400000 1.000000
f 429/429 430/430 431/431 432/432
v 0.500000 0.340000 0.480000
v 0.500000 0.340000 0.510000
v 0.517634 0.340000 0.504271
vt 0.000000 0.000000
vt 1.000000 0.000000
vt 1.000000 1.000000
f 433/433 434/434 435/435
v 0.500000 0.420000 0.480000
v 0.517634 0.420000 0.504271
v 0.500000 0.420000 0.510000
vt 0.000000 0.000000
vt 1.000000 0.000000
vt 1.000000 1.000000
f 436/436 437/437 438/438
v 0.500000 0.340000 0.510000
v 0.482366 0.340000 0.504271
v 0.482366 0.420000 0.504271
v 0.500000 0.420000 0.510000
vt 0.500000 0.000000
vt 0.600000 0.000000
vt 0.600000 1.000000
vt 0.500000 1.000000
f 439/439 440/440 441/441 442/442
v 0.500000 0.340000 0.480000
v 0.482366 0.340000 0.504271
v 0.500000 0.340000 0.510000
vt 0.000000 0.000000
vt 1.000000 0.000000
vt 1.000000 1.000000
f 443/443 444/444 445/445
v 0.500000 0.420000 0.480000
v 0.500000 0.420000 0.510000
v 0.482366 0.420000 0.504271
vt 0.000000 0.000000
vt 1.000000 0.000000
vt 1.000000 1.000000
f 446/446 447/447 448/448
v 0.482366 0.340000 0.504271
v 0.471468 0.340000 0.489271
v 0.471468 0.420000 0.489271
v 0.482366 0.420000 0.504271
vt 0.600000 0.000000
vt 0.700000 0.000000
vt 0.700000 1.000000
vt 0.600000 1.000000
f 449/449 450/450 451/451 452/452
v 0.500000 0.340000 0.480000
v 0.471468 0.340000 0.489271
v 0.482366 0.340000 0.504271
vt 0.000000 0.000000
vt 1.000000 0.000000
vt 1.000000 1.000000
f 453/453 454/454 455/455
v 0.500000 0.420000 0.480000
v 0.482366 0.420000 0.504271
v 0.471468 0.420000 0.489271
vt 0.000000 0.000000
vt 1.000000 0.000000
vt 1.000000 1.000000
f 456/456 457/457 458/458
v 0.471468 0.340000 0.489271
v 0.471468 0.340000 0.470729
v 0.471468 0.420000 0.470729
v 0.471468 0.420000 0.489271
vt 0.700000 0.000000
vt 0.800000 0.000000
vt 0.800000 1.000000
vt 0.700000 1.000000
f 459/459 460/460 461/461 462/462
v 0.500000 0.340000 0.480000
v 0.471468 0.340000 0.470729
v 0.471468 0.340000 0.489271
vt 0.000000 0.000000
vt 1.000000 0.000000
vt 1.000000 1.000000
f 463/463 464/464 465/465
v 0.500000 0.420000 0.480000
v 0.471468 0.420000 0.489271
v 0.471468 0.420000 0.470729
vt 0.000000 0.000000
vt 1.000000 0.000000
vt 1.000000 1.000000
f 466/466 467/467 468/468
v 0.471468 0.340000 0.470729
v 0.482366 0.340000 0.455729
v 0.482366 0.420000 0.455729
v 0.471468 0.420000 0.470729
vt 0.800000 0.000000
vt 0.900000 0.000000
vt 0.900000 1.000000
vt 0.800000 1.000000
f 469/469 470/470 471/471 472/472
v 0.500000 0.340000 0.480000
v 0.482366 0.340000 0.455729
v 0.471468 0.340000 0.470729
vt 0.000000 0.000000
vt 1.000000 0.000000
vt 1.000000 1.000000
f 473/473 474/474 475/475
v 0.500000 0.420000 0.480000
v 0.471468 0.420000 0.470729
v 0.482366 0.420000 0.455729
vt 0.000000 0.000000
vt 1.000000 0.000000
vt 1.000000 1.000000
f 476/476 477/477 478/478
v 0.482366 0.340000 0.455729
v 0.500000 0.340000 0.450000
v 0.500000 0.420000 0.450000
v 0.482366 0.420000 0.455729
vt 0.900000 0.000000
vt 1.000000 0.000000
vt 1.000000 1.000000
vt 0.900000 1.000000
f 479/479 480/480 481/481 482/482
v 0.500000 0.340000 0.480000
v 0.500000 0.340000 0.450000
v 0.482366 0.340000 0.455729
vt 0.000000 0.000000
vt 1.000000 0.000000
vt 1.000000 1.000000
f 483/483 484/484 485/485
v 0.500000 0.420000 0.480000
v 0.482366 0.420000 0.455729
v 0.500000 0.420000 0.450000
vt 0.000000 0.000000
vt 1.000000 0.000000
vt 1.000000 1.000000
f 486/486 487/487 488/488
v 0.500000 0.340000 0.630000
v 0.517634 0.340000 0.635729
v 0.517634 0.420000 0.635729
v 0.500000 0.420000 0.630000
vt 0.000000 0.000000
vt 0.100000 0.000000
vt 0.100000 1.000000
vt 0.000000 1.000000
f 489/489 490/490 491/491 492/492
v 0.500000 0.340000 0.660000
v 0.517634 0.340000 0.635729
v 0.500000 0.340000 0.630000
vt 0.000000 0.000000
vt 1.000000 0.000000
vt 1.000000 1.000000
f 493/493 494/494 495/495
v 0.500000 0.420000 0.660000
v 0.500000 0.420000 0.630000
v 0.517634 0.420000 0.635729
vt 0.000000 0.000000
vt 1.000000 0.000000
vt 1.000000 1.000000
f 496/496 497/497 498/498
v 0.517634 0.340000 0.635729
v 0.528532 0.340000 0.650729
v 0.528532 0.420000 0.650729
v 0.517634 0.420000 0.635729
vt 0.100000 0.000000
vt 0.200000 0.000000
vt 0.200000 1.000000
vt 0.100000 1.000000
f 499/499 500/500 501/501 502/502
v 0.500000 0.340000 0.660000
v 0.528532 0.340000 0.650729
v 0.517634 0.340000 0.635729
vt 0.000000 0.000000
vt 1.000000 0.000000
vt 1.000000 1.000000
f 503/503 504/504 505/505
v 0.500000 0.420000 0.660000
v 0.517634 0.420000 0.635729
v 0.528532 0.420000 0.650729
vt 0.000000 0.000000
vt 1.000000 0.000000
vt 1.000000 1.000000
f 506/506 507/507 508/508
v 0.528532 0.340000 0.650729
v 0.528532 0.340000 0.669271
v 0.528532 0.420000 0.669271
v 0.528532 0.420000 0.650729
vt 0.200000 0.000000
vt 0.300000 0.000000
vt 0.300000 1.000000
vt 0.200000 1.000000
f 509/509 510/510 511/511 512/512
v 0.500000 0.340000 0.660000
v 0.528532 0.340000 0.669271
v 0.528532 0.340000 0.650729
vt 0.000000 0.000000
vt 1.000000 0.000000
vt 1.000000 1.000000
f 513/513 514/514 515/515
v 0.500000 0.420000 0.660000
v 0.528532 0.420000 0.650729
v 0.528532 0.420000 0.669271
vt 0.000000 0.000000
vt 1.000000 0.000000
vt 1.000000 1.000000
f 516/516 517/517 518/518
v 0.528532 0.340000 0.669271
v 0.517634 0.340000 0.684271
v 0.517634 0.420000 0.684271
v 0.528532 0.420000 0.669271
vt 0.300000 0.000000
vt 0.400000 0.000000
vt 0.400000 1.000000
vt 0.300000 1.000000
f 519/519 520/520 521/521 522/522
v 0.500000 0.340000 0.660000
v 0.517634 0.340000 0.684271
v 0.528532 0.340000 0.669271
vt 0.000000 0.000000
vt 1.000000 0.000000
vt 1.000000 1.000000
f 523/523 524/524 525/525
v 0.500000 0.420000 0.660000
v 0.528532 0.420000 0.669271
v 0.517634 0.420000 0.684271
vt 0.000000 0.000000
vt 1.000000 0.000000
vt 1.000000 1.000000
f 526/526 527/527 528/528
v 0.517634 0.340000 0.684271
v 0.500000 0.340000 0.690000
v 0.500000 0.420000 0.690000
v 0.517634 0.420000 0.684271
vt 0.400000 0.000000
vt 0.500000 0.000000
vt 0.500000 1.000000
vt 0.400000 1.000000
f 529/529 530/530 531/531 532/532
v 0.500000 0.340000 0.660000
v 0.500000 0.340000 0.690000
v 0.517634 0.340000 0.684271
vt 0.000000 0.000000
vt 1.000000 0.000000
vt 1.000000 1.000000
f 533/533 534/534 535/535
v 0.500000 0.420000 0.660000
v 0.517634 0.420000 0.684271
v 0.500000 0.420000 0.690000
vt 0.000000 0.000000
vt 1.000000 0.000000
vt 1.000000 1.000000
f 536/536 537/537 538/538
v 0.500000 0.340000 0.690000
v 0.482366 0.340000 0.684271
v 0.482366 0.420000 0.684271
v 0.500000 0.420000 0.690000
vt 0.500000 0.000000
vt 0.600000 0.000000
vt 0.600000 1.000000
vt 0.500000 1.000000
f 539/539 540/540 541/541 542/542
v 0.500000 0.340000 0.660000
v 0.482366 0.340000 0.684271
v 0.500000 0.340000 0.690000
vt 0.000000 0.000000
vt 1.000000 0.000000
vt 1.000000 1.000000
f 543/543 544/544 545/545
v 0.500000 0.420000 0.660000
v 0.500000 0.420000 0.690000
v 0.482366 0.420000 0.684271
vt 0.000000 0.000000
vt 1.000000 0.000000
vt 1.000000 1.000000
f 546/546 547/547 548/548
v 0.482366 0.340000 0.684271
v 0.471468 0.340000 0.669271
v 0.471468 0.420000 0.669271
v 0.482366 0.420000 0.684271
vt 0.600000 0.000000
vt 0.700000 0.000000
vt 0.700000 1.000000
vt 0.600000 1.000000
f 549/549 550/550 551/551 552/552
v 0.500000 0.340000 0.660000
v 0.471468 0.340000 0.669271
v 0.482366 0.340000 0.684271
vt 0.000000 0.000000
vt 1.000000 0.000000
vt 1.000000 1.000000
f 553/553 554/554 555/555
v 0.500000 0.420000 0.660000
v 0.482366 0.420000 0.684271
v 0.471468 0.420000 0.669271
vt 0.000000 0.000000
vt 1.000000 0.000000
vt 1.000000 1.000000
f 556/556 557/557 558/558
v 0.471468 0.340000 0.669271
v 0.471468 0.340000 0.650729
v 0.471468 0.420000 0.650729
v 0.471468 0.420000 0.669271
vt 0.700000 0.000000
vt 0.800000 0.000000
vt 0.800000 1.000000
vt 0.700000 1.000000
f 559/559 560/560 561/561 562/562
v 0.500000 0.340000 0.660000
v 0.471468 0.340000 0.650729
v 0.471468 0.340000 0.669271
vt 0.000000 0.000000
vt 1.000000 0.000000
vt 1.000000 1.000000
f 563/563 564/564 565/565
v 0.500000 0.420000 0.660000
v 0.471468 0.420000 0.669271
v 0.471468 0.420000 0.650729
vt 0.000000 0.000000
vt 1.000000 0.000000
vt 1.000000 1.000000
f 566/566 567/567 568/568
v 0.471468 0.340000 0.650729
v 0.482366 0.340000 0.635729
v 0.482366 0.420000 0.635729
v 0.471468 0.420000 0.650729
vt 0.800000 0.000000
vt 0.900000 0.000000
vt 0.900000 1.000000
vt 0.800000 1.000000
f 569/569 570/570 571/571 572/572
v 0.500000 0.340000 0.660000
v 0.482366 0.340000 0.635729
v 0.471468 0.340000 0.650729
vt 0.000000 0.000000
vt 1.000000 0.000000
vt 1.000000 1.000000
f 573/573 574/574 575/575
v 0.500000 0.420000 0.660000
v 0.471468 0.420000 0.650729
v 0.482366 0.420000 0.635729
vt 0.000000 0.000000
vt 1.000000 0.000000
vt 1.000000 1.000000
f 576/576 577/577 578/578
v 0.482366 0.340000 0.635729
v 0.500000 0.340000 0.630000
v 0.500000 0.420000 0.630000
v 0.482366 0.420000 0.635729
vt 0.900000 0.000000
vt 1.000000 0.000000
vt 1.000000 1.000000
vt 0.900000 1.000000
f 579/579 580/580 581/581 582/582
v 0.500000 0.340000 0.660000
v 0.500000 0.340000 0.630000
v 0.482366 0.340000 0.635729
vt 0.000000 0.000000
vt 1.000000 0.000000
vt 1.000000 1.000000
f 583/583 584/584 585/585
v 0.500000 0.420000 0.660000
v 0.482366 0.420000 0.635729
v 0.500000 0.420000 0.630000
vt 0.000000 0.000000
vt 1.000000 0.000000
vt 1.000000 1.000000
f 586/586 587/587 588/588
usemtl dark
v 0.522423 0.361500 0.443427
v 0.531125 0.361500 0.450476
v 0.531125 0.823500 0.450476
v 0.522423 0.823500 0.443427
vt 0.000000 0.000000
vt 0.041667 0.000000
vt 0.041667 1.000000
vt 0.000000 1.000000
f 589/589 590/590 591/591 592/592
v 0.531125 0.361500 0.450476
v 0.537706 0.361500 0.459538
v 0.537706 0.823500 0.459538
v 0.531125 0.823500 0.450476
vt 0.041667 0.000000
vt 0.083333 0.000000
vt 0.083333 1.000000
vt 0.041667 1.000000
f 593/593 594/594 595/595 596/596
v 0.537706 0.361500 0.459538
v 0.541717 0.361500 0.469994
v 0.541717 0.823500 0.469994
v 0.537706 0.823500 0.459538
vt 0.083333 0.000000
vt 0.125000 0.000000
vt 0.125000 1.000000
vt 0.083333 1.000000
f 597/597 598/598 599/599 600/600
v 0.541717 0.361500 0.469994
v 0.542885 0.361500 0.481132
v 0.542885 0.823500 0.481132
v 0.541717 0.823500 0.469994
vt 0.125000 0.000000
vt 0.166667 0.000000
vt 0.166667 1.000000
vt 0.125000 1.000000
f 601/601 602/602 603/603 604/604
v 0.542885 0.361500 0.481132
v 0.541131 0.361500 0.492193
v 0.541131 0.823500 0.492193
v 0.542885 0.823500 0.481132
vt 0.166667 0.000000
vt 0.208333 0.000000
vt 0.208333 1.000000
vt 0.166667 1.000000
f 605/605 606/606 607/607 608/608
v 0.541131 0.361500 0.492193
v 0.536573 0.361500 0.502423
v 0.536573 0.823500 0.502423
v 0.541131 0.823500 0.492193
vt 0.208333 0.000000
vt 0.250000 0.000000
vt 0.250000 1.000000
vt 0.208333 1.000000
f 609/609 610/610 611/611 612/612
v 0.536573 0.361500 0.502423
v 0.529524 0.361500 0.511125
v 0.529524 0.823500 0.511125
v 0.536573 0.823500 0.502423
vt 0.250000 0.000000
vt 0.291667 0.000000
vt 0.291667 1.000000
vt 0.250000 1.000000
f 613/613 614/614 615/615 616/616
v 0.529524 0.361500 0.511125
v 0.520462 0.361500 0.517706
v 0.520462 0.823500 0.517706
v 0.529524 0.823500 0.511125
vt 0.291667 0.000000
vt 0.333333 0.000000
vt 0.333333 1.000000
vt 0.291667 1.000000
f 617/617 618/618 619/619 620/620
v 0.520462 0.361500 0.517706
v 0.510006 0.361500 0.521717
v 0.510006 0.823500 0.521717
v 0.520462 0.823500 0.517706
vt 0.333333 0.000000
vt 0.375000 0.000000
vt 0.375000 1.000000
vt 0.333333 1.000000
f 621/621 622/622 623/623 624/624
v 0.510006 0.361500 0.521717
v 0.498868 0.361500 0.522885
v 0.498868 0.823500 0.522885
v 0.510006 0.823500 0.521717
vt 0.375000 0.000000
vt 0.416667 0.000000
vt 0.416667 1.000000
vt 0.375000 1.000000
f 625/625 626/626 627/627 628/628
v 0.498868 0.361500 0.522885
v 0.487807 0.361500 0.521131
v 0.487807 0.823500 0.521131
v 0.498868 0.823500 0.522885
vt 0.416667 0.000000
vt 0.458333 0.000000
vt 0.458333 1.000000
vt 0.416667 1.000000
f 629/629 630/630 631/631 632/632
v 0.487807 0.361500 0.521131
v 0.477577 0.361500 0.516573
v 0.477577 0.823500 0.516573
v 0.487807 0.823500 0.521131
vt 0.458333 0.000000
vt 0.500000 0.000000
vt 0.500000 1.000000
vt 0.458333 1.000000
f 633/633 634/634 635/635 636/636
v 0.477577 0.361500 0.516573
v 0.468875 0.361500 0.509524
v 0.468875 0.823500 0.509524
v 0.477577 0.823500 0.516573
vt 0.500000 0.000000
vt 0.541667 0.000000
vt 0.541667 1.000000
vt 0.500000 1.000000
f 637/637 638/638 639/639 640/640
v 0.468875 0.361500 0.509524
v 0.462294 0.361500 0.500462
v 0.462294 0.823500 0.500462
v 0.468875 0.823500 0.509524
vt 0.541667 0.000000
vt 0.583333 0.000000
vt 0.583333 1.000000
vt 0.541667 1.000000
f 641/641 642/642 643/643 644/644
v 0.462294 0.361500 0.500462
v 0.458283 0.361500 0.490006
v 0.458283 0.823500 0.490006
v 0.462294 0.823500 0.500462
vt 0.583333 0.000000
vt 0.625000 0.000000
vt 0.625000 1.000000
vt 0.583333 1.000000
f 645/645 646/646 647/647 648/648
v 0.458283 0.361500 0.490006
v 0.457115 0.361500 0.478868
v 0.457115 0.823500 0.478868
v 0.458283 0.823500 0.490006
vt 0.625000 0.000000
vt 0.666667 0.000000
vt 0.666667 1.000000
vt 0.625000 1.000000
f 649/649 650/650 651/651 652/652
v 0.457115 0.361500 0.478868
v 0.458869 0.361500 0.467807
v 0.458869 0.823500 0.467807
v 0.457115 0.823500 0.478868
vt 0.666667 0.000000
vt 0.708333 0.000000
vt 0.708333 1.000000
vt 0.666667 1.000000
f 653/653 654/654 655/655 656/656
v 0.458869 0.361500 0.467807
v 0.463427 0.361500 0.457577
v 0.463427 0.823500 0.457577
v 0.458869 0.823500 0.467807
vt 0.708333 0.000000
vt 0.750000 0.000000
vt 0.750000 1.000000
vt 0.708333 1.000000
f 657/657 658/658 659/659 660/660
v 0.463427 0.361500 0.457577
v 0.470476 0.361500 0.448875
v 0.470476 0.823500 0.448875
v 0.463427 0.823500 0.457577
vt 0.750000 0.000000
vt 0.791667 0.000000
vt 0.791667 1.000000
vt 0.750000 1.000000
f 661/661 662/662 663/663 664/664
v 0.470476 0.361500 0.448875
v 0.479538 0.361500 0.442294
v 0.479538 0.823500 0.442294
v 0.470476 0.823500 0.448875
vt 0.791667 0.000000
vt 0.833333 0.000000
vt 0.833333 1.000000
vt 0.791667 1.000000
f 665/665 666/666 667/667 668/668
v 0.479538 0.361500 0.442294
v 0.489994 0.361500 0.438283
v 0.489994 0.823500 0.438283
v 0.479538 0.823500 0.442294
vt 0.833333 0.000000
vt 0.875000 0.000000
vt 0.875000 1.000000
vt 0.833333 1.000000
f 669/669 670/670 671/671 672/672
v 0.489994 0.361500 0.438283
v 0.501132 0.361500 0.437115
v 0.501132 0.823500 0.437115
v 0.489994 0.823500 0.438283
vt 0.875000 0.000000
vt 0.916667 0.000000
vt 0.916667 1.000000
vt 0.875000 1.000000
f 673/673 674/674 675/675 676/676
v 0.501132 0.361500 0.437115
v 0.512193 0.361500 0.438869
v 0.512193 0.823500 0.438869
v 0.501132 0.823500 0.437115
vt 0.916667 0.000000
vt 0.958333 0.000000
vt 0.958333 1.000000
vt 0.916667 1.000000
f 677/677 678/678 679/679 680/680
v 0.512193 0.361500 0.438869
v 0.522423 0.361500 0.443427
v 0.522423 0.823500 0.443427
v 0.512193 0.823500 0.438869
vt 0.958333 0.000000
vt 1.000000 0.000000
vt 1.000000 1.000000
vt 0.958333 1.000000
f 681/681 682/682 683/683 684/684
usemtl glass
v 0.522423 0.823500 0.443427
v 0.531819 0.823500 0.451226
v 0.500408 0.944500 0.479631
v 0.500287 0.944500 0.479531
vt 0.000000 0.000000
vt 0.045455 0.000000
vt 0.045455 1.000000
vt 0.000000 1.000000
f 685/685 686/686 687/687 688/688
v 0.500000 0.823500 0.480000
v 0.531819 0.823500 0.451226
v 0.522423 0.823500 0.443427
vt 0.000000 0.000000
vt 1.000000 0.000000
vt 1.000000 1.000000
f 689/689 690/690 691/691
v 0.500000 0.944500 0.480000
v 0.500287 0.944500 0.479531
v 0.500408 0.944500 0.479631
vt 0.000000 0.000000
vt 1.000000 0.000000
vt 1.000000 1.000000
f 692/692 693/693 694/694
v 0.531819 0.823500 0.451226
v 0.538637 0.823500 0.461356
v 0.500495 0.944500 0.479761
v 0.500408 0.944500 0.479631
vt 0.045455 0.000000
vt 0.090909 0.000000
vt 0.090909 1.000000
vt 0.045455 1.000000
f 695/695 696/696 697/697 698/698
v 0.500000 0.823500 0.480000
v 0.538637 0.823500 0.461356
v 0.531819 0.823500 0.451226
vt 0.000000 0.000000
vt 1.000000 0.000000
vt 1.000000 1.000000
f 699/699 700/700 701/701
v 0.500000 0.944500 0.480000
v 0.500408 0.944500 0.479631
v 0.500495 0.944500 0.479761
vt 0.000000 0.000000
vt 1.000000 0.000000
vt 1.000000 1.000000
f 702/702 703/703 704/704
v 0.538637 0.823500 0.461356
v 0.542324 0.823500 0.472996
v 0.500543 0.944500 0.479910
v 0.500495 0.944500 0.479761
vt 0.090909 0.000000
vt 0.136364 0.000000
vt 0.136364 1.000000
vt 0.090909 1.000000
f 705/705 706/706 707/707 708/708
v 0.500000 0.823500 0.480000
v 0.542324 0.823500 0.472996
v 0.538637 0.823500 0.461356
vt 0.000000 0.000000
vt 1.000000 0.000000
vt 1.000000 1.000000
f 709/709 710/710 711/711
v 0.500000 0.944500 0.480000
v 0.500495 0.944500 0.479761
v 0.500543 0.944500 0.479910
vt 0.000000 0.000000
vt 1.000000 0.000000
vt 1.000000 1.000000
f 712/712 713/713 714/714
v 0.542324 0.823500 0.472996
v 0.542583 0.823500 0.485204
v 0.500546 0.944500 0.480067
v 0.500543 0.944500 0.479910
vt 0.136364 0.000000
vt 0.181818 0.000000
vt 0.181818 1.000000
vt 0.136364 1.000000
f 715/715 716/716 717/717 718/718
v 0.500000 0.823500 0.480000
v 0.542583 0.823500 0.485204
v 0.542324 0.823500 0.472996
vt 0.000000 0.000000
vt 1.000000 0.000000
vt 1.000000 1.000000
f 719/719 720/720 721/721
v 0.500000 0.944500 0.480000
v 0.500543 0.944500 0.479910
v 0.500546 0.944500 0.480067
vt 0.000000 0.000000
vt 1.000000 0.000000
vt 1.000000 1.000000
f 722/722 723/723 724/724
v 0.542583 0.823500 0.485204
v 0.539392 0.823500 0.496990
v 0.500505 0.944500 0.480218
v 0.500546 0.944500 0.480067
vt 0.181818 0.000000
vt 0.227273 0.000000
vt 0.227273 1.000000
vt 0.181818 1.000000
f 725/725 726/726 727/727 728/728
v 0.500000 0.823500 0.480000
v 0.539392 0.823500 0.496990
v 0.542583 0.823500 0.485204
vt 0.000000 0.000000
vt 1.000000 0.000000
vt 1.000000 1.000000
f 729/729 730/730 731/731
v 0.500000 0.944500 0.480000
v 0.500546 0.944500 0.480067
v 0.500505 0.944500 0.480218
vt 0.000000 0.000000
vt 1.000000 0.000000
vt 1.000000 1.000000
f 732/732 733/733 734/734
v 0.539392 0.823500 0.496990
v 0.533010 0.823500 0.507400
v 0.500423 0.944500 0.480351
v 0.500505 0.944500 0.480218
vt 0.227273 0.000000
vt 0.272727 0.000000
vt 0.272727 1.000000
vt 0.227273 1.000000
f 735/735 736/736 737/737 738/738
v 0.500000 0.823500 0.480000
v 0.533010 0.823500 0.507400
v 0.539392 0.823500 0.496990
vt 0.000000 0.000000
vt 1.000000 0.000000
vt 1.000000 1.000000
f 739/739 740/740 741/741
v 0.500000 0.944500 0.480000
v 0.500505 0.944500 0.480218
v 0.500423 0.944500 0.480351
vt 0.000000 0.000000
vt 1.000000 0.000000
vt 1.000000 1.000000
f 742/742 743/743 744/744
v 0.533010 0.823500 0.507400
v 0.523953 0.823500 0.515590
v 0.500307 0.944500 0.480456
v 0.500423 0.944500 0.480351
vt 0.272727 0.000000
vt 0.318182 0.000000
vt 0.318182 1.000000
vt 0.272727 1.000000
f 745/745 746/746 747/747 748/748
v 0.500000 0.823500 0.480000
v 0.523953 0.823500 0.515590
v 0.533010 0.823500 0.507400
vt 0.000000 0.000000
vt 1.000000 0.000000
vt 1.000000 1.000000
f 749/749 750/750 751/751
v 0.500000 0.944500 0.480000
v 0.500423 0.944500 0.480351
v 0.500307 0.944500 0.480456
vt 0.000000 0.000000
vt 1.000000 0.000000
vt 1.000000 1.000000
f 752/752 753/753 754/754
v 0.523953 0.823500 0.515590
v 0.512956 0.823500 0.520897
v 0.500166 0.944500 0.480524
v 0.500307 0.944500 0.480456
vt 0.318182 0.000000
vt 0.363636 0.000000
vt 0.363636 1.000000
vt 0.318182 1.000000
f 755/755 756/756 757/757 758/758
v 0.500000 0.823500 0.480000
v 0.512956 0.823500 0.520897
v 0.523953 0.823500 0.515590
vt 0.000000 0.000000
vt 1.000000 0.000000
vt 1.000000 1.000000
f 759/759 760/760 761/761
v 0.500000 0.944500 0.480000
v 0.500307 0.944500 0.480456
v 0.500166 0.944500 0.480524
vt 0.000000 0.000000
vt 1.000000 0.000000
vt 1.000000 1.000000
f 762/762 763/763 764/764
v 0.512956 0.823500 0.520897
v 0.500909 0.823500 0.522890
v 0.500012 0.944500 0.480550
v 0.500166 0.944500 0.480524
vt 0.363636 0.000000
vt 0.409091 0.000000
vt 0.409091 1.000000
vt 0.363636 1.000000
f 765/765 766/766 767/767 768/768
v 0.500000 0.823500 0.480000
v 0.500909 0.823500 0.522890
v 0.512956 0.823500 0.520897
vt 0.000000 0.000000
vt 1.000000 0.000000
vt 1.000000 1.000000
f 769/769 770/770 771/771
v 0.500000 0.944500 0.480000
v 0.500166 0.944500 0.480524
v 0.500012 0.944500 0.480550
vt 0.000000 0.000000
vt 1.000000 0.000000
vt 1.000000 1.000000
f 772/772 773/773 774/774
v 0.500909 0.823500 0.522890
v 0.488789 0.823500 0.521409
v 0.499856 0.944500 0.480531
v 0.500012 0.944500 0.480550
vt 0.409091 0.000000
vt 0.454545 0.000000
vt 0.454545 1.000000
vt 0.409091 1.000000
f 775/775 776/776 777/777 778/778
v 0.500000 0.823500 0.480000
v 0.488789 0.823500 0.521409
v 0.500909 0.823500 0.522890
vt 0.000000 0.000000
vt 1.000000 0.000000
vt 1.000000 1.000000
f 779/779 780/780 781/781
v 0.500000 0.944500 0.480000
v 0.500012 0.944500 0.480550
v 0.499856 0.944500 0.480531
vt 0.000000 0.000000
vt 1.000000 0.000000
vt 1.000000 1.000000
f 782/782 783/783 784/784
v 0.488789 0.823500 0.521409
v 0.477577 0.823500 0.516573
v 0.499713 0.944500 0.480469
v 0.499856 0.944500 0.480531
vt 0.454545 0.000000
vt 0.500000 0.000000
vt 0.500000 1.000000
vt 0.454545 1.000000
f 785/785 786/786 787/787 788/788
v 0.500000 0.823500 0.480000
v 0.477577 0.823500 0.516573
v 0.488789 0.823500 0.521409
vt 0.000000 0.000000
vt 1.000000 0.000000
vt 1.000000 1.000000
f 789/789 790/790 791/791
v 0.500000 0.944500 0.480000
v 0.499856 0.944500 0.480531
v 0.499713 0.944500 0.480469
vt 0.000000 0.000000
vt 1.000000 0.000000
vt 1.000000 1.000000
f 792/792 793/793 794/794
v 0.477577 0.823500 0.516573
v 0.468181 0.823500 0.508774
v 0.499592 0.944500 0.480369
v 0.499713 0.944500 0.480469
vt 0.500000 0.000000
vt 0.545455 0.000000
vt 0.545455 1.000000
vt 0.500000 1.000000
f 795/795 796/796 797/797 798/798
v 0.500000 0.823500 0.480000
v 0.468181 0.823500 0.508774
v 0.477577 0.823500 0.516573
vt 0.000000 0.000000
vt 1.000000 0.000000
vt 1.000000 1.000000
f 799/799 800/800 801/801
v 0.500000 0.944500 0.480000
v 0.499713 0.944500 0.480469
v 0.499592 0.944500 0.480369
vt 0.000000 0.000000
vt 1.000000 0.000000
vt 1.000000 1.000000
f 802/802 803/803 804/804
v 0.468181 0.823500 0.508774
v 0.461363 0.823500 0.498644
v 0.499505 0.944500 0.480239
v 0.499592 0.944500 0.480369
vt 0.545455 0.000000
vt 0.590909 0.000000
vt 0.590909 1.000000
vt 0.545455 1.000000
f 805/805 806/806 807/807 808/808
v 0.500000 0.823500 0.480000
v 0.461363 0.823500 0.498644
v 0.468181 0.823500 0.508774
vt 0.000000 0.000000
vt 1.000000 0.000000
vt 1.000000 1.000000
f 809/809 810/810 811/811
v 0.500000 0.944500 0.480000
v 0.499592 0.944500 0.480369
v 0.499505 0.944500 0.480239
vt 0.000000 0.000000
vt 1.000000 0.000000
vt 1.000000 1.000000
f 812/812 813/813 814/814
v 0.461363 0.823500 0.498644
v 0.457676 0.823500 0.487004
v 0.499457 0.944500 0.480090
v 0.499505 0.944500 0.480239
vt 0.590909 0.000000
vt 0.636364 0.000000
vt 0.636364 1.000000
vt 0.590909 1.000000
f 815/815 816/816 817/817 818/818
v 0.500000 0.823500 0.480000
v 0.457676 0.823500 0.487004
v 0.461363 0.823500 0.498644
vt 0.000000 0.000000
vt 1.000000 0.000000
vt 1.000000 1.000000
f 819/819 820/820 821/821
v 0.500000 0.944500 0.480000
v 0.499505 0.944500 0.480239
v 0.499457 0.944500 0.480090
vt 0.000000 0.000000
vt 1.000000 0.000000
vt 1.000000 1.000000
f 822/822 823/823 824/824
v 0.457676 0.823500 0.487004
v 0.457417 0.823500 0.474796
v 0.499454 0.944500 0.479933
v 0.499457 0.944500 0.480090
vt 0.636364 0.000000
vt 0.681818 0.000000
vt 0.681818 1.000000
vt 0.636364 1.000000
f 825/825 826/826 827/827 828/828
v 0.500000 0.823500 0.480000
v 0.457417 0.823500 0.474796
v 0.457676 0.823500 0.487004
vt 0.000000 0.000000
vt 1.000000 0.000000
vt 1.000000 1.000000
f 829/829 830/830 831/831
v 0.500000 0.944500 0.480000
v 0.499457 0.944500 0.480090
v 0.499454 0.944500 0.479933
vt 0.000000 0.000000
vt 1.000000 0.000000
vt 1.000000 1.000000
f 832/832 833/833 834/834
v 0.457417 0.823500 0.474796
v 0.460608 0.823500 0.463010
v 0.499495 0.944500 0.479782
v 0.499454 0.944500 0.479933
vt 0.681818 0.000000
vt 0.727273 0.000000
vt 0.727273 1.000000
vt 0.681818 1.000000
f 835/835 836/836 837/837 838/838
v 0.500000 0.823500 0.480000
v 0.460608 0.823500 0.463010
v 0.457417 0.823500 0.474796
vt 0.000000 0.000000
vt 1.000000 0.000000
vt 1.000000 1.000000
f 839/839 840/840 841/841
v 0.500000 0.944500 0.480000
v 0.499454 0.944500 0.479933
v 0.499495 0.944500 0.479782
vt 0.000000 0.000000
vt 1.000000 0.000000
vt 1.000000 1.000000
f 842/842 843/843 844/844
v 0.460608 0.823500 0.463010
v 0.466990 0.823500 0.452600
v 0.499577 0.944500 0.479649
v 0.499495 0.944500 0.479782
vt 0.727273 0.000000
vt 0.772727 0.000000
vt 0.772727 1.000000
vt 0.727273 1.000000
f 845/845 846/846 847/847 848/848
v 0.500000 0.823500 0.480000
v 0.466990 0.823500 0.452600
v 0.460608 0.823500 0.463010
vt 0.000000 0.000000
vt 1.000000 0.000000
vt 1.000000 1.000000
f 849/849 850/850 851/851
v 0.500000 0.944500 0.480000
v 0.499495 0.944500 0.479782
v 0.499577 0.944500 0.479649
vt 0.000000 0.000000
vt 1.000000 0.000000
vt 1.000000 1.000000
f 852/852 853/853 854/854
v 0.466990 0.823500 0.452600
v 0.476047 0.823500 0.444410
v 0.499693 0.944500 0.479544
v 0.499577 0.944500 0.479649
vt 0.772727 0.000000
vt 0.818182 0.000000
vt 0.818182 1.000000
vt 0.772727 1.000000
f 855/855 856/856 857/857 858/858
v 0.500000 0.823500 0.480000
v 0.476047 0.823500 0.444410
v 0.466990 0.823500 0.452600
vt 0.000000 0.000000
vt 1.000000 0.000000
vt 1.000000 1.000000
f 859/859 860/860 861/861
v 0.500000 0.944500 0.480000
v 0.499577 0.944500 0.479649
v 0.499693 0.944500 0.479544
vt 0.000000 0.000000
vt 1.000000 0.000000
vt 1.000000 1.000000
f 862/862 863/863 864/864
v 0.476047 0.823500 0.444410
v 0.487044 0.823500 0.439103
v 0.499834 0.944500 0.479476
v 0.499693 0.944500 0.479544
vt 0.818182 0.000000
vt 0.863636 0.000000
vt 0.863636 1.000000
vt 0.818182 1.000000
f 865/865 866/866 867/867 868/868
v 0.500000 0.823500 0.480000
v 0.487044 0.823500 0.439103
v 0.476047 0.823500 0.444410
vt 0.000000 0.000000
vt 1.000000 0.000000
vt 1.000000 1.000000
f 869/869 870/870 871/871
v 0.500000 0.944500 0.480000
v 0.499693 0.944500 0.479544
v 0.499834 0.944500 0.479476
vt 0.000000 0.000000
vt 1.000000 0.000000
vt 1.000000 1.000000
f 872/872 873/873 874/874
v 0.487044 0.823500 0.439103
v 0.499091 0.823500 0.437110
v 0.499988 0.944500 0.479450
v 0.499834 0.944500 0.479476
vt 0.863636 0.000000
vt 0.909091 0.000000
vt 0.909091 1.000000
vt 0.863636 1.000000
f 875/875 876/876 877/877 878/878
v 0.500000 0.823500 0.480000
v 0.499091 0.823500 0.437110
v 0.487044 0.823500 0.439103
vt 0.000000 0.000000
vt 1.000000 0.000000
vt 1.000000 1.000000
f 879/879 880/880 881/881
v 0.500000 0.944500 0.480000
v 0.499834 0.944500 0.479476
v 0.499988 0.944500 0.479450
vt 0.000000 0.000000
vt 1.000000 0.000000
vt 1.000000 1.000000
f 882/882 883/883 884/884
v 0.499091 0.823500 0.437110
v 0.511211 0.823500 0.438591
v 0.500144 0.944500 0.479469
v 0.499988 0.944500 0.479450
vt 0.909091 0.000000
vt 0.954545 0.000000
vt 0.954545 1.000000
vt 0.909091 1.000000
f 885/885 886/886 887/887 888/888
v 0.500000 0.823500 0.480000
v 0.511211 0.823500 0.438591
v 0.499091 0.823500 0.437110
vt 0.000000 0.000000
vt 1.000000 0.000000
vt 1.000000 1.000000
f 889/889 890/890 891/891
v 0.500000 0.944500 0.480000
v 0.499988 0.944500 0.479450
v 0.500144 0.944500 0.479469
vt 0.000000 0.000000
vt 1.000000 0.000000
vt 1.000000 1.000000
f 892/892 893/893 894/894
v 0.511211 0.823500 0.438591
v 0.522423 0.823500 0.443427
v 0.500287 0.944500 0.479531
v 0.500144 0.944500 0.479469
vt 0.954545 0.000000
vt 1.000000 0.000000
vt 1.000000 1.000000
vt 0.954545 1.000000
f 895/895 896/896 897/897 898/898
v 0.500000 0.823500 0.480000
v 0.522423 0.823500 0.443427
v 0.511211 0.823500 0.438591
vt 0.000000 0.000000
vt 1.000000 0.000000
vt 1.000000 1.000000
f 899/899 900/900 901/901
v 0.500000 0.944500 0.480000
v 0.500144 0.944500 0.479469
v 0.500287 0.944500 0.479531
vt 0.000000 0.000000
vt 1.000000 0.000000
vt 1.000000 1.000000
f 902/902 903/903 904/904
usemtl dark
v 0.517249 0.295500 0.451867
v 0.525831 0.295500 0.459463
v 0.525831 0.361500 0.459463
v 0.517249 0.361500 0.451867
vt 0.000000 0.000000
vt 0.055556 0.000000
vt 0.055556 1.000000
vt 0.000000 1.000000
f 905/905 906/906 907/907 908/908
v 0.500000 0.295500 0.480000
v 0.525831 0.295500 0.459463
v 0.517249 0.295500 0.451867
vt 0.000000 0.000000
vt 1.000000 0.000000
vt 1.000000 1.000000
f 909/909 910/910 911/911
v 0.500000 0.361500 0.480000
v 0.517249 0.361500 0.451867
v 0.525831 0.361500 0.459463
vt 0.000000 0.000000
vt 1.000000 0.000000
vt 1.000000 1.000000
f 912/912 913/913 914/914
v 0.525831 0.295500 0.459463
v 0.531297 0.295500 0.469536
v 0.531297 0.361500 0.469536
v 0.525831 0.361500 0.459463
vt 0.055556 0.000000
vt 0.111111 0.000000
vt 0.111111 1.000000
vt 0.055556 1.000000
f 915/915 916/916 917/917 918/918
v 0.500000 0.295500 0.480000
v 0.531297 0.295500 0.469536
v 0.525831 0.295500 0.459463
vt 0.000000 0.000000
vt 1.000000 0.000000
vt 1.000000 1.000000
f 919/919 920/920 921/921
v 0.500000 0.361500 0.480000
v 0.525831 0.361500 0.459463
v 0.531297 0.361500 0.469536
vt 0.000000 0.000000
vt 1.000000 0.000000
vt 1.000000 1.000000
f 922/922 923/923 924/924
v 0.531297 0.295500 0.469536
v 0.532988 0.295500 0.480871
v 0.532988 0.361500 0.480871
v 0.531297 0.361500 0.469536
vt 0.111111 0.000000
vt 0.166667 0.000000
vt 0.166667 1.000000
vt 0.111111 1.000000
f 925/925 926/926 927/927 928/928
v 0.500000 0.295500 0.480000
v 0.532988 0.295500 0.480871
v 0.531297 0.295500 0.469536
vt 0.000000 0.000000
vt 1.000000 0.000000
vt 1.000000 1.000000
f 929/929 930/930 931/931
v 0.500000 0.361500 0.480000
v 0.531297 0.361500 0.469536
v 0.532988 0.361500 0.480871
vt 0.000000 0.000000
vt 1.000000 0.000000
vt 1.000000 1.000000
f 932/932 933/933 934/934
v 0.532988 0.295500 0.480871
v 0.530701 0.295500 0.492101
v 0.530701 0.361500 0.492101
v 0.532988 0.361500 0.480871
vt 0.166667 0.000000
vt 0.222222 0.000000
vt 0.222222 1.000000
vt 0.166667 1.000000
f 935/935 936/936 937/937 938/938
v 0.500000 0.295500 0.480000
v 0.530701 0.295500 0.492101
v 0.532988 0.295500 0.480871
vt 0.000000 0.000000
vt 1.000000 0.000000
vt 1.000000 1.000000
f 939/939 940/940 941/941
v 0.500000 0.361500 0.480000
v 0.532988 0.361500 0.480871
v 0.530701 0.361500 0.492101
vt 0.000000 0.000000
vt 1.000000 0.000000
vt 1.000000 1.000000
f 942/942 943/943 944/944
v 0.530701 0.295500 0.492101
v 0.524711 0.295500 0.501872
v 0.524711 0.361500 0.501872
v 0.530701 0.361500 0.492101
vt 0.222222 0.000000
vt 0.277778 0.000000
vt 0.277778 1.000000
vt 0.222222 1.000000
f 945/945 946/946 947/947 948/948
v 0.500000 0.295500 0.480000
v 0.524711 0.295500 0.501872
v 0.530701 0.295500 0.492101
vt 0.000000 0.000000
vt 1.000000 0.000000
vt 1.000000 1.000000
f 949/949 950/950 951/951
v 0.500000 0.361500 0.480000
v 0.530701 0.361500 0.492101
v 0.524711 0.361500 0.501872
vt 0.000000 0.000000
vt 1.000000 0.000000
vt 1.000000 1.000000
f 952/952 953/953 954/954
v 0.524711 0.295500 0.501872
v 0.515740 0.295500 0.509004
v 0.515740 0.361500 0.509004
v 0.524711 0.361500 0.501872
vt 0.277778 0.000000
vt 0.333333 0.000000
vt 0.333333 1.000000
vt 0.277778 1.000000
f 955/955 956/956 957/957 958/958
v 0.500000 0.295500 0.480000
v 0.515740 0.295500 0.509004
v 0.524711 0.295500 0.501872
vt 0.000000 0.000000
vt 1.000000 0.000000
vt 1.000000 1.000000
f 959/959 960/960 961/961
v 0.500000 0.361500 0.480000
v 0.524711 0.361500 0.501872
v 0.515740 0.361500 0.509004
vt 0.000000 0.000000
vt 1.000000 0.000000
vt 1.000000 1.000000
f 962/962 963/963 964/964
v 0.515740 0.295500 0.509004
v 0.504870 0.295500 0.512639
v 0.504870 0.361500 0.512639
v 0.515740 0.361500 0.509004
vt 0.333333 0.000000
vt 0.388889 0.000000
vt 0.388889 1.000000
vt 0.333333 1.000000
f 965/965 966/966 967/967 968/968
v 0.500000 0.295500 0.480000
v 0.504870 0.295500 0.512639
v 0.515740 0.295500 0.509004
vt 0.000000 0.000000
vt 1.000000 0.000000
vt 1.000000 1.000000
f 969/969 970/970 971/971
v 0.500000 0.361500 0.480000
v 0.515740 0.361500 0.509004
v 0.504870 0.361500 0.512639
vt 0.000000 0.000000
vt 1.000000 0.000000
vt 1.000000 1.000000
f 972/972 973/973 974/974
v 0.504870 0.295500 0.512639
v 0.493414 0.295500 0.512336
v 0.493414 0.361500 0.512336
v 0.504870 0.361500 0.512639
vt 0.388889 0.000000
vt 0.444444 0.000000
vt 0.444444 1.000000
vt 0.388889 1.000000
f 975/975 976/976 977/977 978/978
v 0.500000 0.295500 0.480000
v 0.493414 0.295500 0.512336
v 0.504870 0.295500 0.512639
vt 0.000000 0.000000
vt 1.000000 0.000000
vt 1.000000 1.000000
f 979/979 980/980 981/981
v 0.500000 0.361500 0.480000
v 0.504870 0.361500 0.512639
v 0.493414 0.361500 0.512336
vt 0.000000 0.000000
vt 1.000000 0.000000
vt 1.000000 1.000000
f 982/982 983/983 984/984
v 0.493414 0.295500 0.512336
v 0.482751 0.295500 0.508133
v 0.482751 0.361500 0.508133
v 0.493414 0.361500 0.512336
vt 0.444444 0.000000
vt 0.500000 0.000000
vt 0.500000 1.000000
vt 0.444444 1.000000
f 985/985 986/986 987/987 988/988
v 0.500000 0.295500 0.480000
v 0.482751 0.295500 0.508133
v 0.493414 0.295500 0.512336
vt 0.000000 0.000000
vt 1.000000 0.000000
vt 1.000000 1.000000
f 989/989 990/990 991/991
v 0.500000 0.361500 0.480000
v 0.493414 0.361500 0.512336
v 0.482751 0.361500 0.508133
vt 0.000000 0.000000
vt 1.000000 0.000000
vt 1.000000 1.000000
f 992/992 993/993 994/994
v 0.482751 0.295500 0.508133
v 0.474169 0.295500 0.500537
v 0.474169 0.361500 0.500537
v 0.482751 0.361500 0.508133
vt 0.500000 0.000000
vt 0.555556 0.000000
vt 0.555556 1.000000
vt 0.500000 1.000000
f 995/995 996/996 997/997 998/998
v 0.500000 0.295500 0.480000
v 0.474169 0.295500 0.500537
v 0.482751 0.295500 0.508133
vt 0.000000 0.000000
vt 1.000000 0.000000
vt 1.000000 1.000000
f 999/999 1000/1000 1001/1001
v 0.500000 0.361500 0.480000
v 0.482751 0.361500 0.508133
v 0.474169 0.361500 0.500537
vt 0.000000 0.000000
vt 1.000000 0.000000
vt 1.000000 1.000000
f 1002/1002 1003/1003 1004/1004
v 0.474169 0.295500 0.500537
v 0.468703 0.295500 0.490464
v 0.468703 0.361500 0.490464
v 0.474169 0.361500 0.500537
vt 0.555556 0.000000
vt 0.611111 0.000000
vt 0.611111 1.000000
vt 0.555556 1.000000
f 1005/1005 1006/1006 1007/1007 1008/1008
v 0.500000 0.295500 0.480000
v 0.468703 0.295500 0.490464
v 0.474169 0.295500 0.500537
vt 0.000000 0.000000
vt 1.000000 0.000000
vt 1.000000 1.000000
f 1009/1009 1010/1010 1011/1011
v 0.500000 0.361500 0.480000
v 0.474169 0.361500 0.500537
v 0.468703 0.361500 0.490464
vt 0.000000 0.000000
vt 1.000000 0.000000
vt 1.000000 1.000000
f 1012/1012 1013/1013 1014/1014
v 0.468703 0.295500 0.490464
v 0.467012 0.295500 0.479129
v 0.467012 0.361500 0.479129
v 0.468703 0.361500 0.490464
vt 0.611111 0.000000
vt 0.666667 0.000000
vt 0.666667 1.000000
vt 0.611111 1.000000
f 1015/1015 1016/1016 1017/1017 1018/1018
v 0.500000 0.295500 0.480000
v 0.467012 0.295500 0.479129
v 0.468703 0.295500 0.490464
vt 0.000000 0.000000
vt 1.000000 0.000000
vt 1.000000 1.000000
f 1019/1019 1020/1020 1021/1021
v 0.500000 0.361500 0.480000
v 0.468703 0.361500 0.490464
v 0.467012 0.361500 0.479129
vt 0.000000 0.000000
vt 1.000000 0.000000
vt 1.000000 1.000000
f 1022/1022 1023/1023 1024/1024
v 0.467012 0.295500 0.479129
v 0.469299 0.295500 0.467899
v 0.469299 0.361500 0.467899
v 0.467012 0.361500 0.479129
vt 0.666667 0.000000
vt 0.722222 0.000000
vt 0.722222 1.000000
vt 0.666667 1.000000
f 1025/1025 1026/1026 1027/1027 1028/1028
v 0.500000 0.295500 0.480000
v 0.469299 0.295500 0.467899
v 0.467012 0.295500 0.479129
vt 0.000000 0.000000
vt 1.000000 0.000000
vt 1.000000 1.000000
f 1029/1029 1030/1030 1031/1031
v 0.500000 0.361500 0.480000
v 0.467012 0.361500 0.479129
v 0.469299 0.361500 0.467899
vt 0.000000 0.000000
vt 1.000000 0.000000
vt 1.000000 1.000000
f 1032/1032 1033/1033 1034/1034
v 0.469299 0.295500 0.467899
v 0.475289 0.295500 0.458128
v 0.475289 0.361500 0.458128
v 0.469299 0.361500 0.467899
vt 0.722222 0.000000
vt 0.777778 0.000000
vt 0.777778 1.000000
vt 0.722222 1.000000
f 1035/1035 1036/1036 1037/1037 1038/1038
v 0.500000 0.295500 0.480000
v 0.475289 0.295500 0.458128
v 0.469299 0.295500 0.467899
vt 0.000000 0.000000
vt 1.000000 0.000000
vt 1.000000 1.000000
f 1039/1039 1040/1040 1041/1041
v 0.500000 0.361500 0.480000
v 0.469299 0.361500 0.467899
v 0.475289 0.361500 0.458128
vt 0.000000 0.000000
vt 1.000000 0.000000
vt 1.000000 1.000000
f 1042/1042 1043/1043 1044/1044
v 0.475289 0.295500 0.458128
v 0.484260 0.295500 0.450996
v 0.484260 0.361500 0.450996
v 0.475289 0.361500 0.458128
vt 0.777778 0.000000
vt 0.833333 0.000000
vt 0.833333 1.000000
vt 0.777778 1.000000
f 1045/1045 1046/1046 1047/1047 1048/1048
v 0.500000 0.295500 0.480000
v 0.484260 0.295500 0.450996
v 0.475289 0.295500 0.458128
vt 0.000000 0.000000
vt 1.000000 0.000000
vt 1.000000 1.000000
f 1049/1049 1050/1050 1051/1051
v 0.500000 0.361500 0.480000
v 0.475289 0.361500 0.458128
v 0.484260 0.361500 0.450996
vt 0.000000 0.000000
vt 1.000000 0.000000
vt 1.000000 1.000000
f 1052/1052 1053/1053 1054/1054
v 0.484260 0.295500 0.450996
v 0.495130 0.295500 0.447361
v 0.495130 0.361500 0.447361
v 0.484260 0.361500 0.450996
vt 0.833333 0.000000
vt 0.888889 0.000000
vt 0.888889 1.000000
vt 0.833333 1.000000
f 1055/1055 1056/1056 1057/1057 1058/1058
v 0.500000 0.295500 0.480000
v 0.495130 0.295500 0.447361
v 0.484260 0.295500 0.450996
vt 0.000000 0.000000
vt 1.000000 0.000000
vt 1.000000 1.000000
f 1059/1059 1060/1060 1061/1061
v 0.500000 0.361500 0.480000
v 0.484260 0.361500 0.450996
v 0.495130 0.361500 0.447361
vt 0.000000 0.000000
vt 1.000000 0.000000
vt 1.000000 1.000000
f 1062/1062 1063/1063 1064/1064
v 0.495130 0.295500 0.447361
v 0.506586 0.295500 0.447664
v 0.506586 0.361500 0.447664
v 0.495130 0.361500 0.447361
vt 0.888889 0.000000
vt 0.944444 0.000000
vt 0.944444 1.000000
vt 0.888889 1.000000
f 1065/1065 1066/1066 1067/1067 1068/1068
v 0.500000 0.295500 0.480000
v 0.506586 0.295500 0.447664
v 0.495130 0.295500 0.447361
vt 0.000000 0.000000
vt 1.000000 0.000000
vt 1.000000 1.000000
f 1069/1069 1070/1070 1071/1071
v 0.500000 0.361500 0.480000
v 0.495130 0.361500 0.447361
v 0.506586 0.361500 0.447664
vt 0.000000 0.000000
vt 1.000000 0.000000
vt 1.000000 1.000000
f 1072/1072 1073/1073 1074/1074
v 0.506586 0.295500 0.447664
v 0.517249 0.295500 0.451867
v 0.517249 0.361500 0.451867
v 0.506586 0.361500 0.447664
vt 0.944444 0.000000
vt 1.000000 0.000000
vt 1.000000 1.000000
vt 0.944444 1.000000
f 1075/1075 1076/1076 1077/1077 1078/1078
v 0.500000 0.295500 0.480000
v 0.517249 0.295500 0.451867
v 0.506586 0.295500 0.447664
vt 0.000000 0.000000
vt 1.000000 0.000000
vt 1.000000 1.000000
f 1079/1079 1080/1080 1081/1081
v 0.500000 0.361500 0.480000
v 0.506586 0.361500 0.447664
v 0.517249 0.361500 0.451867
vt 0.000000 0.000000
vt 1.000000 0.000000
vt 1.000000 1.000000
f 1082/1082 1083/1083 1084/1084
v 0.324697 0.565000 0.366069
v 0.681052 0.565000 0.584553
v 0.681052 0.686000 0.584553
v 0.324697 0.686000 0.366069
vt 0.000000 0.000000
vt 1.000000 0.000000
vt 1.000000 1.000000
vt 0.000000 1.000000
f 1085/1085 1086/1086 1087/1087 1088/1088
v 0.675303 0.565000 0.593931
v 0.318948 0.565000 0.375447
v 0.318948 0.686000 0.375447
v 0.675303 0.686000 0.593931
vt 0.000000 0.000000
vt 1.000000 0.000000
vt 1.000000 1.000000
vt 0.000000 1.000000
f 1089/1089 1090/1090 1091/1091 1092/1092
v 0.318948 0.565000 0.375447
v 0.324697 0.565000 0.366069
v 0.324697 0.686000 0.366069
v 0.318948 0.686000 0.375447
vt 0.000000 0.000000
vt 1.000000 0.000000
vt 1.000000 1.000000
vt 0.000000 1.000000
f 1093/1093 1094/1094 1095/1095 1096/1096
v 0.681052 0.565000 0.584553
v 0.675303 0.565000 0.593931
v 0.675303 0.686000 0.593931
v 0.681052 0.686000 0.584553
vt 0.000000 0.000000
vt 1.000000 0.000000
vt 1.000000 1.000000
vt 0.000000 1.000000
f 1097/1097 1098/1098 1099/1099 1100/1100
v 0.324697 0.686000 0.366069
v 0.681052 0.686000 0.584553
v 0.675303 0.686000 0.593931
v 0.318948 0.686000 0.375447
vt 0.000000 0.000000
vt 1.000000 0.000000
vt 1.000000 1.000000
vt 0.000000 1.000000
f 1101/1101 1102/1102 1103/1103 1104/1104
v 0.318948 0.565000 0.375447
v 0.675303 0.565000 0.593931
v 0.681052 0.565000 0.584553
v 0.324697 0.565000 0.366069
vt 0.000000 0.000000
vt 1.000000 0.000000
vt 1.000000 1.000000
vt 0.000000 1.000000
f 1105/1105 1106/1106 1107/1107 1108/1108
v 0.541308 0.383500 0.402103
v 0.550685 0.383500 0.407853
v 0.550685 0.493500 0.407853
v 0.541308 0.493500 0.402103
vt 0.000000 0.000000
vt 1.000000 0.000000
vt 1.000000 1.000000
vt 0.000000 1.000000
f 1109/1109 1110/1110 1111/1111 1112/1112
v 0.458692 0.383500 0.557897
v 0.449315 0.383500 0.552147
v 0.449315 0.493500 0.552147
v 0.458692 0.493500 0.557897
vt 0.000000 0.000000
vt 1.000000 0.000000
vt 1.000000 1.000000
vt 0.000000 1.000000
f 1113/1113 1114/1114 1115/1115 1116/1116
v 0.449315 0.383500 0.552147
v 0.541308 0.383500 0.402103
v 0.541308 0.493500 0.402103
v 0.449315 0.493500 0.552147
vt 0.000000 0.000000
vt 1.000000 0.000000
vt 1.000000 1.000000
vt 0.000000 1.000000
f 1117/1117 1118/1118 1119/1119 1120/1120
v 0.550685 0.383500 0.407853
v 0.458692 0.383500 0.557897
v 0.458692 0.493500 0.557897
v 0.550685 0.493500 0.407853
vt 0.000000 0.000000
vt 1.000000 0.000000
vt 1.000000 1.000000
vt 0.000000 1.000000
f 1121/1121 1122/1122 1123/1123 1124/1124
v 0.541308 0.493500 0.402103
v 0.550685 0.493500 0.407853
v 0.458692 0.493500 0.557897
v 0.449315 0.493500 0.552147
vt 0.000000 0.000000
vt 1.000000 0.000000
vt 1.000000 1.000000
vt 0.000000 1.000000
f 1125/1125 1126/1126 1127/1127 1128/1128
v 0.449315 0.383500 0.552147
v 0.458692 0.383500 0.557897
v 0.550685 0.383500 0.407853
v 0.541308 0.383500 0.402103
vt 0.000000 0.000000
vt 1.000000 0.000000
vt 1.000000 1.000000
vt 0.000000 1.000000
f 1129/1129 1130/1130 1131/1131 1132/1132
v 0.478062 0.394500 0.505259
v 0.487440 0.394500 0.511008
v 0.487440 0.526500 0.511008
v 0.478062 0.526500 0.505259
vt 0.000000 0.000000
vt 1.000000 0.000000
vt 1.000000 1.000000
vt 0.000000 1.000000
f 1133/1133 1134/1134 1135/1135 1136/1136
v 0.452943 0.394500 0.567275
v 0.443565 0.394500 0.561525
v 0.443565 0.526500 0.561525
v 0.452943 0.526500 0.567275
vt 0.000000 0.000000
vt 1.000000 0.000000
vt 1.000000 1.000000
vt 0.000000 1.000000
f 1137/1137 1138/1138 1139/1139 1140/1140
v 0.443565 0.394500 0.561525
v 0.478062 0.394500 0.505259
v 0.478062 0.526500 0.505259
v 0.443565 0.526500 0.561525
vt 0.000000 0.000000
vt 1.000000 0.000000
vt 1.000000 1.000000
vt 0.000000 1.000000
f 1141/1141 1142/1142 1143/1143 1144/1144
v 0.487440 0.394500 0.511008
v 0.452943 0.394500 0.567275
v 0.452943 0.526500 0.567275
v 0.487440 0.526500 0.511008
vt 0.000000 0.000000
vt 1.000000 0.000000
vt 1.000000 1.000000
vt 0.000000 1.000000
f 1145/1145 1146/1146 1147/1147 1148/1148
v 0.478062 0.526500 0.505259
v 0.487440 0.526500 0.511008
v 0.452943 0.526500 0.567275
v 0.443565 0.526500 0.561525
vt 0.000000 0.000000
vt 1.000000 0.000000
vt 1.000000 1.000000
vt 0.000000 1.000000
f 1149/1149 1150/1150 1151/1151 1152/1152
v 0.443565 0.394500 0.561525
v 0.452943 0.394500 0.567275
v 0.487440 0.394500 0.511008
v 0.478062 0.394500 0.505259
vt 0.000000 0.000000
vt 1.000000 0.000000
vt 1.000000 1.000000
vt 0.000000 1.000000
f 1153/1153 1154/1154 1155/1155 1156/1156
v 0.536396 0.350500 0.373286
v 0.578596 0.350500 0.399159
v 0.578596 0.526500 0.399159
v 0.536396 0.526500 0.373286
vt 0.000000 0.000000
vt 1.000000 0.000000
vt 1.000000 1.000000
vt 0.000000 1.000000
f 1157/1157 1158/1158 1159/1159 1160/1160
v 0.549848 0.350500 0.446048
v 0.507648 0.350500 0.420175
v 0.507648 0.526500 0.420175
v 0.549848 0.526500 0.446048
vt 0.000000 0.000000
vt 1.000000 0.000000
vt 1.000000 1.000000
vt 0.000000 1.000000
f 1161/1161 1162/1162 1163/1163 1164/1164
v 0.507648 0.350500 0.420175
v 0.536396 0.350500 0.373286
v 0.536396 0.526500 0.373286
v 0.507648 0.526500 0.420175
vt 0.000000 0.000000
vt 1.000000 0.000000
vt 1.000000 1.000000
vt 0.000000 1.000000
f 1165/1165 1166/1166 1167/1167 1168/1168
v 0.578596 0.350500 0.399159
v 0.549848 0.350500 0.446048
v 0.549848 0.526500 0.446048
v 0.578596 0.526500 0.399159
vt 0.000000 0.000000
vt 1.000000 0.000000
vt 1.000000 1.000000
vt 0.000000 1.000000
f 1169/1169 1170/1170 1171/1171 1172/1172
v 0.536396 0.526500 0.373286
v 0.578596 0.526500 0.399159
v 0.549848 0.526500 0.446048
v 0.507648 0.526500 0.420175
vt 0.000000 0.000000
vt 1.000000 0.000000
vt 1.000000 1.000000
vt 0.000000 1.000000
f 1173/1173 1174/1174 1175/1175 1176/1176
v 0.507648 0.350500 0.420175
v 0.549848 0.350500 0.446048
v 0.578596 0.350500 0.399159
v 0.536396 0.350500 0.373286
vt 0.000000 0.000000
vt 1.000000 0.000000
vt 1.000000 1.000000
vt 0.000000 1.000000
f 1177/1177 1178/1178 1179/1179 1180/1180
v 0.548296 0.361500 0.401227
v 0.553196 0.361500 0.406019
v 0.553196 0.515500 0.406019
v 0.548296 0.515500 0.401227
vt 0.000000 0.000000
vt 0.071429 0.000000
vt 0.071429 1.000000
vt 0.000000 1.000000
f 1181/1181 1182/1182 1183/1183 1184/1184
v 0.540247 0.361500 0.414356
v 0.553196 0.361500 0.406019
v 0.548296 0.361500 0.401227
vt 0.000000 0.000000
vt 1.000000 0.000000
vt 1.000000 1.000000
f 1185/1185 1186/1186 1187/1187
v 0.540247 0.515500 0.414356
v 0.548296 0.515500 0.401227
v 0.553196 0.515500 0.406019
vt 0.000000 0.000000
vt 1.000000 0.000000
vt 1.000000 1.000000
f 1188/1188 1189/1189 1190/1190
v 0.553196 0.361500 0.406019
v 0.555530 0.361500 0.412463
v 0.555530 0.515500 0.412463
v 0.553196 0.515500 0.406019
vt 0.071429 0.000000
vt 0.142857 0.000000
vt 0.142857 1.000000
vt 0.071429 1.000000
f 1191/1191 1192/1192 1193/1193 1194/1194
v 0.540247 0.361500 0.414356
v 0.555530 0.361500 0.412463
v 0.553196 0.361500 0.406019
vt 0.000000 0.000000
vt 1.000000 0.000000
vt 1.000000 1.000000
f 1195/1195 1196/1196 1197/1197
v 0.540247 0.515500 0.414356
v 0.553196 0.515500 0.406019
v 0.555530 0.515500 0.412463
vt 0.000000 0.000000
vt 1.000000 0.000000
vt 1.000000 1.000000
f 1198/1198 1199/1199 1200/1200
v 0.555530 0.361500 0.412463
v 0.554838 0.361500 0.419282
v 0.554838 0.515500 0.419282
v 0.555530 0.515500 0.412463
vt 0.142857 0.000000
vt 0.214286 0.000000
vt 0.214286 1.000000
vt 0.142857 1.000000
f 1201/1201 1202/1202 1203/1203 1204/1204
v 0.540247 0.361500 0.414356
v 0.554838 0.361500 0.419282
v 0.555530 0.361500 0.412463
vt 0.000000 0.000000
vt 1.000000 0.000000
vt 1.000000 1.000000
f 1205/1205 1206/1206 1207/1207
v 0.540247 0.515500 0.414356
v 0.555530 0.515500 0.412463
v 0.554838 0.515500 0.419282
vt 0.000000 0.000000
vt 1.000000 0.000000
vt 1.000000 1.000000
f 1208/1208 1209/1209 1210/1210
v 0.554838 0.361500 0.419282
v 0.551255 0.361500 0.425125
v 0.551255 0.515500 0.425125
v 0.554838 0.515500 0.419282
vt 0.214286 0.000000
vt 0.285714 0.000000
vt 0.285714 1.000000
vt 0.214286 1.000000
f 1211/1211 1212/1212 1213/1213 1214/1214
v 0.540247 0.361500 0.414356
v 0.551255 0.361500 0.425125
v 0.554838 0.361500 0.419282
vt 0.000000 0.000000
vt 1.000000 0.000000
vt 1.000000 1.000000
f 1215/1215 1216/1216 1217/1217
v 0.540247 0.515500 0.414356
v 0.554838 0.515500 0.419282
v 0.551255 0.515500 0.425125
vt 0.000000 0.000000
vt 1.000000 0.000000
vt 1.000000 1.000000
f 1218/1218 1219/1219 1220/1220
v 0.551255 0.361500 0.425125
v 0.545493 0.361500 0.428835
v 0.545493 0.515500 0.428835
v 0.551255 0.515500 0.425125
vt 0.285714 0.000000
vt 0.357143 0.000000
vt 0.357143 1.000000
vt 0.285714 1.000000
f 1221/1221 1222/1222 1223/1223 1224/1224
v 0.540247 0.361500 0.414356
v 0.545493 0.361500 0.428835
v 0.551255 0.361500 0.425125
vt 0.000000 0.000000
vt 1.000000 0.000000
vt 1.000000 1.000000
f 1225/1225 1226/1226 1227/1227
v 0.540247 0.515500 0.414356
v 0.551255 0.515500 0.425125
v 0.545493 0.515500 0.428835
vt 0.000000 0.000000
vt 1.000000 0.000000
vt 1.000000 1.000000
f 1228/1228 1229/1229 1230/1230
v 0.545493 0.361500 0.428835
v 0.538691 0.361500 0.429677
v 0.538691 0.515500 0.429677
v 0.545493 0.515500 0.428835
vt 0.357143 0.000000
vt 0.428571 0.000000
vt 0.428571 1.000000
vt 0.357143 1.000000
f 1231/1231 1232/1232 1233/1233 1234/1234
v 0.540247 0.361500 0.414356
v 0.538691 0.361500 0.429677
v 0.545493 0.361500 0.428835
vt 0.000000 0.000000
vt 1.000000 0.000000
vt 1.000000 1.000000
f 1235/1235 1236/1236 1237/1237
v 0.540247 0.515500 0.414356
v 0.545493 0.515500 0.428835
v 0.538691 0.515500 0.429677
vt 0.000000 0.000000
vt 1.000000 0.000000
vt 1.000000 1.000000
f 1238/1238 1239/1239 1240/1240
v 0.538691 0.361500 0.429677
v 0.532198 0.361500 0.427484
v 0.532198 0.515500 0.427484
v 0.538691 0.515500 0.429677
vt 0.428571 0.000000
vt 0.500000 0.000000
vt 0.500000 1.000000
vt 0.428571 1.000000
f 1241/1241 1242/1242 1243/1243 1244/1244
v 0.540247 0.361500 0.414356
v 0.532198 0.361500 0.427484
v 0.538691 0.361500 0.429677
vt 0.000000 0.000000
vt 1.000000 0.000000
vt 1.000000 1.000000
f 1245/1245 1246/1246 1247/1247
v 0.540247 0.515500 0.414356
v 0.538691 0.515500 0.429677
v 0.532198 0.515500 0.427484
vt 0.000000 0.000000
vt 1.000000 0.000000
vt 1.000000 1.000000
f 1248/1248 1249/1249 1250/1250
v 0.532198 0.361500 0.427484
v 0.527298 0.361500 0.422692
v 0.527298 0.515500 0.422692
v 0.532198 0.515500 0.427484
vt 0.500000 0.000000
vt 0.571429 0.000000
vt 0.571429 1.000000
vt 0.500000 1.000000
f 1251/1251 1252/1252 1253/1253 1254/1254
v 0.540247 0.361500 0.414356
v 0.527298 0.361500 0.422692
v 0.532198 0.361500 0.427484
vt 0.000000 0.000000
vt 1.000000 0.000000
vt 1.000000 1.000000
f 1255/1255 1256/1256 1257/1257
v 0.540247 0.515500 0.414356
v 0.532198 0.515500 0.427484
v 0.527298 0.515500 0.422692
vt 0.000000 0.000000
vt 1.000000 0.000000
vt 1.000000 1.000000
f 1258/1258 1259/1259 1260/1260
v 0.527298 0.361500 0.422692
v 0.524964 0.361500 0.416248
v 0.524964 0.515500 0.416248
v 0.527298 0.515500 0.422692
vt 0.571429 0.000000
vt 0.642857 0.000000
vt 0.642857 1.000000
vt 0.571429 1.000000
f 1261/1261 1262/1262 1263/1263 1264/1264
v 0.540247 0.361500 0.414356
v 0.524964 0.361500 0.416248
v 0.527298 0.361500 0.422692
vt 0.000000 0.000000
vt 1.000000 0.000000
vt 1.000000 1.000000
f 1265/1265 1266/1266 1267/1267
v 0.540247 0.515500 0.414356
v 0.527298 0.515500 0.422692
v 0.524964 0.515500 0.416248
vt 0.000000 0.000000
vt 1.000000 0.000000
vt 1.000000 1.000000
f 1268/1268 1269/1269 1270/1270
v 0.524964 0.361500 0.416248
v 0.525656 0.361500 0.409429
v 0.525656 0.515500 0.409429
v 0.524964 0.515500 0.416248
vt 0.642857 0.000000
vt 0.714286 0.000000
vt 0.714286 1.000000
vt 0.642857 1.000000
f 1271/1271 1272/1272 1273/1273 1274/1274
v 0.540247 0.361500 0.414356
v 0.525656 0.361500 0.409429
v 0.524964 0.361500 0.416248
vt 0.000000 0.000000
vt 1.000000 0.000000
vt 1.000000 1.000000
f 1275/1275 1276/1276 1277/1277
v 0.540247 0.515500 0.414356
v 0.524964 0.515500 0.416248
v 0.525656 0.515500 0.409429
vt 0.000000 0.000000
vt 1.000000 0.000000
vt 1.000000 1.000000
f 1278/1278 1279/1279 1280/1280
v 0.525656 0.361500 0.409429
v 0.529238 0.361500 0.403587
v 0.529238 0.515500 0.403587
v 0.525656 0.515500 0.409429
vt 0.714286 0.000000
vt 0.785714 0.000000
vt 0.785714 1.000000
vt 0.714286 1.000000
f 1281/1281 1282/1282 1283/1283 1284/1284
v 0.540247 0.361500 0.414356
v 0.529238 0.361500 0.403587
v 0.525656 0.361500 0.409429
vt 0.000000 0.000000
vt 1.000000 0.000000
vt 1.000000 1.000000
f 1285/1285 1286/1286 1287/1287
v 0.540247 0.515500 0.414356
v 0.525656 0.515500 0.409429
v 0.529238 0.515500 0.403587
vt 0.000000 0.000000
vt 1.000000 0.000000
vt 1.000000 1.000000
f 1288/1288 1289/1289 1290/1290
v 0.529238 0.361500 0.403587
v 0.535001 0.361500 0.399877
v 0.535001 0.515500 0.399877
v 0.529238 0.515500 0.403587
vt 0.785714 0.000000
vt 0.857143 0.000000
vt 0.857143 1.000000
vt 0.785714 1.000000
f 1291/1291 1292/1292 1293/1293 1294/1294
v 0.540247 0.361500 0.414356
v 0.535001 0.361500 0.399877
v 0.529238 0.361500 0.403587
vt 0.000000 0.000000
vt 1.000000 0.000000
vt 1.000000 1.000000
f 1295/1295 1296/1296 1297/1297
v 0.540247 0.515500 0.414356
v 0.529238 0.515500 0.403587
v 0.535001 0.515500 0.399877
vt 0.000000 0.000000
vt 1.000000 0.000000
vt 1.000000 1.000000
f 1298/1298 1299/1299 1300/1300
v 0.535001 0.361500 0.399877
v 0.541803 0.361500 0.399034
v 0.541803 0.515500 0.399034
v 0.535001 0.515500 0.399877
vt 0.857143 0.000000
vt 0.928571 0.000000
vt 0.928571 1.000000
vt 0.857143 1.000000
f 1301/1301 1302/1302 1303/1303 1304/1304
v 0.540247 0.361500 0.414356
v 0.541803 0.361500 0.399034
v 0.535001 0.361500 0.399877
vt 0.000000 0.000000
vt 1.000000 0.000000
vt 1.000000 1.000000
f 1305/1305 1306/1306 1307/1307
v 0.540247 0.515500 0.414356
v 0.535001 0.515500 0.399877
v 0.541803 0.515500 0.399034
vt 0.000000 0.000000
vt 1.000000 0.000000
vt 1.000000 1.000000
f 1308/1308 1309/1309 1310/1310
v 0.541803 0.361500 0.399034
v 0.548296 0.361500 0.401227
v 0.548296 0.515500 0.401227
v 0.541803 0.515500 0.399034
vt 0.928571 0.000000
vt 1.000000 0.000000
vt 1.000000 1.000000
vt 0.928571 1.000000
f 1311/1311 1312/1312 1313/1313 1314/1314
v 0.540247 0.361500 0.414356
v 0.548296 0.361500 0.401227
v 0.541803 0.361500 0.399034
vt 0.000000 0.000000
vt 1.000000 0.000000
vt 1.000000 1.000000
f 1315/1315 1316/1316 1317/1317
v 0.540247 0.515500 0.414356
v 0.541803 0.515500 0.399034
v 0.548296 0.515500 0.401227
vt 0.000000 0.000000
vt 1.000000 0.000000
vt 1.000000 1.000000
f 1318/1318 1319/1319 1320/1320
v 0.520123 0.279000 0.447178
v 0.529281 0.279000 0.455003
v 0.529281 0.356000 0.455003
v 0.520123 0.356000 0.447178
vt 0.000000 0.000000
vt 0.050000 0.000000
vt 0.050000 1.000000
vt 0.000000 1.000000
f 1321/1321 1322/1322 1323/1323 1324/1324
v 0.500000 0.279000 0.480000
v 0.529281 0.279000 0.455003
v 0.520123 0.279000 0.447178
vt 0.000000 0.000000
vt 1.000000 0.000000
vt 1.000000 1.000000
f 1325/1325 1326/1326 1327/1327
v 0.500000 0.356000 0.480000
v 0.520123 0.356000 0.447178
v 0.529281 0.356000 0.455003
vt 0.000000 0.000000
vt 1.000000 0.000000
vt 1.000000 1.000000
f 1328/1328 1329/1329 1330/1330
v 0.529281 0.279000 0.455003
v 0.535573 0.279000 0.465275
v 0.535573 0.356000 0.465275
v 0.529281 0.356000 0.455003
vt 0.050000 0.000000
vt 0.100000 0.000000
vt 0.100000 1.000000
vt 0.050000 1.000000
f 1331/1331 1332/1332 1333/1333 1334/1334
v 0.500000 0.279000 0.480000
v 0.535573 0.279000 0.465275
v 0.529281 0.279000 0.455003
vt 0.000000 0.000000
vt 1.000000 0.000000
vt 1.000000 1.000000
f 1335/1335 1336/1336 1337/1337
v 0.500000 0.356000 0.480000
v 0.529281 0.356000 0.455003
v 0.535573 0.356000 0.465275
vt 0.000000 0.000000
vt 1.000000 0.000000
vt 1.000000 1.000000
f 1338/1338 1339/1339 1340/1340
v 0.535573 0.279000 0.465275
v 0.538382 0.279000 0.476988
v 0.538382 0.356000 0.476988
v 0.535573 0.356000 0.465275
vt 0.100000 0.000000
vt 0.150000 0.000000
vt 0.150000 1.000000
vt 0.100000 1.000000
f 1341/1341 1342/1342 1343/1343 1344/1344
v 0.500000 0.279000 0.480000
v 0.538382 0.279000 0.476988
v 0.535573 0.279000 0.465275
vt 0.000000 0.000000
vt 1.000000 0.000000
vt 1.000000 1.000000
f 1345/1345 1346/1346 1347/1347
v 0.500000 0.356000 0.480000
v 0.535573 0.356000 0.465275
v 0.538382 0.356000 0.476988
vt 0.000000 0.000000
vt 1.000000 0.000000
vt 1.000000 1.000000
f 1348/1348 1349/1349 1350/1350
v 0.538382 0.279000 0.476988
v 0.537434 0.279000 0.488996
v 0.537434 0.356000 0.488996
v 0.538382 0.356000 0.476988
vt 0.150000 0.000000
vt 0.200000 0.000000
vt 0.200000 1.000000
vt 0.150000 1.000000
f 1351/1351 1352/1352 1353/1353 1354/1354
v 0.500000 0.279000 0.480000
v 0.537434 0.279000 0.488996
v 0.538382 0.279000 0.476988
vt 0.000000 0.000000
vt 1.000000 0.000000
vt 1.000000 1.000000
f 1355/1355 1356/1356 1357/1357
v 0.500000 0.356000 0.480000
v 0.538382 0.356000 0.476988
v 0.537434 0.356000 0.488996
vt 0.000000 0.000000
vt 1.000000 0.000000
vt 1.000000 1.000000
f 1358/1358 1359/1359 1360/1360
v 0.537434 0.279000 0.488996
v 0.532822 0.279000 0.500123
v 0.532822 0.356000 0.500123
v 0.537434 0.356000 0.488996
vt 0.200000 0.000000
vt 0.250000 0.000000
vt 0.250000 1.000000
vt 0.200000 1.000000
f 1361/1361 1362/1362 1363/1363 1364/1364
v 0.500000 0.279000 0.480000
v 0.532822 0.279000 0.500123
v 0.537434 0.279000 0.488996
vt 0.000000 0.000000
vt 1.000000 0.000000
vt 1.000000 1.000000
f 1365/1365 1366/1366 1367/1367
v 0.500000 0.356000 0.480000
v 0.537434 0.356000 0.488996
v 0.532822 0.356000 0.500123
vt 0.000000 0.000000
vt 1.000000 0.000000
vt 1.000000 1.000000
f 1368/1368 1369/1369 1370/1370
v 0.532822 0.279000 0.500123
v 0.524997 0.279000 0.509281
v 0.524997 0.356000 0.509281
v 0.532822 0.356000 0.500123
vt 0.250000 0.000000
vt 0.300000 0.000000
vt 0.300000 1.000000
vt 0.250000 1.000000
f 1371/1371 1372/1372 1373/1373 1374/1374
v 0.500000 0.279000 0.480000
v 0.524997 0.279000 0.509281
v 0.532822 0.279000 0.500123
vt 0.000000 0.000000
vt 1.000000 0.000000
vt 1.000000 1.000000
f 1375/1375 1376/1376 1377/1377
v 0.500000 0.356000 0.480000
v 0.532822 0.356000 0.500123
v 0.524997 0.356000 0.509281
vt 0.000000 0.000000
vt 1.000000 0.000000
vt 1.000000 1.000000
f 1378/1378 1379/1379 1380/1380
v 0.524997 0.279000 0.509281
v 0.514725 0.279000 0.515573
v 0.514725 0.356000 0.515573
v 0.524997 0.356000 0.509281
vt 0.300000 0.000000
vt 0.350000 0.000000
vt 0.350000 1.000000
vt 0.300000 1.000000
f 1381/1381 1382/1382 1383/1383 1384/1384
v 0.500000 0.279000 0.480000
v 0.514725 0.279000 0.515573
v 0.524997 0.279000 0.509281
vt 0.000000 0.000000
vt 1.000000 0.000000
vt 1.000000 1.000000
f 1385/1385 1386/1386 1387/1387
v 0.500000 0.356000 0.480000
v 0.524997 0.356000 0.509281
v 0.514725 0.356000 0.515573
vt 0.000000 0.000000
vt 1.000000 0.000000
vt 1.000000 1.000000
f 1388/1388 1389/1389 1390/1390
v 0.514725 0.279000 0.515573
v 0.503012 0.279000 0.518382
v 0.503012 0.356000 0.518382
v 0.514725 0.356000 0.515573
vt 0.350000 0.000000
vt 0.400000 0.000000
vt 0.400000 1.000000
vt 0.350000 1.000000
f 1391/1391 1392/1392 1393/1393 1394/1394
v 0.500000 0.279000 0.480000
v 0.503012 0.279000 0.518382
v 0.514725 0.279000 0.515573
vt 0.000000 0.000000
vt 1.000000 0.000000
vt 1.000000 1.000000
f 1395/1395 1396/1396 1397/1397
v 0.500000 0.356000 0.480000
v 0.514725 0.356000 0.515573
v 0.503012 0.356000 0.518382
vt 0.000000 0.000000
vt 1.000000 0.000000
vt 1.000000 1.000000
f 1398/1398 1399/1399 1400/1400
v 0.503012 0.279000 0.518382
v 0.491004 0.279000 0.517434
v 0.491004 0.356000 0.517434
v 0.503012 0.356000 0.518382
vt 0.400000 0.000000
vt 0.450000 0.000000
vt 0.450000 1.000000
vt 0.400000 1.000000
f 1401/1401 1402/1402 1403/1403 1404/1404
v 0.500000 0.279000 0.480000
v 0.491004 0.279000 0.517434
v 0.503012 0.279000 0.518382
vt 0.000000 0.000000
vt 1.000000 0.000000
vt 1.000000 1.000000
f 1405/1405 1406/1406 1407/1407
v 0.500000 0.356000 0.480000
v 0.503012 0.356000 0.518382
v 0.491004 0.356000 0.517434
vt 0.000000 0.000000
vt 1.000000 0.000000
vt 1.000000 1.000000
f 1408/1408 1409/1409 1410/1410
v 0.491004 0.279000 0.517434
v 0.479877 0.279000 0.512822
v 0.479877 0.356000 0.512822
v 0.491004 0.356000 0.517434
vt 0.450000 0.000000
vt 0.500000 0.000000
vt 0.500000 1.000000
vt 0.450000 1.000000
f 1411/1411 1412/1412 1413/1413 1414/1414
v 0.500000 0.279000 0.480000
v 0.479877 0.279000 0.512822
v 0.491004 0.279000 0.517434
vt 0.000000 0.000000
vt 1.000000 0.000000
vt 1.000000 1.000000
f 1415/1415 1416/1416 1417/1417
v 0.500000 0.356000 0.480000
v 0.491004 0.356000 0.517434
v 0.479877 0.356000 0.512822
vt 0.000000 0.000000
vt 1.000000 0.000000
vt 1.000000 1.000000
f 1418/1418 1419/1419 1420/1420
v 0.479877 0.279000 0.512822
v 0.470719 0.279000 0.504997
v 0.470719 0.356000 0.504997
v 0.479877 0.356000 0.512822
vt 0.500000 0.000000
vt 0.550000 0.000000
vt 0.550000 1.000000
vt 0.500000 1.000000
f 1421/1421 1422/1422 1423/1423 1424/1424
v 0.500000 0.279000 0.480000
v 0.470719 0.279000 0.504997
v 0.479877 0.279000 0.512822
vt 0.000000 0.000000
vt 1.000000 0.000000
vt 1.000000 1.000000
f 1425/1425 1426/1426 1427/1427
v 0.500000 0.356000 0.480000
v 0.479877 0.356000 0.512822
v 0.470719 0.356000 0.504997
vt 0.000000 0.000000
vt 1.000000 0.000000
vt 1.000000 1.000000
f 1428/1428 1429/1429 1430/1430
v 0.470719 0.279000 0.504997
v 0.464427 0.279000 0.494725
v 0.464427 0.356000 0.494725
v 0.470719 0.356000 0.504997
vt 0.550000 0.000000
vt 0.600000 0.000000
vt 0.600000 1.000000
vt 0.550000 1.000000
f 1431/1431 1432/1432 1433/1433 1434/1434
v 0.500000 0.279000 0.480000
v 0.464427 0.279000 0.494725
v 0.470719 0.279000 0.504997
vt 0.000000 0.000000
vt 1.000000 0.000000
vt 1.000000 1.000000
f 1435/1435 1436/1436 1437/1437
v 0.500000 0.356000 0.480000
v 0.470719 0.356000 0.504997
v 0.464427 0.356000 0.494725
vt 0.000000 0.000000
vt 1.000000 0.000000
vt 1.000000 1.000000
f 1438/1438 1439/1439 1440/1440
v 0.464427 0.279000 0.494725
v 0.461618 0.279000 0.483012
v 0.461618 0.356000 0.483012
v 0.464427 0.356000 0.494725
vt 0.600000 0.000000
vt 0.650000 0.000000
vt 0.650000 1.000000
vt 0.600000 1.000000
f 1441/1441 1442/1442 1443/1443 1444/1444
v 0.500000 0.279000 0.480000
v 0.461618 0.279000 0.483012
v 0.464427 0.279000 0.494725
vt 0.000000 0.000000
vt 1.000000 0.000000
vt 1.000000 1.000000
f 1445/1445 1446/1446 1447/1447
v 0.500000 0.356000 0.480000
v 0.464427 0.356000 0.494725
v 0.461618 0.356000 0.483012
vt 0.000000 0.000000
vt 1.000000 0.000000
vt 1.000000 1.000000
f 1448/1448 1449/1449 1450/1450
v 0.461618 0.279000 0.483012
v 0.462566 0.279000 0.471004
v 0.462566 0.356000 0.471004
v 0.461618 0.356000 0.483012
vt 0.650000 0.000000
vt 0.700000 0.000000
vt 0.700000 1.000000
vt 0.650000 1.000000
f 1451/1451 1452/1452 1453/1453 1454/1454
v 0.500000 0.279000 0.480000
v 0.462566 0.279000 0.471004
v 0.461618 0.279000 0.483012
vt 0.000000 0.000000
vt 1.000000 0.000000
vt 1.000000 1.000000
f 1455/1455 1456/1456 1457/1457
v 0.500000 0.356000 0.480000
v 0.461618 0.356000 0.483012
v 0.462566 0.356000 0.471004
vt 0.000000 0.000000
vt 1.000000 0.000000
vt 1.000000 1.000000
f 1458/1458 1459/1459 1460/1460
v 0.462566 0.279000 0.471004
v 0.467178 0.279000 0.459877
v 0.467178 0.356000 0.459877
v 0.462566 0.356000 0.471004
vt 0.700000 0.000000
vt 0.750000 0.000000
vt 0.750000 1.000000
vt 0.700000 1.000000
f 1461/1461 1462/1462 1463/1463 1464/1464
v 0.500000 0.279000 0.480000
v 0.467178 0.279000 0.459877
v 0.462566 0.279000 0.471004
vt 0.000000 0.000000
vt 1.000000 0.000000
vt 1.000000 1.000000
f 1465/1465 1466/1466 1467/1467
v 0.500000 0.356000 0.480000
v 0.462566 0.356000 0.471004
v 0.467178 0.356000 0.459877
vt 0.000000 0.000000
vt 1.000000 0.000000
vt 1.000000 1.000000
f 1468/1468 1469/1469 1470/1470
v 0.467178 0.279000 0.459877
v 0.475003 0.279000 0.450719
v 0.475003 0.356000 0.450719
v 0.467178 0.356000 0.459877
vt 0.750000 0.000000
vt 0.800000 0.000000
vt 0.800000 1.000000
vt 0.750000 1.000000
f 1471/1471 1472/1472 1473/1473 1474/1474
v 0.500000 0.279000 0.480000
v 0.475003 0.279000 0.450719
v 0.467178 0.279000 0.459877
vt 0.000000 0.000000
vt 1.000000 0.000000
vt 1.000000 1.000000
f 1475/1475 1476/1476 1477/1477
v 0.500000 0.356000 0.480000
v 0.467178 0.356000 0.459877
v 0.475003 0.356000 0.450719
vt 0.000000 0.000000
vt 1.000000 0.000000
vt 1.000000 1.000000
f 1478/1478 1479/1479 1480/1480
v 0.475003 0.279000 0.450719
v 0.485275 0.279000 0.444427
v 0.485275 0.356000 0.444427
v 0.475003 0.356000 0.450719
vt 0.800000 0.000000
vt 0.850000 0.000000
vt 0.850000 1.000000
vt 0.800000 1.000000
f 1481/1481 1482/1482 1483/1483 1484/1484
v 0.500000 0.279000 0.480000
v 0.485275 0.279000 0.444427
v 0.475003 0.279000 0.450719
vt 0.000000 0.000000
vt 1.000000 0.000000
vt 1.000000 1.000000
f 1485/1485 1486/1486 1487/1487
v 0.500000 0.356000 0.480000
v 0.475003 0.356000 0.450719
v 0.485275 0.356000 0.444427
vt 0.000000 0.000000
vt 1.000000 0.000000
vt 1.000000 1.000000
f 1488/1488 1489/1489 1490/1490
v 0.485275 0.279000 0.444427
v 0.496988 0.279000 0.441618
v 0.496988 0.356000 0.441618
v 0.485275 0.356000 0.444427
vt 0.850000 0.000000
vt 0.900000 0.000000
vt 0.900000 1.000000
vt 0.850000 1.000000
f 1491/1491 1492/1492 1493/1493 1494/1494
v 0.500000 0.279000 0.480000
v 0.496988 0.279000 0.441618
v 0.485275 0.279000 0.444427
vt 0.000000 0.000000
vt 1.000000 0.000000
vt 1.000000 1.000000
f 1495/1495 1496/1496 1497/1497
v 0.500000 0.356000 0.480000
v 0.485275 0.356000 0.444427
v 0.496988 0.356000 0.441618
vt 0.000000 0.000000
vt 1.000000 0.000000
vt 1.000000 1.000000
f 1498/1498 1499/1499 1500/1500
v 0.496988 0.279000 0.441618
v 0.508996 0.279000 0.442566
v 0.508996 0.356000 0.442566
v 0.496988 0.356000 0.441618
vt 0.900000 0.000000
vt 0.950000 0.000000
vt 0.950000 1.000000
vt 0.900000 1.000000
f 1501/1501 1502/1502 1503/1503 1504/1504
v 0.500000 0.279000 0.480000
v 0.508996 0.279000 0.442566
v 0.496988 0.279000 0.441618
vt 0.000000 0.000000
vt 1.000000 0.000000
vt 1.000000 1.000000
f 1505/1505 1506/1506 1507/1507
v 0.500000 0.356000 0.480000
v 0.496988 0.356000 0.441618
v 0.508996 0.356000 0.442566
vt 0.000000 0.000000
vt 1.000000 0.000000
vt 1.000000 1.000000
f 1508/1508 1509/1509 1510/1510
v 0.508996 0.279000 0.442566
v 0.520123 0.279000 0.447178
v 0.520123 0.356000 0.447178
v 0.508996 0.356000 0.442566
vt 0.950000 0.000000
vt 1.000000 0.000000
vt 1.000000 1.000000
vt 0.950000 1.000000
f 1511/1511 1512/1512 1513/1513 1514/1514
v 0.500000 0.279000 0.480000
v 0.520123 0.279000 0.447178
v 0.508996 0.279000 0.442566
vt 0.000000 0.000000
vt 1.000000 0.000000
vt 1.000000 1.000000
f 1515/1515 1516/1516 1517/1517
v 0.500000 0.356000 0.480000
v 0.508996 0.356000 0.442566
v 0.520123 0.356000 0.447178
vt 0.000000 0.000000
vt 1.000000 0.000000
vt 1.000000 1.000000
f 1518/1518 1519/1519 1520/1520
