mtllib icbm_silo.mtl
o icbm_silo
s 1
usemtl dark
v 0.040000 0.000000 0.040000
v 0.960000 0.000000 0.040000
v 0.960000 0.180000 0.040000
v 0.040000 0.180000 0.040000
vt 0.000000 0.000000
vt 1.000000 0.000000
vt 1.000000 1.000000
vt 0.000000 1.000000
f 1/1 2/2 3/3 4/4
v 0.960000 0.000000 0.960000
v 0.040000 0.000000 0.960000
v 0.040000 0.180000 0.960000
v 0.960000 0.180000 0.960000
vt 0.000000 0.000000
vt 1.000000 0.000000
vt 1.000000 1.000000
vt 0.000000 1.000000
f 5/5 6/6 7/7 8/8
v 0.040000 0.000000 0.960000
v 0.040000 0.000000 0.040000
v 0.040000 0.180000 0.040000
v 0.040000 0.180000 0.960000
vt 0.000000 0.000000
vt 1.000000 0.000000
vt 1.000000 1.000000
vt 0.000000 1.000000
f 9/9 10/10 11/11 12/12
v 0.960000 0.000000 0.040000
v 0.960000 0.000000 0.960000
v 0.960000 0.180000 0.960000
v 0.960000 0.180000 0.040000
vt 0.000000 0.000000
vt 1.000000 0.000000
vt 1.000000 1.000000
vt 0.000000 1.000000
f 13/13 14/14 15/15 16/16
v 0.040000 0.180000 0.040000
v 0.960000 0.180000 0.040000
v 0.960000 0.180000 0.960000
v 0.040000 0.180000 0.960000
vt 0.000000 0.000000
vt 1.000000 0.000000
vt 1.000000 1.000000
vt 0.000000 1.000000
f 17/17 18/18 19/19 20/20
v 0.040000 0.000000 0.960000
v 0.960000 0.000000 0.960000
v 0.960000 0.000000 0.040000
v 0.040000 0.000000 0.040000
vt 0.000000 0.000000
vt 1.000000 0.000000
vt 1.000000 1.000000
vt 0.000000 1.000000
f 21/21 22/22 23/23 24/24
usemtl body
v 0.500000 0.100000 0.120000
v 0.559445 0.100000 0.124678
v 0.559445 0.550000 0.124678
v 0.500000 0.550000 0.120000
vt 0.000000 0.000000
vt 1.000000 0.000000
vt 1.000000 1.000000
vt 0.000000 1.000000
f 25/25 26/26 27/27 28/28
v 0.500000 0.100000 0.500000
v 0.559445 0.100000 0.124678
v 0.500000 0.100000 0.120000
vt 0.000000 0.000000
vt 1.000000 0.000000
vt 1.000000 1.000000
f 29/29 30/30 31/31
v 0.500000 0.550000 0.500000
v 0.500000 0.550000 0.120000
v 0.559445 0.550000 0.124678
vt 0.000000 0.000000
vt 1.000000 0.000000
vt 1.000000 1.000000
f 32/32 33/33 34/34
v 0.559445 0.100000 0.124678
v 0.617426 0.100000 0.138599
v 0.617426 0.550000 0.138599
v 0.559445 0.550000 0.124678
vt 0.000000 0.000000
vt 1.000000 0.000000
vt 1.000000 1.000000
vt 0.000000 1.000000
f 35/35 36/36 37/37 38/38
v 0.500000 0.100000 0.500000
v 0.617426 0.100000 0.138599
v 0.559445 0.100000 0.124678
vt 0.000000 0.000000
vt 1.000000 0.000000
vt 1.000000 1.000000
f 39/39 40/40 41/41
v 0.500000 0.550000 0.500000
v 0.559445 0.550000 0.124678
v 0.617426 0.550000 0.138599
vt 0.000000 0.000000
vt 1.000000 0.000000
vt 1.000000 1.000000
f 42/42 43/43 44/44
v 0.617426 0.100000 0.138599
v 0.672516 0.100000 0.161418
v 0.672516 0.550000 0.161418
v 0.617426 0.550000 0.138599
vt 0.000000 0.000000
vt 1.000000 0.000000
vt 1.000000 1.000000
vt 0.000000 1.000000
f 45/45 46/46 47/47 48/48
v 0.500000 0.100000 0.500000
v 0.672516 0.100000 0.161418
v 0.617426 0.100000 0.138599
vt 0.000000 0.000000
vt 1.000000 0.000000
vt 1.000000 1.000000
f 49/49 50/50 51/51
v 0.500000 0.550000 0.500000
v 0.617426 0.550000 0.138599
v 0.672516 0.550000 0.161418
vt 0.000000 0.000000
vt 1.000000 0.000000
vt 1.000000 1.000000
f 52/52 53/53 54/54
v 0.672516 0.100000 0.161418
v 0.723358 0.100000 0.192574
v 0.723358 0.550000 0.192574
v 0.672516 0.550000 0.161418
vt 0.000000 0.000000
vt 1.000000 0.000000
vt 1.000000 1.000000
vt 0.000000 1.000000
f 55/55 56/56 57/57 58/58
v 0.500000 0.100000 0.500000
v 0.723358 0.100000 0.192574
v 0.672516 0.100000 0.161418
vt 0.000000 0.000000
vt 1.000000 0.000000
vt 1.000000 1.000000
f 59/59 60/60 61/61
v 0.500000 0.550000 0.500000
v 0.672516 0.550000 0.161418
v 0.723358 0.550000 0.192574
vt 0.000000 0.000000
vt 1.000000 0.000000
vt 1.000000 1.000000
f 62/62 63/63 64/64
v 0.723358 0.100000 0.192574
v 0.768701 0.100000 0.231299
v 0.768701 0.550000 0.231299
v 0.723358 0.550000 0.192574
vt 0.000000 0.000000
vt 1.000000 0.000000
vt 1.000000 1.000000
vt 0.000000 1.000000
f 65/65 66/66 67/67 68/68
v 0.500000 0.100000 0.500000
v 0.768701 0.100000 0.231299
v 0.723358 0.100000 0.192574
vt 0.000000 0.000000
vt 1.000000 0.000000
vt 1.000000 1.000000
f 69/69 70/70 71/71
v 0.500000 0.550000 0.500000
v 0.723358 0.550000 0.192574
v 0.768701 0.550000 0.231299
vt 0.000000 0.000000
vt 1.000000 0.000000
vt 1.000000 1.000000
f 72/72 73/73 74/74
v 0.768701 0.100000 0.231299
v 0.807426 0.100000 0.276642
v 0.807426 0.550000 0.276642
v 0.768701 0.550000 0.231299
vt 0.000000 0.000000
vt 1.000000 0.000000
vt 1.000000 1.000000
vt 0.000000 1.000000
f 75/75 76/76 77/77 78/78
v 0.500000 0.100000 0.500000
v 0.807426 0.100000 0.276642
v 0.768701 0.100000 0.231299
vt 0.000000 0.000000
vt 1.000000 0.000000
vt 1.000000 1.000000
f 79/79 80/80 81/81
v 0.500000 0.550000 0.500000
v 0.768701 0.550000 0.231299
v 0.807426 0.550000 0.276642
vt 0.000000 0.000000
vt 1.000000 0.000000
vt 1.000000 1.000000
f 82/82 83/83 84/84
v 0.807426 0.100000 0.276642
v 0.838582 0.100000 0.327484
v 0.838582 0.550000 0.327484
v 0.807426 0.550000 0.276642
vt 0.000000 0.000000
vt 1.000000 0.000000
vt 1.000000 1.000000
vt 0.000000 1.000000
f 85/85 86/86 87/87 88/88
v 0.500000 0.100000 0.500000
v 0.838582 0.100000 0.327484
v 0.807426 0.100000 0.276642
vt 0.000000 0.000000
vt 1.000000 0.000000
vt 1.000000 1.000000
f 89/89 90/90 91/91
v 0.500000 0.550000 0.500000
v 0.807426 0.550000 0.276642
v 0.838582 0.550000 0.327484
vt 0.000000 0.000000
vt 1.000000 0.000000
vt 1.000000 1.000000
f 92/92 93/93 94/94
v 0.838582 0.100000 0.327484
v 0.861401 0.100000 0.382574
v 0.861401 0.550000 0.382574
v 0.838582 0.550000 0.327484
vt 0.000000 0.000000
vt 1.000000 0.000000
vt 1.000000 1.000000
vt 0.000000 1.000000
f 95/95 96/96 97/97 98/98
v 0.500000 0.100000 0.500000
v 0.861401 0.100000 0.382574
v 0.838582 0.100000 0.327484
vt 0.000000 0.000000
vt 1.000000 0.000000
vt 1.000000 1.000000
f 99/99 100/100 101/101
v 0.500000 0.550000 0.500000
v 0.838582 0.550000 0.327484
v 0.861401 0.550000 0.382574
vt 0.000000 0.000000
vt 1.000000 0.000000
vt 1.000000 1.000000
f 102/102 103/103 104/104
v 0.861401 0.100000 0.382574
v 0.875322 0.100000 0.440555
v 0.875322 0.550000 0.440555
v 0.861401 0.550000 0.382574
vt 0.000000 0.000000
vt 1.000000 0.000000
vt 1.000000 1.000000
vt 0.000000 1.000000
f 105/105 106/106 107/107 108/108
v 0.500000 0.100000 0.500000
v 0.875322 0.100000 0.440555
v 0.861401 0.100000 0.382574
vt 0.000000 0.000000
vt 1.000000 0.000000
vt 1.000000 1.000000
f 109/109 110/110 111/111
v 0.500000 0.550000 0.500000
v 0.861401 0.550000 0.382574
v 0.875322 0.550000 0.440555
vt 0.000000 0.000000
vt 1.000000 0.000000
vt 1.000000 1.000000
f 112/112 113/113 114/114
v 0.875322 0.100000 0.440555
v 0.880000 0.100000 0.500000
v 0.880000 0.550000 0.500000
v 0.875322 0.550000 0.440555
vt 0.000000 0.000000
vt 1.000000 0.000000
vt 1.000000 1.000000
vt 0.000000 1.000000
f 115/115 116/116 117/117 118/118
v 0.500000 0.100000 0.500000
v 0.880000 0.100000 0.500000
v 0.875322 0.100000 0.440555
vt 0.000000 0.000000
vt 1.000000 0.000000
vt 1.000000 1.000000
f 119/119 120/120 121/121
v 0.500000 0.550000 0.500000
v 0.875322 0.550000 0.440555
v 0.880000 0.550000 0.500000
vt 0.000000 0.000000
vt 1.000000 0.000000
vt 1.000000 1.000000
f 122/122 123/123 124/124
v 0.880000 0.100000 0.500000
v 0.875322 0.100000 0.559445
v 0.875322 0.550000 0.559445
v 0.880000 0.550000 0.500000
vt 0.000000 0.000000
vt 1.000000 0.000000
vt 1.000000 1.000000
vt 0.000000 1.000000
f 125/125 126/126 127/127 128/128
v 0.500000 0.100000 0.500000
v 0.875322 0.100000 0.559445
v 0.880000 0.100000 0.500000
vt 0.000000 0.000000
vt 1.000000 0.000000
vt 1.000000 1.000000
f 129/129 130/130 131/131
v 0.500000 0.550000 0.500000
v 0.880000 0.550000 0.500000
v 0.875322 0.550000 0.559445
vt 0.000000 0.000000
vt 1.000000 0.000000
vt 1.000000 1.000000
f 132/132 133/133 134/134
v 0.875322 0.100000 0.559445
v 0.861401 0.100000 0.617426
v 0.861401 0.550000 0.617426
v 0.875322 0.550000 0.559445
vt 0.000000 0.000000
vt 1.000000 0.000000
vt 1.000000 1.000000
vt 0.000000 1.000000
f 135/135 136/136 137/137 138/138
v 0.500000 0.100000 0.500000
v 0.861401 0.100000 0.617426
v 0.875322 0.100000 0.559445
vt 0.000000 0.000000
vt 1.000000 0.000000
vt 1.000000 1.000000
f 139/139 140/140 141/141
v 0.500000 0.550000 0.500000
v 0.875322 0.550000 0.559445
v 0.861401 0.550000 0.617426
vt 0.000000 0.000000
vt 1.000000 0.000000
vt 1.000000 1.000000
f 142/142 143/143 144/144
v 0.861401 0.100000 0.617426
v 0.838582 0.100000 0.672516
v 0.838582 0.550000 0.672516
v 0.861401 0.550000 0.617426
vt 0.000000 0.000000
vt 1.000000 0.000000
vt 1.000000 1.000000
vt 0.000000 1.000000
f 145/145 146/146 147/147 148/148
v 0.500000 0.100000 0.500000
v 0.838582 0.100000 0.672516
v 0.861401 0.100000 0.617426
vt 0.000000 0.000000
vt 1.000000 0.000000
vt 1.000000 1.000000
f 149/149 150/150 151/151
v 0.500000 0.550000 0.500000
v 0.861401 0.550000 0.617426
v 0.838582 0.550000 0.672516
vt 0.000000 0.000000
vt 1.000000 0.000000
vt 1.000000 1.000000
f 152/152 153/153 154/154
v 0.838582 0.100000 0.672516
v 0.807426 0.100000 0.723358
v 0.807426 0.550000 0.723358
v 0.838582 0.550000 0.672516
vt 0.000000 0.000000
vt 1.000000 0.000000
vt 1.000000 1.000000
vt 0.000000 1.000000
f 155/155 156/156 157/157 158/158
v 0.500000 0.100000 0.500000
v 0.807426 0.100000 0.723358
v 0.838582 0.100000 0.672516
vt 0.000000 0.000000
vt 1.000000 0.000000
vt 1.000000 1.000000
f 159/159 160/160 161/161
v 0.500000 0.550000 0.500000
v 0.838582 0.550000 0.672516
v 0.807426 0.550000 0.723358
vt 0.000000 0.000000
vt 1.000000 0.000000
vt 1.000000 1.000000
f 162/162 163/163 164/164
v 0.807426 0.100000 0.723358
v 0.768701 0.100000 0.768701
v 0.768701 0.550000 0.768701
v 0.807426 0.550000 0.723358
vt 0.000000 0.000000
vt 1.000000 0.000000
vt 1.000000 1.000000
vt 0.000000 1.000000
f 165/165 166/166 167/167 168/168
v 0.500000 0.100000 0.500000
v 0.768701 0.100000 0.768701
v 0.807426 0.100000 0.723358
vt 0.000000 0.000000
vt 1.000000 0.000000
vt 1.000000 1.000000
f 169/169 170/170 171/171
v 0.500000 0.550000 0.500000
v 0.807426 0.550000 0.723358
v 0.768701 0.550000 0.768701
vt 0.000000 0.000000
vt 1.000000 0.000000
vt 1.000000 1.000000
f 172/172 173/173 174/174
v 0.768701 0.100000 0.768701
v 0.723358 0.100000 0.807426
v 0.723358 0.550000 0.807426
v 0.768701 0.550000 0.768701
vt 0.000000 0.000000
vt 1.000000 0.000000
vt 1.000000 1.000000
vt 0.000000 1.000000
f 175/175 176/176 177/177 178/178
v 0.500000 0.100000 0.500000
v 0.723358 0.100000 0.807426
v 0.768701 0.100000 0.768701
vt 0.000000 0.000000
vt 1.000000 0.000000
vt 1.000000 1.000000
f 179/179 180/180 181/181
v 0.500000 0.550000 0.500000
v 0.768701 0.550000 0.768701
v 0.723358 0.550000 0.807426
vt 0.000000 0.000000
vt 1.000000 0.000000
vt 1.000000 1.000000
f 182/182 183/183 184/184
v 0.723358 0.100000 0.807426
v 0.672516 0.100000 0.838582
v 0.672516 0.550000 0.838582
v 0.723358 0.550000 0.807426
vt 0.000000 0.000000
vt 1.000000 0.000000
vt 1.000000 1.000000
vt 0.000000 1.000000
f 185/185 186/186 187/187 188/188
v 0.500000 0.100000 0.500000
v 0.672516 0.100000 0.838582
v 0.723358 0.100000 0.807426
vt 0.000000 0.000000
vt 1.000000 0.000000
vt 1.000000 1.000000
f 189/189 190/190 191/191
v 0.500000 0.550000 0.500000
v 0.723358 0.550000 0.807426
v 0.672516 0.550000 0.838582
vt 0.000000 0.000000
vt 1.000000 0.000000
vt 1.000000 1.000000
f 192/192 193/193 194/194
v 0.672516 0.100000 0.838582
v 0.617426 0.100000 0.861401
v 0.617426 0.550000 0.861401
v 0.672516 0.550000 0.838582
vt 0.000000 0.000000
vt 1.000000 0.000000
vt 1.000000 1.000000
vt 0.000000 1.000000
f 195/195 196/196 197/197 198/198
v 0.500000 0.100000 0.500000
v 0.617426 0.100000 0.861401
v 0.672516 0.100000 0.838582
vt 0.000000 0.000000
vt 1.000000 0.000000
vt 1.000000 1.000000
f 199/199 200/200 201/201
v 0.500000 0.550000 0.500000
v 0.672516 0.550000 0.838582
v 0.617426 0.550000 0.861401
vt 0.000000 0.000000
vt 1.000000 0.000000
vt 1.000000 1.000000
f 202/202 203/203 204/204
v 0.617426 0.100000 0.861401
v 0.559445 0.100000 0.875322
v 0.559445 0.550000 0.875322
v 0.617426 0.550000 0.861401
vt 0.000000 0.000000
vt 1.000000 0.000000
vt 1.000000 1.000000
vt 0.000000 1.000000
f 205/205 206/206 207/207 208/208
v 0.500000 0.100000 0.500000
v 0.559445 0.100000 0.875322
v 0.617426 0.100000 0.861401
vt 0.000000 0.000000
vt 1.000000 0.000000
vt 1.000000 1.000000
f 209/209 210/210 211/211
v 0.500000 0.550000 0.500000
v 0.617426 0.550000 0.861401
v 0.559445 0.550000 0.875322
vt 0.000000 0.000000
vt 1.000000 0.000000
vt 1.000000 1.000000
f 212/212 213/213 214/214
v 0.559445 0.100000 0.875322
v 0.500000 0.100000 0.880000
v 0.500000 0.550000 0.880000
v 0.559445 0.550000 0.875322
vt 0.000000 0.000000
vt 1.000000 0.000000
vt 1.000000 1.000000
vt 0.000000 1.000000
f 215/215 216/216 217/217 218/218
v 0.500000 0.100000 0.500000
v 0.500000 0.100000 0.880000
v 0.559445 0.100000 0.875322
vt 0.000000 0.000000
vt 1.000000 0.000000
vt 1.000000 1.000000
f 219/219 220/220 221/221
v 0.500000 0.550000 0.500000
v 0.559445 0.550000 0.875322
v 0.500000 0.550000 0.880000
vt 0.000000 0.000000
vt 1.000000 0.000000
vt 1.000000 1.000000
f 222/222 223/223 224/224
v 0.500000 0.100000 0.880000
v 0.440555 0.100000 0.875322
v 0.440555 0.550000 0.875322
v 0.500000 0.550000 0.880000
vt 0.000000 0.000000
vt 1.000000 0.000000
vt 1.000000 1.000000
vt 0.000000 1.000000
f 225/225 226/226 227/227 228/228
v 0.500000 0.100000 0.500000
v 0.440555 0.100000 0.875322
v 0.500000 0.100000 0.880000
vt 0.000000 0.000000
vt 1.000000 0.000000
vt 1.000000 1.000000
f 229/229 230/230 231/231
v 0.500000 0.550000 0.500000
v 0.500000 0.550000 0.880000
v 0.440555 0.550000 0.875322
vt 0.000000 0.000000
vt 1.000000 0.000000
vt 1.000000 1.000000
f 232/232 233/233 234/234
v 0.440555 0.100000 0.875322
v 0.382574 0.100000 0.861401
v 0.382574 0.550000 0.861401
v 0.440555 0.550000 0.875322
vt 0.000000 0.000000
vt 1.000000 0.000000
vt 1.000000 1.000000
vt 0.000000 1.000000
f 235/235 236/236 237/237 238/238
v 0.500000 0.100000 0.500000
v 0.382574 0.100000 0.861401
v 0.440555 0.100000 0.875322
vt 0.000000 0.000000
vt 1.000000 0.000000
vt 1.000000 1.000000
f 239/239 240/240 241/241
v 0.500000 0.550000 0.500000
v 0.440555 0.550000 0.875322
v 0.382574 0.550000 0.861401
vt 0.000000 0.000000
vt 1.000000 0.000000
vt 1.000000 1.000000
f 242/242 243/243 244/244
v 0.382574 0.100000 0.861401
v 0.327484 0.100000 0.838582
v 0.327484 0.550000 0.838582
v 0.382574 0.550000 0.861401
vt 0.000000 0.000000
vt 1.000000 0.000000
vt 1.000000 1.000000
vt 0.000000 1.000000
f 245/245 246/246 247/247 248/248
v 0.500000 0.100000 0.500000
v 0.327484 0.100000 0.838582
v 0.382574 0.100000 0.861401
vt 0.000000 0.000000
vt 1.000000 0.000000
vt 1.000000 1.000000
f 249/249 250/250 251/251
v 0.500000 0.550000 0.500000
v 0.382574 0.550000 0.861401
v 0.327484 0.550000 0.838582
vt 0.000000 0.000000
vt 1.000000 0.000000
vt 1.000000 1.000000
f 252/252 253/253 254/254
v 0.327484 0.100000 0.838582
v 0.276642 0.100000 0.807426
v 0.276642 0.550000 0.807426
v 0.327484 0.550000 0.838582
vt 0.000000 0.000000
vt 1.000000 0.000000
vt 1.000000 1.000000
vt 0.000000 1.000000
f 255/255 256/256 257/257 258/258
v 0.500000 0.100000 0.500000
v 0.276642 0.100000 0.807426
v 0.327484 0.100000 0.838582
vt 0.000000 0.000000
vt 1.000000 0.000000
vt 1.000000 1.000000
f 259/259 260/260 261/261
v 0.500000 0.550000 0.500000
v 0.327484 0.550000 0.838582
v 0.276642 0.550000 0.807426
vt 0.000000 0.000000
vt 1.000000 0.000000
vt 1.000000 1.000000
f 262/262 263/263 264/264
v 0.276642 0.100000 0.807426
v 0.231299 0.100000 0.768701
v 0.231299 0.550000 0.768701
v 0.276642 0.550000 0.807426
vt 0.000000 0.000000
vt 1.000000 0.000000
vt 1.000000 1.000000
vt 0.000000 1.000000
f 265/265 266/266 267/267 268/268
v 0.500000 0.100000 0.500000
v 0.231299 0.100000 0.768701
v 0.276642 0.100000 0.807426
vt 0.000000 0.000000
vt 1.000000 0.000000
vt 1.000000 1.000000
f 269/269 270/270 271/271
v 0.500000 0.550000 0.500000
v 0.276642 0.550000 0.807426
v 0.231299 0.550000 0.768701
vt 0.000000 0.000000
vt 1.000000 0.000000
vt 1.000000 1.000000
f 272/272 273/273 274/274
v 0.231299 0.100000 0.768701
v 0.192574 0.100000 0.723358
v 0.192574 0.550000 0.723358
v 0.231299 0.550000 0.768701
vt 0.000000 0.000000
vt 1.000000 0.000000
vt 1.000000 1.000000
vt 0.000000 1.000000
f 275/275 276/276 277/277 278/278
v 0.500000 0.100000 0.500000
v 0.192574 0.100000 0.723358
v 0.231299 0.100000 0.768701
vt 0.000000 0.000000
vt 1.000000 0.000000
vt 1.000000 1.000000
f 279/279 280/280 281/281
v 0.500000 0.550000 0.500000
v 0.231299 0.550000 0.768701
v 0.192574 0.550000 0.723358
vt 0.000000 0.000000
vt 1.000000 0.000000
vt 1.000000 1.000000
f 282/282 283/283 284/284
v 0.192574 0.100000 0.723358
v 0.161418 0.100000 0.672516
v 0.161418 0.550000 0.672516
v 0.192574 0.550000 0.723358
vt 0.000000 0.000000
vt 1.000000 0.000000
vt 1.000000 1.000000
vt 0.000000 1.000000
f 285/285 286/286 287/287 288/288
v 0.500000 0.100000 0.500000
v 0.161418 0.100000 0.672516
v 0.192574 0.100000 0.723358
vt 0.000000 0.000000
vt 1.000000 0.000000
vt 1.000000 1.000000
f 289/289 290/290 291/291
v 0.500000 0.550000 0.500000
v 0.192574 0.550000 0.723358
v 0.161418 0.550000 0.672516
vt 0.000000 0.000000
vt 1.000000 0.000000
vt 1.000000 1.000000
f 292/292 293/293 294/294
v 0.161418 0.100000 0.672516
v 0.138599 0.100000 0.617426
v 0.138599 0.550000 0.617426
v 0.161418 0.550000 0.672516
vt 0.000000 0.000000
vt 1.000000 0.000000
vt 1.000000 1.000000
vt 0.000000 1.000000
f 295/295 296/296 297/297 298/298
v 0.500000 0.100000 0.500000
v 0.138599 0.100000 0.617426
v 0.161418 0.100000 0.672516
vt 0.000000 0.000000
vt 1.000000 0.000000
vt 1.000000 1.000000
f 299/299 300/300 301/301
v 0.500000 0.550000 0.500000
v 0.161418 0.550000 0.672516
v 0.138599 0.550000 0.617426
vt 0.000000 0.000000
vt 1.000000 0.000000
vt 1.000000 1.000000
f 302/302 303/303 304/304
v 0.138599 0.100000 0.617426
v 0.124678 0.100000 0.559445
v 0.124678 0.550000 0.559445
v 0.138599 0.550000 0.617426
vt 0.000000 0.000000
vt 1.000000 0.000000
vt 1.000000 1.000000
vt 0.000000 1.000000
f 305/305 306/306 307/307 308/308
v 0.500000 0.100000 0.500000
v 0.124678 0.100000 0.559445
v 0.138599 0.100000 0.617426
vt 0.000000 0.000000
vt 1.000000 0.000000
vt 1.000000 1.000000
f 309/309 310/310 311/311
v 0.500000 0.550000 0.500000
v 0.138599 0.550000 0.617426
v 0.124678 0.550000 0.559445
vt 0.000000 0.000000
vt 1.000000 0.000000
vt 1.000000 1.000000
f 312/312 313/313 314/314
v 0.124678 0.100000 0.559445
v 0.120000 0.100000 0.500000
v 0.120000 0.550000 0.500000
v 0.124678 0.550000 0.559445
vt 0.000000 0.000000
vt 1.000000 0.000000
vt 1.000000 1.000000
vt 0.000000 1.000000
f 315/315 316/316 317/317 318/318
v 0.500000 0.100000 0.500000
v 0.120000 0.100000 0.500000
v 0.124678 0.100000 0.559445
vt 0.000000 0.000000
vt 1.000000 0.000000
vt 1.000000 1.000000
f 319/319 320/320 321/321
v 0.500000 0.550000 0.500000
v 0.124678 0.550000 0.559445
v 0.120000 0.550000 0.500000
vt 0.000000 0.000000
vt 1.000000 0.000000
vt 1.000000 1.000000
f 322/322 323/323 324/324
v 0.120000 0.100000 0.500000
v 0.124678 0.100000 0.440555
v 0.124678 0.550000 0.440555
v 0.120000 0.550000 0.500000
vt 0.000000 0.000000
vt 1.000000 0.000000
vt 1.000000 1.000000
vt 0.000000 1.000000
f 325/325 326/326 327/327 328/328
v 0.500000 0.100000 0.500000
v 0.124678 0.100000 0.440555
v 0.120000 0.100000 0.500000
vt 0.000000 0.000000
vt 1.000000 0.000000
vt 1.000000 1.000000
f 329/329 330/330 331/331
v 0.500000 0.550000 0.500000
v 0.120000 0.550000 0.500000
v 0.124678 0.550000 0.440555
vt 0.000000 0.000000
vt 1.000000 0.000000
vt 1.000000 1.000000
f 332/332 333/333 334/334
v 0.124678 0.100000 0.440555
v 0.138599 0.100000 0.382574
v 0.138599 0.550000 0.382574
v 0.124678 0.550000 0.440555
vt 0.000000 0.000000
vt 1.000000 0.000000
vt 1.000000 1.000000
vt 0.000000 1.000000
f 335/335 336/336 337/337 338/338
v 0.500000 0.100000 0.500000
v 0.138599 0.100000 0.382574
v 0.124678 0.100000 0.440555
vt 0.000000 0.000000
vt 1.000000 0.000000
vt 1.000000 1.000000
f 339/339 340/340 341/341
v 0.500000 0.550000 0.500000
v 0.124678 0.550000 0.440555
v 0.138599 0.550000 0.382574
vt 0.000000 0.000000
vt 1.000000 0.000000
vt 1.000000 1.000000
f 342/342 343/343 344/344
v 0.138599 0.100000 0.382574
v 0.161418 0.100000 0.327484
v 0.161418 0.550000 0.327484
v 0.138599 0.550000 0.382574
vt 0.000000 0.000000
vt 1.000000 0.000000
vt 1.000000 1.000000
vt 0.000000 1.000000
f 345/345 346/346 347/347 348/348
v 0.500000 0.100000 0.500000
v 0.161418 0.100000 0.327484
v 0.138599 0.100000 0.382574
vt 0.000000 0.000000
vt 1.000000 0.000000
vt 1.000000 1.000000
f 349/349 350/350 351/351
v 0.500000 0.550000 0.500000
v 0.138599 0.550000 0.382574
v 0.161418 0.550000 0.327484
vt 0.000000 0.000000
vt 1.000000 0.000000
vt 1.000000 1.000000
f 352/352 353/353 354/354
v 0.161418 0.100000 0.327484
v 0.192574 0.100000 0.276642
v 0.192574 0.550000 0.276642
v 0.161418 0.550000 0.327484
vt 0.000000 0.000000
vt 1.000000 0.000000
vt 1.000000 1.000000
vt 0.000000 1.000000
f 355/355 356/356 357/357 358/358
v 0.500000 0.100000 0.500000
v 0.192574 0.100000 0.276642
v 0.161418 0.100000 0.327484
vt 0.000000 0.000000
vt 1.000000 0.000000
vt 1.000000 1.000000
f 359/359 360/360 361/361
v 0.500000 0.550000 0.500000
v 0.161418 0.550000 0.327484
v 0.192574 0.550000 0.276642
vt 0.000000 0.000000
vt 1.000000 0.000000
vt 1.000000 1.000000
f 362/362 363/363 364/364
v 0.192574 0.100000 0.276642
v 0.231299 0.100000 0.231299
v 0.231299 0.550000 0.231299
v 0.192574 0.550000 0.276642
vt 0.000000 0.000000
vt 1.000000 0.000000
vt 1.000000 1.000000
vt 0.000000 1.000000
f 365/365 366/366 367/367 368/368
v 0.500000 0.100000 0.500000
v 0.231299 0.100000 0.231299
v 0.192574 0.100000 0.276642
vt 0.000000 0.000000
vt 1.000000 0.000000
vt 1.000000 1.000000
f 369/369 370/370 371/371
v 0.500000 0.550000 0.500000
v 0.192574 0.550000 0.276642
v 0.231299 0.550000 0.231299
vt 0.000000 0.000000
vt 1.000000 0.000000
vt 1.000000 1.000000
f 372/372 373/373 374/374
v 0.231299 0.100000 0.231299
v 0.276642 0.100000 0.192574
v 0.276642 0.550000 0.192574
v 0.231299 0.550000 0.231299
vt 0.000000 0.000000
vt 1.000000 0.000000
vt 1.000000 1.000000
vt 0.000000 1.000000
f 375/375 376/376 377/377 378/378
v 0.500000 0.100000 0.500000
v 0.276642 0.100000 0.192574
v 0.231299 0.100000 0.231299
vt 0.000000 0.000000
vt 1.000000 0.000000
vt 1.000000 1.000000
f 379/379 380/380 381/381
v 0.500000 0.550000 0.500000
v 0.231299 0.550000 0.231299
v 0.276642 0.550000 0.192574
vt 0.000000 0.000000
vt 1.000000 0.000000
vt 1.000000 1.000000
f 382/382 383/383 384/384
v 0.276642 0.100000 0.192574
v 0.327484 0.100000 0.161418
v 0.327484 0.550000 0.161418
v 0.276642 0.550000 0.192574
vt 0.000000 0.000000
vt 1.000000 0.000000
vt 1.000000 1.000000
vt 0.000000 1.000000
f 385/385 386/386 387/387 388/388
v 0.500000 0.100000 0.500000
v 0.327484 0.100000 0.161418
v 0.276642 0.100000 0.192574
vt 0.000000 0.000000
vt 1.000000 0.000000
vt 1.000000 1.000000
f 389/389 390/390 391/391
v 0.500000 0.550000 0.500000
v 0.276642 0.550000 0.192574
v 0.327484 0.550000 0.161418
vt 0.000000 0.000000
vt 1.000000 0.000000
vt 1.000000 1.000000
f 392/392 393/393 394/394
v 0.327484 0.100000 0.161418
v 0.382574 0.100000 0.138599
v 0.382574 0.550000 0.138599
v 0.327484 0.550000 0.161418
vt 0.000000 0.000000
vt 1.000000 0.000000
vt 1.000000 1.000000
vt 0.000000 1.000000
f 395/395 396/396 397/397 398/398
v 0.500000 0.100000 0.500000
v 0.382574 0.100000 0.138599
v 0.327484 0.100000 0.161418
vt 0.000000 0.000000
vt 1.000000 0.000000
vt 1.000000 1.000000
f 399/399 400/400 401/401
v 0.500000 0.550000 0.500000
v 0.327484 0.550000 0.161418
v 0.382574 0.550000 0.138599
vt 0.000000 0.000000
vt 1.000000 0.000000
vt 1.000000 1.000000
f 402/402 403/403 404/404
v 0.382574 0.100000 0.138599
v 0.440555 0.100000 0.124678
v 0.440555 0.550000 0.124678
v 0.382574 0.550000 0.138599
vt 0.000000 0.000000
vt 1.000000 0.000000
vt 1.000000 1.000000
vt 0.000000 1.000000
f 405/405 406/406 407/407 408/408
v 0.500000 0.100000 0.500000
v 0.440555 0.100000 0.124678
v 0.382574 0.100000 0.138599
vt 0.000000 0.000000
vt 1.000000 0.000000
vt 1.000000 1.000000
f 409/409 410/410 411/411
v 0.500000 0.550000 0.500000
v 0.382574 0.550000 0.138599
v 0.440555 0.550000 0.124678
vt 0.000000 0.000000
vt 1.000000 0.000000
vt 1.000000 1.000000
f 412/412 413/413 414/414
v 0.440555 0.100000 0.124678
v 0.500000 0.100000 0.120000
v 0.500000 0.550000 0.120000
v 0.440555 0.550000 0.124678
vt 0.000000 0.000000
vt 1.000000 0.000000
vt 1.000000 1.000000
vt 0.000000 1.000000
f 415/415 416/416 417/417 418/418
v 0.500000 0.100000 0.500000
v 0.500000 0.100000 0.120000
v 0.440555 0.100000 0.124678
vt 0.000000 0.000000
vt 1.000000 0.000000
vt 1.000000 1.000000
f 419/419 420/420 421/421
v 0.500000 0.550000 0.500000
v 0.440555 0.550000 0.124678
v 0.500000 0.550000 0.120000
vt 0.000000 0.000000
vt 1.000000 0.000000
vt 1.000000 1.000000
f 422/422 423/423 424/424
v 0.500000 0.120000 0.390000
v 0.521460 0.120000 0.392114
v 0.521460 1.520000 0.392114
v 0.500000 1.520000 0.390000
vt 0.000000 0.000000
vt 1.000000 0.000000
vt 1.000000 1.000000
vt 0.000000 1.000000
f 425/425 426/426 427/427 428/428
v 0.500000 0.120000 0.500000
v 0.521460 0.120000 0.392114
v 0.500000 0.120000 0.390000
vt 0.000000 0.000000
vt 1.000000 0.000000
vt 1.000000 1.000000
f 429/429 430/430 431/431
v 0.500000 1.520000 0.500000
v 0.500000 1.520000 0.390000
v 0.521460 1.520000 0.392114
vt 0.000000 0.000000
vt 1.000000 0.000000
vt 1.000000 1.000000
f 432/432 433/433 434/434
v 0.521460 0.120000 0.392114
v 0.542095 0.120000 0.398373
v 0.542095 1.520000 0.398373
v 0.521460 1.520000 0.392114
vt 0.000000 0.000000
vt 1.000000 0.000000
vt 1.000000 1.000000
vt 0.000000 1.000000
f 435/435 436/436 437/437 438/438
v 0.500000 0.120000 0.500000
v 0.542095 0.120000 0.398373
v 0.521460 0.120000 0.392114
vt 0.000000 0.000000
vt 1.000000 0.000000
vt 1.000000 1.000000
f 439/439 440/440 441/441
v 0.500000 1.520000 0.500000
v 0.521460 1.520000 0.392114
v 0.542095 1.520000 0.398373
vt 0.000000 0.000000
vt 1.000000 0.000000
vt 1.000000 1.000000
f 442/442 443/443 444/444
v 0.542095 0.120000 0.398373
v 0.561113 0.120000 0.408538
v 0.561113 1.520000 0.408538
v 0.542095 1.520000 0.398373
vt 0.000000 0.000000
vt 1.000000 0.000000
vt 1.000000 1.000000
vt 0.000000 1.000000
f 445/445 446/446 447/447 448/448
v 0.500000 0.120000 0.500000
v 0.561113 0.120000 0.408538
v 0.542095 0.120000 0.398373
vt 0.000000 0.000000
vt 1.000000 0.000000
vt 1.000000 1.000000
f 449/449 450/450 451/451
v 0.500000 1.520000 0.500000
v 0.542095 1.520000 0.398373
v 0.561113 1.520000 0.408538
vt 0.000000 0.000000
vt 1.000000 0.000000
vt 1.000000 1.000000
f 452/452 453/453 454/454
v 0.561113 0.120000 0.408538
v 0.577782 0.120000 0.422218
v 0.577782 1.520000 0.422218
v 0.561113 1.520000 0.408538
vt 0.000000 0.000000
vt 1.000000 0.000000
vt 1.000000 1.000000
vt 0.000000 1.000000
f 455/455 456/456 457/457 458/458
v 0.500000 0.120000 0.500000
v 0.577782 0.120000 0.422218
v 0.561113 0.120000 0.408538
vt 0.000000 0.000000
vt 1.000000 0.000000
vt 1.000000 1.000000
f 459/459 460/460 461/461
v 0.500000 1.520000 0.500000
v 0.561113 1.520000 0.408538
v 0.577782 1.520000 0.422218
vt 0.000000 0.000000
vt 1.000000 0.000000
vt 1.000000 1.000000
f 462/462 463/463 464/464
v 0.577782 0.120000 0.422218
v 0.591462 0.120000 0.438887
v 0.591462 1.520000 0.438887
v 0.577782 1.520000 0.422218
vt 0.000000 0.000000
vt 1.000000 0.000000
vt 1.000000 1.000000
vt 0.000000 1.000000
f 465/465 466/466 467/467 468/468
v 0.500000 0.120000 0.500000
v 0.591462 0.120000 0.438887
v 0.577782 0.120000 0.422218
vt 0.000000 0.000000
vt 1.000000 0.000000
vt 1.000000 1.000000
f 469/469 470/470 471/471
v 0.500000 1.520000 0.500000
v 0.577782 1.520000 0.422218
v 0.591462 1.520000 0.438887
vt 0.000000 0.000000
vt 1.000000 0.000000
vt 1.000000 1.000000
f 472/472 473/473 474/474
v 0.591462 0.120000 0.438887
v 0.601627 0.120000 0.457905
v 0.601627 1.520000 0.457905
v 0.591462 1.520000 0.438887
vt 0.000000 0.000000
vt 1.000000 0.000000
vt 1.000000 1.000000
vt 0.000000 1.000000
f 475/475 476/476 477/477 478/478
v 0.500000 0.120000 0.500000
v 0.601627 0.120000 0.457905
v 0.591462 0.120000 0.438887
vt 0.000000 0.000000
vt 1.000000 0.000000
vt 1.000000 1.000000
f 479/479 480/480 481/481
v 0.500000 1.520000 0.500000
v 0.591462 1.520000 0.438887
v 0.601627 1.520000 0.457905
vt 0.000000 0.000000
vt 1.000000 0.000000
vt 1.000000 1.000000
f 482/482 483/483 484/484
v 0.601627 0.120000 0.457905
v 0.607886 0.120000 0.478540
v 0.607886 1.520000 0.478540
v 0.601627 1.520000 0.457905
vt 0.000000 0.000000
vt 1.000000 0.000000
vt 1.000000 1.000000
vt 0.000000 1.000000
f 485/485 486/486 487/487 488/488
v 0.500000 0.120000 0.500000
v 0.607886 0.120000 0.478540
v 0.601627 0.120000 0.457905
vt 0.000000 0.000000
vt 1.000000 0.000000
vt 1.000000 1.000000
f 489/489 490/490 491/491
v 0.500000 1.520000 0.500000
v 0.601627 1.520000 0.457905
v 0.607886 1.520000 0.478540
vt 0.000000 0.000000
vt 1.000000 0.000000
vt 1.000000 1.000000
f 492/492 493/493 494/494
v 0.607886 0.120000 0.478540
v 0.610000 0.120000 0.500000
v 0.610000 1.520000 0.500000
v 0.607886 1.520000 0.478540
vt 0.000000 0.000000
vt 1.000000 0.000000
vt 1.000000 1.000000
vt 0.000000 1.000000
f 495/495 496/496 497/497 498/498
v 0.500000 0.120000 0.500000
v 0.610000 0.120000 0.500000
v 0.607886 0.120000 0.478540
vt 0.000000 0.000000
vt 1.000000 0.000000
vt 1.000000 1.000000
f 499/499 500/500 501/501
v 0.500000 1.520000 0.500000
v 0.607886 1.520000 0.478540
v 0.610000 1.520000 0.500000
vt 0.000000 0.000000
vt 1.000000 0.000000
vt 1.000000 1.000000
f 502/502 503/503 504/504
v 0.610000 0.120000 0.500000
v 0.607886 0.120000 0.521460
v 0.607886 1.520000 0.521460
v 0.610000 1.520000 0.500000
vt 0.000000 0.000000
vt 1.000000 0.000000
vt 1.000000 1.000000
vt 0.000000 1.000000
f 505/505 506/506 507/507 508/508
v 0.500000 0.120000 0.500000
v 0.607886 0.120000 0.521460
v 0.610000 0.120000 0.500000
vt 0.000000 0.000000
vt 1.000000 0.000000
vt 1.000000 1.000000
f 509/509 510/510 511/511
v 0.500000 1.520000 0.500000
v 0.610000 1.520000 0.500000
v 0.607886 1.520000 0.521460
vt 0.000000 0.000000
vt 1.000000 0.000000
vt 1.000000 1.000000
f 512/512 513/513 514/514
v 0.607886 0.120000 0.521460
v 0.601627 0.120000 0.542095
v 0.601627 1.520000 0.542095
v 0.607886 1.520000 0.521460
vt 0.000000 0.000000
vt 1.000000 0.000000
vt 1.000000 1.000000
vt 0.000000 1.000000
f 515/515 516/516 517/517 518/518
v 0.500000 0.120000 0.500000
v 0.601627 0.120000 0.542095
v 0.607886 0.120000 0.521460
vt 0.000000 0.000000
vt 1.000000 0.000000
vt 1.000000 1.000000
f 519/519 520/520 521/521
v 0.500000 1.520000 0.500000
v 0.607886 1.520000 0.521460
v 0.601627 1.520000 0.542095
vt 0.000000 0.000000
vt 1.000000 0.000000
vt 1.000000 1.000000
f 522/522 523/523 524/524
v 0.601627 0.120000 0.542095
v 0.591462 0.120000 0.561113
v 0.591462 1.520000 0.561113
v 0.601627 1.520000 0.542095
vt 0.000000 0.000000
vt 1.000000 0.000000
vt 1.000000 1.000000
vt 0.000000 1.000000
f 525/525 526/526 527/527 528/528
v 0.500000 0.120000 0.500000
v 0.591462 0.120000 0.561113
v 0.601627 0.120000 0.542095
vt 0.000000 0.000000
vt 1.000000 0.000000
vt 1.000000 1.000000
f 529/529 530/530 531/531
v 0.500000 1.520000 0.500000
v 0.601627 1.520000 0.542095
v 0.591462 1.520000 0.561113
vt 0.000000 0.000000
vt 1.000000 0.000000
vt 1.000000 1.000000
f 532/532 533/533 534/534
v 0.591462 0.120000 0.561113
v 0.577782 0.120000 0.577782
v 0.577782 1.520000 0.577782
v 0.591462 1.520000 0.561113
vt 0.000000 0.000000
vt 1.000000 0.000000
vt 1.000000 1.000000
vt 0.000000 1.000000
f 535/535 536/536 537/537 538/538
v 0.500000 0.120000 0.500000
v 0.577782 0.120000 0.577782
v 0.591462 0.120000 0.561113
vt 0.000000 0.000000
vt 1.000000 0.000000
vt 1.000000 1.000000
f 539/539 540/540 541/541
v 0.500000 1.520000 0.500000
v 0.591462 1.520000 0.561113
v 0.577782 1.520000 0.577782
vt 0.000000 0.000000
vt 1.000000 0.000000
vt 1.000000 1.000000
f 542/542 543/543 544/544
v 0.577782 0.120000 0.577782
v 0.561113 0.120000 0.591462
v 0.561113 1.520000 0.591462
v 0.577782 1.520000 0.577782
vt 0.000000 0.000000
vt 1.000000 0.000000
vt 1.000000 1.000000
vt 0.000000 1.000000
f 545/545 546/546 547/547 548/548
v 0.500000 0.120000 0.500000
v 0.561113 0.120000 0.591462
v 0.577782 0.120000 0.577782
vt 0.000000 0.000000
vt 1.000000 0.000000
vt 1.000000 1.000000
f 549/549 550/550 551/551
v 0.500000 1.520000 0.500000
v 0.577782 1.520000 0.577782
v 0.561113 1.520000 0.591462
vt 0.000000 0.000000
vt 1.000000 0.000000
vt 1.000000 1.000000
f 552/552 553/553 554/554
v 0.561113 0.120000 0.591462
v 0.542095 0.120000 0.601627
v 0.542095 1.520000 0.601627
v 0.561113 1.520000 0.591462
vt 0.000000 0.000000
vt 1.000000 0.000000
vt 1.000000 1.000000
vt 0.000000 1.000000
f 555/555 556/556 557/557 558/558
v 0.500000 0.120000 0.500000
v 0.542095 0.120000 0.601627
v 0.561113 0.120000 0.591462
vt 0.000000 0.000000
vt 1.000000 0.000000
vt 1.000000 1.000000
f 559/559 560/560 561/561
v 0.500000 1.520000 0.500000
v 0.561113 1.520000 0.591462
v 0.542095 1.520000 0.601627
vt 0.000000 0.000000
vt 1.000000 0.000000
vt 1.000000 1.000000
f 562/562 563/563 564/564
v 0.542095 0.120000 0.601627
v 0.521460 0.120000 0.607886
v 0.521460 1.520000 0.607886
v 0.542095 1.520000 0.601627
vt 0.000000 0.000000
vt 1.000000 0.000000
vt 1.000000 1.000000
vt 0.000000 1.000000
f 565/565 566/566 567/567 568/568
v 0.500000 0.120000 0.500000
v 0.521460 0.120000 0.607886
v 0.542095 0.120000 0.601627
vt 0.000000 0.000000
vt 1.000000 0.000000
vt 1.000000 1.000000
f 569/569 570/570 571/571
v 0.500000 1.520000 0.500000
v 0.542095 1.520000 0.601627
v 0.521460 1.520000 0.607886
vt 0.000000 0.000000
vt 1.000000 0.000000
vt 1.000000 1.000000
f 572/572 573/573 574/574
v 0.521460 0.120000 0.607886
v 0.500000 0.120000 0.610000
v 0.500000 1.520000 0.610000
v 0.521460 1.520000 0.607886
vt 0.000000 0.000000
vt 1.000000 0.000000
vt 1.000000 1.000000
vt 0.000000 1.000000
f 575/575 576/576 577/577 578/578
v 0.500000 0.120000 0.500000
v 0.500000 0.120000 0.610000
v 0.521460 0.120000 0.607886
vt 0.000000 0.000000
vt 1.000000 0.000000
vt 1.000000 1.000000
f 579/579 580/580 581/581
v 0.500000 1.520000 0.500000
v 0.521460 1.520000 0.607886
v 0.500000 1.520000 0.610000
vt 0.000000 0.000000
vt 1.000000 0.000000
vt 1.000000 1.000000
f 582/582 583/583 584/584
v 0.500000 0.120000 0.610000
v 0.478540 0.120000 0.607886
v 0.478540 1.520000 0.607886
v 0.500000 1.520000 0.610000
vt 0.000000 0.000000
vt 1.000000 0.000000
vt 1.000000 1.000000
vt 0.000000 1.000000
f 585/585 586/586 587/587 588/588
v 0.500000 0.120000 0.500000
v 0.478540 0.120000 0.607886
v 0.500000 0.120000 0.610000
vt 0.000000 0.000000
vt 1.000000 0.000000
vt 1.000000 1.000000
f 589/589 590/590 591/591
v 0.500000 1.520000 0.500000
v 0.500000 1.520000 0.610000
v 0.478540 1.520000 0.607886
vt 0.000000 0.000000
vt 1.000000 0.000000
vt 1.000000 1.000000
f 592/592 593/593 594/594
v 0.478540 0.120000 0.607886
v 0.457905 0.120000 0.601627
v 0.457905 1.520000 0.601627
v 0.478540 1.520000 0.607886
vt 0.000000 0.000000
vt 1.000000 0.000000
vt 1.000000 1.000000
vt 0.000000 1.000000
f 595/595 596/596 597/597 598/598
v 0.500000 0.120000 0.500000
v 0.457905 0.120000 0.601627
v 0.478540 0.120000 0.607886
vt 0.000000 0.000000
vt 1.000000 0.000000
vt 1.000000 1.000000
f 599/599 600/600 601/601
v 0.500000 1.520000 0.500000
v 0.478540 1.520000 0.607886
v 0.457905 1.520000 0.601627
vt 0.000000 0.000000
vt 1.000000 0.000000
vt 1.000000 1.000000
f 602/602 603/603 604/604
v 0.457905 0.120000 0.601627
v 0.438887 0.120000 0.591462
v 0.438887 1.520000 0.591462
v 0.457905 1.520000 0.601627
vt 0.000000 0.000000
vt 1.000000 0.000000
vt 1.000000 1.000000
vt 0.000000 1.000000
f 605/605 606/606 607/607 608/608
v 0.500000 0.120000 0.500000
v 0.438887 0.120000 0.591462
v 0.457905 0.120000 0.601627
vt 0.000000 0.000000
vt 1.000000 0.000000
vt 1.000000 1.000000
f 609/609 610/610 611/611
v 0.500000 1.520000 0.500000
v 0.457905 1.520000 0.601627
v 0.438887 1.520000 0.591462
vt 0.000000 0.000000
vt 1.000000 0.000000
vt 1.000000 1.000000
f 612/612 613/613 614/614
v 0.438887 0.120000 0.591462
v 0.422218 0.120000 0.577782
v 0.422218 1.520000 0.577782
v 0.438887 1.520000 0.591462
vt 0.000000 0.000000
vt 1.000000 0.000000
vt 1.000000 1.000000
vt 0.000000 1.000000
f 615/615 616/616 617/617 618/618
v 0.500000 0.120000 0.500000
v 0.422218 0.120000 0.577782
v 0.438887 0.120000 0.591462
vt 0.000000 0.000000
vt 1.000000 0.000000
vt 1.000000 1.000000
f 619/619 620/620 621/621
v 0.500000 1.520000 0.500000
v 0.438887 1.520000 0.591462
v 0.422218 1.520000 0.577782
vt 0.000000 0.000000
vt 1.000000 0.000000
vt 1.000000 1.000000
f 622/622 623/623 624/624
v 0.422218 0.120000 0.577782
v 0.408538 0.120000 0.561113
v 0.408538 1.520000 0.561113
v 0.422218 1.520000 0.577782
vt 0.000000 0.000000
vt 1.000000 0.000000
vt 1.000000 1.000000
vt 0.000000 1.000000
f 625/625 626/626 627/627 628/628
v 0.500000 0.120000 0.500000
v 0.408538 0.120000 0.561113
v 0.422218 0.120000 0.577782
vt 0.000000 0.000000
vt 1.000000 0.000000
vt 1.000000 1.000000
f 629/629 630/630 631/631
v 0.500000 1.520000 0.500000
v 0.422218 1.520000 0.577782
v 0.408538 1.520000 0.561113
vt 0.000000 0.000000
vt 1.000000 0.000000
vt 1.000000 1.000000
f 632/632 633/633 634/634
v 0.408538 0.120000 0.561113
v 0.398373 0.120000 0.542095
v 0.398373 1.520000 0.542095
v 0.408538 1.520000 0.561113
vt 0.000000 0.000000
vt 1.000000 0.000000
vt 1.000000 1.000000
vt 0.000000 1.000000
f 635/635 636/636 637/637 638/638
v 0.500000 0.120000 0.500000
v 0.398373 0.120000 0.542095
v 0.408538 0.120000 0.561113
vt 0.000000 0.000000
vt 1.000000 0.000000
vt 1.000000 1.000000
f 639/639 640/640 641/641
v 0.500000 1.520000 0.500000
v 0.408538 1.520000 0.561113
v 0.398373 1.520000 0.542095
vt 0.000000 0.000000
vt 1.000000 0.000000
vt 1.000000 1.000000
f 642/642 643/643 644/644
v 0.398373 0.120000 0.542095
v 0.392114 0.120000 0.521460
v 0.392114 1.520000 0.521460
v 0.398373 1.520000 0.542095
vt 0.000000 0.000000
vt 1.000000 0.000000
vt 1.000000 1.000000
vt 0.000000 1.000000
f 645/645 646/646 647/647 648/648
v 0.500000 0.120000 0.500000
v 0.392114 0.120000 0.521460
v 0.398373 0.120000 0.542095
vt 0.000000 0.000000
vt 1.000000 0.000000
vt 1.000000 1.000000
f 649/649 650/650 651/651
v 0.500000 1.520000 0.500000
v 0.398373 1.520000 0.542095
v 0.392114 1.520000 0.521460
vt 0.000000 0.000000
vt 1.000000 0.000000
vt 1.000000 1.000000
f 652/652 653/653 654/654
v 0.392114 0.120000 0.521460
v 0.390000 0.120000 0.500000
v 0.390000 1.520000 0.500000
v 0.392114 1.520000 0.521460
vt 0.000000 0.000000
vt 1.000000 0.000000
vt 1.000000 1.000000
vt 0.000000 1.000000
f 655/655 656/656 657/657 658/658
v 0.500000 0.120000 0.500000
v 0.390000 0.120000 0.500000
v 0.392114 0.120000 0.521460
vt 0.000000 0.000000
vt 1.000000 0.000000
vt 1.000000 1.000000
f 659/659 660/660 661/661
v 0.500000 1.520000 0.500000
v 0.392114 1.520000 0.521460
v 0.390000 1.520000 0.500000
vt 0.000000 0.000000
vt 1.000000 0.000000
vt 1.000000 1.000000
f 662/662 663/663 664/664
v 0.390000 0.120000 0.500000
v 0.392114 0.120000 0.478540
v 0.392114 1.520000 0.478540
v 0.390000 1.520000 0.500000
vt 0.000000 0.000000
vt 1.000000 0.000000
vt 1.000000 1.000000
vt 0.000000 1.000000
f 665/665 666/666 667/667 668/668
v 0.500000 0.120000 0.500000
v 0.392114 0.120000 0.478540
v 0.390000 0.120000 0.500000
vt 0.000000 0.000000
vt 1.000000 0.000000
vt 1.000000 1.000000
f 669/669 670/670 671/671
v 0.500000 1.520000 0.500000
v 0.390000 1.520000 0.500000
v 0.392114 1.520000 0.478540
vt 0.000000 0.000000
vt 1.000000 0.000000
vt 1.000000 1.000000
f 672/672 673/673 674/674
v 0.392114 0.120000 0.478540
v 0.398373 0.120000 0.457905
v 0.398373 1.520000 0.457905
v 0.392114 1.520000 0.478540
vt 0.000000 0.000000
vt 1.000000 0.000000
vt 1.000000 1.000000
vt 0.000000 1.000000
f 675/675 676/676 677/677 678/678
v 0.500000 0.120000 0.500000
v 0.398373 0.120000 0.457905
v 0.392114 0.120000 0.478540
vt 0.000000 0.000000
vt 1.000000 0.000000
vt 1.000000 1.000000
f 679/679 680/680 681/681
v 0.500000 1.520000 0.500000
v 0.392114 1.520000 0.478540
v 0.398373 1.520000 0.457905
vt 0.000000 0.000000
vt 1.000000 0.000000
vt 1.000000 1.000000
f 682/682 683/683 684/684
v 0.398373 0.120000 0.457905
v 0.408538 0.120000 0.438887
v 0.408538 1.520000 0.438887
v 0.398373 1.520000 0.457905
vt 0.000000 0.000000
vt 1.000000 0.000000
vt 1.000000 1.000000
vt 0.000000 1.000000
f 685/685 686/686 687/687 688/688
v 0.500000 0.120000 0.500000
v 0.408538 0.120000 0.438887
v 0.398373 0.120000 0.457905
vt 0.000000 0.000000
vt 1.000000 0.000000
vt 1.000000 1.000000
f 689/689 690/690 691/691
v 0.500000 1.520000 0.500000
v 0.398373 1.520000 0.457905
v 0.408538 1.520000 0.438887
vt 0.000000 0.000000
vt 1.000000 0.000000
vt 1.000000 1.000000
f 692/692 693/693 694/694
v 0.408538 0.120000 0.438887
v 0.422218 0.120000 0.422218
v 0.422218 1.520000 0.422218
v 0.408538 1.520000 0.438887
vt 0.000000 0.000000
vt 1.000000 0.000000
vt 1.000000 1.000000
vt 0.000000 1.000000
f 695/695 696/696 697/697 698/698
v 0.500000 0.120000 0.500000
v 0.422218 0.120000 0.422218
v 0.408538 0.120000 0.438887
vt 0.000000 0.000000
vt 1.000000 0.000000
vt 1.000000 1.000000
f 699/699 700/700 701/701
v 0.500000 1.520000 0.500000
v 0.408538 1.520000 0.438887
v 0.422218 1.520000 0.422218
vt 0.000000 0.000000
vt 1.000000 0.000000
vt 1.000000 1.000000
f 702/702 703/703 704/704
v 0.422218 0.120000 0.422218
v 0.438887 0.120000 0.408538
v 0.438887 1.520000 0.408538
v 0.422218 1.520000 0.422218
vt 0.000000 0.000000
vt 1.000000 0.000000
vt 1.000000 1.000000
vt 0.000000 1.000000
f 705/705 706/706 707/707 708/708
v 0.500000 0.120000 0.500000
v 0.438887 0.120000 0.408538
v 0.422218 0.120000 0.422218
vt 0.000000 0.000000
vt 1.000000 0.000000
vt 1.000000 1.000000
f 709/709 710/710 711/711
v 0.500000 1.520000 0.500000
v 0.422218 1.520000 0.422218
v 0.438887 1.520000 0.408538
vt 0.000000 0.000000
vt 1.000000 0.000000
vt 1.000000 1.000000
f 712/712 713/713 714/714
v 0.438887 0.120000 0.408538
v 0.457905 0.120000 0.398373
v 0.457905 1.520000 0.398373
v 0.438887 1.520000 0.408538
vt 0.000000 0.000000
vt 1.000000 0.000000
vt 1.000000 1.000000
vt 0.000000 1.000000
f 715/715 716/716 717/717 718/718
v 0.500000 0.120000 0.500000
v 0.457905 0.120000 0.398373
v 0.438887 0.120000 0.408538
vt 0.000000 0.000000
vt 1.000000 0.000000
vt 1.000000 1.000000
f 719/719 720/720 721/721
v 0.500000 1.520000 0.500000
v 0.438887 1.520000 0.408538
v 0.457905 1.520000 0.398373
vt 0.000000 0.000000
vt 1.000000 0.000000
vt 1.000000 1.000000
f 722/722 723/723 724/724
v 0.457905 0.120000 0.398373
v 0.478540 0.120000 0.392114
v 0.478540 1.520000 0.392114
v 0.457905 1.520000 0.398373
vt 0.000000 0.000000
vt 1.000000 0.000000
vt 1.000000 1.000000
vt 0.000000 1.000000
f 725/725 726/726 727/727 728/728
v 0.500000 0.120000 0.500000
v 0.478540 0.120000 0.392114
v 0.457905 0.120000 0.398373
vt 0.000000 0.000000
vt 1.000000 0.000000
vt 1.000000 1.000000
f 729/729 730/730 731/731
v 0.500000 1.520000 0.500000
v 0.457905 1.520000 0.398373
v 0.478540 1.520000 0.392114
vt 0.000000 0.000000
vt 1.000000 0.000000
vt 1.000000 1.000000
f 732/732 733/733 734/734
v 0.478540 0.120000 0.392114
v 0.500000 0.120000 0.390000
v 0.500000 1.520000 0.390000
v 0.478540 1.520000 0.392114
vt 0.000000 0.000000
vt 1.000000 0.000000
vt 1.000000 1.000000
vt 0.000000 1.000000
f 735/735 736/736 737/737 738/738
v 0.500000 0.120000 0.500000
v 0.500000 0.120000 0.390000
v 0.478540 0.120000 0.392114
vt 0.000000 0.000000
vt 1.000000 0.000000
vt 1.000000 1.000000
f 739/739 740/740 741/741
v 0.500000 1.520000 0.500000
v 0.478540 1.520000 0.392114
v 0.500000 1.520000 0.390000
vt 0.000000 0.000000
vt 1.000000 0.000000
vt 1.000000 1.000000
f 742/742 743/743 744/744
usemtl accent
v 0.500000 1.520000 0.390000
v 0.521460 1.520000 0.392114
v 0.500000 1.720000 0.500000
vt 0.000000 0.000000
vt 1.000000 0.000000
vt 1.000000 1.000000
f 745/745 746/746 747/747
v 0.500000 1.520000 0.500000
v 0.521460 1.520000 0.392114
v 0.500000 1.520000 0.390000
vt 0.000000 0.000000
vt 1.000000 0.000000
vt 1.000000 1.000000
f 748/748 749/749 750/750
v 0.521460 1.520000 0.392114
v 0.542095 1.520000 0.398373
v 0.500000 1.720000 0.500000
vt 0.000000 0.000000
vt 1.000000 0.000000
vt 1.000000 1.000000
f 751/751 752/752 753/753
v 0.500000 1.520000 0.500000
v 0.542095 1.520000 0.398373
v 0.521460 1.520000 0.392114
vt 0.000000 0.000000
vt 1.000000 0.000000
vt 1.000000 1.000000
f 754/754 755/755 756/756
v 0.542095 1.520000 0.398373
v 0.561113 1.520000 0.408538
v 0.500000 1.720000 0.500000
vt 0.000000 0.000000
vt 1.000000 0.000000
vt 1.000000 1.000000
f 757/757 758/758 759/759
v 0.500000 1.520000 0.500000
v 0.561113 1.520000 0.408538
v 0.542095 1.520000 0.398373
vt 0.000000 0.000000
vt 1.000000 0.000000
vt 1.000000 1.000000
f 760/760 761/761 762/762
v 0.561113 1.520000 0.408538
v 0.577782 1.520000 0.422218
v 0.500000 1.720000 0.500000
vt 0.000000 0.000000
vt 1.000000 0.000000
vt 1.000000 1.000000
f 763/763 764/764 765/765
v 0.500000 1.520000 0.500000
v 0.577782 1.520000 0.422218
v 0.561113 1.520000 0.408538
vt 0.000000 0.000000
vt 1.000000 0.000000
vt 1.000000 1.000000
f 766/766 767/767 768/768
v 0.577782 1.520000 0.422218
v 0.591462 1.520000 0.438887
v 0.500000 1.720000 0.500000
vt 0.000000 0.000000
vt 1.000000 0.000000
vt 1.000000 1.000000
f 769/769 770/770 771/771
v 0.500000 1.520000 0.500000
v 0.591462 1.520000 0.438887
v 0.577782 1.520000 0.422218
vt 0.000000 0.000000
vt 1.000000 0.000000
vt 1.000000 1.000000
f 772/772 773/773 774/774
v 0.591462 1.520000 0.438887
v 0.601627 1.520000 0.457905
v 0.500000 1.720000 0.500000
vt 0.000000 0.000000
vt 1.000000 0.000000
vt 1.000000 1.000000
f 775/775 776/776 777/777
v 0.500000 1.520000 0.500000
v 0.601627 1.520000 0.457905
v 0.591462 1.520000 0.438887
vt 0.000000 0.000000
vt 1.000000 0.000000
vt 1.000000 1.000000
f 778/778 779/779 780/780
v 0.601627 1.520000 0.457905
v 0.607886 1.520000 0.478540
v 0.500000 1.720000 0.500000
vt 0.000000 0.000000
vt 1.000000 0.000000
vt 1.000000 1.000000
f 781/781 782/782 783/783
v 0.500000 1.520000 0.500000
v 0.607886 1.520000 0.478540
v 0.601627 1.520000 0.457905
vt 0.000000 0.000000
vt 1.000000 0.000000
vt 1.000000 1.000000
f 784/784 785/785 786/786
v 0.607886 1.520000 0.478540
v 0.610000 1.520000 0.500000
v 0.500000 1.720000 0.500000
vt 0.000000 0.000000
vt 1.000000 0.000000
vt 1.000000 1.000000
f 787/787 788/788 789/789
v 0.500000 1.520000 0.500000
v 0.610000 1.520000 0.500000
v 0.607886 1.520000 0.478540
vt 0.000000 0.000000
vt 1.000000 0.000000
vt 1.000000 1.000000
f 790/790 791/791 792/792
v 0.610000 1.520000 0.500000
v 0.607886 1.520000 0.521460
v 0.500000 1.720000 0.500000
vt 0.000000 0.000000
vt 1.000000 0.000000
vt 1.000000 1.000000
f 793/793 794/794 795/795
v 0.500000 1.520000 0.500000
v 0.607886 1.520000 0.521460
v 0.610000 1.520000 0.500000
vt 0.000000 0.000000
vt 1.000000 0.000000
vt 1.000000 1.000000
f 796/796 797/797 798/798
v 0.607886 1.520000 0.521460
v 0.601627 1.520000 0.542095
v 0.500000 1.720000 0.500000
vt 0.000000 0.000000
vt 1.000000 0.000000
vt 1.000000 1.000000
f 799/799 800/800 801/801
v 0.500000 1.520000 0.500000
v 0.601627 1.520000 0.542095
v 0.607886 1.520000 0.521460
vt 0.000000 0.000000
vt 1.000000 0.000000
vt 1.000000 1.000000
f 802/802 803/803 804/804
v 0.601627 1.520000 0.542095
v 0.591462 1.520000 0.561113
v 0.500000 1.720000 0.500000
vt 0.000000 0.000000
vt 1.000000 0.000000
vt 1.000000 1.000000
f 805/805 806/806 807/807
v 0.500000 1.520000 0.500000
v 0.591462 1.520000 0.561113
v 0.601627 1.520000 0.542095
vt 0.000000 0.000000
vt 1.000000 0.000000
vt 1.000000 1.000000
f 808/808 809/809 810/810
v 0.591462 1.520000 0.561113
v 0.577782 1.520000 0.577782
v 0.500000 1.720000 0.500000
vt 0.000000 0.000000
vt 1.000000 0.000000
vt 1.000000 1.000000
f 811/811 812/812 813/813
v 0.500000 1.520000 0.500000
v 0.577782 1.520000 0.577782
v 0.591462 1.520000 0.561113
vt 0.000000 0.000000
vt 1.000000 0.000000
vt 1.000000 1.000000
f 814/814 815/815 816/816
v 0.577782 1.520000 0.577782
v 0.561113 1.520000 0.591462
v 0.500000 1.720000 0.500000
vt 0.000000 0.000000
vt 1.000000 0.000000
vt 1.000000 1.000000
f 817/817 818/818 819/819
v 0.500000 1.520000 0.500000
v 0.561113 1.520000 0.591462
v 0.577782 1.520000 0.577782
vt 0.000000 0.000000
vt 1.000000 0.000000
vt 1.000000 1.000000
f 820/820 821/821 822/822
v 0.561113 1.520000 0.591462
v 0.542095 1.520000 0.601627
v 0.500000 1.720000 0.500000
vt 0.000000 0.000000
vt 1.000000 0.000000
vt 1.000000 1.000000
f 823/823 824/824 825/825
v 0.500000 1.520000 0.500000
v 0.542095 1.520000 0.601627
v 0.561113 1.520000 0.591462
vt 0.000000 0.000000
vt 1.000000 0.000000
vt 1.000000 1.000000
f 826/826 827/827 828/828
v 0.542095 1.520000 0.601627
v 0.521460 1.520000 0.607886
v 0.500000 1.720000 0.500000
vt 0.000000 0.000000
vt 1.000000 0.000000
vt 1.000000 1.000000
f 829/829 830/830 831/831
v 0.500000 1.520000 0.500000
v 0.521460 1.520000 0.607886
v 0.542095 1.520000 0.601627
vt 0.000000 0.000000
vt 1.000000 0.000000
vt 1.000000 1.000000
f 832/832 833/833 834/834
v 0.521460 1.520000 0.607886
v 0.500000 1.520000 0.610000
v 0.500000 1.720000 0.500000
vt 0.000000 0.000000
vt 1.000000 0.000000
vt 1.000000 1.000000
f 835/835 836/836 837/837
v 0.500000 1.520000 0.500000
v 0.500000 1.520000 0.610000
v 0.521460 1.520000 0.607886
vt 0.000000 0.000000
vt 1.000000 0.000000
vt 1.000000 1.000000
f 838/838 839/839 840/840
v 0.500000 1.520000 0.610000
v 0.478540 1.520000 0.607886
v 0.500000 1.720000 0.500000
vt 0.000000 0.000000
vt 1.000000 0.000000
vt 1.000000 1.000000
f 841/841 842/842 843/843
v 0.500000 1.520000 0.500000
v 0.478540 1.520000 0.607886
v 0.500000 1.520000 0.610000
vt 0.000000 0.000000
vt 1.000000 0.000000
vt 1.000000 1.000000
f 844/844 845/845 846/846
v 0.478540 1.520000 0.607886
v 0.457905 1.520000 0.601627
v 0.500000 1.720000 0.500000
vt 0.000000 0.000000
vt 1.000000 0.000000
vt 1.000000 1.000000
f 847/847 848/848 849/849
v 0.500000 1.520000 0.500000
v 0.457905 1.520000 0.601627
v 0.478540 1.520000 0.607886
vt 0.000000 0.000000
vt 1.000000 0.000000
vt 1.000000 1.000000
f 850/850 851/851 852/852
v 0.457905 1.520000 0.601627
v 0.438887 1.520000 0.591462
v 0.500000 1.720000 0.500000
vt 0.000000 0.000000
vt 1.000000 0.000000
vt 1.000000 1.000000
f 853/853 854/854 855/855
v 0.500000 1.520000 0.500000
v 0.438887 1.520000 0.591462
v 0.457905 1.520000 0.601627
vt 0.000000 0.000000
vt 1.000000 0.000000
vt 1.000000 1.000000
f 856/856 857/857 858/858
v 0.438887 1.520000 0.591462
v 0.422218 1.520000 0.577782
v 0.500000 1.720000 0.500000
vt 0.000000 0.000000
vt 1.000000 0.000000
vt 1.000000 1.000000
f 859/859 860/860 861/861
v 0.500000 1.520000 0.500000
v 0.422218 1.520000 0.577782
v 0.438887 1.520000 0.591462
vt 0.000000 0.000000
vt 1.000000 0.000000
vt 1.000000 1.000000
f 862/862 863/863 864/864
v 0.422218 1.520000 0.577782
v 0.408538 1.520000 0.561113
v 0.500000 1.720000 0.500000
vt 0.000000 0.000000
vt 1.000000 0.000000
vt 1.000000 1.000000
f 865/865 866/866 867/867
v 0.500000 1.520000 0.500000
v 0.408538 1.520000 0.561113
v 0.422218 1.520000 0.577782
vt 0.000000 0.000000
vt 1.000000 0.000000
vt 1.000000 1.000000
f 868/868 869/869 870/870
v 0.408538 1.520000 0.561113
v 0.398373 1.520000 0.542095
v 0.500000 1.720000 0.500000
vt 0.000000 0.000000
vt 1.000000 0.000000
vt 1.000000 1.000000
f 871/871 872/872 873/873
v 0.500000 1.520000 0.500000
v 0.398373 1.520000 0.542095
v 0.408538 1.520000 0.561113
vt 0.000000 0.000000
vt 1.000000 0.000000
vt 1.000000 1.000000
f 874/874 875/875 876/876
v 0.398373 1.520000 0.542095
v 0.392114 1.520000 0.521460
v 0.500000 1.720000 0.500000
vt 0.000000 0.000000
vt 1.000000 0.000000
vt 1.000000 1.000000
f 877/877 878/878 879/879
v 0.500000 1.520000 0.500000
v 0.392114 1.520000 0.521460
v 0.398373 1.520000 0.542095
vt 0.000000 0.000000
vt 1.000000 0.000000
vt 1.000000 1.000000
f 880/880 881/881 882/882
v 0.392114 1.520000 0.521460
v 0.390000 1.520000 0.500000
v 0.500000 1.720000 0.500000
vt 0.000000 0.000000
vt 1.000000 0.000000
vt 1.000000 1.000000
f 883/883 884/884 885/885
v 0.500000 1.520000 0.500000
v 0.390000 1.520000 0.500000
v 0.392114 1.520000 0.521460
vt 0.000000 0.000000
vt 1.000000 0.000000
vt 1.000000 1.000000
f 886/886 887/887 888/888
v 0.390000 1.520000 0.500000
v 0.392114 1.520000 0.478540
v 0.500000 1.720000 0.500000
vt 0.000000 0.000000
vt 1.000000 0.000000
vt 1.000000 1.000000
f 889/889 890/890 891/891
v 0.500000 1.520000 0.500000
v 0.392114 1.520000 0.478540
v 0.390000 1.520000 0.500000
vt 0.000000 0.000000
vt 1.000000 0.000000
vt 1.000000 1.000000
f 892/892 893/893 894/894
v 0.392114 1.520000 0.478540
v 0.398373 1.520000 0.457905
v 0.500000 1.720000 0.500000
vt 0.000000 0.000000
vt 1.000000 0.000000
vt 1.000000 1.000000
f 895/895 896/896 897/897
v 0.500000 1.520000 0.500000
v 0.398373 1.520000 0.457905
v 0.392114 1.520000 0.478540
vt 0.000000 0.000000
vt 1.000000 0.000000
vt 1.000000 1.000000
f 898/898 899/899 900/900
v 0.398373 1.520000 0.457905
v 0.408538 1.520000 0.438887
v 0.500000 1.720000 0.500000
vt 0.000000 0.000000
vt 1.000000 0.000000
vt 1.000000 1.000000
f 901/901 902/902 903/903
v 0.500000 1.520000 0.500000
v 0.408538 1.520000 0.438887
v 0.398373 1.520000 0.457905
vt 0.000000 0.000000
vt 1.000000 0.000000
vt 1.000000 1.000000
f 904/904 905/905 906/906
v 0.408538 1.520000 0.438887
v 0.422218 1.520000 0.422218
v 0.500000 1.720000 0.500000
vt 0.000000 0.000000
vt 1.000000 0.000000
vt 1.000000 1.000000
f 907/907 908/908 909/909
v 0.500000 1.520000 0.500000
v 0.422218 1.520000 0.422218
v 0.408538 1.520000 0.438887
vt 0.000000 0.000000
vt 1.000000 0.000000
vt 1.000000 1.000000
f 910/910 911/911 912/912
v 0.422218 1.520000 0.422218
v 0.438887 1.520000 0.408538
v 0.500000 1.720000 0.500000
vt 0.000000 0.000000
vt 1.000000 0.000000
vt 1.000000 1.000000
f 913/913 914/914 915/915
v 0.500000 1.520000 0.500000
v 0.438887 1.520000 0.408538
v 0.422218 1.520000 0.422218
vt 0.000000 0.000000
vt 1.000000 0.000000
vt 1.000000 1.000000
f 916/916 917/917 918/918
v 0.438887 1.520000 0.408538
v 0.457905 1.520000 0.398373
v 0.500000 1.720000 0.500000
vt 0.000000 0.000000
vt 1.000000 0.000000
vt 1.000000 1.000000
f 919/919 920/920 921/921
v 0.500000 1.520000 0.500000
v 0.457905 1.520000 0.398373
v 0.438887 1.520000 0.408538
vt 0.000000 0.000000
vt 1.000000 0.000000
vt 1.000000 1.000000
f 922/922 923/923 924/924
v 0.457905 1.520000 0.398373
v 0.478540 1.520000 0.392114
v 0.500000 1.720000 0.500000
vt 0.000000 0.000000
vt 1.000000 0.000000
vt 1.000000 1.000000
f 925/925 926/926 927/927
v 0.500000 1.520000 0.500000
v 0.478540 1.520000 0.392114
v 0.457905 1.520000 0.398373
vt 0.000000 0.000000
vt 1.000000 0.000000
vt 1.000000 1.000000
f 928/928 929/929 930/930
v 0.478540 1.520000 0.392114
v 0.500000 1.520000 0.390000
v 0.500000 1.720000 0.500000
vt 0.000000 0.000000
vt 1.000000 0.000000
vt 1.000000 1.000000
f 931/931 932/932 933/933
v 0.500000 1.520000 0.500000
v 0.500000 1.520000 0.390000
v 0.478540 1.520000 0.392114
vt 0.000000 0.000000
vt 1.000000 0.000000
vt 1.000000 1.000000
f 934/934 935/935 936/936
v 0.130000 0.160000 0.445000
v 0.146996 0.160000 0.447692
v 0.146996 0.300000 0.447692
v 0.130000 0.300000 0.445000
vt 0.000000 0.000000
vt 1.000000 0.000000
vt 1.000000 1.000000
vt 0.000000 1.000000
f 937/937 938/938 939/939 940/940
v 0.130000 0.160000 0.500000
v 0.146996 0.160000 0.447692
v 0.130000 0.160000 0.445000
vt 0.000000 0.000000
vt 1.000000 0.000000
vt 1.000000 1.000000
f 941/941 942/942 943/943
v 0.130000 0.300000 0.500000
v 0.130000 0.300000 0.445000
v 0.146996 0.300000 0.447692
vt 0.000000 0.000000
vt 1.000000 0.000000
vt 1.000000 1.000000
f 944/944 945/945 946/946
v 0.146996 0.160000 0.447692
v 0.162328 0.160000 0.455504
v 0.162328 0.300000 0.455504
v 0.146996 0.300000 0.447692
vt 0.000000 0.000000
vt 1.000000 0.000000
vt 1.000000 1.000000
vt 0.000000 1.000000
f 947/947 948/948 949/949 950/950
v 0.130000 0.160000 0.500000
v 0.162328 0.160000 0.455504
v 0.146996 0.160000 0.447692
vt 0.000000 0.000000
vt 1.000000 0.000000
vt 1.000000 1.000000
f 951/951 952/952 953/953
v 0.130000 0.300000 0.500000
v 0.146996 0.300000 0.447692
v 0.162328 0.300000 0.455504
vt 0.000000 0.000000
vt 1.000000 0.000000
vt 1.000000 1.000000
f 954/954 955/955 956/956
v 0.162328 0.160000 0.455504
v 0.174496 0.160000 0.467672
v 0.174496 0.300000 0.467672
v 0.162328 0.300000 0.455504
vt 0.000000 0.000000
vt 1.000000 0.000000
vt 1.000000 1.000000
vt 0.000000 1.000000
f 957/957 958/958 959/959 960/960
v 0.130000 0.160000 0.500000
v 0.174496 0.160000 0.467672
v 0.162328 0.160000 0.455504
vt 0.000000 0.000000
vt 1.000000 0.000000
vt 1.000000 1.000000
f 961/961 962/962 963/963
v 0.130000 0.300000 0.500000
v 0.162328 0.300000 0.455504
v 0.174496 0.300000 0.467672
vt 0.000000 0.000000
vt 1.000000 0.000000
vt 1.000000 1.000000
f 964/964 965/965 966/966
v 0.174496 0.160000 0.467672
v 0.182308 0.160000 0.483004
v 0.182308 0.300000 0.483004
v 0.174496 0.300000 0.467672
vt 0.000000 0.000000
vt 1.000000 0.000000
vt 1.000000 1.000000
vt 0.000000 1.000000
f 967/967 968/968 969/969 970/970
v 0.130000 0.160000 0.500000
v 0.182308 0.160000 0.483004
v 0.174496 0.160000 0.467672
vt 0.000000 0.000000
vt 1.000000 0.000000
vt 1.000000 1.000000
f 971/971 972/972 973/973
v 0.130000 0.300000 0.500000
v 0.174496 0.300000 0.467672
v 0.182308 0.300000 0.483004
vt 0.000000 0.000000
vt 1.000000 0.000000
vt 1.000000 1.000000
f 974/974 975/975 976/976
v 0.182308 0.160000 0.483004
v 0.185000 0.160000 0.500000
v 0.185000 0.300000 0.500000
v 0.182308 0.300000 0.483004
vt 0.000000 0.000000
vt 1.000000 0.000000
vt 1.000000 1.000000
vt 0.000000 1.000000
f 977/977 978/978 979/979 980/980
v 0.130000 0.160000 0.500000
v 0.185000 0.160000 0.500000
v 0.182308 0.160000 0.483004
vt 0.000000 0.000000
vt 1.000000 0.000000
vt 1.000000 1.000000
f 981/981 982/982 983/983
v 0.130000 0.300000 0.500000
v 0.182308 0.300000 0.483004
v 0.185000 0.300000 0.500000
vt 0.000000 0.000000
vt 1.000000 0.000000
vt 1.000000 1.000000
f 984/984 985/985 986/986
v 0.185000 0.160000 0.500000
v 0.182308 0.160000 0.516996
v 0.182308 0.300000 0.516996
v 0.185000 0.300000 0.500000
vt 0.000000 0.000000
vt 1.000000 0.000000
vt 1.000000 1.000000
vt 0.000000 1.000000
f 987/987 988/988 989/989 990/990
v 0.130000 0.160000 0.500000
v 0.182308 0.160000 0.516996
v 0.185000 0.160000 0.500000
vt 0.000000 0.000000
vt 1.000000 0.000000
vt 1.000000 1.000000
f 991/991 992/992 993/993
v 0.130000 0.300000 0.500000
v 0.185000 0.300000 0.500000
v 0.182308 0.300000 0.516996
vt 0.000000 0.000000
vt 1.000000 0.000000
vt 1.000000 1.000000
f 994/994 995/995 996/996
v 0.182308 0.160000 0.516996
v 0.174496 0.160000 0.532328
v 0.174496 0.300000 0.532328
v 0.182308 0.300000 0.516996
vt 0.000000 0.000000
vt 1.000000 0.000000
vt 1.000000 1.000000
vt 0.000000 1.000000
f 997/997 998/998 999/999 1000/1000
v 0.130000 0.160000 0.500000
v 0.174496 0.160000 0.532328
v 0.182308 0.160000 0.516996
vt 0.000000 0.000000
vt 1.000000 0.000000
vt 1.000000 1.000000
f 1001/1001 1002/1002 1003/1003
v 0.130000 0.300000 0.500000
v 0.182308 0.300000 0.516996
v 0.174496 0.300000 0.532328
vt 0.000000 0.000000
vt 1.000000 0.000000
vt 1.000000 1.000000
f 1004/1004 1005/1005 1006/1006
v 0.174496 0.160000 0.532328
v 0.162328 0.160000 0.544496
v 0.162328 0.300000 0.544496
v 0.174496 0.300000 0.532328
vt 0.000000 0.000000
vt 1.000000 0.000000
vt 1.000000 1.000000
vt 0.000000 1.000000
f 1007/1007 1008/1008 1009/1009 1010/1010
v 0.130000 0.160000 0.500000
v 0.162328 0.160000 0.544496
v 0.174496 0.160000 0.532328
vt 0.000000 0.000000
vt 1.000000 0.000000
vt 1.000000 1.000000
f 1011/1011 1012/1012 1013/1013
v 0.130000 0.300000 0.500000
v 0.174496 0.300000 0.532328
v 0.162328 0.300000 0.544496
vt 0.000000 0.000000
vt 1.000000 0.000000
vt 1.000000 1.000000
f 1014/1014 1015/1015 1016/1016
v 0.162328 0.160000 0.544496
v 0.146996 0.160000 0.552308
v 0.146996 0.300000 0.552308
v 0.162328 0.300000 0.544496
vt 0.000000 0.000000
vt 1.000000 0.000000
vt 1.000000 1.000000
vt 0.000000 1.000000
f 1017/1017 1018/1018 1019/1019 1020/1020
v 0.130000 0.160000 0.500000
v 0.146996 0.160000 0.552308
v 0.162328 0.160000 0.544496
vt 0.000000 0.000000
vt 1.000000 0.000000
vt 1.000000 1.000000
f 1021/1021 1022/1022 1023/1023
v 0.130000 0.300000 0.500000
v 0.162328 0.300000 0.544496
v 0.146996 0.300000 0.552308
vt 0.000000 0.000000
vt 1.000000 0.000000
vt 1.000000 1.000000
f 1024/1024 1025/1025 1026/1026
v 0.146996 0.160000 0.552308
v 0.130000 0.160000 0.555000
v 0.130000 0.300000 0.555000
v 0.146996 0.300000 0.552308
vt 0.000000 0.000000
vt 1.000000 0.000000
vt 1.000000 1.000000
vt 0.000000 1.000000
f 1027/1027 1028/1028 1029/1029 1030/1030
v 0.130000 0.160000 0.500000
v 0.130000 0.160000 0.555000
v 0.146996 0.160000 0.552308
vt 0.000000 0.000000
vt 1.000000 0.000000
vt 1.000000 1.000000
f 1031/1031 1032/1032 1033/1033
v 0.130000 0.300000 0.500000
v 0.146996 0.300000 0.552308
v 0.130000 0.300000 0.555000
vt 0.000000 0.000000
vt 1.000000 0.000000
vt 1.000000 1.000000
f 1034/1034 1035/1035 1036/1036
v 0.130000 0.160000 0.555000
v 0.113004 0.160000 0.552308
v 0.113004 0.300000 0.552308
v 0.130000 0.300000 0.555000
vt 0.000000 0.000000
vt 1.000000 0.000000
vt 1.000000 1.000000
vt 0.000000 1.000000
f 1037/1037 1038/1038 1039/1039 1040/1040
v 0.130000 0.160000 0.500000
v 0.113004 0.160000 0.552308
v 0.130000 0.160000 0.555000
vt 0.000000 0.000000
vt 1.000000 0.000000
vt 1.000000 1.000000
f 1041/1041 1042/1042 1043/1043
v 0.130000 0.300000 0.500000
v 0.130000 0.300000 0.555000
v 0.113004 0.300000 0.552308
vt 0.000000 0.000000
vt 1.000000 0.000000
vt 1.000000 1.000000
f 1044/1044 1045/1045 1046/1046
v 0.113004 0.160000 0.552308
v 0.097672 0.160000 0.544496
v 0.097672 0.300000 0.544496
v 0.113004 0.300000 0.552308
vt 0.000000 0.000000
vt 1.000000 0.000000
vt 1.000000 1.000000
vt 0.000000 1.000000
f 1047/1047 1048/1048 1049/1049 1050/1050
v 0.130000 0.160000 0.500000
v 0.097672 0.160000 0.544496
v 0.113004 0.160000 0.552308
vt 0.000000 0.000000
vt 1.000000 0.000000
vt 1.000000 1.000000
f 1051/1051 1052/1052 1053/1053
v 0.130000 0.300000 0.500000
v 0.113004 0.300000 0.552308
v 0.097672 0.300000 0.544496
vt 0.000000 0.000000
vt 1.000000 0.000000
vt 1.000000 1.000000
f 1054/1054 1055/1055 1056/1056
v 0.097672 0.160000 0.544496
v 0.085504 0.160000 0.532328
v 0.085504 0.300000 0.532328
v 0.097672 0.300000 0.544496
vt 0.000000 0.000000
vt 1.000000 0.000000
vt 1.000000 1.000000
vt 0.000000 1.000000
f 1057/1057 1058/1058 1059/1059 1060/1060
v 0.130000 0.160000 0.500000
v 0.085504 0.160000 0.532328
v 0.097672 0.160000 0.544496
vt 0.000000 0.000000
vt 1.000000 0.000000
vt 1.000000 1.000000
f 1061/1061 1062/1062 1063/1063
v 0.130000 0.300000 0.500000
v 0.097672 0.300000 0.544496
v 0.085504 0.300000 0.532328
vt 0.000000 0.000000
vt 1.000000 0.000000
vt 1.000000 1.000000
f 1064/1064 1065/1065 1066/1066
v 0.085504 0.160000 0.532328
v 0.077692 0.160000 0.516996
v 0.077692 0.300000 0.516996
v 0.085504 0.300000 0.532328
vt 0.000000 0.000000
vt 1.000000 0.000000
vt 1.000000 1.000000
vt 0.000000 1.000000
f 1067/1067 1068/1068 1069/1069 1070/1070
v 0.130000 0.160000 0.500000
v 0.077692 0.160000 0.516996
v 0.085504 0.160000 0.532328
vt 0.000000 0.000000
vt 1.000000 0.000000
vt 1.000000 1.000000
f 1071/1071 1072/1072 1073/1073
v 0.130000 0.300000 0.500000
v 0.085504 0.300000 0.532328
v 0.077692 0.300000 0.516996
vt 0.000000 0.000000
vt 1.000000 0.000000
vt 1.000000 1.000000
f 1074/1074 1075/1075 1076/1076
v 0.077692 0.160000 0.516996
v 0.075000 0.160000 0.500000
v 0.075000 0.300000 0.500000
v 0.077692 0.300000 0.516996
vt 0.000000 0.000000
vt 1.000000 0.000000
vt 1.000000 1.000000
vt 0.000000 1.000000
f 1077/1077 1078/1078 1079/1079 1080/1080
v 0.130000 0.160000 0.500000
v 0.075000 0.160000 0.500000
v 0.077692 0.160000 0.516996
vt 0.000000 0.000000
vt 1.000000 0.000000
vt 1.000000 1.000000
f 1081/1081 1082/1082 1083/1083
v 0.130000 0.300000 0.500000
v 0.077692 0.300000 0.516996
v 0.075000 0.300000 0.500000
vt 0.000000 0.000000
vt 1.000000 0.000000
vt 1.000000 1.000000
f 1084/1084 1085/1085 1086/1086
v 0.075000 0.160000 0.500000
v 0.077692 0.160000 0.483004
v 0.077692 0.300000 0.483004
v 0.075000 0.300000 0.500000
vt 0.000000 0.000000
vt 1.000000 0.000000
vt 1.000000 1.000000
vt 0.000000 1.000000
f 1087/1087 1088/1088 1089/1089 1090/1090
v 0.130000 0.160000 0.500000
v 0.077692 0.160000 0.483004
v 0.075000 0.160000 0.500000
vt 0.000000 0.000000
vt 1.000000 0.000000
vt 1.000000 1.000000
f 1091/1091 1092/1092 1093/1093
v 0.130000 0.300000 0.500000
v 0.075000 0.300000 0.500000
v 0.077692 0.300000 0.483004
vt 0.000000 0.000000
vt 1.000000 0.000000
vt 1.000000 1.000000
f 1094/1094 1095/1095 1096/1096
v 0.077692 0.160000 0.483004
v 0.085504 0.160000 0.467672
v 0.085504 0.300000 0.467672
v 0.077692 0.300000 0.483004
vt 0.000000 0.000000
vt 1.000000 0.000000
vt 1.000000 1.000000
vt 0.000000 1.000000
f 1097/1097 1098/1098 1099/1099 1100/1100
v 0.130000 0.160000 0.500000
v 0.085504 0.160000 0.467672
v 0.077692 0.160000 0.483004
vt 0.000000 0.000000
vt 1.000000 0.000000
vt 1.000000 1.000000
f 1101/1101 1102/1102 1103/1103
v 0.130000 0.300000 0.500000
v 0.077692 0.300000 0.483004
v 0.085504 0.300000 0.467672
vt 0.000000 0.000000
vt 1.000000 0.000000
vt 1.000000 1.000000
f 1104/1104 1105/1105 1106/1106
v 0.085504 0.160000 0.467672
v 0.097672 0.160000 0.455504
v 0.097672 0.300000 0.455504
v 0.085504 0.300000 0.467672
vt 0.000000 0.000000
vt 1.000000 0.000000
vt 1.000000 1.000000
vt 0.000000 1.000000
f 1107/1107 1108/1108 1109/1109 1110/1110
v 0.130000 0.160000 0.500000
v 0.097672 0.160000 0.455504
v 0.085504 0.160000 0.467672
vt 0.000000 0.000000
vt 1.000000 0.000000
vt 1.000000 1.000000
f 1111/1111 1112/1112 1113/1113
v 0.130000 0.300000 0.500000
v 0.085504 0.300000 0.467672
v 0.097672 0.300000 0.455504
vt 0.000000 0.000000
vt 1.000000 0.000000
vt 1.000000 1.000000
f 1114/1114 1115/1115 1116/1116
v 0.097672 0.160000 0.455504
v 0.113004 0.160000 0.447692
v 0.113004 0.300000 0.447692
v 0.097672 0.300000 0.455504
vt 0.000000 0.000000
vt 1.000000 0.000000
vt 1.000000 1.000000
vt 0.000000 1.000000
f 1117/1117 1118/1118 1119/1119 1120/1120
v 0.130000 0.160000 0.500000
v 0.113004 0.160000 0.447692
v 0.097672 0.160000 0.455504
vt 0.000000 0.000000
vt 1.000000 0.000000
vt 1.000000 1.000000
f 1121/1121 1122/1122 1123/1123
v 0.130000 0.300000 0.500000
v 0.097672 0.300000 0.455504
v 0.113004 0.300000 0.447692
vt 0.000000 0.000000
vt 1.000000 0.000000
vt 1.000000 1.000000
f 1124/1124 1125/1125 1126/1126
v 0.113004 0.160000 0.447692
v 0.130000 0.160000 0.445000
v 0.130000 0.300000 0.445000
v 0.113004 0.300000 0.447692
vt 0.000000 0.000000
vt 1.000000 0.000000
vt 1.000000 1.000000
vt 0.000000 1.000000
f 1127/1127 1128/1128 1129/1129 1130/1130
v 0.130000 0.160000 0.500000
v 0.130000 0.160000 0.445000
v 0.113004 0.160000 0.447692
vt 0.000000 0.000000
vt 1.000000 0.000000
vt 1.000000 1.000000
f 1131/1131 1132/1132 1133/1133
v 0.130000 0.300000 0.500000
v 0.113004 0.300000 0.447692
v 0.130000 0.300000 0.445000
vt 0.000000 0.000000
vt 1.000000 0.000000
vt 1.000000 1.000000
f 1134/1134 1135/1135 1136/1136
v 0.870000 0.160000 0.445000
v 0.886996 0.160000 0.447692
v 0.886996 0.300000 0.447692
v 0.870000 0.300000 0.445000
vt 0.000000 0.000000
vt 1.000000 0.000000
vt 1.000000 1.000000
vt 0.000000 1.000000
f 1137/1137 1138/1138 1139/1139 1140/1140
v 0.870000 0.160000 0.500000
v 0.886996 0.160000 0.447692
v 0.870000 0.160000 0.445000
vt 0.000000 0.000000
vt 1.000000 0.000000
vt 1.000000 1.000000
f 1141/1141 1142/1142 1143/1143
v 0.870000 0.300000 0.500000
v 0.870000 0.300000 0.445000
v 0.886996 0.300000 0.447692
vt 0.000000 0.000000
vt 1.000000 0.000000
vt 1.000000 1.000000
f 1144/1144 1145/1145 1146/1146
v 0.886996 0.160000 0.447692
v 0.902328 0.160000 0.455504
v 0.902328 0.300000 0.455504
v 0.886996 0.300000 0.447692
vt 0.000000 0.000000
vt 1.000000 0.000000
vt 1.000000 1.000000
vt 0.000000 1.000000
f 1147/1147 1148/1148 1149/1149 1150/1150
v 0.870000 0.160000 0.500000
v 0.902328 0.160000 0.455504
v 0.886996 0.160000 0.447692
vt 0.000000 0.000000
vt 1.000000 0.000000
vt 1.000000 1.000000
f 1151/1151 1152/1152 1153/1153
v 0.870000 0.300000 0.500000
v 0.886996 0.300000 0.447692
v 0.902328 0.300000 0.455504
vt 0.000000 0.000000
vt 1.000000 0.000000
vt 1.000000 1.000000
f 1154/1154 1155/1155 1156/1156
v 0.902328 0.160000 0.455504
v 0.914496 0.160000 0.467672
v 0.914496 0.300000 0.467672
v 0.902328 0.300000 0.455504
vt 0.000000 0.000000
vt 1.000000 0.000000
vt 1.000000 1.000000
vt 0.000000 1.000000
f 1157/1157 1158/1158 1159/1159 1160/1160
v 0.870000 0.160000 0.500000
v 0.914496 0.160000 0.467672
v 0.902328 0.160000 0.455504
vt 0.000000 0.000000
vt 1.000000 0.000000
vt 1.000000 1.000000
f 1161/1161 1162/1162 1163/1163
v 0.870000 0.300000 0.500000
v 0.902328 0.300000 0.455504
v 0.914496 0.300000 0.467672
vt 0.000000 0.000000
vt 1.000000 0.000000
vt 1.000000 1.000000
f 1164/1164 1165/1165 1166/1166
v 0.914496 0.160000 0.467672
v 0.922308 0.160000 0.483004
v 0.922308 0.300000 0.483004
v 0.914496 0.300000 0.467672
vt 0.000000 0.000000
vt 1.000000 0.000000
vt 1.000000 1.000000
vt 0.000000 1.000000
f 1167/1167 1168/1168 1169/1169 1170/1170
v 0.870000 0.160000 0.500000
v 0.922308 0.160000 0.483004
v 0.914496 0.160000 0.467672
vt 0.000000 0.000000
vt 1.000000 0.000000
vt 1.000000 1.000000
f 1171/1171 1172/1172 1173/1173
v 0.870000 0.300000 0.500000
v 0.914496 0.300000 0.467672
v 0.922308 0.300000 0.483004
vt 0.000000 0.000000
vt 1.000000 0.000000
vt 1.000000 1.000000
f 1174/1174 1175/1175 1176/1176
v 0.922308 0.160000 0.483004
v 0.925000 0.160000 0.500000
v 0.925000 0.300000 0.500000
v 0.922308 0.300000 0.483004
vt 0.000000 0.000000
vt 1.000000 0.000000
vt 1.000000 1.000000
vt 0.000000 1.000000
f 1177/1177 1178/1178 1179/1179 1180/1180
v 0.870000 0.160000 0.500000
v 0.925000 0.160000 0.500000
v 0.922308 0.160000 0.483004
vt 0.000000 0.000000
vt 1.000000 0.000000
vt 1.000000 1.000000
f 1181/1181 1182/1182 1183/1183
v 0.870000 0.300000 0.500000
v 0.922308 0.300000 0.483004
v 0.925000 0.300000 0.500000
vt 0.000000 0.000000
vt 1.000000 0.000000
vt 1.000000 1.000000
f 1184/1184 1185/1185 1186/1186
v 0.925000 0.160000 0.500000
v 0.922308 0.160000 0.516996
v 0.922308 0.300000 0.516996
v 0.925000 0.300000 0.500000
vt 0.000000 0.000000
vt 1.000000 0.000000
vt 1.000000 1.000000
vt 0.000000 1.000000
f 1187/1187 1188/1188 1189/1189 1190/1190
v 0.870000 0.160000 0.500000
v 0.922308 0.160000 0.516996
v 0.925000 0.160000 0.500000
vt 0.000000 0.000000
vt 1.000000 0.000000
vt 1.000000 1.000000
f 1191/1191 1192/1192 1193/1193
v 0.870000 0.300000 0.500000
v 0.925000 0.300000 0.500000
v 0.922308 0.300000 0.516996
vt 0.000000 0.000000
vt 1.000000 0.000000
vt 1.000000 1.000000
f 1194/1194 1195/1195 1196/1196
v 0.922308 0.160000 0.516996
v 0.914496 0.160000 0.532328
v 0.914496 0.300000 0.532328
v 0.922308 0.300000 0.516996
vt 0.000000 0.000000
vt 1.000000 0.000000
vt 1.000000 1.000000
vt 0.000000 1.000000
f 1197/1197 1198/1198 1199/1199 1200/1200
v 0.870000 0.160000 0.500000
v 0.914496 0.160000 0.532328
v 0.922308 0.160000 0.516996
vt 0.000000 0.000000
vt 1.000000 0.000000
vt 1.000000 1.000000
f 1201/1201 1202/1202 1203/1203
v 0.870000 0.300000 0.500000
v 0.922308 0.300000 0.516996
v 0.914496 0.300000 0.532328
vt 0.000000 0.000000
vt 1.000000 0.000000
vt 1.000000 1.000000
f 1204/1204 1205/1205 1206/1206
v 0.914496 0.160000 0.532328
v 0.902328 0.160000 0.544496
v 0.902328 0.300000 0.544496
v 0.914496 0.300000 0.532328
vt 0.000000 0.000000
vt 1.000000 0.000000
vt 1.000000 1.000000
vt 0.000000 1.000000
f 1207/1207 1208/1208 1209/1209 1210/1210
v 0.870000 0.160000 0.500000
v 0.902328 0.160000 0.544496
v 0.914496 0.160000 0.532328
vt 0.000000 0.000000
vt 1.000000 0.000000
vt 1.000000 1.000000
f 1211/1211 1212/1212 1213/1213
v 0.870000 0.300000 0.500000
v 0.914496 0.300000 0.532328
v 0.902328 0.300000 0.544496
vt 0.000000 0.000000
vt 1.000000 0.000000
vt 1.000000 1.000000
f 1214/1214 1215/1215 1216/1216
v 0.902328 0.160000 0.544496
v 0.886996 0.160000 0.552308
v 0.886996 0.300000 0.552308
v 0.902328 0.300000 0.544496
vt 0.000000 0.000000
vt 1.000000 0.000000
vt 1.000000 1.000000
vt 0.000000 1.000000
f 1217/1217 1218/1218 1219/1219 1220/1220
v 0.870000 0.160000 0.500000
v 0.886996 0.160000 0.552308
v 0.902328 0.160000 0.544496
vt 0.000000 0.000000
vt 1.000000 0.000000
vt 1.000000 1.000000
f 1221/1221 1222/1222 1223/1223
v 0.870000 0.300000 0.500000
v 0.902328 0.300000 0.544496
v 0.886996 0.300000 0.552308
vt 0.000000 0.000000
vt 1.000000 0.000000
vt 1.000000 1.000000
f 1224/1224 1225/1225 1226/1226
v 0.886996 0.160000 0.552308
v 0.870000 0.160000 0.555000
v 0.870000 0.300000 0.555000
v 0.886996 0.300000 0.552308
vt 0.000000 0.000000
vt 1.000000 0.000000
vt 1.000000 1.000000
vt 0.000000 1.000000
f 1227/1227 1228/1228 1229/1229 1230/1230
v 0.870000 0.160000 0.500000
v 0.870000 0.160000 0.555000
v 0.886996 0.160000 0.552308
vt 0.000000 0.000000
vt 1.000000 0.000000
vt 1.000000 1.000000
f 1231/1231 1232/1232 1233/1233
v 0.870000 0.300000 0.500000
v 0.886996 0.300000 0.552308
v 0.870000 0.300000 0.555000
vt 0.000000 0.000000
vt 1.000000 0.000000
vt 1.000000 1.000000
f 1234/1234 1235/1235 1236/1236
v 0.870000 0.160000 0.555000
v 0.853004 0.160000 0.552308
v 0.853004 0.300000 0.552308
v 0.870000 0.300000 0.555000
vt 0.000000 0.000000
vt 1.000000 0.000000
vt 1.000000 1.000000
vt 0.000000 1.000000
f 1237/1237 1238/1238 1239/1239 1240/1240
v 0.870000 0.160000 0.500000
v 0.853004 0.160000 0.552308
v 0.870000 0.160000 0.555000
vt 0.000000 0.000000
vt 1.000000 0.000000
vt 1.000000 1.000000
f 1241/1241 1242/1242 1243/1243
v 0.870000 0.300000 0.500000
v 0.870000 0.300000 0.555000
v 0.853004 0.300000 0.552308
vt 0.000000 0.000000
vt 1.000000 0.000000
vt 1.000000 1.000000
f 1244/1244 1245/1245 1246/1246
v 0.853004 0.160000 0.552308
v 0.837672 0.160000 0.544496
v 0.837672 0.300000 0.544496
v 0.853004 0.300000 0.552308
vt 0.000000 0.000000
vt 1.000000 0.000000
vt 1.000000 1.000000
vt 0.000000 1.000000
f 1247/1247 1248/1248 1249/1249 1250/1250
v 0.870000 0.160000 0.500000
v 0.837672 0.160000 0.544496
v 0.853004 0.160000 0.552308
vt 0.000000 0.000000
vt 1.000000 0.000000
vt 1.000000 1.000000
f 1251/1251 1252/1252 1253/1253
v 0.870000 0.300000 0.500000
v 0.853004 0.300000 0.552308
v 0.837672 0.300000 0.544496
vt 0.000000 0.000000
vt 1.000000 0.000000
vt 1.000000 1.000000
f 1254/1254 1255/1255 1256/1256
v 0.837672 0.160000 0.544496
v 0.825504 0.160000 0.532328
v 0.825504 0.300000 0.532328
v 0.837672 0.300000 0.544496
vt 0.000000 0.000000
vt 1.000000 0.000000
vt 1.000000 1.000000
vt 0.000000 1.000000
f 1257/1257 1258/1258 1259/1259 1260/1260
v 0.870000 0.160000 0.500000
v 0.825504 0.160000 0.532328
v 0.837672 0.160000 0.544496
vt 0.000000 0.000000
vt 1.000000 0.000000
vt 1.000000 1.000000
f 1261/1261 1262/1262 1263/1263
v 0.870000 0.300000 0.500000
v 0.837672 0.300000 0.544496
v 0.825504 0.300000 0.532328
vt 0.000000 0.000000
vt 1.000000 0.000000
vt 1.000000 1.000000
f 1264/1264 1265/1265 1266/1266
v 0.825504 0.160000 0.532328
v 0.817692 0.160000 0.516996
v 0.817692 0.300000 0.516996
v 0.825504 0.300000 0.532328
vt 0.000000 0.000000
vt 1.000000 0.000000
vt 1.000000 1.000000
vt 0.000000 1.000000
f 1267/1267 1268/1268 1269/1269 1270/1270
v 0.870000 0.160000 0.500000
v 0.817692 0.160000 0.516996
v 0.825504 0.160000 0.532328
vt 0.000000 0.000000
vt 1.000000 0.000000
vt 1.000000 1.000000
f 1271/1271 1272/1272 1273/1273
v 0.870000 0.300000 0.500000
v 0.825504 0.300000 0.532328
v 0.817692 0.300000 0.516996
vt 0.000000 0.000000
vt 1.000000 0.000000
vt 1.000000 1.000000
f 1274/1274 1275/1275 1276/1276
v 0.817692 0.160000 0.516996
v 0.815000 0.160000 0.500000
v 0.815000 0.300000 0.500000
v 0.817692 0.300000 0.516996
vt 0.000000 0.000000
vt 1.000000 0.000000
vt 1.000000 1.000000
vt 0.000000 1.000000
f 1277/1277 1278/1278 1279/1279 1280/1280
v 0.870000 0.160000 0.500000
v 0.815000 0.160000 0.500000
v 0.817692 0.160000 0.516996
vt 0.000000 0.000000
vt 1.000000 0.000000
vt 1.000000 1.000000
f 1281/1281 1282/1282 1283/1283
v 0.870000 0.300000 0.500000
v 0.817692 0.300000 0.516996
v 0.815000 0.300000 0.500000
vt 0.000000 0.000000
vt 1.000000 0.000000
vt 1.000000 1.000000
f 1284/1284 1285/1285 1286/1286
v 0.815000 0.160000 0.500000
v 0.817692 0.160000 0.483004
v 0.817692 0.300000 0.483004
v 0.815000 0.300000 0.500000
vt 0.000000 0.000000
vt 1.000000 0.000000
vt 1.000000 1.000000
vt 0.000000 1.000000
f 1287/1287 1288/1288 1289/1289 1290/1290
v 0.870000 0.160000 0.500000
v 0.817692 0.160000 0.483004
v 0.815000 0.160000 0.500000
vt 0.000000 0.000000
vt 1.000000 0.000000
vt 1.000000 1.000000
f 1291/1291 1292/1292 1293/1293
v 0.870000 0.300000 0.500000
v 0.815000 0.300000 0.500000
v 0.817692 0.300000 0.483004
vt 0.000000 0.000000
vt 1.000000 0.000000
vt 1.000000 1.000000
f 1294/1294 1295/1295 1296/1296
v 0.817692 0.160000 0.483004
v 0.825504 0.160000 0.467672
v 0.825504 0.300000 0.467672
v 0.817692 0.300000 0.483004
vt 0.000000 0.000000
vt 1.000000 0.000000
vt 1.000000 1.000000
vt 0.000000 1.000000
f 1297/1297 1298/1298 1299/1299 1300/1300
v 0.870000 0.160000 0.500000
v 0.825504 0.160000 0.467672
v 0.817692 0.160000 0.483004
vt 0.000000 0.000000
vt 1.000000 0.000000
vt 1.000000 1.000000
f 1301/1301 1302/1302 1303/1303
v 0.870000 0.300000 0.500000
v 0.817692 0.300000 0.483004
v 0.825504 0.300000 0.467672
vt 0.000000 0.000000
vt 1.000000 0.000000
vt 1.000000 1.000000
f 1304/1304 1305/1305 1306/1306
v 0.825504 0.160000 0.467672
v 0.837672 0.160000 0.455504
v 0.837672 0.300000 0.455504
v 0.825504 0.300000 0.467672
vt 0.000000 0.000000
vt 1.000000 0.000000
vt 1.000000 1.000000
vt 0.000000 1.000000
f 1307/1307 1308/1308 1309/1309 1310/1310
v 0.870000 0.160000 0.500000
v 0.837672 0.160000 0.455504
v 0.825504 0.160000 0.467672
vt 0.000000 0.000000
vt 1.000000 0.000000
vt 1.000000 1.000000
f 1311/1311 1312/1312 1313/1313
v 0.870000 0.300000 0.500000
v 0.825504 0.300000 0.467672
v 0.837672 0.300000 0.455504
vt 0.000000 0.000000
vt 1.000000 0.000000
vt 1.000000 1.000000
f 1314/1314 1315/1315 1316/1316
v 0.837672 0.160000 0.455504
v 0.853004 0.160000 0.447692
v 0.853004 0.300000 0.447692
v 0.837672 0.300000 0.455504
vt 0.000000 0.000000
vt 1.000000 0.000000
vt 1.000000 1.000000
vt 0.000000 1.000000
f 1317/1317 1318/1318 1319/1319 1320/1320
v 0.870000 0.160000 0.500000
v 0.853004 0.160000 0.447692
v 0.837672 0.160000 0.455504
vt 0.000000 0.000000
vt 1.000000 0.000000
vt 1.000000 1.000000
f 1321/1321 1322/1322 1323/1323
v 0.870000 0.300000 0.500000
v 0.837672 0.300000 0.455504
v 0.853004 0.300000 0.447692
vt 0.000000 0.000000
vt 1.000000 0.000000
vt 1.000000 1.000000
f 1324/1324 1325/1325 1326/1326
v 0.853004 0.160000 0.447692
v 0.870000 0.160000 0.445000
v 0.870000 0.300000 0.445000
v 0.853004 0.300000 0.447692
vt 0.000000 0.000000
vt 1.000000 0.000000
vt 1.000000 1.000000
vt 0.000000 1.000000
f 1327/1327 1328/1328 1329/1329 1330/1330
v 0.870000 0.160000 0.500000
v 0.870000 0.160000 0.445000
v 0.853004 0.160000 0.447692
vt 0.000000 0.000000
vt 1.000000 0.000000
vt 1.000000 1.000000
f 1331/1331 1332/1332 1333/1333
v 0.870000 0.300000 0.500000
v 0.853004 0.300000 0.447692
v 0.870000 0.300000 0.445000
vt 0.000000 0.000000
vt 1.000000 0.000000
vt 1.000000 1.000000
f 1334/1334 1335/1335 1336/1336
