mtllib laser_defense.mtl
o laser_defense
s 1
usemtl dark
v 0.100000 0.000000 0.100000
v 0.900000 0.000000 0.100000
v 0.900000 0.220000 0.100000
v 0.100000 0.220000 0.100000
vt 0.000000 0.000000
vt 1.000000 0.000000
vt 1.000000 1.000000
vt 0.000000 1.000000
f 1/1 2/2 3/3 4/4
v 0.900000 0.000000 0.900000
v 0.100000 0.000000 0.900000
v 0.100000 0.220000 0.900000
v 0.900000 0.220000 0.900000
vt 0.000000 0.000000
vt 1.000000 0.000000
vt 1.000000 1.000000
vt 0.000000 1.000000
f 5/5 6/6 7/7 8/8
v 0.100000 0.000000 0.900000
v 0.100000 0.000000 0.100000
v 0.100000 0.220000 0.100000
v 0.100000 0.220000 0.900000
vt 0.000000 0.000000
vt 1.000000 0.000000
vt 1.000000 1.000000
vt 0.000000 1.000000
f 9/9 10/10 11/11 12/12
v 0.900000 0.000000 0.100000
v 0.900000 0.000000 0.900000
v 0.900000 0.220000 0.900000
v 0.900000 0.220000 0.100000
vt 0.000000 0.000000
vt 1.000000 0.000000
vt 1.000000 1.000000
vt 0.000000 1.000000
f 13/13 14/14 15/15 16/16
v 0.100000 0.220000 0.100000
v 0.900000 0.220000 0.100000
v 0.900000 0.220000 0.900000
v 0.100000 0.220000 0.900000
vt 0.000000 0.000000
vt 1.000000 0.000000
vt 1.000000 1.000000
vt 0.000000 1.000000
f 17/17 18/18 19/19 20/20
v 0.100000 0.000000 0.900000
v 0.900000 0.000000 0.900000
v 0.900000 0.000000 0.100000
v 0.100000 0.000000 0.100000
vt 0.000000 0.000000
vt 1.000000 0.000000
vt 1.000000 1.000000
vt 0.000000 1.000000
f 21/21 22/22 23/23 24/24
usemtl body
v 0.180000 0.220000 0.180000
v 0.820000 0.220000 0.180000
v 0.820000 0.550000 0.180000
v 0.180000 0.550000 0.180000
vt 0.000000 0.000000
vt 1.000000 0.000000
vt 1.000000 1.000000
vt 0.000000 1.000000
f 25/25 26/26 27/27 28/28
v 0.820000 0.220000 0.700000
v 0.180000 0.220000 0.700000
v 0.180000 0.550000 0.700000
v 0.820000 0.550000 0.700000
vt 0.000000 0.000000
vt 1.000000 0.000000
vt 1.000000 1.000000
vt 0.000000 1.000000
f 29/29 30/30 31/31 32/32
v 0.180000 0.220000 0.700000
v 0.180000 0.220000 0.180000
v 0.180000 0.550000 0.180000
v 0.180000 0.550000 0.700000
vt 0.000000 0.000000
vt 1.000000 0.000000
vt 1.000000 1.000000
vt 0.000000 1.000000
f 33/33 34/34 35/35 36/36
v 0.820000 0.220000 0.180000
v 0.820000 0.220000 0.700000
v 0.820000 0.550000 0.700000
v 0.820000 0.550000 0.180000
vt 0.000000 0.000000
vt 1.000000 0.000000
vt 1.000000 1.000000
vt 0.000000 1.000000
f 37/37 38/38 39/39 40/40
v 0.180000 0.550000 0.180000
v 0.820000 0.550000 0.180000
v 0.820000 0.550000 0.700000
v 0.180000 0.550000 0.700000
vt 0.000000 0.000000
vt 1.000000 0.000000
vt 1.000000 1.000000
vt 0.000000 1.000000
f 41/41 42/42 43/43 44/44
v 0.180000 0.220000 0.700000
v 0.820000 0.220000 0.700000
v 0.820000 0.220000 0.180000
v 0.180000 0.220000 0.180000
vt 0.000000 0.000000
vt 1.000000 0.000000
vt 1.000000 1.000000
vt 0.000000 1.000000
f 45/45 46/46 47/47 48/48
usemtl dark
v 0.500000 0.520000 0.360000
v 0.537082 0.520000 0.365873
v 0.537082 0.780000 0.365873
v 0.500000 0.780000 0.360000
vt 0.000000 0.000000
vt 0.050000 0.000000
vt 0.050000 1.000000
vt 0.000000 1.000000
f 49/49 50/50 51/51 52/52
v 0.500000 0.520000 0.480000
v 0.537082 0.520000 0.365873
v 0.500000 0.520000 0.360000
vt 0.000000 0.000000
vt 1.000000 0.000000
vt 1.000000 1.000000
f 53/53 54/54 55/55
v 0.500000 0.780000 0.480000
v 0.500000 0.780000 0.360000
v 0.537082 0.780000 0.365873
vt 0.000000 0.000000
vt 1.000000 0.000000
vt 1.000000 1.000000
f 56/56 57/57 58/58
v 0.537082 0.520000 0.365873
v 0.570534 0.520000 0.382918
v 0.570534 0.780000 0.382918
v 0.537082 0.780000 0.365873
vt 0.050000 0.000000
vt 0.100000 0.000000
vt 0.100000 1.000000
vt 0.050000 1.000000
f 59/59 60/60 61/61 62/62
v 0.500000 0.520000 0.480000
v 0.570534 0.520000 0.382918
v 0.537082 0.520000 0.365873
vt 0.000000 0.000000
vt 1.000000 0.000000
vt 1.000000 1.000000
f 63/63 64/64 65/65
v 0.500000 0.780000 0.480000
v 0.537082 0.780000 0.365873
v 0.570534 0.780000 0.382918
vt 0.000000 0.000000
vt 1.000000 0.000000
vt 1.000000 1.000000
f 66/66 67/67 68/68
v 0.570534 0.520000 0.382918
v 0.597082 0.520000 0.409466
v 0.597082 0.780000 0.409466
v 0.570534 0.780000 0.382918
vt 0.100000 0.000000
vt 0.150000 0.000000
vt 0.150000 1.000000
vt 0.100000 1.000000
f 69/69 70/70 71/71 72/72
v 0.500000 0.520000 0.480000
v 0.597082 0.520000 0.409466
v 0.570534 0.520000 0.382918
vt 0.000000 0.000000
vt 1.000000 0.000000
vt 1.000000 1.000000
f 73/73 74/74 75/75
v 0.500000 0.780000 0.480000
v 0.570534 0.780000 0.382918
v 0.597082 0.780000 0.409466
vt 0.000000 0.000000
vt 1.000000 0.000000
vt 1.000000 1.000000
f 76/76 77/77 78/78
v 0.597082 0.520000 0.409466
v 0.614127 0.520000 0.442918
v 0.614127 0.780000 0.442918
v 0.597082 0.780000 0.409466
vt 0.150000 0.000000
vt 0.200000 0.000000
vt 0.200000 1.000000
vt 0.150000 1.000000
f 79/79 80/80 81/81 82/82
v 0.500000 0.520000 0.480000
v 0.614127 0.520000 0.442918
v 0.597082 0.520000 0.409466
vt 0.000000 0.000000
vt 1.000000 0.000000
vt 1.000000 1.000000
f 83/83 84/84 85/85
v 0.500000 0.780000 0.480000
v 0.597082 0.780000 0.409466
v 0.614127 0.780000 0.442918
vt 0.000000 0.000000
vt 1.000000 0.000000
vt 1.000000 1.000000
f 86/86 87/87 88/88
v 0.614127 0.520000 0.442918
v 0.620000 0.520000 0.480000
v 0.620000 0.780000 0.480000
v 0.614127 0.780000 0.442918
vt 0.200000 0.000000
vt 0.250000 0.000000
vt 0.250000 1.000000
vt 0.200000 1.000000
f 89/89 90/90 91/91 92/92
v 0.500000 0.520000 0.480000
v 0.620000 0.520000 0.480000
v 0.614127 0.520000 0.442918
vt 0.000000 0.000000
vt 1.000000 0.000000
vt 1.000000 1.000000
f 93/93 94/94 95/95
v 0.500000 0.780000 0.480000
v 0.614127 0.780000 0.442918
v 0.620000 0.780000 0.480000
vt 0.000000 0.000000
vt 1.000000 0.000000
vt 1.000000 1.000000
f 96/96 97/97 98/98
v 0.620000 0.520000 0.480000
v 0.614127 0.520000 0.517082
v 0.614127 0.780000 0.517082
v 0.620000 0.780000 0.480000
vt 0.250000 0.000000
vt 0.300000 0.000000
vt 0.300000 1.000000
vt 0.250000 1.000000
f 99/99 100/100 101/101 102/102
v 0.500000 0.520000 0.480000
v 0.614127 0.520000 0.517082
v 0.620000 0.520000 0.480000
vt 0.000000 0.000000
vt 1.000000 0.000000
vt 1.000000 1.000000
f 103/103 104/104 105/105
v 0.500000 0.780000 0.480000
v 0.620000 0.780000 0.480000
v 0.614127 0.780000 0.517082
vt 0.000000 0.000000
vt 1.000000 0.000000
vt 1.000000 1.000000
f 106/106 107/107 108/108
v 0.614127 0.520000 0.517082
v 0.597082 0.520000 0.550534
v 0.597082 0.780000 0.550534
v 0.614127 0.780000 0.517082
vt 0.300000 0.000000
vt 0.350000 0.000000
vt 0.350000 1.000000
vt 0.300000 1.000000
f 109/109 110/110 111/111 112/112
v 0.500000 0.520000 0.480000
v 0.597082 0.520000 0.550534
v 0.614127 0.520000 0.517082
vt 0.000000 0.000000
vt 1.000000 0.000000
vt 1.000000 1.000000
f 113/113 114/114 115/115
v 0.500000 0.780000 0.480000
v 0.614127 0.780000 0.517082
v 0.597082 0.780000 0.550534
vt 0.000000 0.000000
vt 1.000000 0.000000
vt 1.000000 1.000000
f 116/116 117/117 118/118
v 0.597082 0.520000 0.550534
v 0.570534 0.520000 0.577082
v 0.570534 0.780000 0.577082
v 0.597082 0.780000 0.550534
vt 0.350000 0.000000
vt 0.400000 0.000000
vt 0.400000 1.000000
vt 0.350000 1.000000
f 119/119 120/120 121/121 122/122
v 0.500000 0.520000 0.480000
v 0.570534 0.520000 0.577082
v 0.597082 0.520000 0.550534
vt 0.000000 0.000000
vt 1.000000 0.000000
vt 1.000000 1.000000
f 123/123 124/124 125/125
v 0.500000 0.780000 0.480000
v 0.597082 0.780000 0.550534
v 0.570534 0.780000 0.577082
vt 0.000000 0.000000
vt 1.000000 0.000000
vt 1.000000 1.000000
f 126/126 127/127 128/128
v 0.570534 0.520000 0.577082
v 0.537082 0.520000 0.594127
v 0.537082 0.780000 0.594127
v 0.570534 0.780000 0.577082
vt 0.400000 0.000000
vt 0.450000 0.000000
vt 0.450000 1.000000
vt 0.400000 1.000000
f 129/129 130/130 131/131 132/132
v 0.500000 0.520000 0.480000
v 0.537082 0.520000 0.594127
v 0.570534 0.520000 0.577082
vt 0.000000 0.000000
vt 1.000000 0.000000
vt 1.000000 1.000000
f 133/133 134/134 135/135
v 0.500000 0.780000 0.480000
v 0.570534 0.780000 0.577082
v 0.537082 0.780000 0.594127
vt 0.000000 0.000000
vt 1.000000 0.000000
vt 1.000000 1.000000
f 136/136 137/137 138/138
v 0.537082 0.520000 0.594127
v 0.500000 0.520000 0.600000
v 0.500000 0.780000 0.600000
v 0.537082 0.780000 0.594127
vt 0.450000 0.000000
vt 0.500000 0.000000
vt 0.500000 1.000000
vt 0.450000 1.000000
f 139/139 140/140 141/141 142/142
v 0.500000 0.520000 0.480000
v 0.500000 0.520000 0.600000
v 0.537082 0.520000 0.594127
vt 0.000000 0.000000
vt 1.000000 0.000000
vt 1.000000 1.000000
f 143/143 144/144 145/145
v 0.500000 0.780000 0.480000
v 0.537082 0.780000 0.594127
v 0.500000 0.780000 0.600000
vt 0.000000 0.000000
vt 1.000000 0.000000
vt 1.000000 1.000000
f 146/146 147/147 148/148
v 0.500000 0.520000 0.600000
v 0.462918 0.520000 0.594127
v 0.462918 0.780000 0.594127
v 0.500000 0.780000 0.600000
vt 0.500000 0.000000
vt 0.550000 0.000000
vt 0.550000 1.000000
vt 0.500000 1.000000
f 149/149 150/150 151/151 152/152
v 0.500000 0.520000 0.480000
v 0.462918 0.520000 0.594127
v 0.500000 0.520000 0.600000
vt 0.000000 0.000000
vt 1.000000 0.000000
vt 1.000000 1.000000
f 153/153 154/154 155/155
v 0.500000 0.780000 0.480000
v 0.500000 0.780000 0.600000
v 0.462918 0.780000 0.594127
vt 0.000000 0.000000
vt 1.000000 0.000000
vt 1.000000 1.000000
f 156/156 157/157 158/158
v 0.462918 0.520000 0.594127
v 0.429466 0.520000 0.577082
v 0.429466 0.780000 0.577082
v 0.462918 0.780000 0.594127
vt 0.550000 0.000000
vt 0.600000 0.000000
vt 0.600000 1.000000
vt 0.550000 1.000000
f 159/159 160/160 161/161 162/162
v 0.500000 0.520000 0.480000
v 0.429466 0.520000 0.577082
v 0.462918 0.520000 0.594127
vt 0.000000 0.000000
vt 1.000000 0.000000
vt 1.000000 1.000000
f 163/163 164/164 165/165
v 0.500000 0.780000 0.480000
v 0.462918 0.780000 0.594127
v 0.429466 0.780000 0.577082
vt 0.000000 0.000000
vt 1.000000 0.000000
vt 1.000000 1.000000
f 166/166 167/167 168/168
v 0.429466 0.520000 0.577082
v 0.402918 0.520000 0.550534
v 0.402918 0.780000 0.550534
v 0.429466 0.780000 0.577082
vt 0.600000 0.000000
vt 0.650000 0.000000
vt 0.650000 1.000000
vt 0.600000 1.000000
f 169/169 170/170 171/171 172/172
v 0.500000 0.520000 0.480000
v 0.402918 0.520000 0.550534
v 0.429466 0.520000 0.577082
vt 0.000000 0.000000
vt 1.000000 0.000000
vt 1.000000 1.000000
f 173/173 174/174 175/175
v 0.500000 0.780000 0.480000
v 0.429466 0.780000 0.577082
v 0.402918 0.780000 0.550534
vt 0.000000 0.000000
vt 1.000000 0.000000
vt 1.000000 1.000000
f 176/176 177/177 178/178
v 0.402918 0.520000 0.550534
v 0.385873 0.520000 0.517082
v 0.385873 0.780000 0.517082
v 0.402918 0.780000 0.550534
vt 0.650000 0.000000
vt 0.700000 0.000000
vt 0.700000 1.000000
vt 0.650000 1.000000
f 179/179 180/180 181/181 182/182
v 0.500000 0.520000 0.480000
v 0.385873 0.520000 0.517082
v 0.402918 0.520000 0.550534
vt 0.000000 0.000000
vt 1.000000 0.000000
vt 1.000000 1.000000
f 183/183 184/184 185/185
v 0.500000 0.780000 0.480000
v 0.402918 0.780000 0.550534
v 0.385873 0.780000 0.517082
vt 0.000000 0.000000
vt 1.000000 0.000000
vt 1.000000 1.000000
f 186/186 187/187 188/188
v 0.385873 0.520000 0.517082
v 0.380000 0.520000 0.480000
v 0.380000 0.780000 0.480000
v 0.385873 0.780000 0.517082
vt 0.700000 0.000000
vt 0.750000 0.000000
vt 0.750000 1.000000
vt 0.700000 1.000000
f 189/189 190/190 191/191 192/192
v 0.500000 0.520000 0.480000
v 0.380000 0.520000 0.480000
v 0.385873 0.520000 0.517082
vt 0.000000 0.000000
vt 1.000000 0.000000
vt 1.000000 1.000000
f 193/193 194/194 195/195
v 0.500000 0.780000 0.480000
v 0.385873 0.780000 0.517082
v 0.380000 0.780000 0.480000
vt 0.000000 0.000000
vt 1.000000 0.000000
vt 1.000000 1.000000
f 196/196 197/197 198/198
v 0.380000 0.520000 0.480000
v 0.385873 0.520000 0.442918
v 0.385873 0.780000 0.442918
v 0.380000 0.780000 0.480000
vt 0.750000 0.000000
vt 0.800000 0.000000
vt 0.800000 1.000000
vt 0.750000 1.000000
f 199/199 200/200 201/201 202/202
v 0.500000 0.520000 0.480000
v 0.385873 0.520000 0.442918
v 0.380000 0.520000 0.480000
vt 0.000000 0.000000
vt 1.000000 0.000000
vt 1.000000 1.000000
f 203/203 204/204 205/205
v 0.500000 0.780000 0.480000
v 0.380000 0.780000 0.480000
v 0.385873 0.780000 0.442918
vt 0.000000 0.000000
vt 1.000000 0.000000
vt 1.000000 1.000000
f 206/206 207/207 208/208
v 0.385873 0.520000 0.442918
v 0.402918 0.520000 0.409466
v 0.402918 0.780000 0.409466
v 0.385873 0.780000 0.442918
vt 0.800000 0.000000
vt 0.850000 0.000000
vt 0.850000 1.000000
vt 0.800000 1.000000
f 209/209 210/210 211/211 212/212
v 0.500000 0.520000 0.480000
v 0.402918 0.520000 0.409466
v 0.385873 0.520000 0.442918
vt 0.000000 0.000000
vt 1.000000 0.000000
vt 1.000000 1.000000
f 213/213 214/214 215/215
v 0.500000 0.780000 0.480000
v 0.385873 0.780000 0.442918
v 0.402918 0.780000 0.409466
vt 0.000000 0.000000
vt 1.000000 0.000000
vt 1.000000 1.000000
f 216/216 217/217 218/218
v 0.402918 0.520000 0.409466
v 0.429466 0.520000 0.382918
v 0.429466 0.780000 0.382918
v 0.402918 0.780000 0.409466
vt 0.850000 0.000000
vt 0.900000 0.000000
vt 0.900000 1.000000
vt 0.850000 1.000000
f 219/219 220/220 221/221 222/222
v 0.500000 0.520000 0.480000
v 0.429466 0.520000 0.382918
v 0.402918 0.520000 0.409466
vt 0.000000 0.000000
vt 1.000000 0.000000
vt 1.000000 1.000000
f 223/223 224/224 225/225
v 0.500000 0.780000 0.480000
v 0.402918 0.780000 0.409466
v 0.429466 0.780000 0.382918
vt 0.000000 0.000000
vt 1.000000 0.000000
vt 1.000000 1.000000
f 226/226 227/227 228/228
v 0.429466 0.520000 0.382918
v 0.462918 0.520000 0.365873
v 0.462918 0.780000 0.365873
v 0.429466 0.780000 0.382918
vt 0.900000 0.000000
vt 0.950000 0.000000
vt 0.950000 1.000000
vt 0.900000 1.000000
f 229/229 230/230 231/231 232/232
v 0.500000 0.520000 0.480000
v 0.462918 0.520000 0.365873
v 0.429466 0.520000 0.382918
vt 0.000000 0.000000
vt 1.000000 0.000000
vt 1.000000 1.000000
f 233/233 234/234 235/235
v 0.500000 0.780000 0.480000
v 0.429466 0.780000 0.382918
v 0.462918 0.780000 0.365873
vt 0.000000 0.000000
vt 1.000000 0.000000
vt 1.000000 1.000000
f 236/236 237/237 238/238
v 0.462918 0.520000 0.365873
v 0.500000 0.520000 0.360000
v 0.500000 0.780000 0.360000
v 0.462918 0.780000 0.365873
vt 0.950000 0.000000
vt 1.000000 0.000000
vt 1.000000 1.000000
vt 0.950000 1.000000
f 239/239 240/240 241/241 242/242
v 0.500000 0.520000 0.480000
v 0.500000 0.520000 0.360000
v 0.462918 0.520000 0.365873
vt 0.000000 0.000000
vt 1.000000 0.000000
vt 1.000000 1.000000
f 243/243 244/244 245/245
v 0.500000 0.780000 0.480000
v 0.462918 0.780000 0.365873
v 0.500000 0.780000 0.360000
vt 0.000000 0.000000
vt 1.000000 0.000000
vt 1.000000 1.000000
f 246/246 247/247 248/248
usemtl white
v 0.420000 0.700000 0.480000
v 0.423915 0.724721 0.480000
v 0.423915 0.724721 1.050000
v 0.420000 0.700000 1.050000
vt 0.000000 0.000000
vt 0.050000 0.000000
vt 0.050000 1.000000
vt 0.000000 1.000000
f 249/249 250/250 251/251 252/252
v 0.500000 0.700000 0.480000
v 0.423915 0.724721 0.480000
v 0.420000 0.700000 0.480000
vt 0.000000 0.000000
vt 1.000000 0.000000
vt 1.000000 1.000000
f 253/253 254/254 255/255
v 0.500000 0.700000 1.050000
v 0.420000 0.700000 1.050000
v 0.423915 0.724721 1.050000
vt 0.000000 0.000000
vt 1.000000 0.000000
vt 1.000000 1.000000
f 256/256 257/257 258/258
v 0.423915 0.724721 0.480000
v 0.435279 0.747023 0.480000
v 0.435279 0.747023 1.050000
v 0.423915 0.724721 1.050000
vt 0.050000 0.000000
vt 0.100000 0.000000
vt 0.100000 1.000000
vt 0.050000 1.000000
f 259/259 260/260 261/261 262/262
v 0.500000 0.700000 0.480000
v 0.435279 0.747023 0.480000
v 0.423915 0.724721 0.480000
vt 0.000000 0.000000
vt 1.000000 0.000000
vt 1.000000 1.000000
f 263/263 264/264 265/265
v 0.500000 0.700000 1.050000
v 0.423915 0.724721 1.050000
v 0.435279 0.747023 1.050000
vt 0.000000 0.000000
vt 1.000000 0.000000
vt 1.000000 1.000000
f 266/266 267/267 268/268
v 0.435279 0.747023 0.480000
v 0.452977 0.764721 0.480000
v 0.452977 0.764721 1.050000
v 0.435279 0.747023 1.050000
vt 0.100000 0.000000
vt 0.150000 0.000000
vt 0.150000 1.000000
vt 0.100000 1.000000
f 269/269 270/270 271/271 272/272
v 0.500000 0.700000 0.480000
v 0.452977 0.764721 0.480000
v 0.435279 0.747023 0.480000
vt 0.000000 0.000000
vt 1.000000 0.000000
vt 1.000000 1.000000
f 273/273 274/274 275/275
v 0.500000 0.700000 1.050000
v 0.435279 0.747023 1.050000
v 0.452977 0.764721 1.050000
vt 0.000000 0.000000
vt 1.000000 0.000000
vt 1.000000 1.000000
f 276/276 277/277 278/278
v 0.452977 0.764721 0.480000
v 0.475279 0.776085 0.480000
v 0.475279 0.776085 1.050000
v 0.452977 0.764721 1.050000
vt 0.150000 0.000000
vt 0.200000 0.000000
vt 0.200000 1.000000
vt 0.150000 1.000000
f 279/279 280/280 281/281 282/282
v 0.500000 0.700000 0.480000
v 0.475279 0.776085 0.480000
v 0.452977 0.764721 0.480000
vt 0.000000 0.000000
vt 1.000000 0.000000
vt 1.000000 1.000000
f 283/283 284/284 285/285
v 0.500000 0.700000 1.050000
v 0.452977 0.764721 1.050000
v 0.475279 0.776085 1.050000
vt 0.000000 0.000000
vt 1.000000 0.000000
vt 1.000000 1.000000
f 286/286 287/287 288/288
v 0.475279 0.776085 0.480000
v 0.500000 0.780000 0.480000
v 0.500000 0.780000 1.050000
v 0.475279 0.776085 1.050000
vt 0.200000 0.000000
vt 0.250000 0.000000
vt 0.250000 1.000000
vt 0.200000 1.000000
f 289/289 290/290 291/291 292/292
v 0.500000 0.700000 0.480000
v 0.500000 0.780000 0.480000
v 0.475279 0.776085 0.480000
vt 0.000000 0.000000
vt 1.000000 0.000000
vt 1.000000 1.000000
f 293/293 294/294 295/295
v 0.500000 0.700000 1.050000
v 0.475279 0.776085 1.050000
v 0.500000 0.780000 1.050000
vt 0.000000 0.000000
vt 1.000000 0.000000
vt 1.000000 1.000000
f 296/296 297/297 298/298
v 0.500000 0.780000 0.480000
v 0.524721 0.776085 0.480000
v 0.524721 0.776085 1.050000
v 0.500000 0.780000 1.050000
vt 0.250000 0.000000
vt 0.300000 0.000000
vt 0.300000 1.000000
vt 0.250000 1.000000
f 299/299 300/300 301/301 302/302
v 0.500000 0.700000 0.480000
v 0.524721 0.776085 0.480000
v 0.500000 0.780000 0.480000
vt 0.000000 0.000000
vt 1.000000 0.000000
vt 1.000000 1.000000
f 303/303 304/304 305/305
v 0.500000 0.700000 1.050000
v 0.500000 0.780000 1.050000
v 0.524721 0.776085 1.050000
vt 0.000000 0.000000
vt 1.000000 0.000000
vt 1.000000 1.000000
f 306/306 307/307 308/308
v 0.524721 0.776085 0.480000
v 0.547023 0.764721 0.480000
v 0.547023 0.764721 1.050000
v 0.524721 0.776085 1.050000
vt 0.300000 0.000000
vt 0.350000 0.000000
vt 0.350000 1.000000
vt 0.300000 1.000000
f 309/309 310/310 311/311 312/312
v 0.500000 0.700000 0.480000
v 0.547023 0.764721 0.480000
v 0.524721 0.776085 0.480000
vt 0.000000 0.000000
vt 1.000000 0.000000
vt 1.000000 1.000000
f 313/313 314/314 315/315
v 0.500000 0.700000 1.050000
v 0.524721 0.776085 1.050000
v 0.547023 0.764721 1.050000
vt 0.000000 0.000000
vt 1.000000 0.000000
vt 1.000000 1.000000
f 316/316 317/317 318/318
v 0.547023 0.764721 0.480000
v 0.564721 0.747023 0.480000
v 0.564721 0.747023 1.050000
v 0.547023 0.764721 1.050000
vt 0.350000 0.000000
vt 0.400000 0.000000
vt 0.400000 1.000000
vt 0.350000 1.000000
f 319/319 320/320 321/321 322/322
v 0.500000 0.700000 0.480000
v 0.564721 0.747023 0.480000
v 0.547023 0.764721 0.480000
vt 0.000000 0.000000
vt 1.000000 0.000000
vt 1.000000 1.000000
f 323/323 324/324 325/325
v 0.500000 0.700000 1.050000
v 0.547023 0.764721 1.050000
v 0.564721 0.747023 1.050000
vt 0.000000 0.000000
vt 1.000000 0.000000
vt 1.000000 1.000000
f 326/326 327/327 328/328
v 0.564721 0.747023 0.480000
v 0.576085 0.724721 0.480000
v 0.576085 0.724721 1.050000
v 0.564721 0.747023 1.050000
vt 0.400000 0.000000
vt 0.450000 0.000000
vt 0.450000 1.000000
vt 0.400000 1.000000
f 329/329 330/330 331/331 332/332
v 0.500000 0.700000 0.480000
v 0.576085 0.724721 0.480000
v 0.564721 0.747023 0.480000
vt 0.000000 0.000000
vt 1.000000 0.000000
vt 1.000000 1.000000
f 333/333 334/334 335/335
v 0.500000 0.700000 1.050000
v 0.564721 0.747023 1.050000
v 0.576085 0.724721 1.050000
vt 0.000000 0.000000
vt 1.000000 0.000000
vt 1.000000 1.000000
f 336/336 337/337 338/338
v 0.576085 0.724721 0.480000
v 0.580000 0.700000 0.480000
v 0.580000 0.700000 1.050000
v 0.576085 0.724721 1.050000
vt 0.450000 0.000000
vt 0.500000 0.000000
vt 0.500000 1.000000
vt 0.450000 1.000000
f 339/339 340/340 341/341 342/342
v 0.500000 0.700000 0.480000
v 0.580000 0.700000 0.480000
v 0.576085 0.724721 0.480000
vt 0.000000 0.000000
vt 1.000000 0.000000
vt 1.000000 1.000000
f 343/343 344/344 345/345
v 0.500000 0.700000 1.050000
v 0.576085 0.724721 1.050000
v 0.580000 0.700000 1.050000
vt 0.000000 0.000000
vt 1.000000 0.000000
vt 1.000000 1.000000
f 346/346 347/347 348/348
v 0.580000 0.700000 0.480000
v 0.576085 0.675279 0.480000
v 0.576085 0.675279 1.050000
v 0.580000 0.700000 1.050000
vt 0.500000 0.000000
vt 0.550000 0.000000
vt 0.550000 1.000000
vt 0.500000 1.000000
f 349/349 350/350 351/351 352/352
v 0.500000 0.700000 0.480000
v 0.576085 0.675279 0.480000
v 0.580000 0.700000 0.480000
vt 0.000000 0.000000
vt 1.000000 0.000000
vt 1.000000 1.000000
f 353/353 354/354 355/355
v 0.500000 0.700000 1.050000
v 0.580000 0.700000 1.050000
v 0.576085 0.675279 1.050000
vt 0.000000 0.000000
vt 1.000000 0.000000
vt 1.000000 1.000000
f 356/356 357/357 358/358
v 0.576085 0.675279 0.480000
v 0.564721 0.652977 0.480000
v 0.564721 0.652977 1.050000
v 0.576085 0.675279 1.050000
vt 0.550000 0.000000
vt 0.600000 0.000000
vt 0.600000 1.000000
vt 0.550000 1.000000
f 359/359 360/360 361/361 362/362
v 0.500000 0.700000 0.480000
v 0.564721 0.652977 0.480000
v 0.576085 0.675279 0.480000
vt 0.000000 0.000000
vt 1.000000 0.000000
vt 1.000000 1.000000
f 363/363 364/364 365/365
v 0.500000 0.700000 1.050000
v 0.576085 0.675279 1.050000
v 0.564721 0.652977 1.050000
vt 0.000000 0.000000
vt 1.000000 0.000000
vt 1.000000 1.000000
f 366/366 367/367 368/368
v 0.564721 0.652977 0.480000
v 0.547023 0.635279 0.480000
v 0.547023 0.635279 1.050000
v 0.564721 0.652977 1.050000
vt 0.600000 0.000000
vt 0.650000 0.000000
vt 0.650000 1.000000
vt 0.600000 1.000000
f 369/369 370/370 371/371 372/372
v 0.500000 0.700000 0.480000
v 0.547023 0.635279 0.480000
v 0.564721 0.652977 0.480000
vt 0.000000 0.000000
vt 1.000000 0.000000
vt 1.000000 1.000000
f 373/373 374/374 375/375
v 0.500000 0.700000 1.050000
v 0.564721 0.652977 1.050000
v 0.547023 0.635279 1.050000
vt 0.000000 0.000000
vt 1.000000 0.000000
vt 1.000000 1.000000
f 376/376 377/377 378/378
v 0.547023 0.635279 0.480000
v 0.524721 0.623915 0.480000
v 0.524721 0.623915 1.050000
v 0.547023 0.635279 1.050000
vt 0.650000 0.000000
vt 0.700000 0.000000
vt 0.700000 1.000000
vt 0.650000 1.000000
f 379/379 380/380 381/381 382/382
v 0.500000 0.700000 0.480000
v 0.524721 0.623915 0.480000
v 0.547023 0.635279 0.480000
vt 0.000000 0.000000
vt 1.000000 0.000000
vt 1.000000 1.000000
f 383/383 384/384 385/385
v 0.500000 0.700000 1.050000
v 0.547023 0.635279 1.050000
v 0.524721 0.623915 1.050000
vt 0.000000 0.000000
vt 1.000000 0.000000
vt 1.000000 1.000000
f 386/386 387/387 388/388
v 0.524721 0.623915 0.480000
v 0.500000 0.620000 0.480000
v 0.500000 0.620000 1.050000
v 0.524721 0.623915 1.050000
vt 0.700000 0.000000
vt 0.750000 0.000000
vt 0.750000 1.000000
vt 0.700000 1.000000
f 389/389 390/390 391/391 392/392
v 0.500000 0.700000 0.480000
v 0.500000 0.620000 0.480000
v 0.524721 0.623915 0.480000
vt 0.000000 0.000000
vt 1.000000 0.000000
vt 1.000000 1.000000
f 393/393 394/394 395/395
v 0.500000 0.700000 1.050000
v 0.524721 0.623915 1.050000
v 0.500000 0.620000 1.050000
vt 0.000000 0.000000
vt 1.000000 0.000000
vt 1.000000 1.000000
f 396/396 397/397 398/398
v 0.500000 0.620000 0.480000
v 0.475279 0.623915 0.480000
v 0.475279 0.623915 1.050000
v 0.500000 0.620000 1.050000
vt 0.750000 0.000000
vt 0.800000 0.000000
vt 0.800000 1.000000
vt 0.750000 1.000000
f 399/399 400/400 401/401 402/402
v 0.500000 0.700000 0.480000
v 0.475279 0.623915 0.480000
v 0.500000 0.620000 0.480000
vt 0.000000 0.000000
vt 1.000000 0.000000
vt 1.000000 1.000000
f 403/403 404/404 405/405
v 0.500000 0.700000 1.050000
v 0.500000 0.620000 1.050000
v 0.475279 0.623915 1.050000
vt 0.000000 0.000000
vt 1.000000 0.000000
vt 1.000000 1.000000
f 406/406 407/407 408/408
v 0.475279 0.623915 0.480000
v 0.452977 0.635279 0.480000
v 0.452977 0.635279 1.050000
v 0.475279 0.623915 1.050000
vt 0.800000 0.000000
vt 0.850000 0.000000
vt 0.850000 1.000000
vt 0.800000 1.000000
f 409/409 410/410 411/411 412/412
v 0.500000 0.700000 0.480000
v 0.452977 0.635279 0.480000
v 0.475279 0.623915 0.480000
vt 0.000000 0.000000
vt 1.000000 0.000000
vt 1.000000 1.000000
f 413/413 414/414 415/415
v 0.500000 0.700000 1.050000
v 0.475279 0.623915 1.050000
v 0.452977 0.635279 1.050000
vt 0.000000 0.000000
vt 1.000000 0.000000
vt 1.000000 1.000000
f 416/416 417/417 418/418
v 0.452977 0.635279 0.480000
v 0.435279 0.652977 0.480000
v 0.435279 0.652977 1.050000
v 0.452977 0.635279 1.050000
vt 0.850000 0.000000
vt 0.900000 0.000000
vt 0.900000 1.000000
vt 0.850000 1.000000
f 419/419 420/420 421/421 422/422
v 0.500000 0.700000 0.480000
v 0.435279 0.652977 0.480000
v 0.452977 0.635279 0.480000
vt 0.000000 0.000000
vt 1.000000 0.000000
vt 1.000000 1.000000
f 423/423 424/424 425/425
v 0.500000 0.700000 1.050000
v 0.452977 0.635279 1.050000
v 0.435279 0.652977 1.050000
vt 0.000000 0.000000
vt 1.000000 0.000000
vt 1.000000 1.000000
f 426/426 427/427 428/428
v 0.435279 0.652977 0.480000
v 0.423915 0.675279 0.480000
v 0.423915 0.675279 1.050000
v 0.435279 0.652977 1.050000
vt 0.900000 0.000000
vt 0.950000 0.000000
vt 0.950000 1.000000
vt 0.900000 1.000000
f 429/429 430/430 431/431 432/432
v 0.500000 0.700000 0.480000
v 0.423915 0.675279 0.480000
v 0.435279 0.652977 0.480000
vt 0.000000 0.000000
vt 1.000000 0.000000
vt 1.000000 1.000000
f 433/433 434/434 435/435
v 0.500000 0.700000 1.050000
v 0.435279 0.652977 1.050000
v 0.423915 0.675279 1.050000
vt 0.000000 0.000000
vt 1.000000 0.000000
vt 1.000000 1.000000
f 436/436 437/437 438/438
v 0.423915 0.675279 0.480000
v 0.420000 0.700000 0.480000
v 0.420000 0.700000 1.050000
v 0.423915 0.675279 1.050000
vt 0.950000 0.000000
vt 1.000000 0.000000
vt 1.000000 1.000000
vt 0.950000 1.000000
f 439/439 440/440 441/441 442/442
v 0.500000 0.700000 0.480000
v 0.420000 0.700000 0.480000
v 0.423915 0.675279 0.480000
vt 0.000000 0.000000
vt 1.000000 0.000000
vt 1.000000 1.000000
f 443/443 444/444 445/445
v 0.500000 0.700000 1.050000
v 0.423915 0.675279 1.050000
v 0.420000 0.700000 1.050000
vt 0.000000 0.000000
vt 1.000000 0.000000
vt 1.000000 1.000000
f 446/446 447/447 448/448
usemtl glass
v 0.400000 0.700000 1.020000
v 0.407612 0.738268 1.020000
v 0.407612 0.738268 1.120000
v 0.400000 0.700000 1.120000
vt 0.000000 0.000000
vt 0.062500 0.000000
vt 0.062500 1.000000
vt 0.000000 1.000000
f 449/449 450/450 451/451 452/452
v 0.500000 0.700000 1.020000
v 0.407612 0.738268 1.020000
v 0.400000 0.700000 1.020000
vt 0.000000 0.000000
vt 1.000000 0.000000
vt 1.000000 1.000000
f 453/453 454/454 455/455
v 0.500000 0.700000 1.120000
v 0.400000 0.700000 1.120000
v 0.407612 0.738268 1.120000
vt 0.000000 0.000000
vt 1.000000 0.000000
vt 1.000000 1.000000
f 456/456 457/457 458/458
v 0.407612 0.738268 1.020000
v 0.429289 0.770711 1.020000
v 0.429289 0.770711 1.120000
v 0.407612 0.738268 1.120000
vt 0.062500 0.000000
vt 0.125000 0.000000
vt 0.125000 1.000000
vt 0.062500 1.000000
f 459/459 460/460 461/461 462/462
v 0.500000 0.700000 1.020000
v 0.429289 0.770711 1.020000
v 0.407612 0.738268 1.020000
vt 0.000000 0.000000
vt 1.000000 0.000000
vt 1.000000 1.000000
f 463/463 464/464 465/465
v 0.500000 0.700000 1.120000
v 0.407612 0.738268 1.120000
v 0.429289 0.770711 1.120000
vt 0.000000 0.000000
vt 1.000000 0.000000
vt 1.000000 1.000000
f 466/466 467/467 468/468
v 0.429289 0.770711 1.020000
v 0.461732 0.792388 1.020000
v 0.461732 0.792388 1.120000
v 0.429289 0.770711 1.120000
vt 0.125000 0.000000
vt 0.187500 0.000000
vt 0.187500 1.000000
vt 0.125000 1.000000
f 469/469 470/470 471/471 472/472
v 0.500000 0.700000 1.020000
v 0.461732 0.792388 1.020000
v 0.429289 0.770711 1.020000
vt 0.000000 0.000000
vt 1.000000 0.000000
vt 1.000000 1.000000
f 473/473 474/474 475/475
v 0.500000 0.700000 1.120000
v 0.429289 0.770711 1.120000
v 0.461732 0.792388 1.120000
vt 0.000000 0.000000
vt 1.000000 0.000000
vt 1.000000 1.000000
f 476/476 477/477 478/478
v 0.461732 0.792388 1.020000
v 0.500000 0.800000 1.020000
v 0.500000 0.800000 1.120000
v 0.461732 0.792388 1.120000
vt 0.187500 0.000000
vt 0.250000 0.000000
vt 0.250000 1.000000
vt 0.187500 1.000000
f 479/479 480/480 481/481 482/482
v 0.500000 0.700000 1.020000
v 0.500000 0.800000 1.020000
v 0.461732 0.792388 1.020000
vt 0.000000 0.000000
vt 1.000000 0.000000
vt 1.000000 1.000000
f 483/483 484/484 485/485
v 0.500000 0.700000 1.120000
v 0.461732 0.792388 1.120000
v 0.500000 0.800000 1.120000
vt 0.000000 0.000000
vt 1.000000 0.000000
vt 1.000000 1.000000
f 486/486 487/487 488/488
v 0.500000 0.800000 1.020000
v 0.538268 0.792388 1.020000
v 0.538268 0.792388 1.120000
v 0.500000 0.800000 1.120000
vt 0.250000 0.000000
vt 0.312500 0.000000
vt 0.312500 1.000000
vt 0.250000 1.000000
f 489/489 490/490 491/491 492/492
v 0.500000 0.700000 1.020000
v 0.538268 0.792388 1.020000
v 0.500000 0.800000 1.020000
vt 0.000000 0.000000
vt 1.000000 0.000000
vt 1.000000 1.000000
f 493/493 494/494 495/495
v 0.500000 0.700000 1.120000
v 0.500000 0.800000 1.120000
v 0.538268 0.792388 1.120000
vt 0.000000 0.000000
vt 1.000000 0.000000
vt 1.000000 1.000000
f 496/496 497/497 498/498
v 0.538268 0.792388 1.020000
v 0.570711 0.770711 1.020000
v 0.570711 0.770711 1.120000
v 0.538268 0.792388 1.120000
vt 0.312500 0.000000
vt 0.375000 0.000000
vt 0.375000 1.000000
vt 0.312500 1.000000
f 499/499 500/500 501/501 502/502
v 0.500000 0.700000 1.020000
v 0.570711 0.770711 1.020000
v 0.538268 0.792388 1.020000
vt 0.000000 0.000000
vt 1.000000 0.000000
vt 1.000000 1.000000
f 503/503 504/504 505/505
v 0.500000 0.700000 1.120000
v 0.538268 0.792388 1.120000
v 0.570711 0.770711 1.120000
vt 0.000000 0.000000
vt 1.000000 0.000000
vt 1.000000 1.000000
f 506/506 507/507 508/508
v 0.570711 0.770711 1.020000
v 0.592388 0.738268 1.020000
v 0.592388 0.738268 1.120000
v 0.570711 0.770711 1.120000
vt 0.375000 0.000000
vt 0.437500 0.000000
vt 0.437500 1.000000
vt 0.375000 1.000000
f 509/509 510/510 511/511 512/512
v 0.500000 0.700000 1.020000
v 0.592388 0.738268 1.020000
v 0.570711 0.770711 1.020000
vt 0.000000 0.000000
vt 1.000000 0.000000
vt 1.000000 1.000000
f 513/513 514/514 515/515
v 0.500000 0.700000 1.120000
v 0.570711 0.770711 1.120000
v 0.592388 0.738268 1.120000
vt 0.000000 0.000000
vt 1.000000 0.000000
vt 1.000000 1.000000
f 516/516 517/517 518/518
v 0.592388 0.738268 1.020000
v 0.600000 0.700000 1.020000
v 0.600000 0.700000 1.120000
v 0.592388 0.738268 1.120000
vt 0.437500 0.000000
vt 0.500000 0.000000
vt 0.500000 1.000000
vt 0.437500 1.000000
f 519/519 520/520 521/521 522/522
v 0.500000 0.700000 1.020000
v 0.600000 0.700000 1.020000
v 0.592388 0.738268 1.020000
vt 0.000000 0.000000
vt 1.000000 0.000000
vt 1.000000 1.000000
f 523/523 524/524 525/525
v 0.500000 0.700000 1.120000
v 0.592388 0.738268 1.120000
v 0.600000 0.700000 1.120000
vt 0.000000 0.000000
vt 1.000000 0.000000
vt 1.000000 1.000000
f 526/526 527/527 528/528
v 0.600000 0.700000 1.020000
v 0.592388 0.661732 1.020000
v 0.592388 0.661732 1.120000
v 0.600000 0.700000 1.120000
vt 0.500000 0.000000
vt 0.562500 0.000000
vt 0.562500 1.000000
vt 0.500000 1.000000
f 529/529 530/530 531/531 532/532
v 0.500000 0.700000 1.020000
v 0.592388 0.661732 1.020000
v 0.600000 0.700000 1.020000
vt 0.000000 0.000000
vt 1.000000 0.000000
vt 1.000000 1.000000
f 533/533 534/534 535/535
v 0.500000 0.700000 1.120000
v 0.600000 0.700000 1.120000
v 0.592388 0.661732 1.120000
vt 0.000000 0.000000
vt 1.000000 0.000000
vt 1.000000 1.000000
f 536/536 537/537 538/538
v 0.592388 0.661732 1.020000
v 0.570711 0.629289 1.020000
v 0.570711 0.629289 1.120000
v 0.592388 0.661732 1.120000
vt 0.562500 0.000000
vt 0.625000 0.000000
vt 0.625000 1.000000
vt 0.562500 1.000000
f 539/539 540/540 541/541 542/542
v 0.500000 0.700000 1.020000
v 0.570711 0.629289 1.020000
v 0.592388 0.661732 1.020000
vt 0.000000 0.000000
vt 1.000000 0.000000
vt 1.000000 1.000000
f 543/543 544/544 545/545
v 0.500000 0.700000 1.120000
v 0.592388 0.661732 1.120000
v 0.570711 0.629289 1.120000
vt 0.000000 0.000000
vt 1.000000 0.000000
vt 1.000000 1.000000
f 546/546 547/547 548/548
v 0.570711 0.629289 1.020000
v 0.538268 0.607612 1.020000
v 0.538268 0.607612 1.120000
v 0.570711 0.629289 1.120000
vt 0.625000 0.000000
vt 0.687500 0.000000
vt 0.687500 1.000000
vt 0.625000 1.000000
f 549/549 550/550 551/551 552/552
v 0.500000 0.700000 1.020000
v 0.538268 0.607612 1.020000
v 0.570711 0.629289 1.020000
vt 0.000000 0.000000
vt 1.000000 0.000000
vt 1.000000 1.000000
f 553/553 554/554 555/555
v 0.500000 0.700000 1.120000
v 0.570711 0.629289 1.120000
v 0.538268 0.607612 1.120000
vt 0.000000 0.000000
vt 1.000000 0.000000
vt 1.000000 1.000000
f 556/556 557/557 558/558
v 0.538268 0.607612 1.020000
v 0.500000 0.600000 1.020000
v 0.500000 0.600000 1.120000
v 0.538268 0.607612 1.120000
vt 0.687500 0.000000
vt 0.750000 0.000000
vt 0.750000 1.000000
vt 0.687500 1.000000
f 559/559 560/560 561/561 562/562
v 0.500000 0.700000 1.020000
v 0.500000 0.600000 1.020000
v 0.538268 0.607612 1.020000
vt 0.000000 0.000000
vt 1.000000 0.000000
vt 1.000000 1.000000
f 563/563 564/564 565/565
v 0.500000 0.700000 1.120000
v 0.538268 0.607612 1.120000
v 0.500000 0.600000 1.120000
vt 0.000000 0.000000
vt 1.000000 0.000000
vt 1.000000 1.000000
f 566/566 567/567 568/568
v 0.500000 0.600000 1.020000
v 0.461732 0.607612 1.020000
v 0.461732 0.607612 1.120000
v 0.500000 0.600000 1.120000
vt 0.750000 0.000000
vt 0.812500 0.000000
vt 0.812500 1.000000
vt 0.750000 1.000000
f 569/569 570/570 571/571 572/572
v 0.500000 0.700000 1.020000
v 0.461732 0.607612 1.020000
v 0.500000 0.600000 1.020000
vt 0.000000 0.000000
vt 1.000000 0.000000
vt 1.000000 1.000000
f 573/573 574/574 575/575
v 0.500000 0.700000 1.120000
v 0.500000 0.600000 1.120000
v 0.461732 0.607612 1.120000
vt 0.000000 0.000000
vt 1.000000 0.000000
vt 1.000000 1.000000
f 576/576 577/577 578/578
v 0.461732 0.607612 1.020000
v 0.429289 0.629289 1.020000
v 0.429289 0.629289 1.120000
v 0.461732 0.607612 1.120000
vt 0.812500 0.000000
vt 0.875000 0.000000
vt 0.875000 1.000000
vt 0.812500 1.000000
f 579/579 580/580 581/581 582/582
v 0.500000 0.700000 1.020000
v 0.429289 0.629289 1.020000
v 0.461732 0.607612 1.020000
vt 0.000000 0.000000
vt 1.000000 0.000000
vt 1.000000 1.000000
f 583/583 584/584 585/585
v 0.500000 0.700000 1.120000
v 0.461732 0.607612 1.120000
v 0.429289 0.629289 1.120000
vt 0.000000 0.000000
vt 1.000000 0.000000
vt 1.000000 1.000000
f 586/586 587/587 588/588
v 0.429289 0.629289 1.020000
v 0.407612 0.661732 1.020000
v 0.407612 0.661732 1.120000
v 0.429289 0.629289 1.120000
vt 0.875000 0.000000
vt 0.937500 0.000000
vt 0.937500 1.000000
vt 0.875000 1.000000
f 589/589 590/590 591/591 592/592
v 0.500000 0.700000 1.020000
v 0.407612 0.661732 1.020000
v 0.429289 0.629289 1.020000
vt 0.000000 0.000000
vt 1.000000 0.000000
vt 1.000000 1.000000
f 593/593 594/594 595/595
v 0.500000 0.700000 1.120000
v 0.429289 0.629289 1.120000
v 0.407612 0.661732 1.120000
vt 0.000000 0.000000
vt 1.000000 0.000000
vt 1.000000 1.000000
f 596/596 597/597 598/598
v 0.407612 0.661732 1.020000
v 0.400000 0.700000 1.020000
v 0.400000 0.700000 1.120000
v 0.407612 0.661732 1.120000
vt 0.937500 0.000000
vt 1.000000 0.000000
vt 1.000000 1.000000
vt 0.937500 1.000000
f 599/599 600/600 601/601 602/602
v 0.500000 0.700000 1.020000
v 0.400000 0.700000 1.020000
v 0.407612 0.661732 1.020000
vt 0.000000 0.000000
vt 1.000000 0.000000
vt 1.000000 1.000000
f 603/603 604/604 605/605
v 0.500000 0.700000 1.120000
v 0.407612 0.661732 1.120000
v 0.400000 0.700000 1.120000
vt 0.000000 0.000000
vt 1.000000 0.000000
vt 1.000000 1.000000
f 606/606 607/607 608/608
usemtl accent
v 0.220000 0.220000 0.720000
v 0.400000 0.220000 0.720000
v 0.400000 0.480000 0.720000
v 0.220000 0.480000 0.720000
vt 0.000000 0.000000
vt 1.000000 0.000000
vt 1.000000 1.000000
vt 0.000000 1.000000
f 609/609 610/610 611/611 612/612
v 0.400000 0.220000 0.880000
v 0.220000 0.220000 0.880000
v 0.220000 0.480000 0.880000
v 0.400000 0.480000 0.880000
vt 0.000000 0.000000
vt 1.000000 0.000000
vt 1.000000 1.000000
vt 0.000000 1.000000
f 613/613 614/614 615/615 616/616
v 0.220000 0.220000 0.880000
v 0.220000 0.220000 0.720000
v 0.220000 0.480000 0.720000
v 0.220000 0.480000 0.880000
vt 0.000000 0.000000
vt 1.000000 0.000000
vt 1.000000 1.000000
vt 0.000000 1.000000
f 617/617 618/618 619/619 620/620
v 0.400000 0.220000 0.720000
v 0.400000 0.220000 0.880000
v 0.400000 0.480000 0.880000
v 0.400000 0.480000 0.720000
vt 0.000000 0.000000
vt 1.000000 0.000000
vt 1.000000 1.000000
vt 0.000000 1.000000
f 621/621 622/622 623/623 624/624
v 0.220000 0.480000 0.720000
v 0.400000 0.480000 0.720000
v 0.400000 0.480000 0.880000
v 0.220000 0.480000 0.880000
vt 0.000000 0.000000
vt 1.000000 0.000000
vt 1.000000 1.000000
vt 0.000000 1.000000
f 625/625 626/626 627/627 628/628
v 0.220000 0.220000 0.880000
v 0.400000 0.220000 0.880000
v 0.400000 0.220000 0.720000
v 0.220000 0.220000 0.720000
vt 0.000000 0.000000
vt 1.000000 0.000000
vt 1.000000 1.000000
vt 0.000000 1.000000
f 629/629 630/630 631/631 632/632
usemtl yellow
v 0.280000 0.550000 0.220000
v 0.340000 0.550000 0.220000
v 0.340000 0.820000 0.220000
v 0.280000 0.820000 0.220000
vt 0.000000 0.000000
vt 1.000000 0.000000
vt 1.000000 1.000000
vt 0.000000 1.000000
f 633/633 634/634 635/635 636/636
v 0.340000 0.550000 0.280000
v 0.280000 0.550000 0.280000
v 0.280000 0.820000 0.280000
v 0.340000 0.820000 0.280000
vt 0.000000 0.000000
vt 1.000000 0.000000
vt 1.000000 1.000000
vt 0.000000 1.000000
f 637/637 638/638 639/639 640/640
v 0.280000 0.550000 0.280000
v 0.280000 0.550000 0.220000
v 0.280000 0.820000 0.220000
v 0.280000 0.820000 0.280000
vt 0.000000 0.000000
vt 1.000000 0.000000
vt 1.000000 1.000000
vt 0.000000 1.000000
f 641/641 642/642 643/643 644/644
v 0.340000 0.550000 0.220000
v 0.340000 0.550000 0.280000
v 0.340000 0.820000 0.280000
v 0.340000 0.820000 0.220000
vt 0.000000 0.000000
vt 1.000000 0.000000
vt 1.000000 1.000000
vt 0.000000 1.000000
f 645/645 646/646 647/647 648/648
v 0.280000 0.820000 0.220000
v 0.340000 0.820000 0.220000
v 0.340000 0.820000 0.280000
v 0.280000 0.820000 0.280000
vt 0.000000 0.000000
vt 1.000000 0.000000
vt 1.000000 1.000000
vt 0.000000 1.000000
f 649/649 650/650 651/651 652/652
v 0.280000 0.550000 0.280000
v 0.340000 0.550000 0.280000
v 0.340000 0.550000 0.220000
v 0.280000 0.550000 0.220000
vt 0.000000 0.000000
vt 1.000000 0.000000
vt 1.000000 1.000000
vt 0.000000 1.000000
f 653/653 654/654 655/655 656/656
v 0.400000 0.550000 0.220000
v 0.460000 0.550000 0.220000
v 0.460000 0.820000 0.220000
v 0.400000 0.820000 0.220000
vt 0.000000 0.000000
vt 1.000000 0.000000
vt 1.000000 1.000000
vt 0.000000 1.000000
f 657/657 658/658 659/659 660/660
v 0.460000 0.550000 0.280000
v 0.400000 0.550000 0.280000
v 0.400000 0.820000 0.280000
v 0.460000 0.820000 0.280000
vt 0.000000 0.000000
vt 1.000000 0.000000
vt 1.000000 1.000000
vt 0.000000 1.000000
f 661/661 662/662 663/663 664/664
v 0.400000 0.550000 0.280000
v 0.400000 0.550000 0.220000
v 0.400000 0.820000 0.220000
v 0.400000 0.820000 0.280000
vt 0.000000 0.000000
vt 1.000000 0.000000
vt 1.000000 1.000000
vt 0.000000 1.000000
f 665/665 666/666 667/667 668/668
v 0.460000 0.550000 0.220000
v 0.460000 0.550000 0.280000
v 0.460000 0.820000 0.280000
v 0.460000 0.820000 0.220000
vt 0.000000 0.000000
vt 1.000000 0.000000
vt 1.000000 1.000000
vt 0.000000 1.000000
f 669/669 670/670 671/671 672/672
v 0.400000 0.820000 0.220000
v 0.460000 0.820000 0.220000
v 0.460000 0.820000 0.280000
v 0.400000 0.820000 0.280000
vt 0.000000 0.000000
vt 1.000000 0.000000
vt 1.000000 1.000000
vt 0.000000 1.000000
f 673/673 674/674 675/675 676/676
v 0.400000 0.550000 0.280000
v 0.460000 0.550000 0.280000
v 0.460000 0.550000 0.220000
v 0.400000 0.550000 0.220000
vt 0.000000 0.000000
vt 1.000000 0.000000
vt 1.000000 1.000000
vt 0.000000 1.000000
f 677/677 678/678 679/679 680/680
v 0.520000 0.550000 0.220000
v 0.580000 0.550000 0.220000
v 0.580000 0.820000 0.220000
v 0.520000 0.820000 0.220000
vt 0.000000 0.000000
vt 1.000000 0.000000
vt 1.000000 1.000000
vt 0.000000 1.000000
f 681/681 682/682 683/683 684/684
v 0.580000 0.550000 0.280000
v 0.520000 0.550000 0.280000
v 0.520000 0.820000 0.280000
v 0.580000 0.820000 0.280000
vt 0.000000 0.000000
vt 1.000000 0.000000
vt 1.000000 1.000000
vt 0.000000 1.000000
f 685/685 686/686 687/687 688/688
v 0.520000 0.550000 0.280000
v 0.520000 0.550000 0.220000
v 0.520000 0.820000 0.220000
v 0.520000 0.820000 0.280000
vt 0.000000 0.000000
vt 1.000000 0.000000
vt 1.000000 1.000000
vt 0.000000 1.000000
f 689/689 690/690 691/691 692/692
v 0.580000 0.550000 0.220000
v 0.580000 0.550000 0.280000
v 0.580000 0.820000 0.280000
v 0.580000 0.820000 0.220000
vt 0.000000 0.000000
vt 1.000000 0.000000
vt 1.000000 1.000000
vt 0.000000 1.000000
f 693/693 694/694 695/695 696/696
v 0.520000 0.820000 0.220000
v 0.580000 0.820000 0.220000
v 0.580000 0.820000 0.280000
v 0.520000 0.820000 0.280000
vt 0.000000 0.000000
vt 1.000000 0.000000
vt 1.000000 1.000000
vt 0.000000 1.000000
f 697/697 698/698 699/699 700/700
v 0.520000 0.550000 0.280000
v 0.580000 0.550000 0.280000
v 0.580000 0.550000 0.220000
v 0.520000 0.550000 0.220000
vt 0.000000 0.000000
vt 1.000000 0.000000
vt 1.000000 1.000000
vt 0.000000 1.000000
f 701/701 702/702 703/703 704/704
v 0.640000 0.550000 0.220000
v 0.700000 0.550000 0.220000
v 0.700000 0.820000 0.220000
v 0.640000 0.820000 0.220000
vt 0.000000 0.000000
vt 1.000000 0.000000
vt 1.000000 1.000000
vt 0.000000 1.000000
f 705/705 706/706 707/707 708/708
v 0.700000 0.550000 0.280000
v 0.640000 0.550000 0.280000
v 0.640000 0.820000 0.280000
v 0.700000 0.820000 0.280000
vt 0.000000 0.000000
vt 1.000000 0.000000
vt 1.000000 1.000000
vt 0.000000 1.000000
f 709/709 710/710 711/711 712/712
v 0.640000 0.550000 0.280000
v 0.640000 0.550000 0.220000
v 0.640000 0.820000 0.220000
v 0.640000 0.820000 0.280000
vt 0.000000 0.000000
vt 1.000000 0.000000
vt 1.000000 1.000000
vt 0.000000 1.000000
f 713/713 714/714 715/715 716/716
v 0.700000 0.550000 0.220000
v 0.700000 0.550000 0.280000
v 0.700000 0.820000 0.280000
v 0.700000 0.820000 0.220000
vt 0.000000 0.000000
vt 1.000000 0.000000
vt 1.000000 1.000000
vt 0.000000 1.000000
f 717/717 718/718 719/719 720/720
v 0.640000 0.820000 0.220000
v 0.700000 0.820000 0.220000
v 0.700000 0.820000 0.280000
v 0.640000 0.820000 0.280000
vt 0.000000 0.000000
vt 1.000000 0.000000
vt 1.000000 1.000000
vt 0.000000 1.000000
f 721/721 722/722 723/723 724/724
v 0.640000 0.550000 0.280000
v 0.700000 0.550000 0.280000
v 0.700000 0.550000 0.220000
v 0.640000 0.550000 0.220000
vt 0.000000 0.000000
vt 1.000000 0.000000
vt 1.000000 1.000000
vt 0.000000 1.000000
f 725/725 726/726 727/727 728/728
