mtllib loading_crane.mtl
o loading_crane
s 1
usemtl dark
v 0.200000 0.000000 0.200000
v 0.800000 0.000000 0.200000
v 0.800000 0.160000 0.200000
v 0.200000 0.160000 0.200000
vt 0.000000 0.000000
vt 1.000000 0.000000
vt 1.000000 1.000000
vt 0.000000 1.000000
f 1/1 2/2 3/3 4/4
v 0.800000 0.000000 0.800000
v 0.200000 0.000000 0.800000
v 0.200000 0.160000 0.800000
v 0.800000 0.160000 0.800000
vt 0.000000 0.000000
vt 1.000000 0.000000
vt 1.000000 1.000000
vt 0.000000 1.000000
f 5/5 6/6 7/7 8/8
v 0.200000 0.000000 0.800000
v 0.200000 0.000000 0.200000
v 0.200000 0.160000 0.200000
v 0.200000 0.160000 0.800000
vt 0.000000 0.000000
vt 1.000000 0.000000
vt 1.000000 1.000000
vt 0.000000 1.000000
f 9/9 10/10 11/11 12/12
v 0.800000 0.000000 0.200000
v 0.800000 0.000000 0.800000
v 0.800000 0.160000 0.800000
v 0.800000 0.160000 0.200000
vt 0.000000 0.000000
vt 1.000000 0.000000
vt 1.000000 1.000000
vt 0.000000 1.000000
f 13/13 14/14 15/15 16/16
v 0.200000 0.160000 0.200000
v 0.800000 0.160000 0.200000
v 0.800000 0.160000 0.800000
v 0.200000 0.160000 0.800000
vt 0.000000 0.000000
vt 1.000000 0.000000
vt 1.000000 1.000000
vt 0.000000 1.000000
f 17/17 18/18 19/19 20/20
v 0.200000 0.000000 0.800000
v 0.800000 0.000000 0.800000
v 0.800000 0.000000 0.200000
v 0.200000 0.000000 0.200000
vt 0.000000 0.000000
vt 1.000000 0.000000
vt 1.000000 1.000000
vt 0.000000 1.000000
f 21/21 22/22 23/23 24/24
usemtl yellow
v 0.380000 0.160000 0.380000
v 0.620000 0.160000 0.380000
v 0.620000 0.700000 0.380000
v 0.380000 0.700000 0.380000
vt 0.000000 0.000000
vt 1.000000 0.000000
vt 1.000000 1.000000
vt 0.000000 1.000000
f 25/25 26/26 27/27 28/28
v 0.620000 0.160000 0.620000
v 0.380000 0.160000 0.620000
v 0.380000 0.700000 0.620000
v 0.620000 0.700000 0.620000
vt 0.000000 0.000000
vt 1.000000 0.000000
vt 1.000000 1.000000
vt 0.000000 1.000000
f 29/29 30/30 31/31 32/32
v 0.380000 0.160000 0.620000
v 0.380000 0.160000 0.380000
v 0.380000 0.700000 0.380000
v 0.380000 0.700000 0.620000
vt 0.000000 0.000000
vt 1.000000 0.000000
vt 1.000000 1.000000
vt 0.000000 1.000000
f 33/33 34/34 35/35 36/36
v 0.620000 0.160000 0.380000
v 0.620000 0.160000 0.620000
v 0.620000 0.700000 0.620000
v 0.620000 0.700000 0.380000
vt 0.000000 0.000000
vt 1.000000 0.000000
vt 1.000000 1.000000
vt 0.000000 1.000000
f 37/37 38/38 39/39 40/40
v 0.380000 0.700000 0.380000
v 0.620000 0.700000 0.380000
v 0.620000 0.700000 0.620000
v 0.380000 0.700000 0.620000
vt 0.000000 0.000000
vt 1.000000 0.000000
vt 1.000000 1.000000
vt 0.000000 1.000000
f 41/41 42/42 43/43 44/44
v 0.380000 0.160000 0.620000
v 0.620000 0.160000 0.620000
v 0.620000 0.160000 0.380000
v 0.380000 0.160000 0.380000
vt 0.000000 0.000000
vt 1.000000 0.000000
vt 1.000000 1.000000
vt 0.000000 1.000000
f 45/45 46/46 47/47 48/48
usemtl body
v 0.500000 0.160000 0.420000
v 0.530615 0.160000 0.426090
v 0.530615 0.700000 0.426090
v 0.500000 0.700000 0.420000
vt 0.000000 0.000000
vt 0.062500 0.000000
vt 0.062500 1.000000
vt 0.000000 1.000000
f 49/49 50/50 51/51 52/52
v 0.500000 0.160000 0.500000
v 0.530615 0.160000 0.426090
v 0.500000 0.160000 0.420000
vt 0.000000 0.000000
vt 1.000000 0.000000
vt 1.000000 1.000000
f 53/53 54/54 55/55
v 0.500000 0.700000 0.500000
v 0.500000 0.700000 0.420000
v 0.530615 0.700000 0.426090
vt 0.000000 0.000000
vt 1.000000 0.000000
vt 1.000000 1.000000
f 56/56 57/57 58/58
v 0.530615 0.160000 0.426090
v 0.556569 0.160000 0.443431
v 0.556569 0.700000 0.443431
v 0.530615 0.700000 0.426090
vt 0.062500 0.000000
vt 0.125000 0.000000
vt 0.125000 1.000000
vt 0.062500 1.000000
f 59/59 60/60 61/61 62/62
v 0.500000 0.160000 0.500000
v 0.556569 0.160000 0.443431
v 0.530615 0.160000 0.426090
vt 0.000000 0.000000
vt 1.000000 0.000000
vt 1.000000 1.000000
f 63/63 64/64 65/65
v 0.500000 0.700000 0.500000
v 0.530615 0.700000 0.426090
v 0.556569 0.700000 0.443431
vt 0.000000 0.000000
vt 1.000000 0.000000
vt 1.000000 1.000000
f 66/66 67/67 68/68
v 0.556569 0.160000 0.443431
v 0.573910 0.160000 0.469385
v 0.573910 0.700000 0.469385
v 0.556569 0.700000 0.443431
vt 0.125000 0.000000
vt 0.187500 0.000000
vt 0.187500 1.000000
vt 0.125000 1.000000
f 69/69 70/70 71/71 72/72
v 0.500000 0.160000 0.500000
v 0.573910 0.160000 0.469385
v 0.556569 0.160000 0.443431
vt 0.000000 0.000000
vt 1.000000 0.000000
vt 1.000000 1.000000
f 73/73 74/74 75/75
v 0.500000 0.700000 0.500000
v 0.556569 0.700000 0.443431
v 0.573910 0.700000 0.469385
vt 0.000000 0.000000
vt 1.000000 0.000000
vt 1.000000 1.000000
f 76/76 77/77 78/78
v 0.573910 0.160000 0.469385
v 0.580000 0.160000 0.500000
v 0.580000 0.700000 0.500000
v 0.573910 0.700000 0.469385
vt 0.187500 0.000000
vt 0.250000 0.000000
vt 0.250000 1.000000
vt 0.187500 1.000000
f 79/79 80/80 81/81 82/82
v 0.500000 0.160000 0.500000
v 0.580000 0.160000 0.500000
v 0.573910 0.160000 0.469385
vt 0.000000 0.000000
vt 1.000000 0.000000
vt 1.000000 1.000000
f 83/83 84/84 85/85
v 0.500000 0.700000 0.500000
v 0.573910 0.700000 0.469385
v 0.580000 0.700000 0.500000
vt 0.000000 0.000000
vt 1.000000 0.000000
vt 1.000000 1.000000
f 86/86 87/87 88/88
v 0.580000 0.160000 0.500000
v 0.573910 0.160000 0.530615
v 0.573910 0.700000 0.530615
v 0.580000 0.700000 0.500000
vt 0.250000 0.000000
vt 0.312500 0.000000
vt 0.312500 1.000000
vt 0.250000 1.000000
f 89/89 90/90 91/91 92/92
v 0.500000 0.160000 0.500000
v 0.573910 0.160000 0.530615
v 0.580000 0.160000 0.500000
vt 0.000000 0.000000
vt 1.000000 0.000000
vt 1.000000 1.000000
f 93/93 94/94 95/95
v 0.500000 0.700000 0.500000
v 0.580000 0.700000 0.500000
v 0.573910 0.700000 0.530615
vt 0.000000 0.000000
vt 1.000000 0.000000
vt 1.000000 1.000000
f 96/96 97/97 98/98
v 0.573910 0.160000 0.530615
v 0.556569 0.160000 0.556569
v 0.556569 0.700000 0.556569
v 0.573910 0.700000 0.530615
vt 0.312500 0.000000
vt 0.375000 0.000000
vt 0.375000 1.000000
vt 0.312500 1.000000
f 99/99 100/100 101/101 102/102
v 0.500000 0.160000 0.500000
v 0.556569 0.160000 0.556569
v 0.573910 0.160000 0.530615
vt 0.000000 0.000000
vt 1.000000 0.000000
vt 1.000000 1.000000
f 103/103 104/104 105/105
v 0.500000 0.700000 0.500000
v 0.573910 0.700000 0.530615
v 0.556569 0.700000 0.556569
vt 0.000000 0.000000
vt 1.000000 0.000000
vt 1.000000 1.000000
f 106/106 107/107 108/108
v 0.556569 0.160000 0.556569
v 0.530615 0.160000 0.573910
v 0.530615 0.700000 0.573910
v 0.556569 0.700000 0.556569
vt 0.375000 0.000000
vt 0.437500 0.000000
vt 0.437500 1.000000
vt 0.375000 1.000000
f 109/109 110/110 111/111 112/112
v 0.500000 0.160000 0.500000
v 0.530615 0.160000 0.573910
v 0.556569 0.160000 0.556569
vt 0.000000 0.000000
vt 1.000000 0.000000
vt 1.000000 1.000000
f 113/113 114/114 115/115
v 0.500000 0.700000 0.500000
v 0.556569 0.700000 0.556569
v 0.530615 0.700000 0.573910
vt 0.000000 0.000000
vt 1.000000 0.000000
vt 1.000000 1.000000
f 116/116 117/117 118/118
v 0.530615 0.160000 0.573910
v 0.500000 0.160000 0.580000
v 0.500000 0.700000 0.580000
v 0.530615 0.700000 0.573910
vt 0.437500 0.000000
vt 0.500000 0.000000
vt 0.500000 1.000000
vt 0.437500 1.000000
f 119/119 120/120 121/121 122/122
v 0.500000 0.160000 0.500000
v 0.500000 0.160000 0.580000
v 0.530615 0.160000 0.573910
vt 0.000000 0.000000
vt 1.000000 0.000000
vt 1.000000 1.000000
f 123/123 124/124 125/125
v 0.500000 0.700000 0.500000
v 0.530615 0.700000 0.573910
v 0.500000 0.700000 0.580000
vt 0.000000 0.000000
vt 1.000000 0.000000
vt 1.000000 1.000000
f 126/126 127/127 128/128
v 0.500000 0.160000 0.580000
v 0.469385 0.160000 0.573910
v 0.469385 0.700000 0.573910
v 0.500000 0.700000 0.580000
vt 0.500000 0.000000
vt 0.562500 0.000000
vt 0.562500 1.000000
vt 0.500000 1.000000
f 129/129 130/130 131/131 132/132
v 0.500000 0.160000 0.500000
v 0.469385 0.160000 0.573910
v 0.500000 0.160000 0.580000
vt 0.000000 0.000000
vt 1.000000 0.000000
vt 1.000000 1.000000
f 133/133 134/134 135/135
v 0.500000 0.700000 0.500000
v 0.500000 0.700000 0.580000
v 0.469385 0.700000 0.573910
vt 0.000000 0.000000
vt 1.000000 0.000000
vt 1.000000 1.000000
f 136/136 137/137 138/138
v 0.469385 0.160000 0.573910
v 0.443431 0.160000 0.556569
v 0.443431 0.700000 0.556569
v 0.469385 0.700000 0.573910
vt 0.562500 0.000000
vt 0.625000 0.000000
vt 0.625000 1.000000
vt 0.562500 1.000000
f 139/139 140/140 141/141 142/142
v 0.500000 0.160000 0.500000
v 0.443431 0.160000 0.556569
v 0.469385 0.160000 0.573910
vt 0.000000 0.000000
vt 1.000000 0.000000
vt 1.000000 1.000000
f 143/143 144/144 145/145
v 0.500000 0.700000 0.500000
v 0.469385 0.700000 0.573910
v 0.443431 0.700000 0.556569
vt 0.000000 0.000000
vt 1.000000 0.000000
vt 1.000000 1.000000
f 146/146 147/147 148/148
v 0.443431 0.160000 0.556569
v 0.426090 0.160000 0.530615
v 0.426090 0.700000 0.530615
v 0.443431 0.700000 0.556569
vt 0.625000 0.000000
vt 0.687500 0.000000
vt 0.687500 1.000000
vt 0.625000 1.000000
f 149/149 150/150 151/151 152/152
v 0.500000 0.160000 0.500000
v 0.426090 0.160000 0.530615
v 0.443431 0.160000 0.556569
vt 0.000000 0.000000
vt 1.000000 0.000000
vt 1.000000 1.000000
f 153/153 154/154 155/155
v 0.500000 0.700000 0.500000
v 0.443431 0.700000 0.556569
v 0.426090 0.700000 0.530615
vt 0.000000 0.000000
vt 1.000000 0.000000
vt 1.000000 1.000000
f 156/156 157/157 158/158
v 0.426090 0.160000 0.530615
v 0.420000 0.160000 0.500000
v 0.420000 0.700000 0.500000
v 0.426090 0.700000 0.530615
vt 0.687500 0.000000
vt 0.750000 0.000000
vt 0.750000 1.000000
vt 0.687500 1.000000
f 159/159 160/160 161/161 162/162
v 0.500000 0.160000 0.500000
v 0.420000 0.160000 0.500000
v 0.426090 0.160000 0.530615
vt 0.000000 0.000000
vt 1.000000 0.000000
vt 1.000000 1.000000
f 163/163 164/164 165/165
v 0.500000 0.700000 0.500000
v 0.426090 0.700000 0.530615
v 0.420000 0.700000 0.500000
vt 0.000000 0.000000
vt 1.000000 0.000000
vt 1.000000 1.000000
f 166/166 167/167 168/168
v 0.420000 0.160000 0.500000
v 0.426090 0.160000 0.469385
v 0.426090 0.700000 0.469385
v 0.420000 0.700000 0.500000
vt 0.750000 0.000000
vt 0.812500 0.000000
vt 0.812500 1.000000
vt 0.750000 1.000000
f 169/169 170/170 171/171 172/172
v 0.500000 0.160000 0.500000
v 0.426090 0.160000 0.469385
v 0.420000 0.160000 0.500000
vt 0.000000 0.000000
vt 1.000000 0.000000
vt 1.000000 1.000000
f 173/173 174/174 175/175
v 0.500000 0.700000 0.500000
v 0.420000 0.700000 0.500000
v 0.426090 0.700000 0.469385
vt 0.000000 0.000000
vt 1.000000 0.000000
vt 1.000000 1.000000
f 176/176 177/177 178/178
v 0.426090 0.160000 0.469385
v 0.443431 0.160000 0.443431
v 0.443431 0.700000 0.443431
v 0.426090 0.700000 0.469385
vt 0.812500 0.000000
vt 0.875000 0.000000
vt 0.875000 1.000000
vt 0.812500 1.000000
f 179/179 180/180 181/181 182/182
v 0.500000 0.160000 0.500000
v 0.443431 0.160000 0.443431
v 0.426090 0.160000 0.469385
vt 0.000000 0.000000
vt 1.000000 0.000000
vt 1.000000 1.000000
f 183/183 184/184 185/185
v 0.500000 0.700000 0.500000
v 0.426090 0.700000 0.469385
v 0.443431 0.700000 0.443431
vt 0.000000 0.000000
vt 1.000000 0.000000
vt 1.000000 1.000000
f 186/186 187/187 188/188
v 0.443431 0.160000 0.443431
v 0.469385 0.160000 0.426090
v 0.469385 0.700000 0.426090
v 0.443431 0.700000 0.443431
vt 0.875000 0.000000
vt 0.937500 0.000000
vt 0.937500 1.000000
vt 0.875000 1.000000
f 189/189 190/190 191/191 192/192
v 0.500000 0.160000 0.500000
v 0.469385 0.160000 0.426090
v 0.443431 0.160000 0.443431
vt 0.000000 0.000000
vt 1.000000 0.000000
vt 1.000000 1.000000
f 193/193 194/194 195/195
v 0.500000 0.700000 0.500000
v 0.443431 0.700000 0.443431
v 0.469385 0.700000 0.426090
vt 0.000000 0.000000
vt 1.000000 0.000000
vt 1.000000 1.000000
f 196/196 197/197 198/198
v 0.469385 0.160000 0.426090
v 0.500000 0.160000 0.420000
v 0.500000 0.700000 0.420000
v 0.469385 0.700000 0.426090
vt 0.937500 0.000000
vt 1.000000 0.000000
vt 1.000000 1.000000
vt 0.937500 1.000000
f 199/199 200/200 201/201 202/202
v 0.500000 0.160000 0.500000
v 0.500000 0.160000 0.420000
v 0.469385 0.160000 0.426090
vt 0.000000 0.000000
vt 1.000000 0.000000
vt 1.000000 1.000000
f 203/203 204/204 205/205
v 0.500000 0.700000 0.500000
v 0.469385 0.700000 0.426090
v 0.500000 0.700000 0.420000
vt 0.000000 0.000000
vt 1.000000 0.000000
vt 1.000000 1.000000
f 206/206 207/207 208/208
usemtl yellow
v 0.420000 0.700000 0.200000
v 0.580000 0.700000 0.200000
v 0.580000 0.840000 0.200000
v 0.420000 0.840000 0.200000
vt 0.000000 0.000000
vt 1.000000 0.000000
vt 1.000000 1.000000
vt 0.000000 1.000000
f 209/209 210/210 211/211 212/212
v 0.580000 0.700000 0.240000
v 0.420000 0.700000 0.240000
v 0.420000 0.840000 0.240000
v 0.580000 0.840000 0.240000
vt 0.000000 0.000000
vt 1.000000 0.000000
vt 1.000000 1.000000
vt 0.000000 1.000000
f 213/213 214/214 215/215 216/216
v 0.420000 0.700000 0.240000
v 0.420000 0.700000 0.200000
v 0.420000 0.840000 0.200000
v 0.420000 0.840000 0.240000
vt 0.000000 0.000000
vt 1.000000 0.000000
vt 1.000000 1.000000
vt 0.000000 1.000000
f 217/217 218/218 219/219 220/220
v 0.580000 0.700000 0.200000
v 0.580000 0.700000 0.240000
v 0.580000 0.840000 0.240000
v 0.580000 0.840000 0.200000
vt 0.000000 0.000000
vt 1.000000 0.000000
vt 1.000000 1.000000
vt 0.000000 1.000000
f 221/221 222/222 223/223 224/224
v 0.420000 0.840000 0.200000
v 0.580000 0.840000 0.200000
v 0.580000 0.840000 0.240000
v 0.420000 0.840000 0.240000
vt 0.000000 0.000000
vt 1.000000 0.000000
vt 1.000000 1.000000
vt 0.000000 1.000000
f 225/225 226/226 227/227 228/228
v 0.420000 0.700000 0.240000
v 0.580000 0.700000 0.240000
v 0.580000 0.700000 0.200000
v 0.420000 0.700000 0.200000
vt 0.000000 0.000000
vt 1.000000 0.000000
vt 1.000000 1.000000
vt 0.000000 1.000000
f 229/229 230/230 231/231 232/232
v 0.420000 0.700000 0.360000
v 0.580000 0.700000 0.360000
v 0.580000 0.840000 0.360000
v 0.420000 0.840000 0.360000
vt 0.000000 0.000000
vt 1.000000 0.000000
vt 1.000000 1.000000
vt 0.000000 1.000000
f 233/233 234/234 235/235 236/236
v 0.580000 0.700000 0.400000
v 0.420000 0.700000 0.400000
v 0.420000 0.840000 0.400000
v 0.580000 0.840000 0.400000
vt 0.000000 0.000000
vt 1.000000 0.000000
vt 1.000000 1.000000
vt 0.000000 1.000000
f 237/237 238/238 239/239 240/240
v 0.420000 0.700000 0.400000
v 0.420000 0.700000 0.360000
v 0.420000 0.840000 0.360000
v 0.420000 0.840000 0.400000
vt 0.000000 0.000000
vt 1.000000 0.000000
vt 1.000000 1.000000
vt 0.000000 1.000000
f 241/241 242/242 243/243 244/244
v 0.580000 0.700000 0.360000
v 0.580000 0.700000 0.400000
v 0.580000 0.840000 0.400000
v 0.580000 0.840000 0.360000
vt 0.000000 0.000000
vt 1.000000 0.000000
vt 1.000000 1.000000
vt 0.000000 1.000000
f 245/245 246/246 247/247 248/248
v 0.420000 0.840000 0.360000
v 0.580000 0.840000 0.360000
v 0.580000 0.840000 0.400000
v 0.420000 0.840000 0.400000
vt 0.000000 0.000000
vt 1.000000 0.000000
vt 1.000000 1.000000
vt 0.000000 1.000000
f 249/249 250/250 251/251 252/252
v 0.420000 0.700000 0.400000
v 0.580000 0.700000 0.400000
v 0.580000 0.700000 0.360000
v 0.420000 0.700000 0.360000
vt 0.000000 0.000000
vt 1.000000 0.000000
vt 1.000000 1.000000
vt 0.000000 1.000000
f 253/253 254/254 255/255 256/256
v 0.420000 0.700000 0.520000
v 0.580000 0.700000 0.520000
v 0.580000 0.840000 0.520000
v 0.420000 0.840000 0.520000
vt 0.000000 0.000000
vt 1.000000 0.000000
vt 1.000000 1.000000
vt 0.000000 1.000000
f 257/257 258/258 259/259 260/260
v 0.580000 0.700000 0.560000
v 0.420000 0.700000 0.560000
v 0.420000 0.840000 0.560000
v 0.580000 0.840000 0.560000
vt 0.000000 0.000000
vt 1.000000 0.000000
vt 1.000000 1.000000
vt 0.000000 1.000000
f 261/261 262/262 263/263 264/264
v 0.420000 0.700000 0.560000
v 0.420000 0.700000 0.520000
v 0.420000 0.840000 0.520000
v 0.420000 0.840000 0.560000
vt 0.000000 0.000000
vt 1.000000 0.000000
vt 1.000000 1.000000
vt 0.000000 1.000000
f 265/265 266/266 267/267 268/268
v 0.580000 0.700000 0.520000
v 0.580000 0.700000 0.560000
v 0.580000 0.840000 0.560000
v 0.580000 0.840000 0.520000
vt 0.000000 0.000000
vt 1.000000 0.000000
vt 1.000000 1.000000
vt 0.000000 1.000000
f 269/269 270/270 271/271 272/272
v 0.420000 0.840000 0.520000
v 0.580000 0.840000 0.520000
v 0.580000 0.840000 0.560000
v 0.420000 0.840000 0.560000
vt 0.000000 0.000000
vt 1.000000 0.000000
vt 1.000000 1.000000
vt 0.000000 1.000000
f 273/273 274/274 275/275 276/276
v 0.420000 0.700000 0.560000
v 0.580000 0.700000 0.560000
v 0.580000 0.700000 0.520000
v 0.420000 0.700000 0.520000
vt 0.000000 0.000000
vt 1.000000 0.000000
vt 1.000000 1.000000
vt 0.000000 1.000000
f 277/277 278/278 279/279 280/280
v 0.420000 0.700000 0.680000
v 0.580000 0.700000 0.680000
v 0.580000 0.840000 0.680000
v 0.420000 0.840000 0.680000
vt 0.000000 0.000000
vt 1.000000 0.000000
vt 1.000000 1.000000
vt 0.000000 1.000000
f 281/281 282/282 283/283 284/284
v 0.580000 0.700000 0.720000
v 0.420000 0.700000 0.720000
v 0.420000 0.840000 0.720000
v 0.580000 0.840000 0.720000
vt 0.000000 0.000000
vt 1.000000 0.000000
vt 1.000000 1.000000
vt 0.000000 1.000000
f 285/285 286/286 287/287 288/288
v 0.420000 0.700000 0.720000
v 0.420000 0.700000 0.680000
v 0.420000 0.840000 0.680000
v 0.420000 0.840000 0.720000
vt 0.000000 0.000000
vt 1.000000 0.000000
vt 1.000000 1.000000
vt 0.000000 1.000000
f 289/289 290/290 291/291 292/292
v 0.580000 0.700000 0.680000
v 0.580000 0.700000 0.720000
v 0.580000 0.840000 0.720000
v 0.580000 0.840000 0.680000
vt 0.000000 0.000000
vt 1.000000 0.000000
vt 1.000000 1.000000
vt 0.000000 1.000000
f 293/293 294/294 295/295 296/296
v 0.420000 0.840000 0.680000
v 0.580000 0.840000 0.680000
v 0.580000 0.840000 0.720000
v 0.420000 0.840000 0.720000
vt 0.000000 0.000000
vt 1.000000 0.000000
vt 1.000000 1.000000
vt 0.000000 1.000000
f 297/297 298/298 299/299 300/300
v 0.420000 0.700000 0.720000
v 0.580000 0.700000 0.720000
v 0.580000 0.700000 0.680000
v 0.420000 0.700000 0.680000
vt 0.000000 0.000000
vt 1.000000 0.000000
vt 1.000000 1.000000
vt 0.000000 1.000000
f 301/301 302/302 303/303 304/304
v 0.420000 0.700000 0.840000
v 0.580000 0.700000 0.840000
v 0.580000 0.840000 0.840000
v 0.420000 0.840000 0.840000
vt 0.000000 0.000000
vt 1.000000 0.000000
vt 1.000000 1.000000
vt 0.000000 1.000000
f 305/305 306/306 307/307 308/308
v 0.580000 0.700000 0.880000
v 0.420000 0.700000 0.880000
v 0.420000 0.840000 0.880000
v 0.580000 0.840000 0.880000
vt 0.000000 0.000000
vt 1.000000 0.000000
vt 1.000000 1.000000
vt 0.000000 1.000000
f 309/309 310/310 311/311 312/312
v 0.420000 0.700000 0.880000
v 0.420000 0.700000 0.840000
v 0.420000 0.840000 0.840000
v 0.420000 0.840000 0.880000
vt 0.000000 0.000000
vt 1.000000 0.000000
vt 1.000000 1.000000
vt 0.000000 1.000000
f 313/313 314/314 315/315 316/316
v 0.580000 0.700000 0.840000
v 0.580000 0.700000 0.880000
v 0.580000 0.840000 0.880000
v 0.580000 0.840000 0.840000
vt 0.000000 0.000000
vt 1.000000 0.000000
vt 1.000000 1.000000
vt 0.000000 1.000000
f 317/317 318/318 319/319 320/320
v 0.420000 0.840000 0.840000
v 0.580000 0.840000 0.840000
v 0.580000 0.840000 0.880000
v 0.420000 0.840000 0.880000
vt 0.000000 0.000000
vt 1.000000 0.000000
vt 1.000000 1.000000
vt 0.000000 1.000000
f 321/321 322/322 323/323 324/324
v 0.420000 0.700000 0.880000
v 0.580000 0.700000 0.880000
v 0.580000 0.700000 0.840000
v 0.420000 0.700000 0.840000
vt 0.000000 0.000000
vt 1.000000 0.000000
vt 1.000000 1.000000
vt 0.000000 1.000000
f 325/325 326/326 327/327 328/328
v 0.420000 0.700000 1.000000
v 0.580000 0.700000 1.000000
v 0.580000 0.840000 1.000000
v 0.420000 0.840000 1.000000
vt 0.000000 0.000000
vt 1.000000 0.000000
vt 1.000000 1.000000
vt 0.000000 1.000000
f 329/329 330/330 331/331 332/332
v 0.580000 0.700000 1.040000
v 0.420000 0.700000 1.040000
v 0.420000 0.840000 1.040000
v 0.580000 0.840000 1.040000
vt 0.000000 0.000000
vt 1.000000 0.000000
vt 1.000000 1.000000
vt 0.000000 1.000000
f 333/333 334/334 335/335 336/336
v 0.420000 0.700000 1.040000
v 0.420000 0.700000 1.000000
v 0.420000 0.840000 1.000000
v 0.420000 0.840000 1.040000
vt 0.000000 0.000000
vt 1.000000 0.000000
vt 1.000000 1.000000
vt 0.000000 1.000000
f 337/337 338/338 339/339 340/340
v 0.580000 0.700000 1.000000
v 0.580000 0.700000 1.040000
v 0.580000 0.840000 1.040000
v 0.580000 0.840000 1.000000
vt 0.000000 0.000000
vt 1.000000 0.000000
vt 1.000000 1.000000
vt 0.000000 1.000000
f 341/341 342/342 343/343 344/344
v 0.420000 0.840000 1.000000
v 0.580000 0.840000 1.000000
v 0.580000 0.840000 1.040000
v 0.420000 0.840000 1.040000
vt 0.000000 0.000000
vt 1.000000 0.000000
vt 1.000000 1.000000
vt 0.000000 1.000000
f 345/345 346/346 347/347 348/348
v 0.420000 0.700000 1.040000
v 0.580000 0.700000 1.040000
v 0.580000 0.700000 1.000000
v 0.420000 0.700000 1.000000
vt 0.000000 0.000000
vt 1.000000 0.000000
vt 1.000000 1.000000
vt 0.000000 1.000000
f 349/349 350/350 351/351 352/352
v 0.420000 0.700000 0.200000
v 0.580000 0.700000 0.200000
v 0.580000 0.820000 0.200000
v 0.420000 0.820000 0.200000
vt 0.000000 0.000000
vt 1.000000 0.000000
vt 1.000000 1.000000
vt 0.000000 1.000000
f 353/353 354/354 355/355 356/356
v 0.580000 0.700000 1.180000
v 0.420000 0.700000 1.180000
v 0.420000 0.820000 1.180000
v 0.580000 0.820000 1.180000
vt 0.000000 0.000000
vt 1.000000 0.000000
vt 1.000000 1.000000
vt 0.000000 1.000000
f 357/357 358/358 359/359 360/360
v 0.420000 0.700000 1.180000
v 0.420000 0.700000 0.200000
v 0.420000 0.820000 0.200000
v 0.420000 0.820000 1.180000
vt 0.000000 0.000000
vt 1.000000 0.000000
vt 1.000000 1.000000
vt 0.000000 1.000000
f 361/361 362/362 363/363 364/364
v 0.580000 0.700000 0.200000
v 0.580000 0.700000 1.180000
v 0.580000 0.820000 1.180000
v 0.580000 0.820000 0.200000
vt 0.000000 0.000000
vt 1.000000 0.000000
vt 1.000000 1.000000
vt 0.000000 1.000000
f 365/365 366/366 367/367 368/368
v 0.420000 0.820000 0.200000
v 0.580000 0.820000 0.200000
v 0.580000 0.820000 1.180000
v 0.420000 0.820000 1.180000
vt 0.000000 0.000000
vt 1.000000 0.000000
vt 1.000000 1.000000
vt 0.000000 1.000000
f 369/369 370/370 371/371 372/372
v 0.420000 0.700000 1.180000
v 0.580000 0.700000 1.180000
v 0.580000 0.700000 0.200000
v 0.420000 0.700000 0.200000
vt 0.000000 0.000000
vt 1.000000 0.000000
vt 1.000000 1.000000
vt 0.000000 1.000000
f 373/373 374/374 375/375 376/376
usemtl dark
v 0.460000 0.520000 1.050000
v 0.540000 0.520000 1.050000
v 0.540000 0.720000 1.050000
v 0.460000 0.720000 1.050000
vt 0.000000 0.000000
vt 1.000000 0.000000
vt 1.000000 1.000000
vt 0.000000 1.000000
f 377/377 378/378 379/379 380/380
v 0.540000 0.520000 1.120000
v 0.460000 0.520000 1.120000
v 0.460000 0.720000 1.120000
v 0.540000 0.720000 1.120000
vt 0.000000 0.000000
vt 1.000000 0.000000
vt 1.000000 1.000000
vt 0.000000 1.000000
f 381/381 382/382 383/383 384/384
v 0.460000 0.520000 1.120000
v 0.460000 0.520000 1.050000
v 0.460000 0.720000 1.050000
v 0.460000 0.720000 1.120000
vt 0.000000 0.000000
vt 1.000000 0.000000
vt 1.000000 1.000000
vt 0.000000 1.000000
f 385/385 386/386 387/387 388/388
v 0.540000 0.520000 1.050000
v 0.540000 0.520000 1.120000
v 0.540000 0.720000 1.120000
v 0.540000 0.720000 1.050000
vt 0.000000 0.000000
vt 1.000000 0.000000
vt 1.000000 1.000000
vt 0.000000 1.000000
f 389/389 390/390 391/391 392/392
v 0.460000 0.720000 1.050000
v 0.540000 0.720000 1.050000
v 0.540000 0.720000 1.120000
v 0.460000 0.720000 1.120000
vt 0.000000 0.000000
vt 1.000000 0.000000
vt 1.000000 1.000000
vt 0.000000 1.000000
f 393/393 394/394 395/395 396/396
v 0.460000 0.520000 1.120000
v 0.540000 0.520000 1.120000
v 0.540000 0.520000 1.050000
v 0.460000 0.520000 1.050000
vt 0.000000 0.000000
vt 1.000000 0.000000
vt 1.000000 1.000000
vt 0.000000 1.000000
f 397/397 398/398 399/399 400/400
v 0.500000 0.200000 1.065000
v 0.510607 0.200000 1.069393
v 0.510607 0.520000 1.069393
v 0.500000 0.520000 1.065000
vt 0.000000 0.000000
vt 0.125000 0.000000
vt 0.125000 1.000000
vt 0.000000 1.000000
f 401/401 402/402 403/403 404/404
v 0.500000 0.200000 1.080000
v 0.510607 0.200000 1.069393
v 0.500000 0.200000 1.065000
vt 0.000000 0.000000
vt 1.000000 0.000000
vt 1.000000 1.000000
f 405/405 406/406 407/407
v 0.500000 0.520000 1.080000
v 0.500000 0.520000 1.065000
v 0.510607 0.520000 1.069393
vt 0.000000 0.000000
vt 1.000000 0.000000
vt 1.000000 1.000000
f 408/408 409/409 410/410
v 0.510607 0.200000 1.069393
v 0.515000 0.200000 1.080000
v 0.515000 0.520000 1.080000
v 0.510607 0.520000 1.069393
vt 0.125000 0.000000
vt 0.250000 0.000000
vt 0.250000 1.000000
vt 0.125000 1.000000
f 411/411 412/412 413/413 414/414
v 0.500000 0.200000 1.080000
v 0.515000 0.200000 1.080000
v 0.510607 0.200000 1.069393
vt 0.000000 0.000000
vt 1.000000 0.000000
vt 1.000000 1.000000
f 415/415 416/416 417/417
v 0.500000 0.520000 1.080000
v 0.510607 0.520000 1.069393
v 0.515000 0.520000 1.080000
vt 0.000000 0.000000
vt 1.000000 0.000000
vt 1.000000 1.000000
f 418/418 419/419 420/420
v 0.515000 0.200000 1.080000
v 0.510607 0.200000 1.090607
v 0.510607 0.520000 1.090607
v 0.515000 0.520000 1.080000
vt 0.250000 0.000000
vt 0.375000 0.000000
vt 0.375000 1.000000
vt 0.250000 1.000000
f 421/421 422/422 423/423 424/424
v 0.500000 0.200000 1.080000
v 0.510607 0.200000 1.090607
v 0.515000 0.200000 1.080000
vt 0.000000 0.000000
vt 1.000000 0.000000
vt 1.000000 1.000000
f 425/425 426/426 427/427
v 0.500000 0.520000 1.080000
v 0.515000 0.520000 1.080000
v 0.510607 0.520000 1.090607
vt 0.000000 0.000000
vt 1.000000 0.000000
vt 1.000000 1.000000
f 428/428 429/429 430/430
v 0.510607 0.200000 1.090607
v 0.500000 0.200000 1.095000
v 0.500000 0.520000 1.095000
v 0.510607 0.520000 1.090607
vt 0.375000 0.000000
vt 0.500000 0.000000
vt 0.500000 1.000000
vt 0.375000 1.000000
f 431/431 432/432 433/433 434/434
v 0.500000 0.200000 1.080000
v 0.500000 0.200000 1.095000
v 0.510607 0.200000 1.090607
vt 0.000000 0.000000
vt 1.000000 0.000000
vt 1.000000 1.000000
f 435/435 436/436 437/437
v 0.500000 0.520000 1.080000
v 0.510607 0.520000 1.090607
v 0.500000 0.520000 1.095000
vt 0.000000 0.000000
vt 1.000000 0.000000
vt 1.000000 1.000000
f 438/438 439/439 440/440
v 0.500000 0.200000 1.095000
v 0.489393 0.200000 1.090607
v 0.489393 0.520000 1.090607
v 0.500000 0.520000 1.095000
vt 0.500000 0.000000
vt 0.625000 0.000000
vt 0.625000 1.000000
vt 0.500000 1.000000
f 441/441 442/442 443/443 444/444
v 0.500000 0.200000 1.080000
v 0.489393 0.200000 1.090607
v 0.500000 0.200000 1.095000
vt 0.000000 0.000000
vt 1.000000 0.000000
vt 1.000000 1.000000
f 445/445 446/446 447/447
v 0.500000 0.520000 1.080000
v 0.500000 0.520000 1.095000
v 0.489393 0.520000 1.090607
vt 0.000000 0.000000
vt 1.000000 0.000000
vt 1.000000 1.000000
f 448/448 449/449 450/450
v 0.489393 0.200000 1.090607
v 0.485000 0.200000 1.080000
v 0.485000 0.520000 1.080000
v 0.489393 0.520000 1.090607
vt 0.625000 0.000000
vt 0.750000 0.000000
vt 0.750000 1.000000
vt 0.625000 1.000000
f 451/451 452/452 453/453 454/454
v 0.500000 0.200000 1.080000
v 0.485000 0.200000 1.080000
v 0.489393 0.200000 1.090607
vt 0.000000 0.000000
vt 1.000000 0.000000
vt 1.000000 1.000000
f 455/455 456/456 457/457
v 0.500000 0.520000 1.080000
v 0.489393 0.520000 1.090607
v 0.485000 0.520000 1.080000
vt 0.000000 0.000000
vt 1.000000 0.000000
vt 1.000000 1.000000
f 458/458 459/459 460/460
v 0.485000 0.200000 1.080000
v 0.489393 0.200000 1.069393
v 0.489393 0.520000 1.069393
v 0.485000 0.520000 1.080000
vt 0.750000 0.000000
vt 0.875000 0.000000
vt 0.875000 1.000000
vt 0.750000 1.000000
f 461/461 462/462 463/463 464/464
v 0.500000 0.200000 1.080000
v 0.489393 0.200000 1.069393
v 0.485000 0.200000 1.080000
vt 0.000000 0.000000
vt 1.000000 0.000000
vt 1.000000 1.000000
f 465/465 466/466 467/467
v 0.500000 0.520000 1.080000
v 0.485000 0.520000 1.080000
v 0.489393 0.520000 1.069393
vt 0.000000 0.000000
vt 1.000000 0.000000
vt 1.000000 1.000000
f 468/468 469/469 470/470
v 0.489393 0.200000 1.069393
v 0.500000 0.200000 1.065000
v 0.500000 0.520000 1.065000
v 0.489393 0.520000 1.069393
vt 0.875000 0.000000
vt 1.000000 0.000000
vt 1.000000 1.000000
vt 0.875000 1.000000
f 471/471 472/472 473/473 474/474
v 0.500000 0.200000 1.080000
v 0.500000 0.200000 1.065000
v 0.489393 0.200000 1.069393
vt 0.000000 0.000000
vt 1.000000 0.000000
vt 1.000000 1.000000
f 475/475 476/476 477/477
v 0.500000 0.520000 1.080000
v 0.489393 0.520000 1.069393
v 0.500000 0.520000 1.065000
vt 0.000000 0.000000
vt 1.000000 0.000000
vt 1.000000 1.000000
f 478/478 479/479 480/480
usemtl accent
v 0.460000 0.160000 1.040000
v 0.540000 0.160000 1.040000
v 0.540000 0.220000 1.040000
v 0.460000 0.220000 1.040000
vt 0.000000 0.000000
vt 1.000000 0.000000
vt 1.000000 1.000000
vt 0.000000 1.000000
f 481/481 482/482 483/483 484/484
v 0.540000 0.160000 1.120000
v 0.460000 0.160000 1.120000
v 0.460000 0.220000 1.120000
v 0.540000 0.220000 1.120000
vt 0.000000 0.000000
vt 1.000000 0.000000
vt 1.000000 1.000000
vt 0.000000 1.000000
f 485/485 486/486 487/487 488/488
v 0.460000 0.160000 1.120000
v 0.460000 0.160000 1.040000
v 0.460000 0.220000 1.040000
v 0.460000 0.220000 1.120000
vt 0.000000 0.000000
vt 1.000000 0.000000
vt 1.000000 1.000000
vt 0.000000 1.000000
f 489/489 490/490 491/491 492/492
v 0.540000 0.160000 1.040000
v 0.540000 0.160000 1.120000
v 0.540000 0.220000 1.120000
v 0.540000 0.220000 1.040000
vt 0.000000 0.000000
vt 1.000000 0.000000
vt 1.000000 1.000000
vt 0.000000 1.000000
f 493/493 494/494 495/495 496/496
v 0.460000 0.220000 1.040000
v 0.540000 0.220000 1.040000
v 0.540000 0.220000 1.120000
v 0.460000 0.220000 1.120000
vt 0.000000 0.000000
vt 1.000000 0.000000
vt 1.000000 1.000000
vt 0.000000 1.000000
f 497/497 498/498 499/499 500/500
v 0.460000 0.160000 1.120000
v 0.540000 0.160000 1.120000
v 0.540000 0.160000 1.040000
v 0.460000 0.160000 1.040000
vt 0.000000 0.000000
vt 1.000000 0.000000
vt 1.000000 1.000000
vt 0.000000 1.000000
f 501/501 502/502 503/503 504/504
usemtl glass
v 0.280000 0.160000 0.280000
v 0.480000 0.160000 0.280000
v 0.480000 0.400000 0.280000
v 0.280000 0.400000 0.280000
vt 0.000000 0.000000
vt 1.000000 0.000000
vt 1.000000 1.000000
vt 0.000000 1.000000
f 505/505 506/506 507/507 508/508
v 0.480000 0.160000 0.500000
v 0.280000 0.160000 0.500000
v 0.280000 0.400000 0.500000
v 0.480000 0.400000 0.500000
vt 0.000000 0.000000
vt 1.000000 0.000000
vt 1.000000 1.000000
vt 0.000000 1.000000
f 509/509 510/510 511/511 512/512
v 0.280000 0.160000 0.500000
v 0.280000 0.160000 0.280000
v 0.280000 0.400000 0.280000
v 0.280000 0.400000 0.500000
vt 0.000000 0.000000
vt 1.000000 0.000000
vt 1.000000 1.000000
vt 0.000000 1.000000
f 513/513 514/514 515/515 516/516
v 0.480000 0.160000 0.280000
v 0.480000 0.160000 0.500000
v 0.480000 0.400000 0.500000
v 0.480000 0.400000 0.280000
vt 0.000000 0.000000
vt 1.000000 0.000000
vt 1.000000 1.000000
vt 0.000000 1.000000
f 517/517 518/518 519/519 520/520
v 0.280000 0.400000 0.280000
v 0.480000 0.400000 0.280000
v 0.480000 0.400000 0.500000
v 0.280000 0.400000 0.500000
vt 0.000000 0.000000
vt 1.000000 0.000000
vt 1.000000 1.000000
vt 0.000000 1.000000
f 521/521 522/522 523/523 524/524
v 0.280000 0.160000 0.500000
v 0.480000 0.160000 0.500000
v 0.480000 0.160000 0.280000
v 0.280000 0.160000 0.280000
vt 0.000000 0.000000
vt 1.000000 0.000000
vt 1.000000 1.000000
vt 0.000000 1.000000
f 525/525 526/526 527/527 528/528
