mtllib maintenance_hatch_open.mtl
o maintenance_hatch_open
s 1
usemtl dark
v 0.040000 0.000000 0.780000
v 0.960000 0.000000 0.780000
v 0.960000 1.200000 0.780000
v 0.040000 1.200000 0.780000
vt 0.000000 0.000000
vt 1.000000 0.000000
vt 1.000000 1.000000
vt 0.000000 1.000000
f 1/1 2/2 3/3 4/4
v 0.960000 0.000000 0.900000
v 0.040000 0.000000 0.900000
v 0.040000 1.200000 0.900000
v 0.960000 1.200000 0.900000
vt 0.000000 0.000000
vt 1.000000 0.000000
vt 1.000000 1.000000
vt 0.000000 1.000000
f 5/5 6/6 7/7 8/8
v 0.040000 0.000000 0.900000
v 0.040000 0.000000 0.780000
v 0.040000 1.200000 0.780000
v 0.040000 1.200000 0.900000
vt 0.000000 0.000000
vt 1.000000 0.000000
vt 1.000000 1.000000
vt 0.000000 1.000000
f 9/9 10/10 11/11 12/12
v 0.960000 0.000000 0.780000
v 0.960000 0.000000 0.900000
v 0.960000 1.200000 0.900000
v 0.960000 1.200000 0.780000
vt 0.000000 0.000000
vt 1.000000 0.000000
vt 1.000000 1.000000
vt 0.000000 1.000000
f 13/13 14/14 15/15 16/16
v 0.040000 1.200000 0.780000
v 0.960000 1.200000 0.780000
v 0.960000 1.200000 0.900000
v 0.040000 1.200000 0.900000
vt 0.000000 0.000000
vt 1.000000 0.000000
vt 1.000000 1.000000
vt 0.000000 1.000000
f 17/17 18/18 19/19 20/20
v 0.040000 0.000000 0.900000
v 0.960000 0.000000 0.900000
v 0.960000 0.000000 0.780000
v 0.040000 0.000000 0.780000
vt 0.000000 0.000000
vt 1.000000 0.000000
vt 1.000000 1.000000
vt 0.000000 1.000000
f 21/21 22/22 23/23 24/24
usemtl body
v 0.500000 0.080000 0.570000
v 0.590587 0.080000 0.581926
v 0.590587 1.050000 0.581926
v 0.500000 1.050000 0.570000
vt 0.000000 0.000000
vt 0.041667 0.000000
vt 0.041667 1.000000
vt 0.000000 1.000000
f 25/25 26/26 27/27 28/28
v 0.500000 0.080000 0.920000
v 0.590587 0.080000 0.581926
v 0.500000 0.080000 0.570000
vt 0.000000 0.000000
vt 1.000000 0.000000
vt 1.000000 1.000000
f 29/29 30/30 31/31
v 0.500000 1.050000 0.920000
v 0.500000 1.050000 0.570000
v 0.590587 1.050000 0.581926
vt 0.000000 0.000000
vt 1.000000 0.000000
vt 1.000000 1.000000
f 32/32 33/33 34/34
v 0.590587 0.080000 0.581926
v 0.675000 0.080000 0.616891
v 0.675000 1.050000 0.616891
v 0.590587 1.050000 0.581926
vt 0.041667 0.000000
vt 0.083333 0.000000
vt 0.083333 1.000000
vt 0.041667 1.000000
f 35/35 36/36 37/37 38/38
v 0.500000 0.080000 0.920000
v 0.675000 0.080000 0.616891
v 0.590587 0.080000 0.581926
vt 0.000000 0.000000
vt 1.000000 0.000000
vt 1.000000 1.000000
f 39/39 40/40 41/41
v 0.500000 1.050000 0.920000
v 0.590587 1.050000 0.581926
v 0.675000 1.050000 0.616891
vt 0.000000 0.000000
vt 1.000000 0.000000
vt 1.000000 1.000000
f 42/42 43/43 44/44
v 0.675000 0.080000 0.616891
v 0.747487 0.080000 0.672513
v 0.747487 1.050000 0.672513
v 0.675000 1.050000 0.616891
vt 0.083333 0.000000
vt 0.125000 0.000000
vt 0.125000 1.000000
vt 0.083333 1.000000
f 45/45 46/46 47/47 48/48
v 0.500000 0.080000 0.920000
v 0.747487 0.080000 0.672513
v 0.675000 0.080000 0.616891
vt 0.000000 0.000000
vt 1.000000 0.000000
vt 1.000000 1.000000
f 49/49 50/50 51/51
v 0.500000 1.050000 0.920000
v 0.675000 1.050000 0.616891
v 0.747487 1.050000 0.672513
vt 0.000000 0.000000
vt 1.000000 0.000000
vt 1.000000 1.000000
f 52/52 53/53 54/54
v 0.747487 0.080000 0.672513
v 0.803109 0.080000 0.745000
v 0.803109 1.050000 0.745000
v 0.747487 1.050000 0.672513
vt 0.125000 0.000000
vt 0.166667 0.000000
vt 0.166667 1.000000
vt 0.125000 1.000000
f 55/55 56/56 57/57 58/58
v 0.500000 0.080000 0.920000
v 0.803109 0.080000 0.745000
v 0.747487 0.080000 0.672513
vt 0.000000 0.000000
vt 1.000000 0.000000
vt 1.000000 1.000000
f 59/59 60/60 61/61
v 0.500000 1.050000 0.920000
v 0.747487 1.050000 0.672513
v 0.803109 1.050000 0.745000
vt 0.000000 0.000000
vt 1.000000 0.000000
vt 1.000000 1.000000
f 62/62 63/63 64/64
v 0.803109 0.080000 0.745000
v 0.838074 0.080000 0.829413
v 0.838074 1.050000 0.829413
v 0.803109 1.050000 0.745000
vt 0.166667 0.000000
vt 0.208333 0.000000
vt 0.208333 1.000000
vt 0.166667 1.000000
f 65/65 66/66 67/67 68/68
v 0.500000 0.080000 0.920000
v 0.838074 0.080000 0.829413
v 0.803109 0.080000 0.745000
vt 0.000000 0.000000
vt 1.000000 0.000000
vt 1.000000 1.000000
f 69/69 70/70 71/71
v 0.500000 1.050000 0.920000
v 0.803109 1.050000 0.745000
v 0.838074 1.050000 0.829413
vt 0.000000 0.000000
vt 1.000000 0.000000
vt 1.000000 1.000000
f 72/72 73/73 74/74
v 0.838074 0.080000 0.829413
v 0.850000 0.080000 0.920000
v 0.850000 1.050000 0.920000
v 0.838074 1.050000 0.829413
vt 0.208333 0.000000
vt 0.250000 0.000000
vt 0.250000 1.000000
vt 0.208333 1.000000
f 75/75 76/76 77/77 78/78
v 0.500000 0.080000 0.920000
v 0.850000 0.080000 0.920000
v 0.838074 0.080000 0.829413
vt 0.000000 0.000000
vt 1.000000 0.000000
vt 1.000000 1.000000
f 79/79 80/80 81/81
v 0.500000 1.050000 0.920000
v 0.838074 1.050000 0.829413
v 0.850000 1.050000 0.920000
vt 0.000000 0.000000
vt 1.000000 0.000000
vt 1.000000 1.000000
f 82/82 83/83 84/84
v 0.850000 0.080000 0.920000
v 0.838074 0.080000 1.010587
v 0.838074 1.050000 1.010587
v 0.850000 1.050000 0.920000
vt 0.250000 0.000000
vt 0.291667 0.000000
vt 0.291667 1.000000
vt 0.250000 1.000000
f 85/85 86/86 87/87 88/88
v 0.500000 0.080000 0.920000
v 0.838074 0.080000 1.010587
v 0.850000 0.080000 0.920000
vt 0.000000 0.000000
vt 1.000000 0.000000
vt 1.000000 1.000000
f 89/89 90/90 91/91
v 0.500000 1.050000 0.920000
v 0.850000 1.050000 0.920000
v 0.838074 1.050000 1.010587
vt 0.000000 0.000000
vt 1.000000 0.000000
vt 1.000000 1.000000
f 92/92 93/93 94/94
v 0.838074 0.080000 1.010587
v 0.803109 0.080000 1.095000
v 0.803109 1.050000 1.095000
v 0.838074 1.050000 1.010587
vt 0.291667 0.000000
vt 0.333333 0.000000
vt 0.333333 1.000000
vt 0.291667 1.000000
f 95/95 96/96 97/97 98/98
v 0.500000 0.080000 0.920000
v 0.803109 0.080000 1.095000
v 0.838074 0.080000 1.010587
vt 0.000000 0.000000
vt 1.000000 0.000000
vt 1.000000 1.000000
f 99/99 100/100 101/101
v 0.500000 1.050000 0.920000
v 0.838074 1.050000 1.010587
v 0.803109 1.050000 1.095000
vt 0.000000 0.000000
vt 1.000000 0.000000
vt 1.000000 1.000000
f 102/102 103/103 104/104
v 0.803109 0.080000 1.095000
v 0.747487 0.080000 1.167487
v 0.747487 1.050000 1.167487
v 0.803109 1.050000 1.095000
vt 0.333333 0.000000
vt 0.375000 0.000000
vt 0.375000 1.000000
vt 0.333333 1.000000
f 105/105 106/106 107/107 108/108
v 0.500000 0.080000 0.920000
v 0.747487 0.080000 1.167487
v 0.803109 0.080000 1.095000
vt 0.000000 0.000000
vt 1.000000 0.000000
vt 1.000000 1.000000
f 109/109 110/110 111/111
v 0.500000 1.050000 0.920000
v 0.803109 1.050000 1.095000
v 0.747487 1.050000 1.167487
vt 0.000000 0.000000
vt 1.000000 0.000000
vt 1.000000 1.000000
f 112/112 113/113 114/114
v 0.747487 0.080000 1.167487
v 0.675000 0.080000 1.223109
v 0.675000 1.050000 1.223109
v 0.747487 1.050000 1.167487
vt 0.375000 0.000000
vt 0.416667 0.000000
vt 0.416667 1.000000
vt 0.375000 1.000000
f 115/115 116/116 117/117 118/118
v 0.500000 0.080000 0.920000
v 0.675000 0.080000 1.223109
v 0.747487 0.080000 1.167487
vt 0.000000 0.000000
vt 1.000000 0.000000
vt 1.000000 1.000000
f 119/119 120/120 121/121
v 0.500000 1.050000 0.920000
v 0.747487 1.050000 1.167487
v 0.675000 1.050000 1.223109
vt 0.000000 0.000000
vt 1.000000 0.000000
vt 1.000000 1.000000
f 122/122 123/123 124/124
v 0.675000 0.080000 1.223109
v 0.590587 0.080000 1.258074
v 0.590587 1.050000 1.258074
v 0.675000 1.050000 1.223109
vt 0.416667 0.000000
vt 0.458333 0.000000
vt 0.458333 1.000000
vt 0.416667 1.000000
f 125/125 126/126 127/127 128/128
v 0.500000 0.080000 0.920000
v 0.590587 0.080000 1.258074
v 0.675000 0.080000 1.223109
vt 0.000000 0.000000
vt 1.000000 0.000000
vt 1.000000 1.000000
f 129/129 130/130 131/131
v 0.500000 1.050000 0.920000
v 0.675000 1.050000 1.223109
v 0.590587 1.050000 1.258074
vt 0.000000 0.000000
vt 1.000000 0.000000
vt 1.000000 1.000000
f 132/132 133/133 134/134
v 0.590587 0.080000 1.258074
v 0.500000 0.080000 1.270000
v 0.500000 1.050000 1.270000
v 0.590587 1.050000 1.258074
vt 0.458333 0.000000
vt 0.500000 0.000000
vt 0.500000 1.000000
vt 0.458333 1.000000
f 135/135 136/136 137/137 138/138
v 0.500000 0.080000 0.920000
v 0.500000 0.080000 1.270000
v 0.590587 0.080000 1.258074
vt 0.000000 0.000000
vt 1.000000 0.000000
vt 1.000000 1.000000
f 139/139 140/140 141/141
v 0.500000 1.050000 0.920000
v 0.590587 1.050000 1.258074
v 0.500000 1.050000 1.270000
vt 0.000000 0.000000
vt 1.000000 0.000000
vt 1.000000 1.000000
f 142/142 143/143 144/144
v 0.500000 0.080000 1.270000
v 0.409413 0.080000 1.258074
v 0.409413 1.050000 1.258074
v 0.500000 1.050000 1.270000
vt 0.500000 0.000000
vt 0.541667 0.000000
vt 0.541667 1.000000
vt 0.500000 1.000000
f 145/145 146/146 147/147 148/148
v 0.500000 0.080000 0.920000
v 0.409413 0.080000 1.258074
v 0.500000 0.080000 1.270000
vt 0.000000 0.000000
vt 1.000000 0.000000
vt 1.000000 1.000000
f 149/149 150/150 151/151
v 0.500000 1.050000 0.920000
v 0.500000 1.050000 1.270000
v 0.409413 1.050000 1.258074
vt 0.000000 0.000000
vt 1.000000 0.000000
vt 1.000000 1.000000
f 152/152 153/153 154/154
v 0.409413 0.080000 1.258074
v 0.325000 0.080000 1.223109
v 0.325000 1.050000 1.223109
v 0.409413 1.050000 1.258074
vt 0.541667 0.000000
vt 0.583333 0.000000
vt 0.583333 1.000000
vt 0.541667 1.000000
f 155/155 156/156 157/157 158/158
v 0.500000 0.080000 0.920000
v 0.325000 0.080000 1.223109
v 0.409413 0.080000 1.258074
vt 0.000000 0.000000
vt 1.000000 0.000000
vt 1.000000 1.000000
f 159/159 160/160 161/161
v 0.500000 1.050000 0.920000
v 0.409413 1.050000 1.258074
v 0.325000 1.050000 1.223109
vt 0.000000 0.000000
vt 1.000000 0.000000
vt 1.000000 1.000000
f 162/162 163/163 164/164
v 0.325000 0.080000 1.223109
v 0.252513 0.080000 1.167487
v 0.252513 1.050000 1.167487
v 0.325000 1.050000 1.223109
vt 0.583333 0.000000
vt 0.625000 0.000000
vt 0.625000 1.000000
vt 0.583333 1.000000
f 165/165 166/166 167/167 168/168
v 0.500000 0.080000 0.920000
v 0.252513 0.080000 1.167487
v 0.325000 0.080000 1.223109
vt 0.000000 0.000000
vt 1.000000 0.000000
vt 1.000000 1.000000
f 169/169 170/170 171/171
v 0.500000 1.050000 0.920000
v 0.325000 1.050000 1.223109
v 0.252513 1.050000 1.167487
vt 0.000000 0.000000
vt 1.000000 0.000000
vt 1.000000 1.000000
f 172/172 173/173 174/174
v 0.252513 0.080000 1.167487
v 0.196891 0.080000 1.095000
v 0.196891 1.050000 1.095000
v 0.252513 1.050000 1.167487
vt 0.625000 0.000000
vt 0.666667 0.000000
vt 0.666667 1.000000
vt 0.625000 1.000000
f 175/175 176/176 177/177 178/178
v 0.500000 0.080000 0.920000
v 0.196891 0.080000 1.095000
v 0.252513 0.080000 1.167487
vt 0.000000 0.000000
vt 1.000000 0.000000
vt 1.000000 1.000000
f 179/179 180/180 181/181
v 0.500000 1.050000 0.920000
v 0.252513 1.050000 1.167487
v 0.196891 1.050000 1.095000
vt 0.000000 0.000000
vt 1.000000 0.000000
vt 1.000000 1.000000
f 182/182 183/183 184/184
v 0.196891 0.080000 1.095000
v 0.161926 0.080000 1.010587
v 0.161926 1.050000 1.010587
v 0.196891 1.050000 1.095000
vt 0.666667 0.000000
vt 0.708333 0.000000
vt 0.708333 1.000000
vt 0.666667 1.000000
f 185/185 186/186 187/187 188/188
v 0.500000 0.080000 0.920000
v 0.161926 0.080000 1.010587
v 0.196891 0.080000 1.095000
vt 0.000000 0.000000
vt 1.000000 0.000000
vt 1.000000 1.000000
f 189/189 190/190 191/191
v 0.500000 1.050000 0.920000
v 0.196891 1.050000 1.095000
v 0.161926 1.050000 1.010587
vt 0.000000 0.000000
vt 1.000000 0.000000
vt 1.000000 1.000000
f 192/192 193/193 194/194
v 0.161926 0.080000 1.010587
v 0.150000 0.080000 0.920000
v 0.150000 1.050000 0.920000
v 0.161926 1.050000 1.010587
vt 0.708333 0.000000
vt 0.750000 0.000000
vt 0.750000 1.000000
vt 0.708333 1.000000
f 195/195 196/196 197/197 198/198
v 0.500000 0.080000 0.920000
v 0.150000 0.080000 0.920000
v 0.161926 0.080000 1.010587
vt 0.000000 0.000000
vt 1.000000 0.000000
vt 1.000000 1.000000
f 199/199 200/200 201/201
v 0.500000 1.050000 0.920000
v 0.161926 1.050000 1.010587
v 0.150000 1.050000 0.920000
vt 0.000000 0.000000
vt 1.000000 0.000000
vt 1.000000 1.000000
f 202/202 203/203 204/204
v 0.150000 0.080000 0.920000
v 0.161926 0.080000 0.829413
v 0.161926 1.050000 0.829413
v 0.150000 1.050000 0.920000
vt 0.750000 0.000000
vt 0.791667 0.000000
vt 0.791667 1.000000
vt 0.750000 1.000000
f 205/205 206/206 207/207 208/208
v 0.500000 0.080000 0.920000
v 0.161926 0.080000 0.829413
v 0.150000 0.080000 0.920000
vt 0.000000 0.000000
vt 1.000000 0.000000
vt 1.000000 1.000000
f 209/209 210/210 211/211
v 0.500000 1.050000 0.920000
v 0.150000 1.050000 0.920000
v 0.161926 1.050000 0.829413
vt 0.000000 0.000000
vt 1.000000 0.000000
vt 1.000000 1.000000
f 212/212 213/213 214/214
v 0.161926 0.080000 0.829413
v 0.196891 0.080000 0.745000
v 0.196891 1.050000 0.745000
v 0.161926 1.050000 0.829413
vt 0.791667 0.000000
vt 0.833333 0.000000
vt 0.833333 1.000000
vt 0.791667 1.000000
f 215/215 216/216 217/217 218/218
v 0.500000 0.080000 0.920000
v 0.196891 0.080000 0.745000
v 0.161926 0.080000 0.829413
vt 0.000000 0.000000
vt 1.000000 0.000000
vt 1.000000 1.000000
f 219/219 220/220 221/221
v 0.500000 1.050000 0.920000
v 0.161926 1.050000 0.829413
v 0.196891 1.050000 0.745000
vt 0.000000 0.000000
vt 1.000000 0.000000
vt 1.000000 1.000000
f 222/222 223/223 224/224
v 0.196891 0.080000 0.745000
v 0.252513 0.080000 0.672513
v 0.252513 1.050000 0.672513
v 0.196891 1.050000 0.745000
vt 0.833333 0.000000
vt 0.875000 0.000000
vt 0.875000 1.000000
vt 0.833333 1.000000
f 225/225 226/226 227/227 228/228
v 0.500000 0.080000 0.920000
v 0.252513 0.080000 0.672513
v 0.196891 0.080000 0.745000
vt 0.000000 0.000000
vt 1.000000 0.000000
vt 1.000000 1.000000
f 229/229 230/230 231/231
v 0.500000 1.050000 0.920000
v 0.196891 1.050000 0.745000
v 0.252513 1.050000 0.672513
vt 0.000000 0.000000
vt 1.000000 0.000000
vt 1.000000 1.000000
f 232/232 233/233 234/234
v 0.252513 0.080000 0.672513
v 0.325000 0.080000 0.616891
v 0.325000 1.050000 0.616891
v 0.252513 1.050000 0.672513
vt 0.875000 0.000000
vt 0.916667 0.000000
vt 0.916667 1.000000
vt 0.875000 1.000000
f 235/235 236/236 237/237 238/238
v 0.500000 0.080000 0.920000
v 0.325000 0.080000 0.616891
v 0.252513 0.080000 0.672513
vt 0.000000 0.000000
vt 1.000000 0.000000
vt 1.000000 1.000000
f 239/239 240/240 241/241
v 0.500000 1.050000 0.920000
v 0.252513 1.050000 0.672513
v 0.325000 1.050000 0.616891
vt 0.000000 0.000000
vt 1.000000 0.000000
vt 1.000000 1.000000
f 242/242 243/243 244/244
v 0.325000 0.080000 0.616891
v 0.409413 0.080000 0.581926
v 0.409413 1.050000 0.581926
v 0.325000 1.050000 0.616891
vt 0.916667 0.000000
vt 0.958333 0.000000
vt 0.958333 1.000000
vt 0.916667 1.000000
f 245/245 246/246 247/247 248/248
v 0.500000 0.080000 0.920000
v 0.409413 0.080000 0.581926
v 0.325000 0.080000 0.616891
vt 0.000000 0.000000
vt 1.000000 0.000000
vt 1.000000 1.000000
f 249/249 250/250 251/251
v 0.500000 1.050000 0.920000
v 0.325000 1.050000 0.616891
v 0.409413 1.050000 0.581926
vt 0.000000 0.000000
vt 1.000000 0.000000
vt 1.000000 1.000000
f 252/252 253/253 254/254
v 0.409413 0.080000 0.581926
v 0.500000 0.080000 0.570000
v 0.500000 1.050000 0.570000
v 0.409413 1.050000 0.581926
vt 0.958333 0.000000
vt 1.000000 0.000000
vt 1.000000 1.000000
vt 0.958333 1.000000
f 255/255 256/256 257/257 258/258
v 0.500000 0.080000 0.920000
v 0.500000 0.080000 0.570000
v 0.409413 0.080000 0.581926
vt 0.000000 0.000000
vt 1.000000 0.000000
vt 1.000000 1.000000
f 259/259 260/260 261/261
v 0.500000 1.050000 0.920000
v 0.409413 1.050000 0.581926
v 0.500000 1.050000 0.570000
vt 0.000000 0.000000
vt 1.000000 0.000000
vt 1.000000 1.000000
f 262/262 263/263 264/264
usemtl yellow
v 0.450000 0.000000 0.800000
v 0.550000 0.000000 0.800000
v 0.550000 0.100000 0.800000
v 0.450000 0.100000 0.800000
vt 0.000000 0.000000
vt 1.000000 0.000000
vt 1.000000 1.000000
vt 0.000000 1.000000
f 265/265 266/266 267/267 268/268
v 0.550000 0.000000 1.000000
v 0.450000 0.000000 1.000000
v 0.450000 0.100000 1.000000
v 0.550000 0.100000 1.000000
vt 0.000000 0.000000
vt 1.000000 0.000000
vt 1.000000 1.000000
vt 0.000000 1.000000
f 269/269 270/270 271/271 272/272
v 0.450000 0.000000 1.000000
v 0.450000 0.000000 0.800000
v 0.450000 0.100000 0.800000
v 0.450000 0.100000 1.000000
vt 0.000000 0.000000
vt 1.000000 0.000000
vt 1.000000 1.000000
vt 0.000000 1.000000
f 273/273 274/274 275/275 276/276
v 0.550000 0.000000 0.800000
v 0.550000 0.000000 1.000000
v 0.550000 0.100000 1.000000
v 0.550000 0.100000 0.800000
vt 0.000000 0.000000
vt 1.000000 0.000000
vt 1.000000 1.000000
vt 0.000000 1.000000
f 277/277 278/278 279/279 280/280
v 0.450000 0.100000 0.800000
v 0.550000 0.100000 0.800000
v 0.550000 0.100000 1.000000
v 0.450000 0.100000 1.000000
vt 0.000000 0.000000
vt 1.000000 0.000000
vt 1.000000 1.000000
vt 0.000000 1.000000
f 281/281 282/282 283/283 284/284
v 0.450000 0.000000 1.000000
v 0.550000 0.000000 1.000000
v 0.550000 0.000000 0.800000
v 0.450000 0.000000 0.800000
vt 0.000000 0.000000
vt 1.000000 0.000000
vt 1.000000 1.000000
vt 0.000000 1.000000
f 285/285 286/286 287/287 288/288
