mtllib missile_assembly.mtl
o missile_assembly
s 1
usemtl dark
v 0.000000 0.000000 0.100000
v 1.000000 0.000000 0.100000
v 1.000000 0.120000 0.100000
v 0.000000 0.120000 0.100000
vt 0.000000 0.000000
vt 1.000000 0.000000
vt 1.000000 1.000000
vt 0.000000 1.000000
f 1/1 2/2 3/3 4/4
v 1.000000 0.000000 0.900000
v 0.000000 0.000000 0.900000
v 0.000000 0.120000 0.900000
v 1.000000 0.120000 0.900000
vt 0.000000 0.000000
vt 1.000000 0.000000
vt 1.000000 1.000000
vt 0.000000 1.000000
f 5/5 6/6 7/7 8/8
v 0.000000 0.000000 0.900000
v 0.000000 0.000000 0.100000
v 0.000000 0.120000 0.100000
v 0.000000 0.120000 0.900000
vt 0.000000 0.000000
vt 1.000000 0.000000
vt 1.000000 1.000000
vt 0.000000 1.000000
f 9/9 10/10 11/11 12/12
v 1.000000 0.000000 0.100000
v 1.000000 0.000000 0.900000
v 1.000000 0.120000 0.900000
v 1.000000 0.120000 0.100000
vt 0.000000 0.000000
vt 1.000000 0.000000
vt 1.000000 1.000000
vt 0.000000 1.000000
f 13/13 14/14 15/15 16/16
v 0.000000 0.120000 0.100000
v 1.000000 0.120000 0.100000
v 1.000000 0.120000 0.900000
v 0.000000 0.120000 0.900000
vt 0.000000 0.000000
vt 1.000000 0.000000
vt 1.000000 1.000000
vt 0.000000 1.000000
f 17/17 18/18 19/19 20/20
v 0.000000 0.000000 0.900000
v 1.000000 0.000000 0.900000
v 1.000000 0.000000 0.100000
v 0.000000 0.000000 0.100000
vt 0.000000 0.000000
vt 1.000000 0.000000
vt 1.000000 1.000000
vt 0.000000 1.000000
f 21/21 22/22 23/23 24/24
usemtl olive
v 0.080000 0.120000 0.180000
v 0.180000 0.120000 0.180000
v 0.180000 0.550000 0.180000
v 0.080000 0.550000 0.180000
vt 0.000000 0.000000
vt 1.000000 0.000000
vt 1.000000 1.000000
vt 0.000000 1.000000
f 25/25 26/26 27/27 28/28
v 0.180000 0.120000 0.820000
v 0.080000 0.120000 0.820000
v 0.080000 0.550000 0.820000
v 0.180000 0.550000 0.820000
vt 0.000000 0.000000
vt 1.000000 0.000000
vt 1.000000 1.000000
vt 0.000000 1.000000
f 29/29 30/30 31/31 32/32
v 0.080000 0.120000 0.820000
v 0.080000 0.120000 0.180000
v 0.080000 0.550000 0.180000
v 0.080000 0.550000 0.820000
vt 0.000000 0.000000
vt 1.000000 0.000000
vt 1.000000 1.000000
vt 0.000000 1.000000
f 33/33 34/34 35/35 36/36
v 0.180000 0.120000 0.180000
v 0.180000 0.120000 0.820000
v 0.180000 0.550000 0.820000
v 0.180000 0.550000 0.180000
vt 0.000000 0.000000
vt 1.000000 0.000000
vt 1.000000 1.000000
vt 0.000000 1.000000
f 37/37 38/38 39/39 40/40
v 0.080000 0.550000 0.180000
v 0.180000 0.550000 0.180000
v 0.180000 0.550000 0.820000
v 0.080000 0.550000 0.820000
vt 0.000000 0.000000
vt 1.000000 0.000000
vt 1.000000 1.000000
vt 0.000000 1.000000
f 41/41 42/42 43/43 44/44
v 0.080000 0.120000 0.820000
v 0.180000 0.120000 0.820000
v 0.180000 0.120000 0.180000
v 0.080000 0.120000 0.180000
vt 0.000000 0.000000
vt 1.000000 0.000000
vt 1.000000 1.000000
vt 0.000000 1.000000
f 45/45 46/46 47/47 48/48
v 0.820000 0.120000 0.180000
v 0.920000 0.120000 0.180000
v 0.920000 0.550000 0.180000
v 0.820000 0.550000 0.180000
vt 0.000000 0.000000
vt 1.000000 0.000000
vt 1.000000 1.000000
vt 0.000000 1.000000
f 49/49 50/50 51/51 52/52
v 0.920000 0.120000 0.820000
v 0.820000 0.120000 0.820000
v 0.820000 0.550000 0.820000
v 0.920000 0.550000 0.820000
vt 0.000000 0.000000
vt 1.000000 0.000000
vt 1.000000 1.000000
vt 0.000000 1.000000
f 53/53 54/54 55/55 56/56
v 0.820000 0.120000 0.820000
v 0.820000 0.120000 0.180000
v 0.820000 0.550000 0.180000
v 0.820000 0.550000 0.820000
vt 0.000000 0.000000
vt 1.000000 0.000000
vt 1.000000 1.000000
vt 0.000000 1.000000
f 57/57 58/58 59/59 60/60
v 0.920000 0.120000 0.180000
v 0.920000 0.120000 0.820000
v 0.920000 0.550000 0.820000
v 0.920000 0.550000 0.180000
vt 0.000000 0.000000
vt 1.000000 0.000000
vt 1.000000 1.000000
vt 0.000000 1.000000
f 61/61 62/62 63/63 64/64
v 0.820000 0.550000 0.180000
v 0.920000 0.550000 0.180000
v 0.920000 0.550000 0.820000
v 0.820000 0.550000 0.820000
vt 0.000000 0.000000
vt 1.000000 0.000000
vt 1.000000 1.000000
vt 0.000000 1.000000
f 65/65 66/66 67/67 68/68
v 0.820000 0.120000 0.820000
v 0.920000 0.120000 0.820000
v 0.920000 0.120000 0.180000
v 0.820000 0.120000 0.180000
vt 0.000000 0.000000
vt 1.000000 0.000000
vt 1.000000 1.000000
vt 0.000000 1.000000
f 69/69 70/70 71/71 72/72
usemtl yellow
v 0.080000 0.500000 0.400000
v 0.920000 0.500000 0.400000
v 0.920000 0.580000 0.400000
v 0.080000 0.580000 0.400000
vt 0.000000 0.000000
vt 1.000000 0.000000
vt 1.000000 1.000000
vt 0.000000 1.000000
f 73/73 74/74 75/75 76/76
v 0.920000 0.500000 0.600000
v 0.080000 0.500000 0.600000
v 0.080000 0.580000 0.600000
v 0.920000 0.580000 0.600000
vt 0.000000 0.000000
vt 1.000000 0.000000
vt 1.000000 1.000000
vt 0.000000 1.000000
f 77/77 78/78 79/79 80/80
v 0.080000 0.500000 0.600000
v 0.080000 0.500000 0.400000
v 0.080000 0.580000 0.400000
v 0.080000 0.580000 0.600000
vt 0.000000 0.000000
vt 1.000000 0.000000
vt 1.000000 1.000000
vt 0.000000 1.000000
f 81/81 82/82 83/83 84/84
v 0.920000 0.500000 0.400000
v 0.920000 0.500000 0.600000
v 0.920000 0.580000 0.600000
v 0.920000 0.580000 0.400000
vt 0.000000 0.000000
vt 1.000000 0.000000
vt 1.000000 1.000000
vt 0.000000 1.000000
f 85/85 86/86 87/87 88/88
v 0.080000 0.580000 0.400000
v 0.920000 0.580000 0.400000
v 0.920000 0.580000 0.600000
v 0.080000 0.580000 0.600000
vt 0.000000 0.000000
vt 1.000000 0.000000
vt 1.000000 1.000000
vt 0.000000 1.000000
f 89/89 90/90 91/91 92/92
v 0.080000 0.500000 0.600000
v 0.920000 0.500000 0.600000
v 0.920000 0.500000 0.400000
v 0.080000 0.500000 0.400000
vt 0.000000 0.000000
vt 1.000000 0.000000
vt 1.000000 1.000000
vt 0.000000 1.000000
f 93/93 94/94 95/95 96/96
usemtl dark
v 0.543200 0.084000 0.499966
v 0.541096 0.084000 0.513317
v 0.527398 0.122400 0.508878
v 0.528800 0.122400 0.499977
vt 0.000000 0.000000
vt 0.050000 0.000000
vt 0.050000 1.000000
vt 0.000000 1.000000
f 97/97 98/98 99/99 100/100
v 0.500000 0.084000 0.500000
v 0.541096 0.084000 0.513317
v 0.543200 0.084000 0.499966
vt 0.000000 0.000000
vt 1.000000 0.000000
vt 1.000000 1.000000
f 101/101 102/102 103/103
v 0.500000 0.122400 0.500000
v 0.528800 0.122400 0.499977
v 0.527398 0.122400 0.508878
vt 0.000000 0.000000
vt 1.000000 0.000000
vt 1.000000 1.000000
f 104/104 105/105 106/106
v 0.541096 0.084000 0.513317
v 0.534970 0.084000 0.525364
v 0.523313 0.122400 0.516910
v 0.527398 0.122400 0.508878
vt 0.050000 0.000000
vt 0.100000 0.000000
vt 0.100000 1.000000
vt 0.050000 1.000000
f 107/107 108/108 109/109 110/110
v 0.500000 0.084000 0.500000
v 0.534970 0.084000 0.525364
v 0.541096 0.084000 0.513317
vt 0.000000 0.000000
vt 1.000000 0.000000
vt 1.000000 1.000000
f 111/111 112/112 113/113
v 0.500000 0.122400 0.500000
v 0.527398 0.122400 0.508878
v 0.523313 0.122400 0.516910
vt 0.000000 0.000000
vt 1.000000 0.000000
vt 1.000000 1.000000
f 114/114 115/115 116/116
v 0.534970 0.084000 0.525364
v 0.525420 0.084000 0.534929
v 0.516947 0.122400 0.523286
v 0.523313 0.122400 0.516910
vt 0.100000 0.000000
vt 0.150000 0.000000
vt 0.150000 1.000000
vt 0.100000 1.000000
f 117/117 118/118 119/119 120/120
v 0.500000 0.084000 0.500000
v 0.525420 0.084000 0.534929
v 0.534970 0.084000 0.525364
vt 0.000000 0.000000
vt 1.000000 0.000000
vt 1.000000 1.000000
f 121/121 122/122 123/123
v 0.500000 0.122400 0.500000
v 0.523313 0.122400 0.516910
v 0.516947 0.122400 0.523286
vt 0.000000 0.000000
vt 1.000000 0.000000
vt 1.000000 1.000000
f 124/124 125/125 126/126
v 0.525420 0.084000 0.534929
v 0.513382 0.084000 0.541075
v 0.508921 0.122400 0.527383
v 0.516947 0.122400 0.523286
vt 0.150000 0.000000
vt 0.200000 0.000000
vt 0.200000 1.000000
vt 0.150000 1.000000
f 127/127 128/128 129/129 130/130
v 0.500000 0.084000 0.500000
v 0.513382 0.084000 0.541075
v 0.525420 0.084000 0.534929
vt 0.000000 0.000000
vt 1.000000 0.000000
vt 1.000000 1.000000
f 131/131 132/132 133/133
v 0.500000 0.122400 0.500000
v 0.516947 0.122400 0.523286
v 0.508921 0.122400 0.527383
vt 0.000000 0.000000
vt 1.000000 0.000000
vt 1.000000 1.000000
f 134/134 135/135 136/136
v 0.513382 0.084000 0.541075
v 0.500034 0.084000 0.543200
v 0.500023 0.122400 0.528800
v 0.508921 0.122400 0.527383
vt 0.200000 0.000000
vt 0.250000 0.000000
vt 0.250000 1.000000
vt 0.200000 1.000000
f 137/137 138/138 139/139 140/140
v 0.500000 0.084000 0.500000
v 0.500034 0.084000 0.543200
v 0.513382 0.084000 0.541075
vt 0.000000 0.000000
vt 1.000000 0.000000
vt 1.000000 1.000000
f 141/141 142/142 143/143
v 0.500000 0.122400 0.500000
v 0.508921 0.122400 0.527383
v 0.500023 0.122400 0.528800
vt 0.000000 0.000000
vt 1.000000 0.000000
vt 1.000000 1.000000
f 144/144 145/145 146/146
v 0.500034 0.084000 0.543200
v 0.486683 0.084000 0.541096
v 0.491122 0.122400 0.527398
v 0.500023 0.122400 0.528800
vt 0.250000 0.000000
vt 0.300000 0.000000
vt 0.300000 1.000000
vt 0.250000 1.000000
f 147/147 148/148 149/149 150/150
v 0.500000 0.084000 0.500000
v 0.486683 0.084000 0.541096
v 0.500034 0.084000 0.543200
vt 0.000000 0.000000
vt 1.000000 0.000000
vt 1.000000 1.000000
f 151/151 152/152 153/153
v 0.500000 0.122400 0.500000
v 0.500023 0.122400 0.528800
v 0.491122 0.122400 0.527398
vt 0.000000 0.000000
vt 1.000000 0.000000
vt 1.000000 1.000000
f 154/154 155/155 156/156
v 0.486683 0.084000 0.541096
v 0.474636 0.084000 0.534970
v 0.483090 0.122400 0.523313
v 0.491122 0.122400 0.527398
vt 0.300000 0.000000
vt 0.350000 0.000000
vt 0.350000 1.000000
vt 0.300000 1.000000
f 157/157 158/158 159/159 160/160
v 0.500000 0.084000 0.500000
v 0.474636 0.084000 0.534970
v 0.486683 0.084000 0.541096
vt 0.000000 0.000000
vt 1.000000 0.000000
vt 1.000000 1.000000
f 161/161 162/162 163/163
v 0.500000 0.122400 0.500000
v 0.491122 0.122400 0.527398
v 0.483090 0.122400 0.523313
vt 0.000000 0.000000
vt 1.000000 0.000000
vt 1.000000 1.000000
f 164/164 165/165 166/166
v 0.474636 0.084000 0.534970
v 0.465071 0.084000 0.525420
v 0.476714 0.122400 0.516947
v 0.483090 0.122400 0.523313
vt 0.350000 0.000000
vt 0.400000 0.000000
vt 0.400000 1.000000
vt 0.350000 1.000000
f 167/167 168/168 169/169 170/170
v 0.500000 0.084000 0.500000
v 0.465071 0.084000 0.525420
v 0.474636 0.084000 0.534970
vt 0.000000 0.000000
vt 1.000000 0.000000
vt 1.000000 1.000000
f 171/171 172/172 173/173
v 0.500000 0.122400 0.500000
v 0.483090 0.122400 0.523313
v 0.476714 0.122400 0.516947
vt 0.000000 0.000000
vt 1.000000 0.000000
vt 1.000000 1.000000
f 174/174 175/175 176/176
v 0.465071 0.084000 0.525420
v 0.458925 0.084000 0.513382
v 0.472617 0.122400 0.508921
v 0.476714 0.122400 0.516947
vt 0.400000 0.000000
vt 0.450000 0.000000
vt 0.450000 1.000000
vt 0.400000 1.000000
f 177/177 178/178 179/179 180/180
v 0.500000 0.084000 0.500000
v 0.458925 0.084000 0.513382
v 0.465071 0.084000 0.525420
vt 0.000000 0.000000
vt 1.000000 0.000000
vt 1.000000 1.000000
f 181/181 182/182 183/183
v 0.500000 0.122400 0.500000
v 0.476714 0.122400 0.516947
v 0.472617 0.122400 0.508921
vt 0.000000 0.000000
vt 1.000000 0.000000
vt 1.000000 1.000000
f 184/184 185/185 186/186
v 0.458925 0.084000 0.513382
v 0.456800 0.084000 0.500034
v 0.471200 0.122400 0.500023
v 0.472617 0.122400 0.508921
vt 0.450000 0.000000
vt 0.500000 0.000000
vt 0.500000 1.000000
vt 0.450000 1.000000
f 187/187 188/188 189/189 190/190
v 0.500000 0.084000 0.500000
v 0.456800 0.084000 0.500034
v 0.458925 0.084000 0.513382
vt 0.000000 0.000000
vt 1.000000 0.000000
vt 1.000000 1.000000
f 191/191 192/192 193/193
v 0.500000 0.122400 0.500000
v 0.472617 0.122400 0.508921
v 0.471200 0.122400 0.500023
vt 0.000000 0.000000
vt 1.000000 0.000000
vt 1.000000 1.000000
f 194/194 195/195 196/196
v 0.456800 0.084000 0.500034
v 0.458904 0.084000 0.486683
v 0.472602 0.122400 0.491122
v 0.471200 0.122400 0.500023
vt 0.500000 0.000000
vt 0.550000 0.000000
vt 0.550000 1.000000
vt 0.500000 1.000000
f 197/197 198/198 199/199 200/200
v 0.500000 0.084000 0.500000
v 0.458904 0.084000 0.486683
v 0.456800 0.084000 0.500034
vt 0.000000 0.000000
vt 1.000000 0.000000
vt 1.000000 1.000000
f 201/201 202/202 203/203
v 0.500000 0.122400 0.500000
v 0.471200 0.122400 0.500023
v 0.472602 0.122400 0.491122
vt 0.000000 0.000000
vt 1.000000 0.000000
vt 1.000000 1.000000
f 204/204 205/205 206/206
v 0.458904 0.084000 0.486683
v 0.465030 0.084000 0.474636
v 0.476687 0.122400 0.483090
v 0.472602 0.122400 0.491122
vt 0.550000 0.000000
vt 0.600000 0.000000
vt 0.600000 1.000000
vt 0.550000 1.000000
f 207/207 208/208 209/209 210/210
v 0.500000 0.084000 0.500000
v 0.465030 0.084000 0.474636
v 0.458904 0.084000 0.486683
vt 0.000000 0.000000
vt 1.000000 0.000000
vt 1.000000 1.000000
f 211/211 212/212 213/213
v 0.500000 0.122400 0.500000
v 0.472602 0.122400 0.491122
v 0.476687 0.122400 0.483090
vt 0.000000 0.000000
vt 1.000000 0.000000
vt 1.000000 1.000000
f 214/214 215/215 216/216
v 0.465030 0.084000 0.474636
v 0.474580 0.084000 0.465071
v 0.483053 0.122400 0.476714
v 0.476687 0.122400 0.483090
vt 0.600000 0.000000
vt 0.650000 0.000000
vt 0.650000 1.000000
vt 0.600000 1.000000
f 217/217 218/218 219/219 220/220
v 0.500000 0.084000 0.500000
v 0.474580 0.084000 0.465071
v 0.465030 0.084000 0.474636
vt 0.000000 0.000000
vt 1.000000 0.000000
vt 1.000000 1.000000
f 221/221 222/222 223/223
v 0.500000 0.122400 0.500000
v 0.476687 0.122400 0.483090
v 0.483053 0.122400 0.476714
vt 0.000000 0.000000
vt 1.000000 0.000000
vt 1.000000 1.000000
f 224/224 225/225 226/226
v 0.474580 0.084000 0.465071
v 0.486618 0.084000 0.458925
v 0.491079 0.122400 0.472617
v 0.483053 0.122400 0.476714
vt 0.650000 0.000000
vt 0.700000 0.000000
vt 0.700000 1.000000
vt 0.650000 1.000000
f 227/227 228/228 229/229 230/230
v 0.500000 0.084000 0.500000
v 0.486618 0.084000 0.458925
v 0.474580 0.084000 0.465071
vt 0.000000 0.000000
vt 1.000000 0.000000
vt 1.000000 1.000000
f 231/231 232/232 233/233
v 0.500000 0.122400 0.500000
v 0.483053 0.122400 0.476714
v 0.491079 0.122400 0.472617
vt 0.000000 0.000000
vt 1.000000 0.000000
vt 1.000000 1.000000
f 234/234 235/235 236/236
v 0.486618 0.084000 0.458925
v 0.499966 0.084000 0.456800
v 0.499977 0.122400 0.471200
v 0.491079 0.122400 0.472617
vt 0.700000 0.000000
vt 0.750000 0.000000
vt 0.750000 1.000000
vt 0.700000 1.000000
f 237/237 238/238 239/239 240/240
v 0.500000 0.084000 0.500000
v 0.499966 0.084000 0.456800
v 0.486618 0.084000 0.458925
vt 0.000000 0.000000
vt 1.000000 0.000000
vt 1.000000 1.000000
f 241/241 242/242 243/243
v 0.500000 0.122400 0.500000
v 0.491079 0.122400 0.472617
v 0.499977 0.122400 0.471200
vt 0.000000 0.000000
vt 1.000000 0.000000
vt 1.000000 1.000000
f 244/244 245/245 246/246
v 0.499966 0.084000 0.456800
v 0.513317 0.084000 0.458904
v 0.508878 0.122400 0.472602
v 0.499977 0.122400 0.471200
vt 0.750000 0.000000
vt 0.800000 0.000000
vt 0.800000 1.000000
vt 0.750000 1.000000
f 247/247 248/248 249/249 250/250
v 0.500000 0.084000 0.500000
v 0.513317 0.084000 0.458904
v 0.499966 0.084000 0.456800
vt 0.000000 0.000000
vt 1.000000 0.000000
vt 1.000000 1.000000
f 251/251 252/252 253/253
v 0.500000 0.122400 0.500000
v 0.499977 0.122400 0.471200
v 0.508878 0.122400 0.472602
vt 0.000000 0.000000
vt 1.000000 0.000000
vt 1.000000 1.000000
f 254/254 255/255 256/256
v 0.513317 0.084000 0.458904
v 0.525364 0.084000 0.465030
v 0.516910 0.122400 0.476687
v 0.508878 0.122400 0.472602
vt 0.800000 0.000000
vt 0.850000 0.000000
vt 0.850000 1.000000
vt 0.800000 1.000000
f 257/257 258/258 259/259 260/260
v 0.500000 0.084000 0.500000
v 0.525364 0.084000 0.465030
v 0.513317 0.084000 0.458904
vt 0.000000 0.000000
vt 1.000000 0.000000
vt 1.000000 1.000000
f 261/261 262/262 263/263
v 0.500000 0.122400 0.500000
v 0.508878 0.122400 0.472602
v 0.516910 0.122400 0.476687
vt 0.000000 0.000000
vt 1.000000 0.000000
vt 1.000000 1.000000
f 264/264 265/265 266/266
v 0.525364 0.084000 0.465030
v 0.534929 0.084000 0.474580
v 0.523286 0.122400 0.483053
v 0.516910 0.122400 0.476687
vt 0.850000 0.000000
vt 0.900000 0.000000
vt 0.900000 1.000000
vt 0.850000 1.000000
f 267/267 268/268 269/269 270/270
v 0.500000 0.084000 0.500000
v 0.534929 0.084000 0.474580
v 0.525364 0.084000 0.465030
vt 0.000000 0.000000
vt 1.000000 0.000000
vt 1.000000 1.000000
f 271/271 272/272 273/273
v 0.500000 0.122400 0.500000
v 0.516910 0.122400 0.476687
v 0.523286 0.122400 0.483053
vt 0.000000 0.000000
vt 1.000000 0.000000
vt 1.000000 1.000000
f 274/274 275/275 276/276
v 0.534929 0.084000 0.474580
v 0.541075 0.084000 0.486618
v 0.527383 0.122400 0.491079
v 0.523286 0.122400 0.483053
vt 0.900000 0.000000
vt 0.950000 0.000000
vt 0.950000 1.000000
vt 0.900000 1.000000
f 277/277 278/278 279/279 280/280
v 0.500000 0.084000 0.500000
v 0.541075 0.084000 0.486618
v 0.534929 0.084000 0.474580
vt 0.000000 0.000000
vt 1.000000 0.000000
vt 1.000000 1.000000
f 281/281 282/282 283/283
v 0.500000 0.122400 0.500000
v 0.523286 0.122400 0.483053
v 0.527383 0.122400 0.491079
vt 0.000000 0.000000
vt 1.000000 0.000000
vt 1.000000 1.000000
f 284/284 285/285 286/286
v 0.541075 0.084000 0.486618
v 0.543200 0.084000 0.499966
v 0.528800 0.122400 0.499977
v 0.527383 0.122400 0.491079
vt 0.950000 0.000000
vt 1.000000 0.000000
vt 1.000000 1.000000
vt 0.950000 1.000000
f 287/287 288/288 289/289 290/290
v 0.500000 0.084000 0.500000
v 0.543200 0.084000 0.499966
v 0.541075 0.084000 0.486618
vt 0.000000 0.000000
vt 1.000000 0.000000
vt 1.000000 1.000000
f 291/291 292/292 293/293
v 0.500000 0.122400 0.500000
v 0.527383 0.122400 0.491079
v 0.528800 0.122400 0.499977
vt 0.000000 0.000000
vt 1.000000 0.000000
vt 1.000000 1.000000
f 294/294 295/295 296/296
usemtl olive
v 0.560000 0.122400 0.499952
v 0.558506 0.122400 0.513305
v 0.558506 0.554400 0.513305
v 0.560000 0.554400 0.499952
vt 0.000000 0.000000
vt 0.035714 0.000000
vt 0.035714 1.000000
vt 0.000000 1.000000
f 297/297 298/298 299/299 300/300
v 0.558506 0.122400 0.513305
v 0.554079 0.122400 0.525990
v 0.554079 0.554400 0.525990
v 0.558506 0.554400 0.513305
vt 0.035714 0.000000
vt 0.071429 0.000000
vt 0.071429 1.000000
vt 0.035714 1.000000
f 301/301 302/302 303/303 304/304
v 0.554079 0.122400 0.525990
v 0.546940 0.122400 0.537372
v 0.546940 0.554400 0.537372
v 0.554079 0.554400 0.525990
vt 0.071429 0.000000
vt 0.107143 0.000000
vt 0.107143 1.000000
vt 0.071429 1.000000
f 305/305 306/306 307/307 308/308
v 0.546940 0.122400 0.537372
v 0.537447 0.122400 0.546880
v 0.537447 0.554400 0.546880
v 0.546940 0.554400 0.537372
vt 0.107143 0.000000
vt 0.142857 0.000000
vt 0.142857 1.000000
vt 0.107143 1.000000
f 309/309 310/310 311/311 312/312
v 0.537447 0.122400 0.546880
v 0.526076 0.122400 0.554037
v 0.526076 0.554400 0.554037
v 0.537447 0.554400 0.546880
vt 0.142857 0.000000
vt 0.178571 0.000000
vt 0.178571 1.000000
vt 0.142857 1.000000
f 313/313 314/314 315/315 316/316
v 0.526076 0.122400 0.554037
v 0.513398 0.122400 0.558485
v 0.513398 0.554400 0.558485
v 0.526076 0.554400 0.554037
vt 0.178571 0.000000
vt 0.214286 0.000000
vt 0.214286 1.000000
vt 0.178571 1.000000
f 317/317 318/318 319/319 320/320
v 0.513398 0.122400 0.558485
v 0.500048 0.122400 0.560000
v 0.500048 0.554400 0.560000
v 0.513398 0.554400 0.558485
vt 0.214286 0.000000
vt 0.250000 0.000000
vt 0.250000 1.000000
vt 0.214286 1.000000
f 321/321 322/322 323/323 324/324
v 0.500048 0.122400 0.560000
v 0.486695 0.122400 0.558506
v 0.486695 0.554400 0.558506
v 0.500048 0.554400 0.560000
vt 0.250000 0.000000
vt 0.285714 0.000000
vt 0.285714 1.000000
vt 0.250000 1.000000
f 325/325 326/326 327/327 328/328
v 0.486695 0.122400 0.558506
v 0.474010 0.122400 0.554079
v 0.474010 0.554400 0.554079
v 0.486695 0.554400 0.558506
vt 0.285714 0.000000
vt 0.321429 0.000000
vt 0.321429 1.000000
vt 0.285714 1.000000
f 329/329 330/330 331/331 332/332
v 0.474010 0.122400 0.554079
v 0.462628 0.122400 0.546940
v 0.462628 0.554400 0.546940
v 0.474010 0.554400 0.554079
vt 0.321429 0.000000
vt 0.357143 0.000000
vt 0.357143 1.000000
vt 0.321429 1.000000
f 333/333 334/334 335/335 336/336
v 0.462628 0.122400 0.546940
v 0.453120 0.122400 0.537447
v 0.453120 0.554400 0.537447
v 0.462628 0.554400 0.546940
vt 0.357143 0.000000
vt 0.392857 0.000000
vt 0.392857 1.000000
vt 0.357143 1.000000
f 337/337 338/338 339/339 340/340
v 0.453120 0.122400 0.537447
v 0.445963 0.122400 0.526076
v 0.445963 0.554400 0.526076
v 0.453120 0.554400 0.537447
vt 0.392857 0.000000
vt 0.428571 0.000000
vt 0.428571 1.000000
vt 0.392857 1.000000
f 341/341 342/342 343/343 344/344
v 0.445963 0.122400 0.526076
v 0.441515 0.122400 0.513398
v 0.441515 0.554400 0.513398
v 0.445963 0.554400 0.526076
vt 0.428571 0.000000
vt 0.464286 0.000000
vt 0.464286 1.000000
vt 0.428571 1.000000
f 345/345 346/346 347/347 348/348
v 0.441515 0.122400 0.513398
v 0.440000 0.122400 0.500048
v 0.440000 0.554400 0.500048
v 0.441515 0.554400 0.513398
vt 0.464286 0.000000
vt 0.500000 0.000000
vt 0.500000 1.000000
vt 0.464286 1.000000
f 349/349 350/350 351/351 352/352
v 0.440000 0.122400 0.500048
v 0.441494 0.122400 0.486695
v 0.441494 0.554400 0.486695
v 0.440000 0.554400 0.500048
vt 0.500000 0.000000
vt 0.535714 0.000000
vt 0.535714 1.000000
vt 0.500000 1.000000
f 353/353 354/354 355/355 356/356
v 0.441494 0.122400 0.486695
v 0.445921 0.122400 0.474010
v 0.445921 0.554400 0.474010
v 0.441494 0.554400 0.486695
vt 0.535714 0.000000
vt 0.571429 0.000000
vt 0.571429 1.000000
vt 0.535714 1.000000
f 357/357 358/358 359/359 360/360
v 0.445921 0.122400 0.474010
v 0.453060 0.122400 0.462628
v 0.453060 0.554400 0.462628
v 0.445921 0.554400 0.474010
vt 0.571429 0.000000
vt 0.607143 0.000000
vt 0.607143 1.000000
vt 0.571429 1.000000
f 361/361 362/362 363/363 364/364
v 0.453060 0.122400 0.462628
v 0.462553 0.122400 0.453120
v 0.462553 0.554400 0.453120
v 0.453060 0.554400 0.462628
vt 0.607143 0.000000
vt 0.642857 0.000000
vt 0.642857 1.000000
vt 0.607143 1.000000
f 365/365 366/366 367/367 368/368
v 0.462553 0.122400 0.453120
v 0.473924 0.122400 0.445963
v 0.473924 0.554400 0.445963
v 0.462553 0.554400 0.453120
vt 0.642857 0.000000
vt 0.678571 0.000000
vt 0.678571 1.000000
vt 0.642857 1.000000
f 369/369 370/370 371/371 372/372
v 0.473924 0.122400 0.445963
v 0.486602 0.122400 0.441515
v 0.486602 0.554400 0.441515
v 0.473924 0.554400 0.445963
vt 0.678571 0.000000
vt 0.714286 0.000000
vt 0.714286 1.000000
vt 0.678571 1.000000
f 373/373 374/374 375/375 376/376
v 0.486602 0.122400 0.441515
v 0.499952 0.122400 0.440000
v 0.499952 0.554400 0.440000
v 0.486602 0.554400 0.441515
vt 0.714286 0.000000
vt 0.750000 0.000000
vt 0.750000 1.000000
vt 0.714286 1.000000
f 377/377 378/378 379/379 380/380
v 0.499952 0.122400 0.440000
v 0.513305 0.122400 0.441494
v 0.513305 0.554400 0.441494
v 0.499952 0.554400 0.440000
vt 0.750000 0.000000
vt 0.785714 0.000000
vt 0.785714 1.000000
vt 0.750000 1.000000
f 381/381 382/382 383/383 384/384
v 0.513305 0.122400 0.441494
v 0.525990 0.122400 0.445921
v 0.525990 0.554400 0.445921
v 0.513305 0.554400 0.441494
vt 0.785714 0.000000
vt 0.821429 0.000000
vt 0.821429 1.000000
vt 0.785714 1.000000
f 385/385 386/386 387/387 388/388
v 0.525990 0.122400 0.445921
v 0.537372 0.122400 0.453060
v 0.537372 0.554400 0.453060
v 0.525990 0.554400 0.445921
vt 0.821429 0.000000
vt 0.857143 0.000000
vt 0.857143 1.000000
vt 0.821429 1.000000
f 389/389 390/390 391/391 392/392
v 0.537372 0.122400 0.453060
v 0.546880 0.122400 0.462553
v 0.546880 0.554400 0.462553
v 0.537372 0.554400 0.453060
vt 0.857143 0.000000
vt 0.892857 0.000000
vt 0.892857 1.000000
vt 0.857143 1.000000
f 393/393 394/394 395/395 396/396
v 0.546880 0.122400 0.462553
v 0.554037 0.122400 0.473924
v 0.554037 0.554400 0.473924
v 0.546880 0.554400 0.462553
vt 0.892857 0.000000
vt 0.928571 0.000000
vt 0.928571 1.000000
vt 0.892857 1.000000
f 397/397 398/398 399/399 400/400
v 0.554037 0.122400 0.473924
v 0.558485 0.122400 0.486602
v 0.558485 0.554400 0.486602
v 0.554037 0.554400 0.473924
vt 0.928571 0.000000
vt 0.964286 0.000000
vt 0.964286 1.000000
vt 0.928571 1.000000
f 401/401 402/402 403/403 404/404
v 0.558485 0.122400 0.486602
v 0.560000 0.122400 0.499952
v 0.560000 0.554400 0.499952
v 0.558485 0.554400 0.486602
vt 0.964286 0.000000
vt 1.000000 0.000000
vt 1.000000 1.000000
vt 0.964286 1.000000
f 405/405 406/406 407/407 408/408
v 0.560000 0.554400 0.499952
v 0.557078 0.554400 0.518496
v 0.541096 0.621600 0.513317
v 0.543200 0.621600 0.499966
vt 0.000000 0.000000
vt 0.050000 0.000000
vt 0.050000 1.000000
vt 0.000000 1.000000
f 409/409 410/410 411/411 412/412
v 0.557078 0.554400 0.518496
v 0.548569 0.554400 0.535228
v 0.534970 0.621600 0.525364
v 0.541096 0.621600 0.513317
vt 0.050000 0.000000
vt 0.100000 0.000000
vt 0.100000 1.000000
vt 0.050000 1.000000
f 413/413 414/414 415/415 416/416
v 0.548569 0.554400 0.535228
v 0.535306 0.554400 0.548513
v 0.525420 0.621600 0.534929
v 0.534970 0.621600 0.525364
vt 0.100000 0.000000
vt 0.150000 0.000000
vt 0.150000 1.000000
vt 0.100000 1.000000
f 417/417 418/418 419/419 420/420
v 0.535306 0.554400 0.548513
v 0.518586 0.554400 0.557049
v 0.513382 0.621600 0.541075
v 0.525420 0.621600 0.534929
vt 0.150000 0.000000
vt 0.200000 0.000000
vt 0.200000 1.000000
vt 0.150000 1.000000
f 421/421 422/422 423/423 424/424
v 0.518586 0.554400 0.557049
v 0.500048 0.554400 0.560000
v 0.500034 0.621600 0.543200
v 0.513382 0.621600 0.541075
vt 0.200000 0.000000
vt 0.250000 0.000000
vt 0.250000 1.000000
vt 0.200000 1.000000
f 425/425 426/426 427/427 428/428
v 0.500048 0.554400 0.560000
v 0.481504 0.554400 0.557078
v 0.486683 0.621600 0.541096
v 0.500034 0.621600 0.543200
vt 0.250000 0.000000
vt 0.300000 0.000000
vt 0.300000 1.000000
vt 0.250000 1.000000
f 429/429 430/430 431/431 432/432
v 0.481504 0.554400 0.557078
v 0.464772 0.554400 0.548569
v 0.474636 0.621600 0.534970
v 0.486683 0.621600 0.541096
vt 0.300000 0.000000
vt 0.350000 0.000000
vt 0.350000 1.000000
vt 0.300000 1.000000
f 433/433 434/434 435/435 436/436
v 0.464772 0.554400 0.548569
v 0.451487 0.554400 0.535306
v 0.465071 0.621600 0.525420
v 0.474636 0.621600 0.534970
vt 0.350000 0.000000
vt 0.400000 0.000000
vt 0.400000 1.000000
vt 0.350000 1.000000
f 437/437 438/438 439/439 440/440
v 0.451487 0.554400 0.535306
v 0.442951 0.554400 0.518586
v 0.458925 0.621600 0.513382
v 0.465071 0.621600 0.525420
vt 0.400000 0.000000
vt 0.450000 0.000000
vt 0.450000 1.000000
vt 0.400000 1.000000
f 441/441 442/442 443/443 444/444
v 0.442951 0.554400 0.518586
v 0.440000 0.554400 0.500048
v 0.456800 0.621600 0.500034
v 0.458925 0.621600 0.513382
vt 0.450000 0.000000
vt 0.500000 0.000000
vt 0.500000 1.000000
vt 0.450000 1.000000
f 445/445 446/446 447/447 448/448
v 0.440000 0.554400 0.500048
v 0.442922 0.554400 0.481504
v 0.458904 0.621600 0.486683
v 0.456800 0.621600 0.500034
vt 0.500000 0.000000
vt 0.550000 0.000000
vt 0.550000 1.000000
vt 0.500000 1.000000
f 449/449 450/450 451/451 452/452
v 0.442922 0.554400 0.481504
v 0.451431 0.554400 0.464772
v 0.465030 0.621600 0.474636
v 0.458904 0.621600 0.486683
vt 0.550000 0.000000
vt 0.600000 0.000000
vt 0.600000 1.000000
vt 0.550000 1.000000
f 453/453 454/454 455/455 456/456
v 0.451431 0.554400 0.464772
v 0.464694 0.554400 0.451487
v 0.474580 0.621600 0.465071
v 0.465030 0.621600 0.474636
vt 0.600000 0.000000
vt 0.650000 0.000000
vt 0.650000 1.000000
vt 0.600000 1.000000
f 457/457 458/458 459/459 460/460
v 0.464694 0.554400 0.451487
v 0.481414 0.554400 0.442951
v 0.486618 0.621600 0.458925
v 0.474580 0.621600 0.465071
vt 0.650000 0.000000
vt 0.700000 0.000000
vt 0.700000 1.000000
vt 0.650000 1.000000
f 461/461 462/462 463/463 464/464
v 0.481414 0.554400 0.442951
v 0.499952 0.554400 0.440000
v 0.499966 0.621600 0.456800
v 0.486618 0.621600 0.458925
vt 0.700000 0.000000
vt 0.750000 0.000000
vt 0.750000 1.000000
vt 0.700000 1.000000
f 465/465 466/466 467/467 468/468
v 0.499952 0.554400 0.440000
v 0.518496 0.554400 0.442922
v 0.513317 0.621600 0.458904
v 0.499966 0.621600 0.456800
vt 0.750000 0.000000
vt 0.800000 0.000000
vt 0.800000 1.000000
vt 0.750000 1.000000
f 469/469 470/470 471/471 472/472
v 0.518496 0.554400 0.442922
v 0.535228 0.554400 0.451431
v 0.525364 0.621600 0.465030
v 0.513317 0.621600 0.458904
vt 0.800000 0.000000
vt 0.850000 0.000000
vt 0.850000 1.000000
vt 0.800000 1.000000
f 473/473 474/474 475/475 476/476
v 0.535228 0.554400 0.451431
v 0.548513 0.554400 0.464694
v 0.534929 0.621600 0.474580
v 0.525364 0.621600 0.465030
vt 0.850000 0.000000
vt 0.900000 0.000000
vt 0.900000 1.000000
vt 0.850000 1.000000
f 477/477 478/478 479/479 480/480
v 0.548513 0.554400 0.464694
v 0.557049 0.554400 0.481414
v 0.541075 0.621600 0.486618
v 0.534929 0.621600 0.474580
vt 0.900000 0.000000
vt 0.950000 0.000000
vt 0.950000 1.000000
vt 0.900000 1.000000
f 481/481 482/482 483/483 484/484
v 0.557049 0.554400 0.481414
v 0.560000 0.554400 0.499952
v 0.543200 0.621600 0.499966
v 0.541075 0.621600 0.486618
vt 0.950000 0.000000
vt 1.000000 0.000000
vt 1.000000 1.000000
vt 0.950000 1.000000
f 485/485 486/486 487/487 488/488
usemtl accent
v 0.543200 0.621600 0.499966
v 0.542125 0.621600 0.509579
v 0.500468 0.794400 0.500106
v 0.500480 0.794400 0.500000
vt 0.000000 0.000000
vt 0.035714 0.000000
vt 0.035714 1.000000
vt 0.000000 1.000000
f 489/489 490/490 491/491 492/492
v 0.500000 0.621600 0.500000
v 0.542125 0.621600 0.509579
v 0.543200 0.621600 0.499966
vt 0.000000 0.000000
vt 1.000000 0.000000
vt 1.000000 1.000000
f 493/493 494/494 495/495
v 0.500000 0.794400 0.500000
v 0.500480 0.794400 0.500000
v 0.500468 0.794400 0.500106
vt 0.000000 0.000000
vt 1.000000 0.000000
vt 1.000000 1.000000
f 496/496 497/497 498/498
v 0.542125 0.621600 0.509579
v 0.538937 0.621600 0.518713
v 0.500433 0.794400 0.500208
v 0.500468 0.794400 0.500106
vt 0.035714 0.000000
vt 0.071429 0.000000
vt 0.071429 1.000000
vt 0.035714 1.000000
f 499/499 500/500 501/501 502/502
v 0.500000 0.621600 0.500000
v 0.538937 0.621600 0.518713
v 0.542125 0.621600 0.509579
vt 0.000000 0.000000
vt 1.000000 0.000000
vt 1.000000 1.000000
f 503/503 504/504 505/505
v 0.500000 0.794400 0.500000
v 0.500468 0.794400 0.500106
v 0.500433 0.794400 0.500208
vt 0.000000 0.000000
vt 1.000000 0.000000
vt 1.000000 1.000000
f 506/506 507/507 508/508
v 0.538937 0.621600 0.518713
v 0.533797 0.621600 0.526908
v 0.500376 0.794400 0.500299
v 0.500433 0.794400 0.500208
vt 0.071429 0.000000
vt 0.107143 0.000000
vt 0.107143 1.000000
vt 0.071429 1.000000
f 509/509 510/510 511/511 512/512
v 0.500000 0.621600 0.500000
v 0.533797 0.621600 0.526908
v 0.538937 0.621600 0.518713
vt 0.000000 0.000000
vt 1.000000 0.000000
vt 1.000000 1.000000
f 513/513 514/514 515/515
v 0.500000 0.794400 0.500000
v 0.500433 0.794400 0.500208
v 0.500376 0.794400 0.500299
vt 0.000000 0.000000
vt 1.000000 0.000000
vt 1.000000 1.000000
f 516/516 517/517 518/518
v 0.533797 0.621600 0.526908
v 0.526962 0.621600 0.533754
v 0.500300 0.794400 0.500375
v 0.500376 0.794400 0.500299
vt 0.107143 0.000000
vt 0.142857 0.000000
vt 0.142857 1.000000
vt 0.107143 1.000000
f 519/519 520/520 521/521 522/522
v 0.500000 0.621600 0.500000
v 0.526962 0.621600 0.533754
v 0.533797 0.621600 0.526908
vt 0.000000 0.000000
vt 1.000000 0.000000
vt 1.000000 1.000000
f 523/523 524/524 525/525
v 0.500000 0.794400 0.500000
v 0.500376 0.794400 0.500299
v 0.500300 0.794400 0.500375
vt 0.000000 0.000000
vt 1.000000 0.000000
vt 1.000000 1.000000
f 526/526 527/527 528/528
v 0.526962 0.621600 0.533754
v 0.518775 0.621600 0.538907
v 0.500209 0.794400 0.500432
v 0.500300 0.794400 0.500375
vt 0.142857 0.000000
vt 0.178571 0.000000
vt 0.178571 1.000000
vt 0.142857 1.000000
f 529/529 530/530 531/531 532/532
v 0.500000 0.621600 0.500000
v 0.518775 0.621600 0.538907
v 0.526962 0.621600 0.533754
vt 0.000000 0.000000
vt 1.000000 0.000000
vt 1.000000 1.000000
f 533/533 534/534 535/535
v 0.500000 0.794400 0.500000
v 0.500300 0.794400 0.500375
v 0.500209 0.794400 0.500432
vt 0.000000 0.000000
vt 1.000000 0.000000
vt 1.000000 1.000000
f 536/536 537/537 538/538
v 0.518775 0.621600 0.538907
v 0.509646 0.621600 0.542109
v 0.500107 0.794400 0.500468
v 0.500209 0.794400 0.500432
vt 0.178571 0.000000
vt 0.214286 0.000000
vt 0.214286 1.000000
vt 0.178571 1.000000
f 539/539 540/540 541/541 542/542
v 0.500000 0.621600 0.500000
v 0.509646 0.621600 0.542109
v 0.518775 0.621600 0.538907
vt 0.000000 0.000000
vt 1.000000 0.000000
vt 1.000000 1.000000
f 543/543 544/544 545/545
v 0.500000 0.794400 0.500000
v 0.500209 0.794400 0.500432
v 0.500107 0.794400 0.500468
vt 0.000000 0.000000
vt 1.000000 0.000000
vt 1.000000 1.000000
f 546/546 547/547 548/548
v 0.509646 0.621600 0.542109
v 0.500034 0.621600 0.543200
v 0.500000 0.794400 0.500480
v 0.500107 0.794400 0.500468
vt 0.214286 0.000000
vt 0.250000 0.000000
vt 0.250000 1.000000
vt 0.214286 1.000000
f 549/549 550/550 551/551 552/552
v 0.500000 0.621600 0.500000
v 0.500034 0.621600 0.543200
v 0.509646 0.621600 0.542109
vt 0.000000 0.000000
vt 1.000000 0.000000
vt 1.000000 1.000000
f 553/553 554/554 555/555
v 0.500000 0.794400 0.500000
v 0.500107 0.794400 0.500468
v 0.500000 0.794400 0.500480
vt 0.000000 0.000000
vt 1.000000 0.000000
vt 1.000000 1.000000
f 556/556 557/557 558/558
v 0.500034 0.621600 0.543200
v 0.490421 0.621600 0.542125
v 0.499894 0.794400 0.500468
v 0.500000 0.794400 0.500480
vt 0.250000 0.000000
vt 0.285714 0.000000
vt 0.285714 1.000000
vt 0.250000 1.000000
f 559/559 560/560 561/561 562/562
v 0.500000 0.621600 0.500000
v 0.490421 0.621600 0.542125
v 0.500034 0.621600 0.543200
vt 0.000000 0.000000
vt 1.000000 0.000000
vt 1.000000 1.000000
f 563/563 564/564 565/565
v 0.500000 0.794400 0.500000
v 0.500000 0.794400 0.500480
v 0.499894 0.794400 0.500468
vt 0.000000 0.000000
vt 1.000000 0.000000
vt 1.000000 1.000000
f 566/566 567/567 568/568
v 0.490421 0.621600 0.542125
v 0.481287 0.621600 0.538937
v 0.499792 0.794400 0.500433
v 0.499894 0.794400 0.500468
vt 0.285714 0.000000
vt 0.321429 0.000000
vt 0.321429 1.000000
vt 0.285714 1.000000
f 569/569 570/570 571/571 572/572
v 0.500000 0.621600 0.500000
v 0.481287 0.621600 0.538937
v 0.490421 0.621600 0.542125
vt 0.000000 0.000000
vt 1.000000 0.000000
vt 1.000000 1.000000
f 573/573 574/574 575/575
v 0.500000 0.794400 0.500000
v 0.499894 0.794400 0.500468
v 0.499792 0.794400 0.500433
vt 0.000000 0.000000
vt 1.000000 0.000000
vt 1.000000 1.000000
f 576/576 577/577 578/578
v 0.481287 0.621600 0.538937
v 0.473092 0.621600 0.533797
v 0.499701 0.794400 0.500376
v 0.499792 0.794400 0.500433
vt 0.321429 0.000000
vt 0.357143 0.000000
vt 0.357143 1.000000
vt 0.321429 1.000000
f 579/579 580/580 581/581 582/582
v 0.500000 0.621600 0.500000
v 0.473092 0.621600 0.533797
v 0.481287 0.621600 0.538937
vt 0.000000 0.000000
vt 1.000000 0.000000
vt 1.000000 1.000000
f 583/583 584/584 585/585
v 0.500000 0.794400 0.500000
v 0.499792 0.794400 0.500433
v 0.499701 0.794400 0.500376
vt 0.000000 0.000000
vt 1.000000 0.000000
vt 1.000000 1.000000
f 586/586 587/587 588/588
v 0.473092 0.621600 0.533797
v 0.466246 0.621600 0.526962
v 0.499625 0.794400 0.500300
v 0.499701 0.794400 0.500376
vt 0.357143 0.000000
vt 0.392857 0.000000
vt 0.392857 1.000000
vt 0.357143 1.000000
f 589/589 590/590 591/591 592/592
v 0.500000 0.621600 0.500000
v 0.466246 0.621600 0.526962
v 0.473092 0.621600 0.533797
vt 0.000000 0.000000
vt 1.000000 0.000000
vt 1.000000 1.000000
f 593/593 594/594 595/595
v 0.500000 0.794400 0.500000
v 0.499701 0.794400 0.500376
v 0.499625 0.794400 0.500300
vt 0.000000 0.000000
vt 1.000000 0.000000
vt 1.000000 1.000000
f 596/596 597/597 598/598
v 0.466246 0.621600 0.526962
v 0.461093 0.621600 0.518775
v 0.499568 0.794400 0.500209
v 0.499625 0.794400 0.500300
vt 0.392857 0.000000
vt 0.428571 0.000000
vt 0.428571 1.000000
vt 0.392857 1.000000
f 599/599 600/600 601/601 602/602
v 0.500000 0.621600 0.500000
v 0.461093 0.621600 0.518775
v 0.466246 0.621600 0.526962
vt 0.000000 0.000000
vt 1.000000 0.000000
vt 1.000000 1.000000
f 603/603 604/604 605/605
v 0.500000 0.794400 0.500000
v 0.499625 0.794400 0.500300
v 0.499568 0.794400 0.500209
vt 0.000000 0.000000
vt 1.000000 0.000000
vt 1.000000 1.000000
f 606/606 607/607 608/608
v 0.461093 0.621600 0.518775
v 0.457891 0.621600 0.509646
v 0.499532 0.794400 0.500107
v 0.499568 0.794400 0.500209
vt 0.428571 0.000000
vt 0.464286 0.000000
vt 0.464286 1.000000
vt 0.428571 1.000000
f 609/609 610/610 611/611 612/612
v 0.500000 0.621600 0.500000
v 0.457891 0.621600 0.509646
v 0.461093 0.621600 0.518775
vt 0.000000 0.000000
vt 1.000000 0.000000
vt 1.000000 1.000000
f 613/613 614/614 615/615
v 0.500000 0.794400 0.500000
v 0.499568 0.794400 0.500209
v 0.499532 0.794400 0.500107
vt 0.000000 0.000000
vt 1.000000 0.000000
vt 1.000000 1.000000
f 616/616 617/617 618/618
v 0.457891 0.621600 0.509646
v 0.456800 0.621600 0.500034
v 0.499520 0.794400 0.500000
v 0.499532 0.794400 0.500107
vt 0.464286 0.000000
vt 0.500000 0.000000
vt 0.500000 1.000000
vt 0.464286 1.000000
f 619/619 620/620 621/621 622/622
v 0.500000 0.621600 0.500000
v 0.456800 0.621600 0.500034
v 0.457891 0.621600 0.509646
vt 0.000000 0.000000
vt 1.000000 0.000000
vt 1.000000 1.000000
f 623/623 624/624 625/625
v 0.500000 0.794400 0.500000
v 0.499532 0.794400 0.500107
v 0.499520 0.794400 0.500000
vt 0.000000 0.000000
vt 1.000000 0.000000
vt 1.000000 1.000000
f 626/626 627/627 628/628
v 0.456800 0.621600 0.500034
v 0.457875 0.621600 0.490421
v 0.499532 0.794400 0.499894
v 0.499520 0.794400 0.500000
vt 0.500000 0.000000
vt 0.535714 0.000000
vt 0.535714 1.000000
vt 0.500000 1.000000
f 629/629 630/630 631/631 632/632
v 0.500000 0.621600 0.500000
v 0.457875 0.621600 0.490421
v 0.456800 0.621600 0.500034
vt 0.000000 0.000000
vt 1.000000 0.000000
vt 1.000000 1.000000
f 633/633 634/634 635/635
v 0.500000 0.794400 0.500000
v 0.499520 0.794400 0.500000
v 0.499532 0.794400 0.499894
vt 0.000000 0.000000
vt 1.000000 0.000000
vt 1.000000 1.000000
f 636/636 637/637 638/638
v 0.457875 0.621600 0.490421
v 0.461063 0.621600 0.481287
v 0.499567 0.794400 0.499792
v 0.499532 0.794400 0.499894
vt 0.535714 0.000000
vt 0.571429 0.000000
vt 0.571429 1.000000
vt 0.535714 1.000000
f 639/639 640/640 641/641 642/642
v 0.500000 0.621600 0.500000
v 0.461063 0.621600 0.481287
v 0.457875 0.621600 0.490421
vt 0.000000 0.000000
vt 1.000000 0.000000
vt 1.000000 1.000000
f 643/643 644/644 645/645
v 0.500000 0.794400 0.500000
v 0.499532 0.794400 0.499894
v 0.499567 0.794400 0.499792
vt 0.000000 0.000000
vt 1.000000 0.000000
vt 1.000000 1.000000
f 646/646 647/647 648/648
v 0.461063 0.621600 0.481287
v 0.466203 0.621600 0.473092
v 0.499624 0.794400 0.499701
v 0.499567 0.794400 0.499792
vt 0.571429 0.000000
vt 0.607143 0.000000
vt 0.607143 1.000000
vt 0.571429 1.000000
f 649/649 650/650 651/651 652/652
v 0.500000 0.621600 0.500000
v 0.466203 0.621600 0.473092
v 0.461063 0.621600 0.481287
vt 0.000000 0.000000
vt 1.000000 0.000000
vt 1.000000 1.000000
f 653/653 654/654 655/655
v 0.500000 0.794400 0.500000
v 0.499567 0.794400 0.499792
v 0.499624 0.794400 0.499701
vt 0.000000 0.000000
vt 1.000000 0.000000
vt 1.000000 1.000000
f 656/656 657/657 658/658
v 0.466203 0.621600 0.473092
v 0.473038 0.621600 0.466246
v 0.499700 0.794400 0.499625
v 0.499624 0.794400 0.499701
vt 0.607143 0.000000
vt 0.642857 0.000000
vt 0.642857 1.000000
vt 0.607143 1.000000
f 659/659 660/660 661/661 662/662
v 0.500000 0.621600 0.500000
v 0.473038 0.621600 0.466246
v 0.466203 0.621600 0.473092
vt 0.000000 0.000000
vt 1.000000 0.000000
vt 1.000000 1.000000
f 663/663 664/664 665/665
v 0.500000 0.794400 0.500000
v 0.499624 0.794400 0.499701
v 0.499700 0.794400 0.499625
vt 0.000000 0.000000
vt 1.000000 0.000000
vt 1.000000 1.000000
f 666/666 667/667 668/668
v 0.473038 0.621600 0.466246
v 0.481225 0.621600 0.461093
v 0.499791 0.794400 0.499568
v 0.499700 0.794400 0.499625
vt 0.642857 0.000000
vt 0.678571 0.000000
vt 0.678571 1.000000
vt 0.642857 1.000000
f 669/669 670/670 671/671 672/672
v 0.500000 0.621600 0.500000
v 0.481225 0.621600 0.461093
v 0.473038 0.621600 0.466246
vt 0.000000 0.000000
vt 1.000000 0.000000
vt 1.000000 1.000000
f 673/673 674/674 675/675
v 0.500000 0.794400 0.500000
v 0.499700 0.794400 0.499625
v 0.499791 0.794400 0.499568
vt 0.000000 0.000000
vt 1.000000 0.000000
vt 1.000000 1.000000
f 676/676 677/677 678/678
v 0.481225 0.621600 0.461093
v 0.490354 0.621600 0.457891
v 0.499893 0.794400 0.499532
v 0.499791 0.794400 0.499568
vt 0.678571 0.000000
vt 0.714286 0.000000
vt 0.714286 1.000000
vt 0.678571 1.000000
f 679/679 680/680 681/681 682/682
v 0.500000 0.621600 0.500000
v 0.490354 0.621600 0.457891
v 0.481225 0.621600 0.461093
vt 0.000000 0.000000
vt 1.000000 0.000000
vt 1.000000 1.000000
f 683/683 684/684 685/685
v 0.500000 0.794400 0.500000
v 0.499791 0.794400 0.499568
v 0.499893 0.794400 0.499532
vt 0.000000 0.000000
vt 1.000000 0.000000
vt 1.000000 1.000000
f 686/686 687/687 688/688
v 0.490354 0.621600 0.457891
v 0.499966 0.621600 0.456800
v 0.500000 0.794400 0.499520
v 0.499893 0.794400 0.499532
vt 0.714286 0.000000
vt 0.750000 0.000000
vt 0.750000 1.000000
vt 0.714286 1.000000
f 689/689 690/690 691/691 692/692
v 0.500000 0.621600 0.500000
v 0.499966 0.621600 0.456800
v 0.490354 0.621600 0.457891
vt 0.000000 0.000000
vt 1.000000 0.000000
vt 1.000000 1.000000
f 693/693 694/694 695/695
v 0.500000 0.794400 0.500000
v 0.499893 0.794400 0.499532
v 0.500000 0.794400 0.499520
vt 0.000000 0.000000
vt 1.000000 0.000000
vt 1.000000 1.000000
f 696/696 697/697 698/698
v 0.499966 0.621600 0.456800
v 0.509579 0.621600 0.457875
v 0.500106 0.794400 0.499532
v 0.500000 0.794400 0.499520
vt 0.750000 0.000000
vt 0.785714 0.000000
vt 0.785714 1.000000
vt 0.750000 1.000000
f 699/699 700/700 701/701 702/702
v 0.500000 0.621600 0.500000
v 0.509579 0.621600 0.457875
v 0.499966 0.621600 0.456800
vt 0.000000 0.000000
vt 1.000000 0.000000
vt 1.000000 1.000000
f 703/703 704/704 705/705
v 0.500000 0.794400 0.500000
v 0.500000 0.794400 0.499520
v 0.500106 0.794400 0.499532
vt 0.000000 0.000000
vt 1.000000 0.000000
vt 1.000000 1.000000
f 706/706 707/707 708/708
v 0.509579 0.621600 0.457875
v 0.518713 0.621600 0.461063
v 0.500208 0.794400 0.499567
v 0.500106 0.794400 0.499532
vt 0.785714 0.000000
vt 0.821429 0.000000
vt 0.821429 1.000000
vt 0.785714 1.000000
f 709/709 710/710 711/711 712/712
v 0.500000 0.621600 0.500000
v 0.518713 0.621600 0.461063
v 0.509579 0.621600 0.457875
vt 0.000000 0.000000
vt 1.000000 0.000000
vt 1.000000 1.000000
f 713/713 714/714 715/715
v 0.500000 0.794400 0.500000
v 0.500106 0.794400 0.499532
v 0.500208 0.794400 0.499567
vt 0.000000 0.000000
vt 1.000000 0.000000
vt 1.000000 1.000000
f 716/716 717/717 718/718
v 0.518713 0.621600 0.461063
v 0.526908 0.621600 0.466203
v 0.500299 0.794400 0.499624
v 0.500208 0.794400 0.499567
vt 0.821429 0.000000
vt 0.857143 0.000000
vt 0.857143 1.000000
vt 0.821429 1.000000
f 719/719 720/720 721/721 722/722
v 0.500000 0.621600 0.500000
v 0.526908 0.621600 0.466203
v 0.518713 0.621600 0.461063
vt 0.000000 0.000000
vt 1.000000 0.000000
vt 1.000000 1.000000
f 723/723 724/724 725/725
v 0.500000 0.794400 0.500000
v 0.500208 0.794400 0.499567
v 0.500299 0.794400 0.499624
vt 0.000000 0.000000
vt 1.000000 0.000000
vt 1.000000 1.000000
f 726/726 727/727 728/728
v 0.526908 0.621600 0.466203
v 0.533754 0.621600 0.473038
v 0.500375 0.794400 0.499700
v 0.500299 0.794400 0.499624
vt 0.857143 0.000000
vt 0.892857 0.000000
vt 0.892857 1.000000
vt 0.857143 1.000000
f 729/729 730/730 731/731 732/732
v 0.500000 0.621600 0.500000
v 0.533754 0.621600 0.473038
v 0.526908 0.621600 0.466203
vt 0.000000 0.000000
vt 1.000000 0.000000
vt 1.000000 1.000000
f 733/733 734/734 735/735
v 0.500000 0.794400 0.500000
v 0.500299 0.794400 0.499624
v 0.500375 0.794400 0.499700
vt 0.000000 0.000000
vt 1.000000 0.000000
vt 1.000000 1.000000
f 736/736 737/737 738/738
v 0.533754 0.621600 0.473038
v 0.538907 0.621600 0.481225
v 0.500432 0.794400 0.499791
v 0.500375 0.794400 0.499700
vt 0.892857 0.000000
vt 0.928571 0.000000
vt 0.928571 1.000000
vt 0.892857 1.000000
f 739/739 740/740 741/741 742/742
v 0.500000 0.621600 0.500000
v 0.538907 0.621600 0.481225
v 0.533754 0.621600 0.473038
vt 0.000000 0.000000
vt 1.000000 0.000000
vt 1.000000 1.000000
f 743/743 744/744 745/745
v 0.500000 0.794400 0.500000
v 0.500375 0.794400 0.499700
v 0.500432 0.794400 0.499791
vt 0.000000 0.000000
vt 1.000000 0.000000
vt 1.000000 1.000000
f 746/746 747/747 748/748
v 0.538907 0.621600 0.481225
v 0.542109 0.621600 0.490354
v 0.500468 0.794400 0.499893
v 0.500432 0.794400 0.499791
vt 0.928571 0.000000
vt 0.964286 0.000000
vt 0.964286 1.000000
vt 0.928571 1.000000
f 749/749 750/750 751/751 752/752
v 0.500000 0.621600 0.500000
v 0.542109 0.621600 0.490354
v 0.538907 0.621600 0.481225
vt 0.000000 0.000000
vt 1.000000 0.000000
vt 1.000000 1.000000
f 753/753 754/754 755/755
v 0.500000 0.794400 0.500000
v 0.500432 0.794400 0.499791
v 0.500468 0.794400 0.499893
vt 0.000000 0.000000
vt 1.000000 0.000000
vt 1.000000 1.000000
f 756/756 757/757 758/758
v 0.542109 0.621600 0.490354
v 0.543200 0.621600 0.499966
v 0.500480 0.794400 0.500000
v 0.500468 0.794400 0.499893
vt 0.964286 0.000000
vt 1.000000 0.000000
vt 1.000000 1.000000
vt 0.964286 1.000000
f 759/759 760/760 761/761 762/762
v 0.500000 0.621600 0.500000
v 0.543200 0.621600 0.499966
v 0.542109 0.621600 0.490354
vt 0.000000 0.000000
vt 1.000000 0.000000
vt 1.000000 1.000000
f 763/763 764/764 765/765
v 0.500000 0.794400 0.500000
v 0.500468 0.794400 0.499893
v 0.500480 0.794400 0.500000
vt 0.000000 0.000000
vt 1.000000 0.000000
vt 1.000000 1.000000
f 766/766 767/767 768/768
usemtl dark
v 0.495248 0.141600 0.560004
v 0.495322 0.165600 0.653604
v 0.495322 0.325200 0.653604
v 0.495248 0.333600 0.560004
vt 0.000000 0.000000
vt 1.000000 0.000000
vt 1.000000 1.000000
vt 0.000000 1.000000
f 769/769 770/770 771/771 772/772
v 0.504848 0.141600 0.559996
v 0.504848 0.333600 0.559996
v 0.504922 0.325200 0.653596
v 0.504922 0.165600 0.653596
vt 0.000000 0.000000
vt 1.000000 0.000000
vt 1.000000 1.000000
vt 0.000000 1.000000
f 773/773 774/774 775/775 776/776
v 0.495248 0.141600 0.560004
v 0.504848 0.141600 0.559996
v 0.504922 0.165600 0.653596
v 0.495248 0.333600 0.560004
vt 0.000000 0.000000
vt 1.000000 0.000000
vt 1.000000 1.000000
vt 0.000000 1.000000
f 777/777 778/778 779/779 780/780
v 0.495322 0.165600 0.653604
v 0.495322 0.325200 0.653604
v 0.504922 0.325200 0.653596
v 0.504848 0.333600 0.559996
vt 0.000000 0.000000
vt 1.000000 0.000000
vt 1.000000 1.000000
vt 0.000000 1.000000
f 781/781 782/782 783/783 784/784
v 0.504752 0.141600 0.439996
v 0.504678 0.165600 0.346396
v 0.504678 0.325200 0.346396
v 0.504752 0.333600 0.439996
vt 0.000000 0.000000
vt 1.000000 0.000000
vt 1.000000 1.000000
vt 0.000000 1.000000
f 785/785 786/786 787/787 788/788
v 0.495152 0.141600 0.440004
v 0.495152 0.333600 0.440004
v 0.495078 0.325200 0.346404
v 0.495078 0.165600 0.346404
vt 0.000000 0.000000
vt 1.000000 0.000000
vt 1.000000 1.000000
vt 0.000000 1.000000
f 789/789 790/790 791/791 792/792
v 0.504752 0.141600 0.439996
v 0.495152 0.141600 0.440004
v 0.495078 0.165600 0.346404
v 0.504752 0.333600 0.439996
vt 0.000000 0.000000
vt 1.000000 0.000000
vt 1.000000 1.000000
vt 0.000000 1.000000
f 793/793 794/794 795/795 796/796
v 0.504678 0.165600 0.346396
v 0.504678 0.325200 0.346396
v 0.495078 0.325200 0.346404
v 0.495152 0.333600 0.440004
vt 0.000000 0.000000
vt 1.000000 0.000000
vt 1.000000 1.000000
vt 0.000000 1.000000
f 797/797 798/798 799/799 800/800
v 0.439996 0.141600 0.495248
v 0.346396 0.165600 0.495322
v 0.346396 0.325200 0.495322
v 0.439996 0.333600 0.495248
vt 0.000000 0.000000
vt 1.000000 0.000000
vt 1.000000 1.000000
vt 0.000000 1.000000
f 801/801 802/802 803/803 804/804
v 0.440004 0.141600 0.504848
v 0.440004 0.333600 0.504848
v 0.346404 0.325200 0.504922
v 0.346404 0.165600 0.504922
vt 0.000000 0.000000
vt 1.000000 0.000000
vt 1.000000 1.000000
vt 0.000000 1.000000
f 805/805 806/806 807/807 808/808
v 0.439996 0.141600 0.495248
v 0.440004 0.141600 0.504848
v 0.346404 0.165600 0.504922
v 0.439996 0.333600 0.495248
vt 0.000000 0.000000
vt 1.000000 0.000000
vt 1.000000 1.000000
vt 0.000000 1.000000
f 809/809 810/810 811/811 812/812
v 0.346396 0.165600 0.495322
v 0.346396 0.325200 0.495322
v 0.346404 0.325200 0.504922
v 0.440004 0.333600 0.504848
vt 0.000000 0.000000
vt 1.000000 0.000000
vt 1.000000 1.000000
vt 0.000000 1.000000
f 813/813 814/814 815/815 816/816
v 0.560004 0.141600 0.504752
v 0.653604 0.165600 0.504678
v 0.653604 0.325200 0.504678
v 0.560004 0.333600 0.504752
vt 0.000000 0.000000
vt 1.000000 0.000000
vt 1.000000 1.000000
vt 0.000000 1.000000
f 817/817 818/818 819/819 820/820
v 0.559996 0.141600 0.495152
v 0.559996 0.333600 0.495152
v 0.653596 0.325200 0.495078
v 0.653596 0.165600 0.495078
vt 0.000000 0.000000
vt 1.000000 0.000000
vt 1.000000 1.000000
vt 0.000000 1.000000
f 821/821 822/822 823/823 824/824
v 0.560004 0.141600 0.504752
v 0.559996 0.141600 0.495152
v 0.653596 0.165600 0.495078
v 0.560004 0.333600 0.504752
vt 0.000000 0.000000
vt 1.000000 0.000000
vt 1.000000 1.000000
vt 0.000000 1.000000
f 825/825 826/826 827/827 828/828
v 0.653604 0.165600 0.504678
v 0.653604 0.325200 0.504678
v 0.653596 0.325200 0.495078
v 0.559996 0.333600 0.495152
vt 0.000000 0.000000
vt 1.000000 0.000000
vt 1.000000 1.000000
vt 0.000000 1.000000
f 829/829 830/830 831/831 832/832
v 0.507718 0.180000 0.547994
v 0.507734 0.180000 0.567194
v 0.507734 0.525600 0.567194
v 0.507718 0.525600 0.547994
vt 0.000000 0.000000
vt 1.000000 0.000000
vt 1.000000 1.000000
vt 0.000000 1.000000
f 833/833 834/834 835/835 836/836
v 0.492374 0.180000 0.567206
v 0.492358 0.180000 0.548006
v 0.492358 0.525600 0.548006
v 0.492374 0.525600 0.567206
vt 0.000000 0.000000
vt 1.000000 0.000000
vt 1.000000 1.000000
vt 0.000000 1.000000
f 837/837 838/838 839/839 840/840
v 0.492358 0.180000 0.548006
v 0.507718 0.180000 0.547994
v 0.507718 0.525600 0.547994
v 0.492358 0.525600 0.548006
vt 0.000000 0.000000
vt 1.000000 0.000000
vt 1.000000 1.000000
vt 0.000000 1.000000
f 841/841 842/842 843/843 844/844
v 0.507734 0.180000 0.567194
v 0.492374 0.180000 0.567206
v 0.492374 0.525600 0.567206
v 0.507734 0.525600 0.567194
vt 0.000000 0.000000
vt 1.000000 0.000000
vt 1.000000 1.000000
vt 0.000000 1.000000
f 845/845 846/846 847/847 848/848
v 0.507718 0.525600 0.547994
v 0.507734 0.525600 0.567194
v 0.492374 0.525600 0.567206
v 0.492358 0.525600 0.548006
vt 0.000000 0.000000
vt 1.000000 0.000000
vt 1.000000 1.000000
vt 0.000000 1.000000
f 849/849 850/850 851/851 852/852
v 0.492358 0.180000 0.548006
v 0.492374 0.180000 0.567206
v 0.507734 0.180000 0.567194
v 0.507718 0.180000 0.547994
vt 0.000000 0.000000
vt 1.000000 0.000000
vt 1.000000 1.000000
vt 0.000000 1.000000
f 853/853 854/854 855/855 856/856
usemtl yellow
v 0.564800 0.372000 0.499948
v 0.563187 0.372000 0.514369
v 0.563187 0.381600 0.514369
v 0.564800 0.381600 0.499948
vt 0.000000 0.000000
vt 0.035714 0.000000
vt 0.035714 1.000000
vt 0.000000 1.000000
f 857/857 858/858 859/859 860/860
v 0.563187 0.372000 0.514369
v 0.558405 0.372000 0.528069
v 0.558405 0.381600 0.528069
v 0.563187 0.381600 0.514369
vt 0.035714 0.000000
vt 0.071429 0.000000
vt 0.071429 1.000000
vt 0.035714 1.000000
f 861/861 862/862 863/863 864/864
v 0.558405 0.372000 0.528069
v 0.550695 0.372000 0.540362
v 0.550695 0.381600 0.540362
v 0.558405 0.381600 0.528069
vt 0.071429 0.000000
vt 0.107143 0.000000
vt 0.107143 1.000000
vt 0.071429 1.000000
f 865/865 866/866 867/867 868/868
v 0.550695 0.372000 0.540362
v 0.540442 0.372000 0.550630
v 0.540442 0.381600 0.550630
v 0.550695 0.381600 0.540362
vt 0.107143 0.000000
vt 0.142857 0.000000
vt 0.142857 1.000000
vt 0.107143 1.000000
f 869/869 870/870 871/871 872/872
v 0.540442 0.372000 0.550630
v 0.528162 0.372000 0.558360
v 0.528162 0.381600 0.558360
v 0.540442 0.381600 0.550630
vt 0.142857 0.000000
vt 0.178571 0.000000
vt 0.178571 1.000000
vt 0.142857 1.000000
f 873/873 874/874 875/875 876/876
v 0.528162 0.372000 0.558360
v 0.514470 0.372000 0.563164
v 0.514470 0.381600 0.563164
v 0.528162 0.381600 0.558360
vt 0.178571 0.000000
vt 0.214286 0.000000
vt 0.214286 1.000000
vt 0.178571 1.000000
f 877/877 878/878 879/879 880/880
v 0.514470 0.372000 0.563164
v 0.500052 0.372000 0.564800
v 0.500052 0.381600 0.564800
v 0.514470 0.381600 0.563164
vt 0.214286 0.000000
vt 0.250000 0.000000
vt 0.250000 1.000000
vt 0.214286 1.000000
f 881/881 882/882 883/883 884/884
v 0.500052 0.372000 0.564800
v 0.485631 0.372000 0.563187
v 0.485631 0.381600 0.563187
v 0.500052 0.381600 0.564800
vt 0.250000 0.000000
vt 0.285714 0.000000
vt 0.285714 1.000000
vt 0.250000 1.000000
f 885/885 886/886 887/887 888/888
v 0.485631 0.372000 0.563187
v 0.471931 0.372000 0.558405
v 0.471931 0.381600 0.558405
v 0.485631 0.381600 0.563187
vt 0.285714 0.000000
vt 0.321429 0.000000
vt 0.321429 1.000000
vt 0.285714 1.000000
f 889/889 890/890 891/891 892/892
v 0.471931 0.372000 0.558405
v 0.459638 0.372000 0.550695
v 0.459638 0.381600 0.550695
v 0.471931 0.381600 0.558405
vt 0.321429 0.000000
vt 0.357143 0.000000
vt 0.357143 1.000000
vt 0.321429 1.000000
f 893/893 894/894 895/895 896/896
v 0.459638 0.372000 0.550695
v 0.449370 0.372000 0.540442
v 0.449370 0.381600 0.540442
v 0.459638 0.381600 0.550695
vt 0.357143 0.000000
vt 0.392857 0.000000
vt 0.392857 1.000000
vt 0.357143 1.000000
f 897/897 898/898 899/899 900/900
v 0.449370 0.372000 0.540442
v 0.441640 0.372000 0.528162
v 0.441640 0.381600 0.528162
v 0.449370 0.381600 0.540442
vt 0.392857 0.000000
vt 0.428571 0.000000
vt 0.428571 1.000000
vt 0.392857 1.000000
f 901/901 902/902 903/903 904/904
v 0.441640 0.372000 0.528162
v 0.436836 0.372000 0.514470
v 0.436836 0.381600 0.514470
v 0.441640 0.381600 0.528162
vt 0.428571 0.000000
vt 0.464286 0.000000
vt 0.464286 1.000000
vt 0.428571 1.000000
f 905/905 906/906 907/907 908/908
v 0.436836 0.372000 0.514470
v 0.435200 0.372000 0.500052
v 0.435200 0.381600 0.500052
v 0.436836 0.381600 0.514470
vt 0.464286 0.000000
vt 0.500000 0.000000
vt 0.500000 1.000000
vt 0.464286 1.000000
f 909/909 910/910 911/911 912/912
v 0.435200 0.372000 0.500052
v 0.436813 0.372000 0.485631
v 0.436813 0.381600 0.485631
v 0.435200 0.381600 0.500052
vt 0.500000 0.000000
vt 0.535714 0.000000
vt 0.535714 1.000000
vt 0.500000 1.000000
f 913/913 914/914 915/915 916/916
v 0.436813 0.372000 0.485631
v 0.441595 0.372000 0.471931
v 0.441595 0.381600 0.471931
v 0.436813 0.381600 0.485631
vt 0.535714 0.000000
vt 0.571429 0.000000
vt 0.571429 1.000000
vt 0.535714 1.000000
f 917/917 918/918 919/919 920/920
v 0.441595 0.372000 0.471931
v 0.449305 0.372000 0.459638
v 0.449305 0.381600 0.459638
v 0.441595 0.381600 0.471931
vt 0.571429 0.000000
vt 0.607143 0.000000
vt 0.607143 1.000000
vt 0.571429 1.000000
f 921/921 922/922 923/923 924/924
v 0.449305 0.372000 0.459638
v 0.459558 0.372000 0.449370
v 0.459558 0.381600 0.449370
v 0.449305 0.381600 0.459638
vt 0.607143 0.000000
vt 0.642857 0.000000
vt 0.642857 1.000000
vt 0.607143 1.000000
f 925/925 926/926 927/927 928/928
v 0.459558 0.372000 0.449370
v 0.471838 0.372000 0.441640
v 0.471838 0.381600 0.441640
v 0.459558 0.381600 0.449370
vt 0.642857 0.000000
vt 0.678571 0.000000
vt 0.678571 1.000000
vt 0.642857 1.000000
f 929/929 930/930 931/931 932/932
v 0.471838 0.372000 0.441640
v 0.485530 0.372000 0.436836
v 0.485530 0.381600 0.436836
v 0.471838 0.381600 0.441640
vt 0.678571 0.000000
vt 0.714286 0.000000
vt 0.714286 1.000000
vt 0.678571 1.000000
f 933/933 934/934 935/935 936/936
v 0.485530 0.372000 0.436836
v 0.499948 0.372000 0.435200
v 0.499948 0.381600 0.435200
v 0.485530 0.381600 0.436836
vt 0.714286 0.000000
vt 0.750000 0.000000
vt 0.750000 1.000000
vt 0.714286 1.000000
f 937/937 938/938 939/939 940/940
v 0.499948 0.372000 0.435200
v 0.514369 0.372000 0.436813
v 0.514369 0.381600 0.436813
v 0.499948 0.381600 0.435200
vt 0.750000 0.000000
vt 0.785714 0.000000
vt 0.785714 1.000000
vt 0.750000 1.000000
f 941/941 942/942 943/943 944/944
v 0.514369 0.372000 0.436813
v 0.528069 0.372000 0.441595
v 0.528069 0.381600 0.441595
v 0.514369 0.381600 0.436813
vt 0.785714 0.000000
vt 0.821429 0.000000
vt 0.821429 1.000000
vt 0.785714 1.000000
f 945/945 946/946 947/947 948/948
v 0.528069 0.372000 0.441595
v 0.540362 0.372000 0.449305
v 0.540362 0.381600 0.449305
v 0.528069 0.381600 0.441595
vt 0.821429 0.000000
vt 0.857143 0.000000
vt 0.857143 1.000000
vt 0.821429 1.000000
f 949/949 950/950 951/951 952/952
v 0.540362 0.372000 0.449305
v 0.550630 0.372000 0.459558
v 0.550630 0.381600 0.459558
v 0.540362 0.381600 0.449305
vt 0.857143 0.000000
vt 0.892857 0.000000
vt 0.892857 1.000000
vt 0.857143 1.000000
f 953/953 954/954 955/955 956/956
v 0.550630 0.372000 0.459558
v 0.558360 0.372000 0.471838
v 0.558360 0.381600 0.471838
v 0.550630 0.381600 0.459558
vt 0.892857 0.000000
vt 0.928571 0.000000
vt 0.928571 1.000000
vt 0.892857 1.000000
f 957/957 958/958 959/959 960/960
v 0.558360 0.372000 0.471838
v 0.563164 0.372000 0.485530
v 0.563164 0.381600 0.485530
v 0.558360 0.381600 0.471838
vt 0.928571 0.000000
vt 0.964286 0.000000
vt 0.964286 1.000000
vt 0.928571 1.000000
f 961/961 962/962 963/963 964/964
v 0.563164 0.372000 0.485530
v 0.564800 0.372000 0.499948
v 0.564800 0.381600 0.499948
v 0.563164 0.381600 0.485530
vt 0.964286 0.000000
vt 1.000000 0.000000
vt 1.000000 1.000000
vt 0.964286 1.000000
f 965/965 966/966 967/967 968/968
usemtl accent
v 0.200000 0.120000 0.120000
v 0.420000 0.120000 0.120000
v 0.420000 0.280000 0.120000
v 0.200000 0.280000 0.120000
vt 0.000000 0.000000
vt 1.000000 0.000000
vt 1.000000 1.000000
vt 0.000000 1.000000
f 969/969 970/970 971/971 972/972
v 0.420000 0.120000 0.220000
v 0.200000 0.120000 0.220000
v 0.200000 0.280000 0.220000
v 0.420000 0.280000 0.220000
vt 0.000000 0.000000
vt 1.000000 0.000000
vt 1.000000 1.000000
vt 0.000000 1.000000
f 973/973 974/974 975/975 976/976
v 0.200000 0.120000 0.220000
v 0.200000 0.120000 0.120000
v 0.200000 0.280000 0.120000
v 0.200000 0.280000 0.220000
vt 0.000000 0.000000
vt 1.000000 0.000000
vt 1.000000 1.000000
vt 0.000000 1.000000
f 977/977 978/978 979/979 980/980
v 0.420000 0.120000 0.120000
v 0.420000 0.120000 0.220000
v 0.420000 0.280000 0.220000
v 0.420000 0.280000 0.120000
vt 0.000000 0.000000
vt 1.000000 0.000000
vt 1.000000 1.000000
vt 0.000000 1.000000
f 981/981 982/982 983/983 984/984
v 0.200000 0.280000 0.120000
v 0.420000 0.280000 0.120000
v 0.420000 0.280000 0.220000
v 0.200000 0.280000 0.220000
vt 0.000000 0.000000
vt 1.000000 0.000000
vt 1.000000 1.000000
vt 0.000000 1.000000
f 985/985 986/986 987/987 988/988
v 0.200000 0.120000 0.220000
v 0.420000 0.120000 0.220000
v 0.420000 0.120000 0.120000
v 0.200000 0.120000 0.120000
vt 0.000000 0.000000
vt 1.000000 0.000000
vt 1.000000 1.000000
vt 0.000000 1.000000
f 989/989 990/990 991/991 992/992
usemtl dark
v 0.160000 0.580000 0.520000
v 0.157148 0.593852 0.514142
v 0.837148 0.733852 0.514142
v 0.840000 0.720000 0.520000
vt 0.000000 0.000000
vt 0.125000 0.000000
vt 0.125000 1.000000
vt 0.000000 1.000000
f 993/993 994/994 995/995 996/996
v 0.160000 0.580000 0.500000
v 0.157148 0.593852 0.514142
v 0.160000 0.580000 0.520000
vt 0.000000 0.000000
vt 1.000000 0.000000
vt 1.000000 1.000000
f 997/997 998/998 999/999
v 0.840000 0.720000 0.500000
v 0.840000 0.720000 0.520000
v 0.837148 0.733852 0.514142
vt 0.000000 0.000000
vt 1.000000 0.000000
vt 1.000000 1.000000
f 1000/1000 1001/1001 1002/1002
v 0.157148 0.593852 0.514142
v 0.155967 0.599589 0.500000
v 0.835967 0.739589 0.500000
v 0.837148 0.733852 0.514142
vt 0.125000 0.000000
vt 0.250000 0.000000
vt 0.250000 1.000000
vt 0.125000 1.000000
f 1003/1003 1004/1004 1005/1005 1006/1006
v 0.160000 0.580000 0.500000
v 0.155967 0.599589 0.500000
v 0.157148 0.593852 0.514142
vt 0.000000 0.000000
vt 1.000000 0.000000
vt 1.000000 1.000000
f 1007/1007 1008/1008 1009/1009
v 0.840000 0.720000 0.500000
v 0.837148 0.733852 0.514142
v 0.835967 0.739589 0.500000
vt 0.000000 0.000000
vt 1.000000 0.000000
vt 1.000000 1.000000
f 1010/1010 1011/1011 1012/1012
v 0.155967 0.599589 0.500000
v 0.157148 0.593852 0.485858
v 0.837148 0.733852 0.485858
v 0.835967 0.739589 0.500000
vt 0.250000 0.000000
vt 0.375000 0.000000
vt 0.375000 1.000000
vt 0.250000 1.000000
f 1013/1013 1014/1014 1015/1015 1016/1016
v 0.160000 0.580000 0.500000
v 0.157148 0.593852 0.485858
v 0.155967 0.599589 0.500000
vt 0.000000 0.000000
vt 1.000000 0.000000
vt 1.000000 1.000000
f 1017/1017 1018/1018 1019/1019
v 0.840000 0.720000 0.500000
v 0.835967 0.739589 0.500000
v 0.837148 0.733852 0.485858
vt 0.000000 0.000000
vt 1.000000 0.000000
vt 1.000000 1.000000
f 1020/1020 1021/1021 1022/1022
v 0.157148 0.593852 0.485858
v 0.160000 0.580000 0.480000
v 0.840000 0.720000 0.480000
v 0.837148 0.733852 0.485858
vt 0.375000 0.000000
vt 0.500000 0.000000
vt 0.500000 1.000000
vt 0.375000 1.000000
f 1023/1023 1024/1024 1025/1025 1026/1026
v 0.160000 0.580000 0.500000
v 0.160000 0.580000 0.480000
v 0.157148 0.593852 0.485858
vt 0.000000 0.000000
vt 1.000000 0.000000
vt 1.000000 1.000000
f 1027/1027 1028/1028 1029/1029
v 0.840000 0.720000 0.500000
v 0.837148 0.733852 0.485858
v 0.840000 0.720000 0.480000
vt 0.000000 0.000000
vt 1.000000 0.000000
vt 1.000000 1.000000
f 1030/1030 1031/1031 1032/1032
v 0.160000 0.580000 0.480000
v 0.162852 0.566148 0.485858
v 0.842852 0.706148 0.485858
v 0.840000 0.720000 0.480000
vt 0.500000 0.000000
vt 0.625000 0.000000
vt 0.625000 1.000000
vt 0.500000 1.000000
f 1033/1033 1034/1034 1035/1035 1036/1036
v 0.160000 0.580000 0.500000
v 0.162852 0.566148 0.485858
v 0.160000 0.580000 0.480000
vt 0.000000 0.000000
vt 1.000000 0.000000
vt 1.000000 1.000000
f 1037/1037 1038/1038 1039/1039
v 0.840000 0.720000 0.500000
v 0.840000 0.720000 0.480000
v 0.842852 0.706148 0.485858
vt 0.000000 0.000000
vt 1.000000 0.000000
vt 1.000000 1.000000
f 1040/1040 1041/1041 1042/1042
v 0.162852 0.566148 0.485858
v 0.164033 0.560411 0.500000
v 0.844033 0.700411 0.500000
v 0.842852 0.706148 0.485858
vt 0.625000 0.000000
vt 0.750000 0.000000
vt 0.750000 1.000000
vt 0.625000 1.000000
f 1043/1043 1044/1044 1045/1045 1046/1046
v 0.160000 0.580000 0.500000
v 0.164033 0.560411 0.500000
v 0.162852 0.566148 0.485858
vt 0.000000 0.000000
vt 1.000000 0.000000
vt 1.000000 1.000000
f 1047/1047 1048/1048 1049/1049
v 0.840000 0.720000 0.500000
v 0.842852 0.706148 0.485858
v 0.844033 0.700411 0.500000
vt 0.000000 0.000000
vt 1.000000 0.000000
vt 1.000000 1.000000
f 1050/1050 1051/1051 1052/1052
v 0.164033 0.560411 0.500000
v 0.162852 0.566148 0.514142
v 0.842852 0.706148 0.514142
v 0.844033 0.700411 0.500000
vt 0.750000 0.000000
vt 0.875000 0.000000
vt 0.875000 1.000000
vt 0.750000 1.000000
f 1053/1053 1054/1054 1055/1055 1056/1056
v 0.160000 0.580000 0.500000
v 0.162852 0.566148 0.514142
v 0.164033 0.560411 0.500000
vt 0.000000 0.000000
vt 1.000000 0.000000
vt 1.000000 1.000000
f 1057/1057 1058/1058 1059/1059
v 0.840000 0.720000 0.500000
v 0.844033 0.700411 0.500000
v 0.842852 0.706148 0.514142
vt 0.000000 0.000000
vt 1.000000 0.000000
vt 1.000000 1.000000
f 1060/1060 1061/1061 1062/1062
v 0.162852 0.566148 0.514142
v 0.160000 0.580000 0.520000
v 0.840000 0.720000 0.520000
v 0.842852 0.706148 0.514142
vt 0.875000 0.000000
vt 1.000000 0.000000
vt 1.000000 1.000000
vt 0.875000 1.000000
f 1063/1063 1064/1064 1065/1065 1066/1066
v 0.160000 0.580000 0.500000
v 0.160000 0.580000 0.520000
v 0.162852 0.566148 0.514142
vt 0.000000 0.000000
vt 1.000000 0.000000
vt 1.000000 1.000000
f 1067/1067 1068/1068 1069/1069
v 0.840000 0.720000 0.500000
v 0.842852 0.706148 0.514142
v 0.840000 0.720000 0.520000
vt 0.000000 0.000000
vt 1.000000 0.000000
vt 1.000000 1.000000
f 1070/1070 1071/1071 1072/1072
