mtllib missile_showcase.mtl
o missile_showcase
s 1
usemtl dark
v 0.080000 0.000000 0.080000
v 0.920000 0.000000 0.080000
v 0.920000 0.120000 0.080000
v 0.080000 0.120000 0.080000
vt 0.000000 0.000000
vt 1.000000 0.000000
vt 1.000000 1.000000
vt 0.000000 1.000000
f 1/1 2/2 3/3 4/4
v 0.920000 0.000000 0.920000
v 0.080000 0.000000 0.920000
v 0.080000 0.120000 0.920000
v 0.920000 0.120000 0.920000
vt 0.000000 0.000000
vt 1.000000 0.000000
vt 1.000000 1.000000
vt 0.000000 1.000000
f 5/5 6/6 7/7 8/8
v 0.080000 0.000000 0.920000
v 0.080000 0.000000 0.080000
v 0.080000 0.120000 0.080000
v 0.080000 0.120000 0.920000
vt 0.000000 0.000000
vt 1.000000 0.000000
vt 1.000000 1.000000
vt 0.000000 1.000000
f 9/9 10/10 11/11 12/12
v 0.920000 0.000000 0.080000
v 0.920000 0.000000 0.920000
v 0.920000 0.120000 0.920000
v 0.920000 0.120000 0.080000
vt 0.000000 0.000000
vt 1.000000 0.000000
vt 1.000000 1.000000
vt 0.000000 1.000000
f 13/13 14/14 15/15 16/16
v 0.080000 0.120000 0.080000
v 0.920000 0.120000 0.080000
v 0.920000 0.120000 0.920000
v 0.080000 0.120000 0.920000
vt 0.000000 0.000000
vt 1.000000 0.000000
vt 1.000000 1.000000
vt 0.000000 1.000000
f 17/17 18/18 19/19 20/20
v 0.080000 0.000000 0.920000
v 0.920000 0.000000 0.920000
v 0.920000 0.000000 0.080000
v 0.080000 0.000000 0.080000
vt 0.000000 0.000000
vt 1.000000 0.000000
vt 1.000000 1.000000
vt 0.000000 1.000000
f 21/21 22/22 23/23 24/24
usemtl navy
v 0.160000 0.120000 0.160000
v 0.840000 0.120000 0.160000
v 0.840000 0.580000 0.160000
v 0.160000 0.580000 0.160000
vt 0.000000 0.000000
vt 1.000000 0.000000
vt 1.000000 1.000000
vt 0.000000 1.000000
f 25/25 26/26 27/27 28/28
v 0.840000 0.120000 0.840000
v 0.160000 0.120000 0.840000
v 0.160000 0.580000 0.840000
v 0.840000 0.580000 0.840000
vt 0.000000 0.000000
vt 1.000000 0.000000
vt 1.000000 1.000000
vt 0.000000 1.000000
f 29/29 30/30 31/31 32/32
v 0.160000 0.120000 0.840000
v 0.160000 0.120000 0.160000
v 0.160000 0.580000 0.160000
v 0.160000 0.580000 0.840000
vt 0.000000 0.000000
vt 1.000000 0.000000
vt 1.000000 1.000000
vt 0.000000 1.000000
f 33/33 34/34 35/35 36/36
v 0.840000 0.120000 0.160000
v 0.840000 0.120000 0.840000
v 0.840000 0.580000 0.840000
v 0.840000 0.580000 0.160000
vt 0.000000 0.000000
vt 1.000000 0.000000
vt 1.000000 1.000000
vt 0.000000 1.000000
f 37/37 38/38 39/39 40/40
v 0.160000 0.580000 0.160000
v 0.840000 0.580000 0.160000
v 0.840000 0.580000 0.840000
v 0.160000 0.580000 0.840000
vt 0.000000 0.000000
vt 1.000000 0.000000
vt 1.000000 1.000000
vt 0.000000 1.000000
f 41/41 42/42 43/43 44/44
v 0.160000 0.120000 0.840000
v 0.840000 0.120000 0.840000
v 0.840000 0.120000 0.160000
v 0.160000 0.120000 0.160000
vt 0.000000 0.000000
vt 1.000000 0.000000
vt 1.000000 1.000000
vt 0.000000 1.000000
f 45/45 46/46 47/47 48/48
usemtl body
v 0.120000 0.580000 0.120000
v 0.880000 0.580000 0.120000
v 0.880000 0.680000 0.120000
v 0.120000 0.680000 0.120000
vt 0.000000 0.000000
vt 1.000000 0.000000
vt 1.000000 1.000000
vt 0.000000 1.000000
f 49/49 50/50 51/51 52/52
v 0.880000 0.580000 0.880000
v 0.120000 0.580000 0.880000
v 0.120000 0.680000 0.880000
v 0.880000 0.680000 0.880000
vt 0.000000 0.000000
vt 1.000000 0.000000
vt 1.000000 1.000000
vt 0.000000 1.000000
f 53/53 54/54 55/55 56/56
v 0.120000 0.580000 0.880000
v 0.120000 0.580000 0.120000
v 0.120000 0.680000 0.120000
v 0.120000 0.680000 0.880000
vt 0.000000 0.000000
vt 1.000000 0.000000
vt 1.000000 1.000000
vt 0.000000 1.000000
f 57/57 58/58 59/59 60/60
v 0.880000 0.580000 0.120000
v 0.880000 0.580000 0.880000
v 0.880000 0.680000 0.880000
v 0.880000 0.680000 0.120000
vt 0.000000 0.000000
vt 1.000000 0.000000
vt 1.000000 1.000000
vt 0.000000 1.000000
f 61/61 62/62 63/63 64/64
v 0.120000 0.680000 0.120000
v 0.880000 0.680000 0.120000
v 0.880000 0.680000 0.880000
v 0.120000 0.680000 0.880000
vt 0.000000 0.000000
vt 1.000000 0.000000
vt 1.000000 1.000000
vt 0.000000 1.000000
f 65/65 66/66 67/67 68/68
v 0.120000 0.580000 0.880000
v 0.880000 0.580000 0.880000
v 0.880000 0.580000 0.120000
v 0.120000 0.580000 0.120000
vt 0.000000 0.000000
vt 1.000000 0.000000
vt 1.000000 1.000000
vt 0.000000 1.000000
f 69/69 70/70 71/71 72/72
usemtl yellow
v 0.500000 0.660000 0.340000
v 0.549443 0.660000 0.347831
v 0.549443 0.780000 0.347831
v 0.500000 0.780000 0.340000
vt 0.000000 0.000000
vt 0.050000 0.000000
vt 0.050000 1.000000
vt 0.000000 1.000000
f 73/73 74/74 75/75 76/76
v 0.500000 0.660000 0.500000
v 0.549443 0.660000 0.347831
v 0.500000 0.660000 0.340000
vt 0.000000 0.000000
vt 1.000000 0.000000
vt 1.000000 1.000000
f 77/77 78/78 79/79
v 0.500000 0.780000 0.500000
v 0.500000 0.780000 0.340000
v 0.549443 0.780000 0.347831
vt 0.000000 0.000000
vt 1.000000 0.000000
vt 1.000000 1.000000
f 80/80 81/81 82/82
v 0.549443 0.660000 0.347831
v 0.594046 0.660000 0.370557
v 0.594046 0.780000 0.370557
v 0.549443 0.780000 0.347831
vt 0.050000 0.000000
vt 0.100000 0.000000
vt 0.100000 1.000000
vt 0.050000 1.000000
f 83/83 84/84 85/85 86/86
v 0.500000 0.660000 0.500000
v 0.594046 0.660000 0.370557
v 0.549443 0.660000 0.347831
vt 0.000000 0.000000
vt 1.000000 0.000000
vt 1.000000 1.000000
f 87/87 88/88 89/89
v 0.500000 0.780000 0.500000
v 0.549443 0.780000 0.347831
v 0.594046 0.780000 0.370557
vt 0.000000 0.000000
vt 1.000000 0.000000
vt 1.000000 1.000000
f 90/90 91/91 92/92
v 0.594046 0.660000 0.370557
v 0.629443 0.660000 0.405954
v 0.629443 0.780000 0.405954
v 0.594046 0.780000 0.370557
vt 0.100000 0.000000
vt 0.150000 0.000000
vt 0.150000 1.000000
vt 0.100000 1.000000
f 93/93 94/94 95/95 96/96
v 0.500000 0.660000 0.500000
v 0.629443 0.660000 0.405954
v 0.594046 0.660000 0.370557
vt 0.000000 0.000000
vt 1.000000 0.000000
vt 1.000000 1.000000
f 97/97 98/98 99/99
v 0.500000 0.780000 0.500000
v 0.594046 0.780000 0.370557
v 0.629443 0.780000 0.405954
vt 0.000000 0.000000
vt 1.000000 0.000000
vt 1.000000 1.000000
f 100/100 101/101 102/102
v 0.629443 0.660000 0.405954
v 0.652169 0.660000 0.450557
v 0.652169 0.780000 0.450557
v 0.629443 0.780000 0.405954
vt 0.150000 0.000000
vt 0.200000 0.000000
vt 0.200000 1.000000
vt 0.150000 1.000000
f 103/103 104/104 105/105 106/106
v 0.500000 0.660000 0.500000
v 0.652169 0.660000 0.450557
v 0.629443 0.660000 0.405954
vt 0.000000 0.000000
vt 1.000000 0.000000
vt 1.000000 1.000000
f 107/107 108/108 109/109
v 0.500000 0.780000 0.500000
v 0.629443 0.780000 0.405954
v 0.652169 0.780000 0.450557
vt 0.000000 0.000000
vt 1.000000 0.000000
vt 1.000000 1.000000
f 110/110 111/111 112/112
v 0.652169 0.660000 0.450557
v 0.660000 0.660000 0.500000
v 0.660000 0.780000 0.500000
v 0.652169 0.780000 0.450557
vt 0.200000 0.000000
vt 0.250000 0.000000
vt 0.250000 1.000000
vt 0.200000 1.000000
f 113/113 114/114 115/115 116/116
v 0.500000 0.660000 0.500000
v 0.660000 0.660000 0.500000
v 0.652169 0.660000 0.450557
vt 0.000000 0.000000
vt 1.000000 0.000000
vt 1.000000 1.000000
f 117/117 118/118 119/119
v 0.500000 0.780000 0.500000
v 0.652169 0.780000 0.450557
v 0.660000 0.780000 0.500000
vt 0.000000 0.000000
vt 1.000000 0.000000
vt 1.000000 1.000000
f 120/120 121/121 122/122
v 0.660000 0.660000 0.500000
v 0.652169 0.660000 0.549443
v 0.652169 0.780000 0.549443
v 0.660000 0.780000 0.500000
vt 0.250000 0.000000
vt 0.300000 0.000000
vt 0.300000 1.000000
vt 0.250000 1.000000
f 123/123 124/124 125/125 126/126
v 0.500000 0.660000 0.500000
v 0.652169 0.660000 0.549443
v 0.660000 0.660000 0.500000
vt 0.000000 0.000000
vt 1.000000 0.000000
vt 1.000000 1.000000
f 127/127 128/128 129/129
v 0.500000 0.780000 0.500000
v 0.660000 0.780000 0.500000
v 0.652169 0.780000 0.549443
vt 0.000000 0.000000
vt 1.000000 0.000000
vt 1.000000 1.000000
f 130/130 131/131 132/132
v 0.652169 0.660000 0.549443
v 0.629443 0.660000 0.594046
v 0.629443 0.780000 0.594046
v 0.652169 0.780000 0.549443
vt 0.300000 0.000000
vt 0.350000 0.000000
vt 0.350000 1.000000
vt 0.300000 1.000000
f 133/133 134/134 135/135 136/136
v 0.500000 0.660000 0.500000
v 0.629443 0.660000 0.594046
v 0.652169 0.660000 0.549443
vt 0.000000 0.000000
vt 1.000000 0.000000
vt 1.000000 1.000000
f 137/137 138/138 139/139
v 0.500000 0.780000 0.500000
v 0.652169 0.780000 0.549443
v 0.629443 0.780000 0.594046
vt 0.000000 0.000000
vt 1.000000 0.000000
vt 1.000000 1.000000
f 140/140 141/141 142/142
v 0.629443 0.660000 0.594046
v 0.594046 0.660000 0.629443
v 0.594046 0.780000 0.629443
v 0.629443 0.780000 0.594046
vt 0.350000 0.000000
vt 0.400000 0.000000
vt 0.400000 1.000000
vt 0.350000 1.000000
f 143/143 144/144 145/145 146/146
v 0.500000 0.660000 0.500000
v 0.594046 0.660000 0.629443
v 0.629443 0.660000 0.594046
vt 0.000000 0.000000
vt 1.000000 0.000000
vt 1.000000 1.000000
f 147/147 148/148 149/149
v 0.500000 0.780000 0.500000
v 0.629443 0.780000 0.594046
v 0.594046 0.780000 0.629443
vt 0.000000 0.000000
vt 1.000000 0.000000
vt 1.000000 1.000000
f 150/150 151/151 152/152
v 0.594046 0.660000 0.629443
v 0.549443 0.660000 0.652169
v 0.549443 0.780000 0.652169
v 0.594046 0.780000 0.629443
vt 0.400000 0.000000
vt 0.450000 0.000000
vt 0.450000 1.000000
vt 0.400000 1.000000
f 153/153 154/154 155/155 156/156
v 0.500000 0.660000 0.500000
v 0.549443 0.660000 0.652169
v 0.594046 0.660000 0.629443
vt 0.000000 0.000000
vt 1.000000 0.000000
vt 1.000000 1.000000
f 157/157 158/158 159/159
v 0.500000 0.780000 0.500000
v 0.594046 0.780000 0.629443
v 0.549443 0.780000 0.652169
vt 0.000000 0.000000
vt 1.000000 0.000000
vt 1.000000 1.000000
f 160/160 161/161 162/162
v 0.549443 0.660000 0.652169
v 0.500000 0.660000 0.660000
v 0.500000 0.780000 0.660000
v 0.549443 0.780000 0.652169
vt 0.450000 0.000000
vt 0.500000 0.000000
vt 0.500000 1.000000
vt 0.450000 1.000000
f 163/163 164/164 165/165 166/166
v 0.500000 0.660000 0.500000
v 0.500000 0.660000 0.660000
v 0.549443 0.660000 0.652169
vt 0.000000 0.000000
vt 1.000000 0.000000
vt 1.000000 1.000000
f 167/167 168/168 169/169
v 0.500000 0.780000 0.500000
v 0.549443 0.780000 0.652169
v 0.500000 0.780000 0.660000
vt 0.000000 0.000000
vt 1.000000 0.000000
vt 1.000000 1.000000
f 170/170 171/171 172/172
v 0.500000 0.660000 0.660000
v 0.450557 0.660000 0.652169
v 0.450557 0.780000 0.652169
v 0.500000 0.780000 0.660000
vt 0.500000 0.000000
vt 0.550000 0.000000
vt 0.550000 1.000000
vt 0.500000 1.000000
f 173/173 174/174 175/175 176/176
v 0.500000 0.660000 0.500000
v 0.450557 0.660000 0.652169
v 0.500000 0.660000 0.660000
vt 0.000000 0.000000
vt 1.000000 0.000000
vt 1.000000 1.000000
f 177/177 178/178 179/179
v 0.500000 0.780000 0.500000
v 0.500000 0.780000 0.660000
v 0.450557 0.780000 0.652169
vt 0.000000 0.000000
vt 1.000000 0.000000
vt 1.000000 1.000000
f 180/180 181/181 182/182
v 0.450557 0.660000 0.652169
v 0.405954 0.660000 0.629443
v 0.405954 0.780000 0.629443
v 0.450557 0.780000 0.652169
vt 0.550000 0.000000
vt 0.600000 0.000000
vt 0.600000 1.000000
vt 0.550000 1.000000
f 183/183 184/184 185/185 186/186
v 0.500000 0.660000 0.500000
v 0.405954 0.660000 0.629443
v 0.450557 0.660000 0.652169
vt 0.000000 0.000000
vt 1.000000 0.000000
vt 1.000000 1.000000
f 187/187 188/188 189/189
v 0.500000 0.780000 0.500000
v 0.450557 0.780000 0.652169
v 0.405954 0.780000 0.629443
vt 0.000000 0.000000
vt 1.000000 0.000000
vt 1.000000 1.000000
f 190/190 191/191 192/192
v 0.405954 0.660000 0.629443
v 0.370557 0.660000 0.594046
v 0.370557 0.780000 0.594046
v 0.405954 0.780000 0.629443
vt 0.600000 0.000000
vt 0.650000 0.000000
vt 0.650000 1.000000
vt 0.600000 1.000000
f 193/193 194/194 195/195 196/196
v 0.500000 0.660000 0.500000
v 0.370557 0.660000 0.594046
v 0.405954 0.660000 0.629443
vt 0.000000 0.000000
vt 1.000000 0.000000
vt 1.000000 1.000000
f 197/197 198/198 199/199
v 0.500000 0.780000 0.500000
v 0.405954 0.780000 0.629443
v 0.370557 0.780000 0.594046
vt 0.000000 0.000000
vt 1.000000 0.000000
vt 1.000000 1.000000
f 200/200 201/201 202/202
v 0.370557 0.660000 0.594046
v 0.347831 0.660000 0.549443
v 0.347831 0.780000 0.549443
v 0.370557 0.780000 0.594046
vt 0.650000 0.000000
vt 0.700000 0.000000
vt 0.700000 1.000000
vt 0.650000 1.000000
f 203/203 204/204 205/205 206/206
v 0.500000 0.660000 0.500000
v 0.347831 0.660000 0.549443
v 0.370557 0.660000 0.594046
vt 0.000000 0.000000
vt 1.000000 0.000000
vt 1.000000 1.000000
f 207/207 208/208 209/209
v 0.500000 0.780000 0.500000
v 0.370557 0.780000 0.594046
v 0.347831 0.780000 0.549443
vt 0.000000 0.000000
vt 1.000000 0.000000
vt 1.000000 1.000000
f 210/210 211/211 212/212
v 0.347831 0.660000 0.549443
v 0.340000 0.660000 0.500000
v 0.340000 0.780000 0.500000
v 0.347831 0.780000 0.549443
vt 0.700000 0.000000
vt 0.750000 0.000000
vt 0.750000 1.000000
vt 0.700000 1.000000
f 213/213 214/214 215/215 216/216
v 0.500000 0.660000 0.500000
v 0.340000 0.660000 0.500000
v 0.347831 0.660000 0.549443
vt 0.000000 0.000000
vt 1.000000 0.000000
vt 1.000000 1.000000
f 217/217 218/218 219/219
v 0.500000 0.780000 0.500000
v 0.347831 0.780000 0.549443
v 0.340000 0.780000 0.500000
vt 0.000000 0.000000
vt 1.000000 0.000000
vt 1.000000 1.000000
f 220/220 221/221 222/222
v 0.340000 0.660000 0.500000
v 0.347831 0.660000 0.450557
v 0.347831 0.780000 0.450557
v 0.340000 0.780000 0.500000
vt 0.750000 0.000000
vt 0.800000 0.000000
vt 0.800000 1.000000
vt 0.750000 1.000000
f 223/223 224/224 225/225 226/226
v 0.500000 0.660000 0.500000
v 0.347831 0.660000 0.450557
v 0.340000 0.660000 0.500000
vt 0.000000 0.000000
vt 1.000000 0.000000
vt 1.000000 1.000000
f 227/227 228/228 229/229
v 0.500000 0.780000 0.500000
v 0.340000 0.780000 0.500000
v 0.347831 0.780000 0.450557
vt 0.000000 0.000000
vt 1.000000 0.000000
vt 1.000000 1.000000
f 230/230 231/231 232/232
v 0.347831 0.660000 0.450557
v 0.370557 0.660000 0.405954
v 0.370557 0.780000 0.405954
v 0.347831 0.780000 0.450557
vt 0.800000 0.000000
vt 0.850000 0.000000
vt 0.850000 1.000000
vt 0.800000 1.000000
f 233/233 234/234 235/235 236/236
v 0.500000 0.660000 0.500000
v 0.370557 0.660000 0.405954
v 0.347831 0.660000 0.450557
vt 0.000000 0.000000
vt 1.000000 0.000000
vt 1.000000 1.000000
f 237/237 238/238 239/239
v 0.500000 0.780000 0.500000
v 0.347831 0.780000 0.450557
v 0.370557 0.780000 0.405954
vt 0.000000 0.000000
vt 1.000000 0.000000
vt 1.000000 1.000000
f 240/240 241/241 242/242
v 0.370557 0.660000 0.405954
v 0.405954 0.660000 0.370557
v 0.405954 0.780000 0.370557
v 0.370557 0.780000 0.405954
vt 0.850000 0.000000
vt 0.900000 0.000000
vt 0.900000 1.000000
vt 0.850000 1.000000
f 243/243 244/244 245/245 246/246
v 0.500000 0.660000 0.500000
v 0.405954 0.660000 0.370557
v 0.370557 0.660000 0.405954
vt 0.000000 0.000000
vt 1.000000 0.000000
vt 1.000000 1.000000
f 247/247 248/248 249/249
v 0.500000 0.780000 0.500000
v 0.370557 0.780000 0.405954
v 0.405954 0.780000 0.370557
vt 0.000000 0.000000
vt 1.000000 0.000000
vt 1.000000 1.000000
f 250/250 251/251 252/252
v 0.405954 0.660000 0.370557
v 0.450557 0.660000 0.347831
v 0.450557 0.780000 0.347831
v 0.405954 0.780000 0.370557
vt 0.900000 0.000000
vt 0.950000 0.000000
vt 0.950000 1.000000
vt 0.900000 1.000000
f 253/253 254/254 255/255 256/256
v 0.500000 0.660000 0.500000
v 0.450557 0.660000 0.347831
v 0.405954 0.660000 0.370557
vt 0.000000 0.000000
vt 1.000000 0.000000
vt 1.000000 1.000000
f 257/257 258/258 259/259
v 0.500000 0.780000 0.500000
v 0.405954 0.780000 0.370557
v 0.450557 0.780000 0.347831
vt 0.000000 0.000000
vt 1.000000 0.000000
vt 1.000000 1.000000
f 260/260 261/261 262/262
v 0.450557 0.660000 0.347831
v 0.500000 0.660000 0.340000
v 0.500000 0.780000 0.340000
v 0.450557 0.780000 0.347831
vt 0.950000 0.000000
vt 1.000000 0.000000
vt 1.000000 1.000000
vt 0.950000 1.000000
f 263/263 264/264 265/265 266/266
v 0.500000 0.660000 0.500000
v 0.500000 0.660000 0.340000
v 0.450557 0.660000 0.347831
vt 0.000000 0.000000
vt 1.000000 0.000000
vt 1.000000 1.000000
f 267/267 268/268 269/269
v 0.500000 0.780000 0.500000
v 0.450557 0.780000 0.347831
v 0.500000 0.780000 0.340000
vt 0.000000 0.000000
vt 1.000000 0.000000
vt 1.000000 1.000000
f 270/270 271/271 272/272
usemtl glass
v 0.220000 0.200000 0.220000
v 0.780000 0.200000 0.220000
v 0.780000 0.520000 0.220000
v 0.220000 0.520000 0.220000
vt 0.000000 0.000000
vt 1.000000 0.000000
vt 1.000000 1.000000
vt 0.000000 1.000000
f 273/273 274/274 275/275 276/276
v 0.780000 0.200000 0.280000
v 0.220000 0.200000 0.280000
v 0.220000 0.520000 0.280000
v 0.780000 0.520000 0.280000
vt 0.000000 0.000000
vt 1.000000 0.000000
vt 1.000000 1.000000
vt 0.000000 1.000000
f 277/277 278/278 279/279 280/280
v 0.220000 0.200000 0.280000
v 0.220000 0.200000 0.220000
v 0.220000 0.520000 0.220000
v 0.220000 0.520000 0.280000
vt 0.000000 0.000000
vt 1.000000 0.000000
vt 1.000000 1.000000
vt 0.000000 1.000000
f 281/281 282/282 283/283 284/284
v 0.780000 0.200000 0.220000
v 0.780000 0.200000 0.280000
v 0.780000 0.520000 0.280000
v 0.780000 0.520000 0.220000
vt 0.000000 0.000000
vt 1.000000 0.000000
vt 1.000000 1.000000
vt 0.000000 1.000000
f 285/285 286/286 287/287 288/288
v 0.220000 0.520000 0.220000
v 0.780000 0.520000 0.220000
v 0.780000 0.520000 0.280000
v 0.220000 0.520000 0.280000
vt 0.000000 0.000000
vt 1.000000 0.000000
vt 1.000000 1.000000
vt 0.000000 1.000000
f 289/289 290/290 291/291 292/292
v 0.220000 0.200000 0.280000
v 0.780000 0.200000 0.280000
v 0.780000 0.200000 0.220000
v 0.220000 0.200000 0.220000
vt 0.000000 0.000000
vt 1.000000 0.000000
vt 1.000000 1.000000
vt 0.000000 1.000000
f 293/293 294/294 295/295 296/296
v 0.220000 0.200000 0.720000
v 0.780000 0.200000 0.720000
v 0.780000 0.520000 0.720000
v 0.220000 0.520000 0.720000
vt 0.000000 0.000000
vt 1.000000 0.000000
vt 1.000000 1.000000
vt 0.000000 1.000000
f 297/297 298/298 299/299 300/300
v 0.780000 0.200000 0.780000
v 0.220000 0.200000 0.780000
v 0.220000 0.520000 0.780000
v 0.780000 0.520000 0.780000
vt 0.000000 0.000000
vt 1.000000 0.000000
vt 1.000000 1.000000
vt 0.000000 1.000000
f 301/301 302/302 303/303 304/304
v 0.220000 0.200000 0.780000
v 0.220000 0.200000 0.720000
v 0.220000 0.520000 0.720000
v 0.220000 0.520000 0.780000
vt 0.000000 0.000000
vt 1.000000 0.000000
vt 1.000000 1.000000
vt 0.000000 1.000000
f 305/305 306/306 307/307 308/308
v 0.780000 0.200000 0.720000
v 0.780000 0.200000 0.780000
v 0.780000 0.520000 0.780000
v 0.780000 0.520000 0.720000
vt 0.000000 0.000000
vt 1.000000 0.000000
vt 1.000000 1.000000
vt 0.000000 1.000000
f 309/309 310/310 311/311 312/312
v 0.220000 0.520000 0.720000
v 0.780000 0.520000 0.720000
v 0.780000 0.520000 0.780000
v 0.220000 0.520000 0.780000
vt 0.000000 0.000000
vt 1.000000 0.000000
vt 1.000000 1.000000
vt 0.000000 1.000000
f 313/313 314/314 315/315 316/316
v 0.220000 0.200000 0.780000
v 0.780000 0.200000 0.780000
v 0.780000 0.200000 0.720000
v 0.220000 0.200000 0.720000
vt 0.000000 0.000000
vt 1.000000 0.000000
vt 1.000000 1.000000
vt 0.000000 1.000000
f 317/317 318/318 319/319 320/320
usemtl yellow
v 0.500000 0.120000 0.108000
v 0.508485 0.120000 0.111515
v 0.508485 0.139200 0.111515
v 0.500000 0.139200 0.108000
vt 0.000000 0.000000
vt 0.125000 0.000000
vt 0.125000 1.000000
vt 0.000000 1.000000
f 321/321 322/322 323/323 324/324
v 0.500000 0.120000 0.120000
v 0.508485 0.120000 0.111515
v 0.500000 0.120000 0.108000
vt 0.000000 0.000000
vt 1.000000 0.000000
vt 1.000000 1.000000
f 325/325 326/326 327/327
v 0.500000 0.139200 0.120000
v 0.500000 0.139200 0.108000
v 0.508485 0.139200 0.111515
vt 0.000000 0.000000
vt 1.000000 0.000000
vt 1.000000 1.000000
f 328/328 329/329 330/330
v 0.508485 0.120000 0.111515
v 0.512000 0.120000 0.120000
v 0.512000 0.139200 0.120000
v 0.508485 0.139200 0.111515
vt 0.125000 0.000000
vt 0.250000 0.000000
vt 0.250000 1.000000
vt 0.125000 1.000000
f 331/331 332/332 333/333 334/334
v 0.500000 0.120000 0.120000
v 0.512000 0.120000 0.120000
v 0.508485 0.120000 0.111515
vt 0.000000 0.000000
vt 1.000000 0.000000
vt 1.000000 1.000000
f 335/335 336/336 337/337
v 0.500000 0.139200 0.120000
v 0.508485 0.139200 0.111515
v 0.512000 0.139200 0.120000
vt 0.000000 0.000000
vt 1.000000 0.000000
vt 1.000000 1.000000
f 338/338 339/339 340/340
v 0.512000 0.120000 0.120000
v 0.508485 0.120000 0.128485
v 0.508485 0.139200 0.128485
v 0.512000 0.139200 0.120000
vt 0.250000 0.000000
vt 0.375000 0.000000
vt 0.375000 1.000000
vt 0.250000 1.000000
f 341/341 342/342 343/343 344/344
v 0.500000 0.120000 0.120000
v 0.508485 0.120000 0.128485
v 0.512000 0.120000 0.120000
vt 0.000000 0.000000
vt 1.000000 0.000000
vt 1.000000 1.000000
f 345/345 346/346 347/347
v 0.500000 0.139200 0.120000
v 0.512000 0.139200 0.120000
v 0.508485 0.139200 0.128485
vt 0.000000 0.000000
vt 1.000000 0.000000
vt 1.000000 1.000000
f 348/348 349/349 350/350
v 0.508485 0.120000 0.128485
v 0.500000 0.120000 0.132000
v 0.500000 0.139200 0.132000
v 0.508485 0.139200 0.128485
vt 0.375000 0.000000
vt 0.500000 0.000000
vt 0.500000 1.000000
vt 0.375000 1.000000
f 351/351 352/352 353/353 354/354
v 0.500000 0.120000 0.120000
v 0.500000 0.120000 0.132000
v 0.508485 0.120000 0.128485
vt 0.000000 0.000000
vt 1.000000 0.000000
vt 1.000000 1.000000
f 355/355 356/356 357/357
v 0.500000 0.139200 0.120000
v 0.508485 0.139200 0.128485
v 0.500000 0.139200 0.132000
vt 0.000000 0.000000
vt 1.000000 0.000000
vt 1.000000 1.000000
f 358/358 359/359 360/360
v 0.500000 0.120000 0.132000
v 0.491515 0.120000 0.128485
v 0.491515 0.139200 0.128485
v 0.500000 0.139200 0.132000
vt 0.500000 0.000000
vt 0.625000 0.000000
vt 0.625000 1.000000
vt 0.500000 1.000000
f 361/361 362/362 363/363 364/364
v 0.500000 0.120000 0.120000
v 0.491515 0.120000 0.128485
v 0.500000 0.120000 0.132000
vt 0.000000 0.000000
vt 1.000000 0.000000
vt 1.000000 1.000000
f 365/365 366/366 367/367
v 0.500000 0.139200 0.120000
v 0.500000 0.139200 0.132000
v 0.491515 0.139200 0.128485
vt 0.000000 0.000000
vt 1.000000 0.000000
vt 1.000000 1.000000
f 368/368 369/369 370/370
v 0.491515 0.120000 0.128485
v 0.488000 0.120000 0.120000
v 0.488000 0.139200 0.120000
v 0.491515 0.139200 0.128485
vt 0.625000 0.000000
vt 0.750000 0.000000
vt 0.750000 1.000000
vt 0.625000 1.000000
f 371/371 372/372 373/373 374/374
v 0.500000 0.120000 0.120000
v 0.488000 0.120000 0.120000
v 0.491515 0.120000 0.128485
vt 0.000000 0.000000
vt 1.000000 0.000000
vt 1.000000 1.000000
f 375/375 376/376 377/377
v 0.500000 0.139200 0.120000
v 0.491515 0.139200 0.128485
v 0.488000 0.139200 0.120000
vt 0.000000 0.000000
vt 1.000000 0.000000
vt 1.000000 1.000000
f 378/378 379/379 380/380
v 0.488000 0.120000 0.120000
v 0.491515 0.120000 0.111515
v 0.491515 0.139200 0.111515
v 0.488000 0.139200 0.120000
vt 0.750000 0.000000
vt 0.875000 0.000000
vt 0.875000 1.000000
vt 0.750000 1.000000
f 381/381 382/382 383/383 384/384
v 0.500000 0.120000 0.120000
v 0.491515 0.120000 0.111515
v 0.488000 0.120000 0.120000
vt 0.000000 0.000000
vt 1.000000 0.000000
vt 1.000000 1.000000
f 385/385 386/386 387/387
v 0.500000 0.139200 0.120000
v 0.488000 0.139200 0.120000
v 0.491515 0.139200 0.111515
vt 0.000000 0.000000
vt 1.000000 0.000000
vt 1.000000 1.000000
f 388/388 389/389 390/390
v 0.491515 0.120000 0.111515
v 0.500000 0.120000 0.108000
v 0.500000 0.139200 0.108000
v 0.491515 0.139200 0.111515
vt 0.875000 0.000000
vt 1.000000 0.000000
vt 1.000000 1.000000
vt 0.875000 1.000000
f 391/391 392/392 393/393 394/394
v 0.500000 0.120000 0.120000
v 0.500000 0.120000 0.108000
v 0.491515 0.120000 0.111515
vt 0.000000 0.000000
vt 1.000000 0.000000
vt 1.000000 1.000000
f 395/395 396/396 397/397
v 0.500000 0.139200 0.120000
v 0.491515 0.139200 0.111515
v 0.500000 0.139200 0.108000
vt 0.000000 0.000000
vt 1.000000 0.000000
vt 1.000000 1.000000
f 398/398 399/399 400/400
v 0.768701 0.120000 0.219299
v 0.777186 0.120000 0.222814
v 0.777186 0.139200 0.222814
v 0.768701 0.139200 0.219299
vt 0.000000 0.000000
vt 0.125000 0.000000
vt 0.125000 1.000000
vt 0.000000 1.000000
f 401/401 402/402 403/403 404/404
v 0.768701 0.120000 0.231299
v 0.777186 0.120000 0.222814
v 0.768701 0.120000 0.219299
vt 0.000000 0.000000
vt 1.000000 0.000000
vt 1.000000 1.000000
f 405/405 406/406 407/407
v 0.768701 0.139200 0.231299
v 0.768701 0.139200 0.219299
v 0.777186 0.139200 0.222814
vt 0.000000 0.000000
vt 1.000000 0.000000
vt 1.000000 1.000000
f 408/408 409/409 410/410
v 0.777186 0.120000 0.222814
v 0.780701 0.120000 0.231299
v 0.780701 0.139200 0.231299
v 0.777186 0.139200 0.222814
vt 0.125000 0.000000
vt 0.250000 0.000000
vt 0.250000 1.000000
vt 0.125000 1.000000
f 411/411 412/412 413/413 414/414
v 0.768701 0.120000 0.231299
v 0.780701 0.120000 0.231299
v 0.777186 0.120000 0.222814
vt 0.000000 0.000000
vt 1.000000 0.000000
vt 1.000000 1.000000
f 415/415 416/416 417/417
v 0.768701 0.139200 0.231299
v 0.777186 0.139200 0.222814
v 0.780701 0.139200 0.231299
vt 0.000000 0.000000
vt 1.000000 0.000000
vt 1.000000 1.000000
f 418/418 419/419 420/420
v 0.780701 0.120000 0.231299
v 0.777186 0.120000 0.239785
v 0.777186 0.139200 0.239785
v 0.780701 0.139200 0.231299
vt 0.250000 0.000000
vt 0.375000 0.000000
vt 0.375000 1.000000
vt 0.250000 1.000000
f 421/421 422/422 423/423 424/424
v 0.768701 0.120000 0.231299
v 0.777186 0.120000 0.239785
v 0.780701 0.120000 0.231299
vt 0.000000 0.000000
vt 1.000000 0.000000
vt 1.000000 1.000000
f 425/425 426/426 427/427
v 0.768701 0.139200 0.231299
v 0.780701 0.139200 0.231299
v 0.777186 0.139200 0.239785
vt 0.000000 0.000000
vt 1.000000 0.000000
vt 1.000000 1.000000
f 428/428 429/429 430/430
v 0.777186 0.120000 0.239785
v 0.768701 0.120000 0.243299
v 0.768701 0.139200 0.243299
v 0.777186 0.139200 0.239785
vt 0.375000 0.000000
vt 0.500000 0.000000
vt 0.500000 1.000000
vt 0.375000 1.000000
f 431/431 432/432 433/433 434/434
v 0.768701 0.120000 0.231299
v 0.768701 0.120000 0.243299
v 0.777186 0.120000 0.239785
vt 0.000000 0.000000
vt 1.000000 0.000000
vt 1.000000 1.000000
f 435/435 436/436 437/437
v 0.768701 0.139200 0.231299
v 0.777186 0.139200 0.239785
v 0.768701 0.139200 0.243299
vt 0.000000 0.000000
vt 1.000000 0.000000
vt 1.000000 1.000000
f 438/438 439/439 440/440
v 0.768701 0.120000 0.243299
v 0.760215 0.120000 0.239785
v 0.760215 0.139200 0.239785
v 0.768701 0.139200 0.243299
vt 0.500000 0.000000
vt 0.625000 0.000000
vt 0.625000 1.000000
vt 0.500000 1.000000
f 441/441 442/442 443/443 444/444
v 0.768701 0.120000 0.231299
v 0.760215 0.120000 0.239785
v 0.768701 0.120000 0.243299
vt 0.000000 0.000000
vt 1.000000 0.000000
vt 1.000000 1.000000
f 445/445 446/446 447/447
v 0.768701 0.139200 0.231299
v 0.768701 0.139200 0.243299
v 0.760215 0.139200 0.239785
vt 0.000000 0.000000
vt 1.000000 0.000000
vt 1.000000 1.000000
f 448/448 449/449 450/450
v 0.760215 0.120000 0.239785
v 0.756701 0.120000 0.231299
v 0.756701 0.139200 0.231299
v 0.760215 0.139200 0.239785
vt 0.625000 0.000000
vt 0.750000 0.000000
vt 0.750000 1.000000
vt 0.625000 1.000000
f 451/451 452/452 453/453 454/454
v 0.768701 0.120000 0.231299
v 0.756701 0.120000 0.231299
v 0.760215 0.120000 0.239785
vt 0.000000 0.000000
vt 1.000000 0.000000
vt 1.000000 1.000000
f 455/455 456/456 457/457
v 0.768701 0.139200 0.231299
v 0.760215 0.139200 0.239785
v 0.756701 0.139200 0.231299
vt 0.000000 0.000000
vt 1.000000 0.000000
vt 1.000000 1.000000
f 458/458 459/459 460/460
v 0.756701 0.120000 0.231299
v 0.760215 0.120000 0.222814
v 0.760215 0.139200 0.222814
v 0.756701 0.139200 0.231299
vt 0.750000 0.000000
vt 0.875000 0.000000
vt 0.875000 1.000000
vt 0.750000 1.000000
f 461/461 462/462 463/463 464/464
v 0.768701 0.120000 0.231299
v 0.760215 0.120000 0.222814
v 0.756701 0.120000 0.231299
vt 0.000000 0.000000
vt 1.000000 0.000000
vt 1.000000 1.000000
f 465/465 466/466 467/467
v 0.768701 0.139200 0.231299
v 0.756701 0.139200 0.231299
v 0.760215 0.139200 0.222814
vt 0.000000 0.000000
vt 1.000000 0.000000
vt 1.000000 1.000000
f 468/468 469/469 470/470
v 0.760215 0.120000 0.222814
v 0.768701 0.120000 0.219299
v 0.768701 0.139200 0.219299
v 0.760215 0.139200 0.222814
vt 0.875000 0.000000
vt 1.000000 0.000000
vt 1.000000 1.000000
vt 0.875000 1.000000
f 471/471 472/472 473/473 474/474
v 0.768701 0.120000 0.231299
v 0.768701 0.120000 0.219299
v 0.760215 0.120000 0.222814
vt 0.000000 0.000000
vt 1.000000 0.000000
vt 1.000000 1.000000
f 475/475 476/476 477/477
v 0.768701 0.139200 0.231299
v 0.760215 0.139200 0.222814
v 0.768701 0.139200 0.219299
vt 0.000000 0.000000
vt 1.000000 0.000000
vt 1.000000 1.000000
f 478/478 479/479 480/480
v 0.880000 0.120000 0.488000
v 0.888485 0.120000 0.491515
v 0.888485 0.139200 0.491515
v 0.880000 0.139200 0.488000
vt 0.000000 0.000000
vt 0.125000 0.000000
vt 0.125000 1.000000
vt 0.000000 1.000000
f 481/481 482/482 483/483 484/484
v 0.880000 0.120000 0.500000
v 0.888485 0.120000 0.491515
v 0.880000 0.120000 0.488000
vt 0.000000 0.000000
vt 1.000000 0.000000
vt 1.000000 1.000000
f 485/485 486/486 487/487
v 0.880000 0.139200 0.500000
v 0.880000 0.139200 0.488000
v 0.888485 0.139200 0.491515
vt 0.000000 0.000000
vt 1.000000 0.000000
vt 1.000000 1.000000
f 488/488 489/489 490/490
v 0.888485 0.120000 0.491515
v 0.892000 0.120000 0.500000
v 0.892000 0.139200 0.500000
v 0.888485 0.139200 0.491515
vt 0.125000 0.000000
vt 0.250000 0.000000
vt 0.250000 1.000000
vt 0.125000 1.000000
f 491/491 492/492 493/493 494/494
v 0.880000 0.120000 0.500000
v 0.892000 0.120000 0.500000
v 0.888485 0.120000 0.491515
vt 0.000000 0.000000
vt 1.000000 0.000000
vt 1.000000 1.000000
f 495/495 496/496 497/497
v 0.880000 0.139200 0.500000
v 0.888485 0.139200 0.491515
v 0.892000 0.139200 0.500000
vt 0.000000 0.000000
vt 1.000000 0.000000
vt 1.000000 1.000000
f 498/498 499/499 500/500
v 0.892000 0.120000 0.500000
v 0.888485 0.120000 0.508485
v 0.888485 0.139200 0.508485
v 0.892000 0.139200 0.500000
vt 0.250000 0.000000
vt 0.375000 0.000000
vt 0.375000 1.000000
vt 0.250000 1.000000
f 501/501 502/502 503/503 504/504
v 0.880000 0.120000 0.500000
v 0.888485 0.120000 0.508485
v 0.892000 0.120000 0.500000
vt 0.000000 0.000000
vt 1.000000 0.000000
vt 1.000000 1.000000
f 505/505 506/506 507/507
v 0.880000 0.139200 0.500000
v 0.892000 0.139200 0.500000
v 0.888485 0.139200 0.508485
vt 0.000000 0.000000
vt 1.000000 0.000000
vt 1.000000 1.000000
f 508/508 509/509 510/510
v 0.888485 0.120000 0.508485
v 0.880000 0.120000 0.512000
v 0.880000 0.139200 0.512000
v 0.888485 0.139200 0.508485
vt 0.375000 0.000000
vt 0.500000 0.000000
vt 0.500000 1.000000
vt 0.375000 1.000000
f 511/511 512/512 513/513 514/514
v 0.880000 0.120000 0.500000
v 0.880000 0.120000 0.512000
v 0.888485 0.120000 0.508485
vt 0.000000 0.000000
vt 1.000000 0.000000
vt 1.000000 1.000000
f 515/515 516/516 517/517
v 0.880000 0.139200 0.500000
v 0.888485 0.139200 0.508485
v 0.880000 0.139200 0.512000
vt 0.000000 0.000000
vt 1.000000 0.000000
vt 1.000000 1.000000
f 518/518 519/519 520/520
v 0.880000 0.120000 0.512000
v 0.871515 0.120000 0.508485
v 0.871515 0.139200 0.508485
v 0.880000 0.139200 0.512000
vt 0.500000 0.000000
vt 0.625000 0.000000
vt 0.625000 1.000000
vt 0.500000 1.000000
f 521/521 522/522 523/523 524/524
v 0.880000 0.120000 0.500000
v 0.871515 0.120000 0.508485
v 0.880000 0.120000 0.512000
vt 0.000000 0.000000
vt 1.000000 0.000000
vt 1.000000 1.000000
f 525/525 526/526 527/527
v 0.880000 0.139200 0.500000
v 0.880000 0.139200 0.512000
v 0.871515 0.139200 0.508485
vt 0.000000 0.000000
vt 1.000000 0.000000
vt 1.000000 1.000000
f 528/528 529/529 530/530
v 0.871515 0.120000 0.508485
v 0.868000 0.120000 0.500000
v 0.868000 0.139200 0.500000
v 0.871515 0.139200 0.508485
vt 0.625000 0.000000
vt 0.750000 0.000000
vt 0.750000 1.000000
vt 0.625000 1.000000
f 531/531 532/532 533/533 534/534
v 0.880000 0.120000 0.500000
v 0.868000 0.120000 0.500000
v 0.871515 0.120000 0.508485
vt 0.000000 0.000000
vt 1.000000 0.000000
vt 1.000000 1.000000
f 535/535 536/536 537/537
v 0.880000 0.139200 0.500000
v 0.871515 0.139200 0.508485
v 0.868000 0.139200 0.500000
vt 0.000000 0.000000
vt 1.000000 0.000000
vt 1.000000 1.000000
f 538/538 539/539 540/540
v 0.868000 0.120000 0.500000
v 0.871515 0.120000 0.491515
v 0.871515 0.139200 0.491515
v 0.868000 0.139200 0.500000
vt 0.750000 0.000000
vt 0.875000 0.000000
vt 0.875000 1.000000
vt 0.750000 1.000000
f 541/541 542/542 543/543 544/544
v 0.880000 0.120000 0.500000
v 0.871515 0.120000 0.491515
v 0.868000 0.120000 0.500000
vt 0.000000 0.000000
vt 1.000000 0.000000
vt 1.000000 1.000000
f 545/545 546/546 547/547
v 0.880000 0.139200 0.500000
v 0.868000 0.139200 0.500000
v 0.871515 0.139200 0.491515
vt 0.000000 0.000000
vt 1.000000 0.000000
vt 1.000000 1.000000
f 548/548 549/549 550/550
v 0.871515 0.120000 0.491515
v 0.880000 0.120000 0.488000
v 0.880000 0.139200 0.488000
v 0.871515 0.139200 0.491515
vt 0.875000 0.000000
vt 1.000000 0.000000
vt 1.000000 1.000000
vt 0.875000 1.000000
f 551/551 552/552 553/553 554/554
v 0.880000 0.120000 0.500000
v 0.880000 0.120000 0.488000
v 0.871515 0.120000 0.491515
vt 0.000000 0.000000
vt 1.000000 0.000000
vt 1.000000 1.000000
f 555/555 556/556 557/557
v 0.880000 0.139200 0.500000
v 0.871515 0.139200 0.491515
v 0.880000 0.139200 0.488000
vt 0.000000 0.000000
vt 1.000000 0.000000
vt 1.000000 1.000000
f 558/558 559/559 560/560
v 0.768701 0.120000 0.756701
v 0.777186 0.120000 0.760215
v 0.777186 0.139200 0.760215
v 0.768701 0.139200 0.756701
vt 0.000000 0.000000
vt 0.125000 0.000000
vt 0.125000 1.000000
vt 0.000000 1.000000
f 561/561 562/562 563/563 564/564
v 0.768701 0.120000 0.768701
v 0.777186 0.120000 0.760215
v 0.768701 0.120000 0.756701
vt 0.000000 0.000000
vt 1.000000 0.000000
vt 1.000000 1.000000
f 565/565 566/566 567/567
v 0.768701 0.139200 0.768701
v 0.768701 0.139200 0.756701
v 0.777186 0.139200 0.760215
vt 0.000000 0.000000
vt 1.000000 0.000000
vt 1.000000 1.000000
f 568/568 569/569 570/570
v 0.777186 0.120000 0.760215
v 0.780701 0.120000 0.768701
v 0.780701 0.139200 0.768701
v 0.777186 0.139200 0.760215
vt 0.125000 0.000000
vt 0.250000 0.000000
vt 0.250000 1.000000
vt 0.125000 1.000000
f 571/571 572/572 573/573 574/574
v 0.768701 0.120000 0.768701
v 0.780701 0.120000 0.768701
v 0.777186 0.120000 0.760215
vt 0.000000 0.000000
vt 1.000000 0.000000
vt 1.000000 1.000000
f 575/575 576/576 577/577
v 0.768701 0.139200 0.768701
v 0.777186 0.139200 0.760215
v 0.780701 0.139200 0.768701
vt 0.000000 0.000000
vt 1.000000 0.000000
vt 1.000000 1.000000
f 578/578 579/579 580/580
v 0.780701 0.120000 0.768701
v 0.777186 0.120000 0.777186
v 0.777186 0.139200 0.777186
v 0.780701 0.139200 0.768701
vt 0.250000 0.000000
vt 0.375000 0.000000
vt 0.375000 1.000000
vt 0.250000 1.000000
f 581/581 582/582 583/583 584/584
v 0.768701 0.120000 0.768701
v 0.777186 0.120000 0.777186
v 0.780701 0.120000 0.768701
vt 0.000000 0.000000
vt 1.000000 0.000000
vt 1.000000 1.000000
f 585/585 586/586 587/587
v 0.768701 0.139200 0.768701
v 0.780701 0.139200 0.768701
v 0.777186 0.139200 0.777186
vt 0.000000 0.000000
vt 1.000000 0.000000
vt 1.000000 1.000000
f 588/588 589/589 590/590
v 0.777186 0.120000 0.777186
v 0.768701 0.120000 0.780701
v 0.768701 0.139200 0.780701
v 0.777186 0.139200 0.777186
vt 0.375000 0.000000
vt 0.500000 0.000000
vt 0.500000 1.000000
vt 0.375000 1.000000
f 591/591 592/592 593/593 594/594
v 0.768701 0.120000 0.768701
v 0.768701 0.120000 0.780701
v 0.777186 0.120000 0.777186
vt 0.000000 0.000000
vt 1.000000 0.000000
vt 1.000000 1.000000
f 595/595 596/596 597/597
v 0.768701 0.139200 0.768701
v 0.777186 0.139200 0.777186
v 0.768701 0.139200 0.780701
vt 0.000000 0.000000
vt 1.000000 0.000000
vt 1.000000 1.000000
f 598/598 599/599 600/600
v 0.768701 0.120000 0.780701
v 0.760215 0.120000 0.777186
v 0.760215 0.139200 0.777186
v 0.768701 0.139200 0.780701
vt 0.500000 0.000000
vt 0.625000 0.000000
vt 0.625000 1.000000
vt 0.500000 1.000000
f 601/601 602/602 603/603 604/604
v 0.768701 0.120000 0.768701
v 0.760215 0.120000 0.777186
v 0.768701 0.120000 0.780701
vt 0.000000 0.000000
vt 1.000000 0.000000
vt 1.000000 1.000000
f 605/605 606/606 607/607
v 0.768701 0.139200 0.768701
v 0.768701 0.139200 0.780701
v 0.760215 0.139200 0.777186
vt 0.000000 0.000000
vt 1.000000 0.000000
vt 1.000000 1.000000
f 608/608 609/609 610/610
v 0.760215 0.120000 0.777186
v 0.756701 0.120000 0.768701
v 0.756701 0.139200 0.768701
v 0.760215 0.139200 0.777186
vt 0.625000 0.000000
vt 0.750000 0.000000
vt 0.750000 1.000000
vt 0.625000 1.000000
f 611/611 612/612 613/613 614/614
v 0.768701 0.120000 0.768701
v 0.756701 0.120000 0.768701
v 0.760215 0.120000 0.777186
vt 0.000000 0.000000
vt 1.000000 0.000000
vt 1.000000 1.000000
f 615/615 616/616 617/617
v 0.768701 0.139200 0.768701
v 0.760215 0.139200 0.777186
v 0.756701 0.139200 0.768701
vt 0.000000 0.000000
vt 1.000000 0.000000
vt 1.000000 1.000000
f 618/618 619/619 620/620
v 0.756701 0.120000 0.768701
v 0.760215 0.120000 0.760215
v 0.760215 0.139200 0.760215
v 0.756701 0.139200 0.768701
vt 0.750000 0.000000
vt 0.875000 0.000000
vt 0.875000 1.000000
vt 0.750000 1.000000
f 621/621 622/622 623/623 624/624
v 0.768701 0.120000 0.768701
v 0.760215 0.120000 0.760215
v 0.756701 0.120000 0.768701
vt 0.000000 0.000000
vt 1.000000 0.000000
vt 1.000000 1.000000
f 625/625 626/626 627/627
v 0.768701 0.139200 0.768701
v 0.756701 0.139200 0.768701
v 0.760215 0.139200 0.760215
vt 0.000000 0.000000
vt 1.000000 0.000000
vt 1.000000 1.000000
f 628/628 629/629 630/630
v 0.760215 0.120000 0.760215
v 0.768701 0.120000 0.756701
v 0.768701 0.139200 0.756701
v 0.760215 0.139200 0.760215
vt 0.875000 0.000000
vt 1.000000 0.000000
vt 1.000000 1.000000
vt 0.875000 1.000000
f 631/631 632/632 633/633 634/634
v 0.768701 0.120000 0.768701
v 0.768701 0.120000 0.756701
v 0.760215 0.120000 0.760215
vt 0.000000 0.000000
vt 1.000000 0.000000
vt 1.000000 1.000000
f 635/635 636/636 637/637
v 0.768701 0.139200 0.768701
v 0.760215 0.139200 0.760215
v 0.768701 0.139200 0.756701
vt 0.000000 0.000000
vt 1.000000 0.000000
vt 1.000000 1.000000
f 638/638 639/639 640/640
v 0.500000 0.120000 0.868000
v 0.508485 0.120000 0.871515
v 0.508485 0.139200 0.871515
v 0.500000 0.139200 0.868000
vt 0.000000 0.000000
vt 0.125000 0.000000
vt 0.125000 1.000000
vt 0.000000 1.000000
f 641/641 642/642 643/643 644/644
v 0.500000 0.120000 0.880000
v 0.508485 0.120000 0.871515
v 0.500000 0.120000 0.868000
vt 0.000000 0.000000
vt 1.000000 0.000000
vt 1.000000 1.000000
f 645/645 646/646 647/647
v 0.500000 0.139200 0.880000
v 0.500000 0.139200 0.868000
v 0.508485 0.139200 0.871515
vt 0.000000 0.000000
vt 1.000000 0.000000
vt 1.000000 1.000000
f 648/648 649/649 650/650
v 0.508485 0.120000 0.871515
v 0.512000 0.120000 0.880000
v 0.512000 0.139200 0.880000
v 0.508485 0.139200 0.871515
vt 0.125000 0.000000
vt 0.250000 0.000000
vt 0.250000 1.000000
vt 0.125000 1.000000
f 651/651 652/652 653/653 654/654
v 0.500000 0.120000 0.880000
v 0.512000 0.120000 0.880000
v 0.508485 0.120000 0.871515
vt 0.000000 0.000000
vt 1.000000 0.000000
vt 1.000000 1.000000
f 655/655 656/656 657/657
v 0.500000 0.139200 0.880000
v 0.508485 0.139200 0.871515
v 0.512000 0.139200 0.880000
vt 0.000000 0.000000
vt 1.000000 0.000000
vt 1.000000 1.000000
f 658/658 659/659 660/660
v 0.512000 0.120000 0.880000
v 0.508485 0.120000 0.888485
v 0.508485 0.139200 0.888485
v 0.512000 0.139200 0.880000
vt 0.250000 0.000000
vt 0.375000 0.000000
vt 0.375000 1.000000
vt 0.250000 1.000000
f 661/661 662/662 663/663 664/664
v 0.500000 0.120000 0.880000
v 0.508485 0.120000 0.888485
v 0.512000 0.120000 0.880000
vt 0.000000 0.000000
vt 1.000000 0.000000
vt 1.000000 1.000000
f 665/665 666/666 667/667
v 0.500000 0.139200 0.880000
v 0.512000 0.139200 0.880000
v 0.508485 0.139200 0.888485
vt 0.000000 0.000000
vt 1.000000 0.000000
vt 1.000000 1.000000
f 668/668 669/669 670/670
v 0.508485 0.120000 0.888485
v 0.500000 0.120000 0.892000
v 0.500000 0.139200 0.892000
v 0.508485 0.139200 0.888485
vt 0.375000 0.000000
vt 0.500000 0.000000
vt 0.500000 1.000000
vt 0.375000 1.000000
f 671/671 672/672 673/673 674/674
v 0.500000 0.120000 0.880000
v 0.500000 0.120000 0.892000
v 0.508485 0.120000 0.888485
vt 0.000000 0.000000
vt 1.000000 0.000000
vt 1.000000 1.000000
f 675/675 676/676 677/677
v 0.500000 0.139200 0.880000
v 0.508485 0.139200 0.888485
v 0.500000 0.139200 0.892000
vt 0.000000 0.000000
vt 1.000000 0.000000
vt 1.000000 1.000000
f 678/678 679/679 680/680
v 0.500000 0.120000 0.892000
v 0.491515 0.120000 0.888485
v 0.491515 0.139200 0.888485
v 0.500000 0.139200 0.892000
vt 0.500000 0.000000
vt 0.625000 0.000000
vt 0.625000 1.000000
vt 0.500000 1.000000
f 681/681 682/682 683/683 684/684
v 0.500000 0.120000 0.880000
v 0.491515 0.120000 0.888485
v 0.500000 0.120000 0.892000
vt 0.000000 0.000000
vt 1.000000 0.000000
vt 1.000000 1.000000
f 685/685 686/686 687/687
v 0.500000 0.139200 0.880000
v 0.500000 0.139200 0.892000
v 0.491515 0.139200 0.888485
vt 0.000000 0.000000
vt 1.000000 0.000000
vt 1.000000 1.000000
f 688/688 689/689 690/690
v 0.491515 0.120000 0.888485
v 0.488000 0.120000 0.880000
v 0.488000 0.139200 0.880000
v 0.491515 0.139200 0.888485
vt 0.625000 0.000000
vt 0.750000 0.000000
vt 0.750000 1.000000
vt 0.625000 1.000000
f 691/691 692/692 693/693 694/694
v 0.500000 0.120000 0.880000
v 0.488000 0.120000 0.880000
v 0.491515 0.120000 0.888485
vt 0.000000 0.000000
vt 1.000000 0.000000
vt 1.000000 1.000000
f 695/695 696/696 697/697
v 0.500000 0.139200 0.880000
v 0.491515 0.139200 0.888485
v 0.488000 0.139200 0.880000
vt 0.000000 0.000000
vt 1.000000 0.000000
vt 1.000000 1.000000
f 698/698 699/699 700/700
v 0.488000 0.120000 0.880000
v 0.491515 0.120000 0.871515
v 0.491515 0.139200 0.871515
v 0.488000 0.139200 0.880000
vt 0.750000 0.000000
vt 0.875000 0.000000
vt 0.875000 1.000000
vt 0.750000 1.000000
f 701/701 702/702 703/703 704/704
v 0.500000 0.120000 0.880000
v 0.491515 0.120000 0.871515
v 0.488000 0.120000 0.880000
vt 0.000000 0.000000
vt 1.000000 0.000000
vt 1.000000 1.000000
f 705/705 706/706 707/707
v 0.500000 0.139200 0.880000
v 0.488000 0.139200 0.880000
v 0.491515 0.139200 0.871515
vt 0.000000 0.000000
vt 1.000000 0.000000
vt 1.000000 1.000000
f 708/708 709/709 710/710
v 0.491515 0.120000 0.871515
v 0.500000 0.120000 0.868000
v 0.500000 0.139200 0.868000
v 0.491515 0.139200 0.871515
vt 0.875000 0.000000
vt 1.000000 0.000000
vt 1.000000 1.000000
vt 0.875000 1.000000
f 711/711 712/712 713/713 714/714
v 0.500000 0.120000 0.880000
v 0.500000 0.120000 0.868000
v 0.491515 0.120000 0.871515
vt 0.000000 0.000000
vt 1.000000 0.000000
vt 1.000000 1.000000
f 715/715 716/716 717/717
v 0.500000 0.139200 0.880000
v 0.491515 0.139200 0.871515
v 0.500000 0.139200 0.868000
vt 0.000000 0.000000
vt 1.000000 0.000000
vt 1.000000 1.000000
f 718/718 719/719 720/720
v 0.231299 0.120000 0.756701
v 0.239785 0.120000 0.760215
v 0.239785 0.139200 0.760215
v 0.231299 0.139200 0.756701
vt 0.000000 0.000000
vt 0.125000 0.000000
vt 0.125000 1.000000
vt 0.000000 1.000000
f 721/721 722/722 723/723 724/724
v 0.231299 0.120000 0.768701
v 0.239785 0.120000 0.760215
v 0.231299 0.120000 0.756701
vt 0.000000 0.000000
vt 1.000000 0.000000
vt 1.000000 1.000000
f 725/725 726/726 727/727
v 0.231299 0.139200 0.768701
v 0.231299 0.139200 0.756701
v 0.239785 0.139200 0.760215
vt 0.000000 0.000000
vt 1.000000 0.000000
vt 1.000000 1.000000
f 728/728 729/729 730/730
v 0.239785 0.120000 0.760215
v 0.243299 0.120000 0.768701
v 0.243299 0.139200 0.768701
v 0.239785 0.139200 0.760215
vt 0.125000 0.000000
vt 0.250000 0.000000
vt 0.250000 1.000000
vt 0.125000 1.000000
f 731/731 732/732 733/733 734/734
v 0.231299 0.120000 0.768701
v 0.243299 0.120000 0.768701
v 0.239785 0.120000 0.760215
vt 0.000000 0.000000
vt 1.000000 0.000000
vt 1.000000 1.000000
f 735/735 736/736 737/737
v 0.231299 0.139200 0.768701
v 0.239785 0.139200 0.760215
v 0.243299 0.139200 0.768701
vt 0.000000 0.000000
vt 1.000000 0.000000
vt 1.000000 1.000000
f 738/738 739/739 740/740
v 0.243299 0.120000 0.768701
v 0.239785 0.120000 0.777186
v 0.239785 0.139200 0.777186
v 0.243299 0.139200 0.768701
vt 0.250000 0.000000
vt 0.375000 0.000000
vt 0.375000 1.000000
vt 0.250000 1.000000
f 741/741 742/742 743/743 744/744
v 0.231299 0.120000 0.768701
v 0.239785 0.120000 0.777186
v 0.243299 0.120000 0.768701
vt 0.000000 0.000000
vt 1.000000 0.000000
vt 1.000000 1.000000
f 745/745 746/746 747/747
v 0.231299 0.139200 0.768701
v 0.243299 0.139200 0.768701
v 0.239785 0.139200 0.777186
vt 0.000000 0.000000
vt 1.000000 0.000000
vt 1.000000 1.000000
f 748/748 749/749 750/750
v 0.239785 0.120000 0.777186
v 0.231299 0.120000 0.780701
v 0.231299 0.139200 0.780701
v 0.239785 0.139200 0.777186
vt 0.375000 0.000000
vt 0.500000 0.000000
vt 0.500000 1.000000
vt 0.375000 1.000000
f 751/751 752/752 753/753 754/754
v 0.231299 0.120000 0.768701
v 0.231299 0.120000 0.780701
v 0.239785 0.120000 0.777186
vt 0.000000 0.000000
vt 1.000000 0.000000
vt 1.000000 1.000000
f 755/755 756/756 757/757
v 0.231299 0.139200 0.768701
v 0.239785 0.139200 0.777186
v 0.231299 0.139200 0.780701
vt 0.000000 0.000000
vt 1.000000 0.000000
vt 1.000000 1.000000
f 758/758 759/759 760/760
v 0.231299 0.120000 0.780701
v 0.222814 0.120000 0.777186
v 0.222814 0.139200 0.777186
v 0.231299 0.139200 0.780701
vt 0.500000 0.000000
vt 0.625000 0.000000
vt 0.625000 1.000000
vt 0.500000 1.000000
f 761/761 762/762 763/763 764/764
v 0.231299 0.120000 0.768701
v 0.222814 0.120000 0.777186
v 0.231299 0.120000 0.780701
vt 0.000000 0.000000
vt 1.000000 0.000000
vt 1.000000 1.000000
f 765/765 766/766 767/767
v 0.231299 0.139200 0.768701
v 0.231299 0.139200 0.780701
v 0.222814 0.139200 0.777186
vt 0.000000 0.000000
vt 1.000000 0.000000
vt 1.000000 1.000000
f 768/768 769/769 770/770
v 0.222814 0.120000 0.777186
v 0.219299 0.120000 0.768701
v 0.219299 0.139200 0.768701
v 0.222814 0.139200 0.777186
vt 0.625000 0.000000
vt 0.750000 0.000000
vt 0.750000 1.000000
vt 0.625000 1.000000
f 771/771 772/772 773/773 774/774
v 0.231299 0.120000 0.768701
v 0.219299 0.120000 0.768701
v 0.222814 0.120000 0.777186
vt 0.000000 0.000000
vt 1.000000 0.000000
vt 1.000000 1.000000
f 775/775 776/776 777/777
v 0.231299 0.139200 0.768701
v 0.222814 0.139200 0.777186
v 0.219299 0.139200 0.768701
vt 0.000000 0.000000
vt 1.000000 0.000000
vt 1.000000 1.000000
f 778/778 779/779 780/780
v 0.219299 0.120000 0.768701
v 0.222814 0.120000 0.760215
v 0.222814 0.139200 0.760215
v 0.219299 0.139200 0.768701
vt 0.750000 0.000000
vt 0.875000 0.000000
vt 0.875000 1.000000
vt 0.750000 1.000000
f 781/781 782/782 783/783 784/784
v 0.231299 0.120000 0.768701
v 0.222814 0.120000 0.760215
v 0.219299 0.120000 0.768701
vt 0.000000 0.000000
vt 1.000000 0.000000
vt 1.000000 1.000000
f 785/785 786/786 787/787
v 0.231299 0.139200 0.768701
v 0.219299 0.139200 0.768701
v 0.222814 0.139200 0.760215
vt 0.000000 0.000000
vt 1.000000 0.000000
vt 1.000000 1.000000
f 788/788 789/789 790/790
v 0.222814 0.120000 0.760215
v 0.231299 0.120000 0.756701
v 0.231299 0.139200 0.756701
v 0.222814 0.139200 0.760215
vt 0.875000 0.000000
vt 1.000000 0.000000
vt 1.000000 1.000000
vt 0.875000 1.000000
f 791/791 792/792 793/793 794/794
v 0.231299 0.120000 0.768701
v 0.231299 0.120000 0.756701
v 0.222814 0.120000 0.760215
vt 0.000000 0.000000
vt 1.000000 0.000000
vt 1.000000 1.000000
f 795/795 796/796 797/797
v 0.231299 0.139200 0.768701
v 0.222814 0.139200 0.760215
v 0.231299 0.139200 0.756701
vt 0.000000 0.000000
vt 1.000000 0.000000
vt 1.000000 1.000000
f 798/798 799/799 800/800
v 0.120000 0.120000 0.488000
v 0.128485 0.120000 0.491515
v 0.128485 0.139200 0.491515
v 0.120000 0.139200 0.488000
vt 0.000000 0.000000
vt 0.125000 0.000000
vt 0.125000 1.000000
vt 0.000000 1.000000
f 801/801 802/802 803/803 804/804
v 0.120000 0.120000 0.500000
v 0.128485 0.120000 0.491515
v 0.120000 0.120000 0.488000
vt 0.000000 0.000000
vt 1.000000 0.000000
vt 1.000000 1.000000
f 805/805 806/806 807/807
v 0.120000 0.139200 0.500000
v 0.120000 0.139200 0.488000
v 0.128485 0.139200 0.491515
vt 0.000000 0.000000
vt 1.000000 0.000000
vt 1.000000 1.000000
f 808/808 809/809 810/810
v 0.128485 0.120000 0.491515
v 0.132000 0.120000 0.500000
v 0.132000 0.139200 0.500000
v 0.128485 0.139200 0.491515
vt 0.125000 0.000000
vt 0.250000 0.000000
vt 0.250000 1.000000
vt 0.125000 1.000000
f 811/811 812/812 813/813 814/814
v 0.120000 0.120000 0.500000
v 0.132000 0.120000 0.500000
v 0.128485 0.120000 0.491515
vt 0.000000 0.000000
vt 1.000000 0.000000
vt 1.000000 1.000000
f 815/815 816/816 817/817
v 0.120000 0.139200 0.500000
v 0.128485 0.139200 0.491515
v 0.132000 0.139200 0.500000
vt 0.000000 0.000000
vt 1.000000 0.000000
vt 1.000000 1.000000
f 818/818 819/819 820/820
v 0.132000 0.120000 0.500000
v 0.128485 0.120000 0.508485
v 0.128485 0.139200 0.508485
v 0.132000 0.139200 0.500000
vt 0.250000 0.000000
vt 0.375000 0.000000
vt 0.375000 1.000000
vt 0.250000 1.000000
f 821/821 822/822 823/823 824/824
v 0.120000 0.120000 0.500000
v 0.128485 0.120000 0.508485
v 0.132000 0.120000 0.500000
vt 0.000000 0.000000
vt 1.000000 0.000000
vt 1.000000 1.000000
f 825/825 826/826 827/827
v 0.120000 0.139200 0.500000
v 0.132000 0.139200 0.500000
v 0.128485 0.139200 0.508485
vt 0.000000 0.000000
vt 1.000000 0.000000
vt 1.000000 1.000000
f 828/828 829/829 830/830
v 0.128485 0.120000 0.508485
v 0.120000 0.120000 0.512000
v 0.120000 0.139200 0.512000
v 0.128485 0.139200 0.508485
vt 0.375000 0.000000
vt 0.500000 0.000000
vt 0.500000 1.000000
vt 0.375000 1.000000
f 831/831 832/832 833/833 834/834
v 0.120000 0.120000 0.500000
v 0.120000 0.120000 0.512000
v 0.128485 0.120000 0.508485
vt 0.000000 0.000000
vt 1.000000 0.000000
vt 1.000000 1.000000
f 835/835 836/836 837/837
v 0.120000 0.139200 0.500000
v 0.128485 0.139200 0.508485
v 0.120000 0.139200 0.512000
vt 0.000000 0.000000
vt 1.000000 0.000000
vt 1.000000 1.000000
f 838/838 839/839 840/840
v 0.120000 0.120000 0.512000
v 0.111515 0.120000 0.508485
v 0.111515 0.139200 0.508485
v 0.120000 0.139200 0.512000
vt 0.500000 0.000000
vt 0.625000 0.000000
vt 0.625000 1.000000
vt 0.500000 1.000000
f 841/841 842/842 843/843 844/844
v 0.120000 0.120000 0.500000
v 0.111515 0.120000 0.508485
v 0.120000 0.120000 0.512000
vt 0.000000 0.000000
vt 1.000000 0.000000
vt 1.000000 1.000000
f 845/845 846/846 847/847
v 0.120000 0.139200 0.500000
v 0.120000 0.139200 0.512000
v 0.111515 0.139200 0.508485
vt 0.000000 0.000000
vt 1.000000 0.000000
vt 1.000000 1.000000
f 848/848 849/849 850/850
v 0.111515 0.120000 0.508485
v 0.108000 0.120000 0.500000
v 0.108000 0.139200 0.500000
v 0.111515 0.139200 0.508485
vt 0.625000 0.000000
vt 0.750000 0.000000
vt 0.750000 1.000000
vt 0.625000 1.000000
f 851/851 852/852 853/853 854/854
v 0.120000 0.120000 0.500000
v 0.108000 0.120000 0.500000
v 0.111515 0.120000 0.508485
vt 0.000000 0.000000
vt 1.000000 0.000000
vt 1.000000 1.000000
f 855/855 856/856 857/857
v 0.120000 0.139200 0.500000
v 0.111515 0.139200 0.508485
v 0.108000 0.139200 0.500000
vt 0.000000 0.000000
vt 1.000000 0.000000
vt 1.000000 1.000000
f 858/858 859/859 860/860
v 0.108000 0.120000 0.500000
v 0.111515 0.120000 0.491515
v 0.111515 0.139200 0.491515
v 0.108000 0.139200 0.500000
vt 0.750000 0.000000
vt 0.875000 0.000000
vt 0.875000 1.000000
vt 0.750000 1.000000
f 861/861 862/862 863/863 864/864
v 0.120000 0.120000 0.500000
v 0.111515 0.120000 0.491515
v 0.108000 0.120000 0.500000
vt 0.000000 0.000000
vt 1.000000 0.000000
vt 1.000000 1.000000
f 865/865 866/866 867/867
v 0.120000 0.139200 0.500000
v 0.108000 0.139200 0.500000
v 0.111515 0.139200 0.491515
vt 0.000000 0.000000
vt 1.000000 0.000000
vt 1.000000 1.000000
f 868/868 869/869 870/870
v 0.111515 0.120000 0.491515
v 0.120000 0.120000 0.488000
v 0.120000 0.139200 0.488000
v 0.111515 0.139200 0.491515
vt 0.875000 0.000000
vt 1.000000 0.000000
vt 1.000000 1.000000
vt 0.875000 1.000000
f 871/871 872/872 873/873 874/874
v 0.120000 0.120000 0.500000
v 0.120000 0.120000 0.488000
v 0.111515 0.120000 0.491515
vt 0.000000 0.000000
vt 1.000000 0.000000
vt 1.000000 1.000000
f 875/875 876/876 877/877
v 0.120000 0.139200 0.500000
v 0.111515 0.139200 0.491515
v 0.120000 0.139200 0.488000
vt 0.000000 0.000000
vt 1.000000 0.000000
vt 1.000000 1.000000
f 878/878 879/879 880/880
v 0.231299 0.120000 0.219299
v 0.239785 0.120000 0.222814
v 0.239785 0.139200 0.222814
v 0.231299 0.139200 0.219299
vt 0.000000 0.000000
vt 0.125000 0.000000
vt 0.125000 1.000000
vt 0.000000 1.000000
f 881/881 882/882 883/883 884/884
v 0.231299 0.120000 0.231299
v 0.239785 0.120000 0.222814
v 0.231299 0.120000 0.219299
vt 0.000000 0.000000
vt 1.000000 0.000000
vt 1.000000 1.000000
f 885/885 886/886 887/887
v 0.231299 0.139200 0.231299
v 0.231299 0.139200 0.219299
v 0.239785 0.139200 0.222814
vt 0.000000 0.000000
vt 1.000000 0.000000
vt 1.000000 1.000000
f 888/888 889/889 890/890
v 0.239785 0.120000 0.222814
v 0.243299 0.120000 0.231299
v 0.243299 0.139200 0.231299
v 0.239785 0.139200 0.222814
vt 0.125000 0.000000
vt 0.250000 0.000000
vt 0.250000 1.000000
vt 0.125000 1.000000
f 891/891 892/892 893/893 894/894
v 0.231299 0.120000 0.231299
v 0.243299 0.120000 0.231299
v 0.239785 0.120000 0.222814
vt 0.000000 0.000000
vt 1.000000 0.000000
vt 1.000000 1.000000
f 895/895 896/896 897/897
v 0.231299 0.139200 0.231299
v 0.239785 0.139200 0.222814
v 0.243299 0.139200 0.231299
vt 0.000000 0.000000
vt 1.000000 0.000000
vt 1.000000 1.000000
f 898/898 899/899 900/900
v 0.243299 0.120000 0.231299
v 0.239785 0.120000 0.239785
v 0.239785 0.139200 0.239785
v 0.243299 0.139200 0.231299
vt 0.250000 0.000000
vt 0.375000 0.000000
vt 0.375000 1.000000
vt 0.250000 1.000000
f 901/901 902/902 903/903 904/904
v 0.231299 0.120000 0.231299
v 0.239785 0.120000 0.239785
v 0.243299 0.120000 0.231299
vt 0.000000 0.000000
vt 1.000000 0.000000
vt 1.000000 1.000000
f 905/905 906/906 907/907
v 0.231299 0.139200 0.231299
v 0.243299 0.139200 0.231299
v 0.239785 0.139200 0.239785
vt 0.000000 0.000000
vt 1.000000 0.000000
vt 1.000000 1.000000
f 908/908 909/909 910/910
v 0.239785 0.120000 0.239785
v 0.231299 0.120000 0.243299
v 0.231299 0.139200 0.243299
v 0.239785 0.139200 0.239785
vt 0.375000 0.000000
vt 0.500000 0.000000
vt 0.500000 1.000000
vt 0.375000 1.000000
f 911/911 912/912 913/913 914/914
v 0.231299 0.120000 0.231299
v 0.231299 0.120000 0.243299
v 0.239785 0.120000 0.239785
vt 0.000000 0.000000
vt 1.000000 0.000000
vt 1.000000 1.000000
f 915/915 916/916 917/917
v 0.231299 0.139200 0.231299
v 0.239785 0.139200 0.239785
v 0.231299 0.139200 0.243299
vt 0.000000 0.000000
vt 1.000000 0.000000
vt 1.000000 1.000000
f 918/918 919/919 920/920
v 0.231299 0.120000 0.243299
v 0.222814 0.120000 0.239785
v 0.222814 0.139200 0.239785
v 0.231299 0.139200 0.243299
vt 0.500000 0.000000
vt 0.625000 0.000000
vt 0.625000 1.000000
vt 0.500000 1.000000
f 921/921 922/922 923/923 924/924
v 0.231299 0.120000 0.231299
v 0.222814 0.120000 0.239785
v 0.231299 0.120000 0.243299
vt 0.000000 0.000000
vt 1.000000 0.000000
vt 1.000000 1.000000
f 925/925 926/926 927/927
v 0.231299 0.139200 0.231299
v 0.231299 0.139200 0.243299
v 0.222814 0.139200 0.239785
vt 0.000000 0.000000
vt 1.000000 0.000000
vt 1.000000 1.000000
f 928/928 929/929 930/930
v 0.222814 0.120000 0.239785
v 0.219299 0.120000 0.231299
v 0.219299 0.139200 0.231299
v 0.222814 0.139200 0.239785
vt 0.625000 0.000000
vt 0.750000 0.000000
vt 0.750000 1.000000
vt 0.625000 1.000000
f 931/931 932/932 933/933 934/934
v 0.231299 0.120000 0.231299
v 0.219299 0.120000 0.231299
v 0.222814 0.120000 0.239785
vt 0.000000 0.000000
vt 1.000000 0.000000
vt 1.000000 1.000000
f 935/935 936/936 937/937
v 0.231299 0.139200 0.231299
v 0.222814 0.139200 0.239785
v 0.219299 0.139200 0.231299
vt 0.000000 0.000000
vt 1.000000 0.000000
vt 1.000000 1.000000
f 938/938 939/939 940/940
v 0.219299 0.120000 0.231299
v 0.222814 0.120000 0.222814
v 0.222814 0.139200 0.222814
v 0.219299 0.139200 0.231299
vt 0.750000 0.000000
vt 0.875000 0.000000
vt 0.875000 1.000000
vt 0.750000 1.000000
f 941/941 942/942 943/943 944/944
v 0.231299 0.120000 0.231299
v 0.222814 0.120000 0.222814
v 0.219299 0.120000 0.231299
vt 0.000000 0.000000
vt 1.000000 0.000000
vt 1.000000 1.000000
f 945/945 946/946 947/947
v 0.231299 0.139200 0.231299
v 0.219299 0.139200 0.231299
v 0.222814 0.139200 0.222814
vt 0.000000 0.000000
vt 1.000000 0.000000
vt 1.000000 1.000000
f 948/948 949/949 950/950
v 0.222814 0.120000 0.222814
v 0.231299 0.120000 0.219299
v 0.231299 0.139200 0.219299
v 0.222814 0.139200 0.222814
vt 0.875000 0.000000
vt 1.000000 0.000000
vt 1.000000 1.000000
vt 0.875000 1.000000
f 951/951 952/952 953/953 954/954
v 0.231299 0.120000 0.231299
v 0.231299 0.120000 0.219299
v 0.222814 0.120000 0.222814
vt 0.000000 0.000000
vt 1.000000 0.000000
vt 1.000000 1.000000
f 955/955 956/956 957/957
v 0.231299 0.139200 0.231299
v 0.222814 0.139200 0.222814
v 0.231299 0.139200 0.219299
vt 0.000000 0.000000
vt 1.000000 0.000000
vt 1.000000 1.000000
f 958/958 959/959 960/960
