mtllib nuclear_warning_siren.mtl
o nuclear_warning_siren
s 1
usemtl concrete
v 0.220000 0.000000 0.220000
v 0.780000 0.000000 0.220000
v 0.780000 0.160000 0.220000
v 0.220000 0.160000 0.220000
vt 0.000000 0.000000
vt 1.000000 0.000000
vt 1.000000 1.000000
vt 0.000000 1.000000
f 1/1 2/2 3/3 4/4
v 0.780000 0.000000 0.780000
v 0.220000 0.000000 0.780000
v 0.220000 0.160000 0.780000
v 0.780000 0.160000 0.780000
vt 0.000000 0.000000
vt 1.000000 0.000000
vt 1.000000 1.000000
vt 0.000000 1.000000
f 5/5 6/6 7/7 8/8
v 0.220000 0.000000 0.780000
v 0.220000 0.000000 0.220000
v 0.220000 0.160000 0.220000
v 0.220000 0.160000 0.780000
vt 0.000000 0.000000
vt 1.000000 0.000000
vt 1.000000 1.000000
vt 0.000000 1.000000
f 9/9 10/10 11/11 12/12
v 0.780000 0.000000 0.220000
v 0.780000 0.000000 0.780000
v 0.780000 0.160000 0.780000
v 0.780000 0.160000 0.220000
vt 0.000000 0.000000
vt 1.000000 0.000000
vt 1.000000 1.000000
vt 0.000000 1.000000
f 13/13 14/14 15/15 16/16
v 0.220000 0.160000 0.220000
v 0.780000 0.160000 0.220000
v 0.780000 0.160000 0.780000
v 0.220000 0.160000 0.780000
vt 0.000000 0.000000
vt 1.000000 0.000000
vt 1.000000 1.000000
vt 0.000000 1.000000
f 17/17 18/18 19/19 20/20
v 0.220000 0.000000 0.780000
v 0.780000 0.000000 0.780000
v 0.780000 0.000000 0.220000
v 0.220000 0.000000 0.220000
vt 0.000000 0.000000
vt 1.000000 0.000000
vt 1.000000 1.000000
vt 0.000000 1.000000
f 21/21 22/22 23/23 24/24
usemtl yellow
v 0.500000 0.140000 0.430000
v 0.526788 0.140000 0.435328
v 0.526788 2.350000 0.435328
v 0.500000 2.350000 0.430000
vt 0.000000 0.000000
vt 0.062500 0.000000
vt 0.062500 1.000000
vt 0.000000 1.000000
f 25/25 26/26 27/27 28/28
v 0.500000 0.140000 0.500000
v 0.526788 0.140000 0.435328
v 0.500000 0.140000 0.430000
vt 0.000000 0.000000
vt 1.000000 0.000000
vt 1.000000 1.000000
f 29/29 30/30 31/31
v 0.500000 2.350000 0.500000
v 0.500000 2.350000 0.430000
v 0.526788 2.350000 0.435328
vt 0.000000 0.000000
vt 1.000000 0.000000
vt 1.000000 1.000000
f 32/32 33/33 34/34
v 0.526788 0.140000 0.435328
v 0.549497 0.140000 0.450503
v 0.549497 2.350000 0.450503
v 0.526788 2.350000 0.435328
vt 0.062500 0.000000
vt 0.125000 0.000000
vt 0.125000 1.000000
vt 0.062500 1.000000
f 35/35 36/36 37/37 38/38
v 0.500000 0.140000 0.500000
v 0.549497 0.140000 0.450503
v 0.526788 0.140000 0.435328
vt 0.000000 0.000000
vt 1.000000 0.000000
vt 1.000000 1.000000
f 39/39 40/40 41/41
v 0.500000 2.350000 0.500000
v 0.526788 2.350000 0.435328
v 0.549497 2.350000 0.450503
vt 0.000000 0.000000
vt 1.000000 0.000000
vt 1.000000 1.000000
f 42/42 43/43 44/44
v 0.549497 0.140000 0.450503
v 0.564672 0.140000 0.473212
v 0.564672 2.350000 0.473212
v 0.549497 2.350000 0.450503
vt 0.125000 0.000000
vt 0.187500 0.000000
vt 0.187500 1.000000
vt 0.125000 1.000000
f 45/45 46/46 47/47 48/48
v 0.500000 0.140000 0.500000
v 0.564672 0.140000 0.473212
v 0.549497 0.140000 0.450503
vt 0.000000 0.000000
vt 1.000000 0.000000
vt 1.000000 1.000000
f 49/49 50/50 51/51
v 0.500000 2.350000 0.500000
v 0.549497 2.350000 0.450503
v 0.564672 2.350000 0.473212
vt 0.000000 0.000000
vt 1.000000 0.000000
vt 1.000000 1.000000
f 52/52 53/53 54/54
v 0.564672 0.140000 0.473212
v 0.570000 0.140000 0.500000
v 0.570000 2.350000 0.500000
v 0.564672 2.350000 0.473212
vt 0.187500 0.000000
vt 0.250000 0.000000
vt 0.250000 1.000000
vt 0.187500 1.000000
f 55/55 56/56 57/57 58/58
v 0.500000 0.140000 0.500000
v 0.570000 0.140000 0.500000
v 0.564672 0.140000 0.473212
vt 0.000000 0.000000
vt 1.000000 0.000000
vt 1.000000 1.000000
f 59/59 60/60 61/61
v 0.500000 2.350000 0.500000
v 0.564672 2.350000 0.473212
v 0.570000 2.350000 0.500000
vt 0.000000 0.000000
vt 1.000000 0.000000
vt 1.000000 1.000000
f 62/62 63/63 64/64
v 0.570000 0.140000 0.500000
v 0.564672 0.140000 0.526788
v 0.564672 2.350000 0.526788
v 0.570000 2.350000 0.500000
vt 0.250000 0.000000
vt 0.312500 0.000000
vt 0.312500 1.000000
vt 0.250000 1.000000
f 65/65 66/66 67/67 68/68
v 0.500000 0.140000 0.500000
v 0.564672 0.140000 0.526788
v 0.570000 0.140000 0.500000
vt 0.000000 0.000000
vt 1.000000 0.000000
vt 1.000000 1.000000
f 69/69 70/70 71/71
v 0.500000 2.350000 0.500000
v 0.570000 2.350000 0.500000
v 0.564672 2.350000 0.526788
vt 0.000000 0.000000
vt 1.000000 0.000000
vt 1.000000 1.000000
f 72/72 73/73 74/74
v 0.564672 0.140000 0.526788
v 0.549497 0.140000 0.549497
v 0.549497 2.350000 0.549497
v 0.564672 2.350000 0.526788
vt 0.312500 0.000000
vt 0.375000 0.000000
vt 0.375000 1.000000
vt 0.312500 1.000000
f 75/75 76/76 77/77 78/78
v 0.500000 0.140000 0.500000
v 0.549497 0.140000 0.549497
v 0.564672 0.140000 0.526788
vt 0.000000 0.000000
vt 1.000000 0.000000
vt 1.000000 1.000000
f 79/79 80/80 81/81
v 0.500000 2.350000 0.500000
v 0.564672 2.350000 0.526788
v 0.549497 2.350000 0.549497
vt 0.000000 0.000000
vt 1.000000 0.000000
vt 1.000000 1.000000
f 82/82 83/83 84/84
v 0.549497 0.140000 0.549497
v 0.526788 0.140000 0.564672
v 0.526788 2.350000 0.564672
v 0.549497 2.350000 0.549497
vt 0.375000 0.000000
vt 0.437500 0.000000
vt 0.437500 1.000000
vt 0.375000 1.000000
f 85/85 86/86 87/87 88/88
v 0.500000 0.140000 0.500000
v 0.526788 0.140000 0.564672
v 0.549497 0.140000 0.549497
vt 0.000000 0.000000
vt 1.000000 0.000000
vt 1.000000 1.000000
f 89/89 90/90 91/91
v 0.500000 2.350000 0.500000
v 0.549497 2.350000 0.549497
v 0.526788 2.350000 0.564672
vt 0.000000 0.000000
vt 1.000000 0.000000
vt 1.000000 1.000000
f 92/92 93/93 94/94
v 0.526788 0.140000 0.564672
v 0.500000 0.140000 0.570000
v 0.500000 2.350000 0.570000
v 0.526788 2.350000 0.564672
vt 0.437500 0.000000
vt 0.500000 0.000000
vt 0.500000 1.000000
vt 0.437500 1.000000
f 95/95 96/96 97/97 98/98
v 0.500000 0.140000 0.500000
v 0.500000 0.140000 0.570000
v 0.526788 0.140000 0.564672
vt 0.000000 0.000000
vt 1.000000 0.000000
vt 1.000000 1.000000
f 99/99 100/100 101/101
v 0.500000 2.350000 0.500000
v 0.526788 2.350000 0.564672
v 0.500000 2.350000 0.570000
vt 0.000000 0.000000
vt 1.000000 0.000000
vt 1.000000 1.000000
f 102/102 103/103 104/104
v 0.500000 0.140000 0.570000
v 0.473212 0.140000 0.564672
v 0.473212 2.350000 0.564672
v 0.500000 2.350000 0.570000
vt 0.500000 0.000000
vt 0.562500 0.000000
vt 0.562500 1.000000
vt 0.500000 1.000000
f 105/105 106/106 107/107 108/108
v 0.500000 0.140000 0.500000
v 0.473212 0.140000 0.564672
v 0.500000 0.140000 0.570000
vt 0.000000 0.000000
vt 1.000000 0.000000
vt 1.000000 1.000000
f 109/109 110/110 111/111
v 0.500000 2.350000 0.500000
v 0.500000 2.350000 0.570000
v 0.473212 2.350000 0.564672
vt 0.000000 0.000000
vt 1.000000 0.000000
vt 1.000000 1.000000
f 112/112 113/113 114/114
v 0.473212 0.140000 0.564672
v 0.450503 0.140000 0.549497
v 0.450503 2.350000 0.549497
v 0.473212 2.350000 0.564672
vt 0.562500 0.000000
vt 0.625000 0.000000
vt 0.625000 1.000000
vt 0.562500 1.000000
f 115/115 116/116 117/117 118/118
v 0.500000 0.140000 0.500000
v 0.450503 0.140000 0.549497
v 0.473212 0.140000 0.564672
vt 0.000000 0.000000
vt 1.000000 0.000000
vt 1.000000 1.000000
f 119/119 120/120 121/121
v 0.500000 2.350000 0.500000
v 0.473212 2.350000 0.564672
v 0.450503 2.350000 0.549497
vt 0.000000 0.000000
vt 1.000000 0.000000
vt 1.000000 1.000000
f 122/122 123/123 124/124
v 0.450503 0.140000 0.549497
v 0.435328 0.140000 0.526788
v 0.435328 2.350000 0.526788
v 0.450503 2.350000 0.549497
vt 0.625000 0.000000
vt 0.687500 0.000000
vt 0.687500 1.000000
vt 0.625000 1.000000
f 125/125 126/126 127/127 128/128
v 0.500000 0.140000 0.500000
v 0.435328 0.140000 0.526788
v 0.450503 0.140000 0.549497
vt 0.000000 0.000000
vt 1.000000 0.000000
vt 1.000000 1.000000
f 129/129 130/130 131/131
v 0.500000 2.350000 0.500000
v 0.450503 2.350000 0.549497
v 0.435328 2.350000 0.526788
vt 0.000000 0.000000
vt 1.000000 0.000000
vt 1.000000 1.000000
f 132/132 133/133 134/134
v 0.435328 0.140000 0.526788
v 0.430000 0.140000 0.500000
v 0.430000 2.350000 0.500000
v 0.435328 2.350000 0.526788
vt 0.687500 0.000000
vt 0.750000 0.000000
vt 0.750000 1.000000
vt 0.687500 1.000000
f 135/135 136/136 137/137 138/138
v 0.500000 0.140000 0.500000
v 0.430000 0.140000 0.500000
v 0.435328 0.140000 0.526788
vt 0.000000 0.000000
vt 1.000000 0.000000
vt 1.000000 1.000000
f 139/139 140/140 141/141
v 0.500000 2.350000 0.500000
v 0.435328 2.350000 0.526788
v 0.430000 2.350000 0.500000
vt 0.000000 0.000000
vt 1.000000 0.000000
vt 1.000000 1.000000
f 142/142 143/143 144/144
v 0.430000 0.140000 0.500000
v 0.435328 0.140000 0.473212
v 0.435328 2.350000 0.473212
v 0.430000 2.350000 0.500000
vt 0.750000 0.000000
vt 0.812500 0.000000
vt 0.812500 1.000000
vt 0.750000 1.000000
f 145/145 146/146 147/147 148/148
v 0.500000 0.140000 0.500000
v 0.435328 0.140000 0.473212
v 0.430000 0.140000 0.500000
vt 0.000000 0.000000
vt 1.000000 0.000000
vt 1.000000 1.000000
f 149/149 150/150 151/151
v 0.500000 2.350000 0.500000
v 0.430000 2.350000 0.500000
v 0.435328 2.350000 0.473212
vt 0.000000 0.000000
vt 1.000000 0.000000
vt 1.000000 1.000000
f 152/152 153/153 154/154
v 0.435328 0.140000 0.473212
v 0.450503 0.140000 0.450503
v 0.450503 2.350000 0.450503
v 0.435328 2.350000 0.473212
vt 0.812500 0.000000
vt 0.875000 0.000000
vt 0.875000 1.000000
vt 0.812500 1.000000
f 155/155 156/156 157/157 158/158
v 0.500000 0.140000 0.500000
v 0.450503 0.140000 0.450503
v 0.435328 0.140000 0.473212
vt 0.000000 0.000000
vt 1.000000 0.000000
vt 1.000000 1.000000
f 159/159 160/160 161/161
v 0.500000 2.350000 0.500000
v 0.435328 2.350000 0.473212
v 0.450503 2.350000 0.450503
vt 0.000000 0.000000
vt 1.000000 0.000000
vt 1.000000 1.000000
f 162/162 163/163 164/164
v 0.450503 0.140000 0.450503
v 0.473212 0.140000 0.435328
v 0.473212 2.350000 0.435328
v 0.450503 2.350000 0.450503
vt 0.875000 0.000000
vt 0.937500 0.000000
vt 0.937500 1.000000
vt 0.875000 1.000000
f 165/165 166/166 167/167 168/168
v 0.500000 0.140000 0.500000
v 0.473212 0.140000 0.435328
v 0.450503 0.140000 0.450503
vt 0.000000 0.000000
vt 1.000000 0.000000
vt 1.000000 1.000000
f 169/169 170/170 171/171
v 0.500000 2.350000 0.500000
v 0.450503 2.350000 0.450503
v 0.473212 2.350000 0.435328
vt 0.000000 0.000000
vt 1.000000 0.000000
vt 1.000000 1.000000
f 172/172 173/173 174/174
v 0.473212 0.140000 0.435328
v 0.500000 0.140000 0.430000
v 0.500000 2.350000 0.430000
v 0.473212 2.350000 0.435328
vt 0.937500 0.000000
vt 1.000000 0.000000
vt 1.000000 1.000000
vt 0.937500 1.000000
f 175/175 176/176 177/177 178/178
v 0.500000 0.140000 0.500000
v 0.500000 0.140000 0.430000
v 0.473212 0.140000 0.435328
vt 0.000000 0.000000
vt 1.000000 0.000000
vt 1.000000 1.000000
f 179/179 180/180 181/181
v 0.500000 2.350000 0.500000
v 0.473212 2.350000 0.435328
v 0.500000 2.350000 0.430000
vt 0.000000 0.000000
vt 1.000000 0.000000
vt 1.000000 1.000000
f 182/182 183/183 184/184
usemtl dark
v 0.500000 0.140000 0.360000
v 0.553576 0.140000 0.370657
v 0.553576 0.280000 0.370657
v 0.500000 0.280000 0.360000
vt 0.000000 0.000000
vt 0.062500 0.000000
vt 0.062500 1.000000
vt 0.000000 1.000000
f 185/185 186/186 187/187 188/188
v 0.500000 0.140000 0.500000
v 0.553576 0.140000 0.370657
v 0.500000 0.140000 0.360000
vt 0.000000 0.000000
vt 1.000000 0.000000
vt 1.000000 1.000000
f 189/189 190/190 191/191
v 0.500000 0.280000 0.500000
v 0.500000 0.280000 0.360000
v 0.553576 0.280000 0.370657
vt 0.000000 0.000000
vt 1.000000 0.000000
vt 1.000000 1.000000
f 192/192 193/193 194/194
v 0.553576 0.140000 0.370657
v 0.598995 0.140000 0.401005
v 0.598995 0.280000 0.401005
v 0.553576 0.280000 0.370657
vt 0.062500 0.000000
vt 0.125000 0.000000
vt 0.125000 1.000000
vt 0.062500 1.000000
f 195/195 196/196 197/197 198/198
v 0.500000 0.140000 0.500000
v 0.598995 0.140000 0.401005
v 0.553576 0.140000 0.370657
vt 0.000000 0.000000
vt 1.000000 0.000000
vt 1.000000 1.000000
f 199/199 200/200 201/201
v 0.500000 0.280000 0.500000
v 0.553576 0.280000 0.370657
v 0.598995 0.280000 0.401005
vt 0.000000 0.000000
vt 1.000000 0.000000
vt 1.000000 1.000000
f 202/202 203/203 204/204
v 0.598995 0.140000 0.401005
v 0.629343 0.140000 0.446424
v 0.629343 0.280000 0.446424
v 0.598995 0.280000 0.401005
vt 0.125000 0.000000
vt 0.187500 0.000000
vt 0.187500 1.000000
vt 0.125000 1.000000
f 205/205 206/206 207/207 208/208
v 0.500000 0.140000 0.500000
v 0.629343 0.140000 0.446424
v 0.598995 0.140000 0.401005
vt 0.000000 0.000000
vt 1.000000 0.000000
vt 1.000000 1.000000
f 209/209 210/210 211/211
v 0.500000 0.280000 0.500000
v 0.598995 0.280000 0.401005
v 0.629343 0.280000 0.446424
vt 0.000000 0.000000
vt 1.000000 0.000000
vt 1.000000 1.000000
f 212/212 213/213 214/214
v 0.629343 0.140000 0.446424
v 0.640000 0.140000 0.500000
v 0.640000 0.280000 0.500000
v 0.629343 0.280000 0.446424
vt 0.187500 0.000000
vt 0.250000 0.000000
vt 0.250000 1.000000
vt 0.187500 1.000000
f 215/215 216/216 217/217 218/218
v 0.500000 0.140000 0.500000
v 0.640000 0.140000 0.500000
v 0.629343 0.140000 0.446424
vt 0.000000 0.000000
vt 1.000000 0.000000
vt 1.000000 1.000000
f 219/219 220/220 221/221
v 0.500000 0.280000 0.500000
v 0.629343 0.280000 0.446424
v 0.640000 0.280000 0.500000
vt 0.000000 0.000000
vt 1.000000 0.000000
vt 1.000000 1.000000
f 222/222 223/223 224/224
v 0.640000 0.140000 0.500000
v 0.629343 0.140000 0.553576
v 0.629343 0.280000 0.553576
v 0.640000 0.280000 0.500000
vt 0.250000 0.000000
vt 0.312500 0.000000
vt 0.312500 1.000000
vt 0.250000 1.000000
f 225/225 226/226 227/227 228/228
v 0.500000 0.140000 0.500000
v 0.629343 0.140000 0.553576
v 0.640000 0.140000 0.500000
vt 0.000000 0.000000
vt 1.000000 0.000000
vt 1.000000 1.000000
f 229/229 230/230 231/231
v 0.500000 0.280000 0.500000
v 0.640000 0.280000 0.500000
v 0.629343 0.280000 0.553576
vt 0.000000 0.000000
vt 1.000000 0.000000
vt 1.000000 1.000000
f 232/232 233/233 234/234
v 0.629343 0.140000 0.553576
v 0.598995 0.140000 0.598995
v 0.598995 0.280000 0.598995
v 0.629343 0.280000 0.553576
vt 0.312500 0.000000
vt 0.375000 0.000000
vt 0.375000 1.000000
vt 0.312500 1.000000
f 235/235 236/236 237/237 238/238
v 0.500000 0.140000 0.500000
v 0.598995 0.140000 0.598995
v 0.629343 0.140000 0.553576
vt 0.000000 0.000000
vt 1.000000 0.000000
vt 1.000000 1.000000
f 239/239 240/240 241/241
v 0.500000 0.280000 0.500000
v 0.629343 0.280000 0.553576
v 0.598995 0.280000 0.598995
vt 0.000000 0.000000
vt 1.000000 0.000000
vt 1.000000 1.000000
f 242/242 243/243 244/244
v 0.598995 0.140000 0.598995
v 0.553576 0.140000 0.629343
v 0.553576 0.280000 0.629343
v 0.598995 0.280000 0.598995
vt 0.375000 0.000000
vt 0.437500 0.000000
vt 0.437500 1.000000
vt 0.375000 1.000000
f 245/245 246/246 247/247 248/248
v 0.500000 0.140000 0.500000
v 0.553576 0.140000 0.629343
v 0.598995 0.140000 0.598995
vt 0.000000 0.000000
vt 1.000000 0.000000
vt 1.000000 1.000000
f 249/249 250/250 251/251
v 0.500000 0.280000 0.500000
v 0.598995 0.280000 0.598995
v 0.553576 0.280000 0.629343
vt 0.000000 0.000000
vt 1.000000 0.000000
vt 1.000000 1.000000
f 252/252 253/253 254/254
v 0.553576 0.140000 0.629343
v 0.500000 0.140000 0.640000
v 0.500000 0.280000 0.640000
v 0.553576 0.280000 0.629343
vt 0.437500 0.000000
vt 0.500000 0.000000
vt 0.500000 1.000000
vt 0.437500 1.000000
f 255/255 256/256 257/257 258/258
v 0.500000 0.140000 0.500000
v 0.500000 0.140000 0.640000
v 0.553576 0.140000 0.629343
vt 0.000000 0.000000
vt 1.000000 0.000000
vt 1.000000 1.000000
f 259/259 260/260 261/261
v 0.500000 0.280000 0.500000
v 0.553576 0.280000 0.629343
v 0.500000 0.280000 0.640000
vt 0.000000 0.000000
vt 1.000000 0.000000
vt 1.000000 1.000000
f 262/262 263/263 264/264
v 0.500000 0.140000 0.640000
v 0.446424 0.140000 0.629343
v 0.446424 0.280000 0.629343
v 0.500000 0.280000 0.640000
vt 0.500000 0.000000
vt 0.562500 0.000000
vt 0.562500 1.000000
vt 0.500000 1.000000
f 265/265 266/266 267/267 268/268
v 0.500000 0.140000 0.500000
v 0.446424 0.140000 0.629343
v 0.500000 0.140000 0.640000
vt 0.000000 0.000000
vt 1.000000 0.000000
vt 1.000000 1.000000
f 269/269 270/270 271/271
v 0.500000 0.280000 0.500000
v 0.500000 0.280000 0.640000
v 0.446424 0.280000 0.629343
vt 0.000000 0.000000
vt 1.000000 0.000000
vt 1.000000 1.000000
f 272/272 273/273 274/274
v 0.446424 0.140000 0.629343
v 0.401005 0.140000 0.598995
v 0.401005 0.280000 0.598995
v 0.446424 0.280000 0.629343
vt 0.562500 0.000000
vt 0.625000 0.000000
vt 0.625000 1.000000
vt 0.562500 1.000000
f 275/275 276/276 277/277 278/278
v 0.500000 0.140000 0.500000
v 0.401005 0.140000 0.598995
v 0.446424 0.140000 0.629343
vt 0.000000 0.000000
vt 1.000000 0.000000
vt 1.000000 1.000000
f 279/279 280/280 281/281
v 0.500000 0.280000 0.500000
v 0.446424 0.280000 0.629343
v 0.401005 0.280000 0.598995
vt 0.000000 0.000000
vt 1.000000 0.000000
vt 1.000000 1.000000
f 282/282 283/283 284/284
v 0.401005 0.140000 0.598995
v 0.370657 0.140000 0.553576
v 0.370657 0.280000 0.553576
v 0.401005 0.280000 0.598995
vt 0.625000 0.000000
vt 0.687500 0.000000
vt 0.687500 1.000000
vt 0.625000 1.000000
f 285/285 286/286 287/287 288/288
v 0.500000 0.140000 0.500000
v 0.370657 0.140000 0.553576
v 0.401005 0.140000 0.598995
vt 0.000000 0.000000
vt 1.000000 0.000000
vt 1.000000 1.000000
f 289/289 290/290 291/291
v 0.500000 0.280000 0.500000
v 0.401005 0.280000 0.598995
v 0.370657 0.280000 0.553576
vt 0.000000 0.000000
vt 1.000000 0.000000
vt 1.000000 1.000000
f 292/292 293/293 294/294
v 0.370657 0.140000 0.553576
v 0.360000 0.140000 0.500000
v 0.360000 0.280000 0.500000
v 0.370657 0.280000 0.553576
vt 0.687500 0.000000
vt 0.750000 0.000000
vt 0.750000 1.000000
vt 0.687500 1.000000
f 295/295 296/296 297/297 298/298
v 0.500000 0.140000 0.500000
v 0.360000 0.140000 0.500000
v 0.370657 0.140000 0.553576
vt 0.000000 0.000000
vt 1.000000 0.000000
vt 1.000000 1.000000
f 299/299 300/300 301/301
v 0.500000 0.280000 0.500000
v 0.370657 0.280000 0.553576
v 0.360000 0.280000 0.500000
vt 0.000000 0.000000
vt 1.000000 0.000000
vt 1.000000 1.000000
f 302/302 303/303 304/304
v 0.360000 0.140000 0.500000
v 0.370657 0.140000 0.446424
v 0.370657 0.280000 0.446424
v 0.360000 0.280000 0.500000
vt 0.750000 0.000000
vt 0.812500 0.000000
vt 0.812500 1.000000
vt 0.750000 1.000000
f 305/305 306/306 307/307 308/308
v 0.500000 0.140000 0.500000
v 0.370657 0.140000 0.446424
v 0.360000 0.140000 0.500000
vt 0.000000 0.000000
vt 1.000000 0.000000
vt 1.000000 1.000000
f 309/309 310/310 311/311
v 0.500000 0.280000 0.500000
v 0.360000 0.280000 0.500000
v 0.370657 0.280000 0.446424
vt 0.000000 0.000000
vt 1.000000 0.000000
vt 1.000000 1.000000
f 312/312 313/313 314/314
v 0.370657 0.140000 0.446424
v 0.401005 0.140000 0.401005
v 0.401005 0.280000 0.401005
v 0.370657 0.280000 0.446424
vt 0.812500 0.000000
vt 0.875000 0.000000
vt 0.875000 1.000000
vt 0.812500 1.000000
f 315/315 316/316 317/317 318/318
v 0.500000 0.140000 0.500000
v 0.401005 0.140000 0.401005
v 0.370657 0.140000 0.446424
vt 0.000000 0.000000
vt 1.000000 0.000000
vt 1.000000 1.000000
f 319/319 320/320 321/321
v 0.500000 0.280000 0.500000
v 0.370657 0.280000 0.446424
v 0.401005 0.280000 0.401005
vt 0.000000 0.000000
vt 1.000000 0.000000
vt 1.000000 1.000000
f 322/322 323/323 324/324
v 0.401005 0.140000 0.401005
v 0.446424 0.140000 0.370657
v 0.446424 0.280000 0.370657
v 0.401005 0.280000 0.401005
vt 0.875000 0.000000
vt 0.937500 0.000000
vt 0.937500 1.000000
vt 0.875000 1.000000
f 325/325 326/326 327/327 328/328
v 0.500000 0.140000 0.500000
v 0.446424 0.140000 0.370657
v 0.401005 0.140000 0.401005
vt 0.000000 0.000000
vt 1.000000 0.000000
vt 1.000000 1.000000
f 329/329 330/330 331/331
v 0.500000 0.280000 0.500000
v 0.401005 0.280000 0.401005
v 0.446424 0.280000 0.370657
vt 0.000000 0.000000
vt 1.000000 0.000000
vt 1.000000 1.000000
f 332/332 333/333 334/334
v 0.446424 0.140000 0.370657
v 0.500000 0.140000 0.360000
v 0.500000 0.280000 0.360000
v 0.446424 0.280000 0.370657
vt 0.937500 0.000000
vt 1.000000 0.000000
vt 1.000000 1.000000
vt 0.937500 1.000000
f 335/335 336/336 337/337 338/338
v 0.500000 0.140000 0.500000
v 0.500000 0.140000 0.360000
v 0.446424 0.140000 0.370657
vt 0.000000 0.000000
vt 1.000000 0.000000
vt 1.000000 1.000000
f 339/339 340/340 341/341
v 0.500000 0.280000 0.500000
v 0.446424 0.280000 0.370657
v 0.500000 0.280000 0.360000
vt 0.000000 0.000000
vt 1.000000 0.000000
vt 1.000000 1.000000
f 342/342 343/343 344/344
usemtl accent
v 0.420000 1.100000 0.420000
v 0.580000 1.100000 0.420000
v 0.580000 1.220000 0.420000
v 0.420000 1.220000 0.420000
vt 0.000000 0.000000
vt 1.000000 0.000000
vt 1.000000 1.000000
vt 0.000000 1.000000
f 345/345 346/346 347/347 348/348
v 0.580000 1.100000 0.580000
v 0.420000 1.100000 0.580000
v 0.420000 1.220000 0.580000
v 0.580000 1.220000 0.580000
vt 0.000000 0.000000
vt 1.000000 0.000000
vt 1.000000 1.000000
vt 0.000000 1.000000
f 349/349 350/350 351/351 352/352
v 0.420000 1.100000 0.580000
v 0.420000 1.100000 0.420000
v 0.420000 1.220000 0.420000
v 0.420000 1.220000 0.580000
vt 0.000000 0.000000
vt 1.000000 0.000000
vt 1.000000 1.000000
vt 0.000000 1.000000
f 353/353 354/354 355/355 356/356
v 0.580000 1.100000 0.420000
v 0.580000 1.100000 0.580000
v 0.580000 1.220000 0.580000
v 0.580000 1.220000 0.420000
vt 0.000000 0.000000
vt 1.000000 0.000000
vt 1.000000 1.000000
vt 0.000000 1.000000
f 357/357 358/358 359/359 360/360
v 0.420000 1.220000 0.420000
v 0.580000 1.220000 0.420000
v 0.580000 1.220000 0.580000
v 0.420000 1.220000 0.580000
vt 0.000000 0.000000
vt 1.000000 0.000000
vt 1.000000 1.000000
vt 0.000000 1.000000
f 361/361 362/362 363/363 364/364
v 0.420000 1.100000 0.580000
v 0.580000 1.100000 0.580000
v 0.580000 1.100000 0.420000
v 0.420000 1.100000 0.420000
vt 0.000000 0.000000
vt 1.000000 0.000000
vt 1.000000 1.000000
vt 0.000000 1.000000
f 365/365 366/366 367/367 368/368
usemtl dark
v 0.180000 0.160000 0.420000
v 0.320000 0.160000 0.420000
v 0.320000 0.700000 0.420000
v 0.180000 0.700000 0.420000
vt 0.000000 0.000000
vt 1.000000 0.000000
vt 1.000000 1.000000
vt 0.000000 1.000000
f 369/369 370/370 371/371 372/372
v 0.320000 0.160000 0.580000
v 0.180000 0.160000 0.580000
v 0.180000 0.700000 0.580000
v 0.320000 0.700000 0.580000
vt 0.000000 0.000000
vt 1.000000 0.000000
vt 1.000000 1.000000
vt 0.000000 1.000000
f 373/373 374/374 375/375 376/376
v 0.180000 0.160000 0.580000
v 0.180000 0.160000 0.420000
v 0.180000 0.700000 0.420000
v 0.180000 0.700000 0.580000
vt 0.000000 0.000000
vt 1.000000 0.000000
vt 1.000000 1.000000
vt 0.000000 1.000000
f 377/377 378/378 379/379 380/380
v 0.320000 0.160000 0.420000
v 0.320000 0.160000 0.580000
v 0.320000 0.700000 0.580000
v 0.320000 0.700000 0.420000
vt 0.000000 0.000000
vt 1.000000 0.000000
vt 1.000000 1.000000
vt 0.000000 1.000000
f 381/381 382/382 383/383 384/384
v 0.180000 0.700000 0.420000
v 0.320000 0.700000 0.420000
v 0.320000 0.700000 0.580000
v 0.180000 0.700000 0.580000
vt 0.000000 0.000000
vt 1.000000 0.000000
vt 1.000000 1.000000
vt 0.000000 1.000000
f 385/385 386/386 387/387 388/388
v 0.180000 0.160000 0.580000
v 0.320000 0.160000 0.580000
v 0.320000 0.160000 0.420000
v 0.180000 0.160000 0.420000
vt 0.000000 0.000000
vt 1.000000 0.000000
vt 1.000000 1.000000
vt 0.000000 1.000000
f 389/389 390/390 391/391 392/392
usemtl yellow
v 0.500000 0.160000 0.248000
v 0.508485 0.160000 0.251515
v 0.508485 0.179200 0.251515
v 0.500000 0.179200 0.248000
vt 0.000000 0.000000
vt 0.125000 0.000000
vt 0.125000 1.000000
vt 0.000000 1.000000
f 393/393 394/394 395/395 396/396
v 0.500000 0.160000 0.260000
v 0.508485 0.160000 0.251515
v 0.500000 0.160000 0.248000
vt 0.000000 0.000000
vt 1.000000 0.000000
vt 1.000000 1.000000
f 397/397 398/398 399/399
v 0.500000 0.179200 0.260000
v 0.500000 0.179200 0.248000
v 0.508485 0.179200 0.251515
vt 0.000000 0.000000
vt 1.000000 0.000000
vt 1.000000 1.000000
f 400/400 401/401 402/402
v 0.508485 0.160000 0.251515
v 0.512000 0.160000 0.260000
v 0.512000 0.179200 0.260000
v 0.508485 0.179200 0.251515
vt 0.125000 0.000000
vt 0.250000 0.000000
vt 0.250000 1.000000
vt 0.125000 1.000000
f 403/403 404/404 405/405 406/406
v 0.500000 0.160000 0.260000
v 0.512000 0.160000 0.260000
v 0.508485 0.160000 0.251515
vt 0.000000 0.000000
vt 1.000000 0.000000
vt 1.000000 1.000000
f 407/407 408/408 409/409
v 0.500000 0.179200 0.260000
v 0.508485 0.179200 0.251515
v 0.512000 0.179200 0.260000
vt 0.000000 0.000000
vt 1.000000 0.000000
vt 1.000000 1.000000
f 410/410 411/411 412/412
v 0.512000 0.160000 0.260000
v 0.508485 0.160000 0.268485
v 0.508485 0.179200 0.268485
v 0.512000 0.179200 0.260000
vt 0.250000 0.000000
vt 0.375000 0.000000
vt 0.375000 1.000000
vt 0.250000 1.000000
f 413/413 414/414 415/415 416/416
v 0.500000 0.160000 0.260000
v 0.508485 0.160000 0.268485
v 0.512000 0.160000 0.260000
vt 0.000000 0.000000
vt 1.000000 0.000000
vt 1.000000 1.000000
f 417/417 418/418 419/419
v 0.500000 0.179200 0.260000
v 0.512000 0.179200 0.260000
v 0.508485 0.179200 0.268485
vt 0.000000 0.000000
vt 1.000000 0.000000
vt 1.000000 1.000000
f 420/420 421/421 422/422
v 0.508485 0.160000 0.268485
v 0.500000 0.160000 0.272000
v 0.500000 0.179200 0.272000
v 0.508485 0.179200 0.268485
vt 0.375000 0.000000
vt 0.500000 0.000000
vt 0.500000 1.000000
vt 0.375000 1.000000
f 423/423 424/424 425/425 426/426
v 0.500000 0.160000 0.260000
v 0.500000 0.160000 0.272000
v 0.508485 0.160000 0.268485
vt 0.000000 0.000000
vt 1.000000 0.000000
vt 1.000000 1.000000
f 427/427 428/428 429/429
v 0.500000 0.179200 0.260000
v 0.508485 0.179200 0.268485
v 0.500000 0.179200 0.272000
vt 0.000000 0.000000
vt 1.000000 0.000000
vt 1.000000 1.000000
f 430/430 431/431 432/432
v 0.500000 0.160000 0.272000
v 0.491515 0.160000 0.268485
v 0.491515 0.179200 0.268485
v 0.500000 0.179200 0.272000
vt 0.500000 0.000000
vt 0.625000 0.000000
vt 0.625000 1.000000
vt 0.500000 1.000000
f 433/433 434/434 435/435 436/436
v 0.500000 0.160000 0.260000
v 0.491515 0.160000 0.268485
v 0.500000 0.160000 0.272000
vt 0.000000 0.000000
vt 1.000000 0.000000
vt 1.000000 1.000000
f 437/437 438/438 439/439
v 0.500000 0.179200 0.260000
v 0.500000 0.179200 0.272000
v 0.491515 0.179200 0.268485
vt 0.000000 0.000000
vt 1.000000 0.000000
vt 1.000000 1.000000
f 440/440 441/441 442/442
v 0.491515 0.160000 0.268485
v 0.488000 0.160000 0.260000
v 0.488000 0.179200 0.260000
v 0.491515 0.179200 0.268485
vt 0.625000 0.000000
vt 0.750000 0.000000
vt 0.750000 1.000000
vt 0.625000 1.000000
f 443/443 444/444 445/445 446/446
v 0.500000 0.160000 0.260000
v 0.488000 0.160000 0.260000
v 0.491515 0.160000 0.268485
vt 0.000000 0.000000
vt 1.000000 0.000000
vt 1.000000 1.000000
f 447/447 448/448 449/449
v 0.500000 0.179200 0.260000
v 0.491515 0.179200 0.268485
v 0.488000 0.179200 0.260000
vt 0.000000 0.000000
vt 1.000000 0.000000
vt 1.000000 1.000000
f 450/450 451/451 452/452
v 0.488000 0.160000 0.260000
v 0.491515 0.160000 0.251515
v 0.491515 0.179200 0.251515
v 0.488000 0.179200 0.260000
vt 0.750000 0.000000
vt 0.875000 0.000000
vt 0.875000 1.000000
vt 0.750000 1.000000
f 453/453 454/454 455/455 456/456
v 0.500000 0.160000 0.260000
v 0.491515 0.160000 0.251515
v 0.488000 0.160000 0.260000
vt 0.000000 0.000000
vt 1.000000 0.000000
vt 1.000000 1.000000
f 457/457 458/458 459/459
v 0.500000 0.179200 0.260000
v 0.488000 0.179200 0.260000
v 0.491515 0.179200 0.251515
vt 0.000000 0.000000
vt 1.000000 0.000000
vt 1.000000 1.000000
f 460/460 461/461 462/462
v 0.491515 0.160000 0.251515
v 0.500000 0.160000 0.248000
v 0.500000 0.179200 0.248000
v 0.491515 0.179200 0.251515
vt 0.875000 0.000000
vt 1.000000 0.000000
vt 1.000000 1.000000
vt 0.875000 1.000000
f 463/463 464/464 465/465 466/466
v 0.500000 0.160000 0.260000
v 0.500000 0.160000 0.248000
v 0.491515 0.160000 0.251515
vt 0.000000 0.000000
vt 1.000000 0.000000
vt 1.000000 1.000000
f 467/467 468/468 469/469
v 0.500000 0.179200 0.260000
v 0.491515 0.179200 0.251515
v 0.500000 0.179200 0.248000
vt 0.000000 0.000000
vt 1.000000 0.000000
vt 1.000000 1.000000
f 470/470 471/471 472/472
v 0.669706 0.160000 0.318294
v 0.678191 0.160000 0.321809
v 0.678191 0.179200 0.321809
v 0.669706 0.179200 0.318294
vt 0.000000 0.000000
vt 0.125000 0.000000
vt 0.125000 1.000000
vt 0.000000 1.000000
f 473/473 474/474 475/475 476/476
v 0.669706 0.160000 0.330294
v 0.678191 0.160000 0.321809
v 0.669706 0.160000 0.318294
vt 0.000000 0.000000
vt 1.000000 0.000000
vt 1.000000 1.000000
f 477/477 478/478 479/479
v 0.669706 0.179200 0.330294
v 0.669706 0.179200 0.318294
v 0.678191 0.179200 0.321809
vt 0.000000 0.000000
vt 1.000000 0.000000
vt 1.000000 1.000000
f 480/480 481/481 482/482
v 0.678191 0.160000 0.321809
v 0.681706 0.160000 0.330294
v 0.681706 0.179200 0.330294
v 0.678191 0.179200 0.321809
vt 0.125000 0.000000
vt 0.250000 0.000000
vt 0.250000 1.000000
vt 0.125000 1.000000
f 483/483 484/484 485/485 486/486
v 0.669706 0.160000 0.330294
v 0.681706 0.160000 0.330294
v 0.678191 0.160000 0.321809
vt 0.000000 0.000000
vt 1.000000 0.000000
vt 1.000000 1.000000
f 487/487 488/488 489/489
v 0.669706 0.179200 0.330294
v 0.678191 0.179200 0.321809
v 0.681706 0.179200 0.330294
vt 0.000000 0.000000
vt 1.000000 0.000000
vt 1.000000 1.000000
f 490/490 491/491 492/492
v 0.681706 0.160000 0.330294
v 0.678191 0.160000 0.338780
v 0.678191 0.179200 0.338780
v 0.681706 0.179200 0.330294
vt 0.250000 0.000000
vt 0.375000 0.000000
vt 0.375000 1.000000
vt 0.250000 1.000000
f 493/493 494/494 495/495 496/496
v 0.669706 0.160000 0.330294
v 0.678191 0.160000 0.338780
v 0.681706 0.160000 0.330294
vt 0.000000 0.000000
vt 1.000000 0.000000
vt 1.000000 1.000000
f 497/497 498/498 499/499
v 0.669706 0.179200 0.330294
v 0.681706 0.179200 0.330294
v 0.678191 0.179200 0.338780
vt 0.000000 0.000000
vt 1.000000 0.000000
vt 1.000000 1.000000
f 500/500 501/501 502/502
v 0.678191 0.160000 0.338780
v 0.669706 0.160000 0.342294
v 0.669706 0.179200 0.342294
v 0.678191 0.179200 0.338780
vt 0.375000 0.000000
vt 0.500000 0.000000
vt 0.500000 1.000000
vt 0.375000 1.000000
f 503/503 504/504 505/505 506/506
v 0.669706 0.160000 0.330294
v 0.669706 0.160000 0.342294
v 0.678191 0.160000 0.338780
vt 0.000000 0.000000
vt 1.000000 0.000000
vt 1.000000 1.000000
f 507/507 508/508 509/509
v 0.669706 0.179200 0.330294
v 0.678191 0.179200 0.338780
v 0.669706 0.179200 0.342294
vt 0.000000 0.000000
vt 1.000000 0.000000
vt 1.000000 1.000000
f 510/510 511/511 512/512
v 0.669706 0.160000 0.342294
v 0.661220 0.160000 0.338780
v 0.661220 0.179200 0.338780
v 0.669706 0.179200 0.342294
vt 0.500000 0.000000
vt 0.625000 0.000000
vt 0.625000 1.000000
vt 0.500000 1.000000
f 513/513 514/514 515/515 516/516
v 0.669706 0.160000 0.330294
v 0.661220 0.160000 0.338780
v 0.669706 0.160000 0.342294
vt 0.000000 0.000000
vt 1.000000 0.000000
vt 1.000000 1.000000
f 517/517 518/518 519/519
v 0.669706 0.179200 0.330294
v 0.669706 0.179200 0.342294
v 0.661220 0.179200 0.338780
vt 0.000000 0.000000
vt 1.000000 0.000000
vt 1.000000 1.000000
f 520/520 521/521 522/522
v 0.661220 0.160000 0.338780
v 0.657706 0.160000 0.330294
v 0.657706 0.179200 0.330294
v 0.661220 0.179200 0.338780
vt 0.625000 0.000000
vt 0.750000 0.000000
vt 0.750000 1.000000
vt 0.625000 1.000000
f 523/523 524/524 525/525 526/526
v 0.669706 0.160000 0.330294
v 0.657706 0.160000 0.330294
v 0.661220 0.160000 0.338780
vt 0.000000 0.000000
vt 1.000000 0.000000
vt 1.000000 1.000000
f 527/527 528/528 529/529
v 0.669706 0.179200 0.330294
v 0.661220 0.179200 0.338780
v 0.657706 0.179200 0.330294
vt 0.000000 0.000000
vt 1.000000 0.000000
vt 1.000000 1.000000
f 530/530 531/531 532/532
v 0.657706 0.160000 0.330294
v 0.661220 0.160000 0.321809
v 0.661220 0.179200 0.321809
v 0.657706 0.179200 0.330294
vt 0.750000 0.000000
vt 0.875000 0.000000
vt 0.875000 1.000000
vt 0.750000 1.000000
f 533/533 534/534 535/535 536/536
v 0.669706 0.160000 0.330294
v 0.661220 0.160000 0.321809
v 0.657706 0.160000 0.330294
vt 0.000000 0.000000
vt 1.000000 0.000000
vt 1.000000 1.000000
f 537/537 538/538 539/539
v 0.669706 0.179200 0.330294
v 0.657706 0.179200 0.330294
v 0.661220 0.179200 0.321809
vt 0.000000 0.000000
vt 1.000000 0.000000
vt 1.000000 1.000000
f 540/540 541/541 542/542
v 0.661220 0.160000 0.321809
v 0.669706 0.160000 0.318294
v 0.669706 0.179200 0.318294
v 0.661220 0.179200 0.321809
vt 0.875000 0.000000
vt 1.000000 0.000000
vt 1.000000 1.000000
vt 0.875000 1.000000
f 543/543 544/544 545/545 546/546
v 0.669706 0.160000 0.330294
v 0.669706 0.160000 0.318294
v 0.661220 0.160000 0.321809
vt 0.000000 0.000000
vt 1.000000 0.000000
vt 1.000000 1.000000
f 547/547 548/548 549/549
v 0.669706 0.179200 0.330294
v 0.661220 0.179200 0.321809
v 0.669706 0.179200 0.318294
vt 0.000000 0.000000
vt 1.000000 0.000000
vt 1.000000 1.000000
f 550/550 551/551 552/552
v 0.740000 0.160000 0.488000
v 0.748485 0.160000 0.491515
v 0.748485 0.179200 0.491515
v 0.740000 0.179200 0.488000
vt 0.000000 0.000000
vt 0.125000 0.000000
vt 0.125000 1.000000
vt 0.000000 1.000000
f 553/553 554/554 555/555 556/556
v 0.740000 0.160000 0.500000
v 0.748485 0.160000 0.491515
v 0.740000 0.160000 0.488000
vt 0.000000 0.000000
vt 1.000000 0.000000
vt 1.000000 1.000000
f 557/557 558/558 559/559
v 0.740000 0.179200 0.500000
v 0.740000 0.179200 0.488000
v 0.748485 0.179200 0.491515
vt 0.000000 0.000000
vt 1.000000 0.000000
vt 1.000000 1.000000
f 560/560 561/561 562/562
v 0.748485 0.160000 0.491515
v 0.752000 0.160000 0.500000
v 0.752000 0.179200 0.500000
v 0.748485 0.179200 0.491515
vt 0.125000 0.000000
vt 0.250000 0.000000
vt 0.250000 1.000000
vt 0.125000 1.000000
f 563/563 564/564 565/565 566/566
v 0.740000 0.160000 0.500000
v 0.752000 0.160000 0.500000
v 0.748485 0.160000 0.491515
vt 0.000000 0.000000
vt 1.000000 0.000000
vt 1.000000 1.000000
f 567/567 568/568 569/569
v 0.740000 0.179200 0.500000
v 0.748485 0.179200 0.491515
v 0.752000 0.179200 0.500000
vt 0.000000 0.000000
vt 1.000000 0.000000
vt 1.000000 1.000000
f 570/570 571/571 572/572
v 0.752000 0.160000 0.500000
v 0.748485 0.160000 0.508485
v 0.748485 0.179200 0.508485
v 0.752000 0.179200 0.500000
vt 0.250000 0.000000
vt 0.375000 0.000000
vt 0.375000 1.000000
vt 0.250000 1.000000
f 573/573 574/574 575/575 576/576
v 0.740000 0.160000 0.500000
v 0.748485 0.160000 0.508485
v 0.752000 0.160000 0.500000
vt 0.000000 0.000000
vt 1.000000 0.000000
vt 1.000000 1.000000
f 577/577 578/578 579/579
v 0.740000 0.179200 0.500000
v 0.752000 0.179200 0.500000
v 0.748485 0.179200 0.508485
vt 0.000000 0.000000
vt 1.000000 0.000000
vt 1.000000 1.000000
f 580/580 581/581 582/582
v 0.748485 0.160000 0.508485
v 0.740000 0.160000 0.512000
v 0.740000 0.179200 0.512000
v 0.748485 0.179200 0.508485
vt 0.375000 0.000000
vt 0.500000 0.000000
vt 0.500000 1.000000
vt 0.375000 1.000000
f 583/583 584/584 585/585 586/586
v 0.740000 0.160000 0.500000
v 0.740000 0.160000 0.512000
v 0.748485 0.160000 0.508485
vt 0.000000 0.000000
vt 1.000000 0.000000
vt 1.000000 1.000000
f 587/587 588/588 589/589
v 0.740000 0.179200 0.500000
v 0.748485 0.179200 0.508485
v 0.740000 0.179200 0.512000
vt 0.000000 0.000000
vt 1.000000 0.000000
vt 1.000000 1.000000
f 590/590 591/591 592/592
v 0.740000 0.160000 0.512000
v 0.731515 0.160000 0.508485
v 0.731515 0.179200 0.508485
v 0.740000 0.179200 0.512000
vt 0.500000 0.000000
vt 0.625000 0.000000
vt 0.625000 1.000000
vt 0.500000 1.000000
f 593/593 594/594 595/595 596/596
v 0.740000 0.160000 0.500000
v 0.731515 0.160000 0.508485
v 0.740000 0.160000 0.512000
vt 0.000000 0.000000
vt 1.000000 0.000000
vt 1.000000 1.000000
f 597/597 598/598 599/599
v 0.740000 0.179200 0.500000
v 0.740000 0.179200 0.512000
v 0.731515 0.179200 0.508485
vt 0.000000 0.000000
vt 1.000000 0.000000
vt 1.000000 1.000000
f 600/600 601/601 602/602
v 0.731515 0.160000 0.508485
v 0.728000 0.160000 0.500000
v 0.728000 0.179200 0.500000
v 0.731515 0.179200 0.508485
vt 0.625000 0.000000
vt 0.750000 0.000000
vt 0.750000 1.000000
vt 0.625000 1.000000
f 603/603 604/604 605/605 606/606
v 0.740000 0.160000 0.500000
v 0.728000 0.160000 0.500000
v 0.731515 0.160000 0.508485
vt 0.000000 0.000000
vt 1.000000 0.000000
vt 1.000000 1.000000
f 607/607 608/608 609/609
v 0.740000 0.179200 0.500000
v 0.731515 0.179200 0.508485
v 0.728000 0.179200 0.500000
vt 0.000000 0.000000
vt 1.000000 0.000000
vt 1.000000 1.000000
f 610/610 611/611 612/612
v 0.728000 0.160000 0.500000
v 0.731515 0.160000 0.491515
v 0.731515 0.179200 0.491515
v 0.728000 0.179200 0.500000
vt 0.750000 0.000000
vt 0.875000 0.000000
vt 0.875000 1.000000
vt 0.750000 1.000000
f 613/613 614/614 615/615 616/616
v 0.740000 0.160000 0.500000
v 0.731515 0.160000 0.491515
v 0.728000 0.160000 0.500000
vt 0.000000 0.000000
vt 1.000000 0.000000
vt 1.000000 1.000000
f 617/617 618/618 619/619
v 0.740000 0.179200 0.500000
v 0.728000 0.179200 0.500000
v 0.731515 0.179200 0.491515
vt 0.000000 0.000000
vt 1.000000 0.000000
vt 1.000000 1.000000
f 620/620 621/621 622/622
v 0.731515 0.160000 0.491515
v 0.740000 0.160000 0.488000
v 0.740000 0.179200 0.488000
v 0.731515 0.179200 0.491515
vt 0.875000 0.000000
vt 1.000000 0.000000
vt 1.000000 1.000000
vt 0.875000 1.000000
f 623/623 624/624 625/625 626/626
v 0.740000 0.160000 0.500000
v 0.740000 0.160000 0.488000
v 0.731515 0.160000 0.491515
vt 0.000000 0.000000
vt 1.000000 0.000000
vt 1.000000 1.000000
f 627/627 628/628 629/629
v 0.740000 0.179200 0.500000
v 0.731515 0.179200 0.491515
v 0.740000 0.179200 0.488000
vt 0.000000 0.000000
vt 1.000000 0.000000
vt 1.000000 1.000000
f 630/630 631/631 632/632
v 0.669706 0.160000 0.657706
v 0.678191 0.160000 0.661220
v 0.678191 0.179200 0.661220
v 0.669706 0.179200 0.657706
vt 0.000000 0.000000
vt 0.125000 0.000000
vt 0.125000 1.000000
vt 0.000000 1.000000
f 633/633 634/634 635/635 636/636
v 0.669706 0.160000 0.669706
v 0.678191 0.160000 0.661220
v 0.669706 0.160000 0.657706
vt 0.000000 0.000000
vt 1.000000 0.000000
vt 1.000000 1.000000
f 637/637 638/638 639/639
v 0.669706 0.179200 0.669706
v 0.669706 0.179200 0.657706
v 0.678191 0.179200 0.661220
vt 0.000000 0.000000
vt 1.000000 0.000000
vt 1.000000 1.000000
f 640/640 641/641 642/642
v 0.678191 0.160000 0.661220
v 0.681706 0.160000 0.669706
v 0.681706 0.179200 0.669706
v 0.678191 0.179200 0.661220
vt 0.125000 0.000000
vt 0.250000 0.000000
vt 0.250000 1.000000
vt 0.125000 1.000000
f 643/643 644/644 645/645 646/646
v 0.669706 0.160000 0.669706
v 0.681706 0.160000 0.669706
v 0.678191 0.160000 0.661220
vt 0.000000 0.000000
vt 1.000000 0.000000
vt 1.000000 1.000000
f 647/647 648/648 649/649
v 0.669706 0.179200 0.669706
v 0.678191 0.179200 0.661220
v 0.681706 0.179200 0.669706
vt 0.000000 0.000000
vt 1.000000 0.000000
vt 1.000000 1.000000
f 650/650 651/651 652/652
v 0.681706 0.160000 0.669706
v 0.678191 0.160000 0.678191
v 0.678191 0.179200 0.678191
v 0.681706 0.179200 0.669706
vt 0.250000 0.000000
vt 0.375000 0.000000
vt 0.375000 1.000000
vt 0.250000 1.000000
f 653/653 654/654 655/655 656/656
v 0.669706 0.160000 0.669706
v 0.678191 0.160000 0.678191
v 0.681706 0.160000 0.669706
vt 0.000000 0.000000
vt 1.000000 0.000000
vt 1.000000 1.000000
f 657/657 658/658 659/659
v 0.669706 0.179200 0.669706
v 0.681706 0.179200 0.669706
v 0.678191 0.179200 0.678191
vt 0.000000 0.000000
vt 1.000000 0.000000
vt 1.000000 1.000000
f 660/660 661/661 662/662
v 0.678191 0.160000 0.678191
v 0.669706 0.160000 0.681706
v 0.669706 0.179200 0.681706
v 0.678191 0.179200 0.678191
vt 0.375000 0.000000
vt 0.500000 0.000000
vt 0.500000 1.000000
vt 0.375000 1.000000
f 663/663 664/664 665/665 666/666
v 0.669706 0.160000 0.669706
v 0.669706 0.160000 0.681706
v 0.678191 0.160000 0.678191
vt 0.000000 0.000000
vt 1.000000 0.000000
vt 1.000000 1.000000
f 667/667 668/668 669/669
v 0.669706 0.179200 0.669706
v 0.678191 0.179200 0.678191
v 0.669706 0.179200 0.681706
vt 0.000000 0.000000
vt 1.000000 0.000000
vt 1.000000 1.000000
f 670/670 671/671 672/672
v 0.669706 0.160000 0.681706
v 0.661220 0.160000 0.678191
v 0.661220 0.179200 0.678191
v 0.669706 0.179200 0.681706
vt 0.500000 0.000000
vt 0.625000 0.000000
vt 0.625000 1.000000
vt 0.500000 1.000000
f 673/673 674/674 675/675 676/676
v 0.669706 0.160000 0.669706
v 0.661220 0.160000 0.678191
v 0.669706 0.160000 0.681706
vt 0.000000 0.000000
vt 1.000000 0.000000
vt 1.000000 1.000000
f 677/677 678/678 679/679
v 0.669706 0.179200 0.669706
v 0.669706 0.179200 0.681706
v 0.661220 0.179200 0.678191
vt 0.000000 0.000000
vt 1.000000 0.000000
vt 1.000000 1.000000
f 680/680 681/681 682/682
v 0.661220 0.160000 0.678191
v 0.657706 0.160000 0.669706
v 0.657706 0.179200 0.669706
v 0.661220 0.179200 0.678191
vt 0.625000 0.000000
vt 0.750000 0.000000
vt 0.750000 1.000000
vt 0.625000 1.000000
f 683/683 684/684 685/685 686/686
v 0.669706 0.160000 0.669706
v 0.657706 0.160000 0.669706
v 0.661220 0.160000 0.678191
vt 0.000000 0.000000
vt 1.000000 0.000000
vt 1.000000 1.000000
f 687/687 688/688 689/689
v 0.669706 0.179200 0.669706
v 0.661220 0.179200 0.678191
v 0.657706 0.179200 0.669706
vt 0.000000 0.000000
vt 1.000000 0.000000
vt 1.000000 1.000000
f 690/690 691/691 692/692
v 0.657706 0.160000 0.669706
v 0.661220 0.160000 0.661220
v 0.661220 0.179200 0.661220
v 0.657706 0.179200 0.669706
vt 0.750000 0.000000
vt 0.875000 0.000000
vt 0.875000 1.000000
vt 0.750000 1.000000
f 693/693 694/694 695/695 696/696
v 0.669706 0.160000 0.669706
v 0.661220 0.160000 0.661220
v 0.657706 0.160000 0.669706
vt 0.000000 0.000000
vt 1.000000 0.000000
vt 1.000000 1.000000
f 697/697 698/698 699/699
v 0.669706 0.179200 0.669706
v 0.657706 0.179200 0.669706
v 0.661220 0.179200 0.661220
vt 0.000000 0.000000
vt 1.000000 0.000000
vt 1.000000 1.000000
f 700/700 701/701 702/702
v 0.661220 0.160000 0.661220
v 0.669706 0.160000 0.657706
v 0.669706 0.179200 0.657706
v 0.661220 0.179200 0.661220
vt 0.875000 0.000000
vt 1.000000 0.000000
vt 1.000000 1.000000
vt 0.875000 1.000000
f 703/703 704/704 705/705 706/706
v 0.669706 0.160000 0.669706
v 0.669706 0.160000 0.657706
v 0.661220 0.160000 0.661220
vt 0.000000 0.000000
vt 1.000000 0.000000
vt 1.000000 1.000000
f 707/707 708/708 709/709
v 0.669706 0.179200 0.669706
v 0.661220 0.179200 0.661220
v 0.669706 0.179200 0.657706
vt 0.000000 0.000000
vt 1.000000 0.000000
vt 1.000000 1.000000
f 710/710 711/711 712/712
v 0.500000 0.160000 0.728000
v 0.508485 0.160000 0.731515
v 0.508485 0.179200 0.731515
v 0.500000 0.179200 0.728000
vt 0.000000 0.000000
vt 0.125000 0.000000
vt 0.125000 1.000000
vt 0.000000 1.000000
f 713/713 714/714 715/715 716/716
v 0.500000 0.160000 0.740000
v 0.508485 0.160000 0.731515
v 0.500000 0.160000 0.728000
vt 0.000000 0.000000
vt 1.000000 0.000000
vt 1.000000 1.000000
f 717/717 718/718 719/719
v 0.500000 0.179200 0.740000
v 0.500000 0.179200 0.728000
v 0.508485 0.179200 0.731515
vt 0.000000 0.000000
vt 1.000000 0.000000
vt 1.000000 1.000000
f 720/720 721/721 722/722
v 0.508485 0.160000 0.731515
v 0.512000 0.160000 0.740000
v 0.512000 0.179200 0.740000
v 0.508485 0.179200 0.731515
vt 0.125000 0.000000
vt 0.250000 0.000000
vt 0.250000 1.000000
vt 0.125000 1.000000
f 723/723 724/724 725/725 726/726
v 0.500000 0.160000 0.740000
v 0.512000 0.160000 0.740000
v 0.508485 0.160000 0.731515
vt 0.000000 0.000000
vt 1.000000 0.000000
vt 1.000000 1.000000
f 727/727 728/728 729/729
v 0.500000 0.179200 0.740000
v 0.508485 0.179200 0.731515
v 0.512000 0.179200 0.740000
vt 0.000000 0.000000
vt 1.000000 0.000000
vt 1.000000 1.000000
f 730/730 731/731 732/732
v 0.512000 0.160000 0.740000
v 0.508485 0.160000 0.748485
v 0.508485 0.179200 0.748485
v 0.512000 0.179200 0.740000
vt 0.250000 0.000000
vt 0.375000 0.000000
vt 0.375000 1.000000
vt 0.250000 1.000000
f 733/733 734/734 735/735 736/736
v 0.500000 0.160000 0.740000
v 0.508485 0.160000 0.748485
v 0.512000 0.160000 0.740000
vt 0.000000 0.000000
vt 1.000000 0.000000
vt 1.000000 1.000000
f 737/737 738/738 739/739
v 0.500000 0.179200 0.740000
v 0.512000 0.179200 0.740000
v 0.508485 0.179200 0.748485
vt 0.000000 0.000000
vt 1.000000 0.000000
vt 1.000000 1.000000
f 740/740 741/741 742/742
v 0.508485 0.160000 0.748485
v 0.500000 0.160000 0.752000
v 0.500000 0.179200 0.752000
v 0.508485 0.179200 0.748485
vt 0.375000 0.000000
vt 0.500000 0.000000
vt 0.500000 1.000000
vt 0.375000 1.000000
f 743/743 744/744 745/745 746/746
v 0.500000 0.160000 0.740000
v 0.500000 0.160000 0.752000
v 0.508485 0.160000 0.748485
vt 0.000000 0.000000
vt 1.000000 0.000000
vt 1.000000 1.000000
f 747/747 748/748 749/749
v 0.500000 0.179200 0.740000
v 0.508485 0.179200 0.748485
v 0.500000 0.179200 0.752000
vt 0.000000 0.000000
vt 1.000000 0.000000
vt 1.000000 1.000000
f 750/750 751/751 752/752
v 0.500000 0.160000 0.752000
v 0.491515 0.160000 0.748485
v 0.491515 0.179200 0.748485
v 0.500000 0.179200 0.752000
vt 0.500000 0.000000
vt 0.625000 0.000000
vt 0.625000 1.000000
vt 0.500000 1.000000
f 753/753 754/754 755/755 756/756
v 0.500000 0.160000 0.740000
v 0.491515 0.160000 0.748485
v 0.500000 0.160000 0.752000
vt 0.000000 0.000000
vt 1.000000 0.000000
vt 1.000000 1.000000
f 757/757 758/758 759/759
v 0.500000 0.179200 0.740000
v 0.500000 0.179200 0.752000
v 0.491515 0.179200 0.748485
vt 0.000000 0.000000
vt 1.000000 0.000000
vt 1.000000 1.000000
f 760/760 761/761 762/762
v 0.491515 0.160000 0.748485
v 0.488000 0.160000 0.740000
v 0.488000 0.179200 0.740000
v 0.491515 0.179200 0.748485
vt 0.625000 0.000000
vt 0.750000 0.000000
vt 0.750000 1.000000
vt 0.625000 1.000000
f 763/763 764/764 765/765 766/766
v 0.500000 0.160000 0.740000
v 0.488000 0.160000 0.740000
v 0.491515 0.160000 0.748485
vt 0.000000 0.000000
vt 1.000000 0.000000
vt 1.000000 1.000000
f 767/767 768/768 769/769
v 0.500000 0.179200 0.740000
v 0.491515 0.179200 0.748485
v 0.488000 0.179200 0.740000
vt 0.000000 0.000000
vt 1.000000 0.000000
vt 1.000000 1.000000
f 770/770 771/771 772/772
v 0.488000 0.160000 0.740000
v 0.491515 0.160000 0.731515
v 0.491515 0.179200 0.731515
v 0.488000 0.179200 0.740000
vt 0.750000 0.000000
vt 0.875000 0.000000
vt 0.875000 1.000000
vt 0.750000 1.000000
f 773/773 774/774 775/775 776/776
v 0.500000 0.160000 0.740000
v 0.491515 0.160000 0.731515
v 0.488000 0.160000 0.740000
vt 0.000000 0.000000
vt 1.000000 0.000000
vt 1.000000 1.000000
f 777/777 778/778 779/779
v 0.500000 0.179200 0.740000
v 0.488000 0.179200 0.740000
v 0.491515 0.179200 0.731515
vt 0.000000 0.000000
vt 1.000000 0.000000
vt 1.000000 1.000000
f 780/780 781/781 782/782
v 0.491515 0.160000 0.731515
v 0.500000 0.160000 0.728000
v 0.500000 0.179200 0.728000
v 0.491515 0.179200 0.731515
vt 0.875000 0.000000
vt 1.000000 0.000000
vt 1.000000 1.000000
vt 0.875000 1.000000
f 783/783 784/784 785/785 786/786
v 0.500000 0.160000 0.740000
v 0.500000 0.160000 0.728000
v 0.491515 0.160000 0.731515
vt 0.000000 0.000000
vt 1.000000 0.000000
vt 1.000000 1.000000
f 787/787 788/788 789/789
v 0.500000 0.179200 0.740000
v 0.491515 0.179200 0.731515
v 0.500000 0.179200 0.728000
vt 0.000000 0.000000
vt 1.000000 0.000000
vt 1.000000 1.000000
f 790/790 791/791 792/792
v 0.330294 0.160000 0.657706
v 0.338780 0.160000 0.661220
v 0.338780 0.179200 0.661220
v 0.330294 0.179200 0.657706
vt 0.000000 0.000000
vt 0.125000 0.000000
vt 0.125000 1.000000
vt 0.000000 1.000000
f 793/793 794/794 795/795 796/796
v 0.330294 0.160000 0.669706
v 0.338780 0.160000 0.661220
v 0.330294 0.160000 0.657706
vt 0.000000 0.000000
vt 1.000000 0.000000
vt 1.000000 1.000000
f 797/797 798/798 799/799
v 0.330294 0.179200 0.669706
v 0.330294 0.179200 0.657706
v 0.338780 0.179200 0.661220
vt 0.000000 0.000000
vt 1.000000 0.000000
vt 1.000000 1.000000
f 800/800 801/801 802/802
v 0.338780 0.160000 0.661220
v 0.342294 0.160000 0.669706
v 0.342294 0.179200 0.669706
v 0.338780 0.179200 0.661220
vt 0.125000 0.000000
vt 0.250000 0.000000
vt 0.250000 1.000000
vt 0.125000 1.000000
f 803/803 804/804 805/805 806/806
v 0.330294 0.160000 0.669706
v 0.342294 0.160000 0.669706
v 0.338780 0.160000 0.661220
vt 0.000000 0.000000
vt 1.000000 0.000000
vt 1.000000 1.000000
f 807/807 808/808 809/809
v 0.330294 0.179200 0.669706
v 0.338780 0.179200 0.661220
v 0.342294 0.179200 0.669706
vt 0.000000 0.000000
vt 1.000000 0.000000
vt 1.000000 1.000000
f 810/810 811/811 812/812
v 0.342294 0.160000 0.669706
v 0.338780 0.160000 0.678191
v 0.338780 0.179200 0.678191
v 0.342294 0.179200 0.669706
vt 0.250000 0.000000
vt 0.375000 0.000000
vt 0.375000 1.000000
vt 0.250000 1.000000
f 813/813 814/814 815/815 816/816
v 0.330294 0.160000 0.669706
v 0.338780 0.160000 0.678191
v 0.342294 0.160000 0.669706
vt 0.000000 0.000000
vt 1.000000 0.000000
vt 1.000000 1.000000
f 817/817 818/818 819/819
v 0.330294 0.179200 0.669706
v 0.342294 0.179200 0.669706
v 0.338780 0.179200 0.678191
vt 0.000000 0.000000
vt 1.000000 0.000000
vt 1.000000 1.000000
f 820/820 821/821 822/822
v 0.338780 0.160000 0.678191
v 0.330294 0.160000 0.681706
v 0.330294 0.179200 0.681706
v 0.338780 0.179200 0.678191
vt 0.375000 0.000000
vt 0.500000 0.000000
vt 0.500000 1.000000
vt 0.375000 1.000000
f 823/823 824/824 825/825 826/826
v 0.330294 0.160000 0.669706
v 0.330294 0.160000 0.681706
v 0.338780 0.160000 0.678191
vt 0.000000 0.000000
vt 1.000000 0.000000
vt 1.000000 1.000000
f 827/827 828/828 829/829
v 0.330294 0.179200 0.669706
v 0.338780 0.179200 0.678191
v 0.330294 0.179200 0.681706
vt 0.000000 0.000000
vt 1.000000 0.000000
vt 1.000000 1.000000
f 830/830 831/831 832/832
v 0.330294 0.160000 0.681706
v 0.321809 0.160000 0.678191
v 0.321809 0.179200 0.678191
v 0.330294 0.179200 0.681706
vt 0.500000 0.000000
vt 0.625000 0.000000
vt 0.625000 1.000000
vt 0.500000 1.000000
f 833/833 834/834 835/835 836/836
v 0.330294 0.160000 0.669706
v 0.321809 0.160000 0.678191
v 0.330294 0.160000 0.681706
vt 0.000000 0.000000
vt 1.000000 0.000000
vt 1.000000 1.000000
f 837/837 838/838 839/839
v 0.330294 0.179200 0.669706
v 0.330294 0.179200 0.681706
v 0.321809 0.179200 0.678191
vt 0.000000 0.000000
vt 1.000000 0.000000
vt 1.000000 1.000000
f 840/840 841/841 842/842
v 0.321809 0.160000 0.678191
v 0.318294 0.160000 0.669706
v 0.318294 0.179200 0.669706
v 0.321809 0.179200 0.678191
vt 0.625000 0.000000
vt 0.750000 0.000000
vt 0.750000 1.000000
vt 0.625000 1.000000
f 843/843 844/844 845/845 846/846
v 0.330294 0.160000 0.669706
v 0.318294 0.160000 0.669706
v 0.321809 0.160000 0.678191
vt 0.000000 0.000000
vt 1.000000 0.000000
vt 1.000000 1.000000
f 847/847 848/848 849/849
v 0.330294 0.179200 0.669706
v 0.321809 0.179200 0.678191
v 0.318294 0.179200 0.669706
vt 0.000000 0.000000
vt 1.000000 0.000000
vt 1.000000 1.000000
f 850/850 851/851 852/852
v 0.318294 0.160000 0.669706
v 0.321809 0.160000 0.661220
v 0.321809 0.179200 0.661220
v 0.318294 0.179200 0.669706
vt 0.750000 0.000000
vt 0.875000 0.000000
vt 0.875000 1.000000
vt 0.750000 1.000000
f 853/853 854/854 855/855 856/856
v 0.330294 0.160000 0.669706
v 0.321809 0.160000 0.661220
v 0.318294 0.160000 0.669706
vt 0.000000 0.000000
vt 1.000000 0.000000
vt 1.000000 1.000000
f 857/857 858/858 859/859
v 0.330294 0.179200 0.669706
v 0.318294 0.179200 0.669706
v 0.321809 0.179200 0.661220
vt 0.000000 0.000000
vt 1.000000 0.000000
vt 1.000000 1.000000
f 860/860 861/861 862/862
v 0.321809 0.160000 0.661220
v 0.330294 0.160000 0.657706
v 0.330294 0.179200 0.657706
v 0.321809 0.179200 0.661220
vt 0.875000 0.000000
vt 1.000000 0.000000
vt 1.000000 1.000000
vt 0.875000 1.000000
f 863/863 864/864 865/865 866/866
v 0.330294 0.160000 0.669706
v 0.330294 0.160000 0.657706
v 0.321809 0.160000 0.661220
vt 0.000000 0.000000
vt 1.000000 0.000000
vt 1.000000 1.000000
f 867/867 868/868 869/869
v 0.330294 0.179200 0.669706
v 0.321809 0.179200 0.661220
v 0.330294 0.179200 0.657706
vt 0.000000 0.000000
vt 1.000000 0.000000
vt 1.000000 1.000000
f 870/870 871/871 872/872
v 0.260000 0.160000 0.488000
v 0.268485 0.160000 0.491515
v 0.268485 0.179200 0.491515
v 0.260000 0.179200 0.488000
vt 0.000000 0.000000
vt 0.125000 0.000000
vt 0.125000 1.000000
vt 0.000000 1.000000
f 873/873 874/874 875/875 876/876
v 0.260000 0.160000 0.500000
v 0.268485 0.160000 0.491515
v 0.260000 0.160000 0.488000
vt 0.000000 0.000000
vt 1.000000 0.000000
vt 1.000000 1.000000
f 877/877 878/878 879/879
v 0.260000 0.179200 0.500000
v 0.260000 0.179200 0.488000
v 0.268485 0.179200 0.491515
vt 0.000000 0.000000
vt 1.000000 0.000000
vt 1.000000 1.000000
f 880/880 881/881 882/882
v 0.268485 0.160000 0.491515
v 0.272000 0.160000 0.500000
v 0.272000 0.179200 0.500000
v 0.268485 0.179200 0.491515
vt 0.125000 0.000000
vt 0.250000 0.000000
vt 0.250000 1.000000
vt 0.125000 1.000000
f 883/883 884/884 885/885 886/886
v 0.260000 0.160000 0.500000
v 0.272000 0.160000 0.500000
v 0.268485 0.160000 0.491515
vt 0.000000 0.000000
vt 1.000000 0.000000
vt 1.000000 1.000000
f 887/887 888/888 889/889
v 0.260000 0.179200 0.500000
v 0.268485 0.179200 0.491515
v 0.272000 0.179200 0.500000
vt 0.000000 0.000000
vt 1.000000 0.000000
vt 1.000000 1.000000
f 890/890 891/891 892/892
v 0.272000 0.160000 0.500000
v 0.268485 0.160000 0.508485
v 0.268485 0.179200 0.508485
v 0.272000 0.179200 0.500000
vt 0.250000 0.000000
vt 0.375000 0.000000
vt 0.375000 1.000000
vt 0.250000 1.000000
f 893/893 894/894 895/895 896/896
v 0.260000 0.160000 0.500000
v 0.268485 0.160000 0.508485
v 0.272000 0.160000 0.500000
vt 0.000000 0.000000
vt 1.000000 0.000000
vt 1.000000 1.000000
f 897/897 898/898 899/899
v 0.260000 0.179200 0.500000
v 0.272000 0.179200 0.500000
v 0.268485 0.179200 0.508485
vt 0.000000 0.000000
vt 1.000000 0.000000
vt 1.000000 1.000000
f 900/900 901/901 902/902
v 0.268485 0.160000 0.508485
v 0.260000 0.160000 0.512000
v 0.260000 0.179200 0.512000
v 0.268485 0.179200 0.508485
vt 0.375000 0.000000
vt 0.500000 0.000000
vt 0.500000 1.000000
vt 0.375000 1.000000
f 903/903 904/904 905/905 906/906
v 0.260000 0.160000 0.500000
v 0.260000 0.160000 0.512000
v 0.268485 0.160000 0.508485
vt 0.000000 0.000000
vt 1.000000 0.000000
vt 1.000000 1.000000
f 907/907 908/908 909/909
v 0.260000 0.179200 0.500000
v 0.268485 0.179200 0.508485
v 0.260000 0.179200 0.512000
vt 0.000000 0.000000
vt 1.000000 0.000000
vt 1.000000 1.000000
f 910/910 911/911 912/912
v 0.260000 0.160000 0.512000
v 0.251515 0.160000 0.508485
v 0.251515 0.179200 0.508485
v 0.260000 0.179200 0.512000
vt 0.500000 0.000000
vt 0.625000 0.000000
vt 0.625000 1.000000
vt 0.500000 1.000000
f 913/913 914/914 915/915 916/916
v 0.260000 0.160000 0.500000
v 0.251515 0.160000 0.508485
v 0.260000 0.160000 0.512000
vt 0.000000 0.000000
vt 1.000000 0.000000
vt 1.000000 1.000000
f 917/917 918/918 919/919
v 0.260000 0.179200 0.500000
v 0.260000 0.179200 0.512000
v 0.251515 0.179200 0.508485
vt 0.000000 0.000000
vt 1.000000 0.000000
vt 1.000000 1.000000
f 920/920 921/921 922/922
v 0.251515 0.160000 0.508485
v 0.248000 0.160000 0.500000
v 0.248000 0.179200 0.500000
v 0.251515 0.179200 0.508485
vt 0.625000 0.000000
vt 0.750000 0.000000
vt 0.750000 1.000000
vt 0.625000 1.000000
f 923/923 924/924 925/925 926/926
v 0.260000 0.160000 0.500000
v 0.248000 0.160000 0.500000
v 0.251515 0.160000 0.508485
vt 0.000000 0.000000
vt 1.000000 0.000000
vt 1.000000 1.000000
f 927/927 928/928 929/929
v 0.260000 0.179200 0.500000
v 0.251515 0.179200 0.508485
v 0.248000 0.179200 0.500000
vt 0.000000 0.000000
vt 1.000000 0.000000
vt 1.000000 1.000000
f 930/930 931/931 932/932
v 0.248000 0.160000 0.500000
v 0.251515 0.160000 0.491515
v 0.251515 0.179200 0.491515
v 0.248000 0.179200 0.500000
vt 0.750000 0.000000
vt 0.875000 0.000000
vt 0.875000 1.000000
vt 0.750000 1.000000
f 933/933 934/934 935/935 936/936
v 0.260000 0.160000 0.500000
v 0.251515 0.160000 0.491515
v 0.248000 0.160000 0.500000
vt 0.000000 0.000000
vt 1.000000 0.000000
vt 1.000000 1.000000
f 937/937 938/938 939/939
v 0.260000 0.179200 0.500000
v 0.248000 0.179200 0.500000
v 0.251515 0.179200 0.491515
vt 0.000000 0.000000
vt 1.000000 0.000000
vt 1.000000 1.000000
f 940/940 941/941 942/942
v 0.251515 0.160000 0.491515
v 0.260000 0.160000 0.488000
v 0.260000 0.179200 0.488000
v 0.251515 0.179200 0.491515
vt 0.875000 0.000000
vt 1.000000 0.000000
vt 1.000000 1.000000
vt 0.875000 1.000000
f 943/943 944/944 945/945 946/946
v 0.260000 0.160000 0.500000
v 0.260000 0.160000 0.488000
v 0.251515 0.160000 0.491515
vt 0.000000 0.000000
vt 1.000000 0.000000
vt 1.000000 1.000000
f 947/947 948/948 949/949
v 0.260000 0.179200 0.500000
v 0.251515 0.179200 0.491515
v 0.260000 0.179200 0.488000
vt 0.000000 0.000000
vt 1.000000 0.000000
vt 1.000000 1.000000
f 950/950 951/951 952/952
v 0.330294 0.160000 0.318294
v 0.338780 0.160000 0.321809
v 0.338780 0.179200 0.321809
v 0.330294 0.179200 0.318294
vt 0.000000 0.000000
vt 0.125000 0.000000
vt 0.125000 1.000000
vt 0.000000 1.000000
f 953/953 954/954 955/955 956/956
v 0.330294 0.160000 0.330294
v 0.338780 0.160000 0.321809
v 0.330294 0.160000 0.318294
vt 0.000000 0.000000
vt 1.000000 0.000000
vt 1.000000 1.000000
f 957/957 958/958 959/959
v 0.330294 0.179200 0.330294
v 0.330294 0.179200 0.318294
v 0.338780 0.179200 0.321809
vt 0.000000 0.000000
vt 1.000000 0.000000
vt 1.000000 1.000000
f 960/960 961/961 962/962
v 0.338780 0.160000 0.321809
v 0.342294 0.160000 0.330294
v 0.342294 0.179200 0.330294
v 0.338780 0.179200 0.321809
vt 0.125000 0.000000
vt 0.250000 0.000000
vt 0.250000 1.000000
vt 0.125000 1.000000
f 963/963 964/964 965/965 966/966
v 0.330294 0.160000 0.330294
v 0.342294 0.160000 0.330294
v 0.338780 0.160000 0.321809
vt 0.000000 0.000000
vt 1.000000 0.000000
vt 1.000000 1.000000
f 967/967 968/968 969/969
v 0.330294 0.179200 0.330294
v 0.338780 0.179200 0.321809
v 0.342294 0.179200 0.330294
vt 0.000000 0.000000
vt 1.000000 0.000000
vt 1.000000 1.000000
f 970/970 971/971 972/972
v 0.342294 0.160000 0.330294
v 0.338780 0.160000 0.338780
v 0.338780 0.179200 0.338780
v 0.342294 0.179200 0.330294
vt 0.250000 0.000000
vt 0.375000 0.000000
vt 0.375000 1.000000
vt 0.250000 1.000000
f 973/973 974/974 975/975 976/976
v 0.330294 0.160000 0.330294
v 0.338780 0.160000 0.338780
v 0.342294 0.160000 0.330294
vt 0.000000 0.000000
vt 1.000000 0.000000
vt 1.000000 1.000000
f 977/977 978/978 979/979
v 0.330294 0.179200 0.330294
v 0.342294 0.179200 0.330294
v 0.338780 0.179200 0.338780
vt 0.000000 0.000000
vt 1.000000 0.000000
vt 1.000000 1.000000
f 980/980 981/981 982/982
v 0.338780 0.160000 0.338780
v 0.330294 0.160000 0.342294
v 0.330294 0.179200 0.342294
v 0.338780 0.179200 0.338780
vt 0.375000 0.000000
vt 0.500000 0.000000
vt 0.500000 1.000000
vt 0.375000 1.000000
f 983/983 984/984 985/985 986/986
v 0.330294 0.160000 0.330294
v 0.330294 0.160000 0.342294
v 0.338780 0.160000 0.338780
vt 0.000000 0.000000
vt 1.000000 0.000000
vt 1.000000 1.000000
f 987/987 988/988 989/989
v 0.330294 0.179200 0.330294
v 0.338780 0.179200 0.338780
v 0.330294 0.179200 0.342294
vt 0.000000 0.000000
vt 1.000000 0.000000
vt 1.000000 1.000000
f 990/990 991/991 992/992
v 0.330294 0.160000 0.342294
v 0.321809 0.160000 0.338780
v 0.321809 0.179200 0.338780
v 0.330294 0.179200 0.342294
vt 0.500000 0.000000
vt 0.625000 0.000000
vt 0.625000 1.000000
vt 0.500000 1.000000
f 993/993 994/994 995/995 996/996
v 0.330294 0.160000 0.330294
v 0.321809 0.160000 0.338780
v 0.330294 0.160000 0.342294
vt 0.000000 0.000000
vt 1.000000 0.000000
vt 1.000000 1.000000
f 997/997 998/998 999/999
v 0.330294 0.179200 0.330294
v 0.330294 0.179200 0.342294
v 0.321809 0.179200 0.338780
vt 0.000000 0.000000
vt 1.000000 0.000000
vt 1.000000 1.000000
f 1000/1000 1001/1001 1002/1002
v 0.321809 0.160000 0.338780
v 0.318294 0.160000 0.330294
v 0.318294 0.179200 0.330294
v 0.321809 0.179200 0.338780
vt 0.625000 0.000000
vt 0.750000 0.000000
vt 0.750000 1.000000
vt 0.625000 1.000000
f 1003/1003 1004/1004 1005/1005 1006/1006
v 0.330294 0.160000 0.330294
v 0.318294 0.160000 0.330294
v 0.321809 0.160000 0.338780
vt 0.000000 0.000000
vt 1.000000 0.000000
vt 1.000000 1.000000
f 1007/1007 1008/1008 1009/1009
v 0.330294 0.179200 0.330294
v 0.321809 0.179200 0.338780
v 0.318294 0.179200 0.330294
vt 0.000000 0.000000
vt 1.000000 0.000000
vt 1.000000 1.000000
f 1010/1010 1011/1011 1012/1012
v 0.318294 0.160000 0.330294
v 0.321809 0.160000 0.321809
v 0.321809 0.179200 0.321809
v 0.318294 0.179200 0.330294
vt 0.750000 0.000000
vt 0.875000 0.000000
vt 0.875000 1.000000
vt 0.750000 1.000000
f 1013/1013 1014/1014 1015/1015 1016/1016
v 0.330294 0.160000 0.330294
v 0.321809 0.160000 0.321809
v 0.318294 0.160000 0.330294
vt 0.000000 0.000000
vt 1.000000 0.000000
vt 1.000000 1.000000
f 1017/1017 1018/1018 1019/1019
v 0.330294 0.179200 0.330294
v 0.318294 0.179200 0.330294
v 0.321809 0.179200 0.321809
vt 0.000000 0.000000
vt 1.000000 0.000000
vt 1.000000 1.000000
f 1020/1020 1021/1021 1022/1022
v 0.321809 0.160000 0.321809
v 0.330294 0.160000 0.318294
v 0.330294 0.179200 0.318294
v 0.321809 0.179200 0.321809
vt 0.875000 0.000000
vt 1.000000 0.000000
vt 1.000000 1.000000
vt 0.875000 1.000000
f 1023/1023 1024/1024 1025/1025 1026/1026
v 0.330294 0.160000 0.330294
v 0.330294 0.160000 0.318294
v 0.321809 0.160000 0.321809
vt 0.000000 0.000000
vt 1.000000 0.000000
vt 1.000000 1.000000
f 1027/1027 1028/1028 1029/1029
v 0.330294 0.179200 0.330294
v 0.321809 0.179200 0.321809
v 0.330294 0.179200 0.318294
vt 0.000000 0.000000
vt 1.000000 0.000000
vt 1.000000 1.000000
f 1030/1030 1031/1031 1032/1032
