mtllib perk_workbench.mtl
o perk_workbench
s 1
usemtl dark
v 0.020000 0.000000 0.020000
v 0.980000 0.000000 0.020000
v 0.980000 0.140000 0.020000
v 0.020000 0.140000 0.020000
vt 0.000000 0.000000
vt 1.000000 0.000000
vt 1.000000 1.000000
vt 0.000000 1.000000
f 1/1 2/2 3/3 4/4
v 0.980000 0.000000 0.980000
v 0.020000 0.000000 0.980000
v 0.020000 0.140000 0.980000
v 0.980000 0.140000 0.980000
vt 0.000000 0.000000
vt 1.000000 0.000000
vt 1.000000 1.000000
vt 0.000000 1.000000
f 5/5 6/6 7/7 8/8
v 0.020000 0.000000 0.980000
v 0.020000 0.000000 0.020000
v 0.020000 0.140000 0.020000
v 0.020000 0.140000 0.980000
vt 0.000000 0.000000
vt 1.000000 0.000000
vt 1.000000 1.000000
vt 0.000000 1.000000
f 9/9 10/10 11/11 12/12
v 0.980000 0.000000 0.020000
v 0.980000 0.000000 0.980000
v 0.980000 0.140000 0.980000
v 0.980000 0.140000 0.020000
vt 0.000000 0.000000
vt 1.000000 0.000000
vt 1.000000 1.000000
vt 0.000000 1.000000
f 13/13 14/14 15/15 16/16
v 0.020000 0.140000 0.020000
v 0.980000 0.140000 0.020000
v 0.980000 0.140000 0.980000
v 0.020000 0.140000 0.980000
vt 0.000000 0.000000
vt 1.000000 0.000000
vt 1.000000 1.000000
vt 0.000000 1.000000
f 17/17 18/18 19/19 20/20
v 0.020000 0.000000 0.980000
v 0.980000 0.000000 0.980000
v 0.980000 0.000000 0.020000
v 0.020000 0.000000 0.020000
vt 0.000000 0.000000
vt 1.000000 0.000000
vt 1.000000 1.000000
vt 0.000000 1.000000
f 21/21 22/22 23/23 24/24
usemtl olive
v 0.080000 0.140000 0.080000
v 0.920000 0.140000 0.080000
v 0.920000 0.920000 0.080000
v 0.080000 0.920000 0.080000
vt 0.000000 0.000000
vt 1.000000 0.000000
vt 1.000000 1.000000
vt 0.000000 1.000000
f 25/25 26/26 27/27 28/28
v 0.920000 0.140000 0.920000
v 0.080000 0.140000 0.920000
v 0.080000 0.920000 0.920000
v 0.920000 0.920000 0.920000
vt 0.000000 0.000000
vt 1.000000 0.000000
vt 1.000000 1.000000
vt 0.000000 1.000000
f 29/29 30/30 31/31 32/32
v 0.080000 0.140000 0.920000
v 0.080000 0.140000 0.080000
v 0.080000 0.920000 0.080000
v 0.080000 0.920000 0.920000
vt 0.000000 0.000000
vt 1.000000 0.000000
vt 1.000000 1.000000
vt 0.000000 1.000000
f 33/33 34/34 35/35 36/36
v 0.920000 0.140000 0.080000
v 0.920000 0.140000 0.920000
v 0.920000 0.920000 0.920000
v 0.920000 0.920000 0.080000
vt 0.000000 0.000000
vt 1.000000 0.000000
vt 1.000000 1.000000
vt 0.000000 1.000000
f 37/37 38/38 39/39 40/40
v 0.080000 0.920000 0.080000
v 0.920000 0.920000 0.080000
v 0.920000 0.920000 0.920000
v 0.080000 0.920000 0.920000
vt 0.000000 0.000000
vt 1.000000 0.000000
vt 1.000000 1.000000
vt 0.000000 1.000000
f 41/41 42/42 43/43 44/44
v 0.080000 0.140000 0.920000
v 0.920000 0.140000 0.920000
v 0.920000 0.140000 0.080000
v 0.080000 0.140000 0.080000
vt 0.000000 0.000000
vt 1.000000 0.000000
vt 1.000000 1.000000
vt 0.000000 1.000000
f 45/45 46/46 47/47 48/48
usemtl body
v 0.040000 0.920000 0.040000
v 0.960000 0.920000 0.040000
v 0.960000 1.020000 0.040000
v 0.040000 1.020000 0.040000
vt 0.000000 0.000000
vt 1.000000 0.000000
vt 1.000000 1.000000
vt 0.000000 1.000000
f 49/49 50/50 51/51 52/52
v 0.960000 0.920000 0.960000
v 0.040000 0.920000 0.960000
v 0.040000 1.020000 0.960000
v 0.960000 1.020000 0.960000
vt 0.000000 0.000000
vt 1.000000 0.000000
vt 1.000000 1.000000
vt 0.000000 1.000000
f 53/53 54/54 55/55 56/56
v 0.040000 0.920000 0.960000
v 0.040000 0.920000 0.040000
v 0.040000 1.020000 0.040000
v 0.040000 1.020000 0.960000
vt 0.000000 0.000000
vt 1.000000 0.000000
vt 1.000000 1.000000
vt 0.000000 1.000000
f 57/57 58/58 59/59 60/60
v 0.960000 0.920000 0.040000
v 0.960000 0.920000 0.960000
v 0.960000 1.020000 0.960000
v 0.960000 1.020000 0.040000
vt 0.000000 0.000000
vt 1.000000 0.000000
vt 1.000000 1.000000
vt 0.000000 1.000000
f 61/61 62/62 63/63 64/64
v 0.040000 1.020000 0.040000
v 0.960000 1.020000 0.040000
v 0.960000 1.020000 0.960000
v 0.040000 1.020000 0.960000
vt 0.000000 0.000000
vt 1.000000 0.000000
vt 1.000000 1.000000
vt 0.000000 1.000000
f 65/65 66/66 67/67 68/68
v 0.040000 0.920000 0.960000
v 0.960000 0.920000 0.960000
v 0.960000 0.920000 0.040000
v 0.040000 0.920000 0.040000
vt 0.000000 0.000000
vt 1.000000 0.000000
vt 1.000000 1.000000
vt 0.000000 1.000000
f 69/69 70/70 71/71 72/72
usemtl navy
v 0.120000 1.020000 0.180000
v 0.880000 1.020000 0.180000
v 0.880000 1.380000 0.180000
v 0.120000 1.380000 0.180000
vt 0.000000 0.000000
vt 1.000000 0.000000
vt 1.000000 1.000000
vt 0.000000 1.000000
f 73/73 74/74 75/75 76/76
v 0.880000 1.020000 0.420000
v 0.120000 1.020000 0.420000
v 0.120000 1.380000 0.420000
v 0.880000 1.380000 0.420000
vt 0.000000 0.000000
vt 1.000000 0.000000
vt 1.000000 1.000000
vt 0.000000 1.000000
f 77/77 78/78 79/79 80/80
v 0.120000 1.020000 0.420000
v 0.120000 1.020000 0.180000
v 0.120000 1.380000 0.180000
v 0.120000 1.380000 0.420000
vt 0.000000 0.000000
vt 1.000000 0.000000
vt 1.000000 1.000000
vt 0.000000 1.000000
f 81/81 82/82 83/83 84/84
v 0.880000 1.020000 0.180000
v 0.880000 1.020000 0.420000
v 0.880000 1.380000 0.420000
v 0.880000 1.380000 0.180000
vt 0.000000 0.000000
vt 1.000000 0.000000
vt 1.000000 1.000000
vt 0.000000 1.000000
f 85/85 86/86 87/87 88/88
v 0.120000 1.380000 0.180000
v 0.880000 1.380000 0.180000
v 0.880000 1.380000 0.420000
v 0.120000 1.380000 0.420000
vt 0.000000 0.000000
vt 1.000000 0.000000
vt 1.000000 1.000000
vt 0.000000 1.000000
f 89/89 90/90 91/91 92/92
v 0.120000 1.020000 0.420000
v 0.880000 1.020000 0.420000
v 0.880000 1.020000 0.180000
v 0.120000 1.020000 0.180000
vt 0.000000 0.000000
vt 1.000000 0.000000
vt 1.000000 1.000000
vt 0.000000 1.000000
f 93/93 94/94 95/95 96/96
usemtl glass
v 0.180000 1.100000 0.220000
v 0.820000 1.100000 0.220000
v 0.820000 1.320000 0.220000
v 0.180000 1.320000 0.220000
vt 0.000000 0.000000
vt 1.000000 0.000000
vt 1.000000 1.000000
vt 0.000000 1.000000
f 97/97 98/98 99/99 100/100
v 0.820000 1.100000 0.280000
v 0.180000 1.100000 0.280000
v 0.180000 1.320000 0.280000
v 0.820000 1.320000 0.280000
vt 0.000000 0.000000
vt 1.000000 0.000000
vt 1.000000 1.000000
vt 0.000000 1.000000
f 101/101 102/102 103/103 104/104
v 0.180000 1.100000 0.280000
v 0.180000 1.100000 0.220000
v 0.180000 1.320000 0.220000
v 0.180000 1.320000 0.280000
vt 0.000000 0.000000
vt 1.000000 0.000000
vt 1.000000 1.000000
vt 0.000000 1.000000
f 105/105 106/106 107/107 108/108
v 0.820000 1.100000 0.220000
v 0.820000 1.100000 0.280000
v 0.820000 1.320000 0.280000
v 0.820000 1.320000 0.220000
vt 0.000000 0.000000
vt 1.000000 0.000000
vt 1.000000 1.000000
vt 0.000000 1.000000
f 109/109 110/110 111/111 112/112
v 0.180000 1.320000 0.220000
v 0.820000 1.320000 0.220000
v 0.820000 1.320000 0.280000
v 0.180000 1.320000 0.280000
vt 0.000000 0.000000
vt 1.000000 0.000000
vt 1.000000 1.000000
vt 0.000000 1.000000
f 113/113 114/114 115/115 116/116
v 0.180000 1.100000 0.280000
v 0.820000 1.100000 0.280000
v 0.820000 1.100000 0.220000
v 0.180000 1.100000 0.220000
vt 0.000000 0.000000
vt 1.000000 0.000000
vt 1.000000 1.000000
vt 0.000000 1.000000
f 117/117 118/118 119/119 120/120
usemtl dark
v 0.140000 1.020000 0.500000
v 0.460000 1.020000 0.500000
v 0.460000 1.220000 0.500000
v 0.140000 1.220000 0.500000
vt 0.000000 0.000000
vt 1.000000 0.000000
vt 1.000000 1.000000
vt 0.000000 1.000000
f 121/121 122/122 123/123 124/124
v 0.460000 1.020000 0.860000
v 0.140000 1.020000 0.860000
v 0.140000 1.220000 0.860000
v 0.460000 1.220000 0.860000
vt 0.000000 0.000000
vt 1.000000 0.000000
vt 1.000000 1.000000
vt 0.000000 1.000000
f 125/125 126/126 127/127 128/128
v 0.140000 1.020000 0.860000
v 0.140000 1.020000 0.500000
v 0.140000 1.220000 0.500000
v 0.140000 1.220000 0.860000
vt 0.000000 0.000000
vt 1.000000 0.000000
vt 1.000000 1.000000
vt 0.000000 1.000000
f 129/129 130/130 131/131 132/132
v 0.460000 1.020000 0.500000
v 0.460000 1.020000 0.860000
v 0.460000 1.220000 0.860000
v 0.460000 1.220000 0.500000
vt 0.000000 0.000000
vt 1.000000 0.000000
vt 1.000000 1.000000
vt 0.000000 1.000000
f 133/133 134/134 135/135 136/136
v 0.140000 1.220000 0.500000
v 0.460000 1.220000 0.500000
v 0.460000 1.220000 0.860000
v 0.140000 1.220000 0.860000
vt 0.000000 0.000000
vt 1.000000 0.000000
vt 1.000000 1.000000
vt 0.000000 1.000000
f 137/137 138/138 139/139 140/140
v 0.140000 1.020000 0.860000
v 0.460000 1.020000 0.860000
v 0.460000 1.020000 0.500000
v 0.140000 1.020000 0.500000
vt 0.000000 0.000000
vt 1.000000 0.000000
vt 1.000000 1.000000
vt 0.000000 1.000000
f 141/141 142/142 143/143 144/144
usemtl yellow
v 0.540000 1.020000 0.500000
v 0.860000 1.020000 0.500000
v 0.860000 1.180000 0.500000
v 0.540000 1.180000 0.500000
vt 0.000000 0.000000
vt 1.000000 0.000000
vt 1.000000 1.000000
vt 0.000000 1.000000
f 145/145 146/146 147/147 148/148
v 0.860000 1.020000 0.860000
v 0.540000 1.020000 0.860000
v 0.540000 1.180000 0.860000
v 0.860000 1.180000 0.860000
vt 0.000000 0.000000
vt 1.000000 0.000000
vt 1.000000 1.000000
vt 0.000000 1.000000
f 149/149 150/150 151/151 152/152
v 0.540000 1.020000 0.860000
v 0.540000 1.020000 0.500000
v 0.540000 1.180000 0.500000
v 0.540000 1.180000 0.860000
vt 0.000000 0.000000
vt 1.000000 0.000000
vt 1.000000 1.000000
vt 0.000000 1.000000
f 153/153 154/154 155/155 156/156
v 0.860000 1.020000 0.500000
v 0.860000 1.020000 0.860000
v 0.860000 1.180000 0.860000
v 0.860000 1.180000 0.500000
vt 0.000000 0.000000
vt 1.000000 0.000000
vt 1.000000 1.000000
vt 0.000000 1.000000
f 157/157 158/158 159/159 160/160
v 0.540000 1.180000 0.500000
v 0.860000 1.180000 0.500000
v 0.860000 1.180000 0.860000
v 0.540000 1.180000 0.860000
vt 0.000000 0.000000
vt 1.000000 0.000000
vt 1.000000 1.000000
vt 0.000000 1.000000
f 161/161 162/162 163/163 164/164
v 0.540000 1.020000 0.860000
v 0.860000 1.020000 0.860000
v 0.860000 1.020000 0.500000
v 0.540000 1.020000 0.500000
vt 0.000000 0.000000
vt 1.000000 0.000000
vt 1.000000 1.000000
vt 0.000000 1.000000
f 165/165 166/166 167/167 168/168
usemtl accent
v 0.220000 1.020000 0.190000
v 0.241213 1.020000 0.198787
v 0.241213 1.480000 0.198787
v 0.220000 1.480000 0.190000
vt 0.000000 0.000000
vt 0.125000 0.000000
vt 0.125000 1.000000
vt 0.000000 1.000000
f 169/169 170/170 171/171 172/172
v 0.220000 1.020000 0.220000
v 0.241213 1.020000 0.198787
v 0.220000 1.020000 0.190000
vt 0.000000 0.000000
vt 1.000000 0.000000
vt 1.000000 1.000000
f 173/173 174/174 175/175
v 0.220000 1.480000 0.220000
v 0.220000 1.480000 0.190000
v 0.241213 1.480000 0.198787
vt 0.000000 0.000000
vt 1.000000 0.000000
vt 1.000000 1.000000
f 176/176 177/177 178/178
v 0.241213 1.020000 0.198787
v 0.250000 1.020000 0.220000
v 0.250000 1.480000 0.220000
v 0.241213 1.480000 0.198787
vt 0.125000 0.000000
vt 0.250000 0.000000
vt 0.250000 1.000000
vt 0.125000 1.000000
f 179/179 180/180 181/181 182/182
v 0.220000 1.020000 0.220000
v 0.250000 1.020000 0.220000
v 0.241213 1.020000 0.198787
vt 0.000000 0.000000
vt 1.000000 0.000000
vt 1.000000 1.000000
f 183/183 184/184 185/185
v 0.220000 1.480000 0.220000
v 0.241213 1.480000 0.198787
v 0.250000 1.480000 0.220000
vt 0.000000 0.000000
vt 1.000000 0.000000
vt 1.000000 1.000000
f 186/186 187/187 188/188
v 0.250000 1.020000 0.220000
v 0.241213 1.020000 0.241213
v 0.241213 1.480000 0.241213
v 0.250000 1.480000 0.220000
vt 0.250000 0.000000
vt 0.375000 0.000000
vt 0.375000 1.000000
vt 0.250000 1.000000
f 189/189 190/190 191/191 192/192
v 0.220000 1.020000 0.220000
v 0.241213 1.020000 0.241213
v 0.250000 1.020000 0.220000
vt 0.000000 0.000000
vt 1.000000 0.000000
vt 1.000000 1.000000
f 193/193 194/194 195/195
v 0.220000 1.480000 0.220000
v 0.250000 1.480000 0.220000
v 0.241213 1.480000 0.241213
vt 0.000000 0.000000
vt 1.000000 0.000000
vt 1.000000 1.000000
f 196/196 197/197 198/198
v 0.241213 1.020000 0.241213
v 0.220000 1.020000 0.250000
v 0.220000 1.480000 0.250000
v 0.241213 1.480000 0.241213
vt 0.375000 0.000000
vt 0.500000 0.000000
vt 0.500000 1.000000
vt 0.375000 1.000000
f 199/199 200/200 201/201 202/202
v 0.220000 1.020000 0.220000
v 0.220000 1.020000 0.250000
v 0.241213 1.020000 0.241213
vt 0.000000 0.000000
vt 1.000000 0.000000
vt 1.000000 1.000000
f 203/203 204/204 205/205
v 0.220000 1.480000 0.220000
v 0.241213 1.480000 0.241213
v 0.220000 1.480000 0.250000
vt 0.000000 0.000000
vt 1.000000 0.000000
vt 1.000000 1.000000
f 206/206 207/207 208/208
v 0.220000 1.020000 0.250000
v 0.198787 1.020000 0.241213
v 0.198787 1.480000 0.241213
v 0.220000 1.480000 0.250000
vt 0.500000 0.000000
vt 0.625000 0.000000
vt 0.625000 1.000000
vt 0.500000 1.000000
f 209/209 210/210 211/211 212/212
v 0.220000 1.020000 0.220000
v 0.198787 1.020000 0.241213
v 0.220000 1.020000 0.250000
vt 0.000000 0.000000
vt 1.000000 0.000000
vt 1.000000 1.000000
f 213/213 214/214 215/215
v 0.220000 1.480000 0.220000
v 0.220000 1.480000 0.250000
v 0.198787 1.480000 0.241213
vt 0.000000 0.000000
vt 1.000000 0.000000
vt 1.000000 1.000000
f 216/216 217/217 218/218
v 0.198787 1.020000 0.241213
v 0.190000 1.020000 0.220000
v 0.190000 1.480000 0.220000
v 0.198787 1.480000 0.241213
vt 0.625000 0.000000
vt 0.750000 0.000000
vt 0.750000 1.000000
vt 0.625000 1.000000
f 219/219 220/220 221/221 222/222
v 0.220000 1.020000 0.220000
v 0.190000 1.020000 0.220000
v 0.198787 1.020000 0.241213
vt 0.000000 0.000000
vt 1.000000 0.000000
vt 1.000000 1.000000
f 223/223 224/224 225/225
v 0.220000 1.480000 0.220000
v 0.198787 1.480000 0.241213
v 0.190000 1.480000 0.220000
vt 0.000000 0.000000
vt 1.000000 0.000000
vt 1.000000 1.000000
f 226/226 227/227 228/228
v 0.190000 1.020000 0.220000
v 0.198787 1.020000 0.198787
v 0.198787 1.480000 0.198787
v 0.190000 1.480000 0.220000
vt 0.750000 0.000000
vt 0.875000 0.000000
vt 0.875000 1.000000
vt 0.750000 1.000000
f 229/229 230/230 231/231 232/232
v 0.220000 1.020000 0.220000
v 0.198787 1.020000 0.198787
v 0.190000 1.020000 0.220000
vt 0.000000 0.000000
vt 1.000000 0.000000
vt 1.000000 1.000000
f 233/233 234/234 235/235
v 0.220000 1.480000 0.220000
v 0.190000 1.480000 0.220000
v 0.198787 1.480000 0.198787
vt 0.000000 0.000000
vt 1.000000 0.000000
vt 1.000000 1.000000
f 236/236 237/237 238/238
v 0.198787 1.020000 0.198787
v 0.220000 1.020000 0.190000
v 0.220000 1.480000 0.190000
v 0.198787 1.480000 0.198787
vt 0.875000 0.000000
vt 1.000000 0.000000
vt 1.000000 1.000000
vt 0.875000 1.000000
f 239/239 240/240 241/241 242/242
v 0.220000 1.020000 0.220000
v 0.220000 1.020000 0.190000
v 0.198787 1.020000 0.198787
vt 0.000000 0.000000
vt 1.000000 0.000000
vt 1.000000 1.000000
f 243/243 244/244 245/245
v 0.220000 1.480000 0.220000
v 0.198787 1.480000 0.198787
v 0.220000 1.480000 0.190000
vt 0.000000 0.000000
vt 1.000000 0.000000
vt 1.000000 1.000000
f 246/246 247/247 248/248
usemtl dark
v 0.200000 0.300000 0.000000
v 0.800000 0.300000 0.000000
v 0.800000 0.820000 0.000000
v 0.200000 0.820000 0.000000
vt 0.000000 0.000000
vt 1.000000 0.000000
vt 1.000000 1.000000
vt 0.000000 1.000000
f 249/249 250/250 251/251 252/252
v 0.800000 0.300000 0.100000
v 0.200000 0.300000 0.100000
v 0.200000 0.820000 0.100000
v 0.800000 0.820000 0.100000
vt 0.000000 0.000000
vt 1.000000 0.000000
vt 1.000000 1.000000
vt 0.000000 1.000000
f 253/253 254/254 255/255 256/256
v 0.200000 0.300000 0.100000
v 0.200000 0.300000 0.000000
v 0.200000 0.820000 0.000000
v 0.200000 0.820000 0.100000
vt 0.000000 0.000000
vt 1.000000 0.000000
vt 1.000000 1.000000
vt 0.000000 1.000000
f 257/257 258/258 259/259 260/260
v 0.800000 0.300000 0.000000
v 0.800000 0.300000 0.100000
v 0.800000 0.820000 0.100000
v 0.800000 0.820000 0.000000
vt 0.000000 0.000000
vt 1.000000 0.000000
vt 1.000000 1.000000
vt 0.000000 1.000000
f 261/261 262/262 263/263 264/264
v 0.200000 0.820000 0.000000
v 0.800000 0.820000 0.000000
v 0.800000 0.820000 0.100000
v 0.200000 0.820000 0.100000
vt 0.000000 0.000000
vt 1.000000 0.000000
vt 1.000000 1.000000
vt 0.000000 1.000000
f 265/265 266/266 267/267 268/268
v 0.200000 0.300000 0.100000
v 0.800000 0.300000 0.100000
v 0.800000 0.300000 0.000000
v 0.200000 0.300000 0.000000
vt 0.000000 0.000000
vt 1.000000 0.000000
vt 1.000000 1.000000
vt 0.000000 1.000000
f 269/269 270/270 271/271 272/272
usemtl glass
v 0.280000 0.400000 0.100000
v 0.720000 0.400000 0.100000
v 0.720000 0.700000 0.100000
v 0.280000 0.700000 0.100000
vt 0.000000 0.000000
vt 1.000000 0.000000
vt 1.000000 1.000000
vt 0.000000 1.000000
f 273/273 274/274 275/275 276/276
v 0.720000 0.400000 0.160000
v 0.280000 0.400000 0.160000
v 0.280000 0.700000 0.160000
v 0.720000 0.700000 0.160000
vt 0.000000 0.000000
vt 1.000000 0.000000
vt 1.000000 1.000000
vt 0.000000 1.000000
f 277/277 278/278 279/279 280/280
v 0.280000 0.400000 0.160000
v 0.280000 0.400000 0.100000
v 0.280000 0.700000 0.100000
v 0.280000 0.700000 0.160000
vt 0.000000 0.000000
vt 1.000000 0.000000
vt 1.000000 1.000000
vt 0.000000 1.000000
f 281/281 282/282 283/283 284/284
v 0.720000 0.400000 0.100000
v 0.720000 0.400000 0.160000
v 0.720000 0.700000 0.160000
v 0.720000 0.700000 0.100000
vt 0.000000 0.000000
vt 1.000000 0.000000
vt 1.000000 1.000000
vt 0.000000 1.000000
f 285/285 286/286 287/287 288/288
v 0.280000 0.700000 0.100000
v 0.720000 0.700000 0.100000
v 0.720000 0.700000 0.160000
v 0.280000 0.700000 0.160000
vt 0.000000 0.000000
vt 1.000000 0.000000
vt 1.000000 1.000000
vt 0.000000 1.000000
f 289/289 290/290 291/291 292/292
v 0.280000 0.400000 0.160000
v 0.720000 0.400000 0.160000
v 0.720000 0.400000 0.100000
v 0.280000 0.400000 0.100000
vt 0.000000 0.000000
vt 1.000000 0.000000
vt 1.000000 1.000000
vt 0.000000 1.000000
f 293/293 294/294 295/295 296/296
usemtl yellow
v 0.500000 0.140000 0.066000
v 0.509899 0.140000 0.070101
v 0.509899 0.162400 0.070101
v 0.500000 0.162400 0.066000
vt 0.000000 0.000000
vt 0.125000 0.000000
vt 0.125000 1.000000
vt 0.000000 1.000000
f 297/297 298/298 299/299 300/300
v 0.500000 0.140000 0.080000
v 0.509899 0.140000 0.070101
v 0.500000 0.140000 0.066000
vt 0.000000 0.000000
vt 1.000000 0.000000
vt 1.000000 1.000000
f 301/301 302/302 303/303
v 0.500000 0.162400 0.080000
v 0.500000 0.162400 0.066000
v 0.509899 0.162400 0.070101
vt 0.000000 0.000000
vt 1.000000 0.000000
vt 1.000000 1.000000
f 304/304 305/305 306/306
v 0.509899 0.140000 0.070101
v 0.514000 0.140000 0.080000
v 0.514000 0.162400 0.080000
v 0.509899 0.162400 0.070101
vt 0.125000 0.000000
vt 0.250000 0.000000
vt 0.250000 1.000000
vt 0.125000 1.000000
f 307/307 308/308 309/309 310/310
v 0.500000 0.140000 0.080000
v 0.514000 0.140000 0.080000
v 0.509899 0.140000 0.070101
vt 0.000000 0.000000
vt 1.000000 0.000000
vt 1.000000 1.000000
f 311/311 312/312 313/313
v 0.500000 0.162400 0.080000
v 0.509899 0.162400 0.070101
v 0.514000 0.162400 0.080000
vt 0.000000 0.000000
vt 1.000000 0.000000
vt 1.000000 1.000000
f 314/314 315/315 316/316
v 0.514000 0.140000 0.080000
v 0.509899 0.140000 0.089899
v 0.509899 0.162400 0.089899
v 0.514000 0.162400 0.080000
vt 0.250000 0.000000
vt 0.375000 0.000000
vt 0.375000 1.000000
vt 0.250000 1.000000
f 317/317 318/318 319/319 320/320
v 0.500000 0.140000 0.080000
v 0.509899 0.140000 0.089899
v 0.514000 0.140000 0.080000
vt 0.000000 0.000000
vt 1.000000 0.000000
vt 1.000000 1.000000
f 321/321 322/322 323/323
v 0.500000 0.162400 0.080000
v 0.514000 0.162400 0.080000
v 0.509899 0.162400 0.089899
vt 0.000000 0.000000
vt 1.000000 0.000000
vt 1.000000 1.000000
f 324/324 325/325 326/326
v 0.509899 0.140000 0.089899
v 0.500000 0.140000 0.094000
v 0.500000 0.162400 0.094000
v 0.509899 0.162400 0.089899
vt 0.375000 0.000000
vt 0.500000 0.000000
vt 0.500000 1.000000
vt 0.375000 1.000000
f 327/327 328/328 329/329 330/330
v 0.500000 0.140000 0.080000
v 0.500000 0.140000 0.094000
v 0.509899 0.140000 0.089899
vt 0.000000 0.000000
vt 1.000000 0.000000
vt 1.000000 1.000000
f 331/331 332/332 333/333
v 0.500000 0.162400 0.080000
v 0.509899 0.162400 0.089899
v 0.500000 0.162400 0.094000
vt 0.000000 0.000000
vt 1.000000 0.000000
vt 1.000000 1.000000
f 334/334 335/335 336/336
v 0.500000 0.140000 0.094000
v 0.490101 0.140000 0.089899
v 0.490101 0.162400 0.089899
v 0.500000 0.162400 0.094000
vt 0.500000 0.000000
vt 0.625000 0.000000
vt 0.625000 1.000000
vt 0.500000 1.000000
f 337/337 338/338 339/339 340/340
v 0.500000 0.140000 0.080000
v 0.490101 0.140000 0.089899
v 0.500000 0.140000 0.094000
vt 0.000000 0.000000
vt 1.000000 0.000000
vt 1.000000 1.000000
f 341/341 342/342 343/343
v 0.500000 0.162400 0.080000
v 0.500000 0.162400 0.094000
v 0.490101 0.162400 0.089899
vt 0.000000 0.000000
vt 1.000000 0.000000
vt 1.000000 1.000000
f 344/344 345/345 346/346
v 0.490101 0.140000 0.089899
v 0.486000 0.140000 0.080000
v 0.486000 0.162400 0.080000
v 0.490101 0.162400 0.089899
vt 0.625000 0.000000
vt 0.750000 0.000000
vt 0.750000 1.000000
vt 0.625000 1.000000
f 347/347 348/348 349/349 350/350
v 0.500000 0.140000 0.080000
v 0.486000 0.140000 0.080000
v 0.490101 0.140000 0.089899
vt 0.000000 0.000000
vt 1.000000 0.000000
vt 1.000000 1.000000
f 351/351 352/352 353/353
v 0.500000 0.162400 0.080000
v 0.490101 0.162400 0.089899
v 0.486000 0.162400 0.080000
vt 0.000000 0.000000
vt 1.000000 0.000000
vt 1.000000 1.000000
f 354/354 355/355 356/356
v 0.486000 0.140000 0.080000
v 0.490101 0.140000 0.070101
v 0.490101 0.162400 0.070101
v 0.486000 0.162400 0.080000
vt 0.750000 0.000000
vt 0.875000 0.000000
vt 0.875000 1.000000
vt 0.750000 1.000000
f 357/357 358/358 359/359 360/360
v 0.500000 0.140000 0.080000
v 0.490101 0.140000 0.070101
v 0.486000 0.140000 0.080000
vt 0.000000 0.000000
vt 1.000000 0.000000
vt 1.000000 1.000000
f 361/361 362/362 363/363
v 0.500000 0.162400 0.080000
v 0.486000 0.162400 0.080000
v 0.490101 0.162400 0.070101
vt 0.000000 0.000000
vt 1.000000 0.000000
vt 1.000000 1.000000
f 364/364 365/365 366/366
v 0.490101 0.140000 0.070101
v 0.500000 0.140000 0.066000
v 0.500000 0.162400 0.066000
v 0.490101 0.162400 0.070101
vt 0.875000 0.000000
vt 1.000000 0.000000
vt 1.000000 1.000000
vt 0.875000 1.000000
f 367/367 368/368 369/369 370/370
v 0.500000 0.140000 0.080000
v 0.500000 0.140000 0.066000
v 0.490101 0.140000 0.070101
vt 0.000000 0.000000
vt 1.000000 0.000000
vt 1.000000 1.000000
f 371/371 372/372 373/373
v 0.500000 0.162400 0.080000
v 0.490101 0.162400 0.070101
v 0.500000 0.162400 0.066000
vt 0.000000 0.000000
vt 1.000000 0.000000
vt 1.000000 1.000000
f 374/374 375/375 376/376
v 0.796985 0.140000 0.189015
v 0.806884 0.140000 0.193116
v 0.806884 0.162400 0.193116
v 0.796985 0.162400 0.189015
vt 0.000000 0.000000
vt 0.125000 0.000000
vt 0.125000 1.000000
vt 0.000000 1.000000
f 377/377 378/378 379/379 380/380
v 0.796985 0.140000 0.203015
v 0.806884 0.140000 0.193116
v 0.796985 0.140000 0.189015
vt 0.000000 0.000000
vt 1.000000 0.000000
vt 1.000000 1.000000
f 381/381 382/382 383/383
v 0.796985 0.162400 0.203015
v 0.796985 0.162400 0.189015
v 0.806884 0.162400 0.193116
vt 0.000000 0.000000
vt 1.000000 0.000000
vt 1.000000 1.000000
f 384/384 385/385 386/386
v 0.806884 0.140000 0.193116
v 0.810985 0.140000 0.203015
v 0.810985 0.162400 0.203015
v 0.806884 0.162400 0.193116
vt 0.125000 0.000000
vt 0.250000 0.000000
vt 0.250000 1.000000
vt 0.125000 1.000000
f 387/387 388/388 389/389 390/390
v 0.796985 0.140000 0.203015
v 0.810985 0.140000 0.203015
v 0.806884 0.140000 0.193116
vt 0.000000 0.000000
vt 1.000000 0.000000
vt 1.000000 1.000000
f 391/391 392/392 393/393
v 0.796985 0.162400 0.203015
v 0.806884 0.162400 0.193116
v 0.810985 0.162400 0.203015
vt 0.000000 0.000000
vt 1.000000 0.000000
vt 1.000000 1.000000
f 394/394 395/395 396/396
v 0.810985 0.140000 0.203015
v 0.806884 0.140000 0.212915
v 0.806884 0.162400 0.212915
v 0.810985 0.162400 0.203015
vt 0.250000 0.000000
vt 0.375000 0.000000
vt 0.375000 1.000000
vt 0.250000 1.000000
f 397/397 398/398 399/399 400/400
v 0.796985 0.140000 0.203015
v 0.806884 0.140000 0.212915
v 0.810985 0.140000 0.203015
vt 0.000000 0.000000
vt 1.000000 0.000000
vt 1.000000 1.000000
f 401/401 402/402 403/403
v 0.796985 0.162400 0.203015
v 0.810985 0.162400 0.203015
v 0.806884 0.162400 0.212915
vt 0.000000 0.000000
vt 1.000000 0.000000
vt 1.000000 1.000000
f 404/404 405/405 406/406
v 0.806884 0.140000 0.212915
v 0.796985 0.140000 0.217015
v 0.796985 0.162400 0.217015
v 0.806884 0.162400 0.212915
vt 0.375000 0.000000
vt 0.500000 0.000000
vt 0.500000 1.000000
vt 0.375000 1.000000
f 407/407 408/408 409/409 410/410
v 0.796985 0.140000 0.203015
v 0.796985 0.140000 0.217015
v 0.806884 0.140000 0.212915
vt 0.000000 0.000000
vt 1.000000 0.000000
vt 1.000000 1.000000
f 411/411 412/412 413/413
v 0.796985 0.162400 0.203015
v 0.806884 0.162400 0.212915
v 0.796985 0.162400 0.217015
vt 0.000000 0.000000
vt 1.000000 0.000000
vt 1.000000 1.000000
f 414/414 415/415 416/416
v 0.796985 0.140000 0.217015
v 0.787085 0.140000 0.212915
v 0.787085 0.162400 0.212915
v 0.796985 0.162400 0.217015
vt 0.500000 0.000000
vt 0.625000 0.000000
vt 0.625000 1.000000
vt 0.500000 1.000000
f 417/417 418/418 419/419 420/420
v 0.796985 0.140000 0.203015
v 0.787085 0.140000 0.212915
v 0.796985 0.140000 0.217015
vt 0.000000 0.000000
vt 1.000000 0.000000
vt 1.000000 1.000000
f 421/421 422/422 423/423
v 0.796985 0.162400 0.203015
v 0.796985 0.162400 0.217015
v 0.787085 0.162400 0.212915
vt 0.000000 0.000000
vt 1.000000 0.000000
vt 1.000000 1.000000
f 424/424 425/425 426/426
v 0.787085 0.140000 0.212915
v 0.782985 0.140000 0.203015
v 0.782985 0.162400 0.203015
v 0.787085 0.162400 0.212915
vt 0.625000 0.000000
vt 0.750000 0.000000
vt 0.750000 1.000000
vt 0.625000 1.000000
f 427/427 428/428 429/429 430/430
v 0.796985 0.140000 0.203015
v 0.782985 0.140000 0.203015
v 0.787085 0.140000 0.212915
vt 0.000000 0.000000
vt 1.000000 0.000000
vt 1.000000 1.000000
f 431/431 432/432 433/433
v 0.796985 0.162400 0.203015
v 0.787085 0.162400 0.212915
v 0.782985 0.162400 0.203015
vt 0.000000 0.000000
vt 1.000000 0.000000
vt 1.000000 1.000000
f 434/434 435/435 436/436
v 0.782985 0.140000 0.203015
v 0.787085 0.140000 0.193116
v 0.787085 0.162400 0.193116
v 0.782985 0.162400 0.203015
vt 0.750000 0.000000
vt 0.875000 0.000000
vt 0.875000 1.000000
vt 0.750000 1.000000
f 437/437 438/438 439/439 440/440
v 0.796985 0.140000 0.203015
v 0.787085 0.140000 0.193116
v 0.782985 0.140000 0.203015
vt 0.000000 0.000000
vt 1.000000 0.000000
vt 1.000000 1.000000
f 441/441 442/442 443/443
v 0.796985 0.162400 0.203015
v 0.782985 0.162400 0.203015
v 0.787085 0.162400 0.193116
vt 0.000000 0.000000
vt 1.000000 0.000000
vt 1.000000 1.000000
f 444/444 445/445 446/446
v 0.787085 0.140000 0.193116
v 0.796985 0.140000 0.189015
v 0.796985 0.162400 0.189015
v 0.787085 0.162400 0.193116
vt 0.875000 0.000000
vt 1.000000 0.000000
vt 1.000000 1.000000
vt 0.875000 1.000000
f 447/447 448/448 449/449 450/450
v 0.796985 0.140000 0.203015
v 0.796985 0.140000 0.189015
v 0.787085 0.140000 0.193116
vt 0.000000 0.000000
vt 1.000000 0.000000
vt 1.000000 1.000000
f 451/451 452/452 453/453
v 0.796985 0.162400 0.203015
v 0.787085 0.162400 0.193116
v 0.796985 0.162400 0.189015
vt 0.000000 0.000000
vt 1.000000 0.000000
vt 1.000000 1.000000
f 454/454 455/455 456/456
v 0.920000 0.140000 0.486000
v 0.929899 0.140000 0.490101
v 0.929899 0.162400 0.490101
v 0.920000 0.162400 0.486000
vt 0.000000 0.000000
vt 0.125000 0.000000
vt 0.125000 1.000000
vt 0.000000 1.000000
f 457/457 458/458 459/459 460/460
v 0.920000 0.140000 0.500000
v 0.929899 0.140000 0.490101
v 0.920000 0.140000 0.486000
vt 0.000000 0.000000
vt 1.000000 0.000000
vt 1.000000 1.000000
f 461/461 462/462 463/463
v 0.920000 0.162400 0.500000
v 0.920000 0.162400 0.486000
v 0.929899 0.162400 0.490101
vt 0.000000 0.000000
vt 1.000000 0.000000
vt 1.000000 1.000000
f 464/464 465/465 466/466
v 0.929899 0.140000 0.490101
v 0.934000 0.140000 0.500000
v 0.934000 0.162400 0.500000
v 0.929899 0.162400 0.490101
vt 0.125000 0.000000
vt 0.250000 0.000000
vt 0.250000 1.000000
vt 0.125000 1.000000
f 467/467 468/468 469/469 470/470
v 0.920000 0.140000 0.500000
v 0.934000 0.140000 0.500000
v 0.929899 0.140000 0.490101
vt 0.000000 0.000000
vt 1.000000 0.000000
vt 1.000000 1.000000
f 471/471 472/472 473/473
v 0.920000 0.162400 0.500000
v 0.929899 0.162400 0.490101
v 0.934000 0.162400 0.500000
vt 0.000000 0.000000
vt 1.000000 0.000000
vt 1.000000 1.000000
f 474/474 475/475 476/476
v 0.934000 0.140000 0.500000
v 0.929899 0.140000 0.509899
v 0.929899 0.162400 0.509899
v 0.934000 0.162400 0.500000
vt 0.250000 0.000000
vt 0.375000 0.000000
vt 0.375000 1.000000
vt 0.250000 1.000000
f 477/477 478/478 479/479 480/480
v 0.920000 0.140000 0.500000
v 0.929899 0.140000 0.509899
v 0.934000 0.140000 0.500000
vt 0.000000 0.000000
vt 1.000000 0.000000
vt 1.000000 1.000000
f 481/481 482/482 483/483
v 0.920000 0.162400 0.500000
v 0.934000 0.162400 0.500000
v 0.929899 0.162400 0.509899
vt 0.000000 0.000000
vt 1.000000 0.000000
vt 1.000000 1.000000
f 484/484 485/485 486/486
v 0.929899 0.140000 0.509899
v 0.920000 0.140000 0.514000
v 0.920000 0.162400 0.514000
v 0.929899 0.162400 0.509899
vt 0.375000 0.000000
vt 0.500000 0.000000
vt 0.500000 1.000000
vt 0.375000 1.000000
f 487/487 488/488 489/489 490/490
v 0.920000 0.140000 0.500000
v 0.920000 0.140000 0.514000
v 0.929899 0.140000 0.509899
vt 0.000000 0.000000
vt 1.000000 0.000000
vt 1.000000 1.000000
f 491/491 492/492 493/493
v 0.920000 0.162400 0.500000
v 0.929899 0.162400 0.509899
v 0.920000 0.162400 0.514000
vt 0.000000 0.000000
vt 1.000000 0.000000
vt 1.000000 1.000000
f 494/494 495/495 496/496
v 0.920000 0.140000 0.514000
v 0.910101 0.140000 0.509899
v 0.910101 0.162400 0.509899
v 0.920000 0.162400 0.514000
vt 0.500000 0.000000
vt 0.625000 0.000000
vt 0.625000 1.000000
vt 0.500000 1.000000
f 497/497 498/498 499/499 500/500
v 0.920000 0.140000 0.500000
v 0.910101 0.140000 0.509899
v 0.920000 0.140000 0.514000
vt 0.000000 0.000000
vt 1.000000 0.000000
vt 1.000000 1.000000
f 501/501 502/502 503/503
v 0.920000 0.162400 0.500000
v 0.920000 0.162400 0.514000
v 0.910101 0.162400 0.509899
vt 0.000000 0.000000
vt 1.000000 0.000000
vt 1.000000 1.000000
f 504/504 505/505 506/506
v 0.910101 0.140000 0.509899
v 0.906000 0.140000 0.500000
v 0.906000 0.162400 0.500000
v 0.910101 0.162400 0.509899
vt 0.625000 0.000000
vt 0.750000 0.000000
vt 0.750000 1.000000
vt 0.625000 1.000000
f 507/507 508/508 509/509 510/510
v 0.920000 0.140000 0.500000
v 0.906000 0.140000 0.500000
v 0.910101 0.140000 0.509899
vt 0.000000 0.000000
vt 1.000000 0.000000
vt 1.000000 1.000000
f 511/511 512/512 513/513
v 0.920000 0.162400 0.500000
v 0.910101 0.162400 0.509899
v 0.906000 0.162400 0.500000
vt 0.000000 0.000000
vt 1.000000 0.000000
vt 1.000000 1.000000
f 514/514 515/515 516/516
v 0.906000 0.140000 0.500000
v 0.910101 0.140000 0.490101
v 0.910101 0.162400 0.490101
v 0.906000 0.162400 0.500000
vt 0.750000 0.000000
vt 0.875000 0.000000
vt 0.875000 1.000000
vt 0.750000 1.000000
f 517/517 518/518 519/519 520/520
v 0.920000 0.140000 0.500000
v 0.910101 0.140000 0.490101
v 0.906000 0.140000 0.500000
vt 0.000000 0.000000
vt 1.000000 0.000000
vt 1.000000 1.000000
f 521/521 522/522 523/523
v 0.920000 0.162400 0.500000
v 0.906000 0.162400 0.500000
v 0.910101 0.162400 0.490101
vt 0.000000 0.000000
vt 1.000000 0.000000
vt 1.000000 1.000000
f 524/524 525/525 526/526
v 0.910101 0.140000 0.490101
v 0.920000 0.140000 0.486000
v 0.920000 0.162400 0.486000
v 0.910101 0.162400 0.490101
vt 0.875000 0.000000
vt 1.000000 0.000000
vt 1.000000 1.000000
vt 0.875000 1.000000
f 527/527 528/528 529/529 530/530
v 0.920000 0.140000 0.500000
v 0.920000 0.140000 0.486000
v 0.910101 0.140000 0.490101
vt 0.000000 0.000000
vt 1.000000 0.000000
vt 1.000000 1.000000
f 531/531 532/532 533/533
v 0.920000 0.162400 0.500000
v 0.910101 0.162400 0.490101
v 0.920000 0.162400 0.486000
vt 0.000000 0.000000
vt 1.000000 0.000000
vt 1.000000 1.000000
f 534/534 535/535 536/536
v 0.796985 0.140000 0.782985
v 0.806884 0.140000 0.787085
v 0.806884 0.162400 0.787085
v 0.796985 0.162400 0.782985
vt 0.000000 0.000000
vt 0.125000 0.000000
vt 0.125000 1.000000
vt 0.000000 1.000000
f 537/537 538/538 539/539 540/540
v 0.796985 0.140000 0.796985
v 0.806884 0.140000 0.787085
v 0.796985 0.140000 0.782985
vt 0.000000 0.000000
vt 1.000000 0.000000
vt 1.000000 1.000000
f 541/541 542/542 543/543
v 0.796985 0.162400 0.796985
v 0.796985 0.162400 0.782985
v 0.806884 0.162400 0.787085
vt 0.000000 0.000000
vt 1.000000 0.000000
vt 1.000000 1.000000
f 544/544 545/545 546/546
v 0.806884 0.140000 0.787085
v 0.810985 0.140000 0.796985
v 0.810985 0.162400 0.796985
v 0.806884 0.162400 0.787085
vt 0.125000 0.000000
vt 0.250000 0.000000
vt 0.250000 1.000000
vt 0.125000 1.000000
f 547/547 548/548 549/549 550/550
v 0.796985 0.140000 0.796985
v 0.810985 0.140000 0.796985
v 0.806884 0.140000 0.787085
vt 0.000000 0.000000
vt 1.000000 0.000000
vt 1.000000 1.000000
f 551/551 552/552 553/553
v 0.796985 0.162400 0.796985
v 0.806884 0.162400 0.787085
v 0.810985 0.162400 0.796985
vt 0.000000 0.000000
vt 1.000000 0.000000
vt 1.000000 1.000000
f 554/554 555/555 556/556
v 0.810985 0.140000 0.796985
v 0.806884 0.140000 0.806884
v 0.806884 0.162400 0.806884
v 0.810985 0.162400 0.796985
vt 0.250000 0.000000
vt 0.375000 0.000000
vt 0.375000 1.000000
vt 0.250000 1.000000
f 557/557 558/558 559/559 560/560
v 0.796985 0.140000 0.796985
v 0.806884 0.140000 0.806884
v 0.810985 0.140000 0.796985
vt 0.000000 0.000000
vt 1.000000 0.000000
vt 1.000000 1.000000
f 561/561 562/562 563/563
v 0.796985 0.162400 0.796985
v 0.810985 0.162400 0.796985
v 0.806884 0.162400 0.806884
vt 0.000000 0.000000
vt 1.000000 0.000000
vt 1.000000 1.000000
f 564/564 565/565 566/566
v 0.806884 0.140000 0.806884
v 0.796985 0.140000 0.810985
v 0.796985 0.162400 0.810985
v 0.806884 0.162400 0.806884
vt 0.375000 0.000000
vt 0.500000 0.000000
vt 0.500000 1.000000
vt 0.375000 1.000000
f 567/567 568/568 569/569 570/570
v 0.796985 0.140000 0.796985
v 0.796985 0.140000 0.810985
v 0.806884 0.140000 0.806884
vt 0.000000 0.000000
vt 1.000000 0.000000
vt 1.000000 1.000000
f 571/571 572/572 573/573
v 0.796985 0.162400 0.796985
v 0.806884 0.162400 0.806884
v 0.796985 0.162400 0.810985
vt 0.000000 0.000000
vt 1.000000 0.000000
vt 1.000000 1.000000
f 574/574 575/575 576/576
v 0.796985 0.140000 0.810985
v 0.787085 0.140000 0.806884
v 0.787085 0.162400 0.806884
v 0.796985 0.162400 0.810985
vt 0.500000 0.000000
vt 0.625000 0.000000
vt 0.625000 1.000000
vt 0.500000 1.000000
f 577/577 578/578 579/579 580/580
v 0.796985 0.140000 0.796985
v 0.787085 0.140000 0.806884
v 0.796985 0.140000 0.810985
vt 0.000000 0.000000
vt 1.000000 0.000000
vt 1.000000 1.000000
f 581/581 582/582 583/583
v 0.796985 0.162400 0.796985
v 0.796985 0.162400 0.810985
v 0.787085 0.162400 0.806884
vt 0.000000 0.000000
vt 1.000000 0.000000
vt 1.000000 1.000000
f 584/584 585/585 586/586
v 0.787085 0.140000 0.806884
v 0.782985 0.140000 0.796985
v 0.782985 0.162400 0.796985
v 0.787085 0.162400 0.806884
vt 0.625000 0.000000
vt 0.750000 0.000000
vt 0.750000 1.000000
vt 0.625000 1.000000
f 587/587 588/588 589/589 590/590
v 0.796985 0.140000 0.796985
v 0.782985 0.140000 0.796985
v 0.787085 0.140000 0.806884
vt 0.000000 0.000000
vt 1.000000 0.000000
vt 1.000000 1.000000
f 591/591 592/592 593/593
v 0.796985 0.162400 0.796985
v 0.787085 0.162400 0.806884
v 0.782985 0.162400 0.796985
vt 0.000000 0.000000
vt 1.000000 0.000000
vt 1.000000 1.000000
f 594/594 595/595 596/596
v 0.782985 0.140000 0.796985
v 0.787085 0.140000 0.787085
v 0.787085 0.162400 0.787085
v 0.782985 0.162400 0.796985
vt 0.750000 0.000000
vt 0.875000 0.000000
vt 0.875000 1.000000
vt 0.750000 1.000000
f 597/597 598/598 599/599 600/600
v 0.796985 0.140000 0.796985
v 0.787085 0.140000 0.787085
v 0.782985 0.140000 0.796985
vt 0.000000 0.000000
vt 1.000000 0.000000
vt 1.000000 1.000000
f 601/601 602/602 603/603
v 0.796985 0.162400 0.796985
v 0.782985 0.162400 0.796985
v 0.787085 0.162400 0.787085
vt 0.000000 0.000000
vt 1.000000 0.000000
vt 1.000000 1.000000
f 604/604 605/605 606/606
v 0.787085 0.140000 0.787085
v 0.796985 0.140000 0.782985
v 0.796985 0.162400 0.782985
v 0.787085 0.162400 0.787085
vt 0.875000 0.000000
vt 1.000000 0.000000
vt 1.000000 1.000000
vt 0.875000 1.000000
f 607/607 608/608 609/609 610/610
v 0.796985 0.140000 0.796985
v 0.796985 0.140000 0.782985
v 0.787085 0.140000 0.787085
vt 0.000000 0.000000
vt 1.000000 0.000000
vt 1.000000 1.000000
f 611/611 612/612 613/613
v 0.796985 0.162400 0.796985
v 0.787085 0.162400 0.787085
v 0.796985 0.162400 0.782985
vt 0.000000 0.000000
vt 1.000000 0.000000
vt 1.000000 1.000000
f 614/614 615/615 616/616
v 0.500000 0.140000 0.906000
v 0.509899 0.140000 0.910101
v 0.509899 0.162400 0.910101
v 0.500000 0.162400 0.906000
vt 0.000000 0.000000
vt 0.125000 0.000000
vt 0.125000 1.000000
vt 0.000000 1.000000
f 617/617 618/618 619/619 620/620
v 0.500000 0.140000 0.920000
v 0.509899 0.140000 0.910101
v 0.500000 0.140000 0.906000
vt 0.000000 0.000000
vt 1.000000 0.000000
vt 1.000000 1.000000
f 621/621 622/622 623/623
v 0.500000 0.162400 0.920000
v 0.500000 0.162400 0.906000
v 0.509899 0.162400 0.910101
vt 0.000000 0.000000
vt 1.000000 0.000000
vt 1.000000 1.000000
f 624/624 625/625 626/626
v 0.509899 0.140000 0.910101
v 0.514000 0.140000 0.920000
v 0.514000 0.162400 0.920000
v 0.509899 0.162400 0.910101
vt 0.125000 0.000000
vt 0.250000 0.000000
vt 0.250000 1.000000
vt 0.125000 1.000000
f 627/627 628/628 629/629 630/630
v 0.500000 0.140000 0.920000
v 0.514000 0.140000 0.920000
v 0.509899 0.140000 0.910101
vt 0.000000 0.000000
vt 1.000000 0.000000
vt 1.000000 1.000000
f 631/631 632/632 633/633
v 0.500000 0.162400 0.920000
v 0.509899 0.162400 0.910101
v 0.514000 0.162400 0.920000
vt 0.000000 0.000000
vt 1.000000 0.000000
vt 1.000000 1.000000
f 634/634 635/635 636/636
v 0.514000 0.140000 0.920000
v 0.509899 0.140000 0.929899
v 0.509899 0.162400 0.929899
v 0.514000 0.162400 0.920000
vt 0.250000 0.000000
vt 0.375000 0.000000
vt 0.375000 1.000000
vt 0.250000 1.000000
f 637/637 638/638 639/639 640/640
v 0.500000 0.140000 0.920000
v 0.509899 0.140000 0.929899
v 0.514000 0.140000 0.920000
vt 0.000000 0.000000
vt 1.000000 0.000000
vt 1.000000 1.000000
f 641/641 642/642 643/643
v 0.500000 0.162400 0.920000
v 0.514000 0.162400 0.920000
v 0.509899 0.162400 0.929899
vt 0.000000 0.000000
vt 1.000000 0.000000
vt 1.000000 1.000000
f 644/644 645/645 646/646
v 0.509899 0.140000 0.929899
v 0.500000 0.140000 0.934000
v 0.500000 0.162400 0.934000
v 0.509899 0.162400 0.929899
vt 0.375000 0.000000
vt 0.500000 0.000000
vt 0.500000 1.000000
vt 0.375000 1.000000
f 647/647 648/648 649/649 650/650
v 0.500000 0.140000 0.920000
v 0.500000 0.140000 0.934000
v 0.509899 0.140000 0.929899
vt 0.000000 0.000000
vt 1.000000 0.000000
vt 1.000000 1.000000
f 651/651 652/652 653/653
v 0.500000 0.162400 0.920000
v 0.509899 0.162400 0.929899
v 0.500000 0.162400 0.934000
vt 0.000000 0.000000
vt 1.000000 0.000000
vt 1.000000 1.000000
f 654/654 655/655 656/656
v 0.500000 0.140000 0.934000
v 0.490101 0.140000 0.929899
v 0.490101 0.162400 0.929899
v 0.500000 0.162400 0.934000
vt 0.500000 0.000000
vt 0.625000 0.000000
vt 0.625000 1.000000
vt 0.500000 1.000000
f 657/657 658/658 659/659 660/660
v 0.500000 0.140000 0.920000
v 0.490101 0.140000 0.929899
v 0.500000 0.140000 0.934000
vt 0.000000 0.000000
vt 1.000000 0.000000
vt 1.000000 1.000000
f 661/661 662/662 663/663
v 0.500000 0.162400 0.920000
v 0.500000 0.162400 0.934000
v 0.490101 0.162400 0.929899
vt 0.000000 0.000000
vt 1.000000 0.000000
vt 1.000000 1.000000
f 664/664 665/665 666/666
v 0.490101 0.140000 0.929899
v 0.486000 0.140000 0.920000
v 0.486000 0.162400 0.920000
v 0.490101 0.162400 0.929899
vt 0.625000 0.000000
vt 0.750000 0.000000
vt 0.750000 1.000000
vt 0.625000 1.000000
f 667/667 668/668 669/669 670/670
v 0.500000 0.140000 0.920000
v 0.486000 0.140000 0.920000
v 0.490101 0.140000 0.929899
vt 0.000000 0.000000
vt 1.000000 0.000000
vt 1.000000 1.000000
f 671/671 672/672 673/673
v 0.500000 0.162400 0.920000
v 0.490101 0.162400 0.929899
v 0.486000 0.162400 0.920000
vt 0.000000 0.000000
vt 1.000000 0.000000
vt 1.000000 1.000000
f 674/674 675/675 676/676
v 0.486000 0.140000 0.920000
v 0.490101 0.140000 0.910101
v 0.490101 0.162400 0.910101
v 0.486000 0.162400 0.920000
vt 0.750000 0.000000
vt 0.875000 0.000000
vt 0.875000 1.000000
vt 0.750000 1.000000
f 677/677 678/678 679/679 680/680
v 0.500000 0.140000 0.920000
v 0.490101 0.140000 0.910101
v 0.486000 0.140000 0.920000
vt 0.000000 0.000000
vt 1.000000 0.000000
vt 1.000000 1.000000
f 681/681 682/682 683/683
v 0.500000 0.162400 0.920000
v 0.486000 0.162400 0.920000
v 0.490101 0.162400 0.910101
vt 0.000000 0.000000
vt 1.000000 0.000000
vt 1.000000 1.000000
f 684/684 685/685 686/686
v 0.490101 0.140000 0.910101
v 0.500000 0.140000 0.906000
v 0.500000 0.162400 0.906000
v 0.490101 0.162400 0.910101
vt 0.875000 0.000000
vt 1.000000 0.000000
vt 1.000000 1.000000
vt 0.875000 1.000000
f 687/687 688/688 689/689 690/690
v 0.500000 0.140000 0.920000
v 0.500000 0.140000 0.906000
v 0.490101 0.140000 0.910101
vt 0.000000 0.000000
vt 1.000000 0.000000
vt 1.000000 1.000000
f 691/691 692/692 693/693
v 0.500000 0.162400 0.920000
v 0.490101 0.162400 0.910101
v 0.500000 0.162400 0.906000
vt 0.000000 0.000000
vt 1.000000 0.000000
vt 1.000000 1.000000
f 694/694 695/695 696/696
v 0.203015 0.140000 0.782985
v 0.212915 0.140000 0.787085
v 0.212915 0.162400 0.787085
v 0.203015 0.162400 0.782985
vt 0.000000 0.000000
vt 0.125000 0.000000
vt 0.125000 1.000000
vt 0.000000 1.000000
f 697/697 698/698 699/699 700/700
v 0.203015 0.140000 0.796985
v 0.212915 0.140000 0.787085
v 0.203015 0.140000 0.782985
vt 0.000000 0.000000
vt 1.000000 0.000000
vt 1.000000 1.000000
f 701/701 702/702 703/703
v 0.203015 0.162400 0.796985
v 0.203015 0.162400 0.782985
v 0.212915 0.162400 0.787085
vt 0.000000 0.000000
vt 1.000000 0.000000
vt 1.000000 1.000000
f 704/704 705/705 706/706
v 0.212915 0.140000 0.787085
v 0.217015 0.140000 0.796985
v 0.217015 0.162400 0.796985
v 0.212915 0.162400 0.787085
vt 0.125000 0.000000
vt 0.250000 0.000000
vt 0.250000 1.000000
vt 0.125000 1.000000
f 707/707 708/708 709/709 710/710
v 0.203015 0.140000 0.796985
v 0.217015 0.140000 0.796985
v 0.212915 0.140000 0.787085
vt 0.000000 0.000000
vt 1.000000 0.000000
vt 1.000000 1.000000
f 711/711 712/712 713/713
v 0.203015 0.162400 0.796985
v 0.212915 0.162400 0.787085
v 0.217015 0.162400 0.796985
vt 0.000000 0.000000
vt 1.000000 0.000000
vt 1.000000 1.000000
f 714/714 715/715 716/716
v 0.217015 0.140000 0.796985
v 0.212915 0.140000 0.806884
v 0.212915 0.162400 0.806884
v 0.217015 0.162400 0.796985
vt 0.250000 0.000000
vt 0.375000 0.000000
vt 0.375000 1.000000
vt 0.250000 1.000000
f 717/717 718/718 719/719 720/720
v 0.203015 0.140000 0.796985
v 0.212915 0.140000 0.806884
v 0.217015 0.140000 0.796985
vt 0.000000 0.000000
vt 1.000000 0.000000
vt 1.000000 1.000000
f 721/721 722/722 723/723
v 0.203015 0.162400 0.796985
v 0.217015 0.162400 0.796985
v 0.212915 0.162400 0.806884
vt 0.000000 0.000000
vt 1.000000 0.000000
vt 1.000000 1.000000
f 724/724 725/725 726/726
v 0.212915 0.140000 0.806884
v 0.203015 0.140000 0.810985
v 0.203015 0.162400 0.810985
v 0.212915 0.162400 0.806884
vt 0.375000 0.000000
vt 0.500000 0.000000
vt 0.500000 1.000000
vt 0.375000 1.000000
f 727/727 728/728 729/729 730/730
v 0.203015 0.140000 0.796985
v 0.203015 0.140000 0.810985
v 0.212915 0.140000 0.806884
vt 0.000000 0.000000
vt 1.000000 0.000000
vt 1.000000 1.000000
f 731/731 732/732 733/733
v 0.203015 0.162400 0.796985
v 0.212915 0.162400 0.806884
v 0.203015 0.162400 0.810985
vt 0.000000 0.000000
vt 1.000000 0.000000
vt 1.000000 1.000000
f 734/734 735/735 736/736
v 0.203015 0.140000 0.810985
v 0.193116 0.140000 0.806884
v 0.193116 0.162400 0.806884
v 0.203015 0.162400 0.810985
vt 0.500000 0.000000
vt 0.625000 0.000000
vt 0.625000 1.000000
vt 0.500000 1.000000
f 737/737 738/738 739/739 740/740
v 0.203015 0.140000 0.796985
v 0.193116 0.140000 0.806884
v 0.203015 0.140000 0.810985
vt 0.000000 0.000000
vt 1.000000 0.000000
vt 1.000000 1.000000
f 741/741 742/742 743/743
v 0.203015 0.162400 0.796985
v 0.203015 0.162400 0.810985
v 0.193116 0.162400 0.806884
vt 0.000000 0.000000
vt 1.000000 0.000000
vt 1.000000 1.000000
f 744/744 745/745 746/746
v 0.193116 0.140000 0.806884
v 0.189015 0.140000 0.796985
v 0.189015 0.162400 0.796985
v 0.193116 0.162400 0.806884
vt 0.625000 0.000000
vt 0.750000 0.000000
vt 0.750000 1.000000
vt 0.625000 1.000000
f 747/747 748/748 749/749 750/750
v 0.203015 0.140000 0.796985
v 0.189015 0.140000 0.796985
v 0.193116 0.140000 0.806884
vt 0.000000 0.000000
vt 1.000000 0.000000
vt 1.000000 1.000000
f 751/751 752/752 753/753
v 0.203015 0.162400 0.796985
v 0.193116 0.162400 0.806884
v 0.189015 0.162400 0.796985
vt 0.000000 0.000000
vt 1.000000 0.000000
vt 1.000000 1.000000
f 754/754 755/755 756/756
v 0.189015 0.140000 0.796985
v 0.193116 0.140000 0.787085
v 0.193116 0.162400 0.787085
v 0.189015 0.162400 0.796985
vt 0.750000 0.000000
vt 0.875000 0.000000
vt 0.875000 1.000000
vt 0.750000 1.000000
f 757/757 758/758 759/759 760/760
v 0.203015 0.140000 0.796985
v 0.193116 0.140000 0.787085
v 0.189015 0.140000 0.796985
vt 0.000000 0.000000
vt 1.000000 0.000000
vt 1.000000 1.000000
f 761/761 762/762 763/763
v 0.203015 0.162400 0.796985
v 0.189015 0.162400 0.796985
v 0.193116 0.162400 0.787085
vt 0.000000 0.000000
vt 1.000000 0.000000
vt 1.000000 1.000000
f 764/764 765/765 766/766
v 0.193116 0.140000 0.787085
v 0.203015 0.140000 0.782985
v 0.203015 0.162400 0.782985
v 0.193116 0.162400 0.787085
vt 0.875000 0.000000
vt 1.000000 0.000000
vt 1.000000 1.000000
vt 0.875000 1.000000
f 767/767 768/768 769/769 770/770
v 0.203015 0.140000 0.796985
v 0.203015 0.140000 0.782985
v 0.193116 0.140000 0.787085
vt 0.000000 0.000000
vt 1.000000 0.000000
vt 1.000000 1.000000
f 771/771 772/772 773/773
v 0.203015 0.162400 0.796985
v 0.193116 0.162400 0.787085
v 0.203015 0.162400 0.782985
vt 0.000000 0.000000
vt 1.000000 0.000000
vt 1.000000 1.000000
f 774/774 775/775 776/776
v 0.080000 0.140000 0.486000
v 0.089899 0.140000 0.490101
v 0.089899 0.162400 0.490101
v 0.080000 0.162400 0.486000
vt 0.000000 0.000000
vt 0.125000 0.000000
vt 0.125000 1.000000
vt 0.000000 1.000000
f 777/777 778/778 779/779 780/780
v 0.080000 0.140000 0.500000
v 0.089899 0.140000 0.490101
v 0.080000 0.140000 0.486000
vt 0.000000 0.000000
vt 1.000000 0.000000
vt 1.000000 1.000000
f 781/781 782/782 783/783
v 0.080000 0.162400 0.500000
v 0.080000 0.162400 0.486000
v 0.089899 0.162400 0.490101
vt 0.000000 0.000000
vt 1.000000 0.000000
vt 1.000000 1.000000
f 784/784 785/785 786/786
v 0.089899 0.140000 0.490101
v 0.094000 0.140000 0.500000
v 0.094000 0.162400 0.500000
v 0.089899 0.162400 0.490101
vt 0.125000 0.000000
vt 0.250000 0.000000
vt 0.250000 1.000000
vt 0.125000 1.000000
f 787/787 788/788 789/789 790/790
v 0.080000 0.140000 0.500000
v 0.094000 0.140000 0.500000
v 0.089899 0.140000 0.490101
vt 0.000000 0.000000
vt 1.000000 0.000000
vt 1.000000 1.000000
f 791/791 792/792 793/793
v 0.080000 0.162400 0.500000
v 0.089899 0.162400 0.490101
v 0.094000 0.162400 0.500000
vt 0.000000 0.000000
vt 1.000000 0.000000
vt 1.000000 1.000000
f 794/794 795/795 796/796
v 0.094000 0.140000 0.500000
v 0.089899 0.140000 0.509899
v 0.089899 0.162400 0.509899
v 0.094000 0.162400 0.500000
vt 0.250000 0.000000
vt 0.375000 0.000000
vt 0.375000 1.000000
vt 0.250000 1.000000
f 797/797 798/798 799/799 800/800
v 0.080000 0.140000 0.500000
v 0.089899 0.140000 0.509899
v 0.094000 0.140000 0.500000
vt 0.000000 0.000000
vt 1.000000 0.000000
vt 1.000000 1.000000
f 801/801 802/802 803/803
v 0.080000 0.162400 0.500000
v 0.094000 0.162400 0.500000
v 0.089899 0.162400 0.509899
vt 0.000000 0.000000
vt 1.000000 0.000000
vt 1.000000 1.000000
f 804/804 805/805 806/806
v 0.089899 0.140000 0.509899
v 0.080000 0.140000 0.514000
v 0.080000 0.162400 0.514000
v 0.089899 0.162400 0.509899
vt 0.375000 0.000000
vt 0.500000 0.000000
vt 0.500000 1.000000
vt 0.375000 1.000000
f 807/807 808/808 809/809 810/810
v 0.080000 0.140000 0.500000
v 0.080000 0.140000 0.514000
v 0.089899 0.140000 0.509899
vt 0.000000 0.000000
vt 1.000000 0.000000
vt 1.000000 1.000000
f 811/811 812/812 813/813
v 0.080000 0.162400 0.500000
v 0.089899 0.162400 0.509899
v 0.080000 0.162400 0.514000
vt 0.000000 0.000000
vt 1.000000 0.000000
vt 1.000000 1.000000
f 814/814 815/815 816/816
v 0.080000 0.140000 0.514000
v 0.070101 0.140000 0.509899
v 0.070101 0.162400 0.509899
v 0.080000 0.162400 0.514000
vt 0.500000 0.000000
vt 0.625000 0.000000
vt 0.625000 1.000000
vt 0.500000 1.000000
f 817/817 818/818 819/819 820/820
v 0.080000 0.140000 0.500000
v 0.070101 0.140000 0.509899
v 0.080000 0.140000 0.514000
vt 0.000000 0.000000
vt 1.000000 0.000000
vt 1.000000 1.000000
f 821/821 822/822 823/823
v 0.080000 0.162400 0.500000
v 0.080000 0.162400 0.514000
v 0.070101 0.162400 0.509899
vt 0.000000 0.000000
vt 1.000000 0.000000
vt 1.000000 1.000000
f 824/824 825/825 826/826
v 0.070101 0.140000 0.509899
v 0.066000 0.140000 0.500000
v 0.066000 0.162400 0.500000
v 0.070101 0.162400 0.509899
vt 0.625000 0.000000
vt 0.750000 0.000000
vt 0.750000 1.000000
vt 0.625000 1.000000
f 827/827 828/828 829/829 830/830
v 0.080000 0.140000 0.500000
v 0.066000 0.140000 0.500000
v 0.070101 0.140000 0.509899
vt 0.000000 0.000000
vt 1.000000 0.000000
vt 1.000000 1.000000
f 831/831 832/832 833/833
v 0.080000 0.162400 0.500000
v 0.070101 0.162400 0.509899
v 0.066000 0.162400 0.500000
vt 0.000000 0.000000
vt 1.000000 0.000000
vt 1.000000 1.000000
f 834/834 835/835 836/836
v 0.066000 0.140000 0.500000
v 0.070101 0.140000 0.490101
v 0.070101 0.162400 0.490101
v 0.066000 0.162400 0.500000
vt 0.750000 0.000000
vt 0.875000 0.000000
vt 0.875000 1.000000
vt 0.750000 1.000000
f 837/837 838/838 839/839 840/840
v 0.080000 0.140000 0.500000
v 0.070101 0.140000 0.490101
v 0.066000 0.140000 0.500000
vt 0.000000 0.000000
vt 1.000000 0.000000
vt 1.000000 1.000000
f 841/841 842/842 843/843
v 0.080000 0.162400 0.500000
v 0.066000 0.162400 0.500000
v 0.070101 0.162400 0.490101
vt 0.000000 0.000000
vt 1.000000 0.000000
vt 1.000000 1.000000
f 844/844 845/845 846/846
v 0.070101 0.140000 0.490101
v 0.080000 0.140000 0.486000
v 0.080000 0.162400 0.486000
v 0.070101 0.162400 0.490101
vt 0.875000 0.000000
vt 1.000000 0.000000
vt 1.000000 1.000000
vt 0.875000 1.000000
f 847/847 848/848 849/849 850/850
v 0.080000 0.140000 0.500000
v 0.080000 0.140000 0.486000
v 0.070101 0.140000 0.490101
vt 0.000000 0.000000
vt 1.000000 0.000000
vt 1.000000 1.000000
f 851/851 852/852 853/853
v 0.080000 0.162400 0.500000
v 0.070101 0.162400 0.490101
v 0.080000 0.162400 0.486000
vt 0.000000 0.000000
vt 1.000000 0.000000
vt 1.000000 1.000000
f 854/854 855/855 856/856
v 0.203015 0.140000 0.189015
v 0.212915 0.140000 0.193116
v 0.212915 0.162400 0.193116
v 0.203015 0.162400 0.189015
vt 0.000000 0.000000
vt 0.125000 0.000000
vt 0.125000 1.000000
vt 0.000000 1.000000
f 857/857 858/858 859/859 860/860
v 0.203015 0.140000 0.203015
v 0.212915 0.140000 0.193116
v 0.203015 0.140000 0.189015
vt 0.000000 0.000000
vt 1.000000 0.000000
vt 1.000000 1.000000
f 861/861 862/862 863/863
v 0.203015 0.162400 0.203015
v 0.203015 0.162400 0.189015
v 0.212915 0.162400 0.193116
vt 0.000000 0.000000
vt 1.000000 0.000000
vt 1.000000 1.000000
f 864/864 865/865 866/866
v 0.212915 0.140000 0.193116
v 0.217015 0.140000 0.203015
v 0.217015 0.162400 0.203015
v 0.212915 0.162400 0.193116
vt 0.125000 0.000000
vt 0.250000 0.000000
vt 0.250000 1.000000
vt 0.125000 1.000000
f 867/867 868/868 869/869 870/870
v 0.203015 0.140000 0.203015
v 0.217015 0.140000 0.203015
v 0.212915 0.140000 0.193116
vt 0.000000 0.000000
vt 1.000000 0.000000
vt 1.000000 1.000000
f 871/871 872/872 873/873
v 0.203015 0.162400 0.203015
v 0.212915 0.162400 0.193116
v 0.217015 0.162400 0.203015
vt 0.000000 0.000000
vt 1.000000 0.000000
vt 1.000000 1.000000
f 874/874 875/875 876/876
v 0.217015 0.140000 0.203015
v 0.212915 0.140000 0.212915
v 0.212915 0.162400 0.212915
v 0.217015 0.162400 0.203015
vt 0.250000 0.000000
vt 0.375000 0.000000
vt 0.375000 1.000000
vt 0.250000 1.000000
f 877/877 878/878 879/879 880/880
v 0.203015 0.140000 0.203015
v 0.212915 0.140000 0.212915
v 0.217015 0.140000 0.203015
vt 0.000000 0.000000
vt 1.000000 0.000000
vt 1.000000 1.000000
f 881/881 882/882 883/883
v 0.203015 0.162400 0.203015
v 0.217015 0.162400 0.203015
v 0.212915 0.162400 0.212915
vt 0.000000 0.000000
vt 1.000000 0.000000
vt 1.000000 1.000000
f 884/884 885/885 886/886
v 0.212915 0.140000 0.212915
v 0.203015 0.140000 0.217015
v 0.203015 0.162400 0.217015
v 0.212915 0.162400 0.212915
vt 0.375000 0.000000
vt 0.500000 0.000000
vt 0.500000 1.000000
vt 0.375000 1.000000
f 887/887 888/888 889/889 890/890
v 0.203015 0.140000 0.203015
v 0.203015 0.140000 0.217015
v 0.212915 0.140000 0.212915
vt 0.000000 0.000000
vt 1.000000 0.000000
vt 1.000000 1.000000
f 891/891 892/892 893/893
v 0.203015 0.162400 0.203015
v 0.212915 0.162400 0.212915
v 0.203015 0.162400 0.217015
vt 0.000000 0.000000
vt 1.000000 0.000000
vt 1.000000 1.000000
f 894/894 895/895 896/896
v 0.203015 0.140000 0.217015
v 0.193116 0.140000 0.212915
v 0.193116 0.162400 0.212915
v 0.203015 0.162400 0.217015
vt 0.500000 0.000000
vt 0.625000 0.000000
vt 0.625000 1.000000
vt 0.500000 1.000000
f 897/897 898/898 899/899 900/900
v 0.203015 0.140000 0.203015
v 0.193116 0.140000 0.212915
v 0.203015 0.140000 0.217015
vt 0.000000 0.000000
vt 1.000000 0.000000
vt 1.000000 1.000000
f 901/901 902/902 903/903
v 0.203015 0.162400 0.203015
v 0.203015 0.162400 0.217015
v 0.193116 0.162400 0.212915
vt 0.000000 0.000000
vt 1.000000 0.000000
vt 1.000000 1.000000
f 904/904 905/905 906/906
v 0.193116 0.140000 0.212915
v 0.189015 0.140000 0.203015
v 0.189015 0.162400 0.203015
v 0.193116 0.162400 0.212915
vt 0.625000 0.000000
vt 0.750000 0.000000
vt 0.750000 1.000000
vt 0.625000 1.000000
f 907/907 908/908 909/909 910/910
v 0.203015 0.140000 0.203015
v 0.189015 0.140000 0.203015
v 0.193116 0.140000 0.212915
vt 0.000000 0.000000
vt 1.000000 0.000000
vt 1.000000 1.000000
f 911/911 912/912 913/913
v 0.203015 0.162400 0.203015
v 0.193116 0.162400 0.212915
v 0.189015 0.162400 0.203015
vt 0.000000 0.000000
vt 1.000000 0.000000
vt 1.000000 1.000000
f 914/914 915/915 916/916
v 0.189015 0.140000 0.203015
v 0.193116 0.140000 0.193116
v 0.193116 0.162400 0.193116
v 0.189015 0.162400 0.203015
vt 0.750000 0.000000
vt 0.875000 0.000000
vt 0.875000 1.000000
vt 0.750000 1.000000
f 917/917 918/918 919/919 920/920
v 0.203015 0.140000 0.203015
v 0.193116 0.140000 0.193116
v 0.189015 0.140000 0.203015
vt 0.000000 0.000000
vt 1.000000 0.000000
vt 1.000000 1.000000
f 921/921 922/922 923/923
v 0.203015 0.162400 0.203015
v 0.189015 0.162400 0.203015
v 0.193116 0.162400 0.193116
vt 0.000000 0.000000
vt 1.000000 0.000000
vt 1.000000 1.000000
f 924/924 925/925 926/926
v 0.193116 0.140000 0.193116
v 0.203015 0.140000 0.189015
v 0.203015 0.162400 0.189015
v 0.193116 0.162400 0.193116
vt 0.875000 0.000000
vt 1.000000 0.000000
vt 1.000000 1.000000
vt 0.875000 1.000000
f 927/927 928/928 929/929 930/930
v 0.203015 0.140000 0.203015
v 0.203015 0.140000 0.189015
v 0.193116 0.140000 0.193116
vt 0.000000 0.000000
vt 1.000000 0.000000
vt 1.000000 1.000000
f 931/931 932/932 933/933
v 0.203015 0.162400 0.203015
v 0.193116 0.162400 0.193116
v 0.203015 0.162400 0.189015
vt 0.000000 0.000000
vt 1.000000 0.000000
vt 1.000000 1.000000
f 934/934 935/935 936/936
