mtllib personnel_door_open.mtl
o personnel_door_open
s 1
usemtl body
v -0.140000 0.000000 0.020000
v 0.040000 0.000000 0.020000
v 0.040000 2.000000 0.020000
v -0.140000 2.000000 0.020000
vt 0.000000 0.000000
vt 1.000000 0.000000
vt 1.000000 1.000000
vt 0.000000 1.000000
f 1/1 2/2 3/3 4/4
v 0.040000 0.000000 1.000000
v -0.140000 0.000000 1.000000
v -0.140000 2.000000 1.000000
v 0.040000 2.000000 1.000000
vt 0.000000 0.000000
vt 1.000000 0.000000
vt 1.000000 1.000000
vt 0.000000 1.000000
f 5/5 6/6 7/7 8/8
v -0.140000 0.000000 1.000000
v -0.140000 0.000000 0.020000
v -0.140000 2.000000 0.020000
v -0.140000 2.000000 1.000000
vt 0.000000 0.000000
vt 1.000000 0.000000
vt 1.000000 1.000000
vt 0.000000 1.000000
f 9/9 10/10 11/11 12/12
v 0.040000 0.000000 0.020000
v 0.040000 0.000000 1.000000
v 0.040000 2.000000 1.000000
v 0.040000 2.000000 0.020000
vt 0.000000 0.000000
vt 1.000000 0.000000
vt 1.000000 1.000000
vt 0.000000 1.000000
f 13/13 14/14 15/15 16/16
v -0.140000 2.000000 0.020000
v 0.040000 2.000000 0.020000
v 0.040000 2.000000 1.000000
v -0.140000 2.000000 1.000000
vt 0.000000 0.000000
vt 1.000000 0.000000
vt 1.000000 1.000000
vt 0.000000 1.000000
f 17/17 18/18 19/19 20/20
v -0.140000 0.000000 1.000000
v 0.040000 0.000000 1.000000
v 0.040000 0.000000 0.020000
v -0.140000 0.000000 0.020000
vt 0.000000 0.000000
vt 1.000000 0.000000
vt 1.000000 1.000000
vt 0.000000 1.000000
f 21/21 22/22 23/23 24/24
usemtl dark
v -0.110000 0.080000 0.080000
v -0.010000 0.080000 0.080000
v -0.010000 1.920000 0.080000
v -0.110000 1.920000 0.080000
vt 0.000000 0.000000
vt 1.000000 0.000000
vt 1.000000 1.000000
vt 0.000000 1.000000
f 25/25 26/26 27/27 28/28
v -0.010000 0.080000 0.920000
v -0.110000 0.080000 0.920000
v -0.110000 1.920000 0.920000
v -0.010000 1.920000 0.920000
vt 0.000000 0.000000
vt 1.000000 0.000000
vt 1.000000 1.000000
vt 0.000000 1.000000
f 29/29 30/30 31/31 32/32
v -0.110000 0.080000 0.920000
v -0.110000 0.080000 0.080000
v -0.110000 1.920000 0.080000
v -0.110000 1.920000 0.920000
vt 0.000000 0.000000
vt 1.000000 0.000000
vt 1.000000 1.000000
vt 0.000000 1.000000
f 33/33 34/34 35/35 36/36
v -0.010000 0.080000 0.080000
v -0.010000 0.080000 0.920000
v -0.010000 1.920000 0.920000
v -0.010000 1.920000 0.080000
vt 0.000000 0.000000
vt 1.000000 0.000000
vt 1.000000 1.000000
vt 0.000000 1.000000
f 37/37 38/38 39/39 40/40
v -0.110000 1.920000 0.080000
v -0.010000 1.920000 0.080000
v -0.010000 1.920000 0.920000
v -0.110000 1.920000 0.920000
vt 0.000000 0.000000
vt 1.000000 0.000000
vt 1.000000 1.000000
vt 0.000000 1.000000
f 41/41 42/42 43/43 44/44
v -0.110000 0.080000 0.920000
v -0.010000 0.080000 0.920000
v -0.010000 0.080000 0.080000
v -0.110000 0.080000 0.080000
vt 0.000000 0.000000
vt 1.000000 0.000000
vt 1.000000 1.000000
vt 0.000000 1.000000
f 45/45 46/46 47/47 48/48
