mtllib propellant_refinery.mtl
o propellant_refinery
s 1
usemtl concrete
v 0.050000 0.000000 0.050000
v 0.950000 0.000000 0.050000
v 0.950000 0.100000 0.050000
v 0.050000 0.100000 0.050000
vt 0.000000 0.000000
vt 1.000000 0.000000
vt 1.000000 1.000000
vt 0.000000 1.000000
f 1/1 2/2 3/3 4/4
v 0.950000 0.000000 0.950000
v 0.050000 0.000000 0.950000
v 0.050000 0.100000 0.950000
v 0.950000 0.100000 0.950000
vt 0.000000 0.000000
vt 1.000000 0.000000
vt 1.000000 1.000000
vt 0.000000 1.000000
f 5/5 6/6 7/7 8/8
v 0.050000 0.000000 0.950000
v 0.050000 0.000000 0.050000
v 0.050000 0.100000 0.050000
v 0.050000 0.100000 0.950000
vt 0.000000 0.000000
vt 1.000000 0.000000
vt 1.000000 1.000000
vt 0.000000 1.000000
f 9/9 10/10 11/11 12/12
v 0.950000 0.000000 0.050000
v 0.950000 0.000000 0.950000
v 0.950000 0.100000 0.950000
v 0.950000 0.100000 0.050000
vt 0.000000 0.000000
vt 1.000000 0.000000
vt 1.000000 1.000000
vt 0.000000 1.000000
f 13/13 14/14 15/15 16/16
v 0.050000 0.100000 0.050000
v 0.950000 0.100000 0.050000
v 0.950000 0.100000 0.950000
v 0.050000 0.100000 0.950000
vt 0.000000 0.000000
vt 1.000000 0.000000
vt 1.000000 1.000000
vt 0.000000 1.000000
f 17/17 18/18 19/19 20/20
v 0.050000 0.000000 0.950000
v 0.950000 0.000000 0.950000
v 0.950000 0.000000 0.050000
v 0.050000 0.000000 0.050000
vt 0.000000 0.000000
vt 1.000000 0.000000
vt 1.000000 1.000000
vt 0.000000 1.000000
f 21/21 22/22 23/23 24/24
usemtl olive
v 0.300000 0.100000 0.270000
v 0.346587 0.100000 0.276133
v 0.346587 0.950000 0.276133
v 0.300000 0.950000 0.270000
vt 0.000000 0.000000
vt 0.041667 0.000000
vt 0.041667 1.000000
vt 0.000000 1.000000
f 25/25 26/26 27/27 28/28
v 0.300000 0.100000 0.450000
v 0.346587 0.100000 0.276133
v 0.300000 0.100000 0.270000
vt 0.000000 0.000000
vt 1.000000 0.000000
vt 1.000000 1.000000
f 29/29 30/30 31/31
v 0.300000 0.950000 0.450000
v 0.300000 0.950000 0.270000
v 0.346587 0.950000 0.276133
vt 0.000000 0.000000
vt 1.000000 0.000000
vt 1.000000 1.000000
f 32/32 33/33 34/34
v 0.346587 0.100000 0.276133
v 0.390000 0.100000 0.294115
v 0.390000 0.950000 0.294115
v 0.346587 0.950000 0.276133
vt 0.041667 0.000000
vt 0.083333 0.000000
vt 0.083333 1.000000
vt 0.041667 1.000000
f 35/35 36/36 37/37 38/38
v 0.300000 0.100000 0.450000
v 0.390000 0.100000 0.294115
v 0.346587 0.100000 0.276133
vt 0.000000 0.000000
vt 1.000000 0.000000
vt 1.000000 1.000000
f 39/39 40/40 41/41
v 0.300000 0.950000 0.450000
v 0.346587 0.950000 0.276133
v 0.390000 0.950000 0.294115
vt 0.000000 0.000000
vt 1.000000 0.000000
vt 1.000000 1.000000
f 42/42 43/43 44/44
v 0.390000 0.100000 0.294115
v 0.427279 0.100000 0.322721
v 0.427279 0.950000 0.322721
v 0.390000 0.950000 0.294115
vt 0.083333 0.000000
vt 0.125000 0.000000
vt 0.125000 1.000000
vt 0.083333 1.000000
f 45/45 46/46 47/47 48/48
v 0.300000 0.100000 0.450000
v 0.427279 0.100000 0.322721
v 0.390000 0.100000 0.294115
vt 0.000000 0.000000
vt 1.000000 0.000000
vt 1.000000 1.000000
f 49/49 50/50 51/51
v 0.300000 0.950000 0.450000
v 0.390000 0.950000 0.294115
v 0.427279 0.950000 0.322721
vt 0.000000 0.000000
vt 1.000000 0.000000
vt 1.000000 1.000000
f 52/52 53/53 54/54
v 0.427279 0.100000 0.322721
v 0.455885 0.100000 0.360000
v 0.455885 0.950000 0.360000
v 0.427279 0.950000 0.322721
vt 0.125000 0.000000
vt 0.166667 0.000000
vt 0.166667 1.000000
vt 0.125000 1.000000
f 55/55 56/56 57/57 58/58
v 0.300000 0.100000 0.450000
v 0.455885 0.100000 0.360000
v 0.427279 0.100000 0.322721
vt 0.000000 0.000000
vt 1.000000 0.000000
vt 1.000000 1.000000
f 59/59 60/60 61/61
v 0.300000 0.950000 0.450000
v 0.427279 0.950000 0.322721
v 0.455885 0.950000 0.360000
vt 0.000000 0.000000
vt 1.000000 0.000000
vt 1.000000 1.000000
f 62/62 63/63 64/64
v 0.455885 0.100000 0.360000
v 0.473867 0.100000 0.403413
v 0.473867 0.950000 0.403413
v 0.455885 0.950000 0.360000
vt 0.166667 0.000000
vt 0.208333 0.000000
vt 0.208333 1.000000
vt 0.166667 1.000000
f 65/65 66/66 67/67 68/68
v 0.300000 0.100000 0.450000
v 0.473867 0.100000 0.403413
v 0.455885 0.100000 0.360000
vt 0.000000 0.000000
vt 1.000000 0.000000
vt 1.000000 1.000000
f 69/69 70/70 71/71
v 0.300000 0.950000 0.450000
v 0.455885 0.950000 0.360000
v 0.473867 0.950000 0.403413
vt 0.000000 0.000000
vt 1.000000 0.000000
vt 1.000000 1.000000
f 72/72 73/73 74/74
v 0.473867 0.100000 0.403413
v 0.480000 0.100000 0.450000
v 0.480000 0.950000 0.450000
v 0.473867 0.950000 0.403413
vt 0.208333 0.000000
vt 0.250000 0.000000
vt 0.250000 1.000000
vt 0.208333 1.000000
f 75/75 76/76 77/77 78/78
v 0.300000 0.100000 0.450000
v 0.480000 0.100000 0.450000
v 0.473867 0.100000 0.403413
vt 0.000000 0.000000
vt 1.000000 0.000000
vt 1.000000 1.000000
f 79/79 80/80 81/81
v 0.300000 0.950000 0.450000
v 0.473867 0.950000 0.403413
v 0.480000 0.950000 0.450000
vt 0.000000 0.000000
vt 1.000000 0.000000
vt 1.000000 1.000000
f 82/82 83/83 84/84
v 0.480000 0.100000 0.450000
v 0.473867 0.100000 0.496587
v 0.473867 0.950000 0.496587
v 0.480000 0.950000 0.450000
vt 0.250000 0.000000
vt 0.291667 0.000000
vt 0.291667 1.000000
vt 0.250000 1.000000
f 85/85 86/86 87/87 88/88
v 0.300000 0.100000 0.450000
v 0.473867 0.100000 0.496587
v 0.480000 0.100000 0.450000
vt 0.000000 0.000000
vt 1.000000 0.000000
vt 1.000000 1.000000
f 89/89 90/90 91/91
v 0.300000 0.950000 0.450000
v 0.480000 0.950000 0.450000
v 0.473867 0.950000 0.496587
vt 0.000000 0.000000
vt 1.000000 0.000000
vt 1.000000 1.000000
f 92/92 93/93 94/94
v 0.473867 0.100000 0.496587
v 0.455885 0.100000 0.540000
v 0.455885 0.950000 0.540000
v 0.473867 0.950000 0.496587
vt 0.291667 0.000000
vt 0.333333 0.000000
vt 0.333333 1.000000
vt 0.291667 1.000000
f 95/95 96/96 97/97 98/98
v 0.300000 0.100000 0.450000
v 0.455885 0.100000 0.540000
v 0.473867 0.100000 0.496587
vt 0.000000 0.000000
vt 1.000000 0.000000
vt 1.000000 1.000000
f 99/99 100/100 101/101
v 0.300000 0.950000 0.450000
v 0.473867 0.950000 0.496587
v 0.455885 0.950000 0.540000
vt 0.000000 0.000000
vt 1.000000 0.000000
vt 1.000000 1.000000
f 102/102 103/103 104/104
v 0.455885 0.100000 0.540000
v 0.427279 0.100000 0.577279
v 0.427279 0.950000 0.577279
v 0.455885 0.950000 0.540000
vt 0.333333 0.000000
vt 0.375000 0.000000
vt 0.375000 1.000000
vt 0.333333 1.000000
f 105/105 106/106 107/107 108/108
v 0.300000 0.100000 0.450000
v 0.427279 0.100000 0.577279
v 0.455885 0.100000 0.540000
vt 0.000000 0.000000
vt 1.000000 0.000000
vt 1.000000 1.000000
f 109/109 110/110 111/111
v 0.300000 0.950000 0.450000
v 0.455885 0.950000 0.540000
v 0.427279 0.950000 0.577279
vt 0.000000 0.000000
vt 1.000000 0.000000
vt 1.000000 1.000000
f 112/112 113/113 114/114
v 0.427279 0.100000 0.577279
v 0.390000 0.100000 0.605885
v 0.390000 0.950000 0.605885
v 0.427279 0.950000 0.577279
vt 0.375000 0.000000
vt 0.416667 0.000000
vt 0.416667 1.000000
vt 0.375000 1.000000
f 115/115 116/116 117/117 118/118
v 0.300000 0.100000 0.450000
v 0.390000 0.100000 0.605885
v 0.427279 0.100000 0.577279
vt 0.000000 0.000000
vt 1.000000 0.000000
vt 1.000000 1.000000
f 119/119 120/120 121/121
v 0.300000 0.950000 0.450000
v 0.427279 0.950000 0.577279
v 0.390000 0.950000 0.605885
vt 0.000000 0.000000
vt 1.000000 0.000000
vt 1.000000 1.000000
f 122/122 123/123 124/124
v 0.390000 0.100000 0.605885
v 0.346587 0.100000 0.623867
v 0.346587 0.950000 0.623867
v 0.390000 0.950000 0.605885
vt 0.416667 0.000000
vt 0.458333 0.000000
vt 0.458333 1.000000
vt 0.416667 1.000000
f 125/125 126/126 127/127 128/128
v 0.300000 0.100000 0.450000
v 0.346587 0.100000 0.623867
v 0.390000 0.100000 0.605885
vt 0.000000 0.000000
vt 1.000000 0.000000
vt 1.000000 1.000000
f 129/129 130/130 131/131
v 0.300000 0.950000 0.450000
v 0.390000 0.950000 0.605885
v 0.346587 0.950000 0.623867
vt 0.000000 0.000000
vt 1.000000 0.000000
vt 1.000000 1.000000
f 132/132 133/133 134/134
v 0.346587 0.100000 0.623867
v 0.300000 0.100000 0.630000
v 0.300000 0.950000 0.630000
v 0.346587 0.950000 0.623867
vt 0.458333 0.000000
vt 0.500000 0.000000
vt 0.500000 1.000000
vt 0.458333 1.000000
f 135/135 136/136 137/137 138/138
v 0.300000 0.100000 0.450000
v 0.300000 0.100000 0.630000
v 0.346587 0.100000 0.623867
vt 0.000000 0.000000
vt 1.000000 0.000000
vt 1.000000 1.000000
f 139/139 140/140 141/141
v 0.300000 0.950000 0.450000
v 0.346587 0.950000 0.623867
v 0.300000 0.950000 0.630000
vt 0.000000 0.000000
vt 1.000000 0.000000
vt 1.000000 1.000000
f 142/142 143/143 144/144
v 0.300000 0.100000 0.630000
v 0.253413 0.100000 0.623867
v 0.253413 0.950000 0.623867
v 0.300000 0.950000 0.630000
vt 0.500000 0.000000
vt 0.541667 0.000000
vt 0.541667 1.000000
vt 0.500000 1.000000
f 145/145 146/146 147/147 148/148
v 0.300000 0.100000 0.450000
v 0.253413 0.100000 0.623867
v 0.300000 0.100000 0.630000
vt 0.000000 0.000000
vt 1.000000 0.000000
vt 1.000000 1.000000
f 149/149 150/150 151/151
v 0.300000 0.950000 0.450000
v 0.300000 0.950000 0.630000
v 0.253413 0.950000 0.623867
vt 0.000000 0.000000
vt 1.000000 0.000000
vt 1.000000 1.000000
f 152/152 153/153 154/154
v 0.253413 0.100000 0.623867
v 0.210000 0.100000 0.605885
v 0.210000 0.950000 0.605885
v 0.253413 0.950000 0.623867
vt 0.541667 0.000000
vt 0.583333 0.000000
vt 0.583333 1.000000
vt 0.541667 1.000000
f 155/155 156/156 157/157 158/158
v 0.300000 0.100000 0.450000
v 0.210000 0.100000 0.605885
v 0.253413 0.100000 0.623867
vt 0.000000 0.000000
vt 1.000000 0.000000
vt 1.000000 1.000000
f 159/159 160/160 161/161
v 0.300000 0.950000 0.450000
v 0.253413 0.950000 0.623867
v 0.210000 0.950000 0.605885
vt 0.000000 0.000000
vt 1.000000 0.000000
vt 1.000000 1.000000
f 162/162 163/163 164/164
v 0.210000 0.100000 0.605885
v 0.172721 0.100000 0.577279
v 0.172721 0.950000 0.577279
v 0.210000 0.950000 0.605885
vt 0.583333 0.000000
vt 0.625000 0.000000
vt 0.625000 1.000000
vt 0.583333 1.000000
f 165/165 166/166 167/167 168/168
v 0.300000 0.100000 0.450000
v 0.172721 0.100000 0.577279
v 0.210000 0.100000 0.605885
vt 0.000000 0.000000
vt 1.000000 0.000000
vt 1.000000 1.000000
f 169/169 170/170 171/171
v 0.300000 0.950000 0.450000
v 0.210000 0.950000 0.605885
v 0.172721 0.950000 0.577279
vt 0.000000 0.000000
vt 1.000000 0.000000
vt 1.000000 1.000000
f 172/172 173/173 174/174
v 0.172721 0.100000 0.577279
v 0.144115 0.100000 0.540000
v 0.144115 0.950000 0.540000
v 0.172721 0.950000 0.577279
vt 0.625000 0.000000
vt 0.666667 0.000000
vt 0.666667 1.000000
vt 0.625000 1.000000
f 175/175 176/176 177/177 178/178
v 0.300000 0.100000 0.450000
v 0.144115 0.100000 0.540000
v 0.172721 0.100000 0.577279
vt 0.000000 0.000000
vt 1.000000 0.000000
vt 1.000000 1.000000
f 179/179 180/180 181/181
v 0.300000 0.950000 0.450000
v 0.172721 0.950000 0.577279
v 0.144115 0.950000 0.540000
vt 0.000000 0.000000
vt 1.000000 0.000000
vt 1.000000 1.000000
f 182/182 183/183 184/184
v 0.144115 0.100000 0.540000
v 0.126133 0.100000 0.496587
v 0.126133 0.950000 0.496587
v 0.144115 0.950000 0.540000
vt 0.666667 0.000000
vt 0.708333 0.000000
vt 0.708333 1.000000
vt 0.666667 1.000000
f 185/185 186/186 187/187 188/188
v 0.300000 0.100000 0.450000
v 0.126133 0.100000 0.496587
v 0.144115 0.100000 0.540000
vt 0.000000 0.000000
vt 1.000000 0.000000
vt 1.000000 1.000000
f 189/189 190/190 191/191
v 0.300000 0.950000 0.450000
v 0.144115 0.950000 0.540000
v 0.126133 0.950000 0.496587
vt 0.000000 0.000000
vt 1.000000 0.000000
vt 1.000000 1.000000
f 192/192 193/193 194/194
v 0.126133 0.100000 0.496587
v 0.120000 0.100000 0.450000
v 0.120000 0.950000 0.450000
v 0.126133 0.950000 0.496587
vt 0.708333 0.000000
vt 0.750000 0.000000
vt 0.750000 1.000000
vt 0.708333 1.000000
f 195/195 196/196 197/197 198/198
v 0.300000 0.100000 0.450000
v 0.120000 0.100000 0.450000
v 0.126133 0.100000 0.496587
vt 0.000000 0.000000
vt 1.000000 0.000000
vt 1.000000 1.000000
f 199/199 200/200 201/201
v 0.300000 0.950000 0.450000
v 0.126133 0.950000 0.496587
v 0.120000 0.950000 0.450000
vt 0.000000 0.000000
vt 1.000000 0.000000
vt 1.000000 1.000000
f 202/202 203/203 204/204
v 0.120000 0.100000 0.450000
v 0.126133 0.100000 0.403413
v 0.126133 0.950000 0.403413
v 0.120000 0.950000 0.450000
vt 0.750000 0.000000
vt 0.791667 0.000000
vt 0.791667 1.000000
vt 0.750000 1.000000
f 205/205 206/206 207/207 208/208
v 0.300000 0.100000 0.450000
v 0.126133 0.100000 0.403413
v 0.120000 0.100000 0.450000
vt 0.000000 0.000000
vt 1.000000 0.000000
vt 1.000000 1.000000
f 209/209 210/210 211/211
v 0.300000 0.950000 0.450000
v 0.120000 0.950000 0.450000
v 0.126133 0.950000 0.403413
vt 0.000000 0.000000
vt 1.000000 0.000000
vt 1.000000 1.000000
f 212/212 213/213 214/214
v 0.126133 0.100000 0.403413
v 0.144115 0.100000 0.360000
v 0.144115 0.950000 0.360000
v 0.126133 0.950000 0.403413
vt 0.791667 0.000000
vt 0.833333 0.000000
vt 0.833333 1.000000
vt 0.791667 1.000000
f 215/215 216/216 217/217 218/218
v 0.300000 0.100000 0.450000
v 0.144115 0.100000 0.360000
v 0.126133 0.100000 0.403413
vt 0.000000 0.000000
vt 1.000000 0.000000
vt 1.000000 1.000000
f 219/219 220/220 221/221
v 0.300000 0.950000 0.450000
v 0.126133 0.950000 0.403413
v 0.144115 0.950000 0.360000
vt 0.000000 0.000000
vt 1.000000 0.000000
vt 1.000000 1.000000
f 222/222 223/223 224/224
v 0.144115 0.100000 0.360000
v 0.172721 0.100000 0.322721
v 0.172721 0.950000 0.322721
v 0.144115 0.950000 0.360000
vt 0.833333 0.000000
vt 0.875000 0.000000
vt 0.875000 1.000000
vt 0.833333 1.000000
f 225/225 226/226 227/227 228/228
v 0.300000 0.100000 0.450000
v 0.172721 0.100000 0.322721
v 0.144115 0.100000 0.360000
vt 0.000000 0.000000
vt 1.000000 0.000000
vt 1.000000 1.000000
f 229/229 230/230 231/231
v 0.300000 0.950000 0.450000
v 0.144115 0.950000 0.360000
v 0.172721 0.950000 0.322721
vt 0.000000 0.000000
vt 1.000000 0.000000
vt 1.000000 1.000000
f 232/232 233/233 234/234
v 0.172721 0.100000 0.322721
v 0.210000 0.100000 0.294115
v 0.210000 0.950000 0.294115
v 0.172721 0.950000 0.322721
vt 0.875000 0.000000
vt 0.916667 0.000000
vt 0.916667 1.000000
vt 0.875000 1.000000
f 235/235 236/236 237/237 238/238
v 0.300000 0.100000 0.450000
v 0.210000 0.100000 0.294115
v 0.172721 0.100000 0.322721
vt 0.000000 0.000000
vt 1.000000 0.000000
vt 1.000000 1.000000
f 239/239 240/240 241/241
v 0.300000 0.950000 0.450000
v 0.172721 0.950000 0.322721
v 0.210000 0.950000 0.294115
vt 0.000000 0.000000
vt 1.000000 0.000000
vt 1.000000 1.000000
f 242/242 243/243 244/244
v 0.210000 0.100000 0.294115
v 0.253413 0.100000 0.276133
v 0.253413 0.950000 0.276133
v 0.210000 0.950000 0.294115
vt 0.916667 0.000000
vt 0.958333 0.000000
vt 0.958333 1.000000
vt 0.916667 1.000000
f 245/245 246/246 247/247 248/248
v 0.300000 0.100000 0.450000
v 0.253413 0.100000 0.276133
v 0.210000 0.100000 0.294115
vt 0.000000 0.000000
vt 1.000000 0.000000
vt 1.000000 1.000000
f 249/249 250/250 251/251
v 0.300000 0.950000 0.450000
v 0.210000 0.950000 0.294115
v 0.253413 0.950000 0.276133
vt 0.000000 0.000000
vt 1.000000 0.000000
vt 1.000000 1.000000
f 252/252 253/253 254/254
v 0.253413 0.100000 0.276133
v 0.300000 0.100000 0.270000
v 0.300000 0.950000 0.270000
v 0.253413 0.950000 0.276133
vt 0.958333 0.000000
vt 1.000000 0.000000
vt 1.000000 1.000000
vt 0.958333 1.000000
f 255/255 256/256 257/257 258/258
v 0.300000 0.100000 0.450000
v 0.300000 0.100000 0.270000
v 0.253413 0.100000 0.276133
vt 0.000000 0.000000
vt 1.000000 0.000000
vt 1.000000 1.000000
f 259/259 260/260 261/261
v 0.300000 0.950000 0.450000
v 0.253413 0.950000 0.276133
v 0.300000 0.950000 0.270000
vt 0.000000 0.000000
vt 1.000000 0.000000
vt 1.000000 1.000000
f 262/262 263/263 264/264
usemtl dark
v 0.700000 0.100000 0.290000
v 0.741411 0.100000 0.295452
v 0.741411 0.780000 0.295452
v 0.700000 0.780000 0.290000
vt 0.000000 0.000000
vt 0.041667 0.000000
vt 0.041667 1.000000
vt 0.000000 1.000000
f 265/265 266/266 267/267 268/268
v 0.700000 0.100000 0.450000
v 0.741411 0.100000 0.295452
v 0.700000 0.100000 0.290000
vt 0.000000 0.000000
vt 1.000000 0.000000
vt 1.000000 1.000000
f 269/269 270/270 271/271
v 0.700000 0.780000 0.450000
v 0.700000 0.780000 0.290000
v 0.741411 0.780000 0.295452
vt 0.000000 0.000000
vt 1.000000 0.000000
vt 1.000000 1.000000
f 272/272 273/273 274/274
v 0.741411 0.100000 0.295452
v 0.780000 0.100000 0.311436
v 0.780000 0.780000 0.311436
v 0.741411 0.780000 0.295452
vt 0.041667 0.000000
vt 0.083333 0.000000
vt 0.083333 1.000000
vt 0.041667 1.000000
f 275/275 276/276 277/277 278/278
v 0.700000 0.100000 0.450000
v 0.780000 0.100000 0.311436
v 0.741411 0.100000 0.295452
vt 0.000000 0.000000
vt 1.000000 0.000000
vt 1.000000 1.000000
f 279/279 280/280 281/281
v 0.700000 0.780000 0.450000
v 0.741411 0.780000 0.295452
v 0.780000 0.780000 0.311436
vt 0.000000 0.000000
vt 1.000000 0.000000
vt 1.000000 1.000000
f 282/282 283/283 284/284
v 0.780000 0.100000 0.311436
v 0.813137 0.100000 0.336863
v 0.813137 0.780000 0.336863
v 0.780000 0.780000 0.311436
vt 0.083333 0.000000
vt 0.125000 0.000000
vt 0.125000 1.000000
vt 0.083333 1.000000
f 285/285 286/286 287/287 288/288
v 0.700000 0.100000 0.450000
v 0.813137 0.100000 0.336863
v 0.780000 0.100000 0.311436
vt 0.000000 0.000000
vt 1.000000 0.000000
vt 1.000000 1.000000
f 289/289 290/290 291/291
v 0.700000 0.780000 0.450000
v 0.780000 0.780000 0.311436
v 0.813137 0.780000 0.336863
vt 0.000000 0.000000
vt 1.000000 0.000000
vt 1.000000 1.000000
f 292/292 293/293 294/294
v 0.813137 0.100000 0.336863
v 0.838564 0.100000 0.370000
v 0.838564 0.780000 0.370000
v 0.813137 0.780000 0.336863
vt 0.125000 0.000000
vt 0.166667 0.000000
vt 0.166667 1.000000
vt 0.125000 1.000000
f 295/295 296/296 297/297 298/298
v 0.700000 0.100000 0.450000
v 0.838564 0.100000 0.370000
v 0.813137 0.100000 0.336863
vt 0.000000 0.000000
vt 1.000000 0.000000
vt 1.000000 1.000000
f 299/299 300/300 301/301
v 0.700000 0.780000 0.450000
v 0.813137 0.780000 0.336863
v 0.838564 0.780000 0.370000
vt 0.000000 0.000000
vt 1.000000 0.000000
vt 1.000000 1.000000
f 302/302 303/303 304/304
v 0.838564 0.100000 0.370000
v 0.854548 0.100000 0.408589
v 0.854548 0.780000 0.408589
v 0.838564 0.780000 0.370000
vt 0.166667 0.000000
vt 0.208333 0.000000
vt 0.208333 1.000000
vt 0.166667 1.000000
f 305/305 306/306 307/307 308/308
v 0.700000 0.100000 0.450000
v 0.854548 0.100000 0.408589
v 0.838564 0.100000 0.370000
vt 0.000000 0.000000
vt 1.000000 0.000000
vt 1.000000 1.000000
f 309/309 310/310 311/311
v 0.700000 0.780000 0.450000
v 0.838564 0.780000 0.370000
v 0.854548 0.780000 0.408589
vt 0.000000 0.000000
vt 1.000000 0.000000
vt 1.000000 1.000000
f 312/312 313/313 314/314
v 0.854548 0.100000 0.408589
v 0.860000 0.100000 0.450000
v 0.860000 0.780000 0.450000
v 0.854548 0.780000 0.408589
vt 0.208333 0.000000
vt 0.250000 0.000000
vt 0.250000 1.000000
vt 0.208333 1.000000
f 315/315 316/316 317/317 318/318
v 0.700000 0.100000 0.450000
v 0.860000 0.100000 0.450000
v 0.854548 0.100000 0.408589
vt 0.000000 0.000000
vt 1.000000 0.000000
vt 1.000000 1.000000
f 319/319 320/320 321/321
v 0.700000 0.780000 0.450000
v 0.854548 0.780000 0.408589
v 0.860000 0.780000 0.450000
vt 0.000000 0.000000
vt 1.000000 0.000000
vt 1.000000 1.000000
f 322/322 323/323 324/324
v 0.860000 0.100000 0.450000
v 0.854548 0.100000 0.491411
v 0.854548 0.780000 0.491411
v 0.860000 0.780000 0.450000
vt 0.250000 0.000000
vt 0.291667 0.000000
vt 0.291667 1.000000
vt 0.250000 1.000000
f 325/325 326/326 327/327 328/328
v 0.700000 0.100000 0.450000
v 0.854548 0.100000 0.491411
v 0.860000 0.100000 0.450000
vt 0.000000 0.000000
vt 1.000000 0.000000
vt 1.000000 1.000000
f 329/329 330/330 331/331
v 0.700000 0.780000 0.450000
v 0.860000 0.780000 0.450000
v 0.854548 0.780000 0.491411
vt 0.000000 0.000000
vt 1.000000 0.000000
vt 1.000000 1.000000
f 332/332 333/333 334/334
v 0.854548 0.100000 0.491411
v 0.838564 0.100000 0.530000
v 0.838564 0.780000 0.530000
v 0.854548 0.780000 0.491411
vt 0.291667 0.000000
vt 0.333333 0.000000
vt 0.333333 1.000000
vt 0.291667 1.000000
f 335/335 336/336 337/337 338/338
v 0.700000 0.100000 0.450000
v 0.838564 0.100000 0.530000
v 0.854548 0.100000 0.491411
vt 0.000000 0.000000
vt 1.000000 0.000000
vt 1.000000 1.000000
f 339/339 340/340 341/341
v 0.700000 0.780000 0.450000
v 0.854548 0.780000 0.491411
v 0.838564 0.780000 0.530000
vt 0.000000 0.000000
vt 1.000000 0.000000
vt 1.000000 1.000000
f 342/342 343/343 344/344
v 0.838564 0.100000 0.530000
v 0.813137 0.100000 0.563137
v 0.813137 0.780000 0.563137
v 0.838564 0.780000 0.530000
vt 0.333333 0.000000
vt 0.375000 0.000000
vt 0.375000 1.000000
vt 0.333333 1.000000
f 345/345 346/346 347/347 348/348
v 0.700000 0.100000 0.450000
v 0.813137 0.100000 0.563137
v 0.838564 0.100000 0.530000
vt 0.000000 0.000000
vt 1.000000 0.000000
vt 1.000000 1.000000
f 349/349 350/350 351/351
v 0.700000 0.780000 0.450000
v 0.838564 0.780000 0.530000
v 0.813137 0.780000 0.563137
vt 0.000000 0.000000
vt 1.000000 0.000000
vt 1.000000 1.000000
f 352/352 353/353 354/354
v 0.813137 0.100000 0.563137
v 0.780000 0.100000 0.588564
v 0.780000 0.780000 0.588564
v 0.813137 0.780000 0.563137
vt 0.375000 0.000000
vt 0.416667 0.000000
vt 0.416667 1.000000
vt 0.375000 1.000000
f 355/355 356/356 357/357 358/358
v 0.700000 0.100000 0.450000
v 0.780000 0.100000 0.588564
v 0.813137 0.100000 0.563137
vt 0.000000 0.000000
vt 1.000000 0.000000
vt 1.000000 1.000000
f 359/359 360/360 361/361
v 0.700000 0.780000 0.450000
v 0.813137 0.780000 0.563137
v 0.780000 0.780000 0.588564
vt 0.000000 0.000000
vt 1.000000 0.000000
vt 1.000000 1.000000
f 362/362 363/363 364/364
v 0.780000 0.100000 0.588564
v 0.741411 0.100000 0.604548
v 0.741411 0.780000 0.604548
v 0.780000 0.780000 0.588564
vt 0.416667 0.000000
vt 0.458333 0.000000
vt 0.458333 1.000000
vt 0.416667 1.000000
f 365/365 366/366 367/367 368/368
v 0.700000 0.100000 0.450000
v 0.741411 0.100000 0.604548
v 0.780000 0.100000 0.588564
vt 0.000000 0.000000
vt 1.000000 0.000000
vt 1.000000 1.000000
f 369/369 370/370 371/371
v 0.700000 0.780000 0.450000
v 0.780000 0.780000 0.588564
v 0.741411 0.780000 0.604548
vt 0.000000 0.000000
vt 1.000000 0.000000
vt 1.000000 1.000000
f 372/372 373/373 374/374
v 0.741411 0.100000 0.604548
v 0.700000 0.100000 0.610000
v 0.700000 0.780000 0.610000
v 0.741411 0.780000 0.604548
vt 0.458333 0.000000
vt 0.500000 0.000000
vt 0.500000 1.000000
vt 0.458333 1.000000
f 375/375 376/376 377/377 378/378
v 0.700000 0.100000 0.450000
v 0.700000 0.100000 0.610000
v 0.741411 0.100000 0.604548
vt 0.000000 0.000000
vt 1.000000 0.000000
vt 1.000000 1.000000
f 379/379 380/380 381/381
v 0.700000 0.780000 0.450000
v 0.741411 0.780000 0.604548
v 0.700000 0.780000 0.610000
vt 0.000000 0.000000
vt 1.000000 0.000000
vt 1.000000 1.000000
f 382/382 383/383 384/384
v 0.700000 0.100000 0.610000
v 0.658589 0.100000 0.604548
v 0.658589 0.780000 0.604548
v 0.700000 0.780000 0.610000
vt 0.500000 0.000000
vt 0.541667 0.000000
vt 0.541667 1.000000
vt 0.500000 1.000000
f 385/385 386/386 387/387 388/388
v 0.700000 0.100000 0.450000
v 0.658589 0.100000 0.604548
v 0.700000 0.100000 0.610000
vt 0.000000 0.000000
vt 1.000000 0.000000
vt 1.000000 1.000000
f 389/389 390/390 391/391
v 0.700000 0.780000 0.450000
v 0.700000 0.780000 0.610000
v 0.658589 0.780000 0.604548
vt 0.000000 0.000000
vt 1.000000 0.000000
vt 1.000000 1.000000
f 392/392 393/393 394/394
v 0.658589 0.100000 0.604548
v 0.620000 0.100000 0.588564
v 0.620000 0.780000 0.588564
v 0.658589 0.780000 0.604548
vt 0.541667 0.000000
vt 0.583333 0.000000
vt 0.583333 1.000000
vt 0.541667 1.000000
f 395/395 396/396 397/397 398/398
v 0.700000 0.100000 0.450000
v 0.620000 0.100000 0.588564
v 0.658589 0.100000 0.604548
vt 0.000000 0.000000
vt 1.000000 0.000000
vt 1.000000 1.000000
f 399/399 400/400 401/401
v 0.700000 0.780000 0.450000
v 0.658589 0.780000 0.604548
v 0.620000 0.780000 0.588564
vt 0.000000 0.000000
vt 1.000000 0.000000
vt 1.000000 1.000000
f 402/402 403/403 404/404
v 0.620000 0.100000 0.588564
v 0.586863 0.100000 0.563137
v 0.586863 0.780000 0.563137
v 0.620000 0.780000 0.588564
vt 0.583333 0.000000
vt 0.625000 0.000000
vt 0.625000 1.000000
vt 0.583333 1.000000
f 405/405 406/406 407/407 408/408
v 0.700000 0.100000 0.450000
v 0.586863 0.100000 0.563137
v 0.620000 0.100000 0.588564
vt 0.000000 0.000000
vt 1.000000 0.000000
vt 1.000000 1.000000
f 409/409 410/410 411/411
v 0.700000 0.780000 0.450000
v 0.620000 0.780000 0.588564
v 0.586863 0.780000 0.563137
vt 0.000000 0.000000
vt 1.000000 0.000000
vt 1.000000 1.000000
f 412/412 413/413 414/414
v 0.586863 0.100000 0.563137
v 0.561436 0.100000 0.530000
v 0.561436 0.780000 0.530000
v 0.586863 0.780000 0.563137
vt 0.625000 0.000000
vt 0.666667 0.000000
vt 0.666667 1.000000
vt 0.625000 1.000000
f 415/415 416/416 417/417 418/418
v 0.700000 0.100000 0.450000
v 0.561436 0.100000 0.530000
v 0.586863 0.100000 0.563137
vt 0.000000 0.000000
vt 1.000000 0.000000
vt 1.000000 1.000000
f 419/419 420/420 421/421
v 0.700000 0.780000 0.450000
v 0.586863 0.780000 0.563137
v 0.561436 0.780000 0.530000
vt 0.000000 0.000000
vt 1.000000 0.000000
vt 1.000000 1.000000
f 422/422 423/423 424/424
v 0.561436 0.100000 0.530000
v 0.545452 0.100000 0.491411
v 0.545452 0.780000 0.491411
v 0.561436 0.780000 0.530000
vt 0.666667 0.000000
vt 0.708333 0.000000
vt 0.708333 1.000000
vt 0.666667 1.000000
f 425/425 426/426 427/427 428/428
v 0.700000 0.100000 0.450000
v 0.545452 0.100000 0.491411
v 0.561436 0.100000 0.530000
vt 0.000000 0.000000
vt 1.000000 0.000000
vt 1.000000 1.000000
f 429/429 430/430 431/431
v 0.700000 0.780000 0.450000
v 0.561436 0.780000 0.530000
v 0.545452 0.780000 0.491411
vt 0.000000 0.000000
vt 1.000000 0.000000
vt 1.000000 1.000000
f 432/432 433/433 434/434
v 0.545452 0.100000 0.491411
v 0.540000 0.100000 0.450000
v 0.540000 0.780000 0.450000
v 0.545452 0.780000 0.491411
vt 0.708333 0.000000
vt 0.750000 0.000000
vt 0.750000 1.000000
vt 0.708333 1.000000
f 435/435 436/436 437/437 438/438
v 0.700000 0.100000 0.450000
v 0.540000 0.100000 0.450000
v 0.545452 0.100000 0.491411
vt 0.000000 0.000000
vt 1.000000 0.000000
vt 1.000000 1.000000
f 439/439 440/440 441/441
v 0.700000 0.780000 0.450000
v 0.545452 0.780000 0.491411
v 0.540000 0.780000 0.450000
vt 0.000000 0.000000
vt 1.000000 0.000000
vt 1.000000 1.000000
f 442/442 443/443 444/444
v 0.540000 0.100000 0.450000
v 0.545452 0.100000 0.408589
v 0.545452 0.780000 0.408589
v 0.540000 0.780000 0.450000
vt 0.750000 0.000000
vt 0.791667 0.000000
vt 0.791667 1.000000
vt 0.750000 1.000000
f 445/445 446/446 447/447 448/448
v 0.700000 0.100000 0.450000
v 0.545452 0.100000 0.408589
v 0.540000 0.100000 0.450000
vt 0.000000 0.000000
vt 1.000000 0.000000
vt 1.000000 1.000000
f 449/449 450/450 451/451
v 0.700000 0.780000 0.450000
v 0.540000 0.780000 0.450000
v 0.545452 0.780000 0.408589
vt 0.000000 0.000000
vt 1.000000 0.000000
vt 1.000000 1.000000
f 452/452 453/453 454/454
v 0.545452 0.100000 0.408589
v 0.561436 0.100000 0.370000
v 0.561436 0.780000 0.370000
v 0.545452 0.780000 0.408589
vt 0.791667 0.000000
vt 0.833333 0.000000
vt 0.833333 1.000000
vt 0.791667 1.000000
f 455/455 456/456 457/457 458/458
v 0.700000 0.100000 0.450000
v 0.561436 0.100000 0.370000
v 0.545452 0.100000 0.408589
vt 0.000000 0.000000
vt 1.000000 0.000000
vt 1.000000 1.000000
f 459/459 460/460 461/461
v 0.700000 0.780000 0.450000
v 0.545452 0.780000 0.408589
v 0.561436 0.780000 0.370000
vt 0.000000 0.000000
vt 1.000000 0.000000
vt 1.000000 1.000000
f 462/462 463/463 464/464
v 0.561436 0.100000 0.370000
v 0.586863 0.100000 0.336863
v 0.586863 0.780000 0.336863
v 0.561436 0.780000 0.370000
vt 0.833333 0.000000
vt 0.875000 0.000000
vt 0.875000 1.000000
vt 0.833333 1.000000
f 465/465 466/466 467/467 468/468
v 0.700000 0.100000 0.450000
v 0.586863 0.100000 0.336863
v 0.561436 0.100000 0.370000
vt 0.000000 0.000000
vt 1.000000 0.000000
vt 1.000000 1.000000
f 469/469 470/470 471/471
v 0.700000 0.780000 0.450000
v 0.561436 0.780000 0.370000
v 0.586863 0.780000 0.336863
vt 0.000000 0.000000
vt 1.000000 0.000000
vt 1.000000 1.000000
f 472/472 473/473 474/474
v 0.586863 0.100000 0.336863
v 0.620000 0.100000 0.311436
v 0.620000 0.780000 0.311436
v 0.586863 0.780000 0.336863
vt 0.875000 0.000000
vt 0.916667 0.000000
vt 0.916667 1.000000
vt 0.875000 1.000000
f 475/475 476/476 477/477 478/478
v 0.700000 0.100000 0.450000
v 0.620000 0.100000 0.311436
v 0.586863 0.100000 0.336863
vt 0.000000 0.000000
vt 1.000000 0.000000
vt 1.000000 1.000000
f 479/479 480/480 481/481
v 0.700000 0.780000 0.450000
v 0.586863 0.780000 0.336863
v 0.620000 0.780000 0.311436
vt 0.000000 0.000000
vt 1.000000 0.000000
vt 1.000000 1.000000
f 482/482 483/483 484/484
v 0.620000 0.100000 0.311436
v 0.658589 0.100000 0.295452
v 0.658589 0.780000 0.295452
v 0.620000 0.780000 0.311436
vt 0.916667 0.000000
vt 0.958333 0.000000
vt 0.958333 1.000000
vt 0.916667 1.000000
f 485/485 486/486 487/487 488/488
v 0.700000 0.100000 0.450000
v 0.658589 0.100000 0.295452
v 0.620000 0.100000 0.311436
vt 0.000000 0.000000
vt 1.000000 0.000000
vt 1.000000 1.000000
f 489/489 490/490 491/491
v 0.700000 0.780000 0.450000
v 0.620000 0.780000 0.311436
v 0.658589 0.780000 0.295452
vt 0.000000 0.000000
vt 1.000000 0.000000
vt 1.000000 1.000000
f 492/492 493/493 494/494
v 0.658589 0.100000 0.295452
v 0.700000 0.100000 0.290000
v 0.700000 0.780000 0.290000
v 0.658589 0.780000 0.295452
vt 0.958333 0.000000
vt 1.000000 0.000000
vt 1.000000 1.000000
vt 0.958333 1.000000
f 495/495 496/496 497/497 498/498
v 0.700000 0.100000 0.450000
v 0.700000 0.100000 0.290000
v 0.658589 0.100000 0.295452
vt 0.000000 0.000000
vt 1.000000 0.000000
vt 1.000000 1.000000
f 499/499 500/500 501/501
v 0.700000 0.780000 0.450000
v 0.658589 0.780000 0.295452
v 0.700000 0.780000 0.290000
vt 0.000000 0.000000
vt 1.000000 0.000000
vt 1.000000 1.000000
f 502/502 503/503 504/504
v 0.300000 0.780000 0.490000
v 0.297661 0.803395 0.482361
v 0.697661 0.843395 0.482361
v 0.700000 0.820000 0.490000
vt 0.000000 0.000000
vt 0.100000 0.000000
vt 0.100000 1.000000
vt 0.000000 1.000000
f 505/505 506/506 507/507 508/508
v 0.300000 0.780000 0.450000
v 0.297661 0.803395 0.482361
v 0.300000 0.780000 0.490000
vt 0.000000 0.000000
vt 1.000000 0.000000
vt 1.000000 1.000000
f 509/509 510/510 511/511
v 0.700000 0.820000 0.450000
v 0.700000 0.820000 0.490000
v 0.697661 0.843395 0.482361
vt 0.000000 0.000000
vt 1.000000 0.000000
vt 1.000000 1.000000
f 512/512 513/513 514/514
v 0.297661 0.803395 0.482361
v 0.296215 0.817853 0.462361
v 0.696215 0.857853 0.462361
v 0.697661 0.843395 0.482361
vt 0.100000 0.000000
vt 0.200000 0.000000
vt 0.200000 1.000000
vt 0.100000 1.000000
f 515/515 516/516 517/517 518/518
v 0.300000 0.780000 0.450000
v 0.296215 0.817853 0.462361
v 0.297661 0.803395 0.482361
vt 0.000000 0.000000
vt 1.000000 0.000000
vt 1.000000 1.000000
f 519/519 520/520 521/521
v 0.700000 0.820000 0.450000
v 0.697661 0.843395 0.482361
v 0.696215 0.857853 0.462361
vt 0.000000 0.000000
vt 1.000000 0.000000
vt 1.000000 1.000000
f 522/522 523/523 524/524
v 0.296215 0.817853 0.462361
v 0.296215 0.817853 0.437639
v 0.696215 0.857853 0.437639
v 0.696215 0.857853 0.462361
vt 0.200000 0.000000
vt 0.300000 0.000000
vt 0.300000 1.000000
vt 0.200000 1.000000
f 525/525 526/526 527/527 528/528
v 0.300000 0.780000 0.450000
v 0.296215 0.817853 0.437639
v 0.296215 0.817853 0.462361
vt 0.000000 0.000000
vt 1.000000 0.000000
vt 1.000000 1.000000
f 529/529 530/530 531/531
v 0.700000 0.820000 0.450000
v 0.696215 0.857853 0.462361
v 0.696215 0.857853 0.437639
vt 0.000000 0.000000
vt 1.000000 0.000000
vt 1.000000 1.000000
f 532/532 533/533 534/534
v 0.296215 0.817853 0.437639
v 0.297661 0.803395 0.417639
v 0.697661 0.843395 0.417639
v 0.696215 0.857853 0.437639
vt 0.300000 0.000000
vt 0.400000 0.000000
vt 0.400000 1.000000
vt 0.300000 1.000000
f 535/535 536/536 537/537 538/538
v 0.300000 0.780000 0.450000
v 0.297661 0.803395 0.417639
v 0.296215 0.817853 0.437639
vt 0.000000 0.000000
vt 1.000000 0.000000
vt 1.000000 1.000000
f 539/539 540/540 541/541
v 0.700000 0.820000 0.450000
v 0.696215 0.857853 0.437639
v 0.697661 0.843395 0.417639
vt 0.000000 0.000000
vt 1.000000 0.000000
vt 1.000000 1.000000
f 542/542 543/543 544/544
v 0.297661 0.803395 0.417639
v 0.300000 0.780000 0.410000
v 0.700000 0.820000 0.410000
v 0.697661 0.843395 0.417639
vt 0.400000 0.000000
vt 0.500000 0.000000
vt 0.500000 1.000000
vt 0.400000 1.000000
f 545/545 546/546 547/547 548/548
v 0.300000 0.780000 0.450000
v 0.300000 0.780000 0.410000
v 0.297661 0.803395 0.417639
vt 0.000000 0.000000
vt 1.000000 0.000000
vt 1.000000 1.000000
f 549/549 550/550 551/551
v 0.700000 0.820000 0.450000
v 0.697661 0.843395 0.417639
v 0.700000 0.820000 0.410000
vt 0.000000 0.000000
vt 1.000000 0.000000
vt 1.000000 1.000000
f 552/552 553/553 554/554
v 0.300000 0.780000 0.410000
v 0.302339 0.756605 0.417639
v 0.702339 0.796605 0.417639
v 0.700000 0.820000 0.410000
vt 0.500000 0.000000
vt 0.600000 0.000000
vt 0.600000 1.000000
vt 0.500000 1.000000
f 555/555 556/556 557/557 558/558
v 0.300000 0.780000 0.450000
v 0.302339 0.756605 0.417639
v 0.300000 0.780000 0.410000
vt 0.000000 0.000000
vt 1.000000 0.000000
vt 1.000000 1.000000
f 559/559 560/560 561/561
v 0.700000 0.820000 0.450000
v 0.700000 0.820000 0.410000
v 0.702339 0.796605 0.417639
vt 0.000000 0.000000
vt 1.000000 0.000000
vt 1.000000 1.000000
f 562/562 563/563 564/564
v 0.302339 0.756605 0.417639
v 0.303785 0.742147 0.437639
v 0.703785 0.782147 0.437639
v 0.702339 0.796605 0.417639
vt 0.600000 0.000000
vt 0.700000 0.000000
vt 0.700000 1.000000
vt 0.600000 1.000000
f 565/565 566/566 567/567 568/568
v 0.300000 0.780000 0.450000
v 0.303785 0.742147 0.437639
v 0.302339 0.756605 0.417639
vt 0.000000 0.000000
vt 1.000000 0.000000
vt 1.000000 1.000000
f 569/569 570/570 571/571
v 0.700000 0.820000 0.450000
v 0.702339 0.796605 0.417639
v 0.703785 0.782147 0.437639
vt 0.000000 0.000000
vt 1.000000 0.000000
vt 1.000000 1.000000
f 572/572 573/573 574/574
v 0.303785 0.742147 0.437639
v 0.303785 0.742147 0.462361
v 0.703785 0.782147 0.462361
v 0.703785 0.782147 0.437639
vt 0.700000 0.000000
vt 0.800000 0.000000
vt 0.800000 1.000000
vt 0.700000 1.000000
f 575/575 576/576 577/577 578/578
v 0.300000 0.780000 0.450000
v 0.303785 0.742147 0.462361
v 0.303785 0.742147 0.437639
vt 0.000000 0.000000
vt 1.000000 0.000000
vt 1.000000 1.000000
f 579/579 580/580 581/581
v 0.700000 0.820000 0.450000
v 0.703785 0.782147 0.437639
v 0.703785 0.782147 0.462361
vt 0.000000 0.000000
vt 1.000000 0.000000
vt 1.000000 1.000000
f 582/582 583/583 584/584
v 0.303785 0.742147 0.462361
v 0.302339 0.756605 0.482361
v 0.702339 0.796605 0.482361
v 0.703785 0.782147 0.462361
vt 0.800000 0.000000
vt 0.900000 0.000000
vt 0.900000 1.000000
vt 0.800000 1.000000
f 585/585 586/586 587/587 588/588
v 0.300000 0.780000 0.450000
v 0.302339 0.756605 0.482361
v 0.303785 0.742147 0.462361
vt 0.000000 0.000000
vt 1.000000 0.000000
vt 1.000000 1.000000
f 589/589 590/590 591/591
v 0.700000 0.820000 0.450000
v 0.703785 0.782147 0.462361
v 0.702339 0.796605 0.482361
vt 0.000000 0.000000
vt 1.000000 0.000000
vt 1.000000 1.000000
f 592/592 593/593 594/594
v 0.302339 0.756605 0.482361
v 0.300000 0.780000 0.490000
v 0.700000 0.820000 0.490000
v 0.702339 0.796605 0.482361
vt 0.900000 0.000000
vt 1.000000 0.000000
vt 1.000000 1.000000
vt 0.900000 1.000000
f 595/595 596/596 597/597 598/598
v 0.300000 0.780000 0.450000
v 0.300000 0.780000 0.490000
v 0.302339 0.756605 0.482361
vt 0.000000 0.000000
vt 1.000000 0.000000
vt 1.000000 1.000000
f 599/599 600/600 601/601
v 0.700000 0.820000 0.450000
v 0.702339 0.796605 0.482361
v 0.700000 0.820000 0.490000
vt 0.000000 0.000000
vt 1.000000 0.000000
vt 1.000000 1.000000
f 602/602 603/603 604/604
usemtl body
v 0.820000 0.100000 0.710000
v 0.846788 0.100000 0.715328
v 0.846788 1.200000 0.715328
v 0.820000 1.200000 0.710000
vt 0.000000 0.000000
vt 0.062500 0.000000
vt 0.062500 1.000000
vt 0.000000 1.000000
f 605/605 606/606 607/607 608/608
v 0.820000 0.100000 0.780000
v 0.846788 0.100000 0.715328
v 0.820000 0.100000 0.710000
vt 0.000000 0.000000
vt 1.000000 0.000000
vt 1.000000 1.000000
f 609/609 610/610 611/611
v 0.820000 1.200000 0.780000
v 0.820000 1.200000 0.710000
v 0.846788 1.200000 0.715328
vt 0.000000 0.000000
vt 1.000000 0.000000
vt 1.000000 1.000000
f 612/612 613/613 614/614
v 0.846788 0.100000 0.715328
v 0.869497 0.100000 0.730503
v 0.869497 1.200000 0.730503
v 0.846788 1.200000 0.715328
vt 0.062500 0.000000
vt 0.125000 0.000000
vt 0.125000 1.000000
vt 0.062500 1.000000
f 615/615 616/616 617/617 618/618
v 0.820000 0.100000 0.780000
v 0.869497 0.100000 0.730503
v 0.846788 0.100000 0.715328
vt 0.000000 0.000000
vt 1.000000 0.000000
vt 1.000000 1.000000
f 619/619 620/620 621/621
v 0.820000 1.200000 0.780000
v 0.846788 1.200000 0.715328
v 0.869497 1.200000 0.730503
vt 0.000000 0.000000
vt 1.000000 0.000000
vt 1.000000 1.000000
f 622/622 623/623 624/624
v 0.869497 0.100000 0.730503
v 0.884672 0.100000 0.753212
v 0.884672 1.200000 0.753212
v 0.869497 1.200000 0.730503
vt 0.125000 0.000000
vt 0.187500 0.000000
vt 0.187500 1.000000
vt 0.125000 1.000000
f 625/625 626/626 627/627 628/628
v 0.820000 0.100000 0.780000
v 0.884672 0.100000 0.753212
v 0.869497 0.100000 0.730503
vt 0.000000 0.000000
vt 1.000000 0.000000
vt 1.000000 1.000000
f 629/629 630/630 631/631
v 0.820000 1.200000 0.780000
v 0.869497 1.200000 0.730503
v 0.884672 1.200000 0.753212
vt 0.000000 0.000000
vt 1.000000 0.000000
vt 1.000000 1.000000
f 632/632 633/633 634/634
v 0.884672 0.100000 0.753212
v 0.890000 0.100000 0.780000
v 0.890000 1.200000 0.780000
v 0.884672 1.200000 0.753212
vt 0.187500 0.000000
vt 0.250000 0.000000
vt 0.250000 1.000000
vt 0.187500 1.000000
f 635/635 636/636 637/637 638/638
v 0.820000 0.100000 0.780000
v 0.890000 0.100000 0.780000
v 0.884672 0.100000 0.753212
vt 0.000000 0.000000
vt 1.000000 0.000000
vt 1.000000 1.000000
f 639/639 640/640 641/641
v 0.820000 1.200000 0.780000
v 0.884672 1.200000 0.753212
v 0.890000 1.200000 0.780000
vt 0.000000 0.000000
vt 1.000000 0.000000
vt 1.000000 1.000000
f 642/642 643/643 644/644
v 0.890000 0.100000 0.780000
v 0.884672 0.100000 0.806788
v 0.884672 1.200000 0.806788
v 0.890000 1.200000 0.780000
vt 0.250000 0.000000
vt 0.312500 0.000000
vt 0.312500 1.000000
vt 0.250000 1.000000
f 645/645 646/646 647/647 648/648
v 0.820000 0.100000 0.780000
v 0.884672 0.100000 0.806788
v 0.890000 0.100000 0.780000
vt 0.000000 0.000000
vt 1.000000 0.000000
vt 1.000000 1.000000
f 649/649 650/650 651/651
v 0.820000 1.200000 0.780000
v 0.890000 1.200000 0.780000
v 0.884672 1.200000 0.806788
vt 0.000000 0.000000
vt 1.000000 0.000000
vt 1.000000 1.000000
f 652/652 653/653 654/654
v 0.884672 0.100000 0.806788
v 0.869497 0.100000 0.829497
v 0.869497 1.200000 0.829497
v 0.884672 1.200000 0.806788
vt 0.312500 0.000000
vt 0.375000 0.000000
vt 0.375000 1.000000
vt 0.312500 1.000000
f 655/655 656/656 657/657 658/658
v 0.820000 0.100000 0.780000
v 0.869497 0.100000 0.829497
v 0.884672 0.100000 0.806788
vt 0.000000 0.000000
vt 1.000000 0.000000
vt 1.000000 1.000000
f 659/659 660/660 661/661
v 0.820000 1.200000 0.780000
v 0.884672 1.200000 0.806788
v 0.869497 1.200000 0.829497
vt 0.000000 0.000000
vt 1.000000 0.000000
vt 1.000000 1.000000
f 662/662 663/663 664/664
v 0.869497 0.100000 0.829497
v 0.846788 0.100000 0.844672
v 0.846788 1.200000 0.844672
v 0.869497 1.200000 0.829497
vt 0.375000 0.000000
vt 0.437500 0.000000
vt 0.437500 1.000000
vt 0.375000 1.000000
f 665/665 666/666 667/667 668/668
v 0.820000 0.100000 0.780000
v 0.846788 0.100000 0.844672
v 0.869497 0.100000 0.829497
vt 0.000000 0.000000
vt 1.000000 0.000000
vt 1.000000 1.000000
f 669/669 670/670 671/671
v 0.820000 1.200000 0.780000
v 0.869497 1.200000 0.829497
v 0.846788 1.200000 0.844672
vt 0.000000 0.000000
vt 1.000000 0.000000
vt 1.000000 1.000000
f 672/672 673/673 674/674
v 0.846788 0.100000 0.844672
v 0.820000 0.100000 0.850000
v 0.820000 1.200000 0.850000
v 0.846788 1.200000 0.844672
vt 0.437500 0.000000
vt 0.500000 0.000000
vt 0.500000 1.000000
vt 0.437500 1.000000
f 675/675 676/676 677/677 678/678
v 0.820000 0.100000 0.780000
v 0.820000 0.100000 0.850000
v 0.846788 0.100000 0.844672
vt 0.000000 0.000000
vt 1.000000 0.000000
vt 1.000000 1.000000
f 679/679 680/680 681/681
v 0.820000 1.200000 0.780000
v 0.846788 1.200000 0.844672
v 0.820000 1.200000 0.850000
vt 0.000000 0.000000
vt 1.000000 0.000000
vt 1.000000 1.000000
f 682/682 683/683 684/684
v 0.820000 0.100000 0.850000
v 0.793212 0.100000 0.844672
v 0.793212 1.200000 0.844672
v 0.820000 1.200000 0.850000
vt 0.500000 0.000000
vt 0.562500 0.000000
vt 0.562500 1.000000
vt 0.500000 1.000000
f 685/685 686/686 687/687 688/688
v 0.820000 0.100000 0.780000
v 0.793212 0.100000 0.844672
v 0.820000 0.100000 0.850000
vt 0.000000 0.000000
vt 1.000000 0.000000
vt 1.000000 1.000000
f 689/689 690/690 691/691
v 0.820000 1.200000 0.780000
v 0.820000 1.200000 0.850000
v 0.793212 1.200000 0.844672
vt 0.000000 0.000000
vt 1.000000 0.000000
vt 1.000000 1.000000
f 692/692 693/693 694/694
v 0.793212 0.100000 0.844672
v 0.770503 0.100000 0.829497
v 0.770503 1.200000 0.829497
v 0.793212 1.200000 0.844672
vt 0.562500 0.000000
vt 0.625000 0.000000
vt 0.625000 1.000000
vt 0.562500 1.000000
f 695/695 696/696 697/697 698/698
v 0.820000 0.100000 0.780000
v 0.770503 0.100000 0.829497
v 0.793212 0.100000 0.844672
vt 0.000000 0.000000
vt 1.000000 0.000000
vt 1.000000 1.000000
f 699/699 700/700 701/701
v 0.820000 1.200000 0.780000
v 0.793212 1.200000 0.844672
v 0.770503 1.200000 0.829497
vt 0.000000 0.000000
vt 1.000000 0.000000
vt 1.000000 1.000000
f 702/702 703/703 704/704
v 0.770503 0.100000 0.829497
v 0.755328 0.100000 0.806788
v 0.755328 1.200000 0.806788
v 0.770503 1.200000 0.829497
vt 0.625000 0.000000
vt 0.687500 0.000000
vt 0.687500 1.000000
vt 0.625000 1.000000
f 705/705 706/706 707/707 708/708
v 0.820000 0.100000 0.780000
v 0.755328 0.100000 0.806788
v 0.770503 0.100000 0.829497
vt 0.000000 0.000000
vt 1.000000 0.000000
vt 1.000000 1.000000
f 709/709 710/710 711/711
v 0.820000 1.200000 0.780000
v 0.770503 1.200000 0.829497
v 0.755328 1.200000 0.806788
vt 0.000000 0.000000
vt 1.000000 0.000000
vt 1.000000 1.000000
f 712/712 713/713 714/714
v 0.755328 0.100000 0.806788
v 0.750000 0.100000 0.780000
v 0.750000 1.200000 0.780000
v 0.755328 1.200000 0.806788
vt 0.687500 0.000000
vt 0.750000 0.000000
vt 0.750000 1.000000
vt 0.687500 1.000000
f 715/715 716/716 717/717 718/718
v 0.820000 0.100000 0.780000
v 0.750000 0.100000 0.780000
v 0.755328 0.100000 0.806788
vt 0.000000 0.000000
vt 1.000000 0.000000
vt 1.000000 1.000000
f 719/719 720/720 721/721
v 0.820000 1.200000 0.780000
v 0.755328 1.200000 0.806788
v 0.750000 1.200000 0.780000
vt 0.000000 0.000000
vt 1.000000 0.000000
vt 1.000000 1.000000
f 722/722 723/723 724/724
v 0.750000 0.100000 0.780000
v 0.755328 0.100000 0.753212
v 0.755328 1.200000 0.753212
v 0.750000 1.200000 0.780000
vt 0.750000 0.000000
vt 0.812500 0.000000
vt 0.812500 1.000000
vt 0.750000 1.000000
f 725/725 726/726 727/727 728/728
v 0.820000 0.100000 0.780000
v 0.755328 0.100000 0.753212
v 0.750000 0.100000 0.780000
vt 0.000000 0.000000
vt 1.000000 0.000000
vt 1.000000 1.000000
f 729/729 730/730 731/731
v 0.820000 1.200000 0.780000
v 0.750000 1.200000 0.780000
v 0.755328 1.200000 0.753212
vt 0.000000 0.000000
vt 1.000000 0.000000
vt 1.000000 1.000000
f 732/732 733/733 734/734
v 0.755328 0.100000 0.753212
v 0.770503 0.100000 0.730503
v 0.770503 1.200000 0.730503
v 0.755328 1.200000 0.753212
vt 0.812500 0.000000
vt 0.875000 0.000000
vt 0.875000 1.000000
vt 0.812500 1.000000
f 735/735 736/736 737/737 738/738
v 0.820000 0.100000 0.780000
v 0.770503 0.100000 0.730503
v 0.755328 0.100000 0.753212
vt 0.000000 0.000000
vt 1.000000 0.000000
vt 1.000000 1.000000
f 739/739 740/740 741/741
v 0.820000 1.200000 0.780000
v 0.755328 1.200000 0.753212
v 0.770503 1.200000 0.730503
vt 0.000000 0.000000
vt 1.000000 0.000000
vt 1.000000 1.000000
f 742/742 743/743 744/744
v 0.770503 0.100000 0.730503
v 0.793212 0.100000 0.715328
v 0.793212 1.200000 0.715328
v 0.770503 1.200000 0.730503
vt 0.875000 0.000000
vt 0.937500 0.000000
vt 0.937500 1.000000
vt 0.875000 1.000000
f 745/745 746/746 747/747 748/748
v 0.820000 0.100000 0.780000
v 0.793212 0.100000 0.715328
v 0.770503 0.100000 0.730503
vt 0.000000 0.000000
vt 1.000000 0.000000
vt 1.000000 1.000000
f 749/749 750/750 751/751
v 0.820000 1.200000 0.780000
v 0.770503 1.200000 0.730503
v 0.793212 1.200000 0.715328
vt 0.000000 0.000000
vt 1.000000 0.000000
vt 1.000000 1.000000
f 752/752 753/753 754/754
v 0.793212 0.100000 0.715328
v 0.820000 0.100000 0.710000
v 0.820000 1.200000 0.710000
v 0.793212 1.200000 0.715328
vt 0.937500 0.000000
vt 1.000000 0.000000
vt 1.000000 1.000000
vt 0.937500 1.000000
f 755/755 756/756 757/757 758/758
v 0.820000 0.100000 0.780000
v 0.820000 0.100000 0.710000
v 0.793212 0.100000 0.715328
vt 0.000000 0.000000
vt 1.000000 0.000000
vt 1.000000 1.000000
f 759/759 760/760 761/761
v 0.820000 1.200000 0.780000
v 0.793212 1.200000 0.715328
v 0.820000 1.200000 0.710000
vt 0.000000 0.000000
vt 1.000000 0.000000
vt 1.000000 1.000000
f 762/762 763/763 764/764
usemtl yellow
v 0.080000 0.100000 0.700000
v 0.280000 0.100000 0.700000
v 0.280000 0.400000 0.700000
v 0.080000 0.400000 0.700000
vt 0.000000 0.000000
vt 1.000000 0.000000
vt 1.000000 1.000000
vt 0.000000 1.000000
f 765/765 766/766 767/767 768/768
v 0.280000 0.100000 0.900000
v 0.080000 0.100000 0.900000
v 0.080000 0.400000 0.900000
v 0.280000 0.400000 0.900000
vt 0.000000 0.000000
vt 1.000000 0.000000
vt 1.000000 1.000000
vt 0.000000 1.000000
f 769/769 770/770 771/771 772/772
v 0.080000 0.100000 0.900000
v 0.080000 0.100000 0.700000
v 0.080000 0.400000 0.700000
v 0.080000 0.400000 0.900000
vt 0.000000 0.000000
vt 1.000000 0.000000
vt 1.000000 1.000000
vt 0.000000 1.000000
f 773/773 774/774 775/775 776/776
v 0.280000 0.100000 0.700000
v 0.280000 0.100000 0.900000
v 0.280000 0.400000 0.900000
v 0.280000 0.400000 0.700000
vt 0.000000 0.000000
vt 1.000000 0.000000
vt 1.000000 1.000000
vt 0.000000 1.000000
f 777/777 778/778 779/779 780/780
v 0.080000 0.400000 0.700000
v 0.280000 0.400000 0.700000
v 0.280000 0.400000 0.900000
v 0.080000 0.400000 0.900000
vt 0.000000 0.000000
vt 1.000000 0.000000
vt 1.000000 1.000000
vt 0.000000 1.000000
f 781/781 782/782 783/783 784/784
v 0.080000 0.100000 0.900000
v 0.280000 0.100000 0.900000
v 0.280000 0.100000 0.700000
v 0.080000 0.100000 0.700000
vt 0.000000 0.000000
vt 1.000000 0.000000
vt 1.000000 1.000000
vt 0.000000 1.000000
f 785/785 786/786 787/787 788/788
usemtl dark
v 0.100000 0.400000 0.180000
v 0.900000 0.400000 0.180000
v 0.900000 0.460000 0.180000
v 0.100000 0.460000 0.180000
vt 0.000000 0.000000
vt 1.000000 0.000000
vt 1.000000 1.000000
vt 0.000000 1.000000
f 789/789 790/790 791/791 792/792
v 0.900000 0.400000 0.280000
v 0.100000 0.400000 0.280000
v 0.100000 0.460000 0.280000
v 0.900000 0.460000 0.280000
vt 0.000000 0.000000
vt 1.000000 0.000000
vt 1.000000 1.000000
vt 0.000000 1.000000
f 793/793 794/794 795/795 796/796
v 0.100000 0.400000 0.280000
v 0.100000 0.400000 0.180000
v 0.100000 0.460000 0.180000
v 0.100000 0.460000 0.280000
vt 0.000000 0.000000
vt 1.000000 0.000000
vt 1.000000 1.000000
vt 0.000000 1.000000
f 797/797 798/798 799/799 800/800
v 0.900000 0.400000 0.180000
v 0.900000 0.400000 0.280000
v 0.900000 0.460000 0.280000
v 0.900000 0.460000 0.180000
vt 0.000000 0.000000
vt 1.000000 0.000000
vt 1.000000 1.000000
vt 0.000000 1.000000
f 801/801 802/802 803/803 804/804
v 0.100000 0.460000 0.180000
v 0.900000 0.460000 0.180000
v 0.900000 0.460000 0.280000
v 0.100000 0.460000 0.280000
vt 0.000000 0.000000
vt 1.000000 0.000000
vt 1.000000 1.000000
vt 0.000000 1.000000
f 805/805 806/806 807/807 808/808
v 0.100000 0.400000 0.280000
v 0.900000 0.400000 0.280000
v 0.900000 0.400000 0.180000
v 0.100000 0.400000 0.180000
vt 0.000000 0.000000
vt 1.000000 0.000000
vt 1.000000 1.000000
vt 0.000000 1.000000
f 809/809 810/810 811/811 812/812
