mtllib radar.mtl
o radar
s 1
usemtl dark
v 0.100000 0.000000 0.100000
v 0.900000 0.000000 0.100000
v 0.900000 0.140000 0.100000
v 0.100000 0.140000 0.100000
vt 0.000000 0.000000
vt 1.000000 0.000000
vt 1.000000 1.000000
vt 0.000000 1.000000
f 1/1 2/2 3/3 4/4
v 0.900000 0.000000 0.900000
v 0.100000 0.000000 0.900000
v 0.100000 0.140000 0.900000
v 0.900000 0.140000 0.900000
vt 0.000000 0.000000
vt 1.000000 0.000000
vt 1.000000 1.000000
vt 0.000000 1.000000
f 5/5 6/6 7/7 8/8
v 0.100000 0.000000 0.900000
v 0.100000 0.000000 0.100000
v 0.100000 0.140000 0.100000
v 0.100000 0.140000 0.900000
vt 0.000000 0.000000
vt 1.000000 0.000000
vt 1.000000 1.000000
vt 0.000000 1.000000
f 9/9 10/10 11/11 12/12
v 0.900000 0.000000 0.100000
v 0.900000 0.000000 0.900000
v 0.900000 0.140000 0.900000
v 0.900000 0.140000 0.100000
vt 0.000000 0.000000
vt 1.000000 0.000000
vt 1.000000 1.000000
vt 0.000000 1.000000
f 13/13 14/14 15/15 16/16
v 0.100000 0.140000 0.100000
v 0.900000 0.140000 0.100000
v 0.900000 0.140000 0.900000
v 0.100000 0.140000 0.900000
vt 0.000000 0.000000
vt 1.000000 0.000000
vt 1.000000 1.000000
vt 0.000000 1.000000
f 17/17 18/18 19/19 20/20
v 0.100000 0.000000 0.900000
v 0.900000 0.000000 0.900000
v 0.900000 0.000000 0.100000
v 0.100000 0.000000 0.100000
vt 0.000000 0.000000
vt 1.000000 0.000000
vt 1.000000 1.000000
vt 0.000000 1.000000
f 21/21 22/22 23/23 24/24
usemtl olive
v 0.180000 0.140000 0.180000
v 0.460000 0.140000 0.180000
v 0.460000 0.420000 0.180000
v 0.180000 0.420000 0.180000
vt 0.000000 0.000000
vt 1.000000 0.000000
vt 1.000000 1.000000
vt 0.000000 1.000000
f 25/25 26/26 27/27 28/28
v 0.460000 0.140000 0.460000
v 0.180000 0.140000 0.460000
v 0.180000 0.420000 0.460000
v 0.460000 0.420000 0.460000
vt 0.000000 0.000000
vt 1.000000 0.000000
vt 1.000000 1.000000
vt 0.000000 1.000000
f 29/29 30/30 31/31 32/32
v 0.180000 0.140000 0.460000
v 0.180000 0.140000 0.180000
v 0.180000 0.420000 0.180000
v 0.180000 0.420000 0.460000
vt 0.000000 0.000000
vt 1.000000 0.000000
vt 1.000000 1.000000
vt 0.000000 1.000000
f 33/33 34/34 35/35 36/36
v 0.460000 0.140000 0.180000
v 0.460000 0.140000 0.460000
v 0.460000 0.420000 0.460000
v 0.460000 0.420000 0.180000
vt 0.000000 0.000000
vt 1.000000 0.000000
vt 1.000000 1.000000
vt 0.000000 1.000000
f 37/37 38/38 39/39 40/40
v 0.180000 0.420000 0.180000
v 0.460000 0.420000 0.180000
v 0.460000 0.420000 0.460000
v 0.180000 0.420000 0.460000
vt 0.000000 0.000000
vt 1.000000 0.000000
vt 1.000000 1.000000
vt 0.000000 1.000000
f 41/41 42/42 43/43 44/44
v 0.180000 0.140000 0.460000
v 0.460000 0.140000 0.460000
v 0.460000 0.140000 0.180000
v 0.180000 0.140000 0.180000
vt 0.000000 0.000000
vt 1.000000 0.000000
vt 1.000000 1.000000
vt 0.000000 1.000000
f 45/45 46/46 47/47 48/48
usemtl glass
v 0.220000 0.280000 0.220000
v 0.420000 0.280000 0.220000
v 0.420000 0.400000 0.220000
v 0.220000 0.400000 0.220000
vt 0.000000 0.000000
vt 1.000000 0.000000
vt 1.000000 1.000000
vt 0.000000 1.000000
f 49/49 50/50 51/51 52/52
v 0.420000 0.280000 0.420000
v 0.220000 0.280000 0.420000
v 0.220000 0.400000 0.420000
v 0.420000 0.400000 0.420000
vt 0.000000 0.000000
vt 1.000000 0.000000
vt 1.000000 1.000000
vt 0.000000 1.000000
f 53/53 54/54 55/55 56/56
v 0.220000 0.280000 0.420000
v 0.220000 0.280000 0.220000
v 0.220000 0.400000 0.220000
v 0.220000 0.400000 0.420000
vt 0.000000 0.000000
vt 1.000000 0.000000
vt 1.000000 1.000000
vt 0.000000 1.000000
f 57/57 58/58 59/59 60/60
v 0.420000 0.280000 0.220000
v 0.420000 0.280000 0.420000
v 0.420000 0.400000 0.420000
v 0.420000 0.400000 0.220000
vt 0.000000 0.000000
vt 1.000000 0.000000
vt 1.000000 1.000000
vt 0.000000 1.000000
f 61/61 62/62 63/63 64/64
v 0.220000 0.400000 0.220000
v 0.420000 0.400000 0.220000
v 0.420000 0.400000 0.420000
v 0.220000 0.400000 0.420000
vt 0.000000 0.000000
vt 1.000000 0.000000
vt 1.000000 1.000000
vt 0.000000 1.000000
f 65/65 66/66 67/67 68/68
v 0.220000 0.280000 0.420000
v 0.420000 0.280000 0.420000
v 0.420000 0.280000 0.220000
v 0.220000 0.280000 0.220000
vt 0.000000 0.000000
vt 1.000000 0.000000
vt 1.000000 1.000000
vt 0.000000 1.000000
f 69/69 70/70 71/71 72/72
usemtl body
v 0.500000 0.120000 0.380000
v 0.531058 0.120000 0.384089
v 0.531058 0.780000 0.384089
v 0.500000 0.780000 0.380000
vt 0.000000 0.000000
vt 0.041667 0.000000
vt 0.041667 1.000000
vt 0.000000 1.000000
f 73/73 74/74 75/75 76/76
v 0.500000 0.120000 0.500000
v 0.531058 0.120000 0.384089
v 0.500000 0.120000 0.380000
vt 0.000000 0.000000
vt 1.000000 0.000000
vt 1.000000 1.000000
f 77/77 78/78 79/79
v 0.500000 0.780000 0.500000
v 0.500000 0.780000 0.380000
v 0.531058 0.780000 0.384089
vt 0.000000 0.000000
vt 1.000000 0.000000
vt 1.000000 1.000000
f 80/80 81/81 82/82
v 0.531058 0.120000 0.384089
v 0.560000 0.120000 0.396077
v 0.560000 0.780000 0.396077
v 0.531058 0.780000 0.384089
vt 0.041667 0.000000
vt 0.083333 0.000000
vt 0.083333 1.000000
vt 0.041667 1.000000
f 83/83 84/84 85/85 86/86
v 0.500000 0.120000 0.500000
v 0.560000 0.120000 0.396077
v 0.531058 0.120000 0.384089
vt 0.000000 0.000000
vt 1.000000 0.000000
vt 1.000000 1.000000
f 87/87 88/88 89/89
v 0.500000 0.780000 0.500000
v 0.531058 0.780000 0.384089
v 0.560000 0.780000 0.396077
vt 0.000000 0.000000
vt 1.000000 0.000000
vt 1.000000 1.000000
f 90/90 91/91 92/92
v 0.560000 0.120000 0.396077
v 0.584853 0.120000 0.415147
v 0.584853 0.780000 0.415147
v 0.560000 0.780000 0.396077
vt 0.083333 0.000000
vt 0.125000 0.000000
vt 0.125000 1.000000
vt 0.083333 1.000000
f 93/93 94/94 95/95 96/96
v 0.500000 0.120000 0.500000
v 0.584853 0.120000 0.415147
v 0.560000 0.120000 0.396077
vt 0.000000 0.000000
vt 1.000000 0.000000
vt 1.000000 1.000000
f 97/97 98/98 99/99
v 0.500000 0.780000 0.500000
v 0.560000 0.780000 0.396077
v 0.584853 0.780000 0.415147
vt 0.000000 0.000000
vt 1.000000 0.000000
vt 1.000000 1.000000
f 100/100 101/101 102/102
v 0.584853 0.120000 0.415147
v 0.603923 0.120000 0.440000
v 0.603923 0.780000 0.440000
v 0.584853 0.780000 0.415147
vt 0.125000 0.000000
vt 0.166667 0.000000
vt 0.166667 1.000000
vt 0.125000 1.000000
f 103/103 104/104 105/105 106/106
v 0.500000 0.120000 0.500000
v 0.603923 0.120000 0.440000
v 0.584853 0.120000 0.415147
vt 0.000000 0.000000
vt 1.000000 0.000000
vt 1.000000 1.000000
f 107/107 108/108 109/109
v 0.500000 0.780000 0.500000
v 0.584853 0.780000 0.415147
v 0.603923 0.780000 0.440000
vt 0.000000 0.000000
vt 1.000000 0.000000
vt 1.000000 1.000000
f 110/110 111/111 112/112
v 0.603923 0.120000 0.440000
v 0.615911 0.120000 0.468942
v 0.615911 0.780000 0.468942
v 0.603923 0.780000 0.440000
vt 0.166667 0.000000
vt 0.208333 0.000000
vt 0.208333 1.000000
vt 0.166667 1.000000
f 113/113 114/114 115/115 116/116
v 0.500000 0.120000 0.500000
v 0.615911 0.120000 0.468942
v 0.603923 0.120000 0.440000
vt 0.000000 0.000000
vt 1.000000 0.000000
vt 1.000000 1.000000
f 117/117 118/118 119/119
v 0.500000 0.780000 0.500000
v 0.603923 0.780000 0.440000
v 0.615911 0.780000 0.468942
vt 0.000000 0.000000
vt 1.000000 0.000000
vt 1.000000 1.000000
f 120/120 121/121 122/122
v 0.615911 0.120000 0.468942
v 0.620000 0.120000 0.500000
v 0.620000 0.780000 0.500000
v 0.615911 0.780000 0.468942
vt 0.208333 0.000000
vt 0.250000 0.000000
vt 0.250000 1.000000
vt 0.208333 1.000000
f 123/123 124/124 125/125 126/126
v 0.500000 0.120000 0.500000
v 0.620000 0.120000 0.500000
v 0.615911 0.120000 0.468942
vt 0.000000 0.000000
vt 1.000000 0.000000
vt 1.000000 1.000000
f 127/127 128/128 129/129
v 0.500000 0.780000 0.500000
v 0.615911 0.780000 0.468942
v 0.620000 0.780000 0.500000
vt 0.000000 0.000000
vt 1.000000 0.000000
vt 1.000000 1.000000
f 130/130 131/131 132/132
v 0.620000 0.120000 0.500000
v 0.615911 0.120000 0.531058
v 0.615911 0.780000 0.531058
v 0.620000 0.780000 0.500000
vt 0.250000 0.000000
vt 0.291667 0.000000
vt 0.291667 1.000000
vt 0.250000 1.000000
f 133/133 134/134 135/135 136/136
v 0.500000 0.120000 0.500000
v 0.615911 0.120000 0.531058
v 0.620000 0.120000 0.500000
vt 0.000000 0.000000
vt 1.000000 0.000000
vt 1.000000 1.000000
f 137/137 138/138 139/139
v 0.500000 0.780000 0.500000
v 0.620000 0.780000 0.500000
v 0.615911 0.780000 0.531058
vt 0.000000 0.000000
vt 1.000000 0.000000
vt 1.000000 1.000000
f 140/140 141/141 142/142
v 0.615911 0.120000 0.531058
v 0.603923 0.120000 0.560000
v 0.603923 0.780000 0.560000
v 0.615911 0.780000 0.531058
vt 0.291667 0.000000
vt 0.333333 0.000000
vt 0.333333 1.000000
vt 0.291667 1.000000
f 143/143 144/144 145/145 146/146
v 0.500000 0.120000 0.500000
v 0.603923 0.120000 0.560000
v 0.615911 0.120000 0.531058
vt 0.000000 0.000000
vt 1.000000 0.000000
vt 1.000000 1.000000
f 147/147 148/148 149/149
v 0.500000 0.780000 0.500000
v 0.615911 0.780000 0.531058
v 0.603923 0.780000 0.560000
vt 0.000000 0.000000
vt 1.000000 0.000000
vt 1.000000 1.000000
f 150/150 151/151 152/152
v 0.603923 0.120000 0.560000
v 0.584853 0.120000 0.584853
v 0.584853 0.780000 0.584853
v 0.603923 0.780000 0.560000
vt 0.333333 0.000000
vt 0.375000 0.000000
vt 0.375000 1.000000
vt 0.333333 1.000000
f 153/153 154/154 155/155 156/156
v 0.500000 0.120000 0.500000
v 0.584853 0.120000 0.584853
v 0.603923 0.120000 0.560000
vt 0.000000 0.000000
vt 1.000000 0.000000
vt 1.000000 1.000000
f 157/157 158/158 159/159
v 0.500000 0.780000 0.500000
v 0.603923 0.780000 0.560000
v 0.584853 0.780000 0.584853
vt 0.000000 0.000000
vt 1.000000 0.000000
vt 1.000000 1.000000
f 160/160 161/161 162/162
v 0.584853 0.120000 0.584853
v 0.560000 0.120000 0.603923
v 0.560000 0.780000 0.603923
v 0.584853 0.780000 0.584853
vt 0.375000 0.000000
vt 0.416667 0.000000
vt 0.416667 1.000000
vt 0.375000 1.000000
f 163/163 164/164 165/165 166/166
v 0.500000 0.120000 0.500000
v 0.560000 0.120000 0.603923
v 0.584853 0.120000 0.584853
vt 0.000000 0.000000
vt 1.000000 0.000000
vt 1.000000 1.000000
f 167/167 168/168 169/169
v 0.500000 0.780000 0.500000
v 0.584853 0.780000 0.584853
v 0.560000 0.780000 0.603923
vt 0.000000 0.000000
vt 1.000000 0.000000
vt 1.000000 1.000000
f 170/170 171/171 172/172
v 0.560000 0.120000 0.603923
v 0.531058 0.120000 0.615911
v 0.531058 0.780000 0.615911
v 0.560000 0.780000 0.603923
vt 0.416667 0.000000
vt 0.458333 0.000000
vt 0.458333 1.000000
vt 0.416667 1.000000
f 173/173 174/174 175/175 176/176
v 0.500000 0.120000 0.500000
v 0.531058 0.120000 0.615911
v 0.560000 0.120000 0.603923
vt 0.000000 0.000000
vt 1.000000 0.000000
vt 1.000000 1.000000
f 177/177 178/178 179/179
v 0.500000 0.780000 0.500000
v 0.560000 0.780000 0.603923
v 0.531058 0.780000 0.615911
vt 0.000000 0.000000
vt 1.000000 0.000000
vt 1.000000 1.000000
f 180/180 181/181 182/182
v 0.531058 0.120000 0.615911
v 0.500000 0.120000 0.620000
v 0.500000 0.780000 0.620000
v 0.531058 0.780000 0.615911
vt 0.458333 0.000000
vt 0.500000 0.000000
vt 0.500000 1.000000
vt 0.458333 1.000000
f 183/183 184/184 185/185 186/186
v 0.500000 0.120000 0.500000
v 0.500000 0.120000 0.620000
v 0.531058 0.120000 0.615911
vt 0.000000 0.000000
vt 1.000000 0.000000
vt 1.000000 1.000000
f 187/187 188/188 189/189
v 0.500000 0.780000 0.500000
v 0.531058 0.780000 0.615911
v 0.500000 0.780000 0.620000
vt 0.000000 0.000000
vt 1.000000 0.000000
vt 1.000000 1.000000
f 190/190 191/191 192/192
v 0.500000 0.120000 0.620000
v 0.468942 0.120000 0.615911
v 0.468942 0.780000 0.615911
v 0.500000 0.780000 0.620000
vt 0.500000 0.000000
vt 0.541667 0.000000
vt 0.541667 1.000000
vt 0.500000 1.000000
f 193/193 194/194 195/195 196/196
v 0.500000 0.120000 0.500000
v 0.468942 0.120000 0.615911
v 0.500000 0.120000 0.620000
vt 0.000000 0.000000
vt 1.000000 0.000000
vt 1.000000 1.000000
f 197/197 198/198 199/199
v 0.500000 0.780000 0.500000
v 0.500000 0.780000 0.620000
v 0.468942 0.780000 0.615911
vt 0.000000 0.000000
vt 1.000000 0.000000
vt 1.000000 1.000000
f 200/200 201/201 202/202
v 0.468942 0.120000 0.615911
v 0.440000 0.120000 0.603923
v 0.440000 0.780000 0.603923
v 0.468942 0.780000 0.615911
vt 0.541667 0.000000
vt 0.583333 0.000000
vt 0.583333 1.000000
vt 0.541667 1.000000
f 203/203 204/204 205/205 206/206
v 0.500000 0.120000 0.500000
v 0.440000 0.120000 0.603923
v 0.468942 0.120000 0.615911
vt 0.000000 0.000000
vt 1.000000 0.000000
vt 1.000000 1.000000
f 207/207 208/208 209/209
v 0.500000 0.780000 0.500000
v 0.468942 0.780000 0.615911
v 0.440000 0.780000 0.603923
vt 0.000000 0.000000
vt 1.000000 0.000000
vt 1.000000 1.000000
f 210/210 211/211 212/212
v 0.440000 0.120000 0.603923
v 0.415147 0.120000 0.584853
v 0.415147 0.780000 0.584853
v 0.440000 0.780000 0.603923
vt 0.583333 0.000000
vt 0.625000 0.000000
vt 0.625000 1.000000
vt 0.583333 1.000000
f 213/213 214/214 215/215 216/216
v 0.500000 0.120000 0.500000
v 0.415147 0.120000 0.584853
v 0.440000 0.120000 0.603923
vt 0.000000 0.000000
vt 1.000000 0.000000
vt 1.000000 1.000000
f 217/217 218/218 219/219
v 0.500000 0.780000 0.500000
v 0.440000 0.780000 0.603923
v 0.415147 0.780000 0.584853
vt 0.000000 0.000000
vt 1.000000 0.000000
vt 1.000000 1.000000
f 220/220 221/221 222/222
v 0.415147 0.120000 0.584853
v 0.396077 0.120000 0.560000
v 0.396077 0.780000 0.560000
v 0.415147 0.780000 0.584853
vt 0.625000 0.000000
vt 0.666667 0.000000
vt 0.666667 1.000000
vt 0.625000 1.000000
f 223/223 224/224 225/225 226/226
v 0.500000 0.120000 0.500000
v 0.396077 0.120000 0.560000
v 0.415147 0.120000 0.584853
vt 0.000000 0.000000
vt 1.000000 0.000000
vt 1.000000 1.000000
f 227/227 228/228 229/229
v 0.500000 0.780000 0.500000
v 0.415147 0.780000 0.584853
v 0.396077 0.780000 0.560000
vt 0.000000 0.000000
vt 1.000000 0.000000
vt 1.000000 1.000000
f 230/230 231/231 232/232
v 0.396077 0.120000 0.560000
v 0.384089 0.120000 0.531058
v 0.384089 0.780000 0.531058
v 0.396077 0.780000 0.560000
vt 0.666667 0.000000
vt 0.708333 0.000000
vt 0.708333 1.000000
vt 0.666667 1.000000
f 233/233 234/234 235/235 236/236
v 0.500000 0.120000 0.500000
v 0.384089 0.120000 0.531058
v 0.396077 0.120000 0.560000
vt 0.000000 0.000000
vt 1.000000 0.000000
vt 1.000000 1.000000
f 237/237 238/238 239/239
v 0.500000 0.780000 0.500000
v 0.396077 0.780000 0.560000
v 0.384089 0.780000 0.531058
vt 0.000000 0.000000
vt 1.000000 0.000000
vt 1.000000 1.000000
f 240/240 241/241 242/242
v 0.384089 0.120000 0.531058
v 0.380000 0.120000 0.500000
v 0.380000 0.780000 0.500000
v 0.384089 0.780000 0.531058
vt 0.708333 0.000000
vt 0.750000 0.000000
vt 0.750000 1.000000
vt 0.708333 1.000000
f 243/243 244/244 245/245 246/246
v 0.500000 0.120000 0.500000
v 0.380000 0.120000 0.500000
v 0.384089 0.120000 0.531058
vt 0.000000 0.000000
vt 1.000000 0.000000
vt 1.000000 1.000000
f 247/247 248/248 249/249
v 0.500000 0.780000 0.500000
v 0.384089 0.780000 0.531058
v 0.380000 0.780000 0.500000
vt 0.000000 0.000000
vt 1.000000 0.000000
vt 1.000000 1.000000
f 250/250 251/251 252/252
v 0.380000 0.120000 0.500000
v 0.384089 0.120000 0.468942
v 0.384089 0.780000 0.468942
v 0.380000 0.780000 0.500000
vt 0.750000 0.000000
vt 0.791667 0.000000
vt 0.791667 1.000000
vt 0.750000 1.000000
f 253/253 254/254 255/255 256/256
v 0.500000 0.120000 0.500000
v 0.384089 0.120000 0.468942
v 0.380000 0.120000 0.500000
vt 0.000000 0.000000
vt 1.000000 0.000000
vt 1.000000 1.000000
f 257/257 258/258 259/259
v 0.500000 0.780000 0.500000
v 0.380000 0.780000 0.500000
v 0.384089 0.780000 0.468942
vt 0.000000 0.000000
vt 1.000000 0.000000
vt 1.000000 1.000000
f 260/260 261/261 262/262
v 0.384089 0.120000 0.468942
v 0.396077 0.120000 0.440000
v 0.396077 0.780000 0.440000
v 0.384089 0.780000 0.468942
vt 0.791667 0.000000
vt 0.833333 0.000000
vt 0.833333 1.000000
vt 0.791667 1.000000
f 263/263 264/264 265/265 266/266
v 0.500000 0.120000 0.500000
v 0.396077 0.120000 0.440000
v 0.384089 0.120000 0.468942
vt 0.000000 0.000000
vt 1.000000 0.000000
vt 1.000000 1.000000
f 267/267 268/268 269/269
v 0.500000 0.780000 0.500000
v 0.384089 0.780000 0.468942
v 0.396077 0.780000 0.440000
vt 0.000000 0.000000
vt 1.000000 0.000000
vt 1.000000 1.000000
f 270/270 271/271 272/272
v 0.396077 0.120000 0.440000
v 0.415147 0.120000 0.415147
v 0.415147 0.780000 0.415147
v 0.396077 0.780000 0.440000
vt 0.833333 0.000000
vt 0.875000 0.000000
vt 0.875000 1.000000
vt 0.833333 1.000000
f 273/273 274/274 275/275 276/276
v 0.500000 0.120000 0.500000
v 0.415147 0.120000 0.415147
v 0.396077 0.120000 0.440000
vt 0.000000 0.000000
vt 1.000000 0.000000
vt 1.000000 1.000000
f 277/277 278/278 279/279
v 0.500000 0.780000 0.500000
v 0.396077 0.780000 0.440000
v 0.415147 0.780000 0.415147
vt 0.000000 0.000000
vt 1.000000 0.000000
vt 1.000000 1.000000
f 280/280 281/281 282/282
v 0.415147 0.120000 0.415147
v 0.440000 0.120000 0.396077
v 0.440000 0.780000 0.396077
v 0.415147 0.780000 0.415147
vt 0.875000 0.000000
vt 0.916667 0.000000
vt 0.916667 1.000000
vt 0.875000 1.000000
f 283/283 284/284 285/285 286/286
v 0.500000 0.120000 0.500000
v 0.440000 0.120000 0.396077
v 0.415147 0.120000 0.415147
vt 0.000000 0.000000
vt 1.000000 0.000000
vt 1.000000 1.000000
f 287/287 288/288 289/289
v 0.500000 0.780000 0.500000
v 0.415147 0.780000 0.415147
v 0.440000 0.780000 0.396077
vt 0.000000 0.000000
vt 1.000000 0.000000
vt 1.000000 1.000000
f 290/290 291/291 292/292
v 0.440000 0.120000 0.396077
v 0.468942 0.120000 0.384089
v 0.468942 0.780000 0.384089
v 0.440000 0.780000 0.396077
vt 0.916667 0.000000
vt 0.958333 0.000000
vt 0.958333 1.000000
vt 0.916667 1.000000
f 293/293 294/294 295/295 296/296
v 0.500000 0.120000 0.500000
v 0.468942 0.120000 0.384089
v 0.440000 0.120000 0.396077
vt 0.000000 0.000000
vt 1.000000 0.000000
vt 1.000000 1.000000
f 297/297 298/298 299/299
v 0.500000 0.780000 0.500000
v 0.440000 0.780000 0.396077
v 0.468942 0.780000 0.384089
vt 0.000000 0.000000
vt 1.000000 0.000000
vt 1.000000 1.000000
f 300/300 301/301 302/302
v 0.468942 0.120000 0.384089
v 0.500000 0.120000 0.380000
v 0.500000 0.780000 0.380000
v 0.468942 0.780000 0.384089
vt 0.958333 0.000000
vt 1.000000 0.000000
vt 1.000000 1.000000
vt 0.958333 1.000000
f 303/303 304/304 305/305 306/306
v 0.500000 0.120000 0.500000
v 0.500000 0.120000 0.380000
v 0.468942 0.120000 0.384089
vt 0.000000 0.000000
vt 1.000000 0.000000
vt 1.000000 1.000000
f 307/307 308/308 309/309
v 0.500000 0.780000 0.500000
v 0.468942 0.780000 0.384089
v 0.500000 0.780000 0.380000
vt 0.000000 0.000000
vt 1.000000 0.000000
vt 1.000000 1.000000
f 310/310 311/311 312/312
usemtl dark
v 0.500000 0.760000 0.280000
v 0.548955 0.760000 0.285516
v 0.548955 0.880000 0.285516
v 0.500000 0.880000 0.280000
vt 0.000000 0.000000
vt 0.035714 0.000000
vt 0.035714 1.000000
vt 0.000000 1.000000
f 313/313 314/314 315/315 316/316
v 0.500000 0.760000 0.500000
v 0.548955 0.760000 0.285516
v 0.500000 0.760000 0.280000
vt 0.000000 0.000000
vt 1.000000 0.000000
vt 1.000000 1.000000
f 317/317 318/318 319/319
v 0.500000 0.880000 0.500000
v 0.500000 0.880000 0.280000
v 0.548955 0.880000 0.285516
vt 0.000000 0.000000
vt 1.000000 0.000000
vt 1.000000 1.000000
f 320/320 321/321 322/322
v 0.548955 0.760000 0.285516
v 0.595454 0.760000 0.301787
v 0.595454 0.880000 0.301787
v 0.548955 0.880000 0.285516
vt 0.035714 0.000000
vt 0.071429 0.000000
vt 0.071429 1.000000
vt 0.035714 1.000000
f 323/323 324/324 325/325 326/326
v 0.500000 0.760000 0.500000
v 0.595454 0.760000 0.301787
v 0.548955 0.760000 0.285516
vt 0.000000 0.000000
vt 1.000000 0.000000
vt 1.000000 1.000000
f 327/327 328/328 329/329
v 0.500000 0.880000 0.500000
v 0.548955 0.880000 0.285516
v 0.595454 0.880000 0.301787
vt 0.000000 0.000000
vt 1.000000 0.000000
vt 1.000000 1.000000
f 330/330 331/331 332/332
v 0.595454 0.760000 0.301787
v 0.637168 0.760000 0.327997
v 0.637168 0.880000 0.327997
v 0.595454 0.880000 0.301787
vt 0.071429 0.000000
vt 0.107143 0.000000
vt 0.107143 1.000000
vt 0.071429 1.000000
f 333/333 334/334 335/335 336/336
v 0.500000 0.760000 0.500000
v 0.637168 0.760000 0.327997
v 0.595454 0.760000 0.301787
vt 0.000000 0.000000
vt 1.000000 0.000000
vt 1.000000 1.000000
f 337/337 338/338 339/339
v 0.500000 0.880000 0.500000
v 0.595454 0.880000 0.301787
v 0.637168 0.880000 0.327997
vt 0.000000 0.000000
vt 1.000000 0.000000
vt 1.000000 1.000000
f 340/340 341/341 342/342
v 0.637168 0.760000 0.327997
v 0.672003 0.760000 0.362832
v 0.672003 0.880000 0.362832
v 0.637168 0.880000 0.327997
vt 0.107143 0.000000
vt 0.142857 0.000000
vt 0.142857 1.000000
vt 0.107143 1.000000
f 343/343 344/344 345/345 346/346
v 0.500000 0.760000 0.500000
v 0.672003 0.760000 0.362832
v 0.637168 0.760000 0.327997
vt 0.000000 0.000000
vt 1.000000 0.000000
vt 1.000000 1.000000
f 347/347 348/348 349/349
v 0.500000 0.880000 0.500000
v 0.637168 0.880000 0.327997
v 0.672003 0.880000 0.362832
vt 0.000000 0.000000
vt 1.000000 0.000000
vt 1.000000 1.000000
f 350/350 351/351 352/352
v 0.672003 0.760000 0.362832
v 0.698213 0.760000 0.404546
v 0.698213 0.880000 0.404546
v 0.672003 0.880000 0.362832
vt 0.142857 0.000000
vt 0.178571 0.000000
vt 0.178571 1.000000
vt 0.142857 1.000000
f 353/353 354/354 355/355 356/356
v 0.500000 0.760000 0.500000
v 0.698213 0.760000 0.404546
v 0.672003 0.760000 0.362832
vt 0.000000 0.000000
vt 1.000000 0.000000
vt 1.000000 1.000000
f 357/357 358/358 359/359
v 0.500000 0.880000 0.500000
v 0.672003 0.880000 0.362832
v 0.698213 0.880000 0.404546
vt 0.000000 0.000000
vt 1.000000 0.000000
vt 1.000000 1.000000
f 360/360 361/361 362/362
v 0.698213 0.760000 0.404546
v 0.714484 0.760000 0.451045
v 0.714484 0.880000 0.451045
v 0.698213 0.880000 0.404546
vt 0.178571 0.000000
vt 0.214286 0.000000
vt 0.214286 1.000000
vt 0.178571 1.000000
f 363/363 364/364 365/365 366/366
v 0.500000 0.760000 0.500000
v 0.714484 0.760000 0.451045
v 0.698213 0.760000 0.404546
vt 0.000000 0.000000
vt 1.000000 0.000000
vt 1.000000 1.000000
f 367/367 368/368 369/369
v 0.500000 0.880000 0.500000
v 0.698213 0.880000 0.404546
v 0.714484 0.880000 0.451045
vt 0.000000 0.000000
vt 1.000000 0.000000
vt 1.000000 1.000000
f 370/370 371/371 372/372
v 0.714484 0.760000 0.451045
v 0.720000 0.760000 0.500000
v 0.720000 0.880000 0.500000
v 0.714484 0.880000 0.451045
vt 0.214286 0.000000
vt 0.250000 0.000000
vt 0.250000 1.000000
vt 0.214286 1.000000
f 373/373 374/374 375/375 376/376
v 0.500000 0.760000 0.500000
v 0.720000 0.760000 0.500000
v 0.714484 0.760000 0.451045
vt 0.000000 0.000000
vt 1.000000 0.000000
vt 1.000000 1.000000
f 377/377 378/378 379/379
v 0.500000 0.880000 0.500000
v 0.714484 0.880000 0.451045
v 0.720000 0.880000 0.500000
vt 0.000000 0.000000
vt 1.000000 0.000000
vt 1.000000 1.000000
f 380/380 381/381 382/382
v 0.720000 0.760000 0.500000
v 0.714484 0.760000 0.548955
v 0.714484 0.880000 0.548955
v 0.720000 0.880000 0.500000
vt 0.250000 0.000000
vt 0.285714 0.000000
vt 0.285714 1.000000
vt 0.250000 1.000000
f 383/383 384/384 385/385 386/386
v 0.500000 0.760000 0.500000
v 0.714484 0.760000 0.548955
v 0.720000 0.760000 0.500000
vt 0.000000 0.000000
vt 1.000000 0.000000
vt 1.000000 1.000000
f 387/387 388/388 389/389
v 0.500000 0.880000 0.500000
v 0.720000 0.880000 0.500000
v 0.714484 0.880000 0.548955
vt 0.000000 0.000000
vt 1.000000 0.000000
vt 1.000000 1.000000
f 390/390 391/391 392/392
v 0.714484 0.760000 0.548955
v 0.698213 0.760000 0.595454
v 0.698213 0.880000 0.595454
v 0.714484 0.880000 0.548955
vt 0.285714 0.000000
vt 0.321429 0.000000
vt 0.321429 1.000000
vt 0.285714 1.000000
f 393/393 394/394 395/395 396/396
v 0.500000 0.760000 0.500000
v 0.698213 0.760000 0.595454
v 0.714484 0.760000 0.548955
vt 0.000000 0.000000
vt 1.000000 0.000000
vt 1.000000 1.000000
f 397/397 398/398 399/399
v 0.500000 0.880000 0.500000
v 0.714484 0.880000 0.548955
v 0.698213 0.880000 0.595454
vt 0.000000 0.000000
vt 1.000000 0.000000
vt 1.000000 1.000000
f 400/400 401/401 402/402
v 0.698213 0.760000 0.595454
v 0.672003 0.760000 0.637168
v 0.672003 0.880000 0.637168
v 0.698213 0.880000 0.595454
vt 0.321429 0.000000
vt 0.357143 0.000000
vt 0.357143 1.000000
vt 0.321429 1.000000
f 403/403 404/404 405/405 406/406
v 0.500000 0.760000 0.500000
v 0.672003 0.760000 0.637168
v 0.698213 0.760000 0.595454
vt 0.000000 0.000000
vt 1.000000 0.000000
vt 1.000000 1.000000
f 407/407 408/408 409/409
v 0.500000 0.880000 0.500000
v 0.698213 0.880000 0.595454
v 0.672003 0.880000 0.637168
vt 0.000000 0.000000
vt 1.000000 0.000000
vt 1.000000 1.000000
f 410/410 411/411 412/412
v 0.672003 0.760000 0.637168
v 0.637168 0.760000 0.672003
v 0.637168 0.880000 0.672003
v 0.672003 0.880000 0.637168
vt 0.357143 0.000000
vt 0.392857 0.000000
vt 0.392857 1.000000
vt 0.357143 1.000000
f 413/413 414/414 415/415 416/416
v 0.500000 0.760000 0.500000
v 0.637168 0.760000 0.672003
v 0.672003 0.760000 0.637168
vt 0.000000 0.000000
vt 1.000000 0.000000
vt 1.000000 1.000000
f 417/417 418/418 419/419
v 0.500000 0.880000 0.500000
v 0.672003 0.880000 0.637168
v 0.637168 0.880000 0.672003
vt 0.000000 0.000000
vt 1.000000 0.000000
vt 1.000000 1.000000
f 420/420 421/421 422/422
v 0.637168 0.760000 0.672003
v 0.595454 0.760000 0.698213
v 0.595454 0.880000 0.698213
v 0.637168 0.880000 0.672003
vt 0.392857 0.000000
vt 0.428571 0.000000
vt 0.428571 1.000000
vt 0.392857 1.000000
f 423/423 424/424 425/425 426/426
v 0.500000 0.760000 0.500000
v 0.595454 0.760000 0.698213
v 0.637168 0.760000 0.672003
vt 0.000000 0.000000
vt 1.000000 0.000000
vt 1.000000 1.000000
f 427/427 428/428 429/429
v 0.500000 0.880000 0.500000
v 0.637168 0.880000 0.672003
v 0.595454 0.880000 0.698213
vt 0.000000 0.000000
vt 1.000000 0.000000
vt 1.000000 1.000000
f 430/430 431/431 432/432
v 0.595454 0.760000 0.698213
v 0.548955 0.760000 0.714484
v 0.548955 0.880000 0.714484
v 0.595454 0.880000 0.698213
vt 0.428571 0.000000
vt 0.464286 0.000000
vt 0.464286 1.000000
vt 0.428571 1.000000
f 433/433 434/434 435/435 436/436
v 0.500000 0.760000 0.500000
v 0.548955 0.760000 0.714484
v 0.595454 0.760000 0.698213
vt 0.000000 0.000000
vt 1.000000 0.000000
vt 1.000000 1.000000
f 437/437 438/438 439/439
v 0.500000 0.880000 0.500000
v 0.595454 0.880000 0.698213
v 0.548955 0.880000 0.714484
vt 0.000000 0.000000
vt 1.000000 0.000000
vt 1.000000 1.000000
f 440/440 441/441 442/442
v 0.548955 0.760000 0.714484
v 0.500000 0.760000 0.720000
v 0.500000 0.880000 0.720000
v 0.548955 0.880000 0.714484
vt 0.464286 0.000000
vt 0.500000 0.000000
vt 0.500000 1.000000
vt 0.464286 1.000000
f 443/443 444/444 445/445 446/446
v 0.500000 0.760000 0.500000
v 0.500000 0.760000 0.720000
v 0.548955 0.760000 0.714484
vt 0.000000 0.000000
vt 1.000000 0.000000
vt 1.000000 1.000000
f 447/447 448/448 449/449
v 0.500000 0.880000 0.500000
v 0.548955 0.880000 0.714484
v 0.500000 0.880000 0.720000
vt 0.000000 0.000000
vt 1.000000 0.000000
vt 1.000000 1.000000
f 450/450 451/451 452/452
v 0.500000 0.760000 0.720000
v 0.451045 0.760000 0.714484
v 0.451045 0.880000 0.714484
v 0.500000 0.880000 0.720000
vt 0.500000 0.000000
vt 0.535714 0.000000
vt 0.535714 1.000000
vt 0.500000 1.000000
f 453/453 454/454 455/455 456/456
v 0.500000 0.760000 0.500000
v 0.451045 0.760000 0.714484
v 0.500000 0.760000 0.720000
vt 0.000000 0.000000
vt 1.000000 0.000000
vt 1.000000 1.000000
f 457/457 458/458 459/459
v 0.500000 0.880000 0.500000
v 0.500000 0.880000 0.720000
v 0.451045 0.880000 0.714484
vt 0.000000 0.000000
vt 1.000000 0.000000
vt 1.000000 1.000000
f 460/460 461/461 462/462
v 0.451045 0.760000 0.714484
v 0.404546 0.760000 0.698213
v 0.404546 0.880000 0.698213
v 0.451045 0.880000 0.714484
vt 0.535714 0.000000
vt 0.571429 0.000000
vt 0.571429 1.000000
vt 0.535714 1.000000
f 463/463 464/464 465/465 466/466
v 0.500000 0.760000 0.500000
v 0.404546 0.760000 0.698213
v 0.451045 0.760000 0.714484
vt 0.000000 0.000000
vt 1.000000 0.000000
vt 1.000000 1.000000
f 467/467 468/468 469/469
v 0.500000 0.880000 0.500000
v 0.451045 0.880000 0.714484
v 0.404546 0.880000 0.698213
vt 0.000000 0.000000
vt 1.000000 0.000000
vt 1.000000 1.000000
f 470/470 471/471 472/472
v 0.404546 0.760000 0.698213
v 0.362832 0.760000 0.672003
v 0.362832 0.880000 0.672003
v 0.404546 0.880000 0.698213
vt 0.571429 0.000000
vt 0.607143 0.000000
vt 0.607143 1.000000
vt 0.571429 1.000000
f 473/473 474/474 475/475 476/476
v 0.500000 0.760000 0.500000
v 0.362832 0.760000 0.672003
v 0.404546 0.760000 0.698213
vt 0.000000 0.000000
vt 1.000000 0.000000
vt 1.000000 1.000000
f 477/477 478/478 479/479
v 0.500000 0.880000 0.500000
v 0.404546 0.880000 0.698213
v 0.362832 0.880000 0.672003
vt 0.000000 0.000000
vt 1.000000 0.000000
vt 1.000000 1.000000
f 480/480 481/481 482/482
v 0.362832 0.760000 0.672003
v 0.327997 0.760000 0.637168
v 0.327997 0.880000 0.637168
v 0.362832 0.880000 0.672003
vt 0.607143 0.000000
vt 0.642857 0.000000
vt 0.642857 1.000000
vt 0.607143 1.000000
f 483/483 484/484 485/485 486/486
v 0.500000 0.760000 0.500000
v 0.327997 0.760000 0.637168
v 0.362832 0.760000 0.672003
vt 0.000000 0.000000
vt 1.000000 0.000000
vt 1.000000 1.000000
f 487/487 488/488 489/489
v 0.500000 0.880000 0.500000
v 0.362832 0.880000 0.672003
v 0.327997 0.880000 0.637168
vt 0.000000 0.000000
vt 1.000000 0.000000
vt 1.000000 1.000000
f 490/490 491/491 492/492
v 0.327997 0.760000 0.637168
v 0.301787 0.760000 0.595454
v 0.301787 0.880000 0.595454
v 0.327997 0.880000 0.637168
vt 0.642857 0.000000
vt 0.678571 0.000000
vt 0.678571 1.000000
vt 0.642857 1.000000
f 493/493 494/494 495/495 496/496
v 0.500000 0.760000 0.500000
v 0.301787 0.760000 0.595454
v 0.327997 0.760000 0.637168
vt 0.000000 0.000000
vt 1.000000 0.000000
vt 1.000000 1.000000
f 497/497 498/498 499/499
v 0.500000 0.880000 0.500000
v 0.327997 0.880000 0.637168
v 0.301787 0.880000 0.595454
vt 0.000000 0.000000
vt 1.000000 0.000000
vt 1.000000 1.000000
f 500/500 501/501 502/502
v 0.301787 0.760000 0.595454
v 0.285516 0.760000 0.548955
v 0.285516 0.880000 0.548955
v 0.301787 0.880000 0.595454
vt 0.678571 0.000000
vt 0.714286 0.000000
vt 0.714286 1.000000
vt 0.678571 1.000000
f 503/503 504/504 505/505 506/506
v 0.500000 0.760000 0.500000
v 0.285516 0.760000 0.548955
v 0.301787 0.760000 0.595454
vt 0.000000 0.000000
vt 1.000000 0.000000
vt 1.000000 1.000000
f 507/507 508/508 509/509
v 0.500000 0.880000 0.500000
v 0.301787 0.880000 0.595454
v 0.285516 0.880000 0.548955
vt 0.000000 0.000000
vt 1.000000 0.000000
vt 1.000000 1.000000
f 510/510 511/511 512/512
v 0.285516 0.760000 0.548955
v 0.280000 0.760000 0.500000
v 0.280000 0.880000 0.500000
v 0.285516 0.880000 0.548955
vt 0.714286 0.000000
vt 0.750000 0.000000
vt 0.750000 1.000000
vt 0.714286 1.000000
f 513/513 514/514 515/515 516/516
v 0.500000 0.760000 0.500000
v 0.280000 0.760000 0.500000
v 0.285516 0.760000 0.548955
vt 0.000000 0.000000
vt 1.000000 0.000000
vt 1.000000 1.000000
f 517/517 518/518 519/519
v 0.500000 0.880000 0.500000
v 0.285516 0.880000 0.548955
v 0.280000 0.880000 0.500000
vt 0.000000 0.000000
vt 1.000000 0.000000
vt 1.000000 1.000000
f 520/520 521/521 522/522
v 0.280000 0.760000 0.500000
v 0.285516 0.760000 0.451045
v 0.285516 0.880000 0.451045
v 0.280000 0.880000 0.500000
vt 0.750000 0.000000
vt 0.785714 0.000000
vt 0.785714 1.000000
vt 0.750000 1.000000
f 523/523 524/524 525/525 526/526
v 0.500000 0.760000 0.500000
v 0.285516 0.760000 0.451045
v 0.280000 0.760000 0.500000
vt 0.000000 0.000000
vt 1.000000 0.000000
vt 1.000000 1.000000
f 527/527 528/528 529/529
v 0.500000 0.880000 0.500000
v 0.280000 0.880000 0.500000
v 0.285516 0.880000 0.451045
vt 0.000000 0.000000
vt 1.000000 0.000000
vt 1.000000 1.000000
f 530/530 531/531 532/532
v 0.285516 0.760000 0.451045
v 0.301787 0.760000 0.404546
v 0.301787 0.880000 0.404546
v 0.285516 0.880000 0.451045
vt 0.785714 0.000000
vt 0.821429 0.000000
vt 0.821429 1.000000
vt 0.785714 1.000000
f 533/533 534/534 535/535 536/536
v 0.500000 0.760000 0.500000
v 0.301787 0.760000 0.404546
v 0.285516 0.760000 0.451045
vt 0.000000 0.000000
vt 1.000000 0.000000
vt 1.000000 1.000000
f 537/537 538/538 539/539
v 0.500000 0.880000 0.500000
v 0.285516 0.880000 0.451045
v 0.301787 0.880000 0.404546
vt 0.000000 0.000000
vt 1.000000 0.000000
vt 1.000000 1.000000
f 540/540 541/541 542/542
v 0.301787 0.760000 0.404546
v 0.327997 0.760000 0.362832
v 0.327997 0.880000 0.362832
v 0.301787 0.880000 0.404546
vt 0.821429 0.000000
vt 0.857143 0.000000
vt 0.857143 1.000000
vt 0.821429 1.000000
f 543/543 544/544 545/545 546/546
v 0.500000 0.760000 0.500000
v 0.327997 0.760000 0.362832
v 0.301787 0.760000 0.404546
vt 0.000000 0.000000
vt 1.000000 0.000000
vt 1.000000 1.000000
f 547/547 548/548 549/549
v 0.500000 0.880000 0.500000
v 0.301787 0.880000 0.404546
v 0.327997 0.880000 0.362832
vt 0.000000 0.000000
vt 1.000000 0.000000
vt 1.000000 1.000000
f 550/550 551/551 552/552
v 0.327997 0.760000 0.362832
v 0.362832 0.760000 0.327997
v 0.362832 0.880000 0.327997
v 0.327997 0.880000 0.362832
vt 0.857143 0.000000
vt 0.892857 0.000000
vt 0.892857 1.000000
vt 0.857143 1.000000
f 553/553 554/554 555/555 556/556
v 0.500000 0.760000 0.500000
v 0.362832 0.760000 0.327997
v 0.327997 0.760000 0.362832
vt 0.000000 0.000000
vt 1.000000 0.000000
vt 1.000000 1.000000
f 557/557 558/558 559/559
v 0.500000 0.880000 0.500000
v 0.327997 0.880000 0.362832
v 0.362832 0.880000 0.327997
vt 0.000000 0.000000
vt 1.000000 0.000000
vt 1.000000 1.000000
f 560/560 561/561 562/562
v 0.362832 0.760000 0.327997
v 0.404546 0.760000 0.301787
v 0.404546 0.880000 0.301787
v 0.362832 0.880000 0.327997
vt 0.892857 0.000000
vt 0.928571 0.000000
vt 0.928571 1.000000
vt 0.892857 1.000000
f 563/563 564/564 565/565 566/566
v 0.500000 0.760000 0.500000
v 0.404546 0.760000 0.301787
v 0.362832 0.760000 0.327997
vt 0.000000 0.000000
vt 1.000000 0.000000
vt 1.000000 1.000000
f 567/567 568/568 569/569
v 0.500000 0.880000 0.500000
v 0.362832 0.880000 0.327997
v 0.404546 0.880000 0.301787
vt 0.000000 0.000000
vt 1.000000 0.000000
vt 1.000000 1.000000
f 570/570 571/571 572/572
v 0.404546 0.760000 0.301787
v 0.451045 0.760000 0.285516
v 0.451045 0.880000 0.285516
v 0.404546 0.880000 0.301787
vt 0.928571 0.000000
vt 0.964286 0.000000
vt 0.964286 1.000000
vt 0.928571 1.000000
f 573/573 574/574 575/575 576/576
v 0.500000 0.760000 0.500000
v 0.451045 0.760000 0.285516
v 0.404546 0.760000 0.301787
vt 0.000000 0.000000
vt 1.000000 0.000000
vt 1.000000 1.000000
f 577/577 578/578 579/579
v 0.500000 0.880000 0.500000
v 0.404546 0.880000 0.301787
v 0.451045 0.880000 0.285516
vt 0.000000 0.000000
vt 1.000000 0.000000
vt 1.000000 1.000000
f 580/580 581/581 582/582
v 0.451045 0.760000 0.285516
v 0.500000 0.760000 0.280000
v 0.500000 0.880000 0.280000
v 0.451045 0.880000 0.285516
vt 0.964286 0.000000
vt 1.000000 0.000000
vt 1.000000 1.000000
vt 0.964286 1.000000
f 583/583 584/584 585/585 586/586
v 0.500000 0.760000 0.500000
v 0.500000 0.760000 0.280000
v 0.451045 0.760000 0.285516
vt 0.000000 0.000000
vt 1.000000 0.000000
vt 1.000000 1.000000
f 587/587 588/588 589/589
v 0.500000 0.880000 0.500000
v 0.451045 0.880000 0.285516
v 0.500000 0.880000 0.280000
vt 0.000000 0.000000
vt 1.000000 0.000000
vt 1.000000 1.000000
f 590/590 591/591 592/592
usemtl yellow
v 0.420000 0.860000 0.420000
v 0.580000 0.860000 0.420000
v 0.580000 0.960000 0.420000
v 0.420000 0.960000 0.420000
vt 0.000000 0.000000
vt 1.000000 0.000000
vt 1.000000 1.000000
vt 0.000000 1.000000
f 593/593 594/594 595/595 596/596
v 0.580000 0.860000 0.580000
v 0.420000 0.860000 0.580000
v 0.420000 0.960000 0.580000
v 0.580000 0.960000 0.580000
vt 0.000000 0.000000
vt 1.000000 0.000000
vt 1.000000 1.000000
vt 0.000000 1.000000
f 597/597 598/598 599/599 600/600
v 0.420000 0.860000 0.580000
v 0.420000 0.860000 0.420000
v 0.420000 0.960000 0.420000
v 0.420000 0.960000 0.580000
vt 0.000000 0.000000
vt 1.000000 0.000000
vt 1.000000 1.000000
vt 0.000000 1.000000
f 601/601 602/602 603/603 604/604
v 0.580000 0.860000 0.420000
v 0.580000 0.860000 0.580000
v 0.580000 0.960000 0.580000
v 0.580000 0.960000 0.420000
vt 0.000000 0.000000
vt 1.000000 0.000000
vt 1.000000 1.000000
vt 0.000000 1.000000
f 605/605 606/606 607/607 608/608
v 0.420000 0.960000 0.420000
v 0.580000 0.960000 0.420000
v 0.580000 0.960000 0.580000
v 0.420000 0.960000 0.580000
vt 0.000000 0.000000
vt 1.000000 0.000000
vt 1.000000 1.000000
vt 0.000000 1.000000
f 609/609 610/610 611/611 612/612
v 0.420000 0.860000 0.580000
v 0.580000 0.860000 0.580000
v 0.580000 0.860000 0.420000
v 0.420000 0.860000 0.420000
vt 0.000000 0.000000
vt 1.000000 0.000000
vt 1.000000 1.000000
vt 0.000000 1.000000
f 613/613 614/614 615/615 616/616
usemtl dark
v 0.780000 0.140000 0.740000
v 0.803511 0.140000 0.747639
v 0.803511 0.500000 0.747639
v 0.780000 0.500000 0.740000
vt 0.000000 0.000000
vt 0.100000 0.000000
vt 0.100000 1.000000
vt 0.000000 1.000000
f 617/617 618/618 619/619 620/620
v 0.780000 0.140000 0.780000
v 0.803511 0.140000 0.747639
v 0.780000 0.140000 0.740000
vt 0.000000 0.000000
vt 1.000000 0.000000
vt 1.000000 1.000000
f 621/621 622/622 623/623
v 0.780000 0.500000 0.780000
v 0.780000 0.500000 0.740000
v 0.803511 0.500000 0.747639
vt 0.000000 0.000000
vt 1.000000 0.000000
vt 1.000000 1.000000
f 624/624 625/625 626/626
v 0.803511 0.140000 0.747639
v 0.818042 0.140000 0.767639
v 0.818042 0.500000 0.767639
v 0.803511 0.500000 0.747639
vt 0.100000 0.000000
vt 0.200000 0.000000
vt 0.200000 1.000000
vt 0.100000 1.000000
f 627/627 628/628 629/629 630/630
v 0.780000 0.140000 0.780000
v 0.818042 0.140000 0.767639
v 0.803511 0.140000 0.747639
vt 0.000000 0.000000
vt 1.000000 0.000000
vt 1.000000 1.000000
f 631/631 632/632 633/633
v 0.780000 0.500000 0.780000
v 0.803511 0.500000 0.747639
v 0.818042 0.500000 0.767639
vt 0.000000 0.000000
vt 1.000000 0.000000
vt 1.000000 1.000000
f 634/634 635/635 636/636
v 0.818042 0.140000 0.767639
v 0.818042 0.140000 0.792361
v 0.818042 0.500000 0.792361
v 0.818042 0.500000 0.767639
vt 0.200000 0.000000
vt 0.300000 0.000000
vt 0.300000 1.000000
vt 0.200000 1.000000
f 637/637 638/638 639/639 640/640
v 0.780000 0.140000 0.780000
v 0.818042 0.140000 0.792361
v 0.818042 0.140000 0.767639
vt 0.000000 0.000000
vt 1.000000 0.000000
vt 1.000000 1.000000
f 641/641 642/642 643/643
v 0.780000 0.500000 0.780000
v 0.818042 0.500000 0.767639
v 0.818042 0.500000 0.792361
vt 0.000000 0.000000
vt 1.000000 0.000000
vt 1.000000 1.000000
f 644/644 645/645 646/646
v 0.818042 0.140000 0.792361
v 0.803511 0.140000 0.812361
v 0.803511 0.500000 0.812361
v 0.818042 0.500000 0.792361
vt 0.300000 0.000000
vt 0.400000 0.000000
vt 0.400000 1.000000
vt 0.300000 1.000000
f 647/647 648/648 649/649 650/650
v 0.780000 0.140000 0.780000
v 0.803511 0.140000 0.812361
v 0.818042 0.140000 0.792361
vt 0.000000 0.000000
vt 1.000000 0.000000
vt 1.000000 1.000000
f 651/651 652/652 653/653
v 0.780000 0.500000 0.780000
v 0.818042 0.500000 0.792361
v 0.803511 0.500000 0.812361
vt 0.000000 0.000000
vt 1.000000 0.000000
vt 1.000000 1.000000
f 654/654 655/655 656/656
v 0.803511 0.140000 0.812361
v 0.780000 0.140000 0.820000
v 0.780000 0.500000 0.820000
v 0.803511 0.500000 0.812361
vt 0.400000 0.000000
vt 0.500000 0.000000
vt 0.500000 1.000000
vt 0.400000 1.000000
f 657/657 658/658 659/659 660/660
v 0.780000 0.140000 0.780000
v 0.780000 0.140000 0.820000
v 0.803511 0.140000 0.812361
vt 0.000000 0.000000
vt 1.000000 0.000000
vt 1.000000 1.000000
f 661/661 662/662 663/663
v 0.780000 0.500000 0.780000
v 0.803511 0.500000 0.812361
v 0.780000 0.500000 0.820000
vt 0.000000 0.000000
vt 1.000000 0.000000
vt 1.000000 1.000000
f 664/664 665/665 666/666
v 0.780000 0.140000 0.820000
v 0.756489 0.140000 0.812361
v 0.756489 0.500000 0.812361
v 0.780000 0.500000 0.820000
vt 0.500000 0.000000
vt 0.600000 0.000000
vt 0.600000 1.000000
vt 0.500000 1.000000
f 667/667 668/668 669/669 670/670
v 0.780000 0.140000 0.780000
v 0.756489 0.140000 0.812361
v 0.780000 0.140000 0.820000
vt 0.000000 0.000000
vt 1.000000 0.000000
vt 1.000000 1.000000
f 671/671 672/672 673/673
v 0.780000 0.500000 0.780000
v 0.780000 0.500000 0.820000
v 0.756489 0.500000 0.812361
vt 0.000000 0.000000
vt 1.000000 0.000000
vt 1.000000 1.000000
f 674/674 675/675 676/676
v 0.756489 0.140000 0.812361
v 0.741958 0.140000 0.792361
v 0.741958 0.500000 0.792361
v 0.756489 0.500000 0.812361
vt 0.600000 0.000000
vt 0.700000 0.000000
vt 0.700000 1.000000
vt 0.600000 1.000000
f 677/677 678/678 679/679 680/680
v 0.780000 0.140000 0.780000
v 0.741958 0.140000 0.792361
v 0.756489 0.140000 0.812361
vt 0.000000 0.000000
vt 1.000000 0.000000
vt 1.000000 1.000000
f 681/681 682/682 683/683
v 0.780000 0.500000 0.780000
v 0.756489 0.500000 0.812361
v 0.741958 0.500000 0.792361
vt 0.000000 0.000000
vt 1.000000 0.000000
vt 1.000000 1.000000
f 684/684 685/685 686/686
v 0.741958 0.140000 0.792361
v 0.741958 0.140000 0.767639
v 0.741958 0.500000 0.767639
v 0.741958 0.500000 0.792361
vt 0.700000 0.000000
vt 0.800000 0.000000
vt 0.800000 1.000000
vt 0.700000 1.000000
f 687/687 688/688 689/689 690/690
v 0.780000 0.140000 0.780000
v 0.741958 0.140000 0.767639
v 0.741958 0.140000 0.792361
vt 0.000000 0.000000
vt 1.000000 0.000000
vt 1.000000 1.000000
f 691/691 692/692 693/693
v 0.780000 0.500000 0.780000
v 0.741958 0.500000 0.792361
v 0.741958 0.500000 0.767639
vt 0.000000 0.000000
vt 1.000000 0.000000
vt 1.000000 1.000000
f 694/694 695/695 696/696
v 0.741958 0.140000 0.767639
v 0.756489 0.140000 0.747639
v 0.756489 0.500000 0.747639
v 0.741958 0.500000 0.767639
vt 0.800000 0.000000
vt 0.900000 0.000000
vt 0.900000 1.000000
vt 0.800000 1.000000
f 697/697 698/698 699/699 700/700
v 0.780000 0.140000 0.780000
v 0.756489 0.140000 0.747639
v 0.741958 0.140000 0.767639
vt 0.000000 0.000000
vt 1.000000 0.000000
vt 1.000000 1.000000
f 701/701 702/702 703/703
v 0.780000 0.500000 0.780000
v 0.741958 0.500000 0.767639
v 0.756489 0.500000 0.747639
vt 0.000000 0.000000
vt 1.000000 0.000000
vt 1.000000 1.000000
f 704/704 705/705 706/706
v 0.756489 0.140000 0.747639
v 0.780000 0.140000 0.740000
v 0.780000 0.500000 0.740000
v 0.756489 0.500000 0.747639
vt 0.900000 0.000000
vt 1.000000 0.000000
vt 1.000000 1.000000
vt 0.900000 1.000000
f 707/707 708/708 709/709 710/710
v 0.780000 0.140000 0.780000
v 0.780000 0.140000 0.740000
v 0.756489 0.140000 0.747639
vt 0.000000 0.000000
vt 1.000000 0.000000
vt 1.000000 1.000000
f 711/711 712/712 713/713
v 0.780000 0.500000 0.780000
v 0.756489 0.500000 0.747639
v 0.780000 0.500000 0.740000
vt 0.000000 0.000000
vt 1.000000 0.000000
vt 1.000000 1.000000
f 714/714 715/715 716/716
usemtl body
v 0.620000 0.140000 0.620000
v 0.900000 0.140000 0.620000
v 0.900000 0.280000 0.620000
v 0.620000 0.280000 0.620000
vt 0.000000 0.000000
vt 1.000000 0.000000
vt 1.000000 1.000000
vt 0.000000 1.000000
f 717/717 718/718 719/719 720/720
v 0.900000 0.140000 0.900000
v 0.620000 0.140000 0.900000
v 0.620000 0.280000 0.900000
v 0.900000 0.280000 0.900000
vt 0.000000 0.000000
vt 1.000000 0.000000
vt 1.000000 1.000000
vt 0.000000 1.000000
f 721/721 722/722 723/723 724/724
v 0.620000 0.140000 0.900000
v 0.620000 0.140000 0.620000
v 0.620000 0.280000 0.620000
v 0.620000 0.280000 0.900000
vt 0.000000 0.000000
vt 1.000000 0.000000
vt 1.000000 1.000000
vt 0.000000 1.000000
f 725/725 726/726 727/727 728/728
v 0.900000 0.140000 0.620000
v 0.900000 0.140000 0.900000
v 0.900000 0.280000 0.900000
v 0.900000 0.280000 0.620000
vt 0.000000 0.000000
vt 1.000000 0.000000
vt 1.000000 1.000000
vt 0.000000 1.000000
f 729/729 730/730 731/731 732/732
v 0.620000 0.280000 0.620000
v 0.900000 0.280000 0.620000
v 0.900000 0.280000 0.900000
v 0.620000 0.280000 0.900000
vt 0.000000 0.000000
vt 1.000000 0.000000
vt 1.000000 1.000000
vt 0.000000 1.000000
f 733/733 734/734 735/735 736/736
v 0.620000 0.140000 0.900000
v 0.900000 0.140000 0.900000
v 0.900000 0.140000 0.620000
v 0.620000 0.140000 0.620000
vt 0.000000 0.000000
vt 1.000000 0.000000
vt 1.000000 1.000000
vt 0.000000 1.000000
f 737/737 738/738 739/739 740/740
