mtllib silo_hatch_open.mtl
o silo_hatch_open
s 1
usemtl concrete
v 0.000000 0.000000 0.000000
v 1.000000 0.000000 0.000000
v 1.000000 0.040000 0.000000
v 0.000000 0.040000 0.000000
vt 0.000000 0.000000
vt 1.000000 0.000000
vt 1.000000 1.000000
vt 0.000000 1.000000
f 1/1 2/2 3/3 4/4
v 1.000000 0.000000 1.000000
v 0.000000 0.000000 1.000000
v 0.000000 0.040000 1.000000
v 1.000000 0.040000 1.000000
vt 0.000000 0.000000
vt 1.000000 0.000000
vt 1.000000 1.000000
vt 0.000000 1.000000
f 5/5 6/6 7/7 8/8
v 0.000000 0.000000 1.000000
v 0.000000 0.000000 0.000000
v 0.000000 0.040000 0.000000
v 0.000000 0.040000 1.000000
vt 0.000000 0.000000
vt 1.000000 0.000000
vt 1.000000 1.000000
vt 0.000000 1.000000
f 9/9 10/10 11/11 12/12
v 1.000000 0.000000 0.000000
v 1.000000 0.000000 1.000000
v 1.000000 0.040000 1.000000
v 1.000000 0.040000 0.000000
vt 0.000000 0.000000
vt 1.000000 0.000000
vt 1.000000 1.000000
vt 0.000000 1.000000
f 13/13 14/14 15/15 16/16
v 0.000000 0.040000 0.000000
v 1.000000 0.040000 0.000000
v 1.000000 0.040000 1.000000
v 0.000000 0.040000 1.000000
vt 0.000000 0.000000
vt 1.000000 0.000000
vt 1.000000 1.000000
vt 0.000000 1.000000
f 17/17 18/18 19/19 20/20
v 0.000000 0.000000 1.000000
v 1.000000 0.000000 1.000000
v 1.000000 0.000000 0.000000
v 0.000000 0.000000 0.000000
vt 0.000000 0.000000
vt 1.000000 0.000000
vt 1.000000 1.000000
vt 0.000000 1.000000
f 21/21 22/22 23/23 24/24
usemtl dark
v 0.500000 0.030000 0.040000
v 0.589742 0.030000 0.048839
v 0.589742 0.160000 0.048839
v 0.500000 0.160000 0.040000
vt 0.000000 0.000000
vt 0.031250 0.000000
vt 0.031250 1.000000
vt 0.000000 1.000000
f 25/25 26/26 27/27 28/28
v 0.589742 0.030000 0.048839
v 0.676034 0.030000 0.075015
v 0.676034 0.160000 0.075015
v 0.589742 0.160000 0.048839
vt 0.031250 0.000000
vt 0.062500 0.000000
vt 0.062500 1.000000
vt 0.031250 1.000000
f 29/29 30/30 31/31 32/32
v 0.676034 0.030000 0.075015
v 0.755562 0.030000 0.117524
v 0.755562 0.160000 0.117524
v 0.676034 0.160000 0.075015
vt 0.062500 0.000000
vt 0.093750 0.000000
vt 0.093750 1.000000
vt 0.062500 1.000000
f 33/33 34/34 35/35 36/36
v 0.755562 0.030000 0.117524
v 0.825269 0.030000 0.174731
v 0.825269 0.160000 0.174731
v 0.755562 0.160000 0.117524
vt 0.093750 0.000000
vt 0.125000 0.000000
vt 0.125000 1.000000
vt 0.093750 1.000000
f 37/37 38/38 39/39 40/40
v 0.825269 0.030000 0.174731
v 0.882476 0.030000 0.244438
v 0.882476 0.160000 0.244438
v 0.825269 0.160000 0.174731
vt 0.125000 0.000000
vt 0.156250 0.000000
vt 0.156250 1.000000
vt 0.125000 1.000000
f 41/41 42/42 43/43 44/44
v 0.882476 0.030000 0.244438
v 0.924985 0.030000 0.323966
v 0.924985 0.160000 0.323966
v 0.882476 0.160000 0.244438
vt 0.156250 0.000000
vt 0.187500 0.000000
vt 0.187500 1.000000
vt 0.156250 1.000000
f 45/45 46/46 47/47 48/48
v 0.924985 0.030000 0.323966
v 0.951161 0.030000 0.410258
v 0.951161 0.160000 0.410258
v 0.924985 0.160000 0.323966
vt 0.187500 0.000000
vt 0.218750 0.000000
vt 0.218750 1.000000
vt 0.187500 1.000000
f 49/49 50/50 51/51 52/52
v 0.951161 0.030000 0.410258
v 0.960000 0.030000 0.500000
v 0.960000 0.160000 0.500000
v 0.951161 0.160000 0.410258
vt 0.218750 0.000000
vt 0.250000 0.000000
vt 0.250000 1.000000
vt 0.218750 1.000000
f 53/53 54/54 55/55 56/56
v 0.960000 0.030000 0.500000
v 0.951161 0.030000 0.589742
v 0.951161 0.160000 0.589742
v 0.960000 0.160000 0.500000
vt 0.250000 0.000000
vt 0.281250 0.000000
vt 0.281250 1.000000
vt 0.250000 1.000000
f 57/57 58/58 59/59 60/60
v 0.951161 0.030000 0.589742
v 0.924985 0.030000 0.676034
v 0.924985 0.160000 0.676034
v 0.951161 0.160000 0.589742
vt 0.281250 0.000000
vt 0.312500 0.000000
vt 0.312500 1.000000
vt 0.281250 1.000000
f 61/61 62/62 63/63 64/64
v 0.924985 0.030000 0.676034
v 0.882476 0.030000 0.755562
v 0.882476 0.160000 0.755562
v 0.924985 0.160000 0.676034
vt 0.312500 0.000000
vt 0.343750 0.000000
vt 0.343750 1.000000
vt 0.312500 1.000000
f 65/65 66/66 67/67 68/68
v 0.882476 0.030000 0.755562
v 0.825269 0.030000 0.825269
v 0.825269 0.160000 0.825269
v 0.882476 0.160000 0.755562
vt 0.343750 0.000000
vt 0.375000 0.000000
vt 0.375000 1.000000
vt 0.343750 1.000000
f 69/69 70/70 71/71 72/72
v 0.825269 0.030000 0.825269
v 0.755562 0.030000 0.882476
v 0.755562 0.160000 0.882476
v 0.825269 0.160000 0.825269
vt 0.375000 0.000000
vt 0.406250 0.000000
vt 0.406250 1.000000
vt 0.375000 1.000000
f 73/73 74/74 75/75 76/76
v 0.755562 0.030000 0.882476
v 0.676034 0.030000 0.924985
v 0.676034 0.160000 0.924985
v 0.755562 0.160000 0.882476
vt 0.406250 0.000000
vt 0.437500 0.000000
vt 0.437500 1.000000
vt 0.406250 1.000000
f 77/77 78/78 79/79 80/80
v 0.676034 0.030000 0.924985
v 0.589742 0.030000 0.951161
v 0.589742 0.160000 0.951161
v 0.676034 0.160000 0.924985
vt 0.437500 0.000000
vt 0.468750 0.000000
vt 0.468750 1.000000
vt 0.437500 1.000000
f 81/81 82/82 83/83 84/84
v 0.589742 0.030000 0.951161
v 0.500000 0.030000 0.960000
v 0.500000 0.160000 0.960000
v 0.589742 0.160000 0.951161
vt 0.468750 0.000000
vt 0.500000 0.000000
vt 0.500000 1.000000
vt 0.468750 1.000000
f 85/85 86/86 87/87 88/88
v 0.500000 0.030000 0.960000
v 0.410258 0.030000 0.951161
v 0.410258 0.160000 0.951161
v 0.500000 0.160000 0.960000
vt 0.500000 0.000000
vt 0.531250 0.000000
vt 0.531250 1.000000
vt 0.500000 1.000000
f 89/89 90/90 91/91 92/92
v 0.410258 0.030000 0.951161
v 0.323966 0.030000 0.924985
v 0.323966 0.160000 0.924985
v 0.410258 0.160000 0.951161
vt 0.531250 0.000000
vt 0.562500 0.000000
vt 0.562500 1.000000
vt 0.531250 1.000000
f 93/93 94/94 95/95 96/96
v 0.323966 0.030000 0.924985
v 0.244438 0.030000 0.882476
v 0.244438 0.160000 0.882476
v 0.323966 0.160000 0.924985
vt 0.562500 0.000000
vt 0.593750 0.000000
vt 0.593750 1.000000
vt 0.562500 1.000000
f 97/97 98/98 99/99 100/100
v 0.244438 0.030000 0.882476
v 0.174731 0.030000 0.825269
v 0.174731 0.160000 0.825269
v 0.244438 0.160000 0.882476
vt 0.593750 0.000000
vt 0.625000 0.000000
vt 0.625000 1.000000
vt 0.593750 1.000000
f 101/101 102/102 103/103 104/104
v 0.174731 0.030000 0.825269
v 0.117524 0.030000 0.755562
v 0.117524 0.160000 0.755562
v 0.174731 0.160000 0.825269
vt 0.625000 0.000000
vt 0.656250 0.000000
vt 0.656250 1.000000
vt 0.625000 1.000000
f 105/105 106/106 107/107 108/108
v 0.117524 0.030000 0.755562
v 0.075015 0.030000 0.676034
v 0.075015 0.160000 0.676034
v 0.117524 0.160000 0.755562
vt 0.656250 0.000000
vt 0.687500 0.000000
vt 0.687500 1.000000
vt 0.656250 1.000000
f 109/109 110/110 111/111 112/112
v 0.075015 0.030000 0.676034
v 0.048839 0.030000 0.589742
v 0.048839 0.160000 0.589742
v 0.075015 0.160000 0.676034
vt 0.687500 0.000000
vt 0.718750 0.000000
vt 0.718750 1.000000
vt 0.687500 1.000000
f 113/113 114/114 115/115 116/116
v 0.048839 0.030000 0.589742
v 0.040000 0.030000 0.500000
v 0.040000 0.160000 0.500000
v 0.048839 0.160000 0.589742
vt 0.718750 0.000000
vt 0.750000 0.000000
vt 0.750000 1.000000
vt 0.718750 1.000000
f 117/117 118/118 119/119 120/120
v 0.040000 0.030000 0.500000
v 0.048839 0.030000 0.410258
v 0.048839 0.160000 0.410258
v 0.040000 0.160000 0.500000
vt 0.750000 0.000000
vt 0.781250 0.000000
vt 0.781250 1.000000
vt 0.750000 1.000000
f 121/121 122/122 123/123 124/124
v 0.048839 0.030000 0.410258
v 0.075015 0.030000 0.323966
v 0.075015 0.160000 0.323966
v 0.048839 0.160000 0.410258
vt 0.781250 0.000000
vt 0.812500 0.000000
vt 0.812500 1.000000
vt 0.781250 1.000000
f 125/125 126/126 127/127 128/128
v 0.075015 0.030000 0.323966
v 0.117524 0.030000 0.244438
v 0.117524 0.160000 0.244438
v 0.075015 0.160000 0.323966
vt 0.812500 0.000000
vt 0.843750 0.000000
vt 0.843750 1.000000
vt 0.812500 1.000000
f 129/129 130/130 131/131 132/132
v 0.117524 0.030000 0.244438
v 0.174731 0.030000 0.174731
v 0.174731 0.160000 0.174731
v 0.117524 0.160000 0.244438
vt 0.843750 0.000000
vt 0.875000 0.000000
vt 0.875000 1.000000
vt 0.843750 1.000000
f 133/133 134/134 135/135 136/136
v 0.174731 0.030000 0.174731
v 0.244438 0.030000 0.117524
v 0.244438 0.160000 0.117524
v 0.174731 0.160000 0.174731
vt 0.875000 0.000000
vt 0.906250 0.000000
vt 0.906250 1.000000
vt 0.875000 1.000000
f 137/137 138/138 139/139 140/140
v 0.244438 0.030000 0.117524
v 0.323966 0.030000 0.075015
v 0.323966 0.160000 0.075015
v 0.244438 0.160000 0.117524
vt 0.906250 0.000000
vt 0.937500 0.000000
vt 0.937500 1.000000
vt 0.906250 1.000000
f 141/141 142/142 143/143 144/144
v 0.323966 0.030000 0.075015
v 0.410258 0.030000 0.048839
v 0.410258 0.160000 0.048839
v 0.323966 0.160000 0.075015
vt 0.937500 0.000000
vt 0.968750 0.000000
vt 0.968750 1.000000
vt 0.937500 1.000000
f 145/145 146/146 147/147 148/148
v 0.410258 0.030000 0.048839
v 0.500000 0.030000 0.040000
v 0.500000 0.160000 0.040000
v 0.410258 0.160000 0.048839
vt 0.968750 0.000000
vt 1.000000 0.000000
vt 1.000000 1.000000
vt 0.968750 1.000000
f 149/149 150/150 151/151 152/152
usemtl yellow
v 0.500000 0.160000 0.066000
v 0.509899 0.160000 0.070101
v 0.509899 0.182400 0.070101
v 0.500000 0.182400 0.066000
vt 0.000000 0.000000
vt 0.125000 0.000000
vt 0.125000 1.000000
vt 0.000000 1.000000
f 153/153 154/154 155/155 156/156
v 0.500000 0.160000 0.080000
v 0.509899 0.160000 0.070101
v 0.500000 0.160000 0.066000
vt 0.000000 0.000000
vt 1.000000 0.000000
vt 1.000000 1.000000
f 157/157 158/158 159/159
v 0.500000 0.182400 0.080000
v 0.500000 0.182400 0.066000
v 0.509899 0.182400 0.070101
vt 0.000000 0.000000
vt 1.000000 0.000000
vt 1.000000 1.000000
f 160/160 161/161 162/162
v 0.509899 0.160000 0.070101
v 0.514000 0.160000 0.080000
v 0.514000 0.182400 0.080000
v 0.509899 0.182400 0.070101
vt 0.125000 0.000000
vt 0.250000 0.000000
vt 0.250000 1.000000
vt 0.125000 1.000000
f 163/163 164/164 165/165 166/166
v 0.500000 0.160000 0.080000
v 0.514000 0.160000 0.080000
v 0.509899 0.160000 0.070101
vt 0.000000 0.000000
vt 1.000000 0.000000
vt 1.000000 1.000000
f 167/167 168/168 169/169
v 0.500000 0.182400 0.080000
v 0.509899 0.182400 0.070101
v 0.514000 0.182400 0.080000
vt 0.000000 0.000000
vt 1.000000 0.000000
vt 1.000000 1.000000
f 170/170 171/171 172/172
v 0.514000 0.160000 0.080000
v 0.509899 0.160000 0.089899
v 0.509899 0.182400 0.089899
v 0.514000 0.182400 0.080000
vt 0.250000 0.000000
vt 0.375000 0.000000
vt 0.375000 1.000000
vt 0.250000 1.000000
f 173/173 174/174 175/175 176/176
v 0.500000 0.160000 0.080000
v 0.509899 0.160000 0.089899
v 0.514000 0.160000 0.080000
vt 0.000000 0.000000
vt 1.000000 0.000000
vt 1.000000 1.000000
f 177/177 178/178 179/179
v 0.500000 0.182400 0.080000
v 0.514000 0.182400 0.080000
v 0.509899 0.182400 0.089899
vt 0.000000 0.000000
vt 1.000000 0.000000
vt 1.000000 1.000000
f 180/180 181/181 182/182
v 0.509899 0.160000 0.089899
v 0.500000 0.160000 0.094000
v 0.500000 0.182400 0.094000
v 0.509899 0.182400 0.089899
vt 0.375000 0.000000
vt 0.500000 0.000000
vt 0.500000 1.000000
vt 0.375000 1.000000
f 183/183 184/184 185/185 186/186
v 0.500000 0.160000 0.080000
v 0.500000 0.160000 0.094000
v 0.509899 0.160000 0.089899
vt 0.000000 0.000000
vt 1.000000 0.000000
vt 1.000000 1.000000
f 187/187 188/188 189/189
v 0.500000 0.182400 0.080000
v 0.509899 0.182400 0.089899
v 0.500000 0.182400 0.094000
vt 0.000000 0.000000
vt 1.000000 0.000000
vt 1.000000 1.000000
f 190/190 191/191 192/192
v 0.500000 0.160000 0.094000
v 0.490101 0.160000 0.089899
v 0.490101 0.182400 0.089899
v 0.500000 0.182400 0.094000
vt 0.500000 0.000000
vt 0.625000 0.000000
vt 0.625000 1.000000
vt 0.500000 1.000000
f 193/193 194/194 195/195 196/196
v 0.500000 0.160000 0.080000
v 0.490101 0.160000 0.089899
v 0.500000 0.160000 0.094000
vt 0.000000 0.000000
vt 1.000000 0.000000
vt 1.000000 1.000000
f 197/197 198/198 199/199
v 0.500000 0.182400 0.080000
v 0.500000 0.182400 0.094000
v 0.490101 0.182400 0.089899
vt 0.000000 0.000000
vt 1.000000 0.000000
vt 1.000000 1.000000
f 200/200 201/201 202/202
v 0.490101 0.160000 0.089899
v 0.486000 0.160000 0.080000
v 0.486000 0.182400 0.080000
v 0.490101 0.182400 0.089899
vt 0.625000 0.000000
vt 0.750000 0.000000
vt 0.750000 1.000000
vt 0.625000 1.000000
f 203/203 204/204 205/205 206/206
v 0.500000 0.160000 0.080000
v 0.486000 0.160000 0.080000
v 0.490101 0.160000 0.089899
vt 0.000000 0.000000
vt 1.000000 0.000000
vt 1.000000 1.000000
f 207/207 208/208 209/209
v 0.500000 0.182400 0.080000
v 0.490101 0.182400 0.089899
v 0.486000 0.182400 0.080000
vt 0.000000 0.000000
vt 1.000000 0.000000
vt 1.000000 1.000000
f 210/210 211/211 212/212
v 0.486000 0.160000 0.080000
v 0.490101 0.160000 0.070101
v 0.490101 0.182400 0.070101
v 0.486000 0.182400 0.080000
vt 0.750000 0.000000
vt 0.875000 0.000000
vt 0.875000 1.000000
vt 0.750000 1.000000
f 213/213 214/214 215/215 216/216
v 0.500000 0.160000 0.080000
v 0.490101 0.160000 0.070101
v 0.486000 0.160000 0.080000
vt 0.000000 0.000000
vt 1.000000 0.000000
vt 1.000000 1.000000
f 217/217 218/218 219/219
v 0.500000 0.182400 0.080000
v 0.486000 0.182400 0.080000
v 0.490101 0.182400 0.070101
vt 0.000000 0.000000
vt 1.000000 0.000000
vt 1.000000 1.000000
f 220/220 221/221 222/222
v 0.490101 0.160000 0.070101
v 0.500000 0.160000 0.066000
v 0.500000 0.182400 0.066000
v 0.490101 0.182400 0.070101
vt 0.875000 0.000000
vt 1.000000 0.000000
vt 1.000000 1.000000
vt 0.875000 1.000000
f 223/223 224/224 225/225 226/226
v 0.500000 0.160000 0.080000
v 0.500000 0.160000 0.066000
v 0.490101 0.160000 0.070101
vt 0.000000 0.000000
vt 1.000000 0.000000
vt 1.000000 1.000000
f 227/227 228/228 229/229
v 0.500000 0.182400 0.080000
v 0.490101 0.182400 0.070101
v 0.500000 0.182400 0.066000
vt 0.000000 0.000000
vt 1.000000 0.000000
vt 1.000000 1.000000
f 230/230 231/231 232/232
v 0.710000 0.160000 0.122269
v 0.719899 0.160000 0.126370
v 0.719899 0.182400 0.126370
v 0.710000 0.182400 0.122269
vt 0.000000 0.000000
vt 0.125000 0.000000
vt 0.125000 1.000000
vt 0.000000 1.000000
f 233/233 234/234 235/235 236/236
v 0.710000 0.160000 0.136269
v 0.719899 0.160000 0.126370
v 0.710000 0.160000 0.122269
vt 0.000000 0.000000
vt 1.000000 0.000000
vt 1.000000 1.000000
f 237/237 238/238 239/239
v 0.710000 0.182400 0.136269
v 0.710000 0.182400 0.122269
v 0.719899 0.182400 0.126370
vt 0.000000 0.000000
vt 1.000000 0.000000
vt 1.000000 1.000000
f 240/240 241/241 242/242
v 0.719899 0.160000 0.126370
v 0.724000 0.160000 0.136269
v 0.724000 0.182400 0.136269
v 0.719899 0.182400 0.126370
vt 0.125000 0.000000
vt 0.250000 0.000000
vt 0.250000 1.000000
vt 0.125000 1.000000
f 243/243 244/244 245/245 246/246
v 0.710000 0.160000 0.136269
v 0.724000 0.160000 0.136269
v 0.719899 0.160000 0.126370
vt 0.000000 0.000000
vt 1.000000 0.000000
vt 1.000000 1.000000
f 247/247 248/248 249/249
v 0.710000 0.182400 0.136269
v 0.719899 0.182400 0.126370
v 0.724000 0.182400 0.136269
vt 0.000000 0.000000
vt 1.000000 0.000000
vt 1.000000 1.000000
f 250/250 251/251 252/252
v 0.724000 0.160000 0.136269
v 0.719899 0.160000 0.146169
v 0.719899 0.182400 0.146169
v 0.724000 0.182400 0.136269
vt 0.250000 0.000000
vt 0.375000 0.000000
vt 0.375000 1.000000
vt 0.250000 1.000000
f 253/253 254/254 255/255 256/256
v 0.710000 0.160000 0.136269
v 0.719899 0.160000 0.146169
v 0.724000 0.160000 0.136269
vt 0.000000 0.000000
vt 1.000000 0.000000
vt 1.000000 1.000000
f 257/257 258/258 259/259
v 0.710000 0.182400 0.136269
v 0.724000 0.182400 0.136269
v 0.719899 0.182400 0.146169
vt 0.000000 0.000000
vt 1.000000 0.000000
vt 1.000000 1.000000
f 260/260 261/261 262/262
v 0.719899 0.160000 0.146169
v 0.710000 0.160000 0.150269
v 0.710000 0.182400 0.150269
v 0.719899 0.182400 0.146169
vt 0.375000 0.000000
vt 0.500000 0.000000
vt 0.500000 1.000000
vt 0.375000 1.000000
f 263/263 264/264 265/265 266/266
v 0.710000 0.160000 0.136269
v 0.710000 0.160000 0.150269
v 0.719899 0.160000 0.146169
vt 0.000000 0.000000
vt 1.000000 0.000000
vt 1.000000 1.000000
f 267/267 268/268 269/269
v 0.710000 0.182400 0.136269
v 0.719899 0.182400 0.146169
v 0.710000 0.182400 0.150269
vt 0.000000 0.000000
vt 1.000000 0.000000
vt 1.000000 1.000000
f 270/270 271/271 272/272
v 0.710000 0.160000 0.150269
v 0.700101 0.160000 0.146169
v 0.700101 0.182400 0.146169
v 0.710000 0.182400 0.150269
vt 0.500000 0.000000
vt 0.625000 0.000000
vt 0.625000 1.000000
vt 0.500000 1.000000
f 273/273 274/274 275/275 276/276
v 0.710000 0.160000 0.136269
v 0.700101 0.160000 0.146169
v 0.710000 0.160000 0.150269
vt 0.000000 0.000000
vt 1.000000 0.000000
vt 1.000000 1.000000
f 277/277 278/278 279/279
v 0.710000 0.182400 0.136269
v 0.710000 0.182400 0.150269
v 0.700101 0.182400 0.146169
vt 0.000000 0.000000
vt 1.000000 0.000000
vt 1.000000 1.000000
f 280/280 281/281 282/282
v 0.700101 0.160000 0.146169
v 0.696000 0.160000 0.136269
v 0.696000 0.182400 0.136269
v 0.700101 0.182400 0.146169
vt 0.625000 0.000000
vt 0.750000 0.000000
vt 0.750000 1.000000
vt 0.625000 1.000000
f 283/283 284/284 285/285 286/286
v 0.710000 0.160000 0.136269
v 0.696000 0.160000 0.136269
v 0.700101 0.160000 0.146169
vt 0.000000 0.000000
vt 1.000000 0.000000
vt 1.000000 1.000000
f 287/287 288/288 289/289
v 0.710000 0.182400 0.136269
v 0.700101 0.182400 0.146169
v 0.696000 0.182400 0.136269
vt 0.000000 0.000000
vt 1.000000 0.000000
vt 1.000000 1.000000
f 290/290 291/291 292/292
v 0.696000 0.160000 0.136269
v 0.700101 0.160000 0.126370
v 0.700101 0.182400 0.126370
v 0.696000 0.182400 0.136269
vt 0.750000 0.000000
vt 0.875000 0.000000
vt 0.875000 1.000000
vt 0.750000 1.000000
f 293/293 294/294 295/295 296/296
v 0.710000 0.160000 0.136269
v 0.700101 0.160000 0.126370
v 0.696000 0.160000 0.136269
vt 0.000000 0.000000
vt 1.000000 0.000000
vt 1.000000 1.000000
f 297/297 298/298 299/299
v 0.710000 0.182400 0.136269
v 0.696000 0.182400 0.136269
v 0.700101 0.182400 0.126370
vt 0.000000 0.000000
vt 1.000000 0.000000
vt 1.000000 1.000000
f 300/300 301/301 302/302
v 0.700101 0.160000 0.126370
v 0.710000 0.160000 0.122269
v 0.710000 0.182400 0.122269
v 0.700101 0.182400 0.126370
vt 0.875000 0.000000
vt 1.000000 0.000000
vt 1.000000 1.000000
vt 0.875000 1.000000
f 303/303 304/304 305/305 306/306
v 0.710000 0.160000 0.136269
v 0.710000 0.160000 0.122269
v 0.700101 0.160000 0.126370
vt 0.000000 0.000000
vt 1.000000 0.000000
vt 1.000000 1.000000
f 307/307 308/308 309/309
v 0.710000 0.182400 0.136269
v 0.700101 0.182400 0.126370
v 0.710000 0.182400 0.122269
vt 0.000000 0.000000
vt 1.000000 0.000000
vt 1.000000 1.000000
f 310/310 311/311 312/312
v 0.863731 0.160000 0.276000
v 0.873630 0.160000 0.280101
v 0.873630 0.182400 0.280101
v 0.863731 0.182400 0.276000
vt 0.000000 0.000000
vt 0.125000 0.000000
vt 0.125000 1.000000
vt 0.000000 1.000000
f 313/313 314/314 315/315 316/316
v 0.863731 0.160000 0.290000
v 0.873630 0.160000 0.280101
v 0.863731 0.160000 0.276000
vt 0.000000 0.000000
vt 1.000000 0.000000
vt 1.000000 1.000000
f 317/317 318/318 319/319
v 0.863731 0.182400 0.290000
v 0.863731 0.182400 0.276000
v 0.873630 0.182400 0.280101
vt 0.000000 0.000000
vt 1.000000 0.000000
vt 1.000000 1.000000
f 320/320 321/321 322/322
v 0.873630 0.160000 0.280101
v 0.877731 0.160000 0.290000
v 0.877731 0.182400 0.290000
v 0.873630 0.182400 0.280101
vt 0.125000 0.000000
vt 0.250000 0.000000
vt 0.250000 1.000000
vt 0.125000 1.000000
f 323/323 324/324 325/325 326/326
v 0.863731 0.160000 0.290000
v 0.877731 0.160000 0.290000
v 0.873630 0.160000 0.280101
vt 0.000000 0.000000
vt 1.000000 0.000000
vt 1.000000 1.000000
f 327/327 328/328 329/329
v 0.863731 0.182400 0.290000
v 0.873630 0.182400 0.280101
v 0.877731 0.182400 0.290000
vt 0.000000 0.000000
vt 1.000000 0.000000
vt 1.000000 1.000000
f 330/330 331/331 332/332
v 0.877731 0.160000 0.290000
v 0.873630 0.160000 0.299899
v 0.873630 0.182400 0.299899
v 0.877731 0.182400 0.290000
vt 0.250000 0.000000
vt 0.375000 0.000000
vt 0.375000 1.000000
vt 0.250000 1.000000
f 333/333 334/334 335/335 336/336
v 0.863731 0.160000 0.290000
v 0.873630 0.160000 0.299899
v 0.877731 0.160000 0.290000
vt 0.000000 0.000000
vt 1.000000 0.000000
vt 1.000000 1.000000
f 337/337 338/338 339/339
v 0.863731 0.182400 0.290000
v 0.877731 0.182400 0.290000
v 0.873630 0.182400 0.299899
vt 0.000000 0.000000
vt 1.000000 0.000000
vt 1.000000 1.000000
f 340/340 341/341 342/342
v 0.873630 0.160000 0.299899
v 0.863731 0.160000 0.304000
v 0.863731 0.182400 0.304000
v 0.873630 0.182400 0.299899
vt 0.375000 0.000000
vt 0.500000 0.000000
vt 0.500000 1.000000
vt 0.375000 1.000000
f 343/343 344/344 345/345 346/346
v 0.863731 0.160000 0.290000
v 0.863731 0.160000 0.304000
v 0.873630 0.160000 0.299899
vt 0.000000 0.000000
vt 1.000000 0.000000
vt 1.000000 1.000000
f 347/347 348/348 349/349
v 0.863731 0.182400 0.290000
v 0.873630 0.182400 0.299899
v 0.863731 0.182400 0.304000
vt 0.000000 0.000000
vt 1.000000 0.000000
vt 1.000000 1.000000
f 350/350 351/351 352/352
v 0.863731 0.160000 0.304000
v 0.853831 0.160000 0.299899
v 0.853831 0.182400 0.299899
v 0.863731 0.182400 0.304000
vt 0.500000 0.000000
vt 0.625000 0.000000
vt 0.625000 1.000000
vt 0.500000 1.000000
f 353/353 354/354 355/355 356/356
v 0.863731 0.160000 0.290000
v 0.853831 0.160000 0.299899
v 0.863731 0.160000 0.304000
vt 0.000000 0.000000
vt 1.000000 0.000000
vt 1.000000 1.000000
f 357/357 358/358 359/359
v 0.863731 0.182400 0.290000
v 0.863731 0.182400 0.304000
v 0.853831 0.182400 0.299899
vt 0.000000 0.000000
vt 1.000000 0.000000
vt 1.000000 1.000000
f 360/360 361/361 362/362
v 0.853831 0.160000 0.299899
v 0.849731 0.160000 0.290000
v 0.849731 0.182400 0.290000
v 0.853831 0.182400 0.299899
vt 0.625000 0.000000
vt 0.750000 0.000000
vt 0.750000 1.000000
vt 0.625000 1.000000
f 363/363 364/364 365/365 366/366
v 0.863731 0.160000 0.290000
v 0.849731 0.160000 0.290000
v 0.853831 0.160000 0.299899
vt 0.000000 0.000000
vt 1.000000 0.000000
vt 1.000000 1.000000
f 367/367 368/368 369/369
v 0.863731 0.182400 0.290000
v 0.853831 0.182400 0.299899
v 0.849731 0.182400 0.290000
vt 0.000000 0.000000
vt 1.000000 0.000000
vt 1.000000 1.000000
f 370/370 371/371 372/372
v 0.849731 0.160000 0.290000
v 0.853831 0.160000 0.280101
v 0.853831 0.182400 0.280101
v 0.849731 0.182400 0.290000
vt 0.750000 0.000000
vt 0.875000 0.000000
vt 0.875000 1.000000
vt 0.750000 1.000000
f 373/373 374/374 375/375 376/376
v 0.863731 0.160000 0.290000
v 0.853831 0.160000 0.280101
v 0.849731 0.160000 0.290000
vt 0.000000 0.000000
vt 1.000000 0.000000
vt 1.000000 1.000000
f 377/377 378/378 379/379
v 0.863731 0.182400 0.290000
v 0.849731 0.182400 0.290000
v 0.853831 0.182400 0.280101
vt 0.000000 0.000000
vt 1.000000 0.000000
vt 1.000000 1.000000
f 380/380 381/381 382/382
v 0.853831 0.160000 0.280101
v 0.863731 0.160000 0.276000
v 0.863731 0.182400 0.276000
v 0.853831 0.182400 0.280101
vt 0.875000 0.000000
vt 1.000000 0.000000
vt 1.000000 1.000000
vt 0.875000 1.000000
f 383/383 384/384 385/385 386/386
v 0.863731 0.160000 0.290000
v 0.863731 0.160000 0.276000
v 0.853831 0.160000 0.280101
vt 0.000000 0.000000
vt 1.000000 0.000000
vt 1.000000 1.000000
f 387/387 388/388 389/389
v 0.863731 0.182400 0.290000
v 0.853831 0.182400 0.280101
v 0.863731 0.182400 0.276000
vt 0.000000 0.000000
vt 1.000000 0.000000
vt 1.000000 1.000000
f 390/390 391/391 392/392
v 0.920000 0.160000 0.486000
v 0.929899 0.160000 0.490101
v 0.929899 0.182400 0.490101
v 0.920000 0.182400 0.486000
vt 0.000000 0.000000
vt 0.125000 0.000000
vt 0.125000 1.000000
vt 0.000000 1.000000
f 393/393 394/394 395/395 396/396
v 0.920000 0.160000 0.500000
v 0.929899 0.160000 0.490101
v 0.920000 0.160000 0.486000
vt 0.000000 0.000000
vt 1.000000 0.000000
vt 1.000000 1.000000
f 397/397 398/398 399/399
v 0.920000 0.182400 0.500000
v 0.920000 0.182400 0.486000
v 0.929899 0.182400 0.490101
vt 0.000000 0.000000
vt 1.000000 0.000000
vt 1.000000 1.000000
f 400/400 401/401 402/402
v 0.929899 0.160000 0.490101
v 0.934000 0.160000 0.500000
v 0.934000 0.182400 0.500000
v 0.929899 0.182400 0.490101
vt 0.125000 0.000000
vt 0.250000 0.000000
vt 0.250000 1.000000
vt 0.125000 1.000000
f 403/403 404/404 405/405 406/406
v 0.920000 0.160000 0.500000
v 0.934000 0.160000 0.500000
v 0.929899 0.160000 0.490101
vt 0.000000 0.000000
vt 1.000000 0.000000
vt 1.000000 1.000000
f 407/407 408/408 409/409
v 0.920000 0.182400 0.500000
v 0.929899 0.182400 0.490101
v 0.934000 0.182400 0.500000
vt 0.000000 0.000000
vt 1.000000 0.000000
vt 1.000000 1.000000
f 410/410 411/411 412/412
v 0.934000 0.160000 0.500000
v 0.929899 0.160000 0.509899
v 0.929899 0.182400 0.509899
v 0.934000 0.182400 0.500000
vt 0.250000 0.000000
vt 0.375000 0.000000
vt 0.375000 1.000000
vt 0.250000 1.000000
f 413/413 414/414 415/415 416/416
v 0.920000 0.160000 0.500000
v 0.929899 0.160000 0.509899
v 0.934000 0.160000 0.500000
vt 0.000000 0.000000
vt 1.000000 0.000000
vt 1.000000 1.000000
f 417/417 418/418 419/419
v 0.920000 0.182400 0.500000
v 0.934000 0.182400 0.500000
v 0.929899 0.182400 0.509899
vt 0.000000 0.000000
vt 1.000000 0.000000
vt 1.000000 1.000000
f 420/420 421/421 422/422
v 0.929899 0.160000 0.509899
v 0.920000 0.160000 0.514000
v 0.920000 0.182400 0.514000
v 0.929899 0.182400 0.509899
vt 0.375000 0.000000
vt 0.500000 0.000000
vt 0.500000 1.000000
vt 0.375000 1.000000
f 423/423 424/424 425/425 426/426
v 0.920000 0.160000 0.500000
v 0.920000 0.160000 0.514000
v 0.929899 0.160000 0.509899
vt 0.000000 0.000000
vt 1.000000 0.000000
vt 1.000000 1.000000
f 427/427 428/428 429/429
v 0.920000 0.182400 0.500000
v 0.929899 0.182400 0.509899
v 0.920000 0.182400 0.514000
vt 0.000000 0.000000
vt 1.000000 0.000000
vt 1.000000 1.000000
f 430/430 431/431 432/432
v 0.920000 0.160000 0.514000
v 0.910101 0.160000 0.509899
v 0.910101 0.182400 0.509899
v 0.920000 0.182400 0.514000
vt 0.500000 0.000000
vt 0.625000 0.000000
vt 0.625000 1.000000
vt 0.500000 1.000000
f 433/433 434/434 435/435 436/436
v 0.920000 0.160000 0.500000
v 0.910101 0.160000 0.509899
v 0.920000 0.160000 0.514000
vt 0.000000 0.000000
vt 1.000000 0.000000
vt 1.000000 1.000000
f 437/437 438/438 439/439
v 0.920000 0.182400 0.500000
v 0.920000 0.182400 0.514000
v 0.910101 0.182400 0.509899
vt 0.000000 0.000000
vt 1.000000 0.000000
vt 1.000000 1.000000
f 440/440 441/441 442/442
v 0.910101 0.160000 0.509899
v 0.906000 0.160000 0.500000
v 0.906000 0.182400 0.500000
v 0.910101 0.182400 0.509899
vt 0.625000 0.000000
vt 0.750000 0.000000
vt 0.750000 1.000000
vt 0.625000 1.000000
f 443/443 444/444 445/445 446/446
v 0.920000 0.160000 0.500000
v 0.906000 0.160000 0.500000
v 0.910101 0.160000 0.509899
vt 0.000000 0.000000
vt 1.000000 0.000000
vt 1.000000 1.000000
f 447/447 448/448 449/449
v 0.920000 0.182400 0.500000
v 0.910101 0.182400 0.509899
v 0.906000 0.182400 0.500000
vt 0.000000 0.000000
vt 1.000000 0.000000
vt 1.000000 1.000000
f 450/450 451/451 452/452
v 0.906000 0.160000 0.500000
v 0.910101 0.160000 0.490101
v 0.910101 0.182400 0.490101
v 0.906000 0.182400 0.500000
vt 0.750000 0.000000
vt 0.875000 0.000000
vt 0.875000 1.000000
vt 0.750000 1.000000
f 453/453 454/454 455/455 456/456
v 0.920000 0.160000 0.500000
v 0.910101 0.160000 0.490101
v 0.906000 0.160000 0.500000
vt 0.000000 0.000000
vt 1.000000 0.000000
vt 1.000000 1.000000
f 457/457 458/458 459/459
v 0.920000 0.182400 0.500000
v 0.906000 0.182400 0.500000
v 0.910101 0.182400 0.490101
vt 0.000000 0.000000
vt 1.000000 0.000000
vt 1.000000 1.000000
f 460/460 461/461 462/462
v 0.910101 0.160000 0.490101
v 0.920000 0.160000 0.486000
v 0.920000 0.182400 0.486000
v 0.910101 0.182400 0.490101
vt 0.875000 0.000000
vt 1.000000 0.000000
vt 1.000000 1.000000
vt 0.875000 1.000000
f 463/463 464/464 465/465 466/466
v 0.920000 0.160000 0.500000
v 0.920000 0.160000 0.486000
v 0.910101 0.160000 0.490101
vt 0.000000 0.000000
vt 1.000000 0.000000
vt 1.000000 1.000000
f 467/467 468/468 469/469
v 0.920000 0.182400 0.500000
v 0.910101 0.182400 0.490101
v 0.920000 0.182400 0.486000
vt 0.000000 0.000000
vt 1.000000 0.000000
vt 1.000000 1.000000
f 470/470 471/471 472/472
v 0.863731 0.160000 0.696000
v 0.873630 0.160000 0.700101
v 0.873630 0.182400 0.700101
v 0.863731 0.182400 0.696000
vt 0.000000 0.000000
vt 0.125000 0.000000
vt 0.125000 1.000000
vt 0.000000 1.000000
f 473/473 474/474 475/475 476/476
v 0.863731 0.160000 0.710000
v 0.873630 0.160000 0.700101
v 0.863731 0.160000 0.696000
vt 0.000000 0.000000
vt 1.000000 0.000000
vt 1.000000 1.000000
f 477/477 478/478 479/479
v 0.863731 0.182400 0.710000
v 0.863731 0.182400 0.696000
v 0.873630 0.182400 0.700101
vt 0.000000 0.000000
vt 1.000000 0.000000
vt 1.000000 1.000000
f 480/480 481/481 482/482
v 0.873630 0.160000 0.700101
v 0.877731 0.160000 0.710000
v 0.877731 0.182400 0.710000
v 0.873630 0.182400 0.700101
vt 0.125000 0.000000
vt 0.250000 0.000000
vt 0.250000 1.000000
vt 0.125000 1.000000
f 483/483 484/484 485/485 486/486
v 0.863731 0.160000 0.710000
v 0.877731 0.160000 0.710000
v 0.873630 0.160000 0.700101
vt 0.000000 0.000000
vt 1.000000 0.000000
vt 1.000000 1.000000
f 487/487 488/488 489/489
v 0.863731 0.182400 0.710000
v 0.873630 0.182400 0.700101
v 0.877731 0.182400 0.710000
vt 0.000000 0.000000
vt 1.000000 0.000000
vt 1.000000 1.000000
f 490/490 491/491 492/492
v 0.877731 0.160000 0.710000
v 0.873630 0.160000 0.719899
v 0.873630 0.182400 0.719899
v 0.877731 0.182400 0.710000
vt 0.250000 0.000000
vt 0.375000 0.000000
vt 0.375000 1.000000
vt 0.250000 1.000000
f 493/493 494/494 495/495 496/496
v 0.863731 0.160000 0.710000
v 0.873630 0.160000 0.719899
v 0.877731 0.160000 0.710000
vt 0.000000 0.000000
vt 1.000000 0.000000
vt 1.000000 1.000000
f 497/497 498/498 499/499
v 0.863731 0.182400 0.710000
v 0.877731 0.182400 0.710000
v 0.873630 0.182400 0.719899
vt 0.000000 0.000000
vt 1.000000 0.000000
vt 1.000000 1.000000
f 500/500 501/501 502/502
v 0.873630 0.160000 0.719899
v 0.863731 0.160000 0.724000
v 0.863731 0.182400 0.724000
v 0.873630 0.182400 0.719899
vt 0.375000 0.000000
vt 0.500000 0.000000
vt 0.500000 1.000000
vt 0.375000 1.000000
f 503/503 504/504 505/505 506/506
v 0.863731 0.160000 0.710000
v 0.863731 0.160000 0.724000
v 0.873630 0.160000 0.719899
vt 0.000000 0.000000
vt 1.000000 0.000000
vt 1.000000 1.000000
f 507/507 508/508 509/509
v 0.863731 0.182400 0.710000
v 0.873630 0.182400 0.719899
v 0.863731 0.182400 0.724000
vt 0.000000 0.000000
vt 1.000000 0.000000
vt 1.000000 1.000000
f 510/510 511/511 512/512
v 0.863731 0.160000 0.724000
v 0.853831 0.160000 0.719899
v 0.853831 0.182400 0.719899
v 0.863731 0.182400 0.724000
vt 0.500000 0.000000
vt 0.625000 0.000000
vt 0.625000 1.000000
vt 0.500000 1.000000
f 513/513 514/514 515/515 516/516
v 0.863731 0.160000 0.710000
v 0.853831 0.160000 0.719899
v 0.863731 0.160000 0.724000
vt 0.000000 0.000000
vt 1.000000 0.000000
vt 1.000000 1.000000
f 517/517 518/518 519/519
v 0.863731 0.182400 0.710000
v 0.863731 0.182400 0.724000
v 0.853831 0.182400 0.719899
vt 0.000000 0.000000
vt 1.000000 0.000000
vt 1.000000 1.000000
f 520/520 521/521 522/522
v 0.853831 0.160000 0.719899
v 0.849731 0.160000 0.710000
v 0.849731 0.182400 0.710000
v 0.853831 0.182400 0.719899
vt 0.625000 0.000000
vt 0.750000 0.000000
vt 0.750000 1.000000
vt 0.625000 1.000000
f 523/523 524/524 525/525 526/526
v 0.863731 0.160000 0.710000
v 0.849731 0.160000 0.710000
v 0.853831 0.160000 0.719899
vt 0.000000 0.000000
vt 1.000000 0.000000
vt 1.000000 1.000000
f 527/527 528/528 529/529
v 0.863731 0.182400 0.710000
v 0.853831 0.182400 0.719899
v 0.849731 0.182400 0.710000
vt 0.000000 0.000000
vt 1.000000 0.000000
vt 1.000000 1.000000
f 530/530 531/531 532/532
v 0.849731 0.160000 0.710000
v 0.853831 0.160000 0.700101
v 0.853831 0.182400 0.700101
v 0.849731 0.182400 0.710000
vt 0.750000 0.000000
vt 0.875000 0.000000
vt 0.875000 1.000000
vt 0.750000 1.000000
f 533/533 534/534 535/535 536/536
v 0.863731 0.160000 0.710000
v 0.853831 0.160000 0.700101
v 0.849731 0.160000 0.710000
vt 0.000000 0.000000
vt 1.000000 0.000000
vt 1.000000 1.000000
f 537/537 538/538 539/539
v 0.863731 0.182400 0.710000
v 0.849731 0.182400 0.710000
v 0.853831 0.182400 0.700101
vt 0.000000 0.000000
vt 1.000000 0.000000
vt 1.000000 1.000000
f 540/540 541/541 542/542
v 0.853831 0.160000 0.700101
v 0.863731 0.160000 0.696000
v 0.863731 0.182400 0.696000
v 0.853831 0.182400 0.700101
vt 0.875000 0.000000
vt 1.000000 0.000000
vt 1.000000 1.000000
vt 0.875000 1.000000
f 543/543 544/544 545/545 546/546
v 0.863731 0.160000 0.710000
v 0.863731 0.160000 0.696000
v 0.853831 0.160000 0.700101
vt 0.000000 0.000000
vt 1.000000 0.000000
vt 1.000000 1.000000
f 547/547 548/548 549/549
v 0.863731 0.182400 0.710000
v 0.853831 0.182400 0.700101
v 0.863731 0.182400 0.696000
vt 0.000000 0.000000
vt 1.000000 0.000000
vt 1.000000 1.000000
f 550/550 551/551 552/552
v 0.710000 0.160000 0.849731
v 0.719899 0.160000 0.853831
v 0.719899 0.182400 0.853831
v 0.710000 0.182400 0.849731
vt 0.000000 0.000000
vt 0.125000 0.000000
vt 0.125000 1.000000
vt 0.000000 1.000000
f 553/553 554/554 555/555 556/556
v 0.710000 0.160000 0.863731
v 0.719899 0.160000 0.853831
v 0.710000 0.160000 0.849731
vt 0.000000 0.000000
vt 1.000000 0.000000
vt 1.000000 1.000000
f 557/557 558/558 559/559
v 0.710000 0.182400 0.863731
v 0.710000 0.182400 0.849731
v 0.719899 0.182400 0.853831
vt 0.000000 0.000000
vt 1.000000 0.000000
vt 1.000000 1.000000
f 560/560 561/561 562/562
v 0.719899 0.160000 0.853831
v 0.724000 0.160000 0.863731
v 0.724000 0.182400 0.863731
v 0.719899 0.182400 0.853831
vt 0.125000 0.000000
vt 0.250000 0.000000
vt 0.250000 1.000000
vt 0.125000 1.000000
f 563/563 564/564 565/565 566/566
v 0.710000 0.160000 0.863731
v 0.724000 0.160000 0.863731
v 0.719899 0.160000 0.853831
vt 0.000000 0.000000
vt 1.000000 0.000000
vt 1.000000 1.000000
f 567/567 568/568 569/569
v 0.710000 0.182400 0.863731
v 0.719899 0.182400 0.853831
v 0.724000 0.182400 0.863731
vt 0.000000 0.000000
vt 1.000000 0.000000
vt 1.000000 1.000000
f 570/570 571/571 572/572
v 0.724000 0.160000 0.863731
v 0.719899 0.160000 0.873630
v 0.719899 0.182400 0.873630
v 0.724000 0.182400 0.863731
vt 0.250000 0.000000
vt 0.375000 0.000000
vt 0.375000 1.000000
vt 0.250000 1.000000
f 573/573 574/574 575/575 576/576
v 0.710000 0.160000 0.863731
v 0.719899 0.160000 0.873630
v 0.724000 0.160000 0.863731
vt 0.000000 0.000000
vt 1.000000 0.000000
vt 1.000000 1.000000
f 577/577 578/578 579/579
v 0.710000 0.182400 0.863731
v 0.724000 0.182400 0.863731
v 0.719899 0.182400 0.873630
vt 0.000000 0.000000
vt 1.000000 0.000000
vt 1.000000 1.000000
f 580/580 581/581 582/582
v 0.719899 0.160000 0.873630
v 0.710000 0.160000 0.877731
v 0.710000 0.182400 0.877731
v 0.719899 0.182400 0.873630
vt 0.375000 0.000000
vt 0.500000 0.000000
vt 0.500000 1.000000
vt 0.375000 1.000000
f 583/583 584/584 585/585 586/586
v 0.710000 0.160000 0.863731
v 0.710000 0.160000 0.877731
v 0.719899 0.160000 0.873630
vt 0.000000 0.000000
vt 1.000000 0.000000
vt 1.000000 1.000000
f 587/587 588/588 589/589
v 0.710000 0.182400 0.863731
v 0.719899 0.182400 0.873630
v 0.710000 0.182400 0.877731
vt 0.000000 0.000000
vt 1.000000 0.000000
vt 1.000000 1.000000
f 590/590 591/591 592/592
v 0.710000 0.160000 0.877731
v 0.700101 0.160000 0.873630
v 0.700101 0.182400 0.873630
v 0.710000 0.182400 0.877731
vt 0.500000 0.000000
vt 0.625000 0.000000
vt 0.625000 1.000000
vt 0.500000 1.000000
f 593/593 594/594 595/595 596/596
v 0.710000 0.160000 0.863731
v 0.700101 0.160000 0.873630
v 0.710000 0.160000 0.877731
vt 0.000000 0.000000
vt 1.000000 0.000000
vt 1.000000 1.000000
f 597/597 598/598 599/599
v 0.710000 0.182400 0.863731
v 0.710000 0.182400 0.877731
v 0.700101 0.182400 0.873630
vt 0.000000 0.000000
vt 1.000000 0.000000
vt 1.000000 1.000000
f 600/600 601/601 602/602
v 0.700101 0.160000 0.873630
v 0.696000 0.160000 0.863731
v 0.696000 0.182400 0.863731
v 0.700101 0.182400 0.873630
vt 0.625000 0.000000
vt 0.750000 0.000000
vt 0.750000 1.000000
vt 0.625000 1.000000
f 603/603 604/604 605/605 606/606
v 0.710000 0.160000 0.863731
v 0.696000 0.160000 0.863731
v 0.700101 0.160000 0.873630
vt 0.000000 0.000000
vt 1.000000 0.000000
vt 1.000000 1.000000
f 607/607 608/608 609/609
v 0.710000 0.182400 0.863731
v 0.700101 0.182400 0.873630
v 0.696000 0.182400 0.863731
vt 0.000000 0.000000
vt 1.000000 0.000000
vt 1.000000 1.000000
f 610/610 611/611 612/612
v 0.696000 0.160000 0.863731
v 0.700101 0.160000 0.853831
v 0.700101 0.182400 0.853831
v 0.696000 0.182400 0.863731
vt 0.750000 0.000000
vt 0.875000 0.000000
vt 0.875000 1.000000
vt 0.750000 1.000000
f 613/613 614/614 615/615 616/616
v 0.710000 0.160000 0.863731
v 0.700101 0.160000 0.853831
v 0.696000 0.160000 0.863731
vt 0.000000 0.000000
vt 1.000000 0.000000
vt 1.000000 1.000000
f 617/617 618/618 619/619
v 0.710000 0.182400 0.863731
v 0.696000 0.182400 0.863731
v 0.700101 0.182400 0.853831
vt 0.000000 0.000000
vt 1.000000 0.000000
vt 1.000000 1.000000
f 620/620 621/621 622/622
v 0.700101 0.160000 0.853831
v 0.710000 0.160000 0.849731
v 0.710000 0.182400 0.849731
v 0.700101 0.182400 0.853831
vt 0.875000 0.000000
vt 1.000000 0.000000
vt 1.000000 1.000000
vt 0.875000 1.000000
f 623/623 624/624 625/625 626/626
v 0.710000 0.160000 0.863731
v 0.710000 0.160000 0.849731
v 0.700101 0.160000 0.853831
vt 0.000000 0.000000
vt 1.000000 0.000000
vt 1.000000 1.000000
f 627/627 628/628 629/629
v 0.710000 0.182400 0.863731
v 0.700101 0.182400 0.853831
v 0.710000 0.182400 0.849731
vt 0.000000 0.000000
vt 1.000000 0.000000
vt 1.000000 1.000000
f 630/630 631/631 632/632
v 0.500000 0.160000 0.906000
v 0.509899 0.160000 0.910101
v 0.509899 0.182400 0.910101
v 0.500000 0.182400 0.906000
vt 0.000000 0.000000
vt 0.125000 0.000000
vt 0.125000 1.000000
vt 0.000000 1.000000
f 633/633 634/634 635/635 636/636
v 0.500000 0.160000 0.920000
v 0.509899 0.160000 0.910101
v 0.500000 0.160000 0.906000
vt 0.000000 0.000000
vt 1.000000 0.000000
vt 1.000000 1.000000
f 637/637 638/638 639/639
v 0.500000 0.182400 0.920000
v 0.500000 0.182400 0.906000
v 0.509899 0.182400 0.910101
vt 0.000000 0.000000
vt 1.000000 0.000000
vt 1.000000 1.000000
f 640/640 641/641 642/642
v 0.509899 0.160000 0.910101
v 0.514000 0.160000 0.920000
v 0.514000 0.182400 0.920000
v 0.509899 0.182400 0.910101
vt 0.125000 0.000000
vt 0.250000 0.000000
vt 0.250000 1.000000
vt 0.125000 1.000000
f 643/643 644/644 645/645 646/646
v 0.500000 0.160000 0.920000
v 0.514000 0.160000 0.920000
v 0.509899 0.160000 0.910101
vt 0.000000 0.000000
vt 1.000000 0.000000
vt 1.000000 1.000000
f 647/647 648/648 649/649
v 0.500000 0.182400 0.920000
v 0.509899 0.182400 0.910101
v 0.514000 0.182400 0.920000
vt 0.000000 0.000000
vt 1.000000 0.000000
vt 1.000000 1.000000
f 650/650 651/651 652/652
v 0.514000 0.160000 0.920000
v 0.509899 0.160000 0.929899
v 0.509899 0.182400 0.929899
v 0.514000 0.182400 0.920000
vt 0.250000 0.000000
vt 0.375000 0.000000
vt 0.375000 1.000000
vt 0.250000 1.000000
f 653/653 654/654 655/655 656/656
v 0.500000 0.160000 0.920000
v 0.509899 0.160000 0.929899
v 0.514000 0.160000 0.920000
vt 0.000000 0.000000
vt 1.000000 0.000000
vt 1.000000 1.000000
f 657/657 658/658 659/659
v 0.500000 0.182400 0.920000
v 0.514000 0.182400 0.920000
v 0.509899 0.182400 0.929899
vt 0.000000 0.000000
vt 1.000000 0.000000
vt 1.000000 1.000000
f 660/660 661/661 662/662
v 0.509899 0.160000 0.929899
v 0.500000 0.160000 0.934000
v 0.500000 0.182400 0.934000
v 0.509899 0.182400 0.929899
vt 0.375000 0.000000
vt 0.500000 0.000000
vt 0.500000 1.000000
vt 0.375000 1.000000
f 663/663 664/664 665/665 666/666
v 0.500000 0.160000 0.920000
v 0.500000 0.160000 0.934000
v 0.509899 0.160000 0.929899
vt 0.000000 0.000000
vt 1.000000 0.000000
vt 1.000000 1.000000
f 667/667 668/668 669/669
v 0.500000 0.182400 0.920000
v 0.509899 0.182400 0.929899
v 0.500000 0.182400 0.934000
vt 0.000000 0.000000
vt 1.000000 0.000000
vt 1.000000 1.000000
f 670/670 671/671 672/672
v 0.500000 0.160000 0.934000
v 0.490101 0.160000 0.929899
v 0.490101 0.182400 0.929899
v 0.500000 0.182400 0.934000
vt 0.500000 0.000000
vt 0.625000 0.000000
vt 0.625000 1.000000
vt 0.500000 1.000000
f 673/673 674/674 675/675 676/676
v 0.500000 0.160000 0.920000
v 0.490101 0.160000 0.929899
v 0.500000 0.160000 0.934000
vt 0.000000 0.000000
vt 1.000000 0.000000
vt 1.000000 1.000000
f 677/677 678/678 679/679
v 0.500000 0.182400 0.920000
v 0.500000 0.182400 0.934000
v 0.490101 0.182400 0.929899
vt 0.000000 0.000000
vt 1.000000 0.000000
vt 1.000000 1.000000
f 680/680 681/681 682/682
v 0.490101 0.160000 0.929899
v 0.486000 0.160000 0.920000
v 0.486000 0.182400 0.920000
v 0.490101 0.182400 0.929899
vt 0.625000 0.000000
vt 0.750000 0.000000
vt 0.750000 1.000000
vt 0.625000 1.000000
f 683/683 684/684 685/685 686/686
v 0.500000 0.160000 0.920000
v 0.486000 0.160000 0.920000
v 0.490101 0.160000 0.929899
vt 0.000000 0.000000
vt 1.000000 0.000000
vt 1.000000 1.000000
f 687/687 688/688 689/689
v 0.500000 0.182400 0.920000
v 0.490101 0.182400 0.929899
v 0.486000 0.182400 0.920000
vt 0.000000 0.000000
vt 1.000000 0.000000
vt 1.000000 1.000000
f 690/690 691/691 692/692
v 0.486000 0.160000 0.920000
v 0.490101 0.160000 0.910101
v 0.490101 0.182400 0.910101
v 0.486000 0.182400 0.920000
vt 0.750000 0.000000
vt 0.875000 0.000000
vt 0.875000 1.000000
vt 0.750000 1.000000
f 693/693 694/694 695/695 696/696
v 0.500000 0.160000 0.920000
v 0.490101 0.160000 0.910101
v 0.486000 0.160000 0.920000
vt 0.000000 0.000000
vt 1.000000 0.000000
vt 1.000000 1.000000
f 697/697 698/698 699/699
v 0.500000 0.182400 0.920000
v 0.486000 0.182400 0.920000
v 0.490101 0.182400 0.910101
vt 0.000000 0.000000
vt 1.000000 0.000000
vt 1.000000 1.000000
f 700/700 701/701 702/702
v 0.490101 0.160000 0.910101
v 0.500000 0.160000 0.906000
v 0.500000 0.182400 0.906000
v 0.490101 0.182400 0.910101
vt 0.875000 0.000000
vt 1.000000 0.000000
vt 1.000000 1.000000
vt 0.875000 1.000000
f 703/703 704/704 705/705 706/706
v 0.500000 0.160000 0.920000
v 0.500000 0.160000 0.906000
v 0.490101 0.160000 0.910101
vt 0.000000 0.000000
vt 1.000000 0.000000
vt 1.000000 1.000000
f 707/707 708/708 709/709
v 0.500000 0.182400 0.920000
v 0.490101 0.182400 0.910101
v 0.500000 0.182400 0.906000
vt 0.000000 0.000000
vt 1.000000 0.000000
vt 1.000000 1.000000
f 710/710 711/711 712/712
v 0.290000 0.160000 0.849731
v 0.299899 0.160000 0.853831
v 0.299899 0.182400 0.853831
v 0.290000 0.182400 0.849731
vt 0.000000 0.000000
vt 0.125000 0.000000
vt 0.125000 1.000000
vt 0.000000 1.000000
f 713/713 714/714 715/715 716/716
v 0.290000 0.160000 0.863731
v 0.299899 0.160000 0.853831
v 0.290000 0.160000 0.849731
vt 0.000000 0.000000
vt 1.000000 0.000000
vt 1.000000 1.000000
f 717/717 718/718 719/719
v 0.290000 0.182400 0.863731
v 0.290000 0.182400 0.849731
v 0.299899 0.182400 0.853831
vt 0.000000 0.000000
vt 1.000000 0.000000
vt 1.000000 1.000000
f 720/720 721/721 722/722
v 0.299899 0.160000 0.853831
v 0.304000 0.160000 0.863731
v 0.304000 0.182400 0.863731
v 0.299899 0.182400 0.853831
vt 0.125000 0.000000
vt 0.250000 0.000000
vt 0.250000 1.000000
vt 0.125000 1.000000
f 723/723 724/724 725/725 726/726
v 0.290000 0.160000 0.863731
v 0.304000 0.160000 0.863731
v 0.299899 0.160000 0.853831
vt 0.000000 0.000000
vt 1.000000 0.000000
vt 1.000000 1.000000
f 727/727 728/728 729/729
v 0.290000 0.182400 0.863731
v 0.299899 0.182400 0.853831
v 0.304000 0.182400 0.863731
vt 0.000000 0.000000
vt 1.000000 0.000000
vt 1.000000 1.000000
f 730/730 731/731 732/732
v 0.304000 0.160000 0.863731
v 0.299899 0.160000 0.873630
v 0.299899 0.182400 0.873630
v 0.304000 0.182400 0.863731
vt 0.250000 0.000000
vt 0.375000 0.000000
vt 0.375000 1.000000
vt 0.250000 1.000000
f 733/733 734/734 735/735 736/736
v 0.290000 0.160000 0.863731
v 0.299899 0.160000 0.873630
v 0.304000 0.160000 0.863731
vt 0.000000 0.000000
vt 1.000000 0.000000
vt 1.000000 1.000000
f 737/737 738/738 739/739
v 0.290000 0.182400 0.863731
v 0.304000 0.182400 0.863731
v 0.299899 0.182400 0.873630
vt 0.000000 0.000000
vt 1.000000 0.000000
vt 1.000000 1.000000
f 740/740 741/741 742/742
v 0.299899 0.160000 0.873630
v 0.290000 0.160000 0.877731
v 0.290000 0.182400 0.877731
v 0.299899 0.182400 0.873630
vt 0.375000 0.000000
vt 0.500000 0.000000
vt 0.500000 1.000000
vt 0.375000 1.000000
f 743/743 744/744 745/745 746/746
v 0.290000 0.160000 0.863731
v 0.290000 0.160000 0.877731
v 0.299899 0.160000 0.873630
vt 0.000000 0.000000
vt 1.000000 0.000000
vt 1.000000 1.000000
f 747/747 748/748 749/749
v 0.290000 0.182400 0.863731
v 0.299899 0.182400 0.873630
v 0.290000 0.182400 0.877731
vt 0.000000 0.000000
vt 1.000000 0.000000
vt 1.000000 1.000000
f 750/750 751/751 752/752
v 0.290000 0.160000 0.877731
v 0.280101 0.160000 0.873630
v 0.280101 0.182400 0.873630
v 0.290000 0.182400 0.877731
vt 0.500000 0.000000
vt 0.625000 0.000000
vt 0.625000 1.000000
vt 0.500000 1.000000
f 753/753 754/754 755/755 756/756
v 0.290000 0.160000 0.863731
v 0.280101 0.160000 0.873630
v 0.290000 0.160000 0.877731
vt 0.000000 0.000000
vt 1.000000 0.000000
vt 1.000000 1.000000
f 757/757 758/758 759/759
v 0.290000 0.182400 0.863731
v 0.290000 0.182400 0.877731
v 0.280101 0.182400 0.873630
vt 0.000000 0.000000
vt 1.000000 0.000000
vt 1.000000 1.000000
f 760/760 761/761 762/762
v 0.280101 0.160000 0.873630
v 0.276000 0.160000 0.863731
v 0.276000 0.182400 0.863731
v 0.280101 0.182400 0.873630
vt 0.625000 0.000000
vt 0.750000 0.000000
vt 0.750000 1.000000
vt 0.625000 1.000000
f 763/763 764/764 765/765 766/766
v 0.290000 0.160000 0.863731
v 0.276000 0.160000 0.863731
v 0.280101 0.160000 0.873630
vt 0.000000 0.000000
vt 1.000000 0.000000
vt 1.000000 1.000000
f 767/767 768/768 769/769
v 0.290000 0.182400 0.863731
v 0.280101 0.182400 0.873630
v 0.276000 0.182400 0.863731
vt 0.000000 0.000000
vt 1.000000 0.000000
vt 1.000000 1.000000
f 770/770 771/771 772/772
v 0.276000 0.160000 0.863731
v 0.280101 0.160000 0.853831
v 0.280101 0.182400 0.853831
v 0.276000 0.182400 0.863731
vt 0.750000 0.000000
vt 0.875000 0.000000
vt 0.875000 1.000000
vt 0.750000 1.000000
f 773/773 774/774 775/775 776/776
v 0.290000 0.160000 0.863731
v 0.280101 0.160000 0.853831
v 0.276000 0.160000 0.863731
vt 0.000000 0.000000
vt 1.000000 0.000000
vt 1.000000 1.000000
f 777/777 778/778 779/779
v 0.290000 0.182400 0.863731
v 0.276000 0.182400 0.863731
v 0.280101 0.182400 0.853831
vt 0.000000 0.000000
vt 1.000000 0.000000
vt 1.000000 1.000000
f 780/780 781/781 782/782
v 0.280101 0.160000 0.853831
v 0.290000 0.160000 0.849731
v 0.290000 0.182400 0.849731
v 0.280101 0.182400 0.853831
vt 0.875000 0.000000
vt 1.000000 0.000000
vt 1.000000 1.000000
vt 0.875000 1.000000
f 783/783 784/784 785/785 786/786
v 0.290000 0.160000 0.863731
v 0.290000 0.160000 0.849731
v 0.280101 0.160000 0.853831
vt 0.000000 0.000000
vt 1.000000 0.000000
vt 1.000000 1.000000
f 787/787 788/788 789/789
v 0.290000 0.182400 0.863731
v 0.280101 0.182400 0.853831
v 0.290000 0.182400 0.849731
vt 0.000000 0.000000
vt 1.000000 0.000000
vt 1.000000 1.000000
f 790/790 791/791 792/792
v 0.136269 0.160000 0.696000
v 0.146169 0.160000 0.700101
v 0.146169 0.182400 0.700101
v 0.136269 0.182400 0.696000
vt 0.000000 0.000000
vt 0.125000 0.000000
vt 0.125000 1.000000
vt 0.000000 1.000000
f 793/793 794/794 795/795 796/796
v 0.136269 0.160000 0.710000
v 0.146169 0.160000 0.700101
v 0.136269 0.160000 0.696000
vt 0.000000 0.000000
vt 1.000000 0.000000
vt 1.000000 1.000000
f 797/797 798/798 799/799
v 0.136269 0.182400 0.710000
v 0.136269 0.182400 0.696000
v 0.146169 0.182400 0.700101
vt 0.000000 0.000000
vt 1.000000 0.000000
vt 1.000000 1.000000
f 800/800 801/801 802/802
v 0.146169 0.160000 0.700101
v 0.150269 0.160000 0.710000
v 0.150269 0.182400 0.710000
v 0.146169 0.182400 0.700101
vt 0.125000 0.000000
vt 0.250000 0.000000
vt 0.250000 1.000000
vt 0.125000 1.000000
f 803/803 804/804 805/805 806/806
v 0.136269 0.160000 0.710000
v 0.150269 0.160000 0.710000
v 0.146169 0.160000 0.700101
vt 0.000000 0.000000
vt 1.000000 0.000000
vt 1.000000 1.000000
f 807/807 808/808 809/809
v 0.136269 0.182400 0.710000
v 0.146169 0.182400 0.700101
v 0.150269 0.182400 0.710000
vt 0.000000 0.000000
vt 1.000000 0.000000
vt 1.000000 1.000000
f 810/810 811/811 812/812
v 0.150269 0.160000 0.710000
v 0.146169 0.160000 0.719899
v 0.146169 0.182400 0.719899
v 0.150269 0.182400 0.710000
vt 0.250000 0.000000
vt 0.375000 0.000000
vt 0.375000 1.000000
vt 0.250000 1.000000
f 813/813 814/814 815/815 816/816
v 0.136269 0.160000 0.710000
v 0.146169 0.160000 0.719899
v 0.150269 0.160000 0.710000
vt 0.000000 0.000000
vt 1.000000 0.000000
vt 1.000000 1.000000
f 817/817 818/818 819/819
v 0.136269 0.182400 0.710000
v 0.150269 0.182400 0.710000
v 0.146169 0.182400 0.719899
vt 0.000000 0.000000
vt 1.000000 0.000000
vt 1.000000 1.000000
f 820/820 821/821 822/822
v 0.146169 0.160000 0.719899
v 0.136269 0.160000 0.724000
v 0.136269 0.182400 0.724000
v 0.146169 0.182400 0.719899
vt 0.375000 0.000000
vt 0.500000 0.000000
vt 0.500000 1.000000
vt 0.375000 1.000000
f 823/823 824/824 825/825 826/826
v 0.136269 0.160000 0.710000
v 0.136269 0.160000 0.724000
v 0.146169 0.160000 0.719899
vt 0.000000 0.000000
vt 1.000000 0.000000
vt 1.000000 1.000000
f 827/827 828/828 829/829
v 0.136269 0.182400 0.710000
v 0.146169 0.182400 0.719899
v 0.136269 0.182400 0.724000
vt 0.000000 0.000000
vt 1.000000 0.000000
vt 1.000000 1.000000
f 830/830 831/831 832/832
v 0.136269 0.160000 0.724000
v 0.126370 0.160000 0.719899
v 0.126370 0.182400 0.719899
v 0.136269 0.182400 0.724000
vt 0.500000 0.000000
vt 0.625000 0.000000
vt 0.625000 1.000000
vt 0.500000 1.000000
f 833/833 834/834 835/835 836/836
v 0.136269 0.160000 0.710000
v 0.126370 0.160000 0.719899
v 0.136269 0.160000 0.724000
vt 0.000000 0.000000
vt 1.000000 0.000000
vt 1.000000 1.000000
f 837/837 838/838 839/839
v 0.136269 0.182400 0.710000
v 0.136269 0.182400 0.724000
v 0.126370 0.182400 0.719899
vt 0.000000 0.000000
vt 1.000000 0.000000
vt 1.000000 1.000000
f 840/840 841/841 842/842
v 0.126370 0.160000 0.719899
v 0.122269 0.160000 0.710000
v 0.122269 0.182400 0.710000
v 0.126370 0.182400 0.719899
vt 0.625000 0.000000
vt 0.750000 0.000000
vt 0.750000 1.000000
vt 0.625000 1.000000
f 843/843 844/844 845/845 846/846
v 0.136269 0.160000 0.710000
v 0.122269 0.160000 0.710000
v 0.126370 0.160000 0.719899
vt 0.000000 0.000000
vt 1.000000 0.000000
vt 1.000000 1.000000
f 847/847 848/848 849/849
v 0.136269 0.182400 0.710000
v 0.126370 0.182400 0.719899
v 0.122269 0.182400 0.710000
vt 0.000000 0.000000
vt 1.000000 0.000000
vt 1.000000 1.000000
f 850/850 851/851 852/852
v 0.122269 0.160000 0.710000
v 0.126370 0.160000 0.700101
v 0.126370 0.182400 0.700101
v 0.122269 0.182400 0.710000
vt 0.750000 0.000000
vt 0.875000 0.000000
vt 0.875000 1.000000
vt 0.750000 1.000000
f 853/853 854/854 855/855 856/856
v 0.136269 0.160000 0.710000
v 0.126370 0.160000 0.700101
v 0.122269 0.160000 0.710000
vt 0.000000 0.000000
vt 1.000000 0.000000
vt 1.000000 1.000000
f 857/857 858/858 859/859
v 0.136269 0.182400 0.710000
v 0.122269 0.182400 0.710000
v 0.126370 0.182400 0.700101
vt 0.000000 0.000000
vt 1.000000 0.000000
vt 1.000000 1.000000
f 860/860 861/861 862/862
v 0.126370 0.160000 0.700101
v 0.136269 0.160000 0.696000
v 0.136269 0.182400 0.696000
v 0.126370 0.182400 0.700101
vt 0.875000 0.000000
vt 1.000000 0.000000
vt 1.000000 1.000000
vt 0.875000 1.000000
f 863/863 864/864 865/865 866/866
v 0.136269 0.160000 0.710000
v 0.136269 0.160000 0.696000
v 0.126370 0.160000 0.700101
vt 0.000000 0.000000
vt 1.000000 0.000000
vt 1.000000 1.000000
f 867/867 868/868 869/869
v 0.136269 0.182400 0.710000
v 0.126370 0.182400 0.700101
v 0.136269 0.182400 0.696000
vt 0.000000 0.000000
vt 1.000000 0.000000
vt 1.000000 1.000000
f 870/870 871/871 872/872
v 0.080000 0.160000 0.486000
v 0.089899 0.160000 0.490101
v 0.089899 0.182400 0.490101
v 0.080000 0.182400 0.486000
vt 0.000000 0.000000
vt 0.125000 0.000000
vt 0.125000 1.000000
vt 0.000000 1.000000
f 873/873 874/874 875/875 876/876
v 0.080000 0.160000 0.500000
v 0.089899 0.160000 0.490101
v 0.080000 0.160000 0.486000
vt 0.000000 0.000000
vt 1.000000 0.000000
vt 1.000000 1.000000
f 877/877 878/878 879/879
v 0.080000 0.182400 0.500000
v 0.080000 0.182400 0.486000
v 0.089899 0.182400 0.490101
vt 0.000000 0.000000
vt 1.000000 0.000000
vt 1.000000 1.000000
f 880/880 881/881 882/882
v 0.089899 0.160000 0.490101
v 0.094000 0.160000 0.500000
v 0.094000 0.182400 0.500000
v 0.089899 0.182400 0.490101
vt 0.125000 0.000000
vt 0.250000 0.000000
vt 0.250000 1.000000
vt 0.125000 1.000000
f 883/883 884/884 885/885 886/886
v 0.080000 0.160000 0.500000
v 0.094000 0.160000 0.500000
v 0.089899 0.160000 0.490101
vt 0.000000 0.000000
vt 1.000000 0.000000
vt 1.000000 1.000000
f 887/887 888/888 889/889
v 0.080000 0.182400 0.500000
v 0.089899 0.182400 0.490101
v 0.094000 0.182400 0.500000
vt 0.000000 0.000000
vt 1.000000 0.000000
vt 1.000000 1.000000
f 890/890 891/891 892/892
v 0.094000 0.160000 0.500000
v 0.089899 0.160000 0.509899
v 0.089899 0.182400 0.509899
v 0.094000 0.182400 0.500000
vt 0.250000 0.000000
vt 0.375000 0.000000
vt 0.375000 1.000000
vt 0.250000 1.000000
f 893/893 894/894 895/895 896/896
v 0.080000 0.160000 0.500000
v 0.089899 0.160000 0.509899
v 0.094000 0.160000 0.500000
vt 0.000000 0.000000
vt 1.000000 0.000000
vt 1.000000 1.000000
f 897/897 898/898 899/899
v 0.080000 0.182400 0.500000
v 0.094000 0.182400 0.500000
v 0.089899 0.182400 0.509899
vt 0.000000 0.000000
vt 1.000000 0.000000
vt 1.000000 1.000000
f 900/900 901/901 902/902
v 0.089899 0.160000 0.509899
v 0.080000 0.160000 0.514000
v 0.080000 0.182400 0.514000
v 0.089899 0.182400 0.509899
vt 0.375000 0.000000
vt 0.500000 0.000000
vt 0.500000 1.000000
vt 0.375000 1.000000
f 903/903 904/904 905/905 906/906
v 0.080000 0.160000 0.500000
v 0.080000 0.160000 0.514000
v 0.089899 0.160000 0.509899
vt 0.000000 0.000000
vt 1.000000 0.000000
vt 1.000000 1.000000
f 907/907 908/908 909/909
v 0.080000 0.182400 0.500000
v 0.089899 0.182400 0.509899
v 0.080000 0.182400 0.514000
vt 0.000000 0.000000
vt 1.000000 0.000000
vt 1.000000 1.000000
f 910/910 911/911 912/912
v 0.080000 0.160000 0.514000
v 0.070101 0.160000 0.509899
v 0.070101 0.182400 0.509899
v 0.080000 0.182400 0.514000
vt 0.500000 0.000000
vt 0.625000 0.000000
vt 0.625000 1.000000
vt 0.500000 1.000000
f 913/913 914/914 915/915 916/916
v 0.080000 0.160000 0.500000
v 0.070101 0.160000 0.509899
v 0.080000 0.160000 0.514000
vt 0.000000 0.000000
vt 1.000000 0.000000
vt 1.000000 1.000000
f 917/917 918/918 919/919
v 0.080000 0.182400 0.500000
v 0.080000 0.182400 0.514000
v 0.070101 0.182400 0.509899
vt 0.000000 0.000000
vt 1.000000 0.000000
vt 1.000000 1.000000
f 920/920 921/921 922/922
v 0.070101 0.160000 0.509899
v 0.066000 0.160000 0.500000
v 0.066000 0.182400 0.500000
v 0.070101 0.182400 0.509899
vt 0.625000 0.000000
vt 0.750000 0.000000
vt 0.750000 1.000000
vt 0.625000 1.000000
f 923/923 924/924 925/925 926/926
v 0.080000 0.160000 0.500000
v 0.066000 0.160000 0.500000
v 0.070101 0.160000 0.509899
vt 0.000000 0.000000
vt 1.000000 0.000000
vt 1.000000 1.000000
f 927/927 928/928 929/929
v 0.080000 0.182400 0.500000
v 0.070101 0.182400 0.509899
v 0.066000 0.182400 0.500000
vt 0.000000 0.000000
vt 1.000000 0.000000
vt 1.000000 1.000000
f 930/930 931/931 932/932
v 0.066000 0.160000 0.500000
v 0.070101 0.160000 0.490101
v 0.070101 0.182400 0.490101
v 0.066000 0.182400 0.500000
vt 0.750000 0.000000
vt 0.875000 0.000000
vt 0.875000 1.000000
vt 0.750000 1.000000
f 933/933 934/934 935/935 936/936
v 0.080000 0.160000 0.500000
v 0.070101 0.160000 0.490101
v 0.066000 0.160000 0.500000
vt 0.000000 0.000000
vt 1.000000 0.000000
vt 1.000000 1.000000
f 937/937 938/938 939/939
v 0.080000 0.182400 0.500000
v 0.066000 0.182400 0.500000
v 0.070101 0.182400 0.490101
vt 0.000000 0.000000
vt 1.000000 0.000000
vt 1.000000 1.000000
f 940/940 941/941 942/942
v 0.070101 0.160000 0.490101
v 0.080000 0.160000 0.486000
v 0.080000 0.182400 0.486000
v 0.070101 0.182400 0.490101
vt 0.875000 0.000000
vt 1.000000 0.000000
vt 1.000000 1.000000
vt 0.875000 1.000000
f 943/943 944/944 945/945 946/946
v 0.080000 0.160000 0.500000
v 0.080000 0.160000 0.486000
v 0.070101 0.160000 0.490101
vt 0.000000 0.000000
vt 1.000000 0.000000
vt 1.000000 1.000000
f 947/947 948/948 949/949
v 0.080000 0.182400 0.500000
v 0.070101 0.182400 0.490101
v 0.080000 0.182400 0.486000
vt 0.000000 0.000000
vt 1.000000 0.000000
vt 1.000000 1.000000
f 950/950 951/951 952/952
v 0.136269 0.160000 0.276000
v 0.146169 0.160000 0.280101
v 0.146169 0.182400 0.280101
v 0.136269 0.182400 0.276000
vt 0.000000 0.000000
vt 0.125000 0.000000
vt 0.125000 1.000000
vt 0.000000 1.000000
f 953/953 954/954 955/955 956/956
v 0.136269 0.160000 0.290000
v 0.146169 0.160000 0.280101
v 0.136269 0.160000 0.276000
vt 0.000000 0.000000
vt 1.000000 0.000000
vt 1.000000 1.000000
f 957/957 958/958 959/959
v 0.136269 0.182400 0.290000
v 0.136269 0.182400 0.276000
v 0.146169 0.182400 0.280101
vt 0.000000 0.000000
vt 1.000000 0.000000
vt 1.000000 1.000000
f 960/960 961/961 962/962
v 0.146169 0.160000 0.280101
v 0.150269 0.160000 0.290000
v 0.150269 0.182400 0.290000
v 0.146169 0.182400 0.280101
vt 0.125000 0.000000
vt 0.250000 0.000000
vt 0.250000 1.000000
vt 0.125000 1.000000
f 963/963 964/964 965/965 966/966
v 0.136269 0.160000 0.290000
v 0.150269 0.160000 0.290000
v 0.146169 0.160000 0.280101
vt 0.000000 0.000000
vt 1.000000 0.000000
vt 1.000000 1.000000
f 967/967 968/968 969/969
v 0.136269 0.182400 0.290000
v 0.146169 0.182400 0.280101
v 0.150269 0.182400 0.290000
vt 0.000000 0.000000
vt 1.000000 0.000000
vt 1.000000 1.000000
f 970/970 971/971 972/972
v 0.150269 0.160000 0.290000
v 0.146169 0.160000 0.299899
v 0.146169 0.182400 0.299899
v 0.150269 0.182400 0.290000
vt 0.250000 0.000000
vt 0.375000 0.000000
vt 0.375000 1.000000
vt 0.250000 1.000000
f 973/973 974/974 975/975 976/976
v 0.136269 0.160000 0.290000
v 0.146169 0.160000 0.299899
v 0.150269 0.160000 0.290000
vt 0.000000 0.000000
vt 1.000000 0.000000
vt 1.000000 1.000000
f 977/977 978/978 979/979
v 0.136269 0.182400 0.290000
v 0.150269 0.182400 0.290000
v 0.146169 0.182400 0.299899
vt 0.000000 0.000000
vt 1.000000 0.000000
vt 1.000000 1.000000
f 980/980 981/981 982/982
v 0.146169 0.160000 0.299899
v 0.136269 0.160000 0.304000
v 0.136269 0.182400 0.304000
v 0.146169 0.182400 0.299899
vt 0.375000 0.000000
vt 0.500000 0.000000
vt 0.500000 1.000000
vt 0.375000 1.000000
f 983/983 984/984 985/985 986/986
v 0.136269 0.160000 0.290000
v 0.136269 0.160000 0.304000
v 0.146169 0.160000 0.299899
vt 0.000000 0.000000
vt 1.000000 0.000000
vt 1.000000 1.000000
f 987/987 988/988 989/989
v 0.136269 0.182400 0.290000
v 0.146169 0.182400 0.299899
v 0.136269 0.182400 0.304000
vt 0.000000 0.000000
vt 1.000000 0.000000
vt 1.000000 1.000000
f 990/990 991/991 992/992
v 0.136269 0.160000 0.304000
v 0.126370 0.160000 0.299899
v 0.126370 0.182400 0.299899
v 0.136269 0.182400 0.304000
vt 0.500000 0.000000
vt 0.625000 0.000000
vt 0.625000 1.000000
vt 0.500000 1.000000
f 993/993 994/994 995/995 996/996
v 0.136269 0.160000 0.290000
v 0.126370 0.160000 0.299899
v 0.136269 0.160000 0.304000
vt 0.000000 0.000000
vt 1.000000 0.000000
vt 1.000000 1.000000
f 997/997 998/998 999/999
v 0.136269 0.182400 0.290000
v 0.136269 0.182400 0.304000
v 0.126370 0.182400 0.299899
vt 0.000000 0.000000
vt 1.000000 0.000000
vt 1.000000 1.000000
f 1000/1000 1001/1001 1002/1002
v 0.126370 0.160000 0.299899
v 0.122269 0.160000 0.290000
v 0.122269 0.182400 0.290000
v 0.126370 0.182400 0.299899
vt 0.625000 0.000000
vt 0.750000 0.000000
vt 0.750000 1.000000
vt 0.625000 1.000000
f 1003/1003 1004/1004 1005/1005 1006/1006
v 0.136269 0.160000 0.290000
v 0.122269 0.160000 0.290000
v 0.126370 0.160000 0.299899
vt 0.000000 0.000000
vt 1.000000 0.000000
vt 1.000000 1.000000
f 1007/1007 1008/1008 1009/1009
v 0.136269 0.182400 0.290000
v 0.126370 0.182400 0.299899
v 0.122269 0.182400 0.290000
vt 0.000000 0.000000
vt 1.000000 0.000000
vt 1.000000 1.000000
f 1010/1010 1011/1011 1012/1012
v 0.122269 0.160000 0.290000
v 0.126370 0.160000 0.280101
v 0.126370 0.182400 0.280101
v 0.122269 0.182400 0.290000
vt 0.750000 0.000000
vt 0.875000 0.000000
vt 0.875000 1.000000
vt 0.750000 1.000000
f 1013/1013 1014/1014 1015/1015 1016/1016
v 0.136269 0.160000 0.290000
v 0.126370 0.160000 0.280101
v 0.122269 0.160000 0.290000
vt 0.000000 0.000000
vt 1.000000 0.000000
vt 1.000000 1.000000
f 1017/1017 1018/1018 1019/1019
v 0.136269 0.182400 0.290000
v 0.122269 0.182400 0.290000
v 0.126370 0.182400 0.280101
vt 0.000000 0.000000
vt 1.000000 0.000000
vt 1.000000 1.000000
f 1020/1020 1021/1021 1022/1022
v 0.126370 0.160000 0.280101
v 0.136269 0.160000 0.276000
v 0.136269 0.182400 0.276000
v 0.126370 0.182400 0.280101
vt 0.875000 0.000000
vt 1.000000 0.000000
vt 1.000000 1.000000
vt 0.875000 1.000000
f 1023/1023 1024/1024 1025/1025 1026/1026
v 0.136269 0.160000 0.290000
v 0.136269 0.160000 0.276000
v 0.126370 0.160000 0.280101
vt 0.000000 0.000000
vt 1.000000 0.000000
vt 1.000000 1.000000
f 1027/1027 1028/1028 1029/1029
v 0.136269 0.182400 0.290000
v 0.126370 0.182400 0.280101
v 0.136269 0.182400 0.276000
vt 0.000000 0.000000
vt 1.000000 0.000000
vt 1.000000 1.000000
f 1030/1030 1031/1031 1032/1032
v 0.290000 0.160000 0.122269
v 0.299899 0.160000 0.126370
v 0.299899 0.182400 0.126370
v 0.290000 0.182400 0.122269
vt 0.000000 0.000000
vt 0.125000 0.000000
vt 0.125000 1.000000
vt 0.000000 1.000000
f 1033/1033 1034/1034 1035/1035 1036/1036
v 0.290000 0.160000 0.136269
v 0.299899 0.160000 0.126370
v 0.290000 0.160000 0.122269
vt 0.000000 0.000000
vt 1.000000 0.000000
vt 1.000000 1.000000
f 1037/1037 1038/1038 1039/1039
v 0.290000 0.182400 0.136269
v 0.290000 0.182400 0.122269
v 0.299899 0.182400 0.126370
vt 0.000000 0.000000
vt 1.000000 0.000000
vt 1.000000 1.000000
f 1040/1040 1041/1041 1042/1042
v 0.299899 0.160000 0.126370
v 0.304000 0.160000 0.136269
v 0.304000 0.182400 0.136269
v 0.299899 0.182400 0.126370
vt 0.125000 0.000000
vt 0.250000 0.000000
vt 0.250000 1.000000
vt 0.125000 1.000000
f 1043/1043 1044/1044 1045/1045 1046/1046
v 0.290000 0.160000 0.136269
v 0.304000 0.160000 0.136269
v 0.299899 0.160000 0.126370
vt 0.000000 0.000000
vt 1.000000 0.000000
vt 1.000000 1.000000
f 1047/1047 1048/1048 1049/1049
v 0.290000 0.182400 0.136269
v 0.299899 0.182400 0.126370
v 0.304000 0.182400 0.136269
vt 0.000000 0.000000
vt 1.000000 0.000000
vt 1.000000 1.000000
f 1050/1050 1051/1051 1052/1052
v 0.304000 0.160000 0.136269
v 0.299899 0.160000 0.146169
v 0.299899 0.182400 0.146169
v 0.304000 0.182400 0.136269
vt 0.250000 0.000000
vt 0.375000 0.000000
vt 0.375000 1.000000
vt 0.250000 1.000000
f 1053/1053 1054/1054 1055/1055 1056/1056
v 0.290000 0.160000 0.136269
v 0.299899 0.160000 0.146169
v 0.304000 0.160000 0.136269
vt 0.000000 0.000000
vt 1.000000 0.000000
vt 1.000000 1.000000
f 1057/1057 1058/1058 1059/1059
v 0.290000 0.182400 0.136269
v 0.304000 0.182400 0.136269
v 0.299899 0.182400 0.146169
vt 0.000000 0.000000
vt 1.000000 0.000000
vt 1.000000 1.000000
f 1060/1060 1061/1061 1062/1062
v 0.299899 0.160000 0.146169
v 0.290000 0.160000 0.150269
v 0.290000 0.182400 0.150269
v 0.299899 0.182400 0.146169
vt 0.375000 0.000000
vt 0.500000 0.000000
vt 0.500000 1.000000
vt 0.375000 1.000000
f 1063/1063 1064/1064 1065/1065 1066/1066
v 0.290000 0.160000 0.136269
v 0.290000 0.160000 0.150269
v 0.299899 0.160000 0.146169
vt 0.000000 0.000000
vt 1.000000 0.000000
vt 1.000000 1.000000
f 1067/1067 1068/1068 1069/1069
v 0.290000 0.182400 0.136269
v 0.299899 0.182400 0.146169
v 0.290000 0.182400 0.150269
vt 0.000000 0.000000
vt 1.000000 0.000000
vt 1.000000 1.000000
f 1070/1070 1071/1071 1072/1072
v 0.290000 0.160000 0.150269
v 0.280101 0.160000 0.146169
v 0.280101 0.182400 0.146169
v 0.290000 0.182400 0.150269
vt 0.500000 0.000000
vt 0.625000 0.000000
vt 0.625000 1.000000
vt 0.500000 1.000000
f 1073/1073 1074/1074 1075/1075 1076/1076
v 0.290000 0.160000 0.136269
v 0.280101 0.160000 0.146169
v 0.290000 0.160000 0.150269
vt 0.000000 0.000000
vt 1.000000 0.000000
vt 1.000000 1.000000
f 1077/1077 1078/1078 1079/1079
v 0.290000 0.182400 0.136269
v 0.290000 0.182400 0.150269
v 0.280101 0.182400 0.146169
vt 0.000000 0.000000
vt 1.000000 0.000000
vt 1.000000 1.000000
f 1080/1080 1081/1081 1082/1082
v 0.280101 0.160000 0.146169
v 0.276000 0.160000 0.136269
v 0.276000 0.182400 0.136269
v 0.280101 0.182400 0.146169
vt 0.625000 0.000000
vt 0.750000 0.000000
vt 0.750000 1.000000
vt 0.625000 1.000000
f 1083/1083 1084/1084 1085/1085 1086/1086
v 0.290000 0.160000 0.136269
v 0.276000 0.160000 0.136269
v 0.280101 0.160000 0.146169
vt 0.000000 0.000000
vt 1.000000 0.000000
vt 1.000000 1.000000
f 1087/1087 1088/1088 1089/1089
v 0.290000 0.182400 0.136269
v 0.280101 0.182400 0.146169
v 0.276000 0.182400 0.136269
vt 0.000000 0.000000
vt 1.000000 0.000000
vt 1.000000 1.000000
f 1090/1090 1091/1091 1092/1092
v 0.276000 0.160000 0.136269
v 0.280101 0.160000 0.126370
v 0.280101 0.182400 0.126370
v 0.276000 0.182400 0.136269
vt 0.750000 0.000000
vt 0.875000 0.000000
vt 0.875000 1.000000
vt 0.750000 1.000000
f 1093/1093 1094/1094 1095/1095 1096/1096
v 0.290000 0.160000 0.136269
v 0.280101 0.160000 0.126370
v 0.276000 0.160000 0.136269
vt 0.000000 0.000000
vt 1.000000 0.000000
vt 1.000000 1.000000
f 1097/1097 1098/1098 1099/1099
v 0.290000 0.182400 0.136269
v 0.276000 0.182400 0.136269
v 0.280101 0.182400 0.126370
vt 0.000000 0.000000
vt 1.000000 0.000000
vt 1.000000 1.000000
f 1100/1100 1101/1101 1102/1102
v 0.280101 0.160000 0.126370
v 0.290000 0.160000 0.122269
v 0.290000 0.182400 0.122269
v 0.280101 0.182400 0.126370
vt 0.875000 0.000000
vt 1.000000 0.000000
vt 1.000000 1.000000
vt 0.875000 1.000000
f 1103/1103 1104/1104 1105/1105 1106/1106
v 0.290000 0.160000 0.136269
v 0.290000 0.160000 0.122269
v 0.280101 0.160000 0.126370
vt 0.000000 0.000000
vt 1.000000 0.000000
vt 1.000000 1.000000
f 1107/1107 1108/1108 1109/1109
v 0.290000 0.182400 0.136269
v 0.280101 0.182400 0.126370
v 0.290000 0.182400 0.122269
vt 0.000000 0.000000
vt 1.000000 0.000000
vt 1.000000 1.000000
f 1110/1110 1111/1111 1112/1112
usemtl body
v 0.080000 0.140000 0.780000
v 0.920000 0.140000 0.780000
v 0.920000 0.960000 0.780000
v 0.080000 0.960000 0.780000
vt 0.000000 0.000000
vt 1.000000 0.000000
vt 1.000000 1.000000
vt 0.000000 1.000000
f 1113/1113 1114/1114 1115/1115 1116/1116
v 0.920000 0.140000 0.960000
v 0.080000 0.140000 0.960000
v 0.080000 0.960000 0.960000
v 0.920000 0.960000 0.960000
vt 0.000000 0.000000
vt 1.000000 0.000000
vt 1.000000 1.000000
vt 0.000000 1.000000
f 1117/1117 1118/1118 1119/1119 1120/1120
v 0.080000 0.140000 0.960000
v 0.080000 0.140000 0.780000
v 0.080000 0.960000 0.780000
v 0.080000 0.960000 0.960000
vt 0.000000 0.000000
vt 1.000000 0.000000
vt 1.000000 1.000000
vt 0.000000 1.000000
f 1121/1121 1122/1122 1123/1123 1124/1124
v 0.920000 0.140000 0.780000
v 0.920000 0.140000 0.960000
v 0.920000 0.960000 0.960000
v 0.920000 0.960000 0.780000
vt 0.000000 0.000000
vt 1.000000 0.000000
vt 1.000000 1.000000
vt 0.000000 1.000000
f 1125/1125 1126/1126 1127/1127 1128/1128
v 0.080000 0.960000 0.780000
v 0.920000 0.960000 0.780000
v 0.920000 0.960000 0.960000
v 0.080000 0.960000 0.960000
vt 0.000000 0.000000
vt 1.000000 0.000000
vt 1.000000 1.000000
vt 0.000000 1.000000
f 1129/1129 1130/1130 1131/1131 1132/1132
v 0.080000 0.140000 0.960000
v 0.920000 0.140000 0.960000
v 0.920000 0.140000 0.780000
v 0.080000 0.140000 0.780000
vt 0.000000 0.000000
vt 1.000000 0.000000
vt 1.000000 1.000000
vt 0.000000 1.000000
f 1133/1133 1134/1134 1135/1135 1136/1136
usemtl dark
v 0.500000 0.160000 0.500000
v 0.580108 0.160000 0.509026
v 0.580108 0.920000 0.509026
v 0.500000 0.920000 0.500000
vt 0.000000 0.000000
vt 0.035714 0.000000
vt 0.035714 1.000000
vt 0.000000 1.000000
f 1137/1137 1138/1138 1139/1139 1140/1140
v 0.500000 0.160000 0.860000
v 0.580108 0.160000 0.509026
v 0.500000 0.160000 0.500000
vt 0.000000 0.000000
vt 1.000000 0.000000
vt 1.000000 1.000000
f 1141/1141 1142/1142 1143/1143
v 0.500000 0.920000 0.860000
v 0.500000 0.920000 0.500000
v 0.580108 0.920000 0.509026
vt 0.000000 0.000000
vt 1.000000 0.000000
vt 1.000000 1.000000
f 1144/1144 1145/1145 1146/1146
v 0.580108 0.160000 0.509026
v 0.656198 0.160000 0.535651
v 0.656198 0.920000 0.535651
v 0.580108 0.920000 0.509026
vt 0.035714 0.000000
vt 0.071429 0.000000
vt 0.071429 1.000000
vt 0.035714 1.000000
f 1147/1147 1148/1148 1149/1149 1150/1150
v 0.500000 0.160000 0.860000
v 0.656198 0.160000 0.535651
v 0.580108 0.160000 0.509026
vt 0.000000 0.000000
vt 1.000000 0.000000
vt 1.000000 1.000000
f 1151/1151 1152/1152 1153/1153
v 0.500000 0.920000 0.860000
v 0.580108 0.920000 0.509026
v 0.656198 0.920000 0.535651
vt 0.000000 0.000000
vt 1.000000 0.000000
vt 1.000000 1.000000
f 1154/1154 1155/1155 1156/1156
v 0.656198 0.160000 0.535651
v 0.724456 0.160000 0.578541
v 0.724456 0.920000 0.578541
v 0.656198 0.920000 0.535651
vt 0.071429 0.000000
vt 0.107143 0.000000
vt 0.107143 1.000000
vt 0.071429 1.000000
f 1157/1157 1158/1158 1159/1159 1160/1160
v 0.500000 0.160000 0.860000
v 0.724456 0.160000 0.578541
v 0.656198 0.160000 0.535651
vt 0.000000 0.000000
vt 1.000000 0.000000
vt 1.000000 1.000000
f 1161/1161 1162/1162 1163/1163
v 0.500000 0.920000 0.860000
v 0.656198 0.920000 0.535651
v 0.724456 0.920000 0.578541
vt 0.000000 0.000000
vt 1.000000 0.000000
vt 1.000000 1.000000
f 1164/1164 1165/1165 1166/1166
v 0.724456 0.160000 0.578541
v 0.781459 0.160000 0.635544
v 0.781459 0.920000 0.635544
v 0.724456 0.920000 0.578541
vt 0.107143 0.000000
vt 0.142857 0.000000
vt 0.142857 1.000000
vt 0.107143 1.000000
f 1167/1167 1168/1168 1169/1169 1170/1170
v 0.500000 0.160000 0.860000
v 0.781459 0.160000 0.635544
v 0.724456 0.160000 0.578541
vt 0.000000 0.000000
vt 1.000000 0.000000
vt 1.000000 1.000000
f 1171/1171 1172/1172 1173/1173
v 0.500000 0.920000 0.860000
v 0.724456 0.920000 0.578541
v 0.781459 0.920000 0.635544
vt 0.000000 0.000000
vt 1.000000 0.000000
vt 1.000000 1.000000
f 1174/1174 1175/1175 1176/1176
v 0.781459 0.160000 0.635544
v 0.824349 0.160000 0.703802
v 0.824349 0.920000 0.703802
v 0.781459 0.920000 0.635544
vt 0.142857 0.000000
vt 0.178571 0.000000
vt 0.178571 1.000000
vt 0.142857 1.000000
f 1177/1177 1178/1178 1179/1179 1180/1180
v 0.500000 0.160000 0.860000
v 0.824349 0.160000 0.703802
v 0.781459 0.160000 0.635544
vt 0.000000 0.000000
vt 1.000000 0.000000
vt 1.000000 1.000000
f 1181/1181 1182/1182 1183/1183
v 0.500000 0.920000 0.860000
v 0.781459 0.920000 0.635544
v 0.824349 0.920000 0.703802
vt 0.000000 0.000000
vt 1.000000 0.000000
vt 1.000000 1.000000
f 1184/1184 1185/1185 1186/1186
v 0.824349 0.160000 0.703802
v 0.850974 0.160000 0.779892
v 0.850974 0.920000 0.779892
v 0.824349 0.920000 0.703802
vt 0.178571 0.000000
vt 0.214286 0.000000
vt 0.214286 1.000000
vt 0.178571 1.000000
f 1187/1187 1188/1188 1189/1189 1190/1190
v 0.500000 0.160000 0.860000
v 0.850974 0.160000 0.779892
v 0.824349 0.160000 0.703802
vt 0.000000 0.000000
vt 1.000000 0.000000
vt 1.000000 1.000000
f 1191/1191 1192/1192 1193/1193
v 0.500000 0.920000 0.860000
v 0.824349 0.920000 0.703802
v 0.850974 0.920000 0.779892
vt 0.000000 0.000000
vt 1.000000 0.000000
vt 1.000000 1.000000
f 1194/1194 1195/1195 1196/1196
v 0.850974 0.160000 0.779892
v 0.860000 0.160000 0.860000
v 0.860000 0.920000 0.860000
v 0.850974 0.920000 0.779892
vt 0.214286 0.000000
vt 0.250000 0.000000
vt 0.250000 1.000000
vt 0.214286 1.000000
f 1197/1197 1198/1198 1199/1199 1200/1200
v 0.500000 0.160000 0.860000
v 0.860000 0.160000 0.860000
v 0.850974 0.160000 0.779892
vt 0.000000 0.000000
vt 1.000000 0.000000
vt 1.000000 1.000000
f 1201/1201 1202/1202 1203/1203
v 0.500000 0.920000 0.860000
v 0.850974 0.920000 0.779892
v 0.860000 0.920000 0.860000
vt 0.000000 0.000000
vt 1.000000 0.000000
vt 1.000000 1.000000
f 1204/1204 1205/1205 1206/1206
v 0.860000 0.160000 0.860000
v 0.850974 0.160000 0.940108
v 0.850974 0.920000 0.940108
v 0.860000 0.920000 0.860000
vt 0.250000 0.000000
vt 0.285714 0.000000
vt 0.285714 1.000000
vt 0.250000 1.000000
f 1207/1207 1208/1208 1209/1209 1210/1210
v 0.500000 0.160000 0.860000
v 0.850974 0.160000 0.940108
v 0.860000 0.160000 0.860000
vt 0.000000 0.000000
vt 1.000000 0.000000
vt 1.000000 1.000000
f 1211/1211 1212/1212 1213/1213
v 0.500000 0.920000 0.860000
v 0.860000 0.920000 0.860000
v 0.850974 0.920000 0.940108
vt 0.000000 0.000000
vt 1.000000 0.000000
vt 1.000000 1.000000
f 1214/1214 1215/1215 1216/1216
v 0.850974 0.160000 0.940108
v 0.824349 0.160000 1.016198
v 0.824349 0.920000 1.016198
v 0.850974 0.920000 0.940108
vt 0.285714 0.000000
vt 0.321429 0.000000
vt 0.321429 1.000000
vt 0.285714 1.000000
f 1217/1217 1218/1218 1219/1219 1220/1220
v 0.500000 0.160000 0.860000
v 0.824349 0.160000 1.016198
v 0.850974 0.160000 0.940108
vt 0.000000 0.000000
vt 1.000000 0.000000
vt 1.000000 1.000000
f 1221/1221 1222/1222 1223/1223
v 0.500000 0.920000 0.860000
v 0.850974 0.920000 0.940108
v 0.824349 0.920000 1.016198
vt 0.000000 0.000000
vt 1.000000 0.000000
vt 1.000000 1.000000
f 1224/1224 1225/1225 1226/1226
v 0.824349 0.160000 1.016198
v 0.781459 0.160000 1.084456
v 0.781459 0.920000 1.084456
v 0.824349 0.920000 1.016198
vt 0.321429 0.000000
vt 0.357143 0.000000
vt 0.357143 1.000000
vt 0.321429 1.000000
f 1227/1227 1228/1228 1229/1229 1230/1230
v 0.500000 0.160000 0.860000
v 0.781459 0.160000 1.084456
v 0.824349 0.160000 1.016198
vt 0.000000 0.000000
vt 1.000000 0.000000
vt 1.000000 1.000000
f 1231/1231 1232/1232 1233/1233
v 0.500000 0.920000 0.860000
v 0.824349 0.920000 1.016198
v 0.781459 0.920000 1.084456
vt 0.000000 0.000000
vt 1.000000 0.000000
vt 1.000000 1.000000
f 1234/1234 1235/1235 1236/1236
v 0.781459 0.160000 1.084456
v 0.724456 0.160000 1.141459
v 0.724456 0.920000 1.141459
v 0.781459 0.920000 1.084456
vt 0.357143 0.000000
vt 0.392857 0.000000
vt 0.392857 1.000000
vt 0.357143 1.000000
f 1237/1237 1238/1238 1239/1239 1240/1240
v 0.500000 0.160000 0.860000
v 0.724456 0.160000 1.141459
v 0.781459 0.160000 1.084456
vt 0.000000 0.000000
vt 1.000000 0.000000
vt 1.000000 1.000000
f 1241/1241 1242/1242 1243/1243
v 0.500000 0.920000 0.860000
v 0.781459 0.920000 1.084456
v 0.724456 0.920000 1.141459
vt 0.000000 0.000000
vt 1.000000 0.000000
vt 1.000000 1.000000
f 1244/1244 1245/1245 1246/1246
v 0.724456 0.160000 1.141459
v 0.656198 0.160000 1.184349
v 0.656198 0.920000 1.184349
v 0.724456 0.920000 1.141459
vt 0.392857 0.000000
vt 0.428571 0.000000
vt 0.428571 1.000000
vt 0.392857 1.000000
f 1247/1247 1248/1248 1249/1249 1250/1250
v 0.500000 0.160000 0.860000
v 0.656198 0.160000 1.184349
v 0.724456 0.160000 1.141459
vt 0.000000 0.000000
vt 1.000000 0.000000
vt 1.000000 1.000000
f 1251/1251 1252/1252 1253/1253
v 0.500000 0.920000 0.860000
v 0.724456 0.920000 1.141459
v 0.656198 0.920000 1.184349
vt 0.000000 0.000000
vt 1.000000 0.000000
vt 1.000000 1.000000
f 1254/1254 1255/1255 1256/1256
v 0.656198 0.160000 1.184349
v 0.580108 0.160000 1.210974
v 0.580108 0.920000 1.210974
v 0.656198 0.920000 1.184349
vt 0.428571 0.000000
vt 0.464286 0.000000
vt 0.464286 1.000000
vt 0.428571 1.000000
f 1257/1257 1258/1258 1259/1259 1260/1260
v 0.500000 0.160000 0.860000
v 0.580108 0.160000 1.210974
v 0.656198 0.160000 1.184349
vt 0.000000 0.000000
vt 1.000000 0.000000
vt 1.000000 1.000000
f 1261/1261 1262/1262 1263/1263
v 0.500000 0.920000 0.860000
v 0.656198 0.920000 1.184349
v 0.580108 0.920000 1.210974
vt 0.000000 0.000000
vt 1.000000 0.000000
vt 1.000000 1.000000
f 1264/1264 1265/1265 1266/1266
v 0.580108 0.160000 1.210974
v 0.500000 0.160000 1.220000
v 0.500000 0.920000 1.220000
v 0.580108 0.920000 1.210974
vt 0.464286 0.000000
vt 0.500000 0.000000
vt 0.500000 1.000000
vt 0.464286 1.000000
f 1267/1267 1268/1268 1269/1269 1270/1270
v 0.500000 0.160000 0.860000
v 0.500000 0.160000 1.220000
v 0.580108 0.160000 1.210974
vt 0.000000 0.000000
vt 1.000000 0.000000
vt 1.000000 1.000000
f 1271/1271 1272/1272 1273/1273
v 0.500000 0.920000 0.860000
v 0.580108 0.920000 1.210974
v 0.500000 0.920000 1.220000
vt 0.000000 0.000000
vt 1.000000 0.000000
vt 1.000000 1.000000
f 1274/1274 1275/1275 1276/1276
v 0.500000 0.160000 1.220000
v 0.419892 0.160000 1.210974
v 0.419892 0.920000 1.210974
v 0.500000 0.920000 1.220000
vt 0.500000 0.000000
vt 0.535714 0.000000
vt 0.535714 1.000000
vt 0.500000 1.000000
f 1277/1277 1278/1278 1279/1279 1280/1280
v 0.500000 0.160000 0.860000
v 0.419892 0.160000 1.210974
v 0.500000 0.160000 1.220000
vt 0.000000 0.000000
vt 1.000000 0.000000
vt 1.000000 1.000000
f 1281/1281 1282/1282 1283/1283
v 0.500000 0.920000 0.860000
v 0.500000 0.920000 1.220000
v 0.419892 0.920000 1.210974
vt 0.000000 0.000000
vt 1.000000 0.000000
vt 1.000000 1.000000
f 1284/1284 1285/1285 1286/1286
v 0.419892 0.160000 1.210974
v 0.343802 0.160000 1.184349
v 0.343802 0.920000 1.184349
v 0.419892 0.920000 1.210974
vt 0.535714 0.000000
vt 0.571429 0.000000
vt 0.571429 1.000000
vt 0.535714 1.000000
f 1287/1287 1288/1288 1289/1289 1290/1290
v 0.500000 0.160000 0.860000
v 0.343802 0.160000 1.184349
v 0.419892 0.160000 1.210974
vt 0.000000 0.000000
vt 1.000000 0.000000
vt 1.000000 1.000000
f 1291/1291 1292/1292 1293/1293
v 0.500000 0.920000 0.860000
v 0.419892 0.920000 1.210974
v 0.343802 0.920000 1.184349
vt 0.000000 0.000000
vt 1.000000 0.000000
vt 1.000000 1.000000
f 1294/1294 1295/1295 1296/1296
v 0.343802 0.160000 1.184349
v 0.275544 0.160000 1.141459
v 0.275544 0.920000 1.141459
v 0.343802 0.920000 1.184349
vt 0.571429 0.000000
vt 0.607143 0.000000
vt 0.607143 1.000000
vt 0.571429 1.000000
f 1297/1297 1298/1298 1299/1299 1300/1300
v 0.500000 0.160000 0.860000
v 0.275544 0.160000 1.141459
v 0.343802 0.160000 1.184349
vt 0.000000 0.000000
vt 1.000000 0.000000
vt 1.000000 1.000000
f 1301/1301 1302/1302 1303/1303
v 0.500000 0.920000 0.860000
v 0.343802 0.920000 1.184349
v 0.275544 0.920000 1.141459
vt 0.000000 0.000000
vt 1.000000 0.000000
vt 1.000000 1.000000
f 1304/1304 1305/1305 1306/1306
v 0.275544 0.160000 1.141459
v 0.218541 0.160000 1.084456
v 0.218541 0.920000 1.084456
v 0.275544 0.920000 1.141459
vt 0.607143 0.000000
vt 0.642857 0.000000
vt 0.642857 1.000000
vt 0.607143 1.000000
f 1307/1307 1308/1308 1309/1309 1310/1310
v 0.500000 0.160000 0.860000
v 0.218541 0.160000 1.084456
v 0.275544 0.160000 1.141459
vt 0.000000 0.000000
vt 1.000000 0.000000
vt 1.000000 1.000000
f 1311/1311 1312/1312 1313/1313
v 0.500000 0.920000 0.860000
v 0.275544 0.920000 1.141459
v 0.218541 0.920000 1.084456
vt 0.000000 0.000000
vt 1.000000 0.000000
vt 1.000000 1.000000
f 1314/1314 1315/1315 1316/1316
v 0.218541 0.160000 1.084456
v 0.175651 0.160000 1.016198
v 0.175651 0.920000 1.016198
v 0.218541 0.920000 1.084456
vt 0.642857 0.000000
vt 0.678571 0.000000
vt 0.678571 1.000000
vt 0.642857 1.000000
f 1317/1317 1318/1318 1319/1319 1320/1320
v 0.500000 0.160000 0.860000
v 0.175651 0.160000 1.016198
v 0.218541 0.160000 1.084456
vt 0.000000 0.000000
vt 1.000000 0.000000
vt 1.000000 1.000000
f 1321/1321 1322/1322 1323/1323
v 0.500000 0.920000 0.860000
v 0.218541 0.920000 1.084456
v 0.175651 0.920000 1.016198
vt 0.000000 0.000000
vt 1.000000 0.000000
vt 1.000000 1.000000
f 1324/1324 1325/1325 1326/1326
v 0.175651 0.160000 1.016198
v 0.149026 0.160000 0.940108
v 0.149026 0.920000 0.940108
v 0.175651 0.920000 1.016198
vt 0.678571 0.000000
vt 0.714286 0.000000
vt 0.714286 1.000000
vt 0.678571 1.000000
f 1327/1327 1328/1328 1329/1329 1330/1330
v 0.500000 0.160000 0.860000
v 0.149026 0.160000 0.940108
v 0.175651 0.160000 1.016198
vt 0.000000 0.000000
vt 1.000000 0.000000
vt 1.000000 1.000000
f 1331/1331 1332/1332 1333/1333
v 0.500000 0.920000 0.860000
v 0.175651 0.920000 1.016198
v 0.149026 0.920000 0.940108
vt 0.000000 0.000000
vt 1.000000 0.000000
vt 1.000000 1.000000
f 1334/1334 1335/1335 1336/1336
v 0.149026 0.160000 0.940108
v 0.140000 0.160000 0.860000
v 0.140000 0.920000 0.860000
v 0.149026 0.920000 0.940108
vt 0.714286 0.000000
vt 0.750000 0.000000
vt 0.750000 1.000000
vt 0.714286 1.000000
f 1337/1337 1338/1338 1339/1339 1340/1340
v 0.500000 0.160000 0.860000
v 0.140000 0.160000 0.860000
v 0.149026 0.160000 0.940108
vt 0.000000 0.000000
vt 1.000000 0.000000
vt 1.000000 1.000000
f 1341/1341 1342/1342 1343/1343
v 0.500000 0.920000 0.860000
v 0.149026 0.920000 0.940108
v 0.140000 0.920000 0.860000
vt 0.000000 0.000000
vt 1.000000 0.000000
vt 1.000000 1.000000
f 1344/1344 1345/1345 1346/1346
v 0.140000 0.160000 0.860000
v 0.149026 0.160000 0.779892
v 0.149026 0.920000 0.779892
v 0.140000 0.920000 0.860000
vt 0.750000 0.000000
vt 0.785714 0.000000
vt 0.785714 1.000000
vt 0.750000 1.000000
f 1347/1347 1348/1348 1349/1349 1350/1350
v 0.500000 0.160000 0.860000
v 0.149026 0.160000 0.779892
v 0.140000 0.160000 0.860000
vt 0.000000 0.000000
vt 1.000000 0.000000
vt 1.000000 1.000000
f 1351/1351 1352/1352 1353/1353
v 0.500000 0.920000 0.860000
v 0.140000 0.920000 0.860000
v 0.149026 0.920000 0.779892
vt 0.000000 0.000000
vt 1.000000 0.000000
vt 1.000000 1.000000
f 1354/1354 1355/1355 1356/1356
v 0.149026 0.160000 0.779892
v 0.175651 0.160000 0.703802
v 0.175651 0.920000 0.703802
v 0.149026 0.920000 0.779892
vt 0.785714 0.000000
vt 0.821429 0.000000
vt 0.821429 1.000000
vt 0.785714 1.000000
f 1357/1357 1358/1358 1359/1359 1360/1360
v 0.500000 0.160000 0.860000
v 0.175651 0.160000 0.703802
v 0.149026 0.160000 0.779892
vt 0.000000 0.000000
vt 1.000000 0.000000
vt 1.000000 1.000000
f 1361/1361 1362/1362 1363/1363
v 0.500000 0.920000 0.860000
v 0.149026 0.920000 0.779892
v 0.175651 0.920000 0.703802
vt 0.000000 0.000000
vt 1.000000 0.000000
vt 1.000000 1.000000
f 1364/1364 1365/1365 1366/1366
v 0.175651 0.160000 0.703802
v 0.218541 0.160000 0.635544
v 0.218541 0.920000 0.635544
v 0.175651 0.920000 0.703802
vt 0.821429 0.000000
vt 0.857143 0.000000
vt 0.857143 1.000000
vt 0.821429 1.000000
f 1367/1367 1368/1368 1369/1369 1370/1370
v 0.500000 0.160000 0.860000
v 0.218541 0.160000 0.635544
v 0.175651 0.160000 0.703802
vt 0.000000 0.000000
vt 1.000000 0.000000
vt 1.000000 1.000000
f 1371/1371 1372/1372 1373/1373
v 0.500000 0.920000 0.860000
v 0.175651 0.920000 0.703802
v 0.218541 0.920000 0.635544
vt 0.000000 0.000000
vt 1.000000 0.000000
vt 1.000000 1.000000
f 1374/1374 1375/1375 1376/1376
v 0.218541 0.160000 0.635544
v 0.275544 0.160000 0.578541
v 0.275544 0.920000 0.578541
v 0.218541 0.920000 0.635544
vt 0.857143 0.000000
vt 0.892857 0.000000
vt 0.892857 1.000000
vt 0.857143 1.000000
f 1377/1377 1378/1378 1379/1379 1380/1380
v 0.500000 0.160000 0.860000
v 0.275544 0.160000 0.578541
v 0.218541 0.160000 0.635544
vt 0.000000 0.000000
vt 1.000000 0.000000
vt 1.000000 1.000000
f 1381/1381 1382/1382 1383/1383
v 0.500000 0.920000 0.860000
v 0.218541 0.920000 0.635544
v 0.275544 0.920000 0.578541
vt 0.000000 0.000000
vt 1.000000 0.000000
vt 1.000000 1.000000
f 1384/1384 1385/1385 1386/1386
v 0.275544 0.160000 0.578541
v 0.343802 0.160000 0.535651
v 0.343802 0.920000 0.535651
v 0.275544 0.920000 0.578541
vt 0.892857 0.000000
vt 0.928571 0.000000
vt 0.928571 1.000000
vt 0.892857 1.000000
f 1387/1387 1388/1388 1389/1389 1390/1390
v 0.500000 0.160000 0.860000
v 0.343802 0.160000 0.535651
v 0.275544 0.160000 0.578541
vt 0.000000 0.000000
vt 1.000000 0.000000
vt 1.000000 1.000000
f 1391/1391 1392/1392 1393/1393
v 0.500000 0.920000 0.860000
v 0.275544 0.920000 0.578541
v 0.343802 0.920000 0.535651
vt 0.000000 0.000000
vt 1.000000 0.000000
vt 1.000000 1.000000
f 1394/1394 1395/1395 1396/1396
v 0.343802 0.160000 0.535651
v 0.419892 0.160000 0.509026
v 0.419892 0.920000 0.509026
v 0.343802 0.920000 0.535651
vt 0.928571 0.000000
vt 0.964286 0.000000
vt 0.964286 1.000000
vt 0.928571 1.000000
f 1397/1397 1398/1398 1399/1399 1400/1400
v 0.500000 0.160000 0.860000
v 0.419892 0.160000 0.509026
v 0.343802 0.160000 0.535651
vt 0.000000 0.000000
vt 1.000000 0.000000
vt 1.000000 1.000000
f 1401/1401 1402/1402 1403/1403
v 0.500000 0.920000 0.860000
v 0.343802 0.920000 0.535651
v 0.419892 0.920000 0.509026
vt 0.000000 0.000000
vt 1.000000 0.000000
vt 1.000000 1.000000
f 1404/1404 1405/1405 1406/1406
v 0.419892 0.160000 0.509026
v 0.500000 0.160000 0.500000
v 0.500000 0.920000 0.500000
v 0.419892 0.920000 0.509026
vt 0.964286 0.000000
vt 1.000000 0.000000
vt 1.000000 1.000000
vt 0.964286 1.000000
f 1407/1407 1408/1408 1409/1409 1410/1410
v 0.500000 0.160000 0.860000
v 0.500000 0.160000 0.500000
v 0.419892 0.160000 0.509026
vt 0.000000 0.000000
vt 1.000000 0.000000
vt 1.000000 1.000000
f 1411/1411 1412/1412 1413/1413
v 0.500000 0.920000 0.860000
v 0.419892 0.920000 0.509026
v 0.500000 0.920000 0.500000
vt 0.000000 0.000000
vt 1.000000 0.000000
vt 1.000000 1.000000
f 1414/1414 1415/1415 1416/1416
usemtl yellow
v 0.420000 0.160000 0.700000
v 0.580000 0.160000 0.700000
v 0.580000 0.220000 0.700000
v 0.420000 0.220000 0.700000
vt 0.000000 0.000000
vt 1.000000 0.000000
vt 1.000000 1.000000
vt 0.000000 1.000000
f 1417/1417 1418/1418 1419/1419 1420/1420
v 0.580000 0.160000 0.900000
v 0.420000 0.160000 0.900000
v 0.420000 0.220000 0.900000
v 0.580000 0.220000 0.900000
vt 0.000000 0.000000
vt 1.000000 0.000000
vt 1.000000 1.000000
vt 0.000000 1.000000
f 1421/1421 1422/1422 1423/1423 1424/1424
v 0.420000 0.160000 0.900000
v 0.420000 0.160000 0.700000
v 0.420000 0.220000 0.700000
v 0.420000 0.220000 0.900000
vt 0.000000 0.000000
vt 1.000000 0.000000
vt 1.000000 1.000000
vt 0.000000 1.000000
f 1425/1425 1426/1426 1427/1427 1428/1428
v 0.580000 0.160000 0.700000
v 0.580000 0.160000 0.900000
v 0.580000 0.220000 0.900000
v 0.580000 0.220000 0.700000
vt 0.000000 0.000000
vt 1.000000 0.000000
vt 1.000000 1.000000
vt 0.000000 1.000000
f 1429/1429 1430/1430 1431/1431 1432/1432
v 0.420000 0.220000 0.700000
v 0.580000 0.220000 0.700000
v 0.580000 0.220000 0.900000
v 0.420000 0.220000 0.900000
vt 0.000000 0.000000
vt 1.000000 0.000000
vt 1.000000 1.000000
vt 0.000000 1.000000
f 1433/1433 1434/1434 1435/1435 1436/1436
v 0.420000 0.160000 0.900000
v 0.580000 0.160000 0.900000
v 0.580000 0.160000 0.700000
v 0.420000 0.160000 0.700000
vt 0.000000 0.000000
vt 1.000000 0.000000
vt 1.000000 1.000000
vt 0.000000 1.000000
f 1437/1437 1438/1438 1439/1439 1440/1440
v 0.120000 0.040000 0.190000
v 0.137634 0.040000 0.195729
v 0.137634 0.380000 0.195729
v 0.120000 0.380000 0.190000
vt 0.000000 0.000000
vt 0.100000 0.000000
vt 0.100000 1.000000
vt 0.000000 1.000000
f 1441/1441 1442/1442 1443/1443 1444/1444
v 0.120000 0.040000 0.220000
v 0.137634 0.040000 0.195729
v 0.120000 0.040000 0.190000
vt 0.000000 0.000000
vt 1.000000 0.000000
vt 1.000000 1.000000
f 1445/1445 1446/1446 1447/1447
v 0.120000 0.380000 0.220000
v 0.120000 0.380000 0.190000
v 0.137634 0.380000 0.195729
vt 0.000000 0.000000
vt 1.000000 0.000000
vt 1.000000 1.000000
f 1448/1448 1449/1449 1450/1450
v 0.137634 0.040000 0.195729
v 0.148532 0.040000 0.210729
v 0.148532 0.380000 0.210729
v 0.137634 0.380000 0.195729
vt 0.100000 0.000000
vt 0.200000 0.000000
vt 0.200000 1.000000
vt 0.100000 1.000000
f 1451/1451 1452/1452 1453/1453 1454/1454
v 0.120000 0.040000 0.220000
v 0.148532 0.040000 0.210729
v 0.137634 0.040000 0.195729
vt 0.000000 0.000000
vt 1.000000 0.000000
vt 1.000000 1.000000
f 1455/1455 1456/1456 1457/1457
v 0.120000 0.380000 0.220000
v 0.137634 0.380000 0.195729
v 0.148532 0.380000 0.210729
vt 0.000000 0.000000
vt 1.000000 0.000000
vt 1.000000 1.000000
f 1458/1458 1459/1459 1460/1460
v 0.148532 0.040000 0.210729
v 0.148532 0.040000 0.229271
v 0.148532 0.380000 0.229271
v 0.148532 0.380000 0.210729
vt 0.200000 0.000000
vt 0.300000 0.000000
vt 0.300000 1.000000
vt 0.200000 1.000000
f 1461/1461 1462/1462 1463/1463 1464/1464
v 0.120000 0.040000 0.220000
v 0.148532 0.040000 0.229271
v 0.148532 0.040000 0.210729
vt 0.000000 0.000000
vt 1.000000 0.000000
vt 1.000000 1.000000
f 1465/1465 1466/1466 1467/1467
v 0.120000 0.380000 0.220000
v 0.148532 0.380000 0.210729
v 0.148532 0.380000 0.229271
vt 0.000000 0.000000
vt 1.000000 0.000000
vt 1.000000 1.000000
f 1468/1468 1469/1469 1470/1470
v 0.148532 0.040000 0.229271
v 0.137634 0.040000 0.244271
v 0.137634 0.380000 0.244271
v 0.148532 0.380000 0.229271
vt 0.300000 0.000000
vt 0.400000 0.000000
vt 0.400000 1.000000
vt 0.300000 1.000000
f 1471/1471 1472/1472 1473/1473 1474/1474
v 0.120000 0.040000 0.220000
v 0.137634 0.040000 0.244271
v 0.148532 0.040000 0.229271
vt 0.000000 0.000000
vt 1.000000 0.000000
vt 1.000000 1.000000
f 1475/1475 1476/1476 1477/1477
v 0.120000 0.380000 0.220000
v 0.148532 0.380000 0.229271
v 0.137634 0.380000 0.244271
vt 0.000000 0.000000
vt 1.000000 0.000000
vt 1.000000 1.000000
f 1478/1478 1479/1479 1480/1480
v 0.137634 0.040000 0.244271
v 0.120000 0.040000 0.250000
v 0.120000 0.380000 0.250000
v 0.137634 0.380000 0.244271
vt 0.400000 0.000000
vt 0.500000 0.000000
vt 0.500000 1.000000
vt 0.400000 1.000000
f 1481/1481 1482/1482 1483/1483 1484/1484
v 0.120000 0.040000 0.220000
v 0.120000 0.040000 0.250000
v 0.137634 0.040000 0.244271
vt 0.000000 0.000000
vt 1.000000 0.000000
vt 1.000000 1.000000
f 1485/1485 1486/1486 1487/1487
v 0.120000 0.380000 0.220000
v 0.137634 0.380000 0.244271
v 0.120000 0.380000 0.250000
vt 0.000000 0.000000
vt 1.000000 0.000000
vt 1.000000 1.000000
f 1488/1488 1489/1489 1490/1490
v 0.120000 0.040000 0.250000
v 0.102366 0.040000 0.244271
v 0.102366 0.380000 0.244271
v 0.120000 0.380000 0.250000
vt 0.500000 0.000000
vt 0.600000 0.000000
vt 0.600000 1.000000
vt 0.500000 1.000000
f 1491/1491 1492/1492 1493/1493 1494/1494
v 0.120000 0.040000 0.220000
v 0.102366 0.040000 0.244271
v 0.120000 0.040000 0.250000
vt 0.000000 0.000000
vt 1.000000 0.000000
vt 1.000000 1.000000
f 1495/1495 1496/1496 1497/1497
v 0.120000 0.380000 0.220000
v 0.120000 0.380000 0.250000
v 0.102366 0.380000 0.244271
vt 0.000000 0.000000
vt 1.000000 0.000000
vt 1.000000 1.000000
f 1498/1498 1499/1499 1500/1500
v 0.102366 0.040000 0.244271
v 0.091468 0.040000 0.229271
v 0.091468 0.380000 0.229271
v 0.102366 0.380000 0.244271
vt 0.600000 0.000000
vt 0.700000 0.000000
vt 0.700000 1.000000
vt 0.600000 1.000000
f 1501/1501 1502/1502 1503/1503 1504/1504
v 0.120000 0.040000 0.220000
v 0.091468 0.040000 0.229271
v 0.102366 0.040000 0.244271
vt 0.000000 0.000000
vt 1.000000 0.000000
vt 1.000000 1.000000
f 1505/1505 1506/1506 1507/1507
v 0.120000 0.380000 0.220000
v 0.102366 0.380000 0.244271
v 0.091468 0.380000 0.229271
vt 0.000000 0.000000
vt 1.000000 0.000000
vt 1.000000 1.000000
f 1508/1508 1509/1509 1510/1510
v 0.091468 0.040000 0.229271
v 0.091468 0.040000 0.210729
v 0.091468 0.380000 0.210729
v 0.091468 0.380000 0.229271
vt 0.700000 0.000000
vt 0.800000 0.000000
vt 0.800000 1.000000
vt 0.700000 1.000000
f 1511/1511 1512/1512 1513/1513 1514/1514
v 0.120000 0.040000 0.220000
v 0.091468 0.040000 0.210729
v 0.091468 0.040000 0.229271
vt 0.000000 0.000000
vt 1.000000 0.000000
vt 1.000000 1.000000
f 1515/1515 1516/1516 1517/1517
v 0.120000 0.380000 0.220000
v 0.091468 0.380000 0.229271
v 0.091468 0.380000 0.210729
vt 0.000000 0.000000
vt 1.000000 0.000000
vt 1.000000 1.000000
f 1518/1518 1519/1519 1520/1520
v 0.091468 0.040000 0.210729
v 0.102366 0.040000 0.195729
v 0.102366 0.380000 0.195729
v 0.091468 0.380000 0.210729
vt 0.800000 0.000000
vt 0.900000 0.000000
vt 0.900000 1.000000
vt 0.800000 1.000000
f 1521/1521 1522/1522 1523/1523 1524/1524
v 0.120000 0.040000 0.220000
v 0.102366 0.040000 0.195729
v 0.091468 0.040000 0.210729
vt 0.000000 0.000000
vt 1.000000 0.000000
vt 1.000000 1.000000
f 1525/1525 1526/1526 1527/1527
v 0.120000 0.380000 0.220000
v 0.091468 0.380000 0.210729
v 0.102366 0.380000 0.195729
vt 0.000000 0.000000
vt 1.000000 0.000000
vt 1.000000 1.000000
f 1528/1528 1529/1529 1530/1530
v 0.102366 0.040000 0.195729
v 0.120000 0.040000 0.190000
v 0.120000 0.380000 0.190000
v 0.102366 0.380000 0.195729
vt 0.900000 0.000000
vt 1.000000 0.000000
vt 1.000000 1.000000
vt 0.900000 1.000000
f 1531/1531 1532/1532 1533/1533 1534/1534
v 0.120000 0.040000 0.220000
v 0.120000 0.040000 0.190000
v 0.102366 0.040000 0.195729
vt 0.000000 0.000000
vt 1.000000 0.000000
vt 1.000000 1.000000
f 1535/1535 1536/1536 1537/1537
v 0.120000 0.380000 0.220000
v 0.102366 0.380000 0.195729
v 0.120000 0.380000 0.190000
vt 0.000000 0.000000
vt 1.000000 0.000000
vt 1.000000 1.000000
f 1538/1538 1539/1539 1540/1540
v 0.120000 0.040000 0.750000
v 0.137634 0.040000 0.755729
v 0.137634 0.380000 0.755729
v 0.120000 0.380000 0.750000
vt 0.000000 0.000000
vt 0.100000 0.000000
vt 0.100000 1.000000
vt 0.000000 1.000000
f 1541/1541 1542/1542 1543/1543 1544/1544
v 0.120000 0.040000 0.780000
v 0.137634 0.040000 0.755729
v 0.120000 0.040000 0.750000
vt 0.000000 0.000000
vt 1.000000 0.000000
vt 1.000000 1.000000
f 1545/1545 1546/1546 1547/1547
v 0.120000 0.380000 0.780000
v 0.120000 0.380000 0.750000
v 0.137634 0.380000 0.755729
vt 0.000000 0.000000
vt 1.000000 0.000000
vt 1.000000 1.000000
f 1548/1548 1549/1549 1550/1550
v 0.137634 0.040000 0.755729
v 0.148532 0.040000 0.770729
v 0.148532 0.380000 0.770729
v 0.137634 0.380000 0.755729
vt 0.100000 0.000000
vt 0.200000 0.000000
vt 0.200000 1.000000
vt 0.100000 1.000000
f 1551/1551 1552/1552 1553/1553 1554/1554
v 0.120000 0.040000 0.780000
v 0.148532 0.040000 0.770729
v 0.137634 0.040000 0.755729
vt 0.000000 0.000000
vt 1.000000 0.000000
vt 1.000000 1.000000
f 1555/1555 1556/1556 1557/1557
v 0.120000 0.380000 0.780000
v 0.137634 0.380000 0.755729
v 0.148532 0.380000 0.770729
vt 0.000000 0.000000
vt 1.000000 0.000000
vt 1.000000 1.000000
f 1558/1558 1559/1559 1560/1560
v 0.148532 0.040000 0.770729
v 0.148532 0.040000 0.789271
v 0.148532 0.380000 0.789271
v 0.148532 0.380000 0.770729
vt 0.200000 0.000000
vt 0.300000 0.000000
vt 0.300000 1.000000
vt 0.200000 1.000000
f 1561/1561 1562/1562 1563/1563 1564/1564
v 0.120000 0.040000 0.780000
v 0.148532 0.040000 0.789271
v 0.148532 0.040000 0.770729
vt 0.000000 0.000000
vt 1.000000 0.000000
vt 1.000000 1.000000
f 1565/1565 1566/1566 1567/1567
v 0.120000 0.380000 0.780000
v 0.148532 0.380000 0.770729
v 0.148532 0.380000 0.789271
vt 0.000000 0.000000
vt 1.000000 0.000000
vt 1.000000 1.000000
f 1568/1568 1569/1569 1570/1570
v 0.148532 0.040000 0.789271
v 0.137634 0.040000 0.804271
v 0.137634 0.380000 0.804271
v 0.148532 0.380000 0.789271
vt 0.300000 0.000000
vt 0.400000 0.000000
vt 0.400000 1.000000
vt 0.300000 1.000000
f 1571/1571 1572/1572 1573/1573 1574/1574
v 0.120000 0.040000 0.780000
v 0.137634 0.040000 0.804271
v 0.148532 0.040000 0.789271
vt 0.000000 0.000000
vt 1.000000 0.000000
vt 1.000000 1.000000
f 1575/1575 1576/1576 1577/1577
v 0.120000 0.380000 0.780000
v 0.148532 0.380000 0.789271
v 0.137634 0.380000 0.804271
vt 0.000000 0.000000
vt 1.000000 0.000000
vt 1.000000 1.000000
f 1578/1578 1579/1579 1580/1580
v 0.137634 0.040000 0.804271
v 0.120000 0.040000 0.810000
v 0.120000 0.380000 0.810000
v 0.137634 0.380000 0.804271
vt 0.400000 0.000000
vt 0.500000 0.000000
vt 0.500000 1.000000
vt 0.400000 1.000000
f 1581/1581 1582/1582 1583/1583 1584/1584
v 0.120000 0.040000 0.780000
v 0.120000 0.040000 0.810000
v 0.137634 0.040000 0.804271
vt 0.000000 0.000000
vt 1.000000 0.000000
vt 1.000000 1.000000
f 1585/1585 1586/1586 1587/1587
v 0.120000 0.380000 0.780000
v 0.137634 0.380000 0.804271
v 0.120000 0.380000 0.810000
vt 0.000000 0.000000
vt 1.000000 0.000000
vt 1.000000 1.000000
f 1588/1588 1589/1589 1590/1590
v 0.120000 0.040000 0.810000
v 0.102366 0.040000 0.804271
v 0.102366 0.380000 0.804271
v 0.120000 0.380000 0.810000
vt 0.500000 0.000000
vt 0.600000 0.000000
vt 0.600000 1.000000
vt 0.500000 1.000000
f 1591/1591 1592/1592 1593/1593 1594/1594
v 0.120000 0.040000 0.780000
v 0.102366 0.040000 0.804271
v 0.120000 0.040000 0.810000
vt 0.000000 0.000000
vt 1.000000 0.000000
vt 1.000000 1.000000
f 1595/1595 1596/1596 1597/1597
v 0.120000 0.380000 0.780000
v 0.120000 0.380000 0.810000
v 0.102366 0.380000 0.804271
vt 0.000000 0.000000
vt 1.000000 0.000000
vt 1.000000 1.000000
f 1598/1598 1599/1599 1600/1600
v 0.102366 0.040000 0.804271
v 0.091468 0.040000 0.789271
v 0.091468 0.380000 0.789271
v 0.102366 0.380000 0.804271
vt 0.600000 0.000000
vt 0.700000 0.000000
vt 0.700000 1.000000
vt 0.600000 1.000000
f 1601/1601 1602/1602 1603/1603 1604/1604
v 0.120000 0.040000 0.780000
v 0.091468 0.040000 0.789271
v 0.102366 0.040000 0.804271
vt 0.000000 0.000000
vt 1.000000 0.000000
vt 1.000000 1.000000
f 1605/1605 1606/1606 1607/1607
v 0.120000 0.380000 0.780000
v 0.102366 0.380000 0.804271
v 0.091468 0.380000 0.789271
vt 0.000000 0.000000
vt 1.000000 0.000000
vt 1.000000 1.000000
f 1608/1608 1609/1609 1610/1610
v 0.091468 0.040000 0.789271
v 0.091468 0.040000 0.770729
v 0.091468 0.380000 0.770729
v 0.091468 0.380000 0.789271
vt 0.700000 0.000000
vt 0.800000 0.000000
vt 0.800000 1.000000
vt 0.700000 1.000000
f 1611/1611 1612/1612 1613/1613 1614/1614
v 0.120000 0.040000 0.780000
v 0.091468 0.040000 0.770729
v 0.091468 0.040000 0.789271
vt 0.000000 0.000000
vt 1.000000 0.000000
vt 1.000000 1.000000
f 1615/1615 1616/1616 1617/1617
v 0.120000 0.380000 0.780000
v 0.091468 0.380000 0.789271
v 0.091468 0.380000 0.770729
vt 0.000000 0.000000
vt 1.000000 0.000000
vt 1.000000 1.000000
f 1618/1618 1619/1619 1620/1620
v 0.091468 0.040000 0.770729
v 0.102366 0.040000 0.755729
v 0.102366 0.380000 0.755729
v 0.091468 0.380000 0.770729
vt 0.800000 0.000000
vt 0.900000 0.000000
vt 0.900000 1.000000
vt 0.800000 1.000000
f 1621/1621 1622/1622 1623/1623 1624/1624
v 0.120000 0.040000 0.780000
v 0.102366 0.040000 0.755729
v 0.091468 0.040000 0.770729
vt 0.000000 0.000000
vt 1.000000 0.000000
vt 1.000000 1.000000
f 1625/1625 1626/1626 1627/1627
v 0.120000 0.380000 0.780000
v 0.091468 0.380000 0.770729
v 0.102366 0.380000 0.755729
vt 0.000000 0.000000
vt 1.000000 0.000000
vt 1.000000 1.000000
f 1628/1628 1629/1629 1630/1630
v 0.102366 0.040000 0.755729
v 0.120000 0.040000 0.750000
v 0.120000 0.380000 0.750000
v 0.102366 0.380000 0.755729
vt 0.900000 0.000000
vt 1.000000 0.000000
vt 1.000000 1.000000
vt 0.900000 1.000000
f 1631/1631 1632/1632 1633/1633 1634/1634
v 0.120000 0.040000 0.780000
v 0.120000 0.040000 0.750000
v 0.102366 0.040000 0.755729
vt 0.000000 0.000000
vt 1.000000 0.000000
vt 1.000000 1.000000
f 1635/1635 1636/1636 1637/1637
v 0.120000 0.380000 0.780000
v 0.102366 0.380000 0.755729
v 0.120000 0.380000 0.750000
vt 0.000000 0.000000
vt 1.000000 0.000000
vt 1.000000 1.000000
f 1638/1638 1639/1639 1640/1640
