mtllib submarine_hatch.mtl
o submarine_hatch
s 1
usemtl concrete
v 0.000000 0.000000 0.000000
v 1.000000 0.000000 0.000000
v 1.000000 0.084000 0.000000
v 0.000000 0.084000 0.000000
vt 0.000000 0.000000
vt 1.000000 0.000000
vt 1.000000 1.000000
vt 0.000000 1.000000
f 1/1 2/2 3/3 4/4
v 1.000000 0.000000 1.000000
v 0.000000 0.000000 1.000000
v 0.000000 0.084000 1.000000
v 1.000000 0.084000 1.000000
vt 0.000000 0.000000
vt 1.000000 0.000000
vt 1.000000 1.000000
vt 0.000000 1.000000
f 5/5 6/6 7/7 8/8
v 0.000000 0.000000 1.000000
v 0.000000 0.000000 0.000000
v 0.000000 0.084000 0.000000
v 0.000000 0.084000 1.000000
vt 0.000000 0.000000
vt 1.000000 0.000000
vt 1.000000 1.000000
vt 0.000000 1.000000
f 9/9 10/10 11/11 12/12
v 1.000000 0.000000 0.000000
v 1.000000 0.000000 1.000000
v 1.000000 0.084000 1.000000
v 1.000000 0.084000 0.000000
vt 0.000000 0.000000
vt 1.000000 0.000000
vt 1.000000 1.000000
vt 0.000000 1.000000
f 13/13 14/14 15/15 16/16
v 0.000000 0.084000 0.000000
v 1.000000 0.084000 0.000000
v 1.000000 0.084000 1.000000
v 0.000000 0.084000 1.000000
vt 0.000000 0.000000
vt 1.000000 0.000000
vt 1.000000 1.000000
vt 0.000000 1.000000
f 17/17 18/18 19/19 20/20
v 0.000000 0.000000 1.000000
v 1.000000 0.000000 1.000000
v 1.000000 0.000000 0.000000
v 0.000000 0.000000 0.000000
vt 0.000000 0.000000
vt 1.000000 0.000000
vt 1.000000 1.000000
vt 0.000000 1.000000
f 21/21 22/22 23/23 24/24
usemtl navy
v 0.500000 0.020000 0.040000
v 0.602360 0.020000 0.051533
v 0.602360 0.240000 0.051533
v 0.500000 0.240000 0.040000
vt 0.000000 0.000000
vt 0.035714 0.000000
vt 0.035714 1.000000
vt 0.000000 1.000000
f 25/25 26/26 27/27 28/28
v 0.500000 0.020000 0.500000
v 0.602360 0.020000 0.051533
v 0.500000 0.020000 0.040000
vt 0.000000 0.000000
vt 1.000000 0.000000
vt 1.000000 1.000000
f 29/29 30/30 31/31
v 0.500000 0.240000 0.500000
v 0.500000 0.240000 0.040000
v 0.602360 0.240000 0.051533
vt 0.000000 0.000000
vt 1.000000 0.000000
vt 1.000000 1.000000
f 32/32 33/33 34/34
v 0.602360 0.020000 0.051533
v 0.699587 0.020000 0.085554
v 0.699587 0.240000 0.085554
v 0.602360 0.240000 0.051533
vt 0.035714 0.000000
vt 0.071429 0.000000
vt 0.071429 1.000000
vt 0.035714 1.000000
f 35/35 36/36 37/37 38/38
v 0.500000 0.020000 0.500000
v 0.699587 0.020000 0.085554
v 0.602360 0.020000 0.051533
vt 0.000000 0.000000
vt 1.000000 0.000000
vt 1.000000 1.000000
f 39/39 40/40 41/41
v 0.500000 0.240000 0.500000
v 0.602360 0.240000 0.051533
v 0.699587 0.240000 0.085554
vt 0.000000 0.000000
vt 1.000000 0.000000
vt 1.000000 1.000000
f 42/42 43/43 44/44
v 0.699587 0.020000 0.085554
v 0.786805 0.020000 0.140358
v 0.786805 0.240000 0.140358
v 0.699587 0.240000 0.085554
vt 0.071429 0.000000
vt 0.107143 0.000000
vt 0.107143 1.000000
vt 0.071429 1.000000
f 45/45 46/46 47/47 48/48
v 0.500000 0.020000 0.500000
v 0.786805 0.020000 0.140358
v 0.699587 0.020000 0.085554
vt 0.000000 0.000000
vt 1.000000 0.000000
vt 1.000000 1.000000
f 49/49 50/50 51/51
v 0.500000 0.240000 0.500000
v 0.699587 0.240000 0.085554
v 0.786805 0.240000 0.140358
vt 0.000000 0.000000
vt 1.000000 0.000000
vt 1.000000 1.000000
f 52/52 53/53 54/54
v 0.786805 0.020000 0.140358
v 0.859642 0.020000 0.213195
v 0.859642 0.240000 0.213195
v 0.786805 0.240000 0.140358
vt 0.107143 0.000000
vt 0.142857 0.000000
vt 0.142857 1.000000
vt 0.107143 1.000000
f 55/55 56/56 57/57 58/58
v 0.500000 0.020000 0.500000
v 0.859642 0.020000 0.213195
v 0.786805 0.020000 0.140358
vt 0.000000 0.000000
vt 1.000000 0.000000
vt 1.000000 1.000000
f 59/59 60/60 61/61
v 0.500000 0.240000 0.500000
v 0.786805 0.240000 0.140358
v 0.859642 0.240000 0.213195
vt 0.000000 0.000000
vt 1.000000 0.000000
vt 1.000000 1.000000
f 62/62 63/63 64/64
v 0.859642 0.020000 0.213195
v 0.914446 0.020000 0.300413
v 0.914446 0.240000 0.300413
v 0.859642 0.240000 0.213195
vt 0.142857 0.000000
vt 0.178571 0.000000
vt 0.178571 1.000000
vt 0.142857 1.000000
f 65/65 66/66 67/67 68/68
v 0.500000 0.020000 0.500000
v 0.914446 0.020000 0.300413
v 0.859642 0.020000 0.213195
vt 0.000000 0.000000
vt 1.000000 0.000000
vt 1.000000 1.000000
f 69/69 70/70 71/71
v 0.500000 0.240000 0.500000
v 0.859642 0.240000 0.213195
v 0.914446 0.240000 0.300413
vt 0.000000 0.000000
vt 1.000000 0.000000
vt 1.000000 1.000000
f 72/72 73/73 74/74
v 0.914446 0.020000 0.300413
v 0.948467 0.020000 0.397640
v 0.948467 0.240000 0.397640
v 0.914446 0.240000 0.300413
vt 0.178571 0.000000
vt 0.214286 0.000000
vt 0.214286 1.000000
vt 0.178571 1.000000
f 75/75 76/76 77/77 78/78
v 0.500000 0.020000 0.500000
v 0.948467 0.020000 0.397640
v 0.914446 0.020000 0.300413
vt 0.000000 0.000000
vt 1.000000 0.000000
vt 1.000000 1.000000
f 79/79 80/80 81/81
v 0.500000 0.240000 0.500000
v 0.914446 0.240000 0.300413
v 0.948467 0.240000 0.397640
vt 0.000000 0.000000
vt 1.000000 0.000000
vt 1.000000 1.000000
f 82/82 83/83 84/84
v 0.948467 0.020000 0.397640
v 0.960000 0.020000 0.500000
v 0.960000 0.240000 0.500000
v 0.948467 0.240000 0.397640
vt 0.214286 0.000000
vt 0.250000 0.000000
vt 0.250000 1.000000
vt 0.214286 1.000000
f 85/85 86/86 87/87 88/88
v 0.500000 0.020000 0.500000
v 0.960000 0.020000 0.500000
v 0.948467 0.020000 0.397640
vt 0.000000 0.000000
vt 1.000000 0.000000
vt 1.000000 1.000000
f 89/89 90/90 91/91
v 0.500000 0.240000 0.500000
v 0.948467 0.240000 0.397640
v 0.960000 0.240000 0.500000
vt 0.000000 0.000000
vt 1.000000 0.000000
vt 1.000000 1.000000
f 92/92 93/93 94/94
v 0.960000 0.020000 0.500000
v 0.948467 0.020000 0.602360
v 0.948467 0.240000 0.602360
v 0.960000 0.240000 0.500000
vt 0.250000 0.000000
vt 0.285714 0.000000
vt 0.285714 1.000000
vt 0.250000 1.000000
f 95/95 96/96 97/97 98/98
v 0.500000 0.020000 0.500000
v 0.948467 0.020000 0.602360
v 0.960000 0.020000 0.500000
vt 0.000000 0.000000
vt 1.000000 0.000000
vt 1.000000 1.000000
f 99/99 100/100 101/101
v 0.500000 0.240000 0.500000
v 0.960000 0.240000 0.500000
v 0.948467 0.240000 0.602360
vt 0.000000 0.000000
vt 1.000000 0.000000
vt 1.000000 1.000000
f 102/102 103/103 104/104
v 0.948467 0.020000 0.602360
v 0.914446 0.020000 0.699587
v 0.914446 0.240000 0.699587
v 0.948467 0.240000 0.602360
vt 0.285714 0.000000
vt 0.321429 0.000000
vt 0.321429 1.000000
vt 0.285714 1.000000
f 105/105 106/106 107/107 108/108
v 0.500000 0.020000 0.500000
v 0.914446 0.020000 0.699587
v 0.948467 0.020000 0.602360
vt 0.000000 0.000000
vt 1.000000 0.000000
vt 1.000000 1.000000
f 109/109 110/110 111/111
v 0.500000 0.240000 0.500000
v 0.948467 0.240000 0.602360
v 0.914446 0.240000 0.699587
vt 0.000000 0.000000
vt 1.000000 0.000000
vt 1.000000 1.000000
f 112/112 113/113 114/114
v 0.914446 0.020000 0.699587
v 0.859642 0.020000 0.786805
v 0.859642 0.240000 0.786805
v 0.914446 0.240000 0.699587
vt 0.321429 0.000000
vt 0.357143 0.000000
vt 0.357143 1.000000
vt 0.321429 1.000000
f 115/115 116/116 117/117 118/118
v 0.500000 0.020000 0.500000
v 0.859642 0.020000 0.786805
v 0.914446 0.020000 0.699587
vt 0.000000 0.000000
vt 1.000000 0.000000
vt 1.000000 1.000000
f 119/119 120/120 121/121
v 0.500000 0.240000 0.500000
v 0.914446 0.240000 0.699587
v 0.859642 0.240000 0.786805
vt 0.000000 0.000000
vt 1.000000 0.000000
vt 1.000000 1.000000
f 122/122 123/123 124/124
v 0.859642 0.020000 0.786805
v 0.786805 0.020000 0.859642
v 0.786805 0.240000 0.859642
v 0.859642 0.240000 0.786805
vt 0.357143 0.000000
vt 0.392857 0.000000
vt 0.392857 1.000000
vt 0.357143 1.000000
f 125/125 126/126 127/127 128/128
v 0.500000 0.020000 0.500000
v 0.786805 0.020000 0.859642
v 0.859642 0.020000 0.786805
vt 0.000000 0.000000
vt 1.000000 0.000000
vt 1.000000 1.000000
f 129/129 130/130 131/131
v 0.500000 0.240000 0.500000
v 0.859642 0.240000 0.786805
v 0.786805 0.240000 0.859642
vt 0.000000 0.000000
vt 1.000000 0.000000
vt 1.000000 1.000000
f 132/132 133/133 134/134
v 0.786805 0.020000 0.859642
v 0.699587 0.020000 0.914446
v 0.699587 0.240000 0.914446
v 0.786805 0.240000 0.859642
vt 0.392857 0.000000
vt 0.428571 0.000000
vt 0.428571 1.000000
vt 0.392857 1.000000
f 135/135 136/136 137/137 138/138
v 0.500000 0.020000 0.500000
v 0.699587 0.020000 0.914446
v 0.786805 0.020000 0.859642
vt 0.000000 0.000000
vt 1.000000 0.000000
vt 1.000000 1.000000
f 139/139 140/140 141/141
v 0.500000 0.240000 0.500000
v 0.786805 0.240000 0.859642
v 0.699587 0.240000 0.914446
vt 0.000000 0.000000
vt 1.000000 0.000000
vt 1.000000 1.000000
f 142/142 143/143 144/144
v 0.699587 0.020000 0.914446
v 0.602360 0.020000 0.948467
v 0.602360 0.240000 0.948467
v 0.699587 0.240000 0.914446
vt 0.428571 0.000000
vt 0.464286 0.000000
vt 0.464286 1.000000
vt 0.428571 1.000000
f 145/145 146/146 147/147 148/148
v 0.500000 0.020000 0.500000
v 0.602360 0.020000 0.948467
v 0.699587 0.020000 0.914446
vt 0.000000 0.000000
vt 1.000000 0.000000
vt 1.000000 1.000000
f 149/149 150/150 151/151
v 0.500000 0.240000 0.500000
v 0.699587 0.240000 0.914446
v 0.602360 0.240000 0.948467
vt 0.000000 0.000000
vt 1.000000 0.000000
vt 1.000000 1.000000
f 152/152 153/153 154/154
v 0.602360 0.020000 0.948467
v 0.500000 0.020000 0.960000
v 0.500000 0.240000 0.960000
v 0.602360 0.240000 0.948467
vt 0.464286 0.000000
vt 0.500000 0.000000
vt 0.500000 1.000000
vt 0.464286 1.000000
f 155/155 156/156 157/157 158/158
v 0.500000 0.020000 0.500000
v 0.500000 0.020000 0.960000
v 0.602360 0.020000 0.948467
vt 0.000000 0.000000
vt 1.000000 0.000000
vt 1.000000 1.000000
f 159/159 160/160 161/161
v 0.500000 0.240000 0.500000
v 0.602360 0.240000 0.948467
v 0.500000 0.240000 0.960000
vt 0.000000 0.000000
vt 1.000000 0.000000
vt 1.000000 1.000000
f 162/162 163/163 164/164
v 0.500000 0.020000 0.960000
v 0.397640 0.020000 0.948467
v 0.397640 0.240000 0.948467
v 0.500000 0.240000 0.960000
vt 0.500000 0.000000
vt 0.535714 0.000000
vt 0.535714 1.000000
vt 0.500000 1.000000
f 165/165 166/166 167/167 168/168
v 0.500000 0.020000 0.500000
v 0.397640 0.020000 0.948467
v 0.500000 0.020000 0.960000
vt 0.000000 0.000000
vt 1.000000 0.000000
vt 1.000000 1.000000
f 169/169 170/170 171/171
v 0.500000 0.240000 0.500000
v 0.500000 0.240000 0.960000
v 0.397640 0.240000 0.948467
vt 0.000000 0.000000
vt 1.000000 0.000000
vt 1.000000 1.000000
f 172/172 173/173 174/174
v 0.397640 0.020000 0.948467
v 0.300413 0.020000 0.914446
v 0.300413 0.240000 0.914446
v 0.397640 0.240000 0.948467
vt 0.535714 0.000000
vt 0.571429 0.000000
vt 0.571429 1.000000
vt 0.535714 1.000000
f 175/175 176/176 177/177 178/178
v 0.500000 0.020000 0.500000
v 0.300413 0.020000 0.914446
v 0.397640 0.020000 0.948467
vt 0.000000 0.000000
vt 1.000000 0.000000
vt 1.000000 1.000000
f 179/179 180/180 181/181
v 0.500000 0.240000 0.500000
v 0.397640 0.240000 0.948467
v 0.300413 0.240000 0.914446
vt 0.000000 0.000000
vt 1.000000 0.000000
vt 1.000000 1.000000
f 182/182 183/183 184/184
v 0.300413 0.020000 0.914446
v 0.213195 0.020000 0.859642
v 0.213195 0.240000 0.859642
v 0.300413 0.240000 0.914446
vt 0.571429 0.000000
vt 0.607143 0.000000
vt 0.607143 1.000000
vt 0.571429 1.000000
f 185/185 186/186 187/187 188/188
v 0.500000 0.020000 0.500000
v 0.213195 0.020000 0.859642
v 0.300413 0.020000 0.914446
vt 0.000000 0.000000
vt 1.000000 0.000000
vt 1.000000 1.000000
f 189/189 190/190 191/191
v 0.500000 0.240000 0.500000
v 0.300413 0.240000 0.914446
v 0.213195 0.240000 0.859642
vt 0.000000 0.000000
vt 1.000000 0.000000
vt 1.000000 1.000000
f 192/192 193/193 194/194
v 0.213195 0.020000 0.859642
v 0.140358 0.020000 0.786805
v 0.140358 0.240000 0.786805
v 0.213195 0.240000 0.859642
vt 0.607143 0.000000
vt 0.642857 0.000000
vt 0.642857 1.000000
vt 0.607143 1.000000
f 195/195 196/196 197/197 198/198
v 0.500000 0.020000 0.500000
v 0.140358 0.020000 0.786805
v 0.213195 0.020000 0.859642
vt 0.000000 0.000000
vt 1.000000 0.000000
vt 1.000000 1.000000
f 199/199 200/200 201/201
v 0.500000 0.240000 0.500000
v 0.213195 0.240000 0.859642
v 0.140358 0.240000 0.786805
vt 0.000000 0.000000
vt 1.000000 0.000000
vt 1.000000 1.000000
f 202/202 203/203 204/204
v 0.140358 0.020000 0.786805
v 0.085554 0.020000 0.699587
v 0.085554 0.240000 0.699587
v 0.140358 0.240000 0.786805
vt 0.642857 0.000000
vt 0.678571 0.000000
vt 0.678571 1.000000
vt 0.642857 1.000000
f 205/205 206/206 207/207 208/208
v 0.500000 0.020000 0.500000
v 0.085554 0.020000 0.699587
v 0.140358 0.020000 0.786805
vt 0.000000 0.000000
vt 1.000000 0.000000
vt 1.000000 1.000000
f 209/209 210/210 211/211
v 0.500000 0.240000 0.500000
v 0.140358 0.240000 0.786805
v 0.085554 0.240000 0.699587
vt 0.000000 0.000000
vt 1.000000 0.000000
vt 1.000000 1.000000
f 212/212 213/213 214/214
v 0.085554 0.020000 0.699587
v 0.051533 0.020000 0.602360
v 0.051533 0.240000 0.602360
v 0.085554 0.240000 0.699587
vt 0.678571 0.000000
vt 0.714286 0.000000
vt 0.714286 1.000000
vt 0.678571 1.000000
f 215/215 216/216 217/217 218/218
v 0.500000 0.020000 0.500000
v 0.051533 0.020000 0.602360
v 0.085554 0.020000 0.699587
vt 0.000000 0.000000
vt 1.000000 0.000000
vt 1.000000 1.000000
f 219/219 220/220 221/221
v 0.500000 0.240000 0.500000
v 0.085554 0.240000 0.699587
v 0.051533 0.240000 0.602360
vt 0.000000 0.000000
vt 1.000000 0.000000
vt 1.000000 1.000000
f 222/222 223/223 224/224
v 0.051533 0.020000 0.602360
v 0.040000 0.020000 0.500000
v 0.040000 0.240000 0.500000
v 0.051533 0.240000 0.602360
vt 0.714286 0.000000
vt 0.750000 0.000000
vt 0.750000 1.000000
vt 0.714286 1.000000
f 225/225 226/226 227/227 228/228
v 0.500000 0.020000 0.500000
v 0.040000 0.020000 0.500000
v 0.051533 0.020000 0.602360
vt 0.000000 0.000000
vt 1.000000 0.000000
vt 1.000000 1.000000
f 229/229 230/230 231/231
v 0.500000 0.240000 0.500000
v 0.051533 0.240000 0.602360
v 0.040000 0.240000 0.500000
vt 0.000000 0.000000
vt 1.000000 0.000000
vt 1.000000 1.000000
f 232/232 233/233 234/234
v 0.040000 0.020000 0.500000
v 0.051533 0.020000 0.397640
v 0.051533 0.240000 0.397640
v 0.040000 0.240000 0.500000
vt 0.750000 0.000000
vt 0.785714 0.000000
vt 0.785714 1.000000
vt 0.750000 1.000000
f 235/235 236/236 237/237 238/238
v 0.500000 0.020000 0.500000
v 0.051533 0.020000 0.397640
v 0.040000 0.020000 0.500000
vt 0.000000 0.000000
vt 1.000000 0.000000
vt 1.000000 1.000000
f 239/239 240/240 241/241
v 0.500000 0.240000 0.500000
v 0.040000 0.240000 0.500000
v 0.051533 0.240000 0.397640
vt 0.000000 0.000000
vt 1.000000 0.000000
vt 1.000000 1.000000
f 242/242 243/243 244/244
v 0.051533 0.020000 0.397640
v 0.085554 0.020000 0.300413
v 0.085554 0.240000 0.300413
v 0.051533 0.240000 0.397640
vt 0.785714 0.000000
vt 0.821429 0.000000
vt 0.821429 1.000000
vt 0.785714 1.000000
f 245/245 246/246 247/247 248/248
v 0.500000 0.020000 0.500000
v 0.085554 0.020000 0.300413
v 0.051533 0.020000 0.397640
vt 0.000000 0.000000
vt 1.000000 0.000000
vt 1.000000 1.000000
f 249/249 250/250 251/251
v 0.500000 0.240000 0.500000
v 0.051533 0.240000 0.397640
v 0.085554 0.240000 0.300413
vt 0.000000 0.000000
vt 1.000000 0.000000
vt 1.000000 1.000000
f 252/252 253/253 254/254
v 0.085554 0.020000 0.300413
v 0.140358 0.020000 0.213195
v 0.140358 0.240000 0.213195
v 0.085554 0.240000 0.300413
vt 0.821429 0.000000
vt 0.857143 0.000000
vt 0.857143 1.000000
vt 0.821429 1.000000
f 255/255 256/256 257/257 258/258
v 0.500000 0.020000 0.500000
v 0.140358 0.020000 0.213195
v 0.085554 0.020000 0.300413
vt 0.000000 0.000000
vt 1.000000 0.000000
vt 1.000000 1.000000
f 259/259 260/260 261/261
v 0.500000 0.240000 0.500000
v 0.085554 0.240000 0.300413
v 0.140358 0.240000 0.213195
vt 0.000000 0.000000
vt 1.000000 0.000000
vt 1.000000 1.000000
f 262/262 263/263 264/264
v 0.140358 0.020000 0.213195
v 0.213195 0.020000 0.140358
v 0.213195 0.240000 0.140358
v 0.140358 0.240000 0.213195
vt 0.857143 0.000000
vt 0.892857 0.000000
vt 0.892857 1.000000
vt 0.857143 1.000000
f 265/265 266/266 267/267 268/268
v 0.500000 0.020000 0.500000
v 0.213195 0.020000 0.140358
v 0.140358 0.020000 0.213195
vt 0.000000 0.000000
vt 1.000000 0.000000
vt 1.000000 1.000000
f 269/269 270/270 271/271
v 0.500000 0.240000 0.500000
v 0.140358 0.240000 0.213195
v 0.213195 0.240000 0.140358
vt 0.000000 0.000000
vt 1.000000 0.000000
vt 1.000000 1.000000
f 272/272 273/273 274/274
v 0.213195 0.020000 0.140358
v 0.300413 0.020000 0.085554
v 0.300413 0.240000 0.085554
v 0.213195 0.240000 0.140358
vt 0.892857 0.000000
vt 0.928571 0.000000
vt 0.928571 1.000000
vt 0.892857 1.000000
f 275/275 276/276 277/277 278/278
v 0.500000 0.020000 0.500000
v 0.300413 0.020000 0.085554
v 0.213195 0.020000 0.140358
vt 0.000000 0.000000
vt 1.000000 0.000000
vt 1.000000 1.000000
f 279/279 280/280 281/281
v 0.500000 0.240000 0.500000
v 0.213195 0.240000 0.140358
v 0.300413 0.240000 0.085554
vt 0.000000 0.000000
vt 1.000000 0.000000
vt 1.000000 1.000000
f 282/282 283/283 284/284
v 0.300413 0.020000 0.085554
v 0.397640 0.020000 0.051533
v 0.397640 0.240000 0.051533
v 0.300413 0.240000 0.085554
vt 0.928571 0.000000
vt 0.964286 0.000000
vt 0.964286 1.000000
vt 0.928571 1.000000
f 285/285 286/286 287/287 288/288
v 0.500000 0.020000 0.500000
v 0.397640 0.020000 0.051533
v 0.300413 0.020000 0.085554
vt 0.000000 0.000000
vt 1.000000 0.000000
vt 1.000000 1.000000
f 289/289 290/290 291/291
v 0.500000 0.240000 0.500000
v 0.300413 0.240000 0.085554
v 0.397640 0.240000 0.051533
vt 0.000000 0.000000
vt 1.000000 0.000000
vt 1.000000 1.000000
f 292/292 293/293 294/294
v 0.397640 0.020000 0.051533
v 0.500000 0.020000 0.040000
v 0.500000 0.240000 0.040000
v 0.397640 0.240000 0.051533
vt 0.964286 0.000000
vt 1.000000 0.000000
vt 1.000000 1.000000
vt 0.964286 1.000000
f 295/295 296/296 297/297 298/298
v 0.500000 0.020000 0.500000
v 0.500000 0.020000 0.040000
v 0.397640 0.020000 0.051533
vt 0.000000 0.000000
vt 1.000000 0.000000
vt 1.000000 1.000000
f 299/299 300/300 301/301
v 0.500000 0.240000 0.500000
v 0.397640 0.240000 0.051533
v 0.500000 0.240000 0.040000
vt 0.000000 0.000000
vt 1.000000 0.000000
vt 1.000000 1.000000
f 302/302 303/303 304/304
usemtl yellow
v 0.500000 0.260000 0.310000
v 0.582438 0.260000 0.328816
v 0.578625 0.281213 0.336733
v 0.500000 0.281213 0.318787
vt 0.000000 0.000000
vt 1.000000 0.000000
vt 1.000000 1.000000
vt 0.000000 1.000000
f 305/305 306/306 307/307 308/308
v 0.500000 0.281213 0.318787
v 0.578625 0.281213 0.336733
v 0.569421 0.290000 0.355845
v 0.500000 0.290000 0.340000
vt 0.000000 0.000000
vt 1.000000 0.000000
vt 1.000000 1.000000
vt 0.000000 1.000000
f 309/309 310/310 311/311 312/312
v 0.500000 0.290000 0.340000
v 0.569421 0.290000 0.355845
v 0.560217 0.281213 0.374957
v 0.500000 0.281213 0.361213
vt 0.000000 0.000000
vt 1.000000 0.000000
vt 1.000000 1.000000
vt 0.000000 1.000000
f 313/313 314/314 315/315 316/316
v 0.500000 0.281213 0.361213
v 0.560217 0.281213 0.374957
v 0.556405 0.260000 0.382874
v 0.500000 0.260000 0.370000
vt 0.000000 0.000000
vt 1.000000 0.000000
vt 1.000000 1.000000
vt 0.000000 1.000000
f 317/317 318/318 319/319 320/320
v 0.500000 0.260000 0.370000
v 0.556405 0.260000 0.382874
v 0.560217 0.238787 0.374957
v 0.500000 0.238787 0.361213
vt 0.000000 0.000000
vt 1.000000 0.000000
vt 1.000000 1.000000
vt 0.000000 1.000000
f 321/321 322/322 323/323 324/324
v 0.500000 0.238787 0.361213
v 0.560217 0.238787 0.374957
v 0.569421 0.230000 0.355845
v 0.500000 0.230000 0.340000
vt 0.000000 0.000000
vt 1.000000 0.000000
vt 1.000000 1.000000
vt 0.000000 1.000000
f 325/325 326/326 327/327 328/328
v 0.500000 0.230000 0.340000
v 0.569421 0.230000 0.355845
v 0.578625 0.238787 0.336733
v 0.500000 0.238787 0.318787
vt 0.000000 0.000000
vt 1.000000 0.000000
vt 1.000000 1.000000
vt 0.000000 1.000000
f 329/329 330/330 331/331 332/332
v 0.500000 0.238787 0.318787
v 0.578625 0.238787 0.336733
v 0.582438 0.260000 0.328816
v 0.500000 0.260000 0.310000
vt 0.000000 0.000000
vt 1.000000 0.000000
vt 1.000000 1.000000
vt 0.000000 1.000000
f 333/333 334/334 335/335 336/336
v 0.582438 0.260000 0.328816
v 0.648548 0.260000 0.381537
v 0.641678 0.281213 0.387015
v 0.578625 0.281213 0.336733
vt 0.000000 0.000000
vt 1.000000 0.000000
vt 1.000000 1.000000
vt 0.000000 1.000000
f 337/337 338/338 339/339 340/340
v 0.578625 0.281213 0.336733
v 0.641678 0.281213 0.387015
v 0.625093 0.290000 0.400242
v 0.569421 0.290000 0.355845
vt 0.000000 0.000000
vt 1.000000 0.000000
vt 1.000000 1.000000
vt 0.000000 1.000000
f 341/341 342/342 343/343 344/344
v 0.569421 0.290000 0.355845
v 0.625093 0.290000 0.400242
v 0.608508 0.281213 0.413468
v 0.560217 0.281213 0.374957
vt 0.000000 0.000000
vt 1.000000 0.000000
vt 1.000000 1.000000
vt 0.000000 1.000000
f 345/345 346/346 347/347 348/348
v 0.560217 0.281213 0.374957
v 0.608508 0.281213 0.413468
v 0.601638 0.260000 0.418946
v 0.556405 0.260000 0.382874
vt 0.000000 0.000000
vt 1.000000 0.000000
vt 1.000000 1.000000
vt 0.000000 1.000000
f 349/349 350/350 351/351 352/352
v 0.556405 0.260000 0.382874
v 0.601638 0.260000 0.418946
v 0.608508 0.238787 0.413468
v 0.560217 0.238787 0.374957
vt 0.000000 0.000000
vt 1.000000 0.000000
vt 1.000000 1.000000
vt 0.000000 1.000000
f 353/353 354/354 355/355 356/356
v 0.560217 0.238787 0.374957
v 0.608508 0.238787 0.413468
v 0.625093 0.230000 0.400242
v 0.569421 0.230000 0.355845
vt 0.000000 0.000000
vt 1.000000 0.000000
vt 1.000000 1.000000
vt 0.000000 1.000000
f 357/357 358/358 359/359 360/360
v 0.569421 0.230000 0.355845
v 0.625093 0.230000 0.400242
v 0.641678 0.238787 0.387015
v 0.578625 0.238787 0.336733
vt 0.000000 0.000000
vt 1.000000 0.000000
vt 1.000000 1.000000
vt 0.000000 1.000000
f 361/361 362/362 363/363 364/364
v 0.578625 0.238787 0.336733
v 0.641678 0.238787 0.387015
v 0.648548 0.260000 0.381537
v 0.582438 0.260000 0.328816
vt 0.000000 0.000000
vt 1.000000 0.000000
vt 1.000000 1.000000
vt 0.000000 1.000000
f 365/365 366/366 367/367 368/368
v 0.648548 0.260000 0.381537
v 0.685236 0.260000 0.457721
v 0.676670 0.281213 0.459676
v 0.641678 0.281213 0.387015
vt 0.000000 0.000000
vt 1.000000 0.000000
vt 1.000000 1.000000
vt 0.000000 1.000000
f 369/369 370/370 371/371 372/372
v 0.641678 0.281213 0.387015
v 0.676670 0.281213 0.459676
v 0.655988 0.290000 0.464397
v 0.625093 0.290000 0.400242
vt 0.000000 0.000000
vt 1.000000 0.000000
vt 1.000000 1.000000
vt 0.000000 1.000000
f 373/373 374/374 375/375 376/376
v 0.625093 0.290000 0.400242
v 0.655988 0.290000 0.464397
v 0.635307 0.281213 0.469117
v 0.608508 0.281213 0.413468
vt 0.000000 0.000000
vt 1.000000 0.000000
vt 1.000000 1.000000
vt 0.000000 1.000000
f 377/377 378/378 379/379 380/380
v 0.608508 0.281213 0.413468
v 0.635307 0.281213 0.469117
v 0.626741 0.260000 0.471072
v 0.601638 0.260000 0.418946
vt 0.000000 0.000000
vt 1.000000 0.000000
vt 1.000000 1.000000
vt 0.000000 1.000000
f 381/381 382/382 383/383 384/384
v 0.601638 0.260000 0.418946
v 0.626741 0.260000 0.471072
v 0.635307 0.238787 0.469117
v 0.608508 0.238787 0.413468
vt 0.000000 0.000000
vt 1.000000 0.000000
vt 1.000000 1.000000
vt 0.000000 1.000000
f 385/385 386/386 387/387 388/388
v 0.608508 0.238787 0.413468
v 0.635307 0.238787 0.469117
v 0.655988 0.230000 0.464397
v 0.625093 0.230000 0.400242
vt 0.000000 0.000000
vt 1.000000 0.000000
vt 1.000000 1.000000
vt 0.000000 1.000000
f 389/389 390/390 391/391 392/392
v 0.625093 0.230000 0.400242
v 0.655988 0.230000 0.464397
v 0.676670 0.238787 0.459676
v 0.641678 0.238787 0.387015
vt 0.000000 0.000000
vt 1.000000 0.000000
vt 1.000000 1.000000
vt 0.000000 1.000000
f 393/393 394/394 395/395 396/396
v 0.641678 0.238787 0.387015
v 0.676670 0.238787 0.459676
v 0.685236 0.260000 0.457721
v 0.648548 0.260000 0.381537
vt 0.000000 0.000000
vt 1.000000 0.000000
vt 1.000000 1.000000
vt 0.000000 1.000000
f 397/397 398/398 399/399 400/400
v 0.685236 0.260000 0.457721
v 0.685236 0.260000 0.542279
v 0.676670 0.281213 0.540324
v 0.676670 0.281213 0.459676
vt 0.000000 0.000000
vt 1.000000 0.000000
vt 1.000000 1.000000
vt 0.000000 1.000000
f 401/401 402/402 403/403 404/404
v 0.676670 0.281213 0.459676
v 0.676670 0.281213 0.540324
v 0.655988 0.290000 0.535603
v 0.655988 0.290000 0.464397
vt 0.000000 0.000000
vt 1.000000 0.000000
vt 1.000000 1.000000
vt 0.000000 1.000000
f 405/405 406/406 407/407 408/408
v 0.655988 0.290000 0.464397
v 0.655988 0.290000 0.535603
v 0.635307 0.281213 0.530883
v 0.635307 0.281213 0.469117
vt 0.000000 0.000000
vt 1.000000 0.000000
vt 1.000000 1.000000
vt 0.000000 1.000000
f 409/409 410/410 411/411 412/412
v 0.635307 0.281213 0.469117
v 0.635307 0.281213 0.530883
v 0.626741 0.260000 0.528928
v 0.626741 0.260000 0.471072
vt 0.000000 0.000000
vt 1.000000 0.000000
vt 1.000000 1.000000
vt 0.000000 1.000000
f 413/413 414/414 415/415 416/416
v 0.626741 0.260000 0.471072
v 0.626741 0.260000 0.528928
v 0.635307 0.238787 0.530883
v 0.635307 0.238787 0.469117
vt 0.000000 0.000000
vt 1.000000 0.000000
vt 1.000000 1.000000
vt 0.000000 1.000000
f 417/417 418/418 419/419 420/420
v 0.635307 0.238787 0.469117
v 0.635307 0.238787 0.530883
v 0.655988 0.230000 0.535603
v 0.655988 0.230000 0.464397
vt 0.000000 0.000000
vt 1.000000 0.000000
vt 1.000000 1.000000
vt 0.000000 1.000000
f 421/421 422/422 423/423 424/424
v 0.655988 0.230000 0.464397
v 0.655988 0.230000 0.535603
v 0.676670 0.238787 0.540324
v 0.676670 0.238787 0.459676
vt 0.000000 0.000000
vt 1.000000 0.000000
vt 1.000000 1.000000
vt 0.000000 1.000000
f 425/425 426/426 427/427 428/428
v 0.676670 0.238787 0.459676
v 0.676670 0.238787 0.540324
v 0.685236 0.260000 0.542279
v 0.685236 0.260000 0.457721
vt 0.000000 0.000000
vt 1.000000 0.000000
vt 1.000000 1.000000
vt 0.000000 1.000000
f 429/429 430/430 431/431 432/432
v 0.685236 0.260000 0.542279
v 0.648548 0.260000 0.618463
v 0.641678 0.281213 0.612985
v 0.676670 0.281213 0.540324
vt 0.000000 0.000000
vt 1.000000 0.000000
vt 1.000000 1.000000
vt 0.000000 1.000000
f 433/433 434/434 435/435 436/436
v 0.676670 0.281213 0.540324
v 0.641678 0.281213 0.612985
v 0.625093 0.290000 0.599758
v 0.655988 0.290000 0.535603
vt 0.000000 0.000000
vt 1.000000 0.000000
vt 1.000000 1.000000
vt 0.000000 1.000000
f 437/437 438/438 439/439 440/440
v 0.655988 0.290000 0.535603
v 0.625093 0.290000 0.599758
v 0.608508 0.281213 0.586532
v 0.635307 0.281213 0.530883
vt 0.000000 0.000000
vt 1.000000 0.000000
vt 1.000000 1.000000
vt 0.000000 1.000000
f 441/441 442/442 443/443 444/444
v 0.635307 0.281213 0.530883
v 0.608508 0.281213 0.586532
v 0.601638 0.260000 0.581054
v 0.626741 0.260000 0.528928
vt 0.000000 0.000000
vt 1.000000 0.000000
vt 1.000000 1.000000
vt 0.000000 1.000000
f 445/445 446/446 447/447 448/448
v 0.626741 0.260000 0.528928
v 0.601638 0.260000 0.581054
v 0.608508 0.238787 0.586532
v 0.635307 0.238787 0.530883
vt 0.000000 0.000000
vt 1.000000 0.000000
vt 1.000000 1.000000
vt 0.000000 1.000000
f 449/449 450/450 451/451 452/452
v 0.635307 0.238787 0.530883
v 0.608508 0.238787 0.586532
v 0.625093 0.230000 0.599758
v 0.655988 0.230000 0.535603
vt 0.000000 0.000000
vt 1.000000 0.000000
vt 1.000000 1.000000
vt 0.000000 1.000000
f 453/453 454/454 455/455 456/456
v 0.655988 0.230000 0.535603
v 0.625093 0.230000 0.599758
v 0.641678 0.238787 0.612985
v 0.676670 0.238787 0.540324
vt 0.000000 0.000000
vt 1.000000 0.000000
vt 1.000000 1.000000
vt 0.000000 1.000000
f 457/457 458/458 459/459 460/460
v 0.676670 0.238787 0.540324
v 0.641678 0.238787 0.612985
v 0.648548 0.260000 0.618463
v 0.685236 0.260000 0.542279
vt 0.000000 0.000000
vt 1.000000 0.000000
vt 1.000000 1.000000
vt 0.000000 1.000000
f 461/461 462/462 463/463 464/464
v 0.648548 0.260000 0.618463
v 0.582438 0.260000 0.671184
v 0.578625 0.281213 0.663267
v 0.641678 0.281213 0.612985
vt 0.000000 0.000000
vt 1.000000 0.000000
vt 1.000000 1.000000
vt 0.000000 1.000000
f 465/465 466/466 467/467 468/468
v 0.641678 0.281213 0.612985
v 0.578625 0.281213 0.663267
v 0.569421 0.290000 0.644155
v 0.625093 0.290000 0.599758
vt 0.000000 0.000000
vt 1.000000 0.000000
vt 1.000000 1.000000
vt 0.000000 1.000000
f 469/469 470/470 471/471 472/472
v 0.625093 0.290000 0.599758
v 0.569421 0.290000 0.644155
v 0.560217 0.281213 0.625043
v 0.608508 0.281213 0.586532
vt 0.000000 0.000000
vt 1.000000 0.000000
vt 1.000000 1.000000
vt 0.000000 1.000000
f 473/473 474/474 475/475 476/476
v 0.608508 0.281213 0.586532
v 0.560217 0.281213 0.625043
v 0.556405 0.260000 0.617126
v 0.601638 0.260000 0.581054
vt 0.000000 0.000000
vt 1.000000 0.000000
vt 1.000000 1.000000
vt 0.000000 1.000000
f 477/477 478/478 479/479 480/480
v 0.601638 0.260000 0.581054
v 0.556405 0.260000 0.617126
v 0.560217 0.238787 0.625043
v 0.608508 0.238787 0.586532
vt 0.000000 0.000000
vt 1.000000 0.000000
vt 1.000000 1.000000
vt 0.000000 1.000000
f 481/481 482/482 483/483 484/484
v 0.608508 0.238787 0.586532
v 0.560217 0.238787 0.625043
v 0.569421 0.230000 0.644155
v 0.625093 0.230000 0.599758
vt 0.000000 0.000000
vt 1.000000 0.000000
vt 1.000000 1.000000
vt 0.000000 1.000000
f 485/485 486/486 487/487 488/488
v 0.625093 0.230000 0.599758
v 0.569421 0.230000 0.644155
v 0.578625 0.238787 0.663267
v 0.641678 0.238787 0.612985
vt 0.000000 0.000000
vt 1.000000 0.000000
vt 1.000000 1.000000
vt 0.000000 1.000000
f 489/489 490/490 491/491 492/492
v 0.641678 0.238787 0.612985
v 0.578625 0.238787 0.663267
v 0.582438 0.260000 0.671184
v 0.648548 0.260000 0.618463
vt 0.000000 0.000000
vt 1.000000 0.000000
vt 1.000000 1.000000
vt 0.000000 1.000000
f 493/493 494/494 495/495 496/496
v 0.582438 0.260000 0.671184
v 0.500000 0.260000 0.690000
v 0.500000 0.281213 0.681213
v 0.578625 0.281213 0.663267
vt 0.000000 0.000000
vt 1.000000 0.000000
vt 1.000000 1.000000
vt 0.000000 1.000000
f 497/497 498/498 499/499 500/500
v 0.578625 0.281213 0.663267
v 0.500000 0.281213 0.681213
v 0.500000 0.290000 0.660000
v 0.569421 0.290000 0.644155
vt 0.000000 0.000000
vt 1.000000 0.000000
vt 1.000000 1.000000
vt 0.000000 1.000000
f 501/501 502/502 503/503 504/504
v 0.569421 0.290000 0.644155
v 0.500000 0.290000 0.660000
v 0.500000 0.281213 0.638787
v 0.560217 0.281213 0.625043
vt 0.000000 0.000000
vt 1.000000 0.000000
vt 1.000000 1.000000
vt 0.000000 1.000000
f 505/505 506/506 507/507 508/508
v 0.560217 0.281213 0.625043
v 0.500000 0.281213 0.638787
v 0.500000 0.260000 0.630000
v 0.556405 0.260000 0.617126
vt 0.000000 0.000000
vt 1.000000 0.000000
vt 1.000000 1.000000
vt 0.000000 1.000000
f 509/509 510/510 511/511 512/512
v 0.556405 0.260000 0.617126
v 0.500000 0.260000 0.630000
v 0.500000 0.238787 0.638787
v 0.560217 0.238787 0.625043
vt 0.000000 0.000000
vt 1.000000 0.000000
vt 1.000000 1.000000
vt 0.000000 1.000000
f 513/513 514/514 515/515 516/516
v 0.560217 0.238787 0.625043
v 0.500000 0.238787 0.638787
v 0.500000 0.230000 0.660000
v 0.569421 0.230000 0.644155
vt 0.000000 0.000000
vt 1.000000 0.000000
vt 1.000000 1.000000
vt 0.000000 1.000000
f 517/517 518/518 519/519 520/520
v 0.569421 0.230000 0.644155
v 0.500000 0.230000 0.660000
v 0.500000 0.238787 0.681213
v 0.578625 0.238787 0.663267
vt 0.000000 0.000000
vt 1.000000 0.000000
vt 1.000000 1.000000
vt 0.000000 1.000000
f 521/521 522/522 523/523 524/524
v 0.578625 0.238787 0.663267
v 0.500000 0.238787 0.681213
v 0.500000 0.260000 0.690000
v 0.582438 0.260000 0.671184
vt 0.000000 0.000000
vt 1.000000 0.000000
vt 1.000000 1.000000
vt 0.000000 1.000000
f 525/525 526/526 527/527 528/528
v 0.500000 0.260000 0.690000
v 0.417562 0.260000 0.671184
v 0.421375 0.281213 0.663267
v 0.500000 0.281213 0.681213
vt 0.000000 0.000000
vt 1.000000 0.000000
vt 1.000000 1.000000
vt 0.000000 1.000000
f 529/529 530/530 531/531 532/532
v 0.500000 0.281213 0.681213
v 0.421375 0.281213 0.663267
v 0.430579 0.290000 0.644155
v 0.500000 0.290000 0.660000
vt 0.000000 0.000000
vt 1.000000 0.000000
vt 1.000000 1.000000
vt 0.000000 1.000000
f 533/533 534/534 535/535 536/536
v 0.500000 0.290000 0.660000
v 0.430579 0.290000 0.644155
v 0.439783 0.281213 0.625043
v 0.500000 0.281213 0.638787
vt 0.000000 0.000000
vt 1.000000 0.000000
vt 1.000000 1.000000
vt 0.000000 1.000000
f 537/537 538/538 539/539 540/540
v 0.500000 0.281213 0.638787
v 0.439783 0.281213 0.625043
v 0.443595 0.260000 0.617126
v 0.500000 0.260000 0.630000
vt 0.000000 0.000000
vt 1.000000 0.000000
vt 1.000000 1.000000
vt 0.000000 1.000000
f 541/541 542/542 543/543 544/544
v 0.500000 0.260000 0.630000
v 0.443595 0.260000 0.617126
v 0.439783 0.238787 0.625043
v 0.500000 0.238787 0.638787
vt 0.000000 0.000000
vt 1.000000 0.000000
vt 1.000000 1.000000
vt 0.000000 1.000000
f 545/545 546/546 547/547 548/548
v 0.500000 0.238787 0.638787
v 0.439783 0.238787 0.625043
v 0.430579 0.230000 0.644155
v 0.500000 0.230000 0.660000
vt 0.000000 0.000000
vt 1.000000 0.000000
vt 1.000000 1.000000
vt 0.000000 1.000000
f 549/549 550/550 551/551 552/552
v 0.500000 0.230000 0.660000
v 0.430579 0.230000 0.644155
v 0.421375 0.238787 0.663267
v 0.500000 0.238787 0.681213
vt 0.000000 0.000000
vt 1.000000 0.000000
vt 1.000000 1.000000
vt 0.000000 1.000000
f 553/553 554/554 555/555 556/556
v 0.500000 0.238787 0.681213
v 0.421375 0.238787 0.663267
v 0.417562 0.260000 0.671184
v 0.500000 0.260000 0.690000
vt 0.000000 0.000000
vt 1.000000 0.000000
vt 1.000000 1.000000
vt 0.000000 1.000000
f 557/557 558/558 559/559 560/560
v 0.417562 0.260000 0.671184
v 0.351452 0.260000 0.618463
v 0.358322 0.281213 0.612985
v 0.421375 0.281213 0.663267
vt 0.000000 0.000000
vt 1.000000 0.000000
vt 1.000000 1.000000
vt 0.000000 1.000000
f 561/561 562/562 563/563 564/564
v 0.421375 0.281213 0.663267
v 0.358322 0.281213 0.612985
v 0.374907 0.290000 0.599758
v 0.430579 0.290000 0.644155
vt 0.000000 0.000000
vt 1.000000 0.000000
vt 1.000000 1.000000
vt 0.000000 1.000000
f 565/565 566/566 567/567 568/568
v 0.430579 0.290000 0.644155
v 0.374907 0.290000 0.599758
v 0.391492 0.281213 0.586532
v 0.439783 0.281213 0.625043
vt 0.000000 0.000000
vt 1.000000 0.000000
vt 1.000000 1.000000
vt 0.000000 1.000000
f 569/569 570/570 571/571 572/572
v 0.439783 0.281213 0.625043
v 0.391492 0.281213 0.586532
v 0.398362 0.260000 0.581054
v 0.443595 0.260000 0.617126
vt 0.000000 0.000000
vt 1.000000 0.000000
vt 1.000000 1.000000
vt 0.000000 1.000000
f 573/573 574/574 575/575 576/576
v 0.443595 0.260000 0.617126
v 0.398362 0.260000 0.581054
v 0.391492 0.238787 0.586532
v 0.439783 0.238787 0.625043
vt 0.000000 0.000000
vt 1.000000 0.000000
vt 1.000000 1.000000
vt 0.000000 1.000000
f 577/577 578/578 579/579 580/580
v 0.439783 0.238787 0.625043
v 0.391492 0.238787 0.586532
v 0.374907 0.230000 0.599758
v 0.430579 0.230000 0.644155
vt 0.000000 0.000000
vt 1.000000 0.000000
vt 1.000000 1.000000
vt 0.000000 1.000000
f 581/581 582/582 583/583 584/584
v 0.430579 0.230000 0.644155
v 0.374907 0.230000 0.599758
v 0.358322 0.238787 0.612985
v 0.421375 0.238787 0.663267
vt 0.000000 0.000000
vt 1.000000 0.000000
vt 1.000000 1.000000
vt 0.000000 1.000000
f 585/585 586/586 587/587 588/588
v 0.421375 0.238787 0.663267
v 0.358322 0.238787 0.612985
v 0.351452 0.260000 0.618463
v 0.417562 0.260000 0.671184
vt 0.000000 0.000000
vt 1.000000 0.000000
vt 1.000000 1.000000
vt 0.000000 1.000000
f 589/589 590/590 591/591 592/592
v 0.351452 0.260000 0.618463
v 0.314764 0.260000 0.542279
v 0.323330 0.281213 0.540324
v 0.358322 0.281213 0.612985
vt 0.000000 0.000000
vt 1.000000 0.000000
vt 1.000000 1.000000
vt 0.000000 1.000000
f 593/593 594/594 595/595 596/596
v 0.358322 0.281213 0.612985
v 0.323330 0.281213 0.540324
v 0.344012 0.290000 0.535603
v 0.374907 0.290000 0.599758
vt 0.000000 0.000000
vt 1.000000 0.000000
vt 1.000000 1.000000
vt 0.000000 1.000000
f 597/597 598/598 599/599 600/600
v 0.374907 0.290000 0.599758
v 0.344012 0.290000 0.535603
v 0.364693 0.281213 0.530883
v 0.391492 0.281213 0.586532
vt 0.000000 0.000000
vt 1.000000 0.000000
vt 1.000000 1.000000
vt 0.000000 1.000000
f 601/601 602/602 603/603 604/604
v 0.391492 0.281213 0.586532
v 0.364693 0.281213 0.530883
v 0.373259 0.260000 0.528928
v 0.398362 0.260000 0.581054
vt 0.000000 0.000000
vt 1.000000 0.000000
vt 1.000000 1.000000
vt 0.000000 1.000000
f 605/605 606/606 607/607 608/608
v 0.398362 0.260000 0.581054
v 0.373259 0.260000 0.528928
v 0.364693 0.238787 0.530883
v 0.391492 0.238787 0.586532
vt 0.000000 0.000000
vt 1.000000 0.000000
vt 1.000000 1.000000
vt 0.000000 1.000000
f 609/609 610/610 611/611 612/612
v 0.391492 0.238787 0.586532
v 0.364693 0.238787 0.530883
v 0.344012 0.230000 0.535603
v 0.374907 0.230000 0.599758
vt 0.000000 0.000000
vt 1.000000 0.000000
vt 1.000000 1.000000
vt 0.000000 1.000000
f 613/613 614/614 615/615 616/616
v 0.374907 0.230000 0.599758
v 0.344012 0.230000 0.535603
v 0.323330 0.238787 0.540324
v 0.358322 0.238787 0.612985
vt 0.000000 0.000000
vt 1.000000 0.000000
vt 1.000000 1.000000
vt 0.000000 1.000000
f 617/617 618/618 619/619 620/620
v 0.358322 0.238787 0.612985
v 0.323330 0.238787 0.540324
v 0.314764 0.260000 0.542279
v 0.351452 0.260000 0.618463
vt 0.000000 0.000000
vt 1.000000 0.000000
vt 1.000000 1.000000
vt 0.000000 1.000000
f 621/621 622/622 623/623 624/624
v 0.314764 0.260000 0.542279
v 0.314764 0.260000 0.457721
v 0.323330 0.281213 0.459676
v 0.323330 0.281213 0.540324
vt 0.000000 0.000000
vt 1.000000 0.000000
vt 1.000000 1.000000
vt 0.000000 1.000000
f 625/625 626/626 627/627 628/628
v 0.323330 0.281213 0.540324
v 0.323330 0.281213 0.459676
v 0.344012 0.290000 0.464397
v 0.344012 0.290000 0.535603
vt 0.000000 0.000000
vt 1.000000 0.000000
vt 1.000000 1.000000
vt 0.000000 1.000000
f 629/629 630/630 631/631 632/632
v 0.344012 0.290000 0.535603
v 0.344012 0.290000 0.464397
v 0.364693 0.281213 0.469117
v 0.364693 0.281213 0.530883
vt 0.000000 0.000000
vt 1.000000 0.000000
vt 1.000000 1.000000
vt 0.000000 1.000000
f 633/633 634/634 635/635 636/636
v 0.364693 0.281213 0.530883
v 0.364693 0.281213 0.469117
v 0.373259 0.260000 0.471072
v 0.373259 0.260000 0.528928
vt 0.000000 0.000000
vt 1.000000 0.000000
vt 1.000000 1.000000
vt 0.000000 1.000000
f 637/637 638/638 639/639 640/640
v 0.373259 0.260000 0.528928
v 0.373259 0.260000 0.471072
v 0.364693 0.238787 0.469117
v 0.364693 0.238787 0.530883
vt 0.000000 0.000000
vt 1.000000 0.000000
vt 1.000000 1.000000
vt 0.000000 1.000000
f 641/641 642/642 643/643 644/644
v 0.364693 0.238787 0.530883
v 0.364693 0.238787 0.469117
v 0.344012 0.230000 0.464397
v 0.344012 0.230000 0.535603
vt 0.000000 0.000000
vt 1.000000 0.000000
vt 1.000000 1.000000
vt 0.000000 1.000000
f 645/645 646/646 647/647 648/648
v 0.344012 0.230000 0.535603
v 0.344012 0.230000 0.464397
v 0.323330 0.238787 0.459676
v 0.323330 0.238787 0.540324
vt 0.000000 0.000000
vt 1.000000 0.000000
vt 1.000000 1.000000
vt 0.000000 1.000000
f 649/649 650/650 651/651 652/652
v 0.323330 0.238787 0.540324
v 0.323330 0.238787 0.459676
v 0.314764 0.260000 0.457721
v 0.314764 0.260000 0.542279
vt 0.000000 0.000000
vt 1.000000 0.000000
vt 1.000000 1.000000
vt 0.000000 1.000000
f 653/653 654/654 655/655 656/656
v 0.314764 0.260000 0.457721
v 0.351452 0.260000 0.381537
v 0.358322 0.281213 0.387015
v 0.323330 0.281213 0.459676
vt 0.000000 0.000000
vt 1.000000 0.000000
vt 1.000000 1.000000
vt 0.000000 1.000000
f 657/657 658/658 659/659 660/660
v 0.323330 0.281213 0.459676
v 0.358322 0.281213 0.387015
v 0.374907 0.290000 0.400242
v 0.344012 0.290000 0.464397
vt 0.000000 0.000000
vt 1.000000 0.000000
vt 1.000000 1.000000
vt 0.000000 1.000000
f 661/661 662/662 663/663 664/664
v 0.344012 0.290000 0.464397
v 0.374907 0.290000 0.400242
v 0.391492 0.281213 0.413468
v 0.364693 0.281213 0.469117
vt 0.000000 0.000000
vt 1.000000 0.000000
vt 1.000000 1.000000
vt 0.000000 1.000000
f 665/665 666/666 667/667 668/668
v 0.364693 0.281213 0.469117
v 0.391492 0.281213 0.413468
v 0.398362 0.260000 0.418946
v 0.373259 0.260000 0.471072
vt 0.000000 0.000000
vt 1.000000 0.000000
vt 1.000000 1.000000
vt 0.000000 1.000000
f 669/669 670/670 671/671 672/672
v 0.373259 0.260000 0.471072
v 0.398362 0.260000 0.418946
v 0.391492 0.238787 0.413468
v 0.364693 0.238787 0.469117
vt 0.000000 0.000000
vt 1.000000 0.000000
vt 1.000000 1.000000
vt 0.000000 1.000000
f 673/673 674/674 675/675 676/676
v 0.364693 0.238787 0.469117
v 0.391492 0.238787 0.413468
v 0.374907 0.230000 0.400242
v 0.344012 0.230000 0.464397
vt 0.000000 0.000000
vt 1.000000 0.000000
vt 1.000000 1.000000
vt 0.000000 1.000000
f 677/677 678/678 679/679 680/680
v 0.344012 0.230000 0.464397
v 0.374907 0.230000 0.400242
v 0.358322 0.238787 0.387015
v 0.323330 0.238787 0.459676
vt 0.000000 0.000000
vt 1.000000 0.000000
vt 1.000000 1.000000
vt 0.000000 1.000000
f 681/681 682/682 683/683 684/684
v 0.323330 0.238787 0.459676
v 0.358322 0.238787 0.387015
v 0.351452 0.260000 0.381537
v 0.314764 0.260000 0.457721
vt 0.000000 0.000000
vt 1.000000 0.000000
vt 1.000000 1.000000
vt 0.000000 1.000000
f 685/685 686/686 687/687 688/688
v 0.351452 0.260000 0.381537
v 0.417562 0.260000 0.328816
v 0.421375 0.281213 0.336733
v 0.358322 0.281213 0.387015
vt 0.000000 0.000000
vt 1.000000 0.000000
vt 1.000000 1.000000
vt 0.000000 1.000000
f 689/689 690/690 691/691 692/692
v 0.358322 0.281213 0.387015
v 0.421375 0.281213 0.336733
v 0.430579 0.290000 0.355845
v 0.374907 0.290000 0.400242
vt 0.000000 0.000000
vt 1.000000 0.000000
vt 1.000000 1.000000
vt 0.000000 1.000000
f 693/693 694/694 695/695 696/696
v 0.374907 0.290000 0.400242
v 0.430579 0.290000 0.355845
v 0.439783 0.281213 0.374957
v 0.391492 0.281213 0.413468
vt 0.000000 0.000000
vt 1.000000 0.000000
vt 1.000000 1.000000
vt 0.000000 1.000000
f 697/697 698/698 699/699 700/700
v 0.391492 0.281213 0.413468
v 0.439783 0.281213 0.374957
v 0.443595 0.260000 0.382874
v 0.398362 0.260000 0.418946
vt 0.000000 0.000000
vt 1.000000 0.000000
vt 1.000000 1.000000
vt 0.000000 1.000000
f 701/701 702/702 703/703 704/704
v 0.398362 0.260000 0.418946
v 0.443595 0.260000 0.382874
v 0.439783 0.238787 0.374957
v 0.391492 0.238787 0.413468
vt 0.000000 0.000000
vt 1.000000 0.000000
vt 1.000000 1.000000
vt 0.000000 1.000000
f 705/705 706/706 707/707 708/708
v 0.391492 0.238787 0.413468
v 0.439783 0.238787 0.374957
v 0.430579 0.230000 0.355845
v 0.374907 0.230000 0.400242
vt 0.000000 0.000000
vt 1.000000 0.000000
vt 1.000000 1.000000
vt 0.000000 1.000000
f 709/709 710/710 711/711 712/712
v 0.374907 0.230000 0.400242
v 0.430579 0.230000 0.355845
v 0.421375 0.238787 0.336733
v 0.358322 0.238787 0.387015
vt 0.000000 0.000000
vt 1.000000 0.000000
vt 1.000000 1.000000
vt 0.000000 1.000000
f 713/713 714/714 715/715 716/716
v 0.358322 0.238787 0.387015
v 0.421375 0.238787 0.336733
v 0.417562 0.260000 0.328816
v 0.351452 0.260000 0.381537
vt 0.000000 0.000000
vt 1.000000 0.000000
vt 1.000000 1.000000
vt 0.000000 1.000000
f 717/717 718/718 719/719 720/720
v 0.417562 0.260000 0.328816
v 0.500000 0.260000 0.310000
v 0.500000 0.281213 0.318787
v 0.421375 0.281213 0.336733
vt 0.000000 0.000000
vt 1.000000 0.000000
vt 1.000000 1.000000
vt 0.000000 1.000000
f 721/721 722/722 723/723 724/724
v 0.421375 0.281213 0.336733
v 0.500000 0.281213 0.318787
v 0.500000 0.290000 0.340000
v 0.430579 0.290000 0.355845
vt 0.000000 0.000000
vt 1.000000 0.000000
vt 1.000000 1.000000
vt 0.000000 1.000000
f 725/725 726/726 727/727 728/728
v 0.430579 0.290000 0.355845
v 0.500000 0.290000 0.340000
v 0.500000 0.281213 0.361213
v 0.439783 0.281213 0.374957
vt 0.000000 0.000000
vt 1.000000 0.000000
vt 1.000000 1.000000
vt 0.000000 1.000000
f 729/729 730/730 731/731 732/732
v 0.439783 0.281213 0.374957
v 0.500000 0.281213 0.361213
v 0.500000 0.260000 0.370000
v 0.443595 0.260000 0.382874
vt 0.000000 0.000000
vt 1.000000 0.000000
vt 1.000000 1.000000
vt 0.000000 1.000000
f 733/733 734/734 735/735 736/736
v 0.443595 0.260000 0.382874
v 0.500000 0.260000 0.370000
v 0.500000 0.238787 0.361213
v 0.439783 0.238787 0.374957
vt 0.000000 0.000000
vt 1.000000 0.000000
vt 1.000000 1.000000
vt 0.000000 1.000000
f 737/737 738/738 739/739 740/740
v 0.439783 0.238787 0.374957
v 0.500000 0.238787 0.361213
v 0.500000 0.230000 0.340000
v 0.430579 0.230000 0.355845
vt 0.000000 0.000000
vt 1.000000 0.000000
vt 1.000000 1.000000
vt 0.000000 1.000000
f 741/741 742/742 743/743 744/744
v 0.430579 0.230000 0.355845
v 0.500000 0.230000 0.340000
v 0.500000 0.238787 0.318787
v 0.421375 0.238787 0.336733
vt 0.000000 0.000000
vt 1.000000 0.000000
vt 1.000000 1.000000
vt 0.000000 1.000000
f 745/745 746/746 747/747 748/748
v 0.421375 0.238787 0.336733
v 0.500000 0.238787 0.318787
v 0.500000 0.260000 0.310000
v 0.417562 0.260000 0.328816
vt 0.000000 0.000000
vt 1.000000 0.000000
vt 1.000000 1.000000
vt 0.000000 1.000000
f 749/749 750/750 751/751 752/752
