mtllib submarine_control.mtl
o submarine_control
s 1
usemtl navy
v 0.100000 0.000000 0.160000
v 0.900000 0.000000 0.160000
v 0.900000 0.400000 0.160000
v 0.100000 0.400000 0.160000
vt 0.000000 0.000000
vt 1.000000 0.000000
vt 1.000000 1.000000
vt 0.000000 1.000000
f 1/1 2/2 3/3 4/4
v 0.900000 0.000000 0.880000
v 0.100000 0.000000 0.880000
v 0.100000 0.400000 0.880000
v 0.900000 0.400000 0.880000
vt 0.000000 0.000000
vt 1.000000 0.000000
vt 1.000000 1.000000
vt 0.000000 1.000000
f 5/5 6/6 7/7 8/8
v 0.100000 0.000000 0.880000
v 0.100000 0.000000 0.160000
v 0.100000 0.400000 0.160000
v 0.100000 0.400000 0.880000
vt 0.000000 0.000000
vt 1.000000 0.000000
vt 1.000000 1.000000
vt 0.000000 1.000000
f 9/9 10/10 11/11 12/12
v 0.900000 0.000000 0.160000
v 0.900000 0.000000 0.880000
v 0.900000 0.400000 0.880000
v 0.900000 0.400000 0.160000
vt 0.000000 0.000000
vt 1.000000 0.000000
vt 1.000000 1.000000
vt 0.000000 1.000000
f 13/13 14/14 15/15 16/16
v 0.100000 0.400000 0.160000
v 0.900000 0.400000 0.160000
v 0.900000 0.400000 0.880000
v 0.100000 0.400000 0.880000
vt 0.000000 0.000000
vt 1.000000 0.000000
vt 1.000000 1.000000
vt 0.000000 1.000000
f 17/17 18/18 19/19 20/20
v 0.100000 0.000000 0.880000
v 0.900000 0.000000 0.880000
v 0.900000 0.000000 0.160000
v 0.100000 0.000000 0.160000
vt 0.000000 0.000000
vt 1.000000 0.000000
vt 1.000000 1.000000
vt 0.000000 1.000000
f 21/21 22/22 23/23 24/24
usemtl body
v 0.500000 0.400000 0.520000
v 0.522961 0.400000 0.524567
v 0.522961 1.200000 0.524567
v 0.500000 1.200000 0.520000
vt 0.000000 0.000000
vt 0.062500 0.000000
vt 0.062500 1.000000
vt 0.000000 1.000000
f 25/25 26/26 27/27 28/28
v 0.500000 0.400000 0.580000
v 0.522961 0.400000 0.524567
v 0.500000 0.400000 0.520000
vt 0.000000 0.000000
vt 1.000000 0.000000
vt 1.000000 1.000000
f 29/29 30/30 31/31
v 0.500000 1.200000 0.580000
v 0.500000 1.200000 0.520000
v 0.522961 1.200000 0.524567
vt 0.000000 0.000000
vt 1.000000 0.000000
vt 1.000000 1.000000
f 32/32 33/33 34/34
v 0.522961 0.400000 0.524567
v 0.542426 0.400000 0.537574
v 0.542426 1.200000 0.537574
v 0.522961 1.200000 0.524567
vt 0.062500 0.000000
vt 0.125000 0.000000
vt 0.125000 1.000000
vt 0.062500 1.000000
f 35/35 36/36 37/37 38/38
v 0.500000 0.400000 0.580000
v 0.542426 0.400000 0.537574
v 0.522961 0.400000 0.524567
vt 0.000000 0.000000
vt 1.000000 0.000000
vt 1.000000 1.000000
f 39/39 40/40 41/41
v 0.500000 1.200000 0.580000
v 0.522961 1.200000 0.524567
v 0.542426 1.200000 0.537574
vt 0.000000 0.000000
vt 1.000000 0.000000
vt 1.000000 1.000000
f 42/42 43/43 44/44
v 0.542426 0.400000 0.537574
v 0.555433 0.400000 0.557039
v 0.555433 1.200000 0.557039
v 0.542426 1.200000 0.537574
vt 0.125000 0.000000
vt 0.187500 0.000000
vt 0.187500 1.000000
vt 0.125000 1.000000
f 45/45 46/46 47/47 48/48
v 0.500000 0.400000 0.580000
v 0.555433 0.400000 0.557039
v 0.542426 0.400000 0.537574
vt 0.000000 0.000000
vt 1.000000 0.000000
vt 1.000000 1.000000
f 49/49 50/50 51/51
v 0.500000 1.200000 0.580000
v 0.542426 1.200000 0.537574
v 0.555433 1.200000 0.557039
vt 0.000000 0.000000
vt 1.000000 0.000000
vt 1.000000 1.000000
f 52/52 53/53 54/54
v 0.555433 0.400000 0.557039
v 0.560000 0.400000 0.580000
v 0.560000 1.200000 0.580000
v 0.555433 1.200000 0.557039
vt 0.187500 0.000000
vt 0.250000 0.000000
vt 0.250000 1.000000
vt 0.187500 1.000000
f 55/55 56/56 57/57 58/58
v 0.500000 0.400000 0.580000
v 0.560000 0.400000 0.580000
v 0.555433 0.400000 0.557039
vt 0.000000 0.000000
vt 1.000000 0.000000
vt 1.000000 1.000000
f 59/59 60/60 61/61
v 0.500000 1.200000 0.580000
v 0.555433 1.200000 0.557039
v 0.560000 1.200000 0.580000
vt 0.000000 0.000000
vt 1.000000 0.000000
vt 1.000000 1.000000
f 62/62 63/63 64/64
v 0.560000 0.400000 0.580000
v 0.555433 0.400000 0.602961
v 0.555433 1.200000 0.602961
v 0.560000 1.200000 0.580000
vt 0.250000 0.000000
vt 0.312500 0.000000
vt 0.312500 1.000000
vt 0.250000 1.000000
f 65/65 66/66 67/67 68/68
v 0.500000 0.400000 0.580000
v 0.555433 0.400000 0.602961
v 0.560000 0.400000 0.580000
vt 0.000000 0.000000
vt 1.000000 0.000000
vt 1.000000 1.000000
f 69/69 70/70 71/71
v 0.500000 1.200000 0.580000
v 0.560000 1.200000 0.580000
v 0.555433 1.200000 0.602961
vt 0.000000 0.000000
vt 1.000000 0.000000
vt 1.000000 1.000000
f 72/72 73/73 74/74
v 0.555433 0.400000 0.602961
v 0.542426 0.400000 0.622426
v 0.542426 1.200000 0.622426
v 0.555433 1.200000 0.602961
vt 0.312500 0.000000
vt 0.375000 0.000000
vt 0.375000 1.000000
vt 0.312500 1.000000
f 75/75 76/76 77/77 78/78
v 0.500000 0.400000 0.580000
v 0.542426 0.400000 0.622426
v 0.555433 0.400000 0.602961
vt 0.000000 0.000000
vt 1.000000 0.000000
vt 1.000000 1.000000
f 79/79 80/80 81/81
v 0.500000 1.200000 0.580000
v 0.555433 1.200000 0.602961
v 0.542426 1.200000 0.622426
vt 0.000000 0.000000
vt 1.000000 0.000000
vt 1.000000 1.000000
f 82/82 83/83 84/84
v 0.542426 0.400000 0.622426
v 0.522961 0.400000 0.635433
v 0.522961 1.200000 0.635433
v 0.542426 1.200000 0.622426
vt 0.375000 0.000000
vt 0.437500 0.000000
vt 0.437500 1.000000
vt 0.375000 1.000000
f 85/85 86/86 87/87 88/88
v 0.500000 0.400000 0.580000
v 0.522961 0.400000 0.635433
v 0.542426 0.400000 0.622426
vt 0.000000 0.000000
vt 1.000000 0.000000
vt 1.000000 1.000000
f 89/89 90/90 91/91
v 0.500000 1.200000 0.580000
v 0.542426 1.200000 0.622426
v 0.522961 1.200000 0.635433
vt 0.000000 0.000000
vt 1.000000 0.000000
vt 1.000000 1.000000
f 92/92 93/93 94/94
v 0.522961 0.400000 0.635433
v 0.500000 0.400000 0.640000
v 0.500000 1.200000 0.640000
v 0.522961 1.200000 0.635433
vt 0.437500 0.000000
vt 0.500000 0.000000
vt 0.500000 1.000000
vt 0.437500 1.000000
f 95/95 96/96 97/97 98/98
v 0.500000 0.400000 0.580000
v 0.500000 0.400000 0.640000
v 0.522961 0.400000 0.635433
vt 0.000000 0.000000
vt 1.000000 0.000000
vt 1.000000 1.000000
f 99/99 100/100 101/101
v 0.500000 1.200000 0.580000
v 0.522961 1.200000 0.635433
v 0.500000 1.200000 0.640000
vt 0.000000 0.000000
vt 1.000000 0.000000
vt 1.000000 1.000000
f 102/102 103/103 104/104
v 0.500000 0.400000 0.640000
v 0.477039 0.400000 0.635433
v 0.477039 1.200000 0.635433
v 0.500000 1.200000 0.640000
vt 0.500000 0.000000
vt 0.562500 0.000000
vt 0.562500 1.000000
vt 0.500000 1.000000
f 105/105 106/106 107/107 108/108
v 0.500000 0.400000 0.580000
v 0.477039 0.400000 0.635433
v 0.500000 0.400000 0.640000
vt 0.000000 0.000000
vt 1.000000 0.000000
vt 1.000000 1.000000
f 109/109 110/110 111/111
v 0.500000 1.200000 0.580000
v 0.500000 1.200000 0.640000
v 0.477039 1.200000 0.635433
vt 0.000000 0.000000
vt 1.000000 0.000000
vt 1.000000 1.000000
f 112/112 113/113 114/114
v 0.477039 0.400000 0.635433
v 0.457574 0.400000 0.622426
v 0.457574 1.200000 0.622426
v 0.477039 1.200000 0.635433
vt 0.562500 0.000000
vt 0.625000 0.000000
vt 0.625000 1.000000
vt 0.562500 1.000000
f 115/115 116/116 117/117 118/118
v 0.500000 0.400000 0.580000
v 0.457574 0.400000 0.622426
v 0.477039 0.400000 0.635433
vt 0.000000 0.000000
vt 1.000000 0.000000
vt 1.000000 1.000000
f 119/119 120/120 121/121
v 0.500000 1.200000 0.580000
v 0.477039 1.200000 0.635433
v 0.457574 1.200000 0.622426
vt 0.000000 0.000000
vt 1.000000 0.000000
vt 1.000000 1.000000
f 122/122 123/123 124/124
v 0.457574 0.400000 0.622426
v 0.444567 0.400000 0.602961
v 0.444567 1.200000 0.602961
v 0.457574 1.200000 0.622426
vt 0.625000 0.000000
vt 0.687500 0.000000
vt 0.687500 1.000000
vt 0.625000 1.000000
f 125/125 126/126 127/127 128/128
v 0.500000 0.400000 0.580000
v 0.444567 0.400000 0.602961
v 0.457574 0.400000 0.622426
vt 0.000000 0.000000
vt 1.000000 0.000000
vt 1.000000 1.000000
f 129/129 130/130 131/131
v 0.500000 1.200000 0.580000
v 0.457574 1.200000 0.622426
v 0.444567 1.200000 0.602961
vt 0.000000 0.000000
vt 1.000000 0.000000
vt 1.000000 1.000000
f 132/132 133/133 134/134
v 0.444567 0.400000 0.602961
v 0.440000 0.400000 0.580000
v 0.440000 1.200000 0.580000
v 0.444567 1.200000 0.602961
vt 0.687500 0.000000
vt 0.750000 0.000000
vt 0.750000 1.000000
vt 0.687500 1.000000
f 135/135 136/136 137/137 138/138
v 0.500000 0.400000 0.580000
v 0.440000 0.400000 0.580000
v 0.444567 0.400000 0.602961
vt 0.000000 0.000000
vt 1.000000 0.000000
vt 1.000000 1.000000
f 139/139 140/140 141/141
v 0.500000 1.200000 0.580000
v 0.444567 1.200000 0.602961
v 0.440000 1.200000 0.580000
vt 0.000000 0.000000
vt 1.000000 0.000000
vt 1.000000 1.000000
f 142/142 143/143 144/144
v 0.440000 0.400000 0.580000
v 0.444567 0.400000 0.557039
v 0.444567 1.200000 0.557039
v 0.440000 1.200000 0.580000
vt 0.750000 0.000000
vt 0.812500 0.000000
vt 0.812500 1.000000
vt 0.750000 1.000000
f 145/145 146/146 147/147 148/148
v 0.500000 0.400000 0.580000
v 0.444567 0.400000 0.557039
v 0.440000 0.400000 0.580000
vt 0.000000 0.000000
vt 1.000000 0.000000
vt 1.000000 1.000000
f 149/149 150/150 151/151
v 0.500000 1.200000 0.580000
v 0.440000 1.200000 0.580000
v 0.444567 1.200000 0.557039
vt 0.000000 0.000000
vt 1.000000 0.000000
vt 1.000000 1.000000
f 152/152 153/153 154/154
v 0.444567 0.400000 0.557039
v 0.457574 0.400000 0.537574
v 0.457574 1.200000 0.537574
v 0.444567 1.200000 0.557039
vt 0.812500 0.000000
vt 0.875000 0.000000
vt 0.875000 1.000000
vt 0.812500 1.000000
f 155/155 156/156 157/157 158/158
v 0.500000 0.400000 0.580000
v 0.457574 0.400000 0.537574
v 0.444567 0.400000 0.557039
vt 0.000000 0.000000
vt 1.000000 0.000000
vt 1.000000 1.000000
f 159/159 160/160 161/161
v 0.500000 1.200000 0.580000
v 0.444567 1.200000 0.557039
v 0.457574 1.200000 0.537574
vt 0.000000 0.000000
vt 1.000000 0.000000
vt 1.000000 1.000000
f 162/162 163/163 164/164
v 0.457574 0.400000 0.537574
v 0.477039 0.400000 0.524567
v 0.477039 1.200000 0.524567
v 0.457574 1.200000 0.537574
vt 0.875000 0.000000
vt 0.937500 0.000000
vt 0.937500 1.000000
vt 0.875000 1.000000
f 165/165 166/166 167/167 168/168
v 0.500000 0.400000 0.580000
v 0.477039 0.400000 0.524567
v 0.457574 0.400000 0.537574
vt 0.000000 0.000000
vt 1.000000 0.000000
vt 1.000000 1.000000
f 169/169 170/170 171/171
v 0.500000 1.200000 0.580000
v 0.457574 1.200000 0.537574
v 0.477039 1.200000 0.524567
vt 0.000000 0.000000
vt 1.000000 0.000000
vt 1.000000 1.000000
f 172/172 173/173 174/174
v 0.477039 0.400000 0.524567
v 0.500000 0.400000 0.520000
v 0.500000 1.200000 0.520000
v 0.477039 1.200000 0.524567
vt 0.937500 0.000000
vt 1.000000 0.000000
vt 1.000000 1.000000
vt 0.937500 1.000000
f 175/175 176/176 177/177 178/178
v 0.500000 0.400000 0.580000
v 0.500000 0.400000 0.520000
v 0.477039 0.400000 0.524567
vt 0.000000 0.000000
vt 1.000000 0.000000
vt 1.000000 1.000000
f 179/179 180/180 181/181
v 0.500000 1.200000 0.580000
v 0.477039 1.200000 0.524567
v 0.500000 1.200000 0.520000
vt 0.000000 0.000000
vt 1.000000 0.000000
vt 1.000000 1.000000
f 182/182 183/183 184/184
usemtl glass
v 0.500000 1.180000 0.490000
v 0.534442 1.180000 0.496851
v 0.534442 1.280000 0.496851
v 0.500000 1.280000 0.490000
vt 0.000000 0.000000
vt 0.062500 0.000000
vt 0.062500 1.000000
vt 0.000000 1.000000
f 185/185 186/186 187/187 188/188
v 0.500000 1.180000 0.580000
v 0.534442 1.180000 0.496851
v 0.500000 1.180000 0.490000
vt 0.000000 0.000000
vt 1.000000 0.000000
vt 1.000000 1.000000
f 189/189 190/190 191/191
v 0.500000 1.280000 0.580000
v 0.500000 1.280000 0.490000
v 0.534442 1.280000 0.496851
vt 0.000000 0.000000
vt 1.000000 0.000000
vt 1.000000 1.000000
f 192/192 193/193 194/194
v 0.534442 1.180000 0.496851
v 0.563640 1.180000 0.516360
v 0.563640 1.280000 0.516360
v 0.534442 1.280000 0.496851
vt 0.062500 0.000000
vt 0.125000 0.000000
vt 0.125000 1.000000
vt 0.062500 1.000000
f 195/195 196/196 197/197 198/198
v 0.500000 1.180000 0.580000
v 0.563640 1.180000 0.516360
v 0.534442 1.180000 0.496851
vt 0.000000 0.000000
vt 1.000000 0.000000
vt 1.000000 1.000000
f 199/199 200/200 201/201
v 0.500000 1.280000 0.580000
v 0.534442 1.280000 0.496851
v 0.563640 1.280000 0.516360
vt 0.000000 0.000000
vt 1.000000 0.000000
vt 1.000000 1.000000
f 202/202 203/203 204/204
v 0.563640 1.180000 0.516360
v 0.583149 1.180000 0.545558
v 0.583149 1.280000 0.545558
v 0.563640 1.280000 0.516360
vt 0.125000 0.000000
vt 0.187500 0.000000
vt 0.187500 1.000000
vt 0.125000 1.000000
f 205/205 206/206 207/207 208/208
v 0.500000 1.180000 0.580000
v 0.583149 1.180000 0.545558
v 0.563640 1.180000 0.516360
vt 0.000000 0.000000
vt 1.000000 0.000000
vt 1.000000 1.000000
f 209/209 210/210 211/211
v 0.500000 1.280000 0.580000
v 0.563640 1.280000 0.516360
v 0.583149 1.280000 0.545558
vt 0.000000 0.000000
vt 1.000000 0.000000
vt 1.000000 1.000000
f 212/212 213/213 214/214
v 0.583149 1.180000 0.545558
v 0.590000 1.180000 0.580000
v 0.590000 1.280000 0.580000
v 0.583149 1.280000 0.545558
vt 0.187500 0.000000
vt 0.250000 0.000000
vt 0.250000 1.000000
vt 0.187500 1.000000
f 215/215 216/216 217/217 218/218
v 0.500000 1.180000 0.580000
v 0.590000 1.180000 0.580000
v 0.583149 1.180000 0.545558
vt 0.000000 0.000000
vt 1.000000 0.000000
vt 1.000000 1.000000
f 219/219 220/220 221/221
v 0.500000 1.280000 0.580000
v 0.583149 1.280000 0.545558
v 0.590000 1.280000 0.580000
vt 0.000000 0.000000
vt 1.000000 0.000000
vt 1.000000 1.000000
f 222/222 223/223 224/224
v 0.590000 1.180000 0.580000
v 0.583149 1.180000 0.614442
v 0.583149 1.280000 0.614442
v 0.590000 1.280000 0.580000
vt 0.250000 0.000000
vt 0.312500 0.000000
vt 0.312500 1.000000
vt 0.250000 1.000000
f 225/225 226/226 227/227 228/228
v 0.500000 1.180000 0.580000
v 0.583149 1.180000 0.614442
v 0.590000 1.180000 0.580000
vt 0.000000 0.000000
vt 1.000000 0.000000
vt 1.000000 1.000000
f 229/229 230/230 231/231
v 0.500000 1.280000 0.580000
v 0.590000 1.280000 0.580000
v 0.583149 1.280000 0.614442
vt 0.000000 0.000000
vt 1.000000 0.000000
vt 1.000000 1.000000
f 232/232 233/233 234/234
v 0.583149 1.180000 0.614442
v 0.563640 1.180000 0.643640
v 0.563640 1.280000 0.643640
v 0.583149 1.280000 0.614442
vt 0.312500 0.000000
vt 0.375000 0.000000
vt 0.375000 1.000000
vt 0.312500 1.000000
f 235/235 236/236 237/237 238/238
v 0.500000 1.180000 0.580000
v 0.563640 1.180000 0.643640
v 0.583149 1.180000 0.614442
vt 0.000000 0.000000
vt 1.000000 0.000000
vt 1.000000 1.000000
f 239/239 240/240 241/241
v 0.500000 1.280000 0.580000
v 0.583149 1.280000 0.614442
v 0.563640 1.280000 0.643640
vt 0.000000 0.000000
vt 1.000000 0.000000
vt 1.000000 1.000000
f 242/242 243/243 244/244
v 0.563640 1.180000 0.643640
v 0.534442 1.180000 0.663149
v 0.534442 1.280000 0.663149
v 0.563640 1.280000 0.643640
vt 0.375000 0.000000
vt 0.437500 0.000000
vt 0.437500 1.000000
vt 0.375000 1.000000
f 245/245 246/246 247/247 248/248
v 0.500000 1.180000 0.580000
v 0.534442 1.180000 0.663149
v 0.563640 1.180000 0.643640
vt 0.000000 0.000000
vt 1.000000 0.000000
vt 1.000000 1.000000
f 249/249 250/250 251/251
v 0.500000 1.280000 0.580000
v 0.563640 1.280000 0.643640
v 0.534442 1.280000 0.663149
vt 0.000000 0.000000
vt 1.000000 0.000000
vt 1.000000 1.000000
f 252/252 253/253 254/254
v 0.534442 1.180000 0.663149
v 0.500000 1.180000 0.670000
v 0.500000 1.280000 0.670000
v 0.534442 1.280000 0.663149
vt 0.437500 0.000000
vt 0.500000 0.000000
vt 0.500000 1.000000
vt 0.437500 1.000000
f 255/255 256/256 257/257 258/258
v 0.500000 1.180000 0.580000
v 0.500000 1.180000 0.670000
v 0.534442 1.180000 0.663149
vt 0.000000 0.000000
vt 1.000000 0.000000
vt 1.000000 1.000000
f 259/259 260/260 261/261
v 0.500000 1.280000 0.580000
v 0.534442 1.280000 0.663149
v 0.500000 1.280000 0.670000
vt 0.000000 0.000000
vt 1.000000 0.000000
vt 1.000000 1.000000
f 262/262 263/263 264/264
v 0.500000 1.180000 0.670000
v 0.465558 1.180000 0.663149
v 0.465558 1.280000 0.663149
v 0.500000 1.280000 0.670000
vt 0.500000 0.000000
vt 0.562500 0.000000
vt 0.562500 1.000000
vt 0.500000 1.000000
f 265/265 266/266 267/267 268/268
v 0.500000 1.180000 0.580000
v 0.465558 1.180000 0.663149
v 0.500000 1.180000 0.670000
vt 0.000000 0.000000
vt 1.000000 0.000000
vt 1.000000 1.000000
f 269/269 270/270 271/271
v 0.500000 1.280000 0.580000
v 0.500000 1.280000 0.670000
v 0.465558 1.280000 0.663149
vt 0.000000 0.000000
vt 1.000000 0.000000
vt 1.000000 1.000000
f 272/272 273/273 274/274
v 0.465558 1.180000 0.663149
v 0.436360 1.180000 0.643640
v 0.436360 1.280000 0.643640
v 0.465558 1.280000 0.663149
vt 0.562500 0.000000
vt 0.625000 0.000000
vt 0.625000 1.000000
vt 0.562500 1.000000
f 275/275 276/276 277/277 278/278
v 0.500000 1.180000 0.580000
v 0.436360 1.180000 0.643640
v 0.465558 1.180000 0.663149
vt 0.000000 0.000000
vt 1.000000 0.000000
vt 1.000000 1.000000
f 279/279 280/280 281/281
v 0.500000 1.280000 0.580000
v 0.465558 1.280000 0.663149
v 0.436360 1.280000 0.643640
vt 0.000000 0.000000
vt 1.000000 0.000000
vt 1.000000 1.000000
f 282/282 283/283 284/284
v 0.436360 1.180000 0.643640
v 0.416851 1.180000 0.614442
v 0.416851 1.280000 0.614442
v 0.436360 1.280000 0.643640
vt 0.625000 0.000000
vt 0.687500 0.000000
vt 0.687500 1.000000
vt 0.625000 1.000000
f 285/285 286/286 287/287 288/288
v 0.500000 1.180000 0.580000
v 0.416851 1.180000 0.614442
v 0.436360 1.180000 0.643640
vt 0.000000 0.000000
vt 1.000000 0.000000
vt 1.000000 1.000000
f 289/289 290/290 291/291
v 0.500000 1.280000 0.580000
v 0.436360 1.280000 0.643640
v 0.416851 1.280000 0.614442
vt 0.000000 0.000000
vt 1.000000 0.000000
vt 1.000000 1.000000
f 292/292 293/293 294/294
v 0.416851 1.180000 0.614442
v 0.410000 1.180000 0.580000
v 0.410000 1.280000 0.580000
v 0.416851 1.280000 0.614442
vt 0.687500 0.000000
vt 0.750000 0.000000
vt 0.750000 1.000000
vt 0.687500 1.000000
f 295/295 296/296 297/297 298/298
v 0.500000 1.180000 0.580000
v 0.410000 1.180000 0.580000
v 0.416851 1.180000 0.614442
vt 0.000000 0.000000
vt 1.000000 0.000000
vt 1.000000 1.000000
f 299/299 300/300 301/301
v 0.500000 1.280000 0.580000
v 0.416851 1.280000 0.614442
v 0.410000 1.280000 0.580000
vt 0.000000 0.000000
vt 1.000000 0.000000
vt 1.000000 1.000000
f 302/302 303/303 304/304
v 0.410000 1.180000 0.580000
v 0.416851 1.180000 0.545558
v 0.416851 1.280000 0.545558
v 0.410000 1.280000 0.580000
vt 0.750000 0.000000
vt 0.812500 0.000000
vt 0.812500 1.000000
vt 0.750000 1.000000
f 305/305 306/306 307/307 308/308
v 0.500000 1.180000 0.580000
v 0.416851 1.180000 0.545558
v 0.410000 1.180000 0.580000
vt 0.000000 0.000000
vt 1.000000 0.000000
vt 1.000000 1.000000
f 309/309 310/310 311/311
v 0.500000 1.280000 0.580000
v 0.410000 1.280000 0.580000
v 0.416851 1.280000 0.545558
vt 0.000000 0.000000
vt 1.000000 0.000000
vt 1.000000 1.000000
f 312/312 313/313 314/314
v 0.416851 1.180000 0.545558
v 0.436360 1.180000 0.516360
v 0.436360 1.280000 0.516360
v 0.416851 1.280000 0.545558
vt 0.812500 0.000000
vt 0.875000 0.000000
vt 0.875000 1.000000
vt 0.812500 1.000000
f 315/315 316/316 317/317 318/318
v 0.500000 1.180000 0.580000
v 0.436360 1.180000 0.516360
v 0.416851 1.180000 0.545558
vt 0.000000 0.000000
vt 1.000000 0.000000
vt 1.000000 1.000000
f 319/319 320/320 321/321
v 0.500000 1.280000 0.580000
v 0.416851 1.280000 0.545558
v 0.436360 1.280000 0.516360
vt 0.000000 0.000000
vt 1.000000 0.000000
vt 1.000000 1.000000
f 322/322 323/323 324/324
v 0.436360 1.180000 0.516360
v 0.465558 1.180000 0.496851
v 0.465558 1.280000 0.496851
v 0.436360 1.280000 0.516360
vt 0.875000 0.000000
vt 0.937500 0.000000
vt 0.937500 1.000000
vt 0.875000 1.000000
f 325/325 326/326 327/327 328/328
v 0.500000 1.180000 0.580000
v 0.465558 1.180000 0.496851
v 0.436360 1.180000 0.516360
vt 0.000000 0.000000
vt 1.000000 0.000000
vt 1.000000 1.000000
f 329/329 330/330 331/331
v 0.500000 1.280000 0.580000
v 0.436360 1.280000 0.516360
v 0.465558 1.280000 0.496851
vt 0.000000 0.000000
vt 1.000000 0.000000
vt 1.000000 1.000000
f 332/332 333/333 334/334
v 0.465558 1.180000 0.496851
v 0.500000 1.180000 0.490000
v 0.500000 1.280000 0.490000
v 0.465558 1.280000 0.496851
vt 0.937500 0.000000
vt 1.000000 0.000000
vt 1.000000 1.000000
vt 0.937500 1.000000
f 335/335 336/336 337/337 338/338
v 0.500000 1.180000 0.580000
v 0.500000 1.180000 0.490000
v 0.465558 1.180000 0.496851
vt 0.000000 0.000000
vt 1.000000 0.000000
vt 1.000000 1.000000
f 339/339 340/340 341/341
v 0.500000 1.280000 0.580000
v 0.465558 1.280000 0.496851
v 0.500000 1.280000 0.490000
vt 0.000000 0.000000
vt 1.000000 0.000000
vt 1.000000 1.000000
f 342/342 343/343 344/344
usemtl yellow
v 0.182000 0.480000 0.380000
v 0.195130 0.529000 0.380000
v 0.199695 0.526364 0.392728
v 0.187272 0.480000 0.392728
vt 0.000000 0.000000
vt 1.000000 0.000000
vt 1.000000 1.000000
vt 0.000000 1.000000
f 345/345 346/346 347/347 348/348
v 0.187272 0.480000 0.392728
v 0.199695 0.526364 0.392728
v 0.210718 0.520000 0.398000
v 0.200000 0.480000 0.398000
vt 0.000000 0.000000
vt 1.000000 0.000000
vt 1.000000 1.000000
vt 0.000000 1.000000
f 349/349 350/350 351/351 352/352
v 0.200000 0.480000 0.398000
v 0.210718 0.520000 0.398000
v 0.221741 0.513636 0.392728
v 0.212728 0.480000 0.392728
vt 0.000000 0.000000
vt 1.000000 0.000000
vt 1.000000 1.000000
vt 0.000000 1.000000
f 353/353 354/354 355/355 356/356
v 0.212728 0.480000 0.392728
v 0.221741 0.513636 0.392728
v 0.226306 0.511000 0.380000
v 0.218000 0.480000 0.380000
vt 0.000000 0.000000
vt 1.000000 0.000000
vt 1.000000 1.000000
vt 0.000000 1.000000
f 357/357 358/358 359/359 360/360
v 0.218000 0.480000 0.380000
v 0.226306 0.511000 0.380000
v 0.221741 0.513636 0.367272
v 0.212728 0.480000 0.367272
vt 0.000000 0.000000
vt 1.000000 0.000000
vt 1.000000 1.000000
vt 0.000000 1.000000
f 361/361 362/362 363/363 364/364
v 0.212728 0.480000 0.367272
v 0.221741 0.513636 0.367272
v 0.210718 0.520000 0.362000
v 0.200000 0.480000 0.362000
vt 0.000000 0.000000
vt 1.000000 0.000000
vt 1.000000 1.000000
vt 0.000000 1.000000
f 365/365 366/366 367/367 368/368
v 0.200000 0.480000 0.362000
v 0.210718 0.520000 0.362000
v 0.199695 0.526364 0.367272
v 0.187272 0.480000 0.367272
vt 0.000000 0.000000
vt 1.000000 0.000000
vt 1.000000 1.000000
vt 0.000000 1.000000
f 369/369 370/370 371/371 372/372
v 0.187272 0.480000 0.367272
v 0.199695 0.526364 0.367272
v 0.195130 0.529000 0.380000
v 0.182000 0.480000 0.380000
vt 0.000000 0.000000
vt 1.000000 0.000000
vt 1.000000 1.000000
vt 0.000000 1.000000
f 373/373 374/374 375/375 376/376
v 0.195130 0.529000 0.380000
v 0.231000 0.564870 0.380000
v 0.233636 0.560305 0.392728
v 0.199695 0.526364 0.392728
vt 0.000000 0.000000
vt 1.000000 0.000000
vt 1.000000 1.000000
vt 0.000000 1.000000
f 377/377 378/378 379/379 380/380
v 0.199695 0.526364 0.392728
v 0.233636 0.560305 0.392728
v 0.240000 0.549282 0.398000
v 0.210718 0.520000 0.398000
vt 0.000000 0.000000
vt 1.000000 0.000000
vt 1.000000 1.000000
vt 0.000000 1.000000
f 381/381 382/382 383/383 384/384
v 0.210718 0.520000 0.398000
v 0.240000 0.549282 0.398000
v 0.246364 0.538259 0.392728
v 0.221741 0.513636 0.392728
vt 0.000000 0.000000
vt 1.000000 0.000000
vt 1.000000 1.000000
vt 0.000000 1.000000
f 385/385 386/386 387/387 388/388
v 0.221741 0.513636 0.392728
v 0.246364 0.538259 0.392728
v 0.249000 0.533694 0.380000
v 0.226306 0.511000 0.380000
vt 0.000000 0.000000
vt 1.000000 0.000000
vt 1.000000 1.000000
vt 0.000000 1.000000
f 389/389 390/390 391/391 392/392
v 0.226306 0.511000 0.380000
v 0.249000 0.533694 0.380000
v 0.246364 0.538259 0.367272
v 0.221741 0.513636 0.367272
vt 0.000000 0.000000
vt 1.000000 0.000000
vt 1.000000 1.000000
vt 0.000000 1.000000
f 393/393 394/394 395/395 396/396
v 0.221741 0.513636 0.367272
v 0.246364 0.538259 0.367272
v 0.240000 0.549282 0.362000
v 0.210718 0.520000 0.362000
vt 0.000000 0.000000
vt 1.000000 0.000000
vt 1.000000 1.000000
vt 0.000000 1.000000
f 397/397 398/398 399/399 400/400
v 0.210718 0.520000 0.362000
v 0.240000 0.549282 0.362000
v 0.233636 0.560305 0.367272
v 0.199695 0.526364 0.367272
vt 0.000000 0.000000
vt 1.000000 0.000000
vt 1.000000 1.000000
vt 0.000000 1.000000
f 401/401 402/402 403/403 404/404
v 0.199695 0.526364 0.367272
v 0.233636 0.560305 0.367272
v 0.231000 0.564870 0.380000
v 0.195130 0.529000 0.380000
vt 0.000000 0.000000
vt 1.000000 0.000000
vt 1.000000 1.000000
vt 0.000000 1.000000
f 405/405 406/406 407/407 408/408
v 0.231000 0.564870 0.380000
v 0.280000 0.578000 0.380000
v 0.280000 0.572728 0.392728
v 0.233636 0.560305 0.392728
vt 0.000000 0.000000
vt 1.000000 0.000000
vt 1.000000 1.000000
vt 0.000000 1.000000
f 409/409 410/410 411/411 412/412
v 0.233636 0.560305 0.392728
v 0.280000 0.572728 0.392728
v 0.280000 0.560000 0.398000
v 0.240000 0.549282 0.398000
vt 0.000000 0.000000
vt 1.000000 0.000000
vt 1.000000 1.000000
vt 0.000000 1.000000
f 413/413 414/414 415/415 416/416
v 0.240000 0.549282 0.398000
v 0.280000 0.560000 0.398000
v 0.280000 0.547272 0.392728
v 0.246364 0.538259 0.392728
vt 0.000000 0.000000
vt 1.000000 0.000000
vt 1.000000 1.000000
vt 0.000000 1.000000
f 417/417 418/418 419/419 420/420
v 0.246364 0.538259 0.392728
v 0.280000 0.547272 0.392728
v 0.280000 0.542000 0.380000
v 0.249000 0.533694 0.380000
vt 0.000000 0.000000
vt 1.000000 0.000000
vt 1.000000 1.000000
vt 0.000000 1.000000
f 421/421 422/422 423/423 424/424
v 0.249000 0.533694 0.380000
v 0.280000 0.542000 0.380000
v 0.280000 0.547272 0.367272
v 0.246364 0.538259 0.367272
vt 0.000000 0.000000
vt 1.000000 0.000000
vt 1.000000 1.000000
vt 0.000000 1.000000
f 425/425 426/426 427/427 428/428
v 0.246364 0.538259 0.367272
v 0.280000 0.547272 0.367272
v 0.280000 0.560000 0.362000
v 0.240000 0.549282 0.362000
vt 0.000000 0.000000
vt 1.000000 0.000000
vt 1.000000 1.000000
vt 0.000000 1.000000
f 429/429 430/430 431/431 432/432
v 0.240000 0.549282 0.362000
v 0.280000 0.560000 0.362000
v 0.280000 0.572728 0.367272
v 0.233636 0.560305 0.367272
vt 0.000000 0.000000
vt 1.000000 0.000000
vt 1.000000 1.000000
vt 0.000000 1.000000
f 433/433 434/434 435/435 436/436
v 0.233636 0.560305 0.367272
v 0.280000 0.572728 0.367272
v 0.280000 0.578000 0.380000
v 0.231000 0.564870 0.380000
vt 0.000000 0.000000
vt 1.000000 0.000000
vt 1.000000 1.000000
vt 0.000000 1.000000
f 437/437 438/438 439/439 440/440
v 0.280000 0.578000 0.380000
v 0.329000 0.564870 0.380000
v 0.326364 0.560305 0.392728
v 0.280000 0.572728 0.392728
vt 0.000000 0.000000
vt 1.000000 0.000000
vt 1.000000 1.000000
vt 0.000000 1.000000
f 441/441 442/442 443/443 444/444
v 0.280000 0.572728 0.392728
v 0.326364 0.560305 0.392728
v 0.320000 0.549282 0.398000
v 0.280000 0.560000 0.398000
vt 0.000000 0.000000
vt 1.000000 0.000000
vt 1.000000 1.000000
vt 0.000000 1.000000
f 445/445 446/446 447/447 448/448
v 0.280000 0.560000 0.398000
v 0.320000 0.549282 0.398000
v 0.313636 0.538259 0.392728
v 0.280000 0.547272 0.392728
vt 0.000000 0.000000
vt 1.000000 0.000000
vt 1.000000 1.000000
vt 0.000000 1.000000
f 449/449 450/450 451/451 452/452
v 0.280000 0.547272 0.392728
v 0.313636 0.538259 0.392728
v 0.311000 0.533694 0.380000
v 0.280000 0.542000 0.380000
vt 0.000000 0.000000
vt 1.000000 0.000000
vt 1.000000 1.000000
vt 0.000000 1.000000
f 453/453 454/454 455/455 456/456
v 0.280000 0.542000 0.380000
v 0.311000 0.533694 0.380000
v 0.313636 0.538259 0.367272
v 0.280000 0.547272 0.367272
vt 0.000000 0.000000
vt 1.000000 0.000000
vt 1.000000 1.000000
vt 0.000000 1.000000
f 457/457 458/458 459/459 460/460
v 0.280000 0.547272 0.367272
v 0.313636 0.538259 0.367272
v 0.320000 0.549282 0.362000
v 0.280000 0.560000 0.362000
vt 0.000000 0.000000
vt 1.000000 0.000000
vt 1.000000 1.000000
vt 0.000000 1.000000
f 461/461 462/462 463/463 464/464
v 0.280000 0.560000 0.362000
v 0.320000 0.549282 0.362000
v 0.326364 0.560305 0.367272
v 0.280000 0.572728 0.367272
vt 0.000000 0.000000
vt 1.000000 0.000000
vt 1.000000 1.000000
vt 0.000000 1.000000
f 465/465 466/466 467/467 468/468
v 0.280000 0.572728 0.367272
v 0.326364 0.560305 0.367272
v 0.329000 0.564870 0.380000
v 0.280000 0.578000 0.380000
vt 0.000000 0.000000
vt 1.000000 0.000000
vt 1.000000 1.000000
vt 0.000000 1.000000
f 469/469 470/470 471/471 472/472
v 0.329000 0.564870 0.380000
v 0.364870 0.529000 0.380000
v 0.360305 0.526364 0.392728
v 0.326364 0.560305 0.392728
vt 0.000000 0.000000
vt 1.000000 0.000000
vt 1.000000 1.000000
vt 0.000000 1.000000
f 473/473 474/474 475/475 476/476
v 0.326364 0.560305 0.392728
v 0.360305 0.526364 0.392728
v 0.349282 0.520000 0.398000
v 0.320000 0.549282 0.398000
vt 0.000000 0.000000
vt 1.000000 0.000000
vt 1.000000 1.000000
vt 0.000000 1.000000
f 477/477 478/478 479/479 480/480
v 0.320000 0.549282 0.398000
v 0.349282 0.520000 0.398000
v 0.338259 0.513636 0.392728
v 0.313636 0.538259 0.392728
vt 0.000000 0.000000
vt 1.000000 0.000000
vt 1.000000 1.000000
vt 0.000000 1.000000
f 481/481 482/482 483/483 484/484
v 0.313636 0.538259 0.392728
v 0.338259 0.513636 0.392728
v 0.333694 0.511000 0.380000
v 0.311000 0.533694 0.380000
vt 0.000000 0.000000
vt 1.000000 0.000000
vt 1.000000 1.000000
vt 0.000000 1.000000
f 485/485 486/486 487/487 488/488
v 0.311000 0.533694 0.380000
v 0.333694 0.511000 0.380000
v 0.338259 0.513636 0.367272
v 0.313636 0.538259 0.367272
vt 0.000000 0.000000
vt 1.000000 0.000000
vt 1.000000 1.000000
vt 0.000000 1.000000
f 489/489 490/490 491/491 492/492
v 0.313636 0.538259 0.367272
v 0.338259 0.513636 0.367272
v 0.349282 0.520000 0.362000
v 0.320000 0.549282 0.362000
vt 0.000000 0.000000
vt 1.000000 0.000000
vt 1.000000 1.000000
vt 0.000000 1.000000
f 493/493 494/494 495/495 496/496
v 0.320000 0.549282 0.362000
v 0.349282 0.520000 0.362000
v 0.360305 0.526364 0.367272
v 0.326364 0.560305 0.367272
vt 0.000000 0.000000
vt 1.000000 0.000000
vt 1.000000 1.000000
vt 0.000000 1.000000
f 497/497 498/498 499/499 500/500
v 0.326364 0.560305 0.367272
v 0.360305 0.526364 0.367272
v 0.364870 0.529000 0.380000
v 0.329000 0.564870 0.380000
vt 0.000000 0.000000
vt 1.000000 0.000000
vt 1.000000 1.000000
vt 0.000000 1.000000
f 501/501 502/502 503/503 504/504
v 0.364870 0.529000 0.380000
v 0.378000 0.480000 0.380000
v 0.372728 0.480000 0.392728
v 0.360305 0.526364 0.392728
vt 0.000000 0.000000
vt 1.000000 0.000000
vt 1.000000 1.000000
vt 0.000000 1.000000
f 505/505 506/506 507/507 508/508
v 0.360305 0.526364 0.392728
v 0.372728 0.480000 0.392728
v 0.360000 0.480000 0.398000
v 0.349282 0.520000 0.398000
vt 0.000000 0.000000
vt 1.000000 0.000000
vt 1.000000 1.000000
vt 0.000000 1.000000
f 509/509 510/510 511/511 512/512
v 0.349282 0.520000 0.398000
v 0.360000 0.480000 0.398000
v 0.347272 0.480000 0.392728
v 0.338259 0.513636 0.392728
vt 0.000000 0.000000
vt 1.000000 0.000000
vt 1.000000 1.000000
vt 0.000000 1.000000
f 513/513 514/514 515/515 516/516
v 0.338259 0.513636 0.392728
v 0.347272 0.480000 0.392728
v 0.342000 0.480000 0.380000
v 0.333694 0.511000 0.380000
vt 0.000000 0.000000
vt 1.000000 0.000000
vt 1.000000 1.000000
vt 0.000000 1.000000
f 517/517 518/518 519/519 520/520
v 0.333694 0.511000 0.380000
v 0.342000 0.480000 0.380000
v 0.347272 0.480000 0.367272
v 0.338259 0.513636 0.367272
vt 0.000000 0.000000
vt 1.000000 0.000000
vt 1.000000 1.000000
vt 0.000000 1.000000
f 521/521 522/522 523/523 524/524
v 0.338259 0.513636 0.367272
v 0.347272 0.480000 0.367272
v 0.360000 0.480000 0.362000
v 0.349282 0.520000 0.362000
vt 0.000000 0.000000
vt 1.000000 0.000000
vt 1.000000 1.000000
vt 0.000000 1.000000
f 525/525 526/526 527/527 528/528
v 0.349282 0.520000 0.362000
v 0.360000 0.480000 0.362000
v 0.372728 0.480000 0.367272
v 0.360305 0.526364 0.367272
vt 0.000000 0.000000
vt 1.000000 0.000000
vt 1.000000 1.000000
vt 0.000000 1.000000
f 529/529 530/530 531/531 532/532
v 0.360305 0.526364 0.367272
v 0.372728 0.480000 0.367272
v 0.378000 0.480000 0.380000
v 0.364870 0.529000 0.380000
vt 0.000000 0.000000
vt 1.000000 0.000000
vt 1.000000 1.000000
vt 0.000000 1.000000
f 533/533 534/534 535/535 536/536
v 0.378000 0.480000 0.380000
v 0.364870 0.431000 0.380000
v 0.360305 0.433636 0.392728
v 0.372728 0.480000 0.392728
vt 0.000000 0.000000
vt 1.000000 0.000000
vt 1.000000 1.000000
vt 0.000000 1.000000
f 537/537 538/538 539/539 540/540
v 0.372728 0.480000 0.392728
v 0.360305 0.433636 0.392728
v 0.349282 0.440000 0.398000
v 0.360000 0.480000 0.398000
vt 0.000000 0.000000
vt 1.000000 0.000000
vt 1.000000 1.000000
vt 0.000000 1.000000
f 541/541 542/542 543/543 544/544
v 0.360000 0.480000 0.398000
v 0.349282 0.440000 0.398000
v 0.338259 0.446364 0.392728
v 0.347272 0.480000 0.392728
vt 0.000000 0.000000
vt 1.000000 0.000000
vt 1.000000 1.000000
vt 0.000000 1.000000
f 545/545 546/546 547/547 548/548
v 0.347272 0.480000 0.392728
v 0.338259 0.446364 0.392728
v 0.333694 0.449000 0.380000
v 0.342000 0.480000 0.380000
vt 0.000000 0.000000
vt 1.000000 0.000000
vt 1.000000 1.000000
vt 0.000000 1.000000
f 549/549 550/550 551/551 552/552
v 0.342000 0.480000 0.380000
v 0.333694 0.449000 0.380000
v 0.338259 0.446364 0.367272
v 0.347272 0.480000 0.367272
vt 0.000000 0.000000
vt 1.000000 0.000000
vt 1.000000 1.000000
vt 0.000000 1.000000
f 553/553 554/554 555/555 556/556
v 0.347272 0.480000 0.367272
v 0.338259 0.446364 0.367272
v 0.349282 0.440000 0.362000
v 0.360000 0.480000 0.362000
vt 0.000000 0.000000
vt 1.000000 0.000000
vt 1.000000 1.000000
vt 0.000000 1.000000
f 557/557 558/558 559/559 560/560
v 0.360000 0.480000 0.362000
v 0.349282 0.440000 0.362000
v 0.360305 0.433636 0.367272
v 0.372728 0.480000 0.367272
vt 0.000000 0.000000
vt 1.000000 0.000000
vt 1.000000 1.000000
vt 0.000000 1.000000
f 561/561 562/562 563/563 564/564
v 0.372728 0.480000 0.367272
v 0.360305 0.433636 0.367272
v 0.364870 0.431000 0.380000
v 0.378000 0.480000 0.380000
vt 0.000000 0.000000
vt 1.000000 0.000000
vt 1.000000 1.000000
vt 0.000000 1.000000
f 565/565 566/566 567/567 568/568
v 0.364870 0.431000 0.380000
v 0.329000 0.395130 0.380000
v 0.326364 0.399695 0.392728
v 0.360305 0.433636 0.392728
vt 0.000000 0.000000
vt 1.000000 0.000000
vt 1.000000 1.000000
vt 0.000000 1.000000
f 569/569 570/570 571/571 572/572
v 0.360305 0.433636 0.392728
v 0.326364 0.399695 0.392728
v 0.320000 0.410718 0.398000
v 0.349282 0.440000 0.398000
vt 0.000000 0.000000
vt 1.000000 0.000000
vt 1.000000 1.000000
vt 0.000000 1.000000
f 573/573 574/574 575/575 576/576
v 0.349282 0.440000 0.398000
v 0.320000 0.410718 0.398000
v 0.313636 0.421741 0.392728
v 0.338259 0.446364 0.392728
vt 0.000000 0.000000
vt 1.000000 0.000000
vt 1.000000 1.000000
vt 0.000000 1.000000
f 577/577 578/578 579/579 580/580
v 0.338259 0.446364 0.392728
v 0.313636 0.421741 0.392728
v 0.311000 0.426306 0.380000
v 0.333694 0.449000 0.380000
vt 0.000000 0.000000
vt 1.000000 0.000000
vt 1.000000 1.000000
vt 0.000000 1.000000
f 581/581 582/582 583/583 584/584
v 0.333694 0.449000 0.380000
v 0.311000 0.426306 0.380000
v 0.313636 0.421741 0.367272
v 0.338259 0.446364 0.367272
vt 0.000000 0.000000
vt 1.000000 0.000000
vt 1.000000 1.000000
vt 0.000000 1.000000
f 585/585 586/586 587/587 588/588
v 0.338259 0.446364 0.367272
v 0.313636 0.421741 0.367272
v 0.320000 0.410718 0.362000
v 0.349282 0.440000 0.362000
vt 0.000000 0.000000
vt 1.000000 0.000000
vt 1.000000 1.000000
vt 0.000000 1.000000
f 589/589 590/590 591/591 592/592
v 0.349282 0.440000 0.362000
v 0.320000 0.410718 0.362000
v 0.326364 0.399695 0.367272
v 0.360305 0.433636 0.367272
vt 0.000000 0.000000
vt 1.000000 0.000000
vt 1.000000 1.000000
vt 0.000000 1.000000
f 593/593 594/594 595/595 596/596
v 0.360305 0.433636 0.367272
v 0.326364 0.399695 0.367272
v 0.329000 0.395130 0.380000
v 0.364870 0.431000 0.380000
vt 0.000000 0.000000
vt 1.000000 0.000000
vt 1.000000 1.000000
vt 0.000000 1.000000
f 597/597 598/598 599/599 600/600
v 0.329000 0.395130 0.380000
v 0.280000 0.382000 0.380000
v 0.280000 0.387272 0.392728
v 0.326364 0.399695 0.392728
vt 0.000000 0.000000
vt 1.000000 0.000000
vt 1.000000 1.000000
vt 0.000000 1.000000
f 601/601 602/602 603/603 604/604
v 0.326364 0.399695 0.392728
v 0.280000 0.387272 0.392728
v 0.280000 0.400000 0.398000
v 0.320000 0.410718 0.398000
vt 0.000000 0.000000
vt 1.000000 0.000000
vt 1.000000 1.000000
vt 0.000000 1.000000
f 605/605 606/606 607/607 608/608
v 0.320000 0.410718 0.398000
v 0.280000 0.400000 0.398000
v 0.280000 0.412728 0.392728
v 0.313636 0.421741 0.392728
vt 0.000000 0.000000
vt 1.000000 0.000000
vt 1.000000 1.000000
vt 0.000000 1.000000
f 609/609 610/610 611/611 612/612
v 0.313636 0.421741 0.392728
v 0.280000 0.412728 0.392728
v 0.280000 0.418000 0.380000
v 0.311000 0.426306 0.380000
vt 0.000000 0.000000
vt 1.000000 0.000000
vt 1.000000 1.000000
vt 0.000000 1.000000
f 613/613 614/614 615/615 616/616
v 0.311000 0.426306 0.380000
v 0.280000 0.418000 0.380000
v 0.280000 0.412728 0.367272
v 0.313636 0.421741 0.367272
vt 0.000000 0.000000
vt 1.000000 0.000000
vt 1.000000 1.000000
vt 0.000000 1.000000
f 617/617 618/618 619/619 620/620
v 0.313636 0.421741 0.367272
v 0.280000 0.412728 0.367272
v 0.280000 0.400000 0.362000
v 0.320000 0.410718 0.362000
vt 0.000000 0.000000
vt 1.000000 0.000000
vt 1.000000 1.000000
vt 0.000000 1.000000
f 621/621 622/622 623/623 624/624
v 0.320000 0.410718 0.362000
v 0.280000 0.400000 0.362000
v 0.280000 0.387272 0.367272
v 0.326364 0.399695 0.367272
vt 0.000000 0.000000
vt 1.000000 0.000000
vt 1.000000 1.000000
vt 0.000000 1.000000
f 625/625 626/626 627/627 628/628
v 0.326364 0.399695 0.367272
v 0.280000 0.387272 0.367272
v 0.280000 0.382000 0.380000
v 0.329000 0.395130 0.380000
vt 0.000000 0.000000
vt 1.000000 0.000000
vt 1.000000 1.000000
vt 0.000000 1.000000
f 629/629 630/630 631/631 632/632
v 0.280000 0.382000 0.380000
v 0.231000 0.395130 0.380000
v 0.233636 0.399695 0.392728
v 0.280000 0.387272 0.392728
vt 0.000000 0.000000
vt 1.000000 0.000000
vt 1.000000 1.000000
vt 0.000000 1.000000
f 633/633 634/634 635/635 636/636
v 0.280000 0.387272 0.392728
v 0.233636 0.399695 0.392728
v 0.240000 0.410718 0.398000
v 0.280000 0.400000 0.398000
vt 0.000000 0.000000
vt 1.000000 0.000000
vt 1.000000 1.000000
vt 0.000000 1.000000
f 637/637 638/638 639/639 640/640
v 0.280000 0.400000 0.398000
v 0.240000 0.410718 0.398000
v 0.246364 0.421741 0.392728
v 0.280000 0.412728 0.392728
vt 0.000000 0.000000
vt 1.000000 0.000000
vt 1.000000 1.000000
vt 0.000000 1.000000
f 641/641 642/642 643/643 644/644
v 0.280000 0.412728 0.392728
v 0.246364 0.421741 0.392728
v 0.249000 0.426306 0.380000
v 0.280000 0.418000 0.380000
vt 0.000000 0.000000
vt 1.000000 0.000000
vt 1.000000 1.000000
vt 0.000000 1.000000
f 645/645 646/646 647/647 648/648
v 0.280000 0.418000 0.380000
v 0.249000 0.426306 0.380000
v 0.246364 0.421741 0.367272
v 0.280000 0.412728 0.367272
vt 0.000000 0.000000
vt 1.000000 0.000000
vt 1.000000 1.000000
vt 0.000000 1.000000
f 649/649 650/650 651/651 652/652
v 0.280000 0.412728 0.367272
v 0.246364 0.421741 0.367272
v 0.240000 0.410718 0.362000
v 0.280000 0.400000 0.362000
vt 0.000000 0.000000
vt 1.000000 0.000000
vt 1.000000 1.000000
vt 0.000000 1.000000
f 653/653 654/654 655/655 656/656
v 0.280000 0.400000 0.362000
v 0.240000 0.410718 0.362000
v 0.233636 0.399695 0.367272
v 0.280000 0.387272 0.367272
vt 0.000000 0.000000
vt 1.000000 0.000000
vt 1.000000 1.000000
vt 0.000000 1.000000
f 657/657 658/658 659/659 660/660
v 0.280000 0.387272 0.367272
v 0.233636 0.399695 0.367272
v 0.231000 0.395130 0.380000
v 0.280000 0.382000 0.380000
vt 0.000000 0.000000
vt 1.000000 0.000000
vt 1.000000 1.000000
vt 0.000000 1.000000
f 661/661 662/662 663/663 664/664
v 0.231000 0.395130 0.380000
v 0.195130 0.431000 0.380000
v 0.199695 0.433636 0.392728
v 0.233636 0.399695 0.392728
vt 0.000000 0.000000
vt 1.000000 0.000000
vt 1.000000 1.000000
vt 0.000000 1.000000
f 665/665 666/666 667/667 668/668
v 0.233636 0.399695 0.392728
v 0.199695 0.433636 0.392728
v 0.210718 0.440000 0.398000
v 0.240000 0.410718 0.398000
vt 0.000000 0.000000
vt 1.000000 0.000000
vt 1.000000 1.000000
vt 0.000000 1.000000
f 669/669 670/670 671/671 672/672
v 0.240000 0.410718 0.398000
v 0.210718 0.440000 0.398000
v 0.221741 0.446364 0.392728
v 0.246364 0.421741 0.392728
vt 0.000000 0.000000
vt 1.000000 0.000000
vt 1.000000 1.000000
vt 0.000000 1.000000
f 673/673 674/674 675/675 676/676
v 0.246364 0.421741 0.392728
v 0.221741 0.446364 0.392728
v 0.226306 0.449000 0.380000
v 0.249000 0.426306 0.380000
vt 0.000000 0.000000
vt 1.000000 0.000000
vt 1.000000 1.000000
vt 0.000000 1.000000
f 677/677 678/678 679/679 680/680
v 0.249000 0.426306 0.380000
v 0.226306 0.449000 0.380000
v 0.221741 0.446364 0.367272
v 0.246364 0.421741 0.367272
vt 0.000000 0.000000
vt 1.000000 0.000000
vt 1.000000 1.000000
vt 0.000000 1.000000
f 681/681 682/682 683/683 684/684
v 0.246364 0.421741 0.367272
v 0.221741 0.446364 0.367272
v 0.210718 0.440000 0.362000
v 0.240000 0.410718 0.362000
vt 0.000000 0.000000
vt 1.000000 0.000000
vt 1.000000 1.000000
vt 0.000000 1.000000
f 685/685 686/686 687/687 688/688
v 0.240000 0.410718 0.362000
v 0.210718 0.440000 0.362000
v 0.199695 0.433636 0.367272
v 0.233636 0.399695 0.367272
vt 0.000000 0.000000
vt 1.000000 0.000000
vt 1.000000 1.000000
vt 0.000000 1.000000
f 689/689 690/690 691/691 692/692
v 0.233636 0.399695 0.367272
v 0.199695 0.433636 0.367272
v 0.195130 0.431000 0.380000
v 0.231000 0.395130 0.380000
vt 0.000000 0.000000
vt 1.000000 0.000000
vt 1.000000 1.000000
vt 0.000000 1.000000
f 693/693 694/694 695/695 696/696
v 0.195130 0.431000 0.380000
v 0.182000 0.480000 0.380000
v 0.187272 0.480000 0.392728
v 0.199695 0.433636 0.392728
vt 0.000000 0.000000
vt 1.000000 0.000000
vt 1.000000 1.000000
vt 0.000000 1.000000
f 697/697 698/698 699/699 700/700
v 0.199695 0.433636 0.392728
v 0.187272 0.480000 0.392728
v 0.200000 0.480000 0.398000
v 0.210718 0.440000 0.398000
vt 0.000000 0.000000
vt 1.000000 0.000000
vt 1.000000 1.000000
vt 0.000000 1.000000
f 701/701 702/702 703/703 704/704
v 0.210718 0.440000 0.398000
v 0.200000 0.480000 0.398000
v 0.212728 0.480000 0.392728
v 0.221741 0.446364 0.392728
vt 0.000000 0.000000
vt 1.000000 0.000000
vt 1.000000 1.000000
vt 0.000000 1.000000
f 705/705 706/706 707/707 708/708
v 0.221741 0.446364 0.392728
v 0.212728 0.480000 0.392728
v 0.218000 0.480000 0.380000
v 0.226306 0.449000 0.380000
vt 0.000000 0.000000
vt 1.000000 0.000000
vt 1.000000 1.000000
vt 0.000000 1.000000
f 709/709 710/710 711/711 712/712
v 0.226306 0.449000 0.380000
v 0.218000 0.480000 0.380000
v 0.212728 0.480000 0.367272
v 0.221741 0.446364 0.367272
vt 0.000000 0.000000
vt 1.000000 0.000000
vt 1.000000 1.000000
vt 0.000000 1.000000
f 713/713 714/714 715/715 716/716
v 0.221741 0.446364 0.367272
v 0.212728 0.480000 0.367272
v 0.200000 0.480000 0.362000
v 0.210718 0.440000 0.362000
vt 0.000000 0.000000
vt 1.000000 0.000000
vt 1.000000 1.000000
vt 0.000000 1.000000
f 717/717 718/718 719/719 720/720
v 0.210718 0.440000 0.362000
v 0.200000 0.480000 0.362000
v 0.187272 0.480000 0.367272
v 0.199695 0.433636 0.367272
vt 0.000000 0.000000
vt 1.000000 0.000000
vt 1.000000 1.000000
vt 0.000000 1.000000
f 721/721 722/722 723/723 724/724
v 0.199695 0.433636 0.367272
v 0.187272 0.480000 0.367272
v 0.182000 0.480000 0.380000
v 0.195130 0.431000 0.380000
vt 0.000000 0.000000
vt 1.000000 0.000000
vt 1.000000 1.000000
vt 0.000000 1.000000
f 725/725 726/726 727/727 728/728
v 0.622000 0.480000 0.380000
v 0.635130 0.529000 0.380000
v 0.639695 0.526364 0.392728
v 0.627272 0.480000 0.392728
vt 0.000000 0.000000
vt 1.000000 0.000000
vt 1.000000 1.000000
vt 0.000000 1.000000
f 729/729 730/730 731/731 732/732
v 0.627272 0.480000 0.392728
v 0.639695 0.526364 0.392728
v 0.650718 0.520000 0.398000
v 0.640000 0.480000 0.398000
vt 0.000000 0.000000
vt 1.000000 0.000000
vt 1.000000 1.000000
vt 0.000000 1.000000
f 733/733 734/734 735/735 736/736
v 0.640000 0.480000 0.398000
v 0.650718 0.520000 0.398000
v 0.661741 0.513636 0.392728
v 0.652728 0.480000 0.392728
vt 0.000000 0.000000
vt 1.000000 0.000000
vt 1.000000 1.000000
vt 0.000000 1.000000
f 737/737 738/738 739/739 740/740
v 0.652728 0.480000 0.392728
v 0.661741 0.513636 0.392728
v 0.666306 0.511000 0.380000
v 0.658000 0.480000 0.380000
vt 0.000000 0.000000
vt 1.000000 0.000000
vt 1.000000 1.000000
vt 0.000000 1.000000
f 741/741 742/742 743/743 744/744
v 0.658000 0.480000 0.380000
v 0.666306 0.511000 0.380000
v 0.661741 0.513636 0.367272
v 0.652728 0.480000 0.367272
vt 0.000000 0.000000
vt 1.000000 0.000000
vt 1.000000 1.000000
vt 0.000000 1.000000
f 745/745 746/746 747/747 748/748
v 0.652728 0.480000 0.367272
v 0.661741 0.513636 0.367272
v 0.650718 0.520000 0.362000
v 0.640000 0.480000 0.362000
vt 0.000000 0.000000
vt 1.000000 0.000000
vt 1.000000 1.000000
vt 0.000000 1.000000
f 749/749 750/750 751/751 752/752
v 0.640000 0.480000 0.362000
v 0.650718 0.520000 0.362000
v 0.639695 0.526364 0.367272
v 0.627272 0.480000 0.367272
vt 0.000000 0.000000
vt 1.000000 0.000000
vt 1.000000 1.000000
vt 0.000000 1.000000
f 753/753 754/754 755/755 756/756
v 0.627272 0.480000 0.367272
v 0.639695 0.526364 0.367272
v 0.635130 0.529000 0.380000
v 0.622000 0.480000 0.380000
vt 0.000000 0.000000
vt 1.000000 0.000000
vt 1.000000 1.000000
vt 0.000000 1.000000
f 757/757 758/758 759/759 760/760
v 0.635130 0.529000 0.380000
v 0.671000 0.564870 0.380000
v 0.673636 0.560305 0.392728
v 0.639695 0.526364 0.392728
vt 0.000000 0.000000
vt 1.000000 0.000000
vt 1.000000 1.000000
vt 0.000000 1.000000
f 761/761 762/762 763/763 764/764
v 0.639695 0.526364 0.392728
v 0.673636 0.560305 0.392728
v 0.680000 0.549282 0.398000
v 0.650718 0.520000 0.398000
vt 0.000000 0.000000
vt 1.000000 0.000000
vt 1.000000 1.000000
vt 0.000000 1.000000
f 765/765 766/766 767/767 768/768
v 0.650718 0.520000 0.398000
v 0.680000 0.549282 0.398000
v 0.686364 0.538259 0.392728
v 0.661741 0.513636 0.392728
vt 0.000000 0.000000
vt 1.000000 0.000000
vt 1.000000 1.000000
vt 0.000000 1.000000
f 769/769 770/770 771/771 772/772
v 0.661741 0.513636 0.392728
v 0.686364 0.538259 0.392728
v 0.689000 0.533694 0.380000
v 0.666306 0.511000 0.380000
vt 0.000000 0.000000
vt 1.000000 0.000000
vt 1.000000 1.000000
vt 0.000000 1.000000
f 773/773 774/774 775/775 776/776
v 0.666306 0.511000 0.380000
v 0.689000 0.533694 0.380000
v 0.686364 0.538259 0.367272
v 0.661741 0.513636 0.367272
vt 0.000000 0.000000
vt 1.000000 0.000000
vt 1.000000 1.000000
vt 0.000000 1.000000
f 777/777 778/778 779/779 780/780
v 0.661741 0.513636 0.367272
v 0.686364 0.538259 0.367272
v 0.680000 0.549282 0.362000
v 0.650718 0.520000 0.362000
vt 0.000000 0.000000
vt 1.000000 0.000000
vt 1.000000 1.000000
vt 0.000000 1.000000
f 781/781 782/782 783/783 784/784
v 0.650718 0.520000 0.362000
v 0.680000 0.549282 0.362000
v 0.673636 0.560305 0.367272
v 0.639695 0.526364 0.367272
vt 0.000000 0.000000
vt 1.000000 0.000000
vt 1.000000 1.000000
vt 0.000000 1.000000
f 785/785 786/786 787/787 788/788
v 0.639695 0.526364 0.367272
v 0.673636 0.560305 0.367272
v 0.671000 0.564870 0.380000
v 0.635130 0.529000 0.380000
vt 0.000000 0.000000
vt 1.000000 0.000000
vt 1.000000 1.000000
vt 0.000000 1.000000
f 789/789 790/790 791/791 792/792
v 0.671000 0.564870 0.380000
v 0.720000 0.578000 0.380000
v 0.720000 0.572728 0.392728
v 0.673636 0.560305 0.392728
vt 0.000000 0.000000
vt 1.000000 0.000000
vt 1.000000 1.000000
vt 0.000000 1.000000
f 793/793 794/794 795/795 796/796
v 0.673636 0.560305 0.392728
v 0.720000 0.572728 0.392728
v 0.720000 0.560000 0.398000
v 0.680000 0.549282 0.398000
vt 0.000000 0.000000
vt 1.000000 0.000000
vt 1.000000 1.000000
vt 0.000000 1.000000
f 797/797 798/798 799/799 800/800
v 0.680000 0.549282 0.398000
v 0.720000 0.560000 0.398000
v 0.720000 0.547272 0.392728
v 0.686364 0.538259 0.392728
vt 0.000000 0.000000
vt 1.000000 0.000000
vt 1.000000 1.000000
vt 0.000000 1.000000
f 801/801 802/802 803/803 804/804
v 0.686364 0.538259 0.392728
v 0.720000 0.547272 0.392728
v 0.720000 0.542000 0.380000
v 0.689000 0.533694 0.380000
vt 0.000000 0.000000
vt 1.000000 0.000000
vt 1.000000 1.000000
vt 0.000000 1.000000
f 805/805 806/806 807/807 808/808
v 0.689000 0.533694 0.380000
v 0.720000 0.542000 0.380000
v 0.720000 0.547272 0.367272
v 0.686364 0.538259 0.367272
vt 0.000000 0.000000
vt 1.000000 0.000000
vt 1.000000 1.000000
vt 0.000000 1.000000
f 809/809 810/810 811/811 812/812
v 0.686364 0.538259 0.367272
v 0.720000 0.547272 0.367272
v 0.720000 0.560000 0.362000
v 0.680000 0.549282 0.362000
vt 0.000000 0.000000
vt 1.000000 0.000000
vt 1.000000 1.000000
vt 0.000000 1.000000
f 813/813 814/814 815/815 816/816
v 0.680000 0.549282 0.362000
v 0.720000 0.560000 0.362000
v 0.720000 0.572728 0.367272
v 0.673636 0.560305 0.367272
vt 0.000000 0.000000
vt 1.000000 0.000000
vt 1.000000 1.000000
vt 0.000000 1.000000
f 817/817 818/818 819/819 820/820
v 0.673636 0.560305 0.367272
v 0.720000 0.572728 0.367272
v 0.720000 0.578000 0.380000
v 0.671000 0.564870 0.380000
vt 0.000000 0.000000
vt 1.000000 0.000000
vt 1.000000 1.000000
vt 0.000000 1.000000
f 821/821 822/822 823/823 824/824
v 0.720000 0.578000 0.380000
v 0.769000 0.564870 0.380000
v 0.766364 0.560305 0.392728
v 0.720000 0.572728 0.392728
vt 0.000000 0.000000
vt 1.000000 0.000000
vt 1.000000 1.000000
vt 0.000000 1.000000
f 825/825 826/826 827/827 828/828
v 0.720000 0.572728 0.392728
v 0.766364 0.560305 0.392728
v 0.760000 0.549282 0.398000
v 0.720000 0.560000 0.398000
vt 0.000000 0.000000
vt 1.000000 0.000000
vt 1.000000 1.000000
vt 0.000000 1.000000
f 829/829 830/830 831/831 832/832
v 0.720000 0.560000 0.398000
v 0.760000 0.549282 0.398000
v 0.753636 0.538259 0.392728
v 0.720000 0.547272 0.392728
vt 0.000000 0.000000
vt 1.000000 0.000000
vt 1.000000 1.000000
vt 0.000000 1.000000
f 833/833 834/834 835/835 836/836
v 0.720000 0.547272 0.392728
v 0.753636 0.538259 0.392728
v 0.751000 0.533694 0.380000
v 0.720000 0.542000 0.380000
vt 0.000000 0.000000
vt 1.000000 0.000000
vt 1.000000 1.000000
vt 0.000000 1.000000
f 837/837 838/838 839/839 840/840
v 0.720000 0.542000 0.380000
v 0.751000 0.533694 0.380000
v 0.753636 0.538259 0.367272
v 0.720000 0.547272 0.367272
vt 0.000000 0.000000
vt 1.000000 0.000000
vt 1.000000 1.000000
vt 0.000000 1.000000
f 841/841 842/842 843/843 844/844
v 0.720000 0.547272 0.367272
v 0.753636 0.538259 0.367272
v 0.760000 0.549282 0.362000
v 0.720000 0.560000 0.362000
vt 0.000000 0.000000
vt 1.000000 0.000000
vt 1.000000 1.000000
vt 0.000000 1.000000
f 845/845 846/846 847/847 848/848
v 0.720000 0.560000 0.362000
v 0.760000 0.549282 0.362000
v 0.766364 0.560305 0.367272
v 0.720000 0.572728 0.367272
vt 0.000000 0.000000
vt 1.000000 0.000000
vt 1.000000 1.000000
vt 0.000000 1.000000
f 849/849 850/850 851/851 852/852
v 0.720000 0.572728 0.367272
v 0.766364 0.560305 0.367272
v 0.769000 0.564870 0.380000
v 0.720000 0.578000 0.380000
vt 0.000000 0.000000
vt 1.000000 0.000000
vt 1.000000 1.000000
vt 0.000000 1.000000
f 853/853 854/854 855/855 856/856
v 0.769000 0.564870 0.380000
v 0.804870 0.529000 0.380000
v 0.800305 0.526364 0.392728
v 0.766364 0.560305 0.392728
vt 0.000000 0.000000
vt 1.000000 0.000000
vt 1.000000 1.000000
vt 0.000000 1.000000
f 857/857 858/858 859/859 860/860
v 0.766364 0.560305 0.392728
v 0.800305 0.526364 0.392728
v 0.789282 0.520000 0.398000
v 0.760000 0.549282 0.398000
vt 0.000000 0.000000
vt 1.000000 0.000000
vt 1.000000 1.000000
vt 0.000000 1.000000
f 861/861 862/862 863/863 864/864
v 0.760000 0.549282 0.398000
v 0.789282 0.520000 0.398000
v 0.778259 0.513636 0.392728
v 0.753636 0.538259 0.392728
vt 0.000000 0.000000
vt 1.000000 0.000000
vt 1.000000 1.000000
vt 0.000000 1.000000
f 865/865 866/866 867/867 868/868
v 0.753636 0.538259 0.392728
v 0.778259 0.513636 0.392728
v 0.773694 0.511000 0.380000
v 0.751000 0.533694 0.380000
vt 0.000000 0.000000
vt 1.000000 0.000000
vt 1.000000 1.000000
vt 0.000000 1.000000
f 869/869 870/870 871/871 872/872
v 0.751000 0.533694 0.380000
v 0.773694 0.511000 0.380000
v 0.778259 0.513636 0.367272
v 0.753636 0.538259 0.367272
vt 0.000000 0.000000
vt 1.000000 0.000000
vt 1.000000 1.000000
vt 0.000000 1.000000
f 873/873 874/874 875/875 876/876
v 0.753636 0.538259 0.367272
v 0.778259 0.513636 0.367272
v 0.789282 0.520000 0.362000
v 0.760000 0.549282 0.362000
vt 0.000000 0.000000
vt 1.000000 0.000000
vt 1.000000 1.000000
vt 0.000000 1.000000
f 877/877 878/878 879/879 880/880
v 0.760000 0.549282 0.362000
v 0.789282 0.520000 0.362000
v 0.800305 0.526364 0.367272
v 0.766364 0.560305 0.367272
vt 0.000000 0.000000
vt 1.000000 0.000000
vt 1.000000 1.000000
vt 0.000000 1.000000
f 881/881 882/882 883/883 884/884
v 0.766364 0.560305 0.367272
v 0.800305 0.526364 0.367272
v 0.804870 0.529000 0.380000
v 0.769000 0.564870 0.380000
vt 0.000000 0.000000
vt 1.000000 0.000000
vt 1.000000 1.000000
vt 0.000000 1.000000
f 885/885 886/886 887/887 888/888
v 0.804870 0.529000 0.380000
v 0.818000 0.480000 0.380000
v 0.812728 0.480000 0.392728
v 0.800305 0.526364 0.392728
vt 0.000000 0.000000
vt 1.000000 0.000000
vt 1.000000 1.000000
vt 0.000000 1.000000
f 889/889 890/890 891/891 892/892
v 0.800305 0.526364 0.392728
v 0.812728 0.480000 0.392728
v 0.800000 0.480000 0.398000
v 0.789282 0.520000 0.398000
vt 0.000000 0.000000
vt 1.000000 0.000000
vt 1.000000 1.000000
vt 0.000000 1.000000
f 893/893 894/894 895/895 896/896
v 0.789282 0.520000 0.398000
v 0.800000 0.480000 0.398000
v 0.787272 0.480000 0.392728
v 0.778259 0.513636 0.392728
vt 0.000000 0.000000
vt 1.000000 0.000000
vt 1.000000 1.000000
vt 0.000000 1.000000
f 897/897 898/898 899/899 900/900
v 0.778259 0.513636 0.392728
v 0.787272 0.480000 0.392728
v 0.782000 0.480000 0.380000
v 0.773694 0.511000 0.380000
vt 0.000000 0.000000
vt 1.000000 0.000000
vt 1.000000 1.000000
vt 0.000000 1.000000
f 901/901 902/902 903/903 904/904
v 0.773694 0.511000 0.380000
v 0.782000 0.480000 0.380000
v 0.787272 0.480000 0.367272
v 0.778259 0.513636 0.367272
vt 0.000000 0.000000
vt 1.000000 0.000000
vt 1.000000 1.000000
vt 0.000000 1.000000
f 905/905 906/906 907/907 908/908
v 0.778259 0.513636 0.367272
v 0.787272 0.480000 0.367272
v 0.800000 0.480000 0.362000
v 0.789282 0.520000 0.362000
vt 0.000000 0.000000
vt 1.000000 0.000000
vt 1.000000 1.000000
vt 0.000000 1.000000
f 909/909 910/910 911/911 912/912
v 0.789282 0.520000 0.362000
v 0.800000 0.480000 0.362000
v 0.812728 0.480000 0.367272
v 0.800305 0.526364 0.367272
vt 0.000000 0.000000
vt 1.000000 0.000000
vt 1.000000 1.000000
vt 0.000000 1.000000
f 913/913 914/914 915/915 916/916
v 0.800305 0.526364 0.367272
v 0.812728 0.480000 0.367272
v 0.818000 0.480000 0.380000
v 0.804870 0.529000 0.380000
vt 0.000000 0.000000
vt 1.000000 0.000000
vt 1.000000 1.000000
vt 0.000000 1.000000
f 917/917 918/918 919/919 920/920
v 0.818000 0.480000 0.380000
v 0.804870 0.431000 0.380000
v 0.800305 0.433636 0.392728
v 0.812728 0.480000 0.392728
vt 0.000000 0.000000
vt 1.000000 0.000000
vt 1.000000 1.000000
vt 0.000000 1.000000
f 921/921 922/922 923/923 924/924
v 0.812728 0.480000 0.392728
v 0.800305 0.433636 0.392728
v 0.789282 0.440000 0.398000
v 0.800000 0.480000 0.398000
vt 0.000000 0.000000
vt 1.000000 0.000000
vt 1.000000 1.000000
vt 0.000000 1.000000
f 925/925 926/926 927/927 928/928
v 0.800000 0.480000 0.398000
v 0.789282 0.440000 0.398000
v 0.778259 0.446364 0.392728
v 0.787272 0.480000 0.392728
vt 0.000000 0.000000
vt 1.000000 0.000000
vt 1.000000 1.000000
vt 0.000000 1.000000
f 929/929 930/930 931/931 932/932
v 0.787272 0.480000 0.392728
v 0.778259 0.446364 0.392728
v 0.773694 0.449000 0.380000
v 0.782000 0.480000 0.380000
vt 0.000000 0.000000
vt 1.000000 0.000000
vt 1.000000 1.000000
vt 0.000000 1.000000
f 933/933 934/934 935/935 936/936
v 0.782000 0.480000 0.380000
v 0.773694 0.449000 0.380000
v 0.778259 0.446364 0.367272
v 0.787272 0.480000 0.367272
vt 0.000000 0.000000
vt 1.000000 0.000000
vt 1.000000 1.000000
vt 0.000000 1.000000
f 937/937 938/938 939/939 940/940
v 0.787272 0.480000 0.367272
v 0.778259 0.446364 0.367272
v 0.789282 0.440000 0.362000
v 0.800000 0.480000 0.362000
vt 0.000000 0.000000
vt 1.000000 0.000000
vt 1.000000 1.000000
vt 0.000000 1.000000
f 941/941 942/942 943/943 944/944
v 0.800000 0.480000 0.362000
v 0.789282 0.440000 0.362000
v 0.800305 0.433636 0.367272
v 0.812728 0.480000 0.367272
vt 0.000000 0.000000
vt 1.000000 0.000000
vt 1.000000 1.000000
vt 0.000000 1.000000
f 945/945 946/946 947/947 948/948
v 0.812728 0.480000 0.367272
v 0.800305 0.433636 0.367272
v 0.804870 0.431000 0.380000
v 0.818000 0.480000 0.380000
vt 0.000000 0.000000
vt 1.000000 0.000000
vt 1.000000 1.000000
vt 0.000000 1.000000
f 949/949 950/950 951/951 952/952
v 0.804870 0.431000 0.380000
v 0.769000 0.395130 0.380000
v 0.766364 0.399695 0.392728
v 0.800305 0.433636 0.392728
vt 0.000000 0.000000
vt 1.000000 0.000000
vt 1.000000 1.000000
vt 0.000000 1.000000
f 953/953 954/954 955/955 956/956
v 0.800305 0.433636 0.392728
v 0.766364 0.399695 0.392728
v 0.760000 0.410718 0.398000
v 0.789282 0.440000 0.398000
vt 0.000000 0.000000
vt 1.000000 0.000000
vt 1.000000 1.000000
vt 0.000000 1.000000
f 957/957 958/958 959/959 960/960
v 0.789282 0.440000 0.398000
v 0.760000 0.410718 0.398000
v 0.753636 0.421741 0.392728
v 0.778259 0.446364 0.392728
vt 0.000000 0.000000
vt 1.000000 0.000000
vt 1.000000 1.000000
vt 0.000000 1.000000
f 961/961 962/962 963/963 964/964
v 0.778259 0.446364 0.392728
v 0.753636 0.421741 0.392728
v 0.751000 0.426306 0.380000
v 0.773694 0.449000 0.380000
vt 0.000000 0.000000
vt 1.000000 0.000000
vt 1.000000 1.000000
vt 0.000000 1.000000
f 965/965 966/966 967/967 968/968
v 0.773694 0.449000 0.380000
v 0.751000 0.426306 0.380000
v 0.753636 0.421741 0.367272
v 0.778259 0.446364 0.367272
vt 0.000000 0.000000
vt 1.000000 0.000000
vt 1.000000 1.000000
vt 0.000000 1.000000
f 969/969 970/970 971/971 972/972
v 0.778259 0.446364 0.367272
v 0.753636 0.421741 0.367272
v 0.760000 0.410718 0.362000
v 0.789282 0.440000 0.362000
vt 0.000000 0.000000
vt 1.000000 0.000000
vt 1.000000 1.000000
vt 0.000000 1.000000
f 973/973 974/974 975/975 976/976
v 0.789282 0.440000 0.362000
v 0.760000 0.410718 0.362000
v 0.766364 0.399695 0.367272
v 0.800305 0.433636 0.367272
vt 0.000000 0.000000
vt 1.000000 0.000000
vt 1.000000 1.000000
vt 0.000000 1.000000
f 977/977 978/978 979/979 980/980
v 0.800305 0.433636 0.367272
v 0.766364 0.399695 0.367272
v 0.769000 0.395130 0.380000
v 0.804870 0.431000 0.380000
vt 0.000000 0.000000
vt 1.000000 0.000000
vt 1.000000 1.000000
vt 0.000000 1.000000
f 981/981 982/982 983/983 984/984
v 0.769000 0.395130 0.380000
v 0.720000 0.382000 0.380000
v 0.720000 0.387272 0.392728
v 0.766364 0.399695 0.392728
vt 0.000000 0.000000
vt 1.000000 0.000000
vt 1.000000 1.000000
vt 0.000000 1.000000
f 985/985 986/986 987/987 988/988
v 0.766364 0.399695 0.392728
v 0.720000 0.387272 0.392728
v 0.720000 0.400000 0.398000
v 0.760000 0.410718 0.398000
vt 0.000000 0.000000
vt 1.000000 0.000000
vt 1.000000 1.000000
vt 0.000000 1.000000
f 989/989 990/990 991/991 992/992
v 0.760000 0.410718 0.398000
v 0.720000 0.400000 0.398000
v 0.720000 0.412728 0.392728
v 0.753636 0.421741 0.392728
vt 0.000000 0.000000
vt 1.000000 0.000000
vt 1.000000 1.000000
vt 0.000000 1.000000
f 993/993 994/994 995/995 996/996
v 0.753636 0.421741 0.392728
v 0.720000 0.412728 0.392728
v 0.720000 0.418000 0.380000
v 0.751000 0.426306 0.380000
vt 0.000000 0.000000
vt 1.000000 0.000000
vt 1.000000 1.000000
vt 0.000000 1.000000
f 997/997 998/998 999/999 1000/1000
v 0.751000 0.426306 0.380000
v 0.720000 0.418000 0.380000
v 0.720000 0.412728 0.367272
v 0.753636 0.421741 0.367272
vt 0.000000 0.000000
vt 1.000000 0.000000
vt 1.000000 1.000000
vt 0.000000 1.000000
f 1001/1001 1002/1002 1003/1003 1004/1004
v 0.753636 0.421741 0.367272
v 0.720000 0.412728 0.367272
v 0.720000 0.400000 0.362000
v 0.760000 0.410718 0.362000
vt 0.000000 0.000000
vt 1.000000 0.000000
vt 1.000000 1.000000
vt 0.000000 1.000000
f 1005/1005 1006/1006 1007/1007 1008/1008
v 0.760000 0.410718 0.362000
v 0.720000 0.400000 0.362000
v 0.720000 0.387272 0.367272
v 0.766364 0.399695 0.367272
vt 0.000000 0.000000
vt 1.000000 0.000000
vt 1.000000 1.000000
vt 0.000000 1.000000
f 1009/1009 1010/1010 1011/1011 1012/1012
v 0.766364 0.399695 0.367272
v 0.720000 0.387272 0.367272
v 0.720000 0.382000 0.380000
v 0.769000 0.395130 0.380000
vt 0.000000 0.000000
vt 1.000000 0.000000
vt 1.000000 1.000000
vt 0.000000 1.000000
f 1013/1013 1014/1014 1015/1015 1016/1016
v 0.720000 0.382000 0.380000
v 0.671000 0.395130 0.380000
v 0.673636 0.399695 0.392728
v 0.720000 0.387272 0.392728
vt 0.000000 0.000000
vt 1.000000 0.000000
vt 1.000000 1.000000
vt 0.000000 1.000000
f 1017/1017 1018/1018 1019/1019 1020/1020
v 0.720000 0.387272 0.392728
v 0.673636 0.399695 0.392728
v 0.680000 0.410718 0.398000
v 0.720000 0.400000 0.398000
vt 0.000000 0.000000
vt 1.000000 0.000000
vt 1.000000 1.000000
vt 0.000000 1.000000
f 1021/1021 1022/1022 1023/1023 1024/1024
v 0.720000 0.400000 0.398000
v 0.680000 0.410718 0.398000
v 0.686364 0.421741 0.392728
v 0.720000 0.412728 0.392728
vt 0.000000 0.000000
vt 1.000000 0.000000
vt 1.000000 1.000000
vt 0.000000 1.000000
f 1025/1025 1026/1026 1027/1027 1028/1028
v 0.720000 0.412728 0.392728
v 0.686364 0.421741 0.392728
v 0.689000 0.426306 0.380000
v 0.720000 0.418000 0.380000
vt 0.000000 0.000000
vt 1.000000 0.000000
vt 1.000000 1.000000
vt 0.000000 1.000000
f 1029/1029 1030/1030 1031/1031 1032/1032
v 0.720000 0.418000 0.380000
v 0.689000 0.426306 0.380000
v 0.686364 0.421741 0.367272
v 0.720000 0.412728 0.367272
vt 0.000000 0.000000
vt 1.000000 0.000000
vt 1.000000 1.000000
vt 0.000000 1.000000
f 1033/1033 1034/1034 1035/1035 1036/1036
v 0.720000 0.412728 0.367272
v 0.686364 0.421741 0.367272
v 0.680000 0.410718 0.362000
v 0.720000 0.400000 0.362000
vt 0.000000 0.000000
vt 1.000000 0.000000
vt 1.000000 1.000000
vt 0.000000 1.000000
f 1037/1037 1038/1038 1039/1039 1040/1040
v 0.720000 0.400000 0.362000
v 0.680000 0.410718 0.362000
v 0.673636 0.399695 0.367272
v 0.720000 0.387272 0.367272
vt 0.000000 0.000000
vt 1.000000 0.000000
vt 1.000000 1.000000
vt 0.000000 1.000000
f 1041/1041 1042/1042 1043/1043 1044/1044
v 0.720000 0.387272 0.367272
v 0.673636 0.399695 0.367272
v 0.671000 0.395130 0.380000
v 0.720000 0.382000 0.380000
vt 0.000000 0.000000
vt 1.000000 0.000000
vt 1.000000 1.000000
vt 0.000000 1.000000
f 1045/1045 1046/1046 1047/1047 1048/1048
v 0.671000 0.395130 0.380000
v 0.635130 0.431000 0.380000
v 0.639695 0.433636 0.392728
v 0.673636 0.399695 0.392728
vt 0.000000 0.000000
vt 1.000000 0.000000
vt 1.000000 1.000000
vt 0.000000 1.000000
f 1049/1049 1050/1050 1051/1051 1052/1052
v 0.673636 0.399695 0.392728
v 0.639695 0.433636 0.392728
v 0.650718 0.440000 0.398000
v 0.680000 0.410718 0.398000
vt 0.000000 0.000000
vt 1.000000 0.000000
vt 1.000000 1.000000
vt 0.000000 1.000000
f 1053/1053 1054/1054 1055/1055 1056/1056
v 0.680000 0.410718 0.398000
v 0.650718 0.440000 0.398000
v 0.661741 0.446364 0.392728
v 0.686364 0.421741 0.392728
vt 0.000000 0.000000
vt 1.000000 0.000000
vt 1.000000 1.000000
vt 0.000000 1.000000
f 1057/1057 1058/1058 1059/1059 1060/1060
v 0.686364 0.421741 0.392728
v 0.661741 0.446364 0.392728
v 0.666306 0.449000 0.380000
v 0.689000 0.426306 0.380000
vt 0.000000 0.000000
vt 1.000000 0.000000
vt 1.000000 1.000000
vt 0.000000 1.000000
f 1061/1061 1062/1062 1063/1063 1064/1064
v 0.689000 0.426306 0.380000
v 0.666306 0.449000 0.380000
v 0.661741 0.446364 0.367272
v 0.686364 0.421741 0.367272
vt 0.000000 0.000000
vt 1.000000 0.000000
vt 1.000000 1.000000
vt 0.000000 1.000000
f 1065/1065 1066/1066 1067/1067 1068/1068
v 0.686364 0.421741 0.367272
v 0.661741 0.446364 0.367272
v 0.650718 0.440000 0.362000
v 0.680000 0.410718 0.362000
vt 0.000000 0.000000
vt 1.000000 0.000000
vt 1.000000 1.000000
vt 0.000000 1.000000
f 1069/1069 1070/1070 1071/1071 1072/1072
v 0.680000 0.410718 0.362000
v 0.650718 0.440000 0.362000
v 0.639695 0.433636 0.367272
v 0.673636 0.399695 0.367272
vt 0.000000 0.000000
vt 1.000000 0.000000
vt 1.000000 1.000000
vt 0.000000 1.000000
f 1073/1073 1074/1074 1075/1075 1076/1076
v 0.673636 0.399695 0.367272
v 0.639695 0.433636 0.367272
v 0.635130 0.431000 0.380000
v 0.671000 0.395130 0.380000
vt 0.000000 0.000000
vt 1.000000 0.000000
vt 1.000000 1.000000
vt 0.000000 1.000000
f 1077/1077 1078/1078 1079/1079 1080/1080
v 0.635130 0.431000 0.380000
v 0.622000 0.480000 0.380000
v 0.627272 0.480000 0.392728
v 0.639695 0.433636 0.392728
vt 0.000000 0.000000
vt 1.000000 0.000000
vt 1.000000 1.000000
vt 0.000000 1.000000
f 1081/1081 1082/1082 1083/1083 1084/1084
v 0.639695 0.433636 0.392728
v 0.627272 0.480000 0.392728
v 0.640000 0.480000 0.398000
v 0.650718 0.440000 0.398000
vt 0.000000 0.000000
vt 1.000000 0.000000
vt 1.000000 1.000000
vt 0.000000 1.000000
f 1085/1085 1086/1086 1087/1087 1088/1088
v 0.650718 0.440000 0.398000
v 0.640000 0.480000 0.398000
v 0.652728 0.480000 0.392728
v 0.661741 0.446364 0.392728
vt 0.000000 0.000000
vt 1.000000 0.000000
vt 1.000000 1.000000
vt 0.000000 1.000000
f 1089/1089 1090/1090 1091/1091 1092/1092
v 0.661741 0.446364 0.392728
v 0.652728 0.480000 0.392728
v 0.658000 0.480000 0.380000
v 0.666306 0.449000 0.380000
vt 0.000000 0.000000
vt 1.000000 0.000000
vt 1.000000 1.000000
vt 0.000000 1.000000
f 1093/1093 1094/1094 1095/1095 1096/1096
v 0.666306 0.449000 0.380000
v 0.658000 0.480000 0.380000
v 0.652728 0.480000 0.367272
v 0.661741 0.446364 0.367272
vt 0.000000 0.000000
vt 1.000000 0.000000
vt 1.000000 1.000000
vt 0.000000 1.000000
f 1097/1097 1098/1098 1099/1099 1100/1100
v 0.661741 0.446364 0.367272
v 0.652728 0.480000 0.367272
v 0.640000 0.480000 0.362000
v 0.650718 0.440000 0.362000
vt 0.000000 0.000000
vt 1.000000 0.000000
vt 1.000000 1.000000
vt 0.000000 1.000000
f 1101/1101 1102/1102 1103/1103 1104/1104
v 0.650718 0.440000 0.362000
v 0.640000 0.480000 0.362000
v 0.627272 0.480000 0.367272
v 0.639695 0.433636 0.367272
vt 0.000000 0.000000
vt 1.000000 0.000000
vt 1.000000 1.000000
vt 0.000000 1.000000
f 1105/1105 1106/1106 1107/1107 1108/1108
v 0.639695 0.433636 0.367272
v 0.627272 0.480000 0.367272
v 0.622000 0.480000 0.380000
v 0.635130 0.431000 0.380000
vt 0.000000 0.000000
vt 1.000000 0.000000
vt 1.000000 1.000000
vt 0.000000 1.000000
f 1109/1109 1110/1110 1111/1111 1112/1112
usemtl glass
v 0.200000 0.400000 0.220000
v 0.800000 0.400000 0.220000
v 0.800000 0.520000 0.220000
v 0.200000 0.520000 0.220000
vt 0.000000 0.000000
vt 1.000000 0.000000
vt 1.000000 1.000000
vt 0.000000 1.000000
f 1113/1113 1114/1114 1115/1115 1116/1116
v 0.800000 0.400000 0.480000
v 0.200000 0.400000 0.480000
v 0.200000 0.520000 0.480000
v 0.800000 0.520000 0.480000
vt 0.000000 0.000000
vt 1.000000 0.000000
vt 1.000000 1.000000
vt 0.000000 1.000000
f 1117/1117 1118/1118 1119/1119 1120/1120
v 0.200000 0.400000 0.480000
v 0.200000 0.400000 0.220000
v 0.200000 0.520000 0.220000
v 0.200000 0.520000 0.480000
vt 0.000000 0.000000
vt 1.000000 0.000000
vt 1.000000 1.000000
vt 0.000000 1.000000
f 1121/1121 1122/1122 1123/1123 1124/1124
v 0.800000 0.400000 0.220000
v 0.800000 0.400000 0.480000
v 0.800000 0.520000 0.480000
v 0.800000 0.520000 0.220000
vt 0.000000 0.000000
vt 1.000000 0.000000
vt 1.000000 1.000000
vt 0.000000 1.000000
f 1125/1125 1126/1126 1127/1127 1128/1128
v 0.200000 0.520000 0.220000
v 0.800000 0.520000 0.220000
v 0.800000 0.520000 0.480000
v 0.200000 0.520000 0.480000
vt 0.000000 0.000000
vt 1.000000 0.000000
vt 1.000000 1.000000
vt 0.000000 1.000000
f 1129/1129 1130/1130 1131/1131 1132/1132
v 0.200000 0.400000 0.480000
v 0.800000 0.400000 0.480000
v 0.800000 0.400000 0.220000
v 0.200000 0.400000 0.220000
vt 0.000000 0.000000
vt 1.000000 0.000000
vt 1.000000 1.000000
vt 0.000000 1.000000
f 1133/1133 1134/1134 1135/1135 1136/1136
