mtllib vehicle_door.mtl
o vehicle_door
s 1
usemtl olive
v 0.000000 0.000000 0.000000
v 3.000000 0.000000 0.000000
v 3.000000 3.000000 0.000000
v 0.000000 3.000000 0.000000
vt 0.000000 0.000000
vt 1.000000 0.000000
vt 1.000000 1.000000
vt 0.000000 1.000000
f 1/1 2/2 3/3 4/4
v 3.000000 0.000000 0.280000
v 0.000000 0.000000 0.280000
v 0.000000 3.000000 0.280000
v 3.000000 3.000000 0.280000
vt 0.000000 0.000000
vt 1.000000 0.000000
vt 1.000000 1.000000
vt 0.000000 1.000000
f 5/5 6/6 7/7 8/8
v 0.000000 0.000000 0.280000
v 0.000000 0.000000 0.000000
v 0.000000 3.000000 0.000000
v 0.000000 3.000000 0.280000
vt 0.000000 0.000000
vt 1.000000 0.000000
vt 1.000000 1.000000
vt 0.000000 1.000000
f 9/9 10/10 11/11 12/12
v 3.000000 0.000000 0.000000
v 3.000000 0.000000 0.280000
v 3.000000 3.000000 0.280000
v 3.000000 3.000000 0.000000
vt 0.000000 0.000000
vt 1.000000 0.000000
vt 1.000000 1.000000
vt 0.000000 1.000000
f 13/13 14/14 15/15 16/16
v 0.000000 3.000000 0.000000
v 3.000000 3.000000 0.000000
v 3.000000 3.000000 0.280000
v 0.000000 3.000000 0.280000
vt 0.000000 0.000000
vt 1.000000 0.000000
vt 1.000000 1.000000
vt 0.000000 1.000000
f 17/17 18/18 19/19 20/20
v 0.000000 0.000000 0.280000
v 3.000000 0.000000 0.280000
v 3.000000 0.000000 0.000000
v 0.000000 0.000000 0.000000
vt 0.000000 0.000000
vt 1.000000 0.000000
vt 1.000000 1.000000
vt 0.000000 1.000000
f 21/21 22/22 23/23 24/24
usemtl dark
v 0.040000 0.060000 0.030000
v 2.960000 0.060000 0.030000
v 2.960000 2.940000 0.030000
v 0.040000 2.940000 0.030000
vt 0.000000 0.000000
vt 1.000000 0.000000
vt 1.000000 1.000000
vt 0.000000 1.000000
f 25/25 26/26 27/27 28/28
v 2.960000 0.060000 0.250000
v 0.040000 0.060000 0.250000
v 0.040000 2.940000 0.250000
v 2.960000 2.940000 0.250000
vt 0.000000 0.000000
vt 1.000000 0.000000
vt 1.000000 1.000000
vt 0.000000 1.000000
f 29/29 30/30 31/31 32/32
v 0.040000 0.060000 0.250000
v 0.040000 0.060000 0.030000
v 0.040000 2.940000 0.030000
v 0.040000 2.940000 0.250000
vt 0.000000 0.000000
vt 1.000000 0.000000
vt 1.000000 1.000000
vt 0.000000 1.000000
f 33/33 34/34 35/35 36/36
v 2.960000 0.060000 0.030000
v 2.960000 0.060000 0.250000
v 2.960000 2.940000 0.250000
v 2.960000 2.940000 0.030000
vt 0.000000 0.000000
vt 1.000000 0.000000
vt 1.000000 1.000000
vt 0.000000 1.000000
f 37/37 38/38 39/39 40/40
v 0.040000 2.940000 0.030000
v 2.960000 2.940000 0.030000
v 2.960000 2.940000 0.250000
v 0.040000 2.940000 0.250000
vt 0.000000 0.000000
vt 1.000000 0.000000
vt 1.000000 1.000000
vt 0.000000 1.000000
f 41/41 42/42 43/43 44/44
v 0.040000 0.060000 0.250000
v 2.960000 0.060000 0.250000
v 2.960000 0.060000 0.030000
v 0.040000 0.060000 0.030000
vt 0.000000 0.000000
vt 1.000000 0.000000
vt 1.000000 1.000000
vt 0.000000 1.000000
f 45/45 46/46 47/47 48/48
v 0.080000 0.100000 0.020000
v 0.220000 0.100000 0.020000
v 0.220000 2.900000 0.020000
v 0.080000 2.900000 0.020000
vt 0.000000 0.000000
vt 1.000000 0.000000
vt 1.000000 1.000000
vt 0.000000 1.000000
f 49/49 50/50 51/51 52/52
v 0.220000 0.100000 0.260000
v 0.080000 0.100000 0.260000
v 0.080000 2.900000 0.260000
v 0.220000 2.900000 0.260000
vt 0.000000 0.000000
vt 1.000000 0.000000
vt 1.000000 1.000000
vt 0.000000 1.000000
f 53/53 54/54 55/55 56/56
v 0.080000 0.100000 0.260000
v 0.080000 0.100000 0.020000
v 0.080000 2.900000 0.020000
v 0.080000 2.900000 0.260000
vt 0.000000 0.000000
vt 1.000000 0.000000
vt 1.000000 1.000000
vt 0.000000 1.000000
f 57/57 58/58 59/59 60/60
v 0.220000 0.100000 0.020000
v 0.220000 0.100000 0.260000
v 0.220000 2.900000 0.260000
v 0.220000 2.900000 0.020000
vt 0.000000 0.000000
vt 1.000000 0.000000
vt 1.000000 1.000000
vt 0.000000 1.000000
f 61/61 62/62 63/63 64/64
v 0.080000 2.900000 0.020000
v 0.220000 2.900000 0.020000
v 0.220000 2.900000 0.260000
v 0.080000 2.900000 0.260000
vt 0.000000 0.000000
vt 1.000000 0.000000
vt 1.000000 1.000000
vt 0.000000 1.000000
f 65/65 66/66 67/67 68/68
v 0.080000 0.100000 0.260000
v 0.220000 0.100000 0.260000
v 0.220000 0.100000 0.020000
v 0.080000 0.100000 0.020000
vt 0.000000 0.000000
vt 1.000000 0.000000
vt 1.000000 1.000000
vt 0.000000 1.000000
f 69/69 70/70 71/71 72/72
v 0.560000 0.100000 0.020000
v 0.700000 0.100000 0.020000
v 0.700000 2.900000 0.020000
v 0.560000 2.900000 0.020000
vt 0.000000 0.000000
vt 1.000000 0.000000
vt 1.000000 1.000000
vt 0.000000 1.000000
f 73/73 74/74 75/75 76/76
v 0.700000 0.100000 0.260000
v 0.560000 0.100000 0.260000
v 0.560000 2.900000 0.260000
v 0.700000 2.900000 0.260000
vt 0.000000 0.000000
vt 1.000000 0.000000
vt 1.000000 1.000000
vt 0.000000 1.000000
f 77/77 78/78 79/79 80/80
v 0.560000 0.100000 0.260000
v 0.560000 0.100000 0.020000
v 0.560000 2.900000 0.020000
v 0.560000 2.900000 0.260000
vt 0.000000 0.000000
vt 1.000000 0.000000
vt 1.000000 1.000000
vt 0.000000 1.000000
f 81/81 82/82 83/83 84/84
v 0.700000 0.100000 0.020000
v 0.700000 0.100000 0.260000
v 0.700000 2.900000 0.260000
v 0.700000 2.900000 0.020000
vt 0.000000 0.000000
vt 1.000000 0.000000
vt 1.000000 1.000000
vt 0.000000 1.000000
f 85/85 86/86 87/87 88/88
v 0.560000 2.900000 0.020000
v 0.700000 2.900000 0.020000
v 0.700000 2.900000 0.260000
v 0.560000 2.900000 0.260000
vt 0.000000 0.000000
vt 1.000000 0.000000
vt 1.000000 1.000000
vt 0.000000 1.000000
f 89/89 90/90 91/91 92/92
v 0.560000 0.100000 0.260000
v 0.700000 0.100000 0.260000
v 0.700000 0.100000 0.020000
v 0.560000 0.100000 0.020000
vt 0.000000 0.000000
vt 1.000000 0.000000
vt 1.000000 1.000000
vt 0.000000 1.000000
f 93/93 94/94 95/95 96/96
v 1.040000 0.100000 0.020000
v 1.180000 0.100000 0.020000
v 1.180000 2.900000 0.020000
v 1.040000 2.900000 0.020000
vt 0.000000 0.000000
vt 1.000000 0.000000
vt 1.000000 1.000000
vt 0.000000 1.000000
f 97/97 98/98 99/99 100/100
v 1.180000 0.100000 0.260000
v 1.040000 0.100000 0.260000
v 1.040000 2.900000 0.260000
v 1.180000 2.900000 0.260000
vt 0.000000 0.000000
vt 1.000000 0.000000
vt 1.000000 1.000000
vt 0.000000 1.000000
f 101/101 102/102 103/103 104/104
v 1.040000 0.100000 0.260000
v 1.040000 0.100000 0.020000
v 1.040000 2.900000 0.020000
v 1.040000 2.900000 0.260000
vt 0.000000 0.000000
vt 1.000000 0.000000
vt 1.000000 1.000000
vt 0.000000 1.000000
f 105/105 106/106 107/107 108/108
v 1.180000 0.100000 0.020000
v 1.180000 0.100000 0.260000
v 1.180000 2.900000 0.260000
v 1.180000 2.900000 0.020000
vt 0.000000 0.000000
vt 1.000000 0.000000
vt 1.000000 1.000000
vt 0.000000 1.000000
f 109/109 110/110 111/111 112/112
v 1.040000 2.900000 0.020000
v 1.180000 2.900000 0.020000
v 1.180000 2.900000 0.260000
v 1.040000 2.900000 0.260000
vt 0.000000 0.000000
vt 1.000000 0.000000
vt 1.000000 1.000000
vt 0.000000 1.000000
f 113/113 114/114 115/115 116/116
v 1.040000 0.100000 0.260000
v 1.180000 0.100000 0.260000
v 1.180000 0.100000 0.020000
v 1.040000 0.100000 0.020000
vt 0.000000 0.000000
vt 1.000000 0.000000
vt 1.000000 1.000000
vt 0.000000 1.000000
f 117/117 118/118 119/119 120/120
v 1.520000 0.100000 0.020000
v 1.660000 0.100000 0.020000
v 1.660000 2.900000 0.020000
v 1.520000 2.900000 0.020000
vt 0.000000 0.000000
vt 1.000000 0.000000
vt 1.000000 1.000000
vt 0.000000 1.000000
f 121/121 122/122 123/123 124/124
v 1.660000 0.100000 0.260000
v 1.520000 0.100000 0.260000
v 1.520000 2.900000 0.260000
v 1.660000 2.900000 0.260000
vt 0.000000 0.000000
vt 1.000000 0.000000
vt 1.000000 1.000000
vt 0.000000 1.000000
f 125/125 126/126 127/127 128/128
v 1.520000 0.100000 0.260000
v 1.520000 0.100000 0.020000
v 1.520000 2.900000 0.020000
v 1.520000 2.900000 0.260000
vt 0.000000 0.000000
vt 1.000000 0.000000
vt 1.000000 1.000000
vt 0.000000 1.000000
f 129/129 130/130 131/131 132/132
v 1.660000 0.100000 0.020000
v 1.660000 0.100000 0.260000
v 1.660000 2.900000 0.260000
v 1.660000 2.900000 0.020000
vt 0.000000 0.000000
vt 1.000000 0.000000
vt 1.000000 1.000000
vt 0.000000 1.000000
f 133/133 134/134 135/135 136/136
v 1.520000 2.900000 0.020000
v 1.660000 2.900000 0.020000
v 1.660000 2.900000 0.260000
v 1.520000 2.900000 0.260000
vt 0.000000 0.000000
vt 1.000000 0.000000
vt 1.000000 1.000000
vt 0.000000 1.000000
f 137/137 138/138 139/139 140/140
v 1.520000 0.100000 0.260000
v 1.660000 0.100000 0.260000
v 1.660000 0.100000 0.020000
v 1.520000 0.100000 0.020000
vt 0.000000 0.000000
vt 1.000000 0.000000
vt 1.000000 1.000000
vt 0.000000 1.000000
f 141/141 142/142 143/143 144/144
v 2.000000 0.100000 0.020000
v 2.140000 0.100000 0.020000
v 2.140000 2.900000 0.020000
v 2.000000 2.900000 0.020000
vt 0.000000 0.000000
vt 1.000000 0.000000
vt 1.000000 1.000000
vt 0.000000 1.000000
f 145/145 146/146 147/147 148/148
v 2.140000 0.100000 0.260000
v 2.000000 0.100000 0.260000
v 2.000000 2.900000 0.260000
v 2.140000 2.900000 0.260000
vt 0.000000 0.000000
vt 1.000000 0.000000
vt 1.000000 1.000000
vt 0.000000 1.000000
f 149/149 150/150 151/151 152/152
v 2.000000 0.100000 0.260000
v 2.000000 0.100000 0.020000
v 2.000000 2.900000 0.020000
v 2.000000 2.900000 0.260000
vt 0.000000 0.000000
vt 1.000000 0.000000
vt 1.000000 1.000000
vt 0.000000 1.000000
f 153/153 154/154 155/155 156/156
v 2.140000 0.100000 0.020000
v 2.140000 0.100000 0.260000
v 2.140000 2.900000 0.260000
v 2.140000 2.900000 0.020000
vt 0.000000 0.000000
vt 1.000000 0.000000
vt 1.000000 1.000000
vt 0.000000 1.000000
f 157/157 158/158 159/159 160/160
v 2.000000 2.900000 0.020000
v 2.140000 2.900000 0.020000
v 2.140000 2.900000 0.260000
v 2.000000 2.900000 0.260000
vt 0.000000 0.000000
vt 1.000000 0.000000
vt 1.000000 1.000000
vt 0.000000 1.000000
f 161/161 162/162 163/163 164/164
v 2.000000 0.100000 0.260000
v 2.140000 0.100000 0.260000
v 2.140000 0.100000 0.020000
v 2.000000 0.100000 0.020000
vt 0.000000 0.000000
vt 1.000000 0.000000
vt 1.000000 1.000000
vt 0.000000 1.000000
f 165/165 166/166 167/167 168/168
v 2.480000 0.100000 0.020000
v 2.620000 0.100000 0.020000
v 2.620000 2.900000 0.020000
v 2.480000 2.900000 0.020000
vt 0.000000 0.000000
vt 1.000000 0.000000
vt 1.000000 1.000000
vt 0.000000 1.000000
f 169/169 170/170 171/171 172/172
v 2.620000 0.100000 0.260000
v 2.480000 0.100000 0.260000
v 2.480000 2.900000 0.260000
v 2.620000 2.900000 0.260000
vt 0.000000 0.000000
vt 1.000000 0.000000
vt 1.000000 1.000000
vt 0.000000 1.000000
f 173/173 174/174 175/175 176/176
v 2.480000 0.100000 0.260000
v 2.480000 0.100000 0.020000
v 2.480000 2.900000 0.020000
v 2.480000 2.900000 0.260000
vt 0.000000 0.000000
vt 1.000000 0.000000
vt 1.000000 1.000000
vt 0.000000 1.000000
f 177/177 178/178 179/179 180/180
v 2.620000 0.100000 0.020000
v 2.620000 0.100000 0.260000
v 2.620000 2.900000 0.260000
v 2.620000 2.900000 0.020000
vt 0.000000 0.000000
vt 1.000000 0.000000
vt 1.000000 1.000000
vt 0.000000 1.000000
f 181/181 182/182 183/183 184/184
v 2.480000 2.900000 0.020000
v 2.620000 2.900000 0.020000
v 2.620000 2.900000 0.260000
v 2.480000 2.900000 0.260000
vt 0.000000 0.000000
vt 1.000000 0.000000
vt 1.000000 1.000000
vt 0.000000 1.000000
f 185/185 186/186 187/187 188/188
v 2.480000 0.100000 0.260000
v 2.620000 0.100000 0.260000
v 2.620000 0.100000 0.020000
v 2.480000 0.100000 0.020000
vt 0.000000 0.000000
vt 1.000000 0.000000
vt 1.000000 1.000000
vt 0.000000 1.000000
f 189/189 190/190 191/191 192/192
usemtl yellow
v 0.100000 2.820000 0.000000
v 2.900000 2.820000 0.000000
v 2.900000 2.940000 0.000000
v 0.100000 2.940000 0.000000
vt 0.000000 0.000000
vt 1.000000 0.000000
vt 1.000000 1.000000
vt 0.000000 1.000000
f 193/193 194/194 195/195 196/196
v 2.900000 2.820000 0.300000
v 0.100000 2.820000 0.300000
v 0.100000 2.940000 0.300000
v 2.900000 2.940000 0.300000
vt 0.000000 0.000000
vt 1.000000 0.000000
vt 1.000000 1.000000
vt 0.000000 1.000000
f 197/197 198/198 199/199 200/200
v 0.100000 2.820000 0.300000
v 0.100000 2.820000 0.000000
v 0.100000 2.940000 0.000000
v 0.100000 2.940000 0.300000
vt 0.000000 0.000000
vt 1.000000 0.000000
vt 1.000000 1.000000
vt 0.000000 1.000000
f 201/201 202/202 203/203 204/204
v 2.900000 2.820000 0.000000
v 2.900000 2.820000 0.300000
v 2.900000 2.940000 0.300000
v 2.900000 2.940000 0.000000
vt 0.000000 0.000000
vt 1.000000 0.000000
vt 1.000000 1.000000
vt 0.000000 1.000000
f 205/205 206/206 207/207 208/208
v 0.100000 2.940000 0.000000
v 2.900000 2.940000 0.000000
v 2.900000 2.940000 0.300000
v 0.100000 2.940000 0.300000
vt 0.000000 0.000000
vt 1.000000 0.000000
vt 1.000000 1.000000
vt 0.000000 1.000000
f 209/209 210/210 211/211 212/212
v 0.100000 2.820000 0.300000
v 2.900000 2.820000 0.300000
v 2.900000 2.820000 0.000000
v 0.100000 2.820000 0.000000
vt 0.000000 0.000000
vt 1.000000 0.000000
vt 1.000000 1.000000
vt 0.000000 1.000000
f 213/213 214/214 215/215 216/216
