mtllib aam.mtl
o aam
s 1
usemtl dark
v 0.000000 -1.728000 -0.470400
v 0.180014 -1.728000 -0.434593
v 0.120010 -1.512000 -0.289729
v 0.000000 -1.512000 -0.313600
vt 0.000000 0.000000
vt 0.062500 0.000000
vt 0.062500 1.000000
vt 0.000000 1.000000
f 1/1 2/2 3/3 4/4
v 0.000000 -1.728000 0.000000
v 0.180014 -1.728000 -0.434593
v 0.000000 -1.728000 -0.470400
vt 0.000000 0.000000
vt 1.000000 0.000000
vt 1.000000 1.000000
f 5/5 6/6 7/7
v 0.000000 -1.512000 0.000000
v 0.000000 -1.512000 -0.313600
v 0.120010 -1.512000 -0.289729
vt 0.000000 0.000000
vt 1.000000 0.000000
vt 1.000000 1.000000
f 8/8 9/9 10/10
v 0.180014 -1.728000 -0.434593
v 0.332623 -1.728000 -0.332623
v 0.221749 -1.512000 -0.221749
v 0.120010 -1.512000 -0.289729
vt 0.062500 0.000000
vt 0.125000 0.000000
vt 0.125000 1.000000
vt 0.062500 1.000000
f 11/11 12/12 13/13 14/14
v 0.000000 -1.728000 0.000000
v 0.332623 -1.728000 -0.332623
v 0.180014 -1.728000 -0.434593
vt 0.000000 0.000000
vt 1.000000 0.000000
vt 1.000000 1.000000
f 15/15 16/16 17/17
v 0.000000 -1.512000 0.000000
v 0.120010 -1.512000 -0.289729
v 0.221749 -1.512000 -0.221749
vt 0.000000 0.000000
vt 1.000000 0.000000
vt 1.000000 1.000000
f 18/18 19/19 20/20
v 0.332623 -1.728000 -0.332623
v 0.434593 -1.728000 -0.180014
v 0.289729 -1.512000 -0.120010
v 0.221749 -1.512000 -0.221749
vt 0.125000 0.000000
vt 0.187500 0.000000
vt 0.187500 1.000000
vt 0.125000 1.000000
f 21/21 22/22 23/23 24/24
v 0.000000 -1.728000 0.000000
v 0.434593 -1.728000 -0.180014
v 0.332623 -1.728000 -0.332623
vt 0.000000 0.000000
vt 1.000000 0.000000
vt 1.000000 1.000000
f 25/25 26/26 27/27
v 0.000000 -1.512000 0.000000
v 0.221749 -1.512000 -0.221749
v 0.289729 -1.512000 -0.120010
vt 0.000000 0.000000
vt 1.000000 0.000000
vt 1.000000 1.000000
f 28/28 29/29 30/30
v 0.434593 -1.728000 -0.180014
v 0.470400 -1.728000 -0.000000
v 0.313600 -1.512000 -0.000000
v 0.289729 -1.512000 -0.120010
vt 0.187500 0.000000
vt 0.250000 0.000000
vt 0.250000 1.000000
vt 0.187500 1.000000
f 31/31 32/32 33/33 34/34
v 0.000000 -1.728000 0.000000
v 0.470400 -1.728000 -0.000000
v 0.434593 -1.728000 -0.180014
vt 0.000000 0.000000
vt 1.000000 0.000000
vt 1.000000 1.000000
f 35/35 36/36 37/37
v 0.000000 -1.512000 0.000000
v 0.289729 -1.512000 -0.120010
v 0.313600 -1.512000 -0.000000
vt 0.000000 0.000000
vt 1.000000 0.000000
vt 1.000000 1.000000
f 38/38 39/39 40/40
v 0.470400 -1.728000 -0.000000
v 0.434593 -1.728000 0.180014
v 0.289729 -1.512000 0.120010
v 0.313600 -1.512000 -0.000000
vt 0.250000 0.000000
vt 0.312500 0.000000
vt 0.312500 1.000000
vt 0.250000 1.000000
f 41/41 42/42 43/43 44/44
v 0.000000 -1.728000 0.000000
v 0.434593 -1.728000 0.180014
v 0.470400 -1.728000 -0.000000
vt 0.000000 0.000000
vt 1.000000 0.000000
vt 1.000000 1.000000
f 45/45 46/46 47/47
v 0.000000 -1.512000 0.000000
v 0.313600 -1.512000 -0.000000
v 0.289729 -1.512000 0.120010
vt 0.000000 0.000000
vt 1.000000 0.000000
vt 1.000000 1.000000
f 48/48 49/49 50/50
v 0.434593 -1.728000 0.180014
v 0.332623 -1.728000 0.332623
v 0.221749 -1.512000 0.221749
v 0.289729 -1.512000 0.120010
vt 0.312500 0.000000
vt 0.375000 0.000000
vt 0.375000 1.000000
vt 0.312500 1.000000
f 51/51 52/52 53/53 54/54
v 0.000000 -1.728000 0.000000
v 0.332623 -1.728000 0.332623
v 0.434593 -1.728000 0.180014
vt 0.000000 0.000000
vt 1.000000 0.000000
vt 1.000000 1.000000
f 55/55 56/56 57/57
v 0.000000 -1.512000 0.000000
v 0.289729 -1.512000 0.120010
v 0.221749 -1.512000 0.221749
vt 0.000000 0.000000
vt 1.000000 0.000000
vt 1.000000 1.000000
f 58/58 59/59 60/60
v 0.332623 -1.728000 0.332623
v 0.180014 -1.728000 0.434593
v 0.120010 -1.512000 0.289729
v 0.221749 -1.512000 0.221749
vt 0.375000 0.000000
vt 0.437500 0.000000
vt 0.437500 1.000000
vt 0.375000 1.000000
f 61/61 62/62 63/63 64/64
v 0.000000 -1.728000 0.000000
v 0.180014 -1.728000 0.434593
v 0.332623 -1.728000 0.332623
vt 0.000000 0.000000
vt 1.000000 0.000000
vt 1.000000 1.000000
f 65/65 66/66 67/67
v 0.000000 -1.512000 0.000000
v 0.221749 -1.512000 0.221749
v 0.120010 -1.512000 0.289729
vt 0.000000 0.000000
vt 1.000000 0.000000
vt 1.000000 1.000000
f 68/68 69/69 70/70
v 0.180014 -1.728000 0.434593
v 0.000000 -1.728000 0.470400
v 0.000000 -1.512000 0.313600
v 0.120010 -1.512000 0.289729
vt 0.437500 0.000000
vt 0.500000 0.000000
vt 0.500000 1.000000
vt 0.437500 1.000000
f 71/71 72/72 73/73 74/74
v 0.000000 -1.728000 0.000000
v 0.000000 -1.728000 0.470400
v 0.180014 -1.728000 0.434593
vt 0.000000 0.000000
vt 1.000000 0.000000
vt 1.000000 1.000000
f 75/75 76/76 77/77
v 0.000000 -1.512000 0.000000
v 0.120010 -1.512000 0.289729
v 0.000000 -1.512000 0.313600
vt 0.000000 0.000000
vt 1.000000 0.000000
vt 1.000000 1.000000
f 78/78 79/79 80/80
v 0.000000 -1.728000 0.470400
v -0.180014 -1.728000 0.434593
v -0.120010 -1.512000 0.289729
v 0.000000 -1.512000 0.313600
vt 0.500000 0.000000
vt 0.562500 0.000000
vt 0.562500 1.000000
vt 0.500000 1.000000
f 81/81 82/82 83/83 84/84
v 0.000000 -1.728000 0.000000
v -0.180014 -1.728000 0.434593
v 0.000000 -1.728000 0.470400
vt 0.000000 0.000000
vt 1.000000 0.000000
vt 1.000000 1.000000
f 85/85 86/86 87/87
v 0.000000 -1.512000 0.000000
v 0.000000 -1.512000 0.313600
v -0.120010 -1.512000 0.289729
vt 0.000000 0.000000
vt 1.000000 0.000000
vt 1.000000 1.000000
f 88/88 89/89 90/90
v -0.180014 -1.728000 0.434593
v -0.332623 -1.728000 0.332623
v -0.221749 -1.512000 0.221749
v -0.120010 -1.512000 0.289729
vt 0.562500 0.000000
vt 0.625000 0.000000
vt 0.625000 1.000000
vt 0.562500 1.000000
f 91/91 92/92 93/93 94/94
v 0.000000 -1.728000 0.000000
v -0.332623 -1.728000 0.332623
v -0.180014 -1.728000 0.434593
vt 0.000000 0.000000
vt 1.000000 0.000000
vt 1.000000 1.000000
f 95/95 96/96 97/97
v 0.000000 -1.512000 0.000000
v -0.120010 -1.512000 0.289729
v -0.221749 -1.512000 0.221749
vt 0.000000 0.000000
vt 1.000000 0.000000
vt 1.000000 1.000000
f 98/98 99/99 100/100
v -0.332623 -1.728000 0.332623
v -0.434593 -1.728000 0.180014
v -0.289729 -1.512000 0.120010
v -0.221749 -1.512000 0.221749
vt 0.625000 0.000000
vt 0.687500 0.000000
vt 0.687500 1.000000
vt 0.625000 1.000000
f 101/101 102/102 103/103 104/104
v 0.000000 -1.728000 0.000000
v -0.434593 -1.728000 0.180014
v -0.332623 -1.728000 0.332623
vt 0.000000 0.000000
vt 1.000000 0.000000
vt 1.000000 1.000000
f 105/105 106/106 107/107
v 0.000000 -1.512000 0.000000
v -0.221749 -1.512000 0.221749
v -0.289729 -1.512000 0.120010
vt 0.000000 0.000000
vt 1.000000 0.000000
vt 1.000000 1.000000
f 108/108 109/109 110/110
v -0.434593 -1.728000 0.180014
v -0.470400 -1.728000 0.000000
v -0.313600 -1.512000 0.000000
v -0.289729 -1.512000 0.120010
vt 0.687500 0.000000
vt 0.750000 0.000000
vt 0.750000 1.000000
vt 0.687500 1.000000
f 111/111 112/112 113/113 114/114
v 0.000000 -1.728000 0.000000
v -0.470400 -1.728000 0.000000
v -0.434593 -1.728000 0.180014
vt 0.000000 0.000000
vt 1.000000 0.000000
vt 1.000000 1.000000
f 115/115 116/116 117/117
v 0.000000 -1.512000 0.000000
v -0.289729 -1.512000 0.120010
v -0.313600 -1.512000 0.000000
vt 0.000000 0.000000
vt 1.000000 0.000000
vt 1.000000 1.000000
f 118/118 119/119 120/120
v -0.470400 -1.728000 0.000000
v -0.434593 -1.728000 -0.180014
v -0.289729 -1.512000 -0.120010
v -0.313600 -1.512000 0.000000
vt 0.750000 0.000000
vt 0.812500 0.000000
vt 0.812500 1.000000
vt 0.750000 1.000000
f 121/121 122/122 123/123 124/124
v 0.000000 -1.728000 0.000000
v -0.434593 -1.728000 -0.180014
v -0.470400 -1.728000 0.000000
vt 0.000000 0.000000
vt 1.000000 0.000000
vt 1.000000 1.000000
f 125/125 126/126 127/127
v 0.000000 -1.512000 0.000000
v -0.313600 -1.512000 0.000000
v -0.289729 -1.512000 -0.120010
vt 0.000000 0.000000
vt 1.000000 0.000000
vt 1.000000 1.000000
f 128/128 129/129 130/130
v -0.434593 -1.728000 -0.180014
v -0.332623 -1.728000 -0.332623
v -0.221749 -1.512000 -0.221749
v -0.289729 -1.512000 -0.120010
vt 0.812500 0.000000
vt 0.875000 0.000000
vt 0.875000 1.000000
vt 0.812500 1.000000
f 131/131 132/132 133/133 134/134
v 0.000000 -1.728000 0.000000
v -0.332623 -1.728000 -0.332623
v -0.434593 -1.728000 -0.180014
vt 0.000000 0.000000
vt 1.000000 0.000000
vt 1.000000 1.000000
f 135/135 136/136 137/137
v 0.000000 -1.512000 0.000000
v -0.289729 -1.512000 -0.120010
v -0.221749 -1.512000 -0.221749
vt 0.000000 0.000000
vt 1.000000 0.000000
vt 1.000000 1.000000
f 138/138 139/139 140/140
v -0.332623 -1.728000 -0.332623
v -0.180014 -1.728000 -0.434593
v -0.120010 -1.512000 -0.289729
v -0.221749 -1.512000 -0.221749
vt 0.875000 0.000000
vt 0.937500 0.000000
vt 0.937500 1.000000
vt 0.875000 1.000000
f 141/141 142/142 143/143 144/144
v 0.000000 -1.728000 0.000000
v -0.180014 -1.728000 -0.434593
v -0.332623 -1.728000 -0.332623
vt 0.000000 0.000000
vt 1.000000 0.000000
vt 1.000000 1.000000
f 145/145 146/146 147/147
v 0.000000 -1.512000 0.000000
v -0.221749 -1.512000 -0.221749
v -0.120010 -1.512000 -0.289729
vt 0.000000 0.000000
vt 1.000000 0.000000
vt 1.000000 1.000000
f 148/148 149/149 150/150
v -0.180014 -1.728000 -0.434593
v -0.000000 -1.728000 -0.470400
v -0.000000 -1.512000 -0.313600
v -0.120010 -1.512000 -0.289729
vt 0.937500 0.000000
vt 1.000000 0.000000
vt 1.000000 1.000000
vt 0.937500 1.000000
f 151/151 152/152 153/153 154/154
v 0.000000 -1.728000 0.000000
v -0.000000 -1.728000 -0.470400
v -0.180014 -1.728000 -0.434593
vt 0.000000 0.000000
vt 1.000000 0.000000
vt 1.000000 1.000000
f 155/155 156/156 157/157
v 0.000000 -1.512000 0.000000
v -0.120010 -1.512000 -0.289729
v -0.000000 -1.512000 -0.313600
vt 0.000000 0.000000
vt 1.000000 0.000000
vt 1.000000 1.000000
f 158/158 159/159 160/160
usemtl white
v 0.000000 -1.512000 -0.607600
v 0.157258 -1.512000 -0.586897
v 0.157258 1.134000 -0.586897
v 0.000000 1.134000 -0.607600
vt 0.000000 0.000000
vt 0.041667 0.000000
vt 0.041667 1.000000
vt 0.000000 1.000000
f 161/161 162/162 163/163 164/164
v 0.157258 -1.512000 -0.586897
v 0.303800 -1.512000 -0.526197
v 0.303800 1.134000 -0.526197
v 0.157258 1.134000 -0.586897
vt 0.041667 0.000000
vt 0.083333 0.000000
vt 0.083333 1.000000
vt 0.041667 1.000000
f 165/165 166/166 167/167 168/168
v 0.303800 -1.512000 -0.526197
v 0.429638 -1.512000 -0.429638
v 0.429638 1.134000 -0.429638
v 0.303800 1.134000 -0.526197
vt 0.083333 0.000000
vt 0.125000 0.000000
vt 0.125000 1.000000
vt 0.083333 1.000000
f 169/169 170/170 171/171 172/172
v 0.429638 -1.512000 -0.429638
v 0.526197 -1.512000 -0.303800
v 0.526197 1.134000 -0.303800
v 0.429638 1.134000 -0.429638
vt 0.125000 0.000000
vt 0.166667 0.000000
vt 0.166667 1.000000
vt 0.125000 1.000000
f 173/173 174/174 175/175 176/176
v 0.526197 -1.512000 -0.303800
v 0.586897 -1.512000 -0.157258
v 0.586897 1.134000 -0.157258
v 0.526197 1.134000 -0.303800
vt 0.166667 0.000000
vt 0.208333 0.000000
vt 0.208333 1.000000
vt 0.166667 1.000000
f 177/177 178/178 179/179 180/180
v 0.586897 -1.512000 -0.157258
v 0.607600 -1.512000 -0.000000
v 0.607600 1.134000 -0.000000
v 0.586897 1.134000 -0.157258
vt 0.208333 0.000000
vt 0.250000 0.000000
vt 0.250000 1.000000
vt 0.208333 1.000000
f 181/181 182/182 183/183 184/184
v 0.607600 -1.512000 -0.000000
v 0.586897 -1.512000 0.157258
v 0.586897 1.134000 0.157258
v 0.607600 1.134000 -0.000000
vt 0.250000 0.000000
vt 0.291667 0.000000
vt 0.291667 1.000000
vt 0.250000 1.000000
f 185/185 186/186 187/187 188/188
v 0.586897 -1.512000 0.157258
v 0.526197 -1.512000 0.303800
v 0.526197 1.134000 0.303800
v 0.586897 1.134000 0.157258
vt 0.291667 0.000000
vt 0.333333 0.000000
vt 0.333333 1.000000
vt 0.291667 1.000000
f 189/189 190/190 191/191 192/192
v 0.526197 -1.512000 0.303800
v 0.429638 -1.512000 0.429638
v 0.429638 1.134000 0.429638
v 0.526197 1.134000 0.303800
vt 0.333333 0.000000
vt 0.375000 0.000000
vt 0.375000 1.000000
vt 0.333333 1.000000
f 193/193 194/194 195/195 196/196
v 0.429638 -1.512000 0.429638
v 0.303800 -1.512000 0.526197
v 0.303800 1.134000 0.526197
v 0.429638 1.134000 0.429638
vt 0.375000 0.000000
vt 0.416667 0.000000
vt 0.416667 1.000000
vt 0.375000 1.000000
f 197/197 198/198 199/199 200/200
v 0.303800 -1.512000 0.526197
v 0.157258 -1.512000 0.586897
v 0.157258 1.134000 0.586897
v 0.303800 1.134000 0.526197
vt 0.416667 0.000000
vt 0.458333 0.000000
vt 0.458333 1.000000
vt 0.416667 1.000000
f 201/201 202/202 203/203 204/204
v 0.157258 -1.512000 0.586897
v 0.000000 -1.512000 0.607600
v 0.000000 1.134000 0.607600
v 0.157258 1.134000 0.586897
vt 0.458333 0.000000
vt 0.500000 0.000000
vt 0.500000 1.000000
vt 0.458333 1.000000
f 205/205 206/206 207/207 208/208
v 0.000000 -1.512000 0.607600
v -0.157258 -1.512000 0.586897
v -0.157258 1.134000 0.586897
v 0.000000 1.134000 0.607600
vt 0.500000 0.000000
vt 0.541667 0.000000
vt 0.541667 1.000000
vt 0.500000 1.000000
f 209/209 210/210 211/211 212/212
v -0.157258 -1.512000 0.586897
v -0.303800 -1.512000 0.526197
v -0.303800 1.134000 0.526197
v -0.157258 1.134000 0.586897
vt 0.541667 0.000000
vt 0.583333 0.000000
vt 0.583333 1.000000
vt 0.541667 1.000000
f 213/213 214/214 215/215 216/216
v -0.303800 -1.512000 0.526197
v -0.429638 -1.512000 0.429638
v -0.429638 1.134000 0.429638
v -0.303800 1.134000 0.526197
vt 0.583333 0.000000
vt 0.625000 0.000000
vt 0.625000 1.000000
vt 0.583333 1.000000
f 217/217 218/218 219/219 220/220
v -0.429638 -1.512000 0.429638
v -0.526197 -1.512000 0.303800
v -0.526197 1.134000 0.303800
v -0.429638 1.134000 0.429638
vt 0.625000 0.000000
vt 0.666667 0.000000
vt 0.666667 1.000000
vt 0.625000 1.000000
f 221/221 222/222 223/223 224/224
v -0.526197 -1.512000 0.303800
v -0.586897 -1.512000 0.157258
v -0.586897 1.134000 0.157258
v -0.526197 1.134000 0.303800
vt 0.666667 0.000000
vt 0.708333 0.000000
vt 0.708333 1.000000
vt 0.666667 1.000000
f 225/225 226/226 227/227 228/228
v -0.586897 -1.512000 0.157258
v -0.607600 -1.512000 0.000000
v -0.607600 1.134000 0.000000
v -0.586897 1.134000 0.157258
vt 0.708333 0.000000
vt 0.750000 0.000000
vt 0.750000 1.000000
vt 0.708333 1.000000
f 229/229 230/230 231/231 232/232
v -0.607600 -1.512000 0.000000
v -0.586897 -1.512000 -0.157258
v -0.586897 1.134000 -0.157258
v -0.607600 1.134000 0.000000
vt 0.750000 0.000000
vt 0.791667 0.000000
vt 0.791667 1.000000
vt 0.750000 1.000000
f 233/233 234/234 235/235 236/236
v -0.586897 -1.512000 -0.157258
v -0.526197 -1.512000 -0.303800
v -0.526197 1.134000 -0.303800
v -0.586897 1.134000 -0.157258
vt 0.791667 0.000000
vt 0.833333 0.000000
vt 0.833333 1.000000
vt 0.791667 1.000000
f 237/237 238/238 239/239 240/240
v -0.526197 -1.512000 -0.303800
v -0.429638 -1.512000 -0.429638
v -0.429638 1.134000 -0.429638
v -0.526197 1.134000 -0.303800
vt 0.833333 0.000000
vt 0.875000 0.000000
vt 0.875000 1.000000
vt 0.833333 1.000000
f 241/241 242/242 243/243 244/244
v -0.429638 -1.512000 -0.429638
v -0.303800 -1.512000 -0.526197
v -0.303800 1.134000 -0.526197
v -0.429638 1.134000 -0.429638
vt 0.875000 0.000000
vt 0.916667 0.000000
vt 0.916667 1.000000
vt 0.875000 1.000000
f 245/245 246/246 247/247 248/248
v -0.303800 -1.512000 -0.526197
v -0.157258 -1.512000 -0.586897
v -0.157258 1.134000 -0.586897
v -0.303800 1.134000 -0.526197
vt 0.916667 0.000000
vt 0.958333 0.000000
vt 0.958333 1.000000
vt 0.916667 1.000000
f 249/249 250/250 251/251 252/252
v -0.157258 -1.512000 -0.586897
v -0.000000 -1.512000 -0.607600
v -0.000000 1.134000 -0.607600
v -0.157258 1.134000 -0.586897
vt 0.958333 0.000000
vt 1.000000 0.000000
vt 1.000000 1.000000
vt 0.958333 1.000000
f 253/253 254/254 255/255 256/256
usemtl glass
v 0.000000 1.134000 -0.607600
v 0.171181 1.134000 -0.582988
v 0.002761 1.890000 -0.009403
v 0.000000 1.890000 -0.009800
vt 0.000000 0.000000
vt 0.045455 0.000000
vt 0.045455 1.000000
vt 0.000000 1.000000
f 257/257 258/258 259/259 260/260
v 0.000000 1.134000 0.000000
v 0.171181 1.134000 -0.582988
v 0.000000 1.134000 -0.607600
vt 0.000000 0.000000
vt 1.000000 0.000000
vt 1.000000 1.000000
f 261/261 262/262 263/263
v 0.000000 1.890000 0.000000
v 0.000000 1.890000 -0.009800
v 0.002761 1.890000 -0.009403
vt 0.000000 0.000000
vt 1.000000 0.000000
vt 1.000000 1.000000
f 264/264 265/265 266/266
v 0.171181 1.134000 -0.582988
v 0.328493 1.134000 -0.511146
v 0.005298 1.890000 -0.008244
v 0.002761 1.890000 -0.009403
vt 0.045455 0.000000
vt 0.090909 0.000000
vt 0.090909 1.000000
vt 0.045455 1.000000
f 267/267 268/268 269/269 270/270
v 0.000000 1.134000 0.000000
v 0.328493 1.134000 -0.511146
v 0.171181 1.134000 -0.582988
vt 0.000000 0.000000
vt 1.000000 0.000000
vt 1.000000 1.000000
f 271/271 272/272 273/273
v 0.000000 1.890000 0.000000
v 0.002761 1.890000 -0.009403
v 0.005298 1.890000 -0.008244
vt 0.000000 0.000000
vt 1.000000 0.000000
vt 1.000000 1.000000
f 274/274 275/275 276/276
v 0.328493 1.134000 -0.511146
v 0.459193 1.134000 -0.397893
v 0.007406 1.890000 -0.006418
v 0.005298 1.890000 -0.008244
vt 0.090909 0.000000
vt 0.136364 0.000000
vt 0.136364 1.000000
vt 0.090909 1.000000
f 277/277 278/278 279/279 280/280
v 0.000000 1.134000 0.000000
v 0.459193 1.134000 -0.397893
v 0.328493 1.134000 -0.511146
vt 0.000000 0.000000
vt 1.000000 0.000000
vt 1.000000 1.000000
f 281/281 282/282 283/283
v 0.000000 1.890000 0.000000
v 0.005298 1.890000 -0.008244
v 0.007406 1.890000 -0.006418
vt 0.000000 0.000000
vt 1.000000 0.000000
vt 1.000000 1.000000
f 284/284 285/285 286/286
v 0.459193 1.134000 -0.397893
v 0.552692 1.134000 -0.252406
v 0.008914 1.890000 -0.004071
v 0.007406 1.890000 -0.006418
vt 0.136364 0.000000
vt 0.181818 0.000000
vt 0.181818 1.000000
vt 0.136364 1.000000
f 287/287 288/288 289/289 290/290
v 0.000000 1.134000 0.000000
v 0.552692 1.134000 -0.252406
v 0.459193 1.134000 -0.397893
vt 0.000000 0.000000
vt 1.000000 0.000000
vt 1.000000 1.000000
f 291/291 292/292 293/293
v 0.000000 1.890000 0.000000
v 0.007406 1.890000 -0.006418
v 0.008914 1.890000 -0.004071
vt 0.000000 0.000000
vt 1.000000 0.000000
vt 1.000000 1.000000
f 294/294 295/295 296/296
v 0.552692 1.134000 -0.252406
v 0.601416 1.134000 -0.086470
v 0.009700 1.890000 -0.001395
v 0.008914 1.890000 -0.004071
vt 0.181818 0.000000
vt 0.227273 0.000000
vt 0.227273 1.000000
vt 0.181818 1.000000
f 297/297 298/298 299/299 300/300
v 0.000000 1.134000 0.000000
v 0.601416 1.134000 -0.086470
v 0.552692 1.134000 -0.252406
vt 0.000000 0.000000
vt 1.000000 0.000000
vt 1.000000 1.000000
f 301/301 302/302 303/303
v 0.000000 1.890000 0.000000
v 0.008914 1.890000 -0.004071
v 0.009700 1.890000 -0.001395
vt 0.000000 0.000000
vt 1.000000 0.000000
vt 1.000000 1.000000
f 304/304 305/305 306/306
v 0.601416 1.134000 -0.086470
v 0.601416 1.134000 0.086470
v 0.009700 1.890000 0.001395
v 0.009700 1.890000 -0.001395
vt 0.227273 0.000000
vt 0.272727 0.000000
vt 0.272727 1.000000
vt 0.227273 1.000000
f 307/307 308/308 309/309 310/310
v 0.000000 1.134000 0.000000
v 0.601416 1.134000 0.086470
v 0.601416 1.134000 -0.086470
vt 0.000000 0.000000
vt 1.000000 0.000000
vt 1.000000 1.000000
f 311/311 312/312 313/313
v 0.000000 1.890000 0.000000
v 0.009700 1.890000 -0.001395
v 0.009700 1.890000 0.001395
vt 0.000000 0.000000
vt 1.000000 0.000000
vt 1.000000 1.000000
f 314/314 315/315 316/316
v 0.601416 1.134000 0.086470
v 0.552692 1.134000 0.252406
v 0.008914 1.890000 0.004071
v 0.009700 1.890000 0.001395
vt 0.272727 0.000000
vt 0.318182 0.000000
vt 0.318182 1.000000
vt 0.272727 1.000000
f 317/317 318/318 319/319 320/320
v 0.000000 1.134000 0.000000
v 0.552692 1.134000 0.252406
v 0.601416 1.134000 0.086470
vt 0.000000 0.000000
vt 1.000000 0.000000
vt 1.000000 1.000000
f 321/321 322/322 323/323
v 0.000000 1.890000 0.000000
v 0.009700 1.890000 0.001395
v 0.008914 1.890000 0.004071
vt 0.000000 0.000000
vt 1.000000 0.000000
vt 1.000000 1.000000
f 324/324 325/325 326/326
v 0.552692 1.134000 0.252406
v 0.459193 1.134000 0.397893
v 0.007406 1.890000 0.006418
v 0.008914 1.890000 0.004071
vt 0.318182 0.000000
vt 0.363636 0.000000
vt 0.363636 1.000000
vt 0.318182 1.000000
f 327/327 328/328 329/329 330/330
v 0.000000 1.134000 0.000000
v 0.459193 1.134000 0.397893
v 0.552692 1.134000 0.252406
vt 0.000000 0.000000
vt 1.000000 0.000000
vt 1.000000 1.000000
f 331/331 332/332 333/333
v 0.000000 1.890000 0.000000
v 0.008914 1.890000 0.004071
v 0.007406 1.890000 0.006418
vt 0.000000 0.000000
vt 1.000000 0.000000
vt 1.000000 1.000000
f 334/334 335/335 336/336
v 0.459193 1.134000 0.397893
v 0.328493 1.134000 0.511146
v 0.005298 1.890000 0.008244
v 0.007406 1.890000 0.006418
vt 0.363636 0.000000
vt 0.409091 0.000000
vt 0.409091 1.000000
vt 0.363636 1.000000
f 337/337 338/338 339/339 340/340
v 0.000000 1.134000 0.000000
v 0.328493 1.134000 0.511146
v 0.459193 1.134000 0.397893
vt 0.000000 0.000000
vt 1.000000 0.000000
vt 1.000000 1.000000
f 341/341 342/342 343/343
v 0.000000 1.890000 0.000000
v 0.007406 1.890000 0.006418
v 0.005298 1.890000 0.008244
vt 0.000000 0.000000
vt 1.000000 0.000000
vt 1.000000 1.000000
f 344/344 345/345 346/346
v 0.328493 1.134000 0.511146
v 0.171181 1.134000 0.582988
v 0.002761 1.890000 0.009403
v 0.005298 1.890000 0.008244
vt 0.409091 0.000000
vt 0.454545 0.000000
vt 0.454545 1.000000
vt 0.409091 1.000000
f 347/347 348/348 349/349 350/350
v 0.000000 1.134000 0.000000
v 0.171181 1.134000 0.582988
v 0.328493 1.134000 0.511146
vt 0.000000 0.000000
vt 1.000000 0.000000
vt 1.000000 1.000000
f 351/351 352/352 353/353
v 0.000000 1.890000 0.000000
v 0.005298 1.890000 0.008244
v 0.002761 1.890000 0.009403
vt 0.000000 0.000000
vt 1.000000 0.000000
vt 1.000000 1.000000
f 354/354 355/355 356/356
v 0.171181 1.134000 0.582988
v 0.000000 1.134000 0.607600
v 0.000000 1.890000 0.009800
v 0.002761 1.890000 0.009403
vt 0.454545 0.000000
vt 0.500000 0.000000
vt 0.500000 1.000000
vt 0.454545 1.000000
f 357/357 358/358 359/359 360/360
v 0.000000 1.134000 0.000000
v 0.000000 1.134000 0.607600
v 0.171181 1.134000 0.582988
vt 0.000000 0.000000
vt 1.000000 0.000000
vt 1.000000 1.000000
f 361/361 362/362 363/363
v 0.000000 1.890000 0.000000
v 0.002761 1.890000 0.009403
v 0.000000 1.890000 0.009800
vt 0.000000 0.000000
vt 1.000000 0.000000
vt 1.000000 1.000000
f 364/364 365/365 366/366
v 0.000000 1.134000 0.607600
v -0.171181 1.134000 0.582988
v -0.002761 1.890000 0.009403
v 0.000000 1.890000 0.009800
vt 0.500000 0.000000
vt 0.545455 0.000000
vt 0.545455 1.000000
vt 0.500000 1.000000
f 367/367 368/368 369/369 370/370
v 0.000000 1.134000 0.000000
v -0.171181 1.134000 0.582988
v 0.000000 1.134000 0.607600
vt 0.000000 0.000000
vt 1.000000 0.000000
vt 1.000000 1.000000
f 371/371 372/372 373/373
v 0.000000 1.890000 0.000000
v 0.000000 1.890000 0.009800
v -0.002761 1.890000 0.009403
vt 0.000000 0.000000
vt 1.000000 0.000000
vt 1.000000 1.000000
f 374/374 375/375 376/376
v -0.171181 1.134000 0.582988
v -0.328493 1.134000 0.511146
v -0.005298 1.890000 0.008244
v -0.002761 1.890000 0.009403
vt 0.545455 0.000000
vt 0.590909 0.000000
vt 0.590909 1.000000
vt 0.545455 1.000000
f 377/377 378/378 379/379 380/380
v 0.000000 1.134000 0.000000
v -0.328493 1.134000 0.511146
v -0.171181 1.134000 0.582988
vt 0.000000 0.000000
vt 1.000000 0.000000
vt 1.000000 1.000000
f 381/381 382/382 383/383
v 0.000000 1.890000 0.000000
v -0.002761 1.890000 0.009403
v -0.005298 1.890000 0.008244
vt 0.000000 0.000000
vt 1.000000 0.000000
vt 1.000000 1.000000
f 384/384 385/385 386/386
v -0.328493 1.134000 0.511146
v -0.459193 1.134000 0.397893
v -0.007406 1.890000 0.006418
v -0.005298 1.890000 0.008244
vt 0.590909 0.000000
vt 0.636364 0.000000
vt 0.636364 1.000000
vt 0.590909 1.000000
f 387/387 388/388 389/389 390/390
v 0.000000 1.134000 0.000000
v -0.459193 1.134000 0.397893
v -0.328493 1.134000 0.511146
vt 0.000000 0.000000
vt 1.000000 0.000000
vt 1.000000 1.000000
f 391/391 392/392 393/393
v 0.000000 1.890000 0.000000
v -0.005298 1.890000 0.008244
v -0.007406 1.890000 0.006418
vt 0.000000 0.000000
vt 1.000000 0.000000
vt 1.000000 1.000000
f 394/394 395/395 396/396
v -0.459193 1.134000 0.397893
v -0.552692 1.134000 0.252406
v -0.008914 1.890000 0.004071
v -0.007406 1.890000 0.006418
vt 0.636364 0.000000
vt 0.681818 0.000000
vt 0.681818 1.000000
vt 0.636364 1.000000
f 397/397 398/398 399/399 400/400
v 0.000000 1.134000 0.000000
v -0.552692 1.134000 0.252406
v -0.459193 1.134000 0.397893
vt 0.000000 0.000000
vt 1.000000 0.000000
vt 1.000000 1.000000
f 401/401 402/402 403/403
v 0.000000 1.890000 0.000000
v -0.007406 1.890000 0.006418
v -0.008914 1.890000 0.004071
vt 0.000000 0.000000
vt 1.000000 0.000000
vt 1.000000 1.000000
f 404/404 405/405 406/406
v -0.552692 1.134000 0.252406
v -0.601416 1.134000 0.086470
v -0.009700 1.890000 0.001395
v -0.008914 1.890000 0.004071
vt 0.681818 0.000000
vt 0.727273 0.000000
vt 0.727273 1.000000
vt 0.681818 1.000000
f 407/407 408/408 409/409 410/410
v 0.000000 1.134000 0.000000
v -0.601416 1.134000 0.086470
v -0.552692 1.134000 0.252406
vt 0.000000 0.000000
vt 1.000000 0.000000
vt 1.000000 1.000000
f 411/411 412/412 413/413
v 0.000000 1.890000 0.000000
v -0.008914 1.890000 0.004071
v -0.009700 1.890000 0.001395
vt 0.000000 0.000000
vt 1.000000 0.000000
vt 1.000000 1.000000
f 414/414 415/415 416/416
v -0.601416 1.134000 0.086470
v -0.601416 1.134000 -0.086470
v -0.009700 1.890000 -0.001395
v -0.009700 1.890000 0.001395
vt 0.727273 0.000000
vt 0.772727 0.000000
vt 0.772727 1.000000
vt 0.727273 1.000000
f 417/417 418/418 419/419 420/420
v 0.000000 1.134000 0.000000
v -0.601416 1.134000 -0.086470
v -0.601416 1.134000 0.086470
vt 0.000000 0.000000
vt 1.000000 0.000000
vt 1.000000 1.000000
f 421/421 422/422 423/423
v 0.000000 1.890000 0.000000
v -0.009700 1.890000 0.001395
v -0.009700 1.890000 -0.001395
vt 0.000000 0.000000
vt 1.000000 0.000000
vt 1.000000 1.000000
f 424/424 425/425 426/426
v -0.601416 1.134000 -0.086470
v -0.552692 1.134000 -0.252406
v -0.008914 1.890000 -0.004071
v -0.009700 1.890000 -0.001395
vt 0.772727 0.000000
vt 0.818182 0.000000
vt 0.818182 1.000000
vt 0.772727 1.000000
f 427/427 428/428 429/429 430/430
v 0.000000 1.134000 0.000000
v -0.552692 1.134000 -0.252406
v -0.601416 1.134000 -0.086470
vt 0.000000 0.000000
vt 1.000000 0.000000
vt 1.000000 1.000000
f 431/431 432/432 433/433
v 0.000000 1.890000 0.000000
v -0.009700 1.890000 -0.001395
v -0.008914 1.890000 -0.004071
vt 0.000000 0.000000
vt 1.000000 0.000000
vt 1.000000 1.000000
f 434/434 435/435 436/436
v -0.552692 1.134000 -0.252406
v -0.459193 1.134000 -0.397893
v -0.007406 1.890000 -0.006418
v -0.008914 1.890000 -0.004071
vt 0.818182 0.000000
vt 0.863636 0.000000
vt 0.863636 1.000000
vt 0.818182 1.000000
f 437/437 438/438 439/439 440/440
v 0.000000 1.134000 0.000000
v -0.459193 1.134000 -0.397893
v -0.552692 1.134000 -0.252406
vt 0.000000 0.000000
vt 1.000000 0.000000
vt 1.000000 1.000000
f 441/441 442/442 443/443
v 0.000000 1.890000 0.000000
v -0.008914 1.890000 -0.004071
v -0.007406 1.890000 -0.006418
vt 0.000000 0.000000
vt 1.000000 0.000000
vt 1.000000 1.000000
f 444/444 445/445 446/446
v -0.459193 1.134000 -0.397893
v -0.328493 1.134000 -0.511146
v -0.005298 1.890000 -0.008244
v -0.007406 1.890000 -0.006418
vt 0.863636 0.000000
vt 0.909091 0.000000
vt 0.909091 1.000000
vt 0.863636 1.000000
f 447/447 448/448 449/449 450/450
v 0.000000 1.134000 0.000000
v -0.328493 1.134000 -0.511146
v -0.459193 1.134000 -0.397893
vt 0.000000 0.000000
vt 1.000000 0.000000
vt 1.000000 1.000000
f 451/451 452/452 453/453
v 0.000000 1.890000 0.000000
v -0.007406 1.890000 -0.006418
v -0.005298 1.890000 -0.008244
vt 0.000000 0.000000
vt 1.000000 0.000000
vt 1.000000 1.000000
f 454/454 455/455 456/456
v -0.328493 1.134000 -0.511146
v -0.171181 1.134000 -0.582988
v -0.002761 1.890000 -0.009403
v -0.005298 1.890000 -0.008244
vt 0.909091 0.000000
vt 0.954545 0.000000
vt 0.954545 1.000000
vt 0.909091 1.000000
f 457/457 458/458 459/459 460/460
v 0.000000 1.134000 0.000000
v -0.171181 1.134000 -0.582988
v -0.328493 1.134000 -0.511146
vt 0.000000 0.000000
vt 1.000000 0.000000
vt 1.000000 1.000000
f 461/461 462/462 463/463
v 0.000000 1.890000 0.000000
v -0.005298 1.890000 -0.008244
v -0.002761 1.890000 -0.009403
vt 0.000000 0.000000
vt 1.000000 0.000000
vt 1.000000 1.000000
f 464/464 465/465 466/466
v -0.171181 1.134000 -0.582988
v -0.000000 1.134000 -0.607600
v -0.000000 1.890000 -0.009800
v -0.002761 1.890000 -0.009403
vt 0.954545 0.000000
vt 1.000000 0.000000
vt 1.000000 1.000000
vt 0.954545 1.000000
f 467/467 468/468 469/469 470/470
v 0.000000 1.134000 0.000000
v -0.000000 1.134000 -0.607600
v -0.171181 1.134000 -0.582988
vt 0.000000 0.000000
vt 1.000000 0.000000
vt 1.000000 1.000000
f 471/471 472/472 473/473
v 0.000000 1.890000 0.000000
v -0.002761 1.890000 -0.009403
v -0.000000 1.890000 -0.009800
vt 0.000000 0.000000
vt 1.000000 0.000000
vt 1.000000 1.000000
f 474/474 475/475 476/476
usemtl dark
v -2.156000 -0.216000 -0.078400
v 2.156000 -0.216000 -0.078400
v 2.156000 0.594000 -0.078400
v -2.156000 0.594000 -0.078400
vt 0.000000 0.000000
vt 1.000000 0.000000
vt 1.000000 1.000000
vt 0.000000 1.000000
f 477/477 478/478 479/479 480/480
v 2.156000 -0.216000 0.078400
v -2.156000 -0.216000 0.078400
v -2.156000 0.594000 0.078400
v 2.156000 0.594000 0.078400
vt 0.000000 0.000000
vt 1.000000 0.000000
vt 1.000000 1.000000
vt 0.000000 1.000000
f 481/481 482/482 483/483 484/484
v -2.156000 -0.216000 0.078400
v -2.156000 -0.216000 -0.078400
v -2.156000 0.594000 -0.078400
v -2.156000 0.594000 0.078400
vt 0.000000 0.000000
vt 1.000000 0.000000
vt 1.000000 1.000000
vt 0.000000 1.000000
f 485/485 486/486 487/487 488/488
v 2.156000 -0.216000 -0.078400
v 2.156000 -0.216000 0.078400
v 2.156000 0.594000 0.078400
v 2.156000 0.594000 -0.078400
vt 0.000000 0.000000
vt 1.000000 0.000000
vt 1.000000 1.000000
vt 0.000000 1.000000
f 489/489 490/490 491/491 492/492
v -2.156000 0.594000 -0.078400
v 2.156000 0.594000 -0.078400
v 2.156000 0.594000 0.078400
v -2.156000 0.594000 0.078400
vt 0.000000 0.000000
vt 1.000000 0.000000
vt 1.000000 1.000000
vt 0.000000 1.000000
f 493/493 494/494 495/495 496/496
v -2.156000 -0.216000 0.078400
v 2.156000 -0.216000 0.078400
v 2.156000 -0.216000 -0.078400
v -2.156000 -0.216000 -0.078400
vt 0.000000 0.000000
vt 1.000000 0.000000
vt 1.000000 1.000000
vt 0.000000 1.000000
f 497/497 498/498 499/499 500/500
v -0.078400 -0.216000 -2.156000
v 0.078400 -0.216000 -2.156000
v 0.078400 0.594000 -2.156000
v -0.078400 0.594000 -2.156000
vt 0.000000 0.000000
vt 1.000000 0.000000
vt 1.000000 1.000000
vt 0.000000 1.000000
f 501/501 502/502 503/503 504/504
v 0.078400 -0.216000 2.156000
v -0.078400 -0.216000 2.156000
v -0.078400 0.594000 2.156000
v 0.078400 0.594000 2.156000
vt 0.000000 0.000000
vt 1.000000 0.000000
vt 1.000000 1.000000
vt 0.000000 1.000000
f 505/505 506/506 507/507 508/508
v -0.078400 -0.216000 2.156000
v -0.078400 -0.216000 -2.156000
v -0.078400 0.594000 -2.156000
v -0.078400 0.594000 2.156000
vt 0.000000 0.000000
vt 1.000000 0.000000
vt 1.000000 1.000000
vt 0.000000 1.000000
f 509/509 510/510 511/511 512/512
v 0.078400 -0.216000 -2.156000
v 0.078400 -0.216000 2.156000
v 0.078400 0.594000 2.156000
v 0.078400 0.594000 -2.156000
vt 0.000000 0.000000
vt 1.000000 0.000000
vt 1.000000 1.000000
vt 0.000000 1.000000
f 513/513 514/514 515/515 516/516
v -0.078400 0.594000 -2.156000
v 0.078400 0.594000 -2.156000
v 0.078400 0.594000 2.156000
v -0.078400 0.594000 2.156000
vt 0.000000 0.000000
vt 1.000000 0.000000
vt 1.000000 1.000000
vt 0.000000 1.000000
f 517/517 518/518 519/519 520/520
v -0.078400 -0.216000 2.156000
v 0.078400 -0.216000 2.156000
v 0.078400 -0.216000 -2.156000
v -0.078400 -0.216000 -2.156000
vt 0.000000 0.000000
vt 1.000000 0.000000
vt 1.000000 1.000000
vt 0.000000 1.000000
f 521/521 522/522 523/523 524/524
v 0.607600 -1.404000 0.049000
v 1.568000 -1.350000 0.049000
v 1.568000 -0.774900 0.049000
v 0.607600 -0.756000 0.049000
vt 0.000000 0.000000
vt 1.000000 0.000000
vt 1.000000 1.000000
vt 0.000000 1.000000
f 525/525 526/526 527/527 528/528
v 0.607600 -1.404000 -0.049000
v 0.607600 -0.756000 -0.049000
v 1.568000 -0.774900 -0.049000
v 1.568000 -1.350000 -0.049000
vt 0.000000 0.000000
vt 1.000000 0.000000
vt 1.000000 1.000000
vt 0.000000 1.000000
f 529/529 530/530 531/531 532/532
v 0.607600 -1.404000 0.049000
v 0.607600 -1.404000 -0.049000
v 1.568000 -1.350000 -0.049000
v 0.607600 -0.756000 0.049000
vt 0.000000 0.000000
vt 1.000000 0.000000
vt 1.000000 1.000000
vt 0.000000 1.000000
f 533/533 534/534 535/535 536/536
v 1.568000 -1.350000 0.049000
v 1.568000 -0.774900 0.049000
v 1.568000 -0.774900 -0.049000
v 0.607600 -0.756000 -0.049000
vt 0.000000 0.000000
vt 1.000000 0.000000
vt 1.000000 1.000000
vt 0.000000 1.000000
f 537/537 538/538 539/539 540/540
v -0.607600 -1.404000 -0.049000
v -1.568000 -1.350000 -0.049000
v -1.568000 -0.774900 -0.049000
v -0.607600 -0.756000 -0.049000
vt 0.000000 0.000000
vt 1.000000 0.000000
vt 1.000000 1.000000
vt 0.000000 1.000000
f 541/541 542/542 543/543 544/544
v -0.607600 -1.404000 0.049000
v -0.607600 -0.756000 0.049000
v -1.568000 -0.774900 0.049000
v -1.568000 -1.350000 0.049000
vt 0.000000 0.000000
vt 1.000000 0.000000
vt 1.000000 1.000000
vt 0.000000 1.000000
f 545/545 546/546 547/547 548/548
v -0.607600 -1.404000 -0.049000
v -0.607600 -1.404000 0.049000
v -1.568000 -1.350000 0.049000
v -0.607600 -0.756000 -0.049000
vt 0.000000 0.000000
vt 1.000000 0.000000
vt 1.000000 1.000000
vt 0.000000 1.000000
f 549/549 550/550 551/551 552/552
v -1.568000 -1.350000 -0.049000
v -1.568000 -0.774900 -0.049000
v -1.568000 -0.774900 0.049000
v -0.607600 -0.756000 0.049000
vt 0.000000 0.000000
vt 1.000000 0.000000
vt 1.000000 1.000000
vt 0.000000 1.000000
f 553/553 554/554 555/555 556/556
v -0.049000 -1.404000 0.607600
v -0.049000 -1.350000 1.568000
v -0.049000 -0.774900 1.568000
v -0.049000 -0.756000 0.607600
vt 0.000000 0.000000
vt 1.000000 0.000000
vt 1.000000 1.000000
vt 0.000000 1.000000
f 557/557 558/558 559/559 560/560
v 0.049000 -1.404000 0.607600
v 0.049000 -0.756000 0.607600
v 0.049000 -0.774900 1.568000
v 0.049000 -1.350000 1.568000
vt 0.000000 0.000000
vt 1.000000 0.000000
vt 1.000000 1.000000
vt 0.000000 1.000000
f 561/561 562/562 563/563 564/564
v -0.049000 -1.404000 0.607600
v 0.049000 -1.404000 0.607600
v 0.049000 -1.350000 1.568000
v -0.049000 -0.756000 0.607600
vt 0.000000 0.000000
vt 1.000000 0.000000
vt 1.000000 1.000000
vt 0.000000 1.000000
f 565/565 566/566 567/567 568/568
v -0.049000 -1.350000 1.568000
v -0.049000 -0.774900 1.568000
v 0.049000 -0.774900 1.568000
v 0.049000 -0.756000 0.607600
vt 0.000000 0.000000
vt 1.000000 0.000000
vt 1.000000 1.000000
vt 0.000000 1.000000
f 569/569 570/570 571/571 572/572
v 0.049000 -1.404000 -0.607600
v 0.049000 -1.350000 -1.568000
v 0.049000 -0.774900 -1.568000
v 0.049000 -0.756000 -0.607600
vt 0.000000 0.000000
vt 1.000000 0.000000
vt 1.000000 1.000000
vt 0.000000 1.000000
f 573/573 574/574 575/575 576/576
v -0.049000 -1.404000 -0.607600
v -0.049000 -0.756000 -0.607600
v -0.049000 -0.774900 -1.568000
v -0.049000 -1.350000 -1.568000
vt 0.000000 0.000000
vt 1.000000 0.000000
vt 1.000000 1.000000
vt 0.000000 1.000000
f 577/577 578/578 579/579 580/580
v 0.049000 -1.404000 -0.607600
v -0.049000 -1.404000 -0.607600
v -0.049000 -1.350000 -1.568000
v 0.049000 -0.756000 -0.607600
vt 0.000000 0.000000
vt 1.000000 0.000000
vt 1.000000 1.000000
vt 0.000000 1.000000
f 581/581 582/582 583/583 584/584
v 0.049000 -1.350000 -1.568000
v 0.049000 -0.774900 -1.568000
v -0.049000 -0.774900 -1.568000
v -0.049000 -0.756000 -0.607600
vt 0.000000 0.000000
vt 1.000000 0.000000
vt 1.000000 1.000000
vt 0.000000 1.000000
f 585/585 586/586 587/587 588/588
v 0.000000 1.134000 -0.117600
v 0.069124 1.134000 -0.095140
v 0.069124 1.404000 -0.095140
v 0.000000 1.404000 -0.117600
vt 0.000000 0.000000
vt 0.100000 0.000000
vt 0.100000 1.000000
vt 0.000000 1.000000
f 589/589 590/590 591/591 592/592
v 0.000000 1.134000 0.000000
v 0.069124 1.134000 -0.095140
v 0.000000 1.134000 -0.117600
vt 0.000000 0.000000
vt 1.000000 0.000000
vt 1.000000 1.000000
f 593/593 594/594 595/595
v 0.000000 1.404000 0.000000
v 0.000000 1.404000 -0.117600
v 0.069124 1.404000 -0.095140
vt 0.000000 0.000000
vt 1.000000 0.000000
vt 1.000000 1.000000
f 596/596 597/597 598/598
v 0.069124 1.134000 -0.095140
v 0.111844 1.134000 -0.036340
v 0.111844 1.404000 -0.036340
v 0.069124 1.404000 -0.095140
vt 0.100000 0.000000
vt 0.200000 0.000000
vt 0.200000 1.000000
vt 0.100000 1.000000
f 599/599 600/600 601/601 602/602
v 0.000000 1.134000 0.000000
v 0.111844 1.134000 -0.036340
v 0.069124 1.134000 -0.095140
vt 0.000000 0.000000
vt 1.000000 0.000000
vt 1.000000 1.000000
f 603/603 604/604 605/605
v 0.000000 1.404000 0.000000
v 0.069124 1.404000 -0.095140
v 0.111844 1.404000 -0.036340
vt 0.000000 0.000000
vt 1.000000 0.000000
vt 1.000000 1.000000
f 606/606 607/607 608/608
v 0.111844 1.134000 -0.036340
v 0.111844 1.134000 0.036340
v 0.111844 1.404000 0.036340
v 0.111844 1.404000 -0.036340
vt 0.200000 0.000000
vt 0.300000 0.000000
vt 0.300000 1.000000
vt 0.200000 1.000000
f 609/609 610/610 611/611 612/612
v 0.000000 1.134000 0.000000
v 0.111844 1.134000 0.036340
v 0.111844 1.134000 -0.036340
vt 0.000000 0.000000
vt 1.000000 0.000000
vt 1.000000 1.000000
f 613/613 614/614 615/615
v 0.000000 1.404000 0.000000
v 0.111844 1.404000 -0.036340
v 0.111844 1.404000 0.036340
vt 0.000000 0.000000
vt 1.000000 0.000000
vt 1.000000 1.000000
f 616/616 617/617 618/618
v 0.111844 1.134000 0.036340
v 0.069124 1.134000 0.095140
v 0.069124 1.404000 0.095140
v 0.111844 1.404000 0.036340
vt 0.300000 0.000000
vt 0.400000 0.000000
vt 0.400000 1.000000
vt 0.300000 1.000000
f 619/619 620/620 621/621 622/622
v 0.000000 1.134000 0.000000
v 0.069124 1.134000 0.095140
v 0.111844 1.134000 0.036340
vt 0.000000 0.000000
vt 1.000000 0.000000
vt 1.000000 1.000000
f 623/623 624/624 625/625
v 0.000000 1.404000 0.000000
v 0.111844 1.404000 0.036340
v 0.069124 1.404000 0.095140
vt 0.000000 0.000000
vt 1.000000 0.000000
vt 1.000000 1.000000
f 626/626 627/627 628/628
v 0.069124 1.134000 0.095140
v 0.000000 1.134000 0.117600
v 0.000000 1.404000 0.117600
v 0.069124 1.404000 0.095140
vt 0.400000 0.000000
vt 0.500000 0.000000
vt 0.500000 1.000000
vt 0.400000 1.000000
f 629/629 630/630 631/631 632/632
v 0.000000 1.134000 0.000000
v 0.000000 1.134000 0.117600
v 0.069124 1.134000 0.095140
vt 0.000000 0.000000
vt 1.000000 0.000000
vt 1.000000 1.000000
f 633/633 634/634 635/635
v 0.000000 1.404000 0.000000
v 0.069124 1.404000 0.095140
v 0.000000 1.404000 0.117600
vt 0.000000 0.000000
vt 1.000000 0.000000
vt 1.000000 1.000000
f 636/636 637/637 638/638
v 0.000000 1.134000 0.117600
v -0.069124 1.134000 0.095140
v -0.069124 1.404000 0.095140
v 0.000000 1.404000 0.117600
vt 0.500000 0.000000
vt 0.600000 0.000000
vt 0.600000 1.000000
vt 0.500000 1.000000
f 639/639 640/640 641/641 642/642
v 0.000000 1.134000 0.000000
v -0.069124 1.134000 0.095140
v 0.000000 1.134000 0.117600
vt 0.000000 0.000000
vt 1.000000 0.000000
vt 1.000000 1.000000
f 643/643 644/644 645/645
v 0.000000 1.404000 0.000000
v 0.000000 1.404000 0.117600
v -0.069124 1.404000 0.095140
vt 0.000000 0.000000
vt 1.000000 0.000000
vt 1.000000 1.000000
f 646/646 647/647 648/648
v -0.069124 1.134000 0.095140
v -0.111844 1.134000 0.036340
v -0.111844 1.404000 0.036340
v -0.069124 1.404000 0.095140
vt 0.600000 0.000000
vt 0.700000 0.000000
vt 0.700000 1.000000
vt 0.600000 1.000000
f 649/649 650/650 651/651 652/652
v 0.000000 1.134000 0.000000
v -0.111844 1.134000 0.036340
v -0.069124 1.134000 0.095140
vt 0.000000 0.000000
vt 1.000000 0.000000
vt 1.000000 1.000000
f 653/653 654/654 655/655
v 0.000000 1.404000 0.000000
v -0.069124 1.404000 0.095140
v -0.111844 1.404000 0.036340
vt 0.000000 0.000000
vt 1.000000 0.000000
vt 1.000000 1.000000
f 656/656 657/657 658/658
v -0.111844 1.134000 0.036340
v -0.111844 1.134000 -0.036340
v -0.111844 1.404000 -0.036340
v -0.111844 1.404000 0.036340
vt 0.700000 0.000000
vt 0.800000 0.000000
vt 0.800000 1.000000
vt 0.700000 1.000000
f 659/659 660/660 661/661 662/662
v 0.000000 1.134000 0.000000
v -0.111844 1.134000 -0.036340
v -0.111844 1.134000 0.036340
vt 0.000000 0.000000
vt 1.000000 0.000000
vt 1.000000 1.000000
f 663/663 664/664 665/665
v 0.000000 1.404000 0.000000
v -0.111844 1.404000 0.036340
v -0.111844 1.404000 -0.036340
vt 0.000000 0.000000
vt 1.000000 0.000000
vt 1.000000 1.000000
f 666/666 667/667 668/668
v -0.111844 1.134000 -0.036340
v -0.069124 1.134000 -0.095140
v -0.069124 1.404000 -0.095140
v -0.111844 1.404000 -0.036340
vt 0.800000 0.000000
vt 0.900000 0.000000
vt 0.900000 1.000000
vt 0.800000 1.000000
f 669/669 670/670 671/671 672/672
v 0.000000 1.134000 0.000000
v -0.069124 1.134000 -0.095140
v -0.111844 1.134000 -0.036340
vt 0.000000 0.000000
vt 1.000000 0.000000
vt 1.000000 1.000000
f 673/673 674/674 675/675
v 0.000000 1.404000 0.000000
v -0.111844 1.404000 -0.036340
v -0.069124 1.404000 -0.095140
vt 0.000000 0.000000
vt 1.000000 0.000000
vt 1.000000 1.000000
f 676/676 677/677 678/678
v -0.069124 1.134000 -0.095140
v -0.000000 1.134000 -0.117600
v -0.000000 1.404000 -0.117600
v -0.069124 1.404000 -0.095140
vt 0.900000 0.000000
vt 1.000000 0.000000
vt 1.000000 1.000000
vt 0.900000 1.000000
f 679/679 680/680 681/681 682/682
v 0.000000 1.134000 0.000000
v -0.000000 1.134000 -0.117600
v -0.069124 1.134000 -0.095140
vt 0.000000 0.000000
vt 1.000000 0.000000
vt 1.000000 1.000000
f 683/683 684/684 685/685
v 0.000000 1.404000 0.000000
v -0.069124 1.404000 -0.095140
v -0.000000 1.404000 -0.117600
vt 0.000000 0.000000
vt 1.000000 0.000000
vt 1.000000 1.000000
f 686/686 687/687 688/688
