mtllib airburst_fuse.mtl
o airburst_fuse
s 1
usemtl yellow
v 0.000000 0.000000 -0.050000
v 0.021694 0.000000 -0.045048
v 0.021694 0.140000 -0.045048
v 0.000000 0.140000 -0.050000
vt 0.000000 0.000000
vt 0.071429 0.000000
vt 0.071429 1.000000
vt 0.000000 1.000000
f 1/1 2/2 3/3 4/4
v 0.000000 0.000000 0.000000
v 0.021694 0.000000 -0.045048
v 0.000000 0.000000 -0.050000
vt 0.000000 0.000000
vt 1.000000 0.000000
vt 1.000000 1.000000
f 5/5 6/6 7/7
v 0.000000 0.140000 0.000000
v 0.000000 0.140000 -0.050000
v 0.021694 0.140000 -0.045048
vt 0.000000 0.000000
vt 1.000000 0.000000
vt 1.000000 1.000000
f 8/8 9/9 10/10
v 0.021694 0.000000 -0.045048
v 0.039092 0.000000 -0.031174
v 0.039092 0.140000 -0.031174
v 0.021694 0.140000 -0.045048
vt 0.071429 0.000000
vt 0.142857 0.000000
vt 0.142857 1.000000
vt 0.071429 1.000000
f 11/11 12/12 13/13 14/14
v 0.000000 0.000000 0.000000
v 0.039092 0.000000 -0.031174
v 0.021694 0.000000 -0.045048
vt 0.000000 0.000000
vt 1.000000 0.000000
vt 1.000000 1.000000
f 15/15 16/16 17/17
v 0.000000 0.140000 0.000000
v 0.021694 0.140000 -0.045048
v 0.039092 0.140000 -0.031174
vt 0.000000 0.000000
vt 1.000000 0.000000
vt 1.000000 1.000000
f 18/18 19/19 20/20
v 0.039092 0.000000 -0.031174
v 0.048746 0.000000 -0.011126
v 0.048746 0.140000 -0.011126
v 0.039092 0.140000 -0.031174
vt 0.142857 0.000000
vt 0.214286 0.000000
vt 0.214286 1.000000
vt 0.142857 1.000000
f 21/21 22/22 23/23 24/24
v 0.000000 0.000000 0.000000
v 0.048746 0.000000 -0.011126
v 0.039092 0.000000 -0.031174
vt 0.000000 0.000000
vt 1.000000 0.000000
vt 1.000000 1.000000
f 25/25 26/26 27/27
v 0.000000 0.140000 0.000000
v 0.039092 0.140000 -0.031174
v 0.048746 0.140000 -0.011126
vt 0.000000 0.000000
vt 1.000000 0.000000
vt 1.000000 1.000000
f 28/28 29/29 30/30
v 0.048746 0.000000 -0.011126
v 0.048746 0.000000 0.011126
v 0.048746 0.140000 0.011126
v 0.048746 0.140000 -0.011126
vt 0.214286 0.000000
vt 0.285714 0.000000
vt 0.285714 1.000000
vt 0.214286 1.000000
f 31/31 32/32 33/33 34/34
v 0.000000 0.000000 0.000000
v 0.048746 0.000000 0.011126
v 0.048746 0.000000 -0.011126
vt 0.000000 0.000000
vt 1.000000 0.000000
vt 1.000000 1.000000
f 35/35 36/36 37/37
v 0.000000 0.140000 0.000000
v 0.048746 0.140000 -0.011126
v 0.048746 0.140000 0.011126
vt 0.000000 0.000000
vt 1.000000 0.000000
vt 1.000000 1.000000
f 38/38 39/39 40/40
v 0.048746 0.000000 0.011126
v 0.039092 0.000000 0.031174
v 0.039092 0.140000 0.031174
v 0.048746 0.140000 0.011126
vt 0.285714 0.000000
vt 0.357143 0.000000
vt 0.357143 1.000000
vt 0.285714 1.000000
f 41/41 42/42 43/43 44/44
v 0.000000 0.000000 0.000000
v 0.039092 0.000000 0.031174
v 0.048746 0.000000 0.011126
vt 0.000000 0.000000
vt 1.000000 0.000000
vt 1.000000 1.000000
f 45/45 46/46 47/47
v 0.000000 0.140000 0.000000
v 0.048746 0.140000 0.011126
v 0.039092 0.140000 0.031174
vt 0.000000 0.000000
vt 1.000000 0.000000
vt 1.000000 1.000000
f 48/48 49/49 50/50
v 0.039092 0.000000 0.031174
v 0.021694 0.000000 0.045048
v 0.021694 0.140000 0.045048
v 0.039092 0.140000 0.031174
vt 0.357143 0.000000
vt 0.428571 0.000000
vt 0.428571 1.000000
vt 0.357143 1.000000
f 51/51 52/52 53/53 54/54
v 0.000000 0.000000 0.000000
v 0.021694 0.000000 0.045048
v 0.039092 0.000000 0.031174
vt 0.000000 0.000000
vt 1.000000 0.000000
vt 1.000000 1.000000
f 55/55 56/56 57/57
v 0.000000 0.140000 0.000000
v 0.039092 0.140000 0.031174
v 0.021694 0.140000 0.045048
vt 0.000000 0.000000
vt 1.000000 0.000000
vt 1.000000 1.000000
f 58/58 59/59 60/60
v 0.021694 0.000000 0.045048
v 0.000000 0.000000 0.050000
v 0.000000 0.140000 0.050000
v 0.021694 0.140000 0.045048
vt 0.428571 0.000000
vt 0.500000 0.000000
vt 0.500000 1.000000
vt 0.428571 1.000000
f 61/61 62/62 63/63 64/64
v 0.000000 0.000000 0.000000
v 0.000000 0.000000 0.050000
v 0.021694 0.000000 0.045048
vt 0.000000 0.000000
vt 1.000000 0.000000
vt 1.000000 1.000000
f 65/65 66/66 67/67
v 0.000000 0.140000 0.000000
v 0.021694 0.140000 0.045048
v 0.000000 0.140000 0.050000
vt 0.000000 0.000000
vt 1.000000 0.000000
vt 1.000000 1.000000
f 68/68 69/69 70/70
v 0.000000 0.000000 0.050000
v -0.021694 0.000000 0.045048
v -0.021694 0.140000 0.045048
v 0.000000 0.140000 0.050000
vt 0.500000 0.000000
vt 0.571429 0.000000
vt 0.571429 1.000000
vt 0.500000 1.000000
f 71/71 72/72 73/73 74/74
v 0.000000 0.000000 0.000000
v -0.021694 0.000000 0.045048
v 0.000000 0.000000 0.050000
vt 0.000000 0.000000
vt 1.000000 0.000000
vt 1.000000 1.000000
f 75/75 76/76 77/77
v 0.000000 0.140000 0.000000
v 0.000000 0.140000 0.050000
v -0.021694 0.140000 0.045048
vt 0.000000 0.000000
vt 1.000000 0.000000
vt 1.000000 1.000000
f 78/78 79/79 80/80
v -0.021694 0.000000 0.045048
v -0.039092 0.000000 0.031174
v -0.039092 0.140000 0.031174
v -0.021694 0.140000 0.045048
vt 0.571429 0.000000
vt 0.642857 0.000000
vt 0.642857 1.000000
vt 0.571429 1.000000
f 81/81 82/82 83/83 84/84
v 0.000000 0.000000 0.000000
v -0.039092 0.000000 0.031174
v -0.021694 0.000000 0.045048
vt 0.000000 0.000000
vt 1.000000 0.000000
vt 1.000000 1.000000
f 85/85 86/86 87/87
v 0.000000 0.140000 0.000000
v -0.021694 0.140000 0.045048
v -0.039092 0.140000 0.031174
vt 0.000000 0.000000
vt 1.000000 0.000000
vt 1.000000 1.000000
f 88/88 89/89 90/90
v -0.039092 0.000000 0.031174
v -0.048746 0.000000 0.011126
v -0.048746 0.140000 0.011126
v -0.039092 0.140000 0.031174
vt 0.642857 0.000000
vt 0.714286 0.000000
vt 0.714286 1.000000
vt 0.642857 1.000000
f 91/91 92/92 93/93 94/94
v 0.000000 0.000000 0.000000
v -0.048746 0.000000 0.011126
v -0.039092 0.000000 0.031174
vt 0.000000 0.000000
vt 1.000000 0.000000
vt 1.000000 1.000000
f 95/95 96/96 97/97
v 0.000000 0.140000 0.000000
v -0.039092 0.140000 0.031174
v -0.048746 0.140000 0.011126
vt 0.000000 0.000000
vt 1.000000 0.000000
vt 1.000000 1.000000
f 98/98 99/99 100/100
v -0.048746 0.000000 0.011126
v -0.048746 0.000000 -0.011126
v -0.048746 0.140000 -0.011126
v -0.048746 0.140000 0.011126
vt 0.714286 0.000000
vt 0.785714 0.000000
vt 0.785714 1.000000
vt 0.714286 1.000000
f 101/101 102/102 103/103 104/104
v 0.000000 0.000000 0.000000
v -0.048746 0.000000 -0.011126
v -0.048746 0.000000 0.011126
vt 0.000000 0.000000
vt 1.000000 0.000000
vt 1.000000 1.000000
f 105/105 106/106 107/107
v 0.000000 0.140000 0.000000
v -0.048746 0.140000 0.011126
v -0.048746 0.140000 -0.011126
vt 0.000000 0.000000
vt 1.000000 0.000000
vt 1.000000 1.000000
f 108/108 109/109 110/110
v -0.048746 0.000000 -0.011126
v -0.039092 0.000000 -0.031174
v -0.039092 0.140000 -0.031174
v -0.048746 0.140000 -0.011126
vt 0.785714 0.000000
vt 0.857143 0.000000
vt 0.857143 1.000000
vt 0.785714 1.000000
f 111/111 112/112 113/113 114/114
v 0.000000 0.000000 0.000000
v -0.039092 0.000000 -0.031174
v -0.048746 0.000000 -0.011126
vt 0.000000 0.000000
vt 1.000000 0.000000
vt 1.000000 1.000000
f 115/115 116/116 117/117
v 0.000000 0.140000 0.000000
v -0.048746 0.140000 -0.011126
v -0.039092 0.140000 -0.031174
vt 0.000000 0.000000
vt 1.000000 0.000000
vt 1.000000 1.000000
f 118/118 119/119 120/120
v -0.039092 0.000000 -0.031174
v -0.021694 0.000000 -0.045048
v -0.021694 0.140000 -0.045048
v -0.039092 0.140000 -0.031174
vt 0.857143 0.000000
vt 0.928571 0.000000
vt 0.928571 1.000000
vt 0.857143 1.000000
f 121/121 122/122 123/123 124/124
v 0.000000 0.000000 0.000000
v -0.021694 0.000000 -0.045048
v -0.039092 0.000000 -0.031174
vt 0.000000 0.000000
vt 1.000000 0.000000
vt 1.000000 1.000000
f 125/125 126/126 127/127
v 0.000000 0.140000 0.000000
v -0.039092 0.140000 -0.031174
v -0.021694 0.140000 -0.045048
vt 0.000000 0.000000
vt 1.000000 0.000000
vt 1.000000 1.000000
f 128/128 129/129 130/130
v -0.021694 0.000000 -0.045048
v -0.000000 0.000000 -0.050000
v -0.000000 0.140000 -0.050000
v -0.021694 0.140000 -0.045048
vt 0.928571 0.000000
vt 1.000000 0.000000
vt 1.000000 1.000000
vt 0.928571 1.000000
f 131/131 132/132 133/133 134/134
v 0.000000 0.000000 0.000000
v -0.000000 0.000000 -0.050000
v -0.021694 0.000000 -0.045048
vt 0.000000 0.000000
vt 1.000000 0.000000
vt 1.000000 1.000000
f 135/135 136/136 137/137
v 0.000000 0.140000 0.000000
v -0.021694 0.140000 -0.045048
v -0.000000 0.140000 -0.050000
vt 0.000000 0.000000
vt 1.000000 0.000000
vt 1.000000 1.000000
f 138/138 139/139 140/140
usemtl accent
v -0.040000 0.140000 -0.040000
v 0.040000 0.140000 -0.040000
v 0.040000 0.220000 -0.040000
v -0.040000 0.220000 -0.040000
vt 0.000000 0.000000
vt 1.000000 0.000000
vt 1.000000 1.000000
vt 0.000000 1.000000
f 141/141 142/142 143/143 144/144
v 0.040000 0.140000 0.040000
v -0.040000 0.140000 0.040000
v -0.040000 0.220000 0.040000
v 0.040000 0.220000 0.040000
vt 0.000000 0.000000
vt 1.000000 0.000000
vt 1.000000 1.000000
vt 0.000000 1.000000
f 145/145 146/146 147/147 148/148
v -0.040000 0.140000 0.040000
v -0.040000 0.140000 -0.040000
v -0.040000 0.220000 -0.040000
v -0.040000 0.220000 0.040000
vt 0.000000 0.000000
vt 1.000000 0.000000
vt 1.000000 1.000000
vt 0.000000 1.000000
f 149/149 150/150 151/151 152/152
v 0.040000 0.140000 -0.040000
v 0.040000 0.140000 0.040000
v 0.040000 0.220000 0.040000
v 0.040000 0.220000 -0.040000
vt 0.000000 0.000000
vt 1.000000 0.000000
vt 1.000000 1.000000
vt 0.000000 1.000000
f 153/153 154/154 155/155 156/156
v -0.040000 0.220000 -0.040000
v 0.040000 0.220000 -0.040000
v 0.040000 0.220000 0.040000
v -0.040000 0.220000 0.040000
vt 0.000000 0.000000
vt 1.000000 0.000000
vt 1.000000 1.000000
vt 0.000000 1.000000
f 157/157 158/158 159/159 160/160
v -0.040000 0.140000 0.040000
v 0.040000 0.140000 0.040000
v 0.040000 0.140000 -0.040000
v -0.040000 0.140000 -0.040000
vt 0.000000 0.000000
vt 1.000000 0.000000
vt 1.000000 1.000000
vt 0.000000 1.000000
f 161/161 162/162 163/163 164/164
usemtl dark
v 0.000000 0.220000 -0.015000
v 0.010607 0.220000 -0.010607
v 0.010607 0.300000 -0.010607
v 0.000000 0.300000 -0.015000
vt 0.000000 0.000000
vt 0.125000 0.000000
vt 0.125000 1.000000
vt 0.000000 1.000000
f 165/165 166/166 167/167 168/168
v 0.000000 0.220000 0.000000
v 0.010607 0.220000 -0.010607
v 0.000000 0.220000 -0.015000
vt 0.000000 0.000000
vt 1.000000 0.000000
vt 1.000000 1.000000
f 169/169 170/170 171/171
v 0.000000 0.300000 0.000000
v 0.000000 0.300000 -0.015000
v 0.010607 0.300000 -0.010607
vt 0.000000 0.000000
vt 1.000000 0.000000
vt 1.000000 1.000000
f 172/172 173/173 174/174
v 0.010607 0.220000 -0.010607
v 0.015000 0.220000 -0.000000
v 0.015000 0.300000 -0.000000
v 0.010607 0.300000 -0.010607
vt 0.125000 0.000000
vt 0.250000 0.000000
vt 0.250000 1.000000
vt 0.125000 1.000000
f 175/175 176/176 177/177 178/178
v 0.000000 0.220000 0.000000
v 0.015000 0.220000 -0.000000
v 0.010607 0.220000 -0.010607
vt 0.000000 0.000000
vt 1.000000 0.000000
vt 1.000000 1.000000
f 179/179 180/180 181/181
v 0.000000 0.300000 0.000000
v 0.010607 0.300000 -0.010607
v 0.015000 0.300000 -0.000000
vt 0.000000 0.000000
vt 1.000000 0.000000
vt 1.000000 1.000000
f 182/182 183/183 184/184
v 0.015000 0.220000 -0.000000
v 0.010607 0.220000 0.010607
v 0.010607 0.300000 0.010607
v 0.015000 0.300000 -0.000000
vt 0.250000 0.000000
vt 0.375000 0.000000
vt 0.375000 1.000000
vt 0.250000 1.000000
f 185/185 186/186 187/187 188/188
v 0.000000 0.220000 0.000000
v 0.010607 0.220000 0.010607
v 0.015000 0.220000 -0.000000
vt 0.000000 0.000000
vt 1.000000 0.000000
vt 1.000000 1.000000
f 189/189 190/190 191/191
v 0.000000 0.300000 0.000000
v 0.015000 0.300000 -0.000000
v 0.010607 0.300000 0.010607
vt 0.000000 0.000000
vt 1.000000 0.000000
vt 1.000000 1.000000
f 192/192 193/193 194/194
v 0.010607 0.220000 0.010607
v 0.000000 0.220000 0.015000
v 0.000000 0.300000 0.015000
v 0.010607 0.300000 0.010607
vt 0.375000 0.000000
vt 0.500000 0.000000
vt 0.500000 1.000000
vt 0.375000 1.000000
f 195/195 196/196 197/197 198/198
v 0.000000 0.220000 0.000000
v 0.000000 0.220000 0.015000
v 0.010607 0.220000 0.010607
vt 0.000000 0.000000
vt 1.000000 0.000000
vt 1.000000 1.000000
f 199/199 200/200 201/201
v 0.000000 0.300000 0.000000
v 0.010607 0.300000 0.010607
v 0.000000 0.300000 0.015000
vt 0.000000 0.000000
vt 1.000000 0.000000
vt 1.000000 1.000000
f 202/202 203/203 204/204
v 0.000000 0.220000 0.015000
v -0.010607 0.220000 0.010607
v -0.010607 0.300000 0.010607
v 0.000000 0.300000 0.015000
vt 0.500000 0.000000
vt 0.625000 0.000000
vt 0.625000 1.000000
vt 0.500000 1.000000
f 205/205 206/206 207/207 208/208
v 0.000000 0.220000 0.000000
v -0.010607 0.220000 0.010607
v 0.000000 0.220000 0.015000
vt 0.000000 0.000000
vt 1.000000 0.000000
vt 1.000000 1.000000
f 209/209 210/210 211/211
v 0.000000 0.300000 0.000000
v 0.000000 0.300000 0.015000
v -0.010607 0.300000 0.010607
vt 0.000000 0.000000
vt 1.000000 0.000000
vt 1.000000 1.000000
f 212/212 213/213 214/214
v -0.010607 0.220000 0.010607
v -0.015000 0.220000 0.000000
v -0.015000 0.300000 0.000000
v -0.010607 0.300000 0.010607
vt 0.625000 0.000000
vt 0.750000 0.000000
vt 0.750000 1.000000
vt 0.625000 1.000000
f 215/215 216/216 217/217 218/218
v 0.000000 0.220000 0.000000
v -0.015000 0.220000 0.000000
v -0.010607 0.220000 0.010607
vt 0.000000 0.000000
vt 1.000000 0.000000
vt 1.000000 1.000000
f 219/219 220/220 221/221
v 0.000000 0.300000 0.000000
v -0.010607 0.300000 0.010607
v -0.015000 0.300000 0.000000
vt 0.000000 0.000000
vt 1.000000 0.000000
vt 1.000000 1.000000
f 222/222 223/223 224/224
v -0.015000 0.220000 0.000000
v -0.010607 0.220000 -0.010607
v -0.010607 0.300000 -0.010607
v -0.015000 0.300000 0.000000
vt 0.750000 0.000000
vt 0.875000 0.000000
vt 0.875000 1.000000
vt 0.750000 1.000000
f 225/225 226/226 227/227 228/228
v 0.000000 0.220000 0.000000
v -0.010607 0.220000 -0.010607
v -0.015000 0.220000 0.000000
vt 0.000000 0.000000
vt 1.000000 0.000000
vt 1.000000 1.000000
f 229/229 230/230 231/231
v 0.000000 0.300000 0.000000
v -0.015000 0.300000 0.000000
v -0.010607 0.300000 -0.010607
vt 0.000000 0.000000
vt 1.000000 0.000000
vt 1.000000 1.000000
f 232/232 233/233 234/234
v -0.010607 0.220000 -0.010607
v -0.000000 0.220000 -0.015000
v -0.000000 0.300000 -0.015000
v -0.010607 0.300000 -0.010607
vt 0.875000 0.000000
vt 1.000000 0.000000
vt 1.000000 1.000000
vt 0.875000 1.000000
f 235/235 236/236 237/237 238/238
v 0.000000 0.220000 0.000000
v -0.000000 0.220000 -0.015000
v -0.010607 0.220000 -0.010607
vt 0.000000 0.000000
vt 1.000000 0.000000
vt 1.000000 1.000000
f 239/239 240/240 241/241
v 0.000000 0.300000 0.000000
v -0.010607 0.300000 -0.010607
v -0.000000 0.300000 -0.015000
vt 0.000000 0.000000
vt 1.000000 0.000000
vt 1.000000 1.000000
f 242/242 243/243 244/244
