mtllib airlock_door.mtl
o airlock_door
s 1
usemtl body
v 0.000000 0.000000 0.000000
v 1.000000 0.000000 0.000000
v 1.000000 2.000000 0.000000
v 0.000000 2.000000 0.000000
vt 0.000000 0.000000
vt 1.000000 0.000000
vt 1.000000 1.000000
vt 0.000000 1.000000
f 1/1 2/2 3/3 4/4
v 1.000000 0.000000 0.280000
v 0.000000 0.000000 0.280000
v 0.000000 2.000000 0.280000
v 1.000000 2.000000 0.280000
vt 0.000000 0.000000
vt 1.000000 0.000000
vt 1.000000 1.000000
vt 0.000000 1.000000
f 5/5 6/6 7/7 8/8
v 0.000000 0.000000 0.280000
v 0.000000 0.000000 0.000000
v 0.000000 2.000000 0.000000
v 0.000000 2.000000 0.280000
vt 0.000000 0.000000
vt 1.000000 0.000000
vt 1.000000 1.000000
vt 0.000000 1.000000
f 9/9 10/10 11/11 12/12
v 1.000000 0.000000 0.000000
v 1.000000 0.000000 0.280000
v 1.000000 2.000000 0.280000
v 1.000000 2.000000 0.000000
vt 0.000000 0.000000
vt 1.000000 0.000000
vt 1.000000 1.000000
vt 0.000000 1.000000
f 13/13 14/14 15/15 16/16
v 0.000000 2.000000 0.000000
v 1.000000 2.000000 0.000000
v 1.000000 2.000000 0.280000
v 0.000000 2.000000 0.280000
vt 0.000000 0.000000
vt 1.000000 0.000000
vt 1.000000 1.000000
vt 0.000000 1.000000
f 17/17 18/18 19/19 20/20
v 0.000000 0.000000 0.280000
v 1.000000 0.000000 0.280000
v 1.000000 0.000000 0.000000
v 0.000000 0.000000 0.000000
vt 0.000000 0.000000
vt 1.000000 0.000000
vt 1.000000 1.000000
vt 0.000000 1.000000
f 21/21 22/22 23/23 24/24
usemtl dark
v 0.040000 0.060000 0.030000
v 0.960000 0.060000 0.030000
v 0.960000 1.940000 0.030000
v 0.040000 1.940000 0.030000
vt 0.000000 0.000000
vt 1.000000 0.000000
vt 1.000000 1.000000
vt 0.000000 1.000000
f 25/25 26/26 27/27 28/28
v 0.960000 0.060000 0.250000
v 0.040000 0.060000 0.250000
v 0.040000 1.940000 0.250000
v 0.960000 1.940000 0.250000
vt 0.000000 0.000000
vt 1.000000 0.000000
vt 1.000000 1.000000
vt 0.000000 1.000000
f 29/29 30/30 31/31 32/32
v 0.040000 0.060000 0.250000
v 0.040000 0.060000 0.030000
v 0.040000 1.940000 0.030000
v 0.040000 1.940000 0.250000
vt 0.000000 0.000000
vt 1.000000 0.000000
vt 1.000000 1.000000
vt 0.000000 1.000000
f 33/33 34/34 35/35 36/36
v 0.960000 0.060000 0.030000
v 0.960000 0.060000 0.250000
v 0.960000 1.940000 0.250000
v 0.960000 1.940000 0.030000
vt 0.000000 0.000000
vt 1.000000 0.000000
vt 1.000000 1.000000
vt 0.000000 1.000000
f 37/37 38/38 39/39 40/40
v 0.040000 1.940000 0.030000
v 0.960000 1.940000 0.030000
v 0.960000 1.940000 0.250000
v 0.040000 1.940000 0.250000
vt 0.000000 0.000000
vt 1.000000 0.000000
vt 1.000000 1.000000
vt 0.000000 1.000000
f 41/41 42/42 43/43 44/44
v 0.040000 0.060000 0.250000
v 0.960000 0.060000 0.250000
v 0.960000 0.060000 0.030000
v 0.040000 0.060000 0.030000
vt 0.000000 0.000000
vt 1.000000 0.000000
vt 1.000000 1.000000
vt 0.000000 1.000000
f 45/45 46/46 47/47 48/48
usemtl glass
v 0.280000 1.100000 0.140000
v 0.290768 1.167984 0.140000
v 0.290768 1.167984 0.300000
v 0.280000 1.100000 0.300000
vt 0.000000 0.000000
vt 0.050000 0.000000
vt 0.050000 1.000000
vt 0.000000 1.000000
f 49/49 50/50 51/51 52/52
v 0.500000 1.100000 0.140000
v 0.290768 1.167984 0.140000
v 0.280000 1.100000 0.140000
vt 0.000000 0.000000
vt 1.000000 0.000000
vt 1.000000 1.000000
f 53/53 54/54 55/55
v 0.500000 1.100000 0.300000
v 0.280000 1.100000 0.300000
v 0.290768 1.167984 0.300000
vt 0.000000 0.000000
vt 1.000000 0.000000
vt 1.000000 1.000000
f 56/56 57/57 58/58
v 0.290768 1.167984 0.140000
v 0.322016 1.229313 0.140000
v 0.322016 1.229313 0.300000
v 0.290768 1.167984 0.300000
vt 0.050000 0.000000
vt 0.100000 0.000000
vt 0.100000 1.000000
vt 0.050000 1.000000
f 59/59 60/60 61/61 62/62
v 0.500000 1.100000 0.140000
v 0.322016 1.229313 0.140000
v 0.290768 1.167984 0.140000
vt 0.000000 0.000000
vt 1.000000 0.000000
vt 1.000000 1.000000
f 63/63 64/64 65/65
v 0.500000 1.100000 0.300000
v 0.290768 1.167984 0.300000
v 0.322016 1.229313 0.300000
vt 0.000000 0.000000
vt 1.000000 0.000000
vt 1.000000 1.000000
f 66/66 67/67 68/68
v 0.322016 1.229313 0.140000
v 0.370687 1.277984 0.140000
v 0.370687 1.277984 0.300000
v 0.322016 1.229313 0.300000
vt 0.100000 0.000000
vt 0.150000 0.000000
vt 0.150000 1.000000
vt 0.100000 1.000000
f 69/69 70/70 71/71 72/72
v 0.500000 1.100000 0.140000
v 0.370687 1.277984 0.140000
v 0.322016 1.229313 0.140000
vt 0.000000 0.000000
vt 1.000000 0.000000
vt 1.000000 1.000000
f 73/73 74/74 75/75
v 0.500000 1.100000 0.300000
v 0.322016 1.229313 0.300000
v 0.370687 1.277984 0.300000
vt 0.000000 0.000000
vt 1.000000 0.000000
vt 1.000000 1.000000
f 76/76 77/77 78/78
v 0.370687 1.277984 0.140000
v 0.432016 1.309232 0.140000
v 0.432016 1.309232 0.300000
v 0.370687 1.277984 0.300000
vt 0.150000 0.000000
vt 0.200000 0.000000
vt 0.200000 1.000000
vt 0.150000 1.000000
f 79/79 80/80 81/81 82/82
v 0.500000 1.100000 0.140000
v 0.432016 1.309232 0.140000
v 0.370687 1.277984 0.140000
vt 0.000000 0.000000
vt 1.000000 0.000000
vt 1.000000 1.000000
f 83/83 84/84 85/85
v 0.500000 1.100000 0.300000
v 0.370687 1.277984 0.300000
v 0.432016 1.309232 0.300000
vt 0.000000 0.000000
vt 1.000000 0.000000
vt 1.000000 1.000000
f 86/86 87/87 88/88
v 0.432016 1.309232 0.140000
v 0.500000 1.320000 0.140000
v 0.500000 1.320000 0.300000
v 0.432016 1.309232 0.300000
vt 0.200000 0.000000
vt 0.250000 0.000000
vt 0.250000 1.000000
vt 0.200000 1.000000
f 89/89 90/90 91/91 92/92
v 0.500000 1.100000 0.140000
v 0.500000 1.320000 0.140000
v 0.432016 1.309232 0.140000
vt 0.000000 0.000000
vt 1.000000 0.000000
vt 1.000000 1.000000
f 93/93 94/94 95/95
v 0.500000 1.100000 0.300000
v 0.432016 1.309232 0.300000
v 0.500000 1.320000 0.300000
vt 0.000000 0.000000
vt 1.000000 0.000000
vt 1.000000 1.000000
f 96/96 97/97 98/98
v 0.500000 1.320000 0.140000
v 0.567984 1.309232 0.140000
v 0.567984 1.309232 0.300000
v 0.500000 1.320000 0.300000
vt 0.250000 0.000000
vt 0.300000 0.000000
vt 0.300000 1.000000
vt 0.250000 1.000000
f 99/99 100/100 101/101 102/102
v 0.500000 1.100000 0.140000
v 0.567984 1.309232 0.140000
v 0.500000 1.320000 0.140000
vt 0.000000 0.000000
vt 1.000000 0.000000
vt 1.000000 1.000000
f 103/103 104/104 105/105
v 0.500000 1.100000 0.300000
v 0.500000 1.320000 0.300000
v 0.567984 1.309232 0.300000
vt 0.000000 0.000000
vt 1.000000 0.000000
vt 1.000000 1.000000
f 106/106 107/107 108/108
v 0.567984 1.309232 0.140000
v 0.629313 1.277984 0.140000
v 0.629313 1.277984 0.300000
v 0.567984 1.309232 0.300000
vt 0.300000 0.000000
vt 0.350000 0.000000
vt 0.350000 1.000000
vt 0.300000 1.000000
f 109/109 110/110 111/111 112/112
v 0.500000 1.100000 0.140000
v 0.629313 1.277984 0.140000
v 0.567984 1.309232 0.140000
vt 0.000000 0.000000
vt 1.000000 0.000000
vt 1.000000 1.000000
f 113/113 114/114 115/115
v 0.500000 1.100000 0.300000
v 0.567984 1.309232 0.300000
v 0.629313 1.277984 0.300000
vt 0.000000 0.000000
vt 1.000000 0.000000
vt 1.000000 1.000000
f 116/116 117/117 118/118
v 0.629313 1.277984 0.140000
v 0.677984 1.229313 0.140000
v 0.677984 1.229313 0.300000
v 0.629313 1.277984 0.300000
vt 0.350000 0.000000
vt 0.400000 0.000000
vt 0.400000 1.000000
vt 0.350000 1.000000
f 119/119 120/120 121/121 122/122
v 0.500000 1.100000 0.140000
v 0.677984 1.229313 0.140000
v 0.629313 1.277984 0.140000
vt 0.000000 0.000000
vt 1.000000 0.000000
vt 1.000000 1.000000
f 123/123 124/124 125/125
v 0.500000 1.100000 0.300000
v 0.629313 1.277984 0.300000
v 0.677984 1.229313 0.300000
vt 0.000000 0.000000
vt 1.000000 0.000000
vt 1.000000 1.000000
f 126/126 127/127 128/128
v 0.677984 1.229313 0.140000
v 0.709232 1.167984 0.140000
v 0.709232 1.167984 0.300000
v 0.677984 1.229313 0.300000
vt 0.400000 0.000000
vt 0.450000 0.000000
vt 0.450000 1.000000
vt 0.400000 1.000000
f 129/129 130/130 131/131 132/132
v 0.500000 1.100000 0.140000
v 0.709232 1.167984 0.140000
v 0.677984 1.229313 0.140000
vt 0.000000 0.000000
vt 1.000000 0.000000
vt 1.000000 1.000000
f 133/133 134/134 135/135
v 0.500000 1.100000 0.300000
v 0.677984 1.229313 0.300000
v 0.709232 1.167984 0.300000
vt 0.000000 0.000000
vt 1.000000 0.000000
vt 1.000000 1.000000
f 136/136 137/137 138/138
v 0.709232 1.167984 0.140000
v 0.720000 1.100000 0.140000
v 0.720000 1.100000 0.300000
v 0.709232 1.167984 0.300000
vt 0.450000 0.000000
vt 0.500000 0.000000
vt 0.500000 1.000000
vt 0.450000 1.000000
f 139/139 140/140 141/141 142/142
v 0.500000 1.100000 0.140000
v 0.720000 1.100000 0.140000
v 0.709232 1.167984 0.140000
vt 0.000000 0.000000
vt 1.000000 0.000000
vt 1.000000 1.000000
f 143/143 144/144 145/145
v 0.500000 1.100000 0.300000
v 0.709232 1.167984 0.300000
v 0.720000 1.100000 0.300000
vt 0.000000 0.000000
vt 1.000000 0.000000
vt 1.000000 1.000000
f 146/146 147/147 148/148
v 0.720000 1.100000 0.140000
v 0.709232 1.032016 0.140000
v 0.709232 1.032016 0.300000
v 0.720000 1.100000 0.300000
vt 0.500000 0.000000
vt 0.550000 0.000000
vt 0.550000 1.000000
vt 0.500000 1.000000
f 149/149 150/150 151/151 152/152
v 0.500000 1.100000 0.140000
v 0.709232 1.032016 0.140000
v 0.720000 1.100000 0.140000
vt 0.000000 0.000000
vt 1.000000 0.000000
vt 1.000000 1.000000
f 153/153 154/154 155/155
v 0.500000 1.100000 0.300000
v 0.720000 1.100000 0.300000
v 0.709232 1.032016 0.300000
vt 0.000000 0.000000
vt 1.000000 0.000000
vt 1.000000 1.000000
f 156/156 157/157 158/158
v 0.709232 1.032016 0.140000
v 0.677984 0.970687 0.140000
v 0.677984 0.970687 0.300000
v 0.709232 1.032016 0.300000
vt 0.550000 0.000000
vt 0.600000 0.000000
vt 0.600000 1.000000
vt 0.550000 1.000000
f 159/159 160/160 161/161 162/162
v 0.500000 1.100000 0.140000
v 0.677984 0.970687 0.140000
v 0.709232 1.032016 0.140000
vt 0.000000 0.000000
vt 1.000000 0.000000
vt 1.000000 1.000000
f 163/163 164/164 165/165
v 0.500000 1.100000 0.300000
v 0.709232 1.032016 0.300000
v 0.677984 0.970687 0.300000
vt 0.000000 0.000000
vt 1.000000 0.000000
vt 1.000000 1.000000
f 166/166 167/167 168/168
v 0.677984 0.970687 0.140000
v 0.629313 0.922016 0.140000
v 0.629313 0.922016 0.300000
v 0.677984 0.970687 0.300000
vt 0.600000 0.000000
vt 0.650000 0.000000
vt 0.650000 1.000000
vt 0.600000 1.000000
f 169/169 170/170 171/171 172/172
v 0.500000 1.100000 0.140000
v 0.629313 0.922016 0.140000
v 0.677984 0.970687 0.140000
vt 0.000000 0.000000
vt 1.000000 0.000000
vt 1.000000 1.000000
f 173/173 174/174 175/175
v 0.500000 1.100000 0.300000
v 0.677984 0.970687 0.300000
v 0.629313 0.922016 0.300000
vt 0.000000 0.000000
vt 1.000000 0.000000
vt 1.000000 1.000000
f 176/176 177/177 178/178
v 0.629313 0.922016 0.140000
v 0.567984 0.890768 0.140000
v 0.567984 0.890768 0.300000
v 0.629313 0.922016 0.300000
vt 0.650000 0.000000
vt 0.700000 0.000000
vt 0.700000 1.000000
vt 0.650000 1.000000
f 179/179 180/180 181/181 182/182
v 0.500000 1.100000 0.140000
v 0.567984 0.890768 0.140000
v 0.629313 0.922016 0.140000
vt 0.000000 0.000000
vt 1.000000 0.000000
vt 1.000000 1.000000
f 183/183 184/184 185/185
v 0.500000 1.100000 0.300000
v 0.629313 0.922016 0.300000
v 0.567984 0.890768 0.300000
vt 0.000000 0.000000
vt 1.000000 0.000000
vt 1.000000 1.000000
f 186/186 187/187 188/188
v 0.567984 0.890768 0.140000
v 0.500000 0.880000 0.140000
v 0.500000 0.880000 0.300000
v 0.567984 0.890768 0.300000
vt 0.700000 0.000000
vt 0.750000 0.000000
vt 0.750000 1.000000
vt 0.700000 1.000000
f 189/189 190/190 191/191 192/192
v 0.500000 1.100000 0.140000
v 0.500000 0.880000 0.140000
v 0.567984 0.890768 0.140000
vt 0.000000 0.000000
vt 1.000000 0.000000
vt 1.000000 1.000000
f 193/193 194/194 195/195
v 0.500000 1.100000 0.300000
v 0.567984 0.890768 0.300000
v 0.500000 0.880000 0.300000
vt 0.000000 0.000000
vt 1.000000 0.000000
vt 1.000000 1.000000
f 196/196 197/197 198/198
v 0.500000 0.880000 0.140000
v 0.432016 0.890768 0.140000
v 0.432016 0.890768 0.300000
v 0.500000 0.880000 0.300000
vt 0.750000 0.000000
vt 0.800000 0.000000
vt 0.800000 1.000000
vt 0.750000 1.000000
f 199/199 200/200 201/201 202/202
v 0.500000 1.100000 0.140000
v 0.432016 0.890768 0.140000
v 0.500000 0.880000 0.140000
vt 0.000000 0.000000
vt 1.000000 0.000000
vt 1.000000 1.000000
f 203/203 204/204 205/205
v 0.500000 1.100000 0.300000
v 0.500000 0.880000 0.300000
v 0.432016 0.890768 0.300000
vt 0.000000 0.000000
vt 1.000000 0.000000
vt 1.000000 1.000000
f 206/206 207/207 208/208
v 0.432016 0.890768 0.140000
v 0.370687 0.922016 0.140000
v 0.370687 0.922016 0.300000
v 0.432016 0.890768 0.300000
vt 0.800000 0.000000
vt 0.850000 0.000000
vt 0.850000 1.000000
vt 0.800000 1.000000
f 209/209 210/210 211/211 212/212
v 0.500000 1.100000 0.140000
v 0.370687 0.922016 0.140000
v 0.432016 0.890768 0.140000
vt 0.000000 0.000000
vt 1.000000 0.000000
vt 1.000000 1.000000
f 213/213 214/214 215/215
v 0.500000 1.100000 0.300000
v 0.432016 0.890768 0.300000
v 0.370687 0.922016 0.300000
vt 0.000000 0.000000
vt 1.000000 0.000000
vt 1.000000 1.000000
f 216/216 217/217 218/218
v 0.370687 0.922016 0.140000
v 0.322016 0.970687 0.140000
v 0.322016 0.970687 0.300000
v 0.370687 0.922016 0.300000
vt 0.850000 0.000000
vt 0.900000 0.000000
vt 0.900000 1.000000
vt 0.850000 1.000000
f 219/219 220/220 221/221 222/222
v 0.500000 1.100000 0.140000
v 0.322016 0.970687 0.140000
v 0.370687 0.922016 0.140000
vt 0.000000 0.000000
vt 1.000000 0.000000
vt 1.000000 1.000000
f 223/223 224/224 225/225
v 0.500000 1.100000 0.300000
v 0.370687 0.922016 0.300000
v 0.322016 0.970687 0.300000
vt 0.000000 0.000000
vt 1.000000 0.000000
vt 1.000000 1.000000
f 226/226 227/227 228/228
v 0.322016 0.970687 0.140000
v 0.290768 1.032016 0.140000
v 0.290768 1.032016 0.300000
v 0.322016 0.970687 0.300000
vt 0.900000 0.000000
vt 0.950000 0.000000
vt 0.950000 1.000000
vt 0.900000 1.000000
f 229/229 230/230 231/231 232/232
v 0.500000 1.100000 0.140000
v 0.290768 1.032016 0.140000
v 0.322016 0.970687 0.140000
vt 0.000000 0.000000
vt 1.000000 0.000000
vt 1.000000 1.000000
f 233/233 234/234 235/235
v 0.500000 1.100000 0.300000
v 0.322016 0.970687 0.300000
v 0.290768 1.032016 0.300000
vt 0.000000 0.000000
vt 1.000000 0.000000
vt 1.000000 1.000000
f 236/236 237/237 238/238
v 0.290768 1.032016 0.140000
v 0.280000 1.100000 0.140000
v 0.280000 1.100000 0.300000
v 0.290768 1.032016 0.300000
vt 0.950000 0.000000
vt 1.000000 0.000000
vt 1.000000 1.000000
vt 0.950000 1.000000
f 239/239 240/240 241/241 242/242
v 0.500000 1.100000 0.140000
v 0.280000 1.100000 0.140000
v 0.290768 1.032016 0.140000
vt 0.000000 0.000000
vt 1.000000 0.000000
vt 1.000000 1.000000
f 243/243 244/244 245/245
v 0.500000 1.100000 0.300000
v 0.290768 1.032016 0.300000
v 0.280000 1.100000 0.300000
vt 0.000000 0.000000
vt 1.000000 0.000000
vt 1.000000 1.000000
f 246/246 247/247 248/248
usemtl yellow
v -0.040000 0.200000 0.040000
v 0.080000 0.200000 0.040000
v 0.080000 1.800000 0.040000
v -0.040000 1.800000 0.040000
vt 0.000000 0.000000
vt 1.000000 0.000000
vt 1.000000 1.000000
vt 0.000000 1.000000
f 249/249 250/250 251/251 252/252
v 0.080000 0.200000 0.240000
v -0.040000 0.200000 0.240000
v -0.040000 1.800000 0.240000
v 0.080000 1.800000 0.240000
vt 0.000000 0.000000
vt 1.000000 0.000000
vt 1.000000 1.000000
vt 0.000000 1.000000
f 253/253 254/254 255/255 256/256
v -0.040000 0.200000 0.240000
v -0.040000 0.200000 0.040000
v -0.040000 1.800000 0.040000
v -0.040000 1.800000 0.240000
vt 0.000000 0.000000
vt 1.000000 0.000000
vt 1.000000 1.000000
vt 0.000000 1.000000
f 257/257 258/258 259/259 260/260
v 0.080000 0.200000 0.040000
v 0.080000 0.200000 0.240000
v 0.080000 1.800000 0.240000
v 0.080000 1.800000 0.040000
vt 0.000000 0.000000
vt 1.000000 0.000000
vt 1.000000 1.000000
vt 0.000000 1.000000
f 261/261 262/262 263/263 264/264
v -0.040000 1.800000 0.040000
v 0.080000 1.800000 0.040000
v 0.080000 1.800000 0.240000
v -0.040000 1.800000 0.240000
vt 0.000000 0.000000
vt 1.000000 0.000000
vt 1.000000 1.000000
vt 0.000000 1.000000
f 265/265 266/266 267/267 268/268
v -0.040000 0.200000 0.240000
v 0.080000 0.200000 0.240000
v 0.080000 0.200000 0.040000
v -0.040000 0.200000 0.040000
vt 0.000000 0.000000
vt 1.000000 0.000000
vt 1.000000 1.000000
vt 0.000000 1.000000
f 269/269 270/270 271/271 272/272
v 0.920000 0.200000 0.040000
v 1.040000 0.200000 0.040000
v 1.040000 1.800000 0.040000
v 0.920000 1.800000 0.040000
vt 0.000000 0.000000
vt 1.000000 0.000000
vt 1.000000 1.000000
vt 0.000000 1.000000
f 273/273 274/274 275/275 276/276
v 1.040000 0.200000 0.240000
v 0.920000 0.200000 0.240000
v 0.920000 1.800000 0.240000
v 1.040000 1.800000 0.240000
vt 0.000000 0.000000
vt 1.000000 0.000000
vt 1.000000 1.000000
vt 0.000000 1.000000
f 277/277 278/278 279/279 280/280
v 0.920000 0.200000 0.240000
v 0.920000 0.200000 0.040000
v 0.920000 1.800000 0.040000
v 0.920000 1.800000 0.240000
vt 0.000000 0.000000
vt 1.000000 0.000000
vt 1.000000 1.000000
vt 0.000000 1.000000
f 281/281 282/282 283/283 284/284
v 1.040000 0.200000 0.040000
v 1.040000 0.200000 0.240000
v 1.040000 1.800000 0.240000
v 1.040000 1.800000 0.040000
vt 0.000000 0.000000
vt 1.000000 0.000000
vt 1.000000 1.000000
vt 0.000000 1.000000
f 285/285 286/286 287/287 288/288
v 0.920000 1.800000 0.040000
v 1.040000 1.800000 0.040000
v 1.040000 1.800000 0.240000
v 0.920000 1.800000 0.240000
vt 0.000000 0.000000
vt 1.000000 0.000000
vt 1.000000 1.000000
vt 0.000000 1.000000
f 289/289 290/290 291/291 292/292
v 0.920000 0.200000 0.240000
v 1.040000 0.200000 0.240000
v 1.040000 0.200000 0.040000
v 0.920000 0.200000 0.040000
vt 0.000000 0.000000
vt 1.000000 0.000000
vt 1.000000 1.000000
vt 0.000000 1.000000
f 293/293 294/294 295/295 296/296
