mtllib alcm.mtl
o alcm
s 1
usemtl olive
v 0.000000 -0.882900 -0.170040
v 0.044010 -0.882900 -0.164246
v 0.044010 0.664900 -0.164246
v 0.000000 0.664900 -0.170040
vt 0.000000 0.000000
vt 0.041667 0.000000
vt 0.041667 1.000000
vt 0.000000 1.000000
f 1/1 2/2 3/3 4/4
v 0.044010 -0.882900 -0.164246
v 0.085020 -0.882900 -0.147259
v 0.085020 0.664900 -0.147259
v 0.044010 0.664900 -0.164246
vt 0.041667 0.000000
vt 0.083333 0.000000
vt 0.083333 1.000000
vt 0.041667 1.000000
f 5/5 6/6 7/7 8/8
v 0.085020 -0.882900 -0.147259
v 0.120236 -0.882900 -0.120236
v 0.120236 0.664900 -0.120236
v 0.085020 0.664900 -0.147259
vt 0.083333 0.000000
vt 0.125000 0.000000
vt 0.125000 1.000000
vt 0.083333 1.000000
f 9/9 10/10 11/11 12/12
v 0.120236 -0.882900 -0.120236
v 0.147259 -0.882900 -0.085020
v 0.147259 0.664900 -0.085020
v 0.120236 0.664900 -0.120236
vt 0.125000 0.000000
vt 0.166667 0.000000
vt 0.166667 1.000000
vt 0.125000 1.000000
f 13/13 14/14 15/15 16/16
v 0.147259 -0.882900 -0.085020
v 0.164246 -0.882900 -0.044010
v 0.164246 0.664900 -0.044010
v 0.147259 0.664900 -0.085020
vt 0.166667 0.000000
vt 0.208333 0.000000
vt 0.208333 1.000000
vt 0.166667 1.000000
f 17/17 18/18 19/19 20/20
v 0.164246 -0.882900 -0.044010
v 0.170040 -0.882900 -0.000000
v 0.170040 0.664900 -0.000000
v 0.164246 0.664900 -0.044010
vt 0.208333 0.000000
vt 0.250000 0.000000
vt 0.250000 1.000000
vt 0.208333 1.000000
f 21/21 22/22 23/23 24/24
v 0.170040 -0.882900 -0.000000
v 0.164246 -0.882900 0.044010
v 0.164246 0.664900 0.044010
v 0.170040 0.664900 -0.000000
vt 0.250000 0.000000
vt 0.291667 0.000000
vt 0.291667 1.000000
vt 0.250000 1.000000
f 25/25 26/26 27/27 28/28
v 0.164246 -0.882900 0.044010
v 0.147259 -0.882900 0.085020
v 0.147259 0.664900 0.085020
v 0.164246 0.664900 0.044010
vt 0.291667 0.000000
vt 0.333333 0.000000
vt 0.333333 1.000000
vt 0.291667 1.000000
f 29/29 30/30 31/31 32/32
v 0.147259 -0.882900 0.085020
v 0.120236 -0.882900 0.120236
v 0.120236 0.664900 0.120236
v 0.147259 0.664900 0.085020
vt 0.333333 0.000000
vt 0.375000 0.000000
vt 0.375000 1.000000
vt 0.333333 1.000000
f 33/33 34/34 35/35 36/36
v 0.120236 -0.882900 0.120236
v 0.085020 -0.882900 0.147259
v 0.085020 0.664900 0.147259
v 0.120236 0.664900 0.120236
vt 0.375000 0.000000
vt 0.416667 0.000000
vt 0.416667 1.000000
vt 0.375000 1.000000
f 37/37 38/38 39/39 40/40
v 0.085020 -0.882900 0.147259
v 0.044010 -0.882900 0.164246
v 0.044010 0.664900 0.164246
v 0.085020 0.664900 0.147259
vt 0.416667 0.000000
vt 0.458333 0.000000
vt 0.458333 1.000000
vt 0.416667 1.000000
f 41/41 42/42 43/43 44/44
v 0.044010 -0.882900 0.164246
v 0.000000 -0.882900 0.170040
v 0.000000 0.664900 0.170040
v 0.044010 0.664900 0.164246
vt 0.458333 0.000000
vt 0.500000 0.000000
vt 0.500000 1.000000
vt 0.458333 1.000000
f 45/45 46/46 47/47 48/48
v 0.000000 -0.882900 0.170040
v -0.044010 -0.882900 0.164246
v -0.044010 0.664900 0.164246
v 0.000000 0.664900 0.170040
vt 0.500000 0.000000
vt 0.541667 0.000000
vt 0.541667 1.000000
vt 0.500000 1.000000
f 49/49 50/50 51/51 52/52
v -0.044010 -0.882900 0.164246
v -0.085020 -0.882900 0.147259
v -0.085020 0.664900 0.147259
v -0.044010 0.664900 0.164246
vt 0.541667 0.000000
vt 0.583333 0.000000
vt 0.583333 1.000000
vt 0.541667 1.000000
f 53/53 54/54 55/55 56/56
v -0.085020 -0.882900 0.147259
v -0.120236 -0.882900 0.120236
v -0.120236 0.664900 0.120236
v -0.085020 0.664900 0.147259
vt 0.583333 0.000000
vt 0.625000 0.000000
vt 0.625000 1.000000
vt 0.583333 1.000000
f 57/57 58/58 59/59 60/60
v -0.120236 -0.882900 0.120236
v -0.147259 -0.882900 0.085020
v -0.147259 0.664900 0.085020
v -0.120236 0.664900 0.120236
vt 0.625000 0.000000
vt 0.666667 0.000000
vt 0.666667 1.000000
vt 0.625000 1.000000
f 61/61 62/62 63/63 64/64
v -0.147259 -0.882900 0.085020
v -0.164246 -0.882900 0.044010
v -0.164246 0.664900 0.044010
v -0.147259 0.664900 0.085020
vt 0.666667 0.000000
vt 0.708333 0.000000
vt 0.708333 1.000000
vt 0.666667 1.000000
f 65/65 66/66 67/67 68/68
v -0.164246 -0.882900 0.044010
v -0.170040 -0.882900 0.000000
v -0.170040 0.664900 0.000000
v -0.164246 0.664900 0.044010
vt 0.708333 0.000000
vt 0.750000 0.000000
vt 0.750000 1.000000
vt 0.708333 1.000000
f 69/69 70/70 71/71 72/72
v -0.170040 -0.882900 0.000000
v -0.164246 -0.882900 -0.044010
v -0.164246 0.664900 -0.044010
v -0.170040 0.664900 0.000000
vt 0.750000 0.000000
vt 0.791667 0.000000
vt 0.791667 1.000000
vt 0.750000 1.000000
f 73/73 74/74 75/75 76/76
v -0.164246 -0.882900 -0.044010
v -0.147259 -0.882900 -0.085020
v -0.147259 0.664900 -0.085020
v -0.164246 0.664900 -0.044010
vt 0.791667 0.000000
vt 0.833333 0.000000
vt 0.833333 1.000000
vt 0.791667 1.000000
f 77/77 78/78 79/79 80/80
v -0.147259 -0.882900 -0.085020
v -0.120236 -0.882900 -0.120236
v -0.120236 0.664900 -0.120236
v -0.147259 0.664900 -0.085020
vt 0.833333 0.000000
vt 0.875000 0.000000
vt 0.875000 1.000000
vt 0.833333 1.000000
f 81/81 82/82 83/83 84/84
v -0.120236 -0.882900 -0.120236
v -0.085020 -0.882900 -0.147259
v -0.085020 0.664900 -0.147259
v -0.120236 0.664900 -0.120236
vt 0.875000 0.000000
vt 0.916667 0.000000
vt 0.916667 1.000000
vt 0.875000 1.000000
f 85/85 86/86 87/87 88/88
v -0.085020 -0.882900 -0.147259
v -0.044010 -0.882900 -0.164246
v -0.044010 0.664900 -0.164246
v -0.085020 0.664900 -0.147259
vt 0.916667 0.000000
vt 0.958333 0.000000
vt 0.958333 1.000000
vt 0.916667 1.000000
f 89/89 90/90 91/91 92/92
v -0.044010 -0.882900 -0.164246
v -0.000000 -0.882900 -0.170040
v -0.000000 0.664900 -0.170040
v -0.044010 0.664900 -0.164246
vt 0.958333 0.000000
vt 1.000000 0.000000
vt 1.000000 1.000000
vt 0.958333 1.000000
f 93/93 94/94 95/95 96/96
usemtl glass
v 0.000000 0.664900 -0.170040
v 0.047906 0.664900 -0.163152
v 0.000614 1.144500 -0.002092
v 0.000000 1.144500 -0.002180
vt 0.000000 0.000000
vt 0.045455 0.000000
vt 0.045455 1.000000
vt 0.000000 1.000000
f 97/97 98/98 99/99 100/100
v 0.000000 0.664900 0.000000
v 0.047906 0.664900 -0.163152
v 0.000000 0.664900 -0.170040
vt 0.000000 0.000000
vt 1.000000 0.000000
vt 1.000000 1.000000
f 101/101 102/102 103/103
v 0.000000 1.144500 0.000000
v 0.000000 1.144500 -0.002180
v 0.000614 1.144500 -0.002092
vt 0.000000 0.000000
vt 1.000000 0.000000
vt 1.000000 1.000000
f 104/104 105/105 106/106
v 0.047906 0.664900 -0.163152
v 0.091931 0.664900 -0.143047
v 0.001179 1.144500 -0.001834
v 0.000614 1.144500 -0.002092
vt 0.045455 0.000000
vt 0.090909 0.000000
vt 0.090909 1.000000
vt 0.045455 1.000000
f 107/107 108/108 109/109 110/110
v 0.000000 0.664900 0.000000
v 0.091931 0.664900 -0.143047
v 0.047906 0.664900 -0.163152
vt 0.000000 0.000000
vt 1.000000 0.000000
vt 1.000000 1.000000
f 111/111 112/112 113/113
v 0.000000 1.144500 0.000000
v 0.000614 1.144500 -0.002092
v 0.001179 1.144500 -0.001834
vt 0.000000 0.000000
vt 1.000000 0.000000
vt 1.000000 1.000000
f 114/114 115/115 116/116
v 0.091931 0.664900 -0.143047
v 0.128508 0.664900 -0.111353
v 0.001648 1.144500 -0.001428
v 0.001179 1.144500 -0.001834
vt 0.090909 0.000000
vt 0.136364 0.000000
vt 0.136364 1.000000
vt 0.090909 1.000000
f 117/117 118/118 119/119 120/120
v 0.000000 0.664900 0.000000
v 0.128508 0.664900 -0.111353
v 0.091931 0.664900 -0.143047
vt 0.000000 0.000000
vt 1.000000 0.000000
vt 1.000000 1.000000
f 121/121 122/122 123/123
v 0.000000 1.144500 0.000000
v 0.001179 1.144500 -0.001834
v 0.001648 1.144500 -0.001428
vt 0.000000 0.000000
vt 1.000000 0.000000
vt 1.000000 1.000000
f 124/124 125/125 126/126
v 0.128508 0.664900 -0.111353
v 0.154674 0.664900 -0.070637
v 0.001983 1.144500 -0.000906
v 0.001648 1.144500 -0.001428
vt 0.136364 0.000000
vt 0.181818 0.000000
vt 0.181818 1.000000
vt 0.136364 1.000000
f 127/127 128/128 129/129 130/130
v 0.000000 0.664900 0.000000
v 0.154674 0.664900 -0.070637
v 0.128508 0.664900 -0.111353
vt 0.000000 0.000000
vt 1.000000 0.000000
vt 1.000000 1.000000
f 131/131 132/132 133/133
v 0.000000 1.144500 0.000000
v 0.001648 1.144500 -0.001428
v 0.001983 1.144500 -0.000906
vt 0.000000 0.000000
vt 1.000000 0.000000
vt 1.000000 1.000000
f 134/134 135/135 136/136
v 0.154674 0.664900 -0.070637
v 0.168309 0.664900 -0.024199
v 0.002158 1.144500 -0.000310
v 0.001983 1.144500 -0.000906
vt 0.181818 0.000000
vt 0.227273 0.000000
vt 0.227273 1.000000
vt 0.181818 1.000000
f 137/137 138/138 139/139 140/140
v 0.000000 0.664900 0.000000
v 0.168309 0.664900 -0.024199
v 0.154674 0.664900 -0.070637
vt 0.000000 0.000000
vt 1.000000 0.000000
vt 1.000000 1.000000
f 141/141 142/142 143/143
v 0.000000 1.144500 0.000000
v 0.001983 1.144500 -0.000906
v 0.002158 1.144500 -0.000310
vt 0.000000 0.000000
vt 1.000000 0.000000
vt 1.000000 1.000000
f 144/144 145/145 146/146
v 0.168309 0.664900 -0.024199
v 0.168309 0.664900 0.024199
v 0.002158 1.144500 0.000310
v 0.002158 1.144500 -0.000310
vt 0.227273 0.000000
vt 0.272727 0.000000
vt 0.272727 1.000000
vt 0.227273 1.000000
f 147/147 148/148 149/149 150/150
v 0.000000 0.664900 0.000000
v 0.168309 0.664900 0.024199
v 0.168309 0.664900 -0.024199
vt 0.000000 0.000000
vt 1.000000 0.000000
vt 1.000000 1.000000
f 151/151 152/152 153/153
v 0.000000 1.144500 0.000000
v 0.002158 1.144500 -0.000310
v 0.002158 1.144500 0.000310
vt 0.000000 0.000000
vt 1.000000 0.000000
vt 1.000000 1.000000
f 154/154 155/155 156/156
v 0.168309 0.664900 0.024199
v 0.154674 0.664900 0.070637
v 0.001983 1.144500 0.000906
v 0.002158 1.144500 0.000310
vt 0.272727 0.000000
vt 0.318182 0.000000
vt 0.318182 1.000000
vt 0.272727 1.000000
f 157/157 158/158 159/159 160/160
v 0.000000 0.664900 0.000000
v 0.154674 0.664900 0.070637
v 0.168309 0.664900 0.024199
vt 0.000000 0.000000
vt 1.000000 0.000000
vt 1.000000 1.000000
f 161/161 162/162 163/163
v 0.000000 1.144500 0.000000
v 0.002158 1.144500 0.000310
v 0.001983 1.144500 0.000906
vt 0.000000 0.000000
vt 1.000000 0.000000
vt 1.000000 1.000000
f 164/164 165/165 166/166
v 0.154674 0.664900 0.070637
v 0.128508 0.664900 0.111353
v 0.001648 1.144500 0.001428
v 0.001983 1.144500 0.000906
vt 0.318182 0.000000
vt 0.363636 0.000000
vt 0.363636 1.000000
vt 0.318182 1.000000
f 167/167 168/168 169/169 170/170
v 0.000000 0.664900 0.000000
v 0.128508 0.664900 0.111353
v 0.154674 0.664900 0.070637
vt 0.000000 0.000000
vt 1.000000 0.000000
vt 1.000000 1.000000
f 171/171 172/172 173/173
v 0.000000 1.144500 0.000000
v 0.001983 1.144500 0.000906
v 0.001648 1.144500 0.001428
vt 0.000000 0.000000
vt 1.000000 0.000000
vt 1.000000 1.000000
f 174/174 175/175 176/176
v 0.128508 0.664900 0.111353
v 0.091931 0.664900 0.143047
v 0.001179 1.144500 0.001834
v 0.001648 1.144500 0.001428
vt 0.363636 0.000000
vt 0.409091 0.000000
vt 0.409091 1.000000
vt 0.363636 1.000000
f 177/177 178/178 179/179 180/180
v 0.000000 0.664900 0.000000
v 0.091931 0.664900 0.143047
v 0.128508 0.664900 0.111353
vt 0.000000 0.000000
vt 1.000000 0.000000
vt 1.000000 1.000000
f 181/181 182/182 183/183
v 0.000000 1.144500 0.000000
v 0.001648 1.144500 0.001428
v 0.001179 1.144500 0.001834
vt 0.000000 0.000000
vt 1.000000 0.000000
vt 1.000000 1.000000
f 184/184 185/185 186/186
v 0.091931 0.664900 0.143047
v 0.047906 0.664900 0.163152
v 0.000614 1.144500 0.002092
v 0.001179 1.144500 0.001834
vt 0.409091 0.000000
vt 0.454545 0.000000
vt 0.454545 1.000000
vt 0.409091 1.000000
f 187/187 188/188 189/189 190/190
v 0.000000 0.664900 0.000000
v 0.047906 0.664900 0.163152
v 0.091931 0.664900 0.143047
vt 0.000000 0.000000
vt 1.000000 0.000000
vt 1.000000 1.000000
f 191/191 192/192 193/193
v 0.000000 1.144500 0.000000
v 0.001179 1.144500 0.001834
v 0.000614 1.144500 0.002092
vt 0.000000 0.000000
vt 1.000000 0.000000
vt 1.000000 1.000000
f 194/194 195/195 196/196
v 0.047906 0.664900 0.163152
v 0.000000 0.664900 0.170040
v 0.000000 1.144500 0.002180
v 0.000614 1.144500 0.002092
vt 0.454545 0.000000
vt 0.500000 0.000000
vt 0.500000 1.000000
vt 0.454545 1.000000
f 197/197 198/198 199/199 200/200
v 0.000000 0.664900 0.000000
v 0.000000 0.664900 0.170040
v 0.047906 0.664900 0.163152
vt 0.000000 0.000000
vt 1.000000 0.000000
vt 1.000000 1.000000
f 201/201 202/202 203/203
v 0.000000 1.144500 0.000000
v 0.000614 1.144500 0.002092
v 0.000000 1.144500 0.002180
vt 0.000000 0.000000
vt 1.000000 0.000000
vt 1.000000 1.000000
f 204/204 205/205 206/206
v 0.000000 0.664900 0.170040
v -0.047906 0.664900 0.163152
v -0.000614 1.144500 0.002092
v 0.000000 1.144500 0.002180
vt 0.500000 0.000000
vt 0.545455 0.000000
vt 0.545455 1.000000
vt 0.500000 1.000000
f 207/207 208/208 209/209 210/210
v 0.000000 0.664900 0.000000
v -0.047906 0.664900 0.163152
v 0.000000 0.664900 0.170040
vt 0.000000 0.000000
vt 1.000000 0.000000
vt 1.000000 1.000000
f 211/211 212/212 213/213
v 0.000000 1.144500 0.000000
v 0.000000 1.144500 0.002180
v -0.000614 1.144500 0.002092
vt 0.000000 0.000000
vt 1.000000 0.000000
vt 1.000000 1.000000
f 214/214 215/215 216/216
v -0.047906 0.664900 0.163152
v -0.091931 0.664900 0.143047
v -0.001179 1.144500 0.001834
v -0.000614 1.144500 0.002092
vt 0.545455 0.000000
vt 0.590909 0.000000
vt 0.590909 1.000000
vt 0.545455 1.000000
f 217/217 218/218 219/219 220/220
v 0.000000 0.664900 0.000000
v -0.091931 0.664900 0.143047
v -0.047906 0.664900 0.163152
vt 0.000000 0.000000
vt 1.000000 0.000000
vt 1.000000 1.000000
f 221/221 222/222 223/223
v 0.000000 1.144500 0.000000
v -0.000614 1.144500 0.002092
v -0.001179 1.144500 0.001834
vt 0.000000 0.000000
vt 1.000000 0.000000
vt 1.000000 1.000000
f 224/224 225/225 226/226
v -0.091931 0.664900 0.143047
v -0.128508 0.664900 0.111353
v -0.001648 1.144500 0.001428
v -0.001179 1.144500 0.001834
vt 0.590909 0.000000
vt 0.636364 0.000000
vt 0.636364 1.000000
vt 0.590909 1.000000
f 227/227 228/228 229/229 230/230
v 0.000000 0.664900 0.000000
v -0.128508 0.664900 0.111353
v -0.091931 0.664900 0.143047
vt 0.000000 0.000000
vt 1.000000 0.000000
vt 1.000000 1.000000
f 231/231 232/232 233/233
v 0.000000 1.144500 0.000000
v -0.001179 1.144500 0.001834
v -0.001648 1.144500 0.001428
vt 0.000000 0.000000
vt 1.000000 0.000000
vt 1.000000 1.000000
f 234/234 235/235 236/236
v -0.128508 0.664900 0.111353
v -0.154674 0.664900 0.070637
v -0.001983 1.144500 0.000906
v -0.001648 1.144500 0.001428
vt 0.636364 0.000000
vt 0.681818 0.000000
vt 0.681818 1.000000
vt 0.636364 1.000000
f 237/237 238/238 239/239 240/240
v 0.000000 0.664900 0.000000
v -0.154674 0.664900 0.070637
v -0.128508 0.664900 0.111353
vt 0.000000 0.000000
vt 1.000000 0.000000
vt 1.000000 1.000000
f 241/241 242/242 243/243
v 0.000000 1.144500 0.000000
v -0.001648 1.144500 0.001428
v -0.001983 1.144500 0.000906
vt 0.000000 0.000000
vt 1.000000 0.000000
vt 1.000000 1.000000
f 244/244 245/245 246/246
v -0.154674 0.664900 0.070637
v -0.168309 0.664900 0.024199
v -0.002158 1.144500 0.000310
v -0.001983 1.144500 0.000906
vt 0.681818 0.000000
vt 0.727273 0.000000
vt 0.727273 1.000000
vt 0.681818 1.000000
f 247/247 248/248 249/249 250/250
v 0.000000 0.664900 0.000000
v -0.168309 0.664900 0.024199
v -0.154674 0.664900 0.070637
vt 0.000000 0.000000
vt 1.000000 0.000000
vt 1.000000 1.000000
f 251/251 252/252 253/253
v 0.000000 1.144500 0.000000
v -0.001983 1.144500 0.000906
v -0.002158 1.144500 0.000310
vt 0.000000 0.000000
vt 1.000000 0.000000
vt 1.000000 1.000000
f 254/254 255/255 256/256
v -0.168309 0.664900 0.024199
v -0.168309 0.664900 -0.024199
v -0.002158 1.144500 -0.000310
v -0.002158 1.144500 0.000310
vt 0.727273 0.000000
vt 0.772727 0.000000
vt 0.772727 1.000000
vt 0.727273 1.000000
f 257/257 258/258 259/259 260/260
v 0.000000 0.664900 0.000000
v -0.168309 0.664900 -0.024199
v -0.168309 0.664900 0.024199
vt 0.000000 0.000000
vt 1.000000 0.000000
vt 1.000000 1.000000
f 261/261 262/262 263/263
v 0.000000 1.144500 0.000000
v -0.002158 1.144500 0.000310
v -0.002158 1.144500 -0.000310
vt 0.000000 0.000000
vt 1.000000 0.000000
vt 1.000000 1.000000
f 264/264 265/265 266/266
v -0.168309 0.664900 -0.024199
v -0.154674 0.664900 -0.070637
v -0.001983 1.144500 -0.000906
v -0.002158 1.144500 -0.000310
vt 0.772727 0.000000
vt 0.818182 0.000000
vt 0.818182 1.000000
vt 0.772727 1.000000
f 267/267 268/268 269/269 270/270
v 0.000000 0.664900 0.000000
v -0.154674 0.664900 -0.070637
v -0.168309 0.664900 -0.024199
vt 0.000000 0.000000
vt 1.000000 0.000000
vt 1.000000 1.000000
f 271/271 272/272 273/273
v 0.000000 1.144500 0.000000
v -0.002158 1.144500 -0.000310
v -0.001983 1.144500 -0.000906
vt 0.000000 0.000000
vt 1.000000 0.000000
vt 1.000000 1.000000
f 274/274 275/275 276/276
v -0.154674 0.664900 -0.070637
v -0.128508 0.664900 -0.111353
v -0.001648 1.144500 -0.001428
v -0.001983 1.144500 -0.000906
vt 0.818182 0.000000
vt 0.863636 0.000000
vt 0.863636 1.000000
vt 0.818182 1.000000
f 277/277 278/278 279/279 280/280
v 0.000000 0.664900 0.000000
v -0.128508 0.664900 -0.111353
v -0.154674 0.664900 -0.070637
vt 0.000000 0.000000
vt 1.000000 0.000000
vt 1.000000 1.000000
f 281/281 282/282 283/283
v 0.000000 1.144500 0.000000
v -0.001983 1.144500 -0.000906
v -0.001648 1.144500 -0.001428
vt 0.000000 0.000000
vt 1.000000 0.000000
vt 1.000000 1.000000
f 284/284 285/285 286/286
v -0.128508 0.664900 -0.111353
v -0.091931 0.664900 -0.143047
v -0.001179 1.144500 -0.001834
v -0.001648 1.144500 -0.001428
vt 0.863636 0.000000
vt 0.909091 0.000000
vt 0.909091 1.000000
vt 0.863636 1.000000
f 287/287 288/288 289/289 290/290
v 0.000000 0.664900 0.000000
v -0.091931 0.664900 -0.143047
v -0.128508 0.664900 -0.111353
vt 0.000000 0.000000
vt 1.000000 0.000000
vt 1.000000 1.000000
f 291/291 292/292 293/293
v 0.000000 1.144500 0.000000
v -0.001648 1.144500 -0.001428
v -0.001179 1.144500 -0.001834
vt 0.000000 0.000000
vt 1.000000 0.000000
vt 1.000000 1.000000
f 294/294 295/295 296/296
v -0.091931 0.664900 -0.143047
v -0.047906 0.664900 -0.163152
v -0.000614 1.144500 -0.002092
v -0.001179 1.144500 -0.001834
vt 0.909091 0.000000
vt 0.954545 0.000000
vt 0.954545 1.000000
vt 0.909091 1.000000
f 297/297 298/298 299/299 300/300
v 0.000000 0.664900 0.000000
v -0.047906 0.664900 -0.163152
v -0.091931 0.664900 -0.143047
vt 0.000000 0.000000
vt 1.000000 0.000000
vt 1.000000 1.000000
f 301/301 302/302 303/303
v 0.000000 1.144500 0.000000
v -0.001179 1.144500 -0.001834
v -0.000614 1.144500 -0.002092
vt 0.000000 0.000000
vt 1.000000 0.000000
vt 1.000000 1.000000
f 304/304 305/305 306/306
v -0.047906 0.664900 -0.163152
v -0.000000 0.664900 -0.170040
v -0.000000 1.144500 -0.002180
v -0.000614 1.144500 -0.002092
vt 0.954545 0.000000
vt 1.000000 0.000000
vt 1.000000 1.000000
vt 0.954545 1.000000
f 307/307 308/308 309/309 310/310
v 0.000000 0.664900 0.000000
v -0.000000 0.664900 -0.170040
v -0.047906 0.664900 -0.163152
vt 0.000000 0.000000
vt 1.000000 0.000000
vt 1.000000 1.000000
f 311/311 312/312 313/313
v 0.000000 1.144500 0.000000
v -0.000614 1.144500 -0.002092
v -0.000000 1.144500 -0.002180
vt 0.000000 0.000000
vt 1.000000 0.000000
vt 1.000000 1.000000
f 314/314 315/315 316/316
usemtl dark
v 0.000000 -1.144500 -0.130800
v 0.044736 -1.144500 -0.122912
v 0.044736 -0.882900 -0.122912
v 0.000000 -0.882900 -0.130800
vt 0.000000 0.000000
vt 0.055556 0.000000
vt 0.055556 1.000000
vt 0.000000 1.000000
f 317/317 318/318 319/319 320/320
v 0.000000 -1.144500 0.000000
v 0.044736 -1.144500 -0.122912
v 0.000000 -1.144500 -0.130800
vt 0.000000 0.000000
vt 1.000000 0.000000
vt 1.000000 1.000000
f 321/321 322/322 323/323
v 0.000000 -0.882900 0.000000
v 0.000000 -0.882900 -0.130800
v 0.044736 -0.882900 -0.122912
vt 0.000000 0.000000
vt 1.000000 0.000000
vt 1.000000 1.000000
f 324/324 325/325 326/326
v 0.044736 -1.144500 -0.122912
v 0.084077 -1.144500 -0.100199
v 0.084077 -0.882900 -0.100199
v 0.044736 -0.882900 -0.122912
vt 0.055556 0.000000
vt 0.111111 0.000000
vt 0.111111 1.000000
vt 0.055556 1.000000
f 327/327 328/328 329/329 330/330
v 0.000000 -1.144500 0.000000
v 0.084077 -1.144500 -0.100199
v 0.044736 -1.144500 -0.122912
vt 0.000000 0.000000
vt 1.000000 0.000000
vt 1.000000 1.000000
f 331/331 332/332 333/333
v 0.000000 -0.882900 0.000000
v 0.044736 -0.882900 -0.122912
v 0.084077 -0.882900 -0.100199
vt 0.000000 0.000000
vt 1.000000 0.000000
vt 1.000000 1.000000
f 334/334 335/335 336/336
v 0.084077 -1.144500 -0.100199
v 0.113276 -1.144500 -0.065400
v 0.113276 -0.882900 -0.065400
v 0.084077 -0.882900 -0.100199
vt 0.111111 0.000000
vt 0.166667 0.000000
vt 0.166667 1.000000
vt 0.111111 1.000000
f 337/337 338/338 339/339 340/340
v 0.000000 -1.144500 0.000000
v 0.113276 -1.144500 -0.065400
v 0.084077 -1.144500 -0.100199
vt 0.000000 0.000000
vt 1.000000 0.000000
vt 1.000000 1.000000
f 341/341 342/342 343/343
v 0.000000 -0.882900 0.000000
v 0.084077 -0.882900 -0.100199
v 0.113276 -0.882900 -0.065400
vt 0.000000 0.000000
vt 1.000000 0.000000
vt 1.000000 1.000000
f 344/344 345/345 346/346
v 0.113276 -1.144500 -0.065400
v 0.128813 -1.144500 -0.022713
v 0.128813 -0.882900 -0.022713
v 0.113276 -0.882900 -0.065400
vt 0.166667 0.000000
vt 0.222222 0.000000
vt 0.222222 1.000000
vt 0.166667 1.000000
f 347/347 348/348 349/349 350/350
v 0.000000 -1.144500 0.000000
v 0.128813 -1.144500 -0.022713
v 0.113276 -1.144500 -0.065400
vt 0.000000 0.000000
vt 1.000000 0.000000
vt 1.000000 1.000000
f 351/351 352/352 353/353
v 0.000000 -0.882900 0.000000
v 0.113276 -0.882900 -0.065400
v 0.128813 -0.882900 -0.022713
vt 0.000000 0.000000
vt 1.000000 0.000000
vt 1.000000 1.000000
f 354/354 355/355 356/356
v 0.128813 -1.144500 -0.022713
v 0.128813 -1.144500 0.022713
v 0.128813 -0.882900 0.022713
v 0.128813 -0.882900 -0.022713
vt 0.222222 0.000000
vt 0.277778 0.000000
vt 0.277778 1.000000
vt 0.222222 1.000000
f 357/357 358/358 359/359 360/360
v 0.000000 -1.144500 0.000000
v 0.128813 -1.144500 0.022713
v 0.128813 -1.144500 -0.022713
vt 0.000000 0.000000
vt 1.000000 0.000000
vt 1.000000 1.000000
f 361/361 362/362 363/363
v 0.000000 -0.882900 0.000000
v 0.128813 -0.882900 -0.022713
v 0.128813 -0.882900 0.022713
vt 0.000000 0.000000
vt 1.000000 0.000000
vt 1.000000 1.000000
f 364/364 365/365 366/366
v 0.128813 -1.144500 0.022713
v 0.113276 -1.144500 0.065400
v 0.113276 -0.882900 0.065400
v 0.128813 -0.882900 0.022713
vt 0.277778 0.000000
vt 0.333333 0.000000
vt 0.333333 1.000000
vt 0.277778 1.000000
f 367/367 368/368 369/369 370/370
v 0.000000 -1.144500 0.000000
v 0.113276 -1.144500 0.065400
v 0.128813 -1.144500 0.022713
vt 0.000000 0.000000
vt 1.000000 0.000000
vt 1.000000 1.000000
f 371/371 372/372 373/373
v 0.000000 -0.882900 0.000000
v 0.128813 -0.882900 0.022713
v 0.113276 -0.882900 0.065400
vt 0.000000 0.000000
vt 1.000000 0.000000
vt 1.000000 1.000000
f 374/374 375/375 376/376
v 0.113276 -1.144500 0.065400
v 0.084077 -1.144500 0.100199
v 0.084077 -0.882900 0.100199
v 0.113276 -0.882900 0.065400
vt 0.333333 0.000000
vt 0.388889 0.000000
vt 0.388889 1.000000
vt 0.333333 1.000000
f 377/377 378/378 379/379 380/380
v 0.000000 -1.144500 0.000000
v 0.084077 -1.144500 0.100199
v 0.113276 -1.144500 0.065400
vt 0.000000 0.000000
vt 1.000000 0.000000
vt 1.000000 1.000000
f 381/381 382/382 383/383
v 0.000000 -0.882900 0.000000
v 0.113276 -0.882900 0.065400
v 0.084077 -0.882900 0.100199
vt 0.000000 0.000000
vt 1.000000 0.000000
vt 1.000000 1.000000
f 384/384 385/385 386/386
v 0.084077 -1.144500 0.100199
v 0.044736 -1.144500 0.122912
v 0.044736 -0.882900 0.122912
v 0.084077 -0.882900 0.100199
vt 0.388889 0.000000
vt 0.444444 0.000000
vt 0.444444 1.000000
vt 0.388889 1.000000
f 387/387 388/388 389/389 390/390
v 0.000000 -1.144500 0.000000
v 0.044736 -1.144500 0.122912
v 0.084077 -1.144500 0.100199
vt 0.000000 0.000000
vt 1.000000 0.000000
vt 1.000000 1.000000
f 391/391 392/392 393/393
v 0.000000 -0.882900 0.000000
v 0.084077 -0.882900 0.100199
v 0.044736 -0.882900 0.122912
vt 0.000000 0.000000
vt 1.000000 0.000000
vt 1.000000 1.000000
f 394/394 395/395 396/396
v 0.044736 -1.144500 0.122912
v 0.000000 -1.144500 0.130800
v 0.000000 -0.882900 0.130800
v 0.044736 -0.882900 0.122912
vt 0.444444 0.000000
vt 0.500000 0.000000
vt 0.500000 1.000000
vt 0.444444 1.000000
f 397/397 398/398 399/399 400/400
v 0.000000 -1.144500 0.000000
v 0.000000 -1.144500 0.130800
v 0.044736 -1.144500 0.122912
vt 0.000000 0.000000
vt 1.000000 0.000000
vt 1.000000 1.000000
f 401/401 402/402 403/403
v 0.000000 -0.882900 0.000000
v 0.044736 -0.882900 0.122912
v 0.000000 -0.882900 0.130800
vt 0.000000 0.000000
vt 1.000000 0.000000
vt 1.000000 1.000000
f 404/404 405/405 406/406
v 0.000000 -1.144500 0.130800
v -0.044736 -1.144500 0.122912
v -0.044736 -0.882900 0.122912
v 0.000000 -0.882900 0.130800
vt 0.500000 0.000000
vt 0.555556 0.000000
vt 0.555556 1.000000
vt 0.500000 1.000000
f 407/407 408/408 409/409 410/410
v 0.000000 -1.144500 0.000000
v -0.044736 -1.144500 0.122912
v 0.000000 -1.144500 0.130800
vt 0.000000 0.000000
vt 1.000000 0.000000
vt 1.000000 1.000000
f 411/411 412/412 413/413
v 0.000000 -0.882900 0.000000
v 0.000000 -0.882900 0.130800
v -0.044736 -0.882900 0.122912
vt 0.000000 0.000000
vt 1.000000 0.000000
vt 1.000000 1.000000
f 414/414 415/415 416/416
v -0.044736 -1.144500 0.122912
v -0.084077 -1.144500 0.100199
v -0.084077 -0.882900 0.100199
v -0.044736 -0.882900 0.122912
vt 0.555556 0.000000
vt 0.611111 0.000000
vt 0.611111 1.000000
vt 0.555556 1.000000
f 417/417 418/418 419/419 420/420
v 0.000000 -1.144500 0.000000
v -0.084077 -1.144500 0.100199
v -0.044736 -1.144500 0.122912
vt 0.000000 0.000000
vt 1.000000 0.000000
vt 1.000000 1.000000
f 421/421 422/422 423/423
v 0.000000 -0.882900 0.000000
v -0.044736 -0.882900 0.122912
v -0.084077 -0.882900 0.100199
vt 0.000000 0.000000
vt 1.000000 0.000000
vt 1.000000 1.000000
f 424/424 425/425 426/426
v -0.084077 -1.144500 0.100199
v -0.113276 -1.144500 0.065400
v -0.113276 -0.882900 0.065400
v -0.084077 -0.882900 0.100199
vt 0.611111 0.000000
vt 0.666667 0.000000
vt 0.666667 1.000000
vt 0.611111 1.000000
f 427/427 428/428 429/429 430/430
v 0.000000 -1.144500 0.000000
v -0.113276 -1.144500 0.065400
v -0.084077 -1.144500 0.100199
vt 0.000000 0.000000
vt 1.000000 0.000000
vt 1.000000 1.000000
f 431/431 432/432 433/433
v 0.000000 -0.882900 0.000000
v -0.084077 -0.882900 0.100199
v -0.113276 -0.882900 0.065400
vt 0.000000 0.000000
vt 1.000000 0.000000
vt 1.000000 1.000000
f 434/434 435/435 436/436
v -0.113276 -1.144500 0.065400
v -0.128813 -1.144500 0.022713
v -0.128813 -0.882900 0.022713
v -0.113276 -0.882900 0.065400
vt 0.666667 0.000000
vt 0.722222 0.000000
vt 0.722222 1.000000
vt 0.666667 1.000000
f 437/437 438/438 439/439 440/440
v 0.000000 -1.144500 0.000000
v -0.128813 -1.144500 0.022713
v -0.113276 -1.144500 0.065400
vt 0.000000 0.000000
vt 1.000000 0.000000
vt 1.000000 1.000000
f 441/441 442/442 443/443
v 0.000000 -0.882900 0.000000
v -0.113276 -0.882900 0.065400
v -0.128813 -0.882900 0.022713
vt 0.000000 0.000000
vt 1.000000 0.000000
vt 1.000000 1.000000
f 444/444 445/445 446/446
v -0.128813 -1.144500 0.022713
v -0.128813 -1.144500 -0.022713
v -0.128813 -0.882900 -0.022713
v -0.128813 -0.882900 0.022713
vt 0.722222 0.000000
vt 0.777778 0.000000
vt 0.777778 1.000000
vt 0.722222 1.000000
f 447/447 448/448 449/449 450/450
v 0.000000 -1.144500 0.000000
v -0.128813 -1.144500 -0.022713
v -0.128813 -1.144500 0.022713
vt 0.000000 0.000000
vt 1.000000 0.000000
vt 1.000000 1.000000
f 451/451 452/452 453/453
v 0.000000 -0.882900 0.000000
v -0.128813 -0.882900 0.022713
v -0.128813 -0.882900 -0.022713
vt 0.000000 0.000000
vt 1.000000 0.000000
vt 1.000000 1.000000
f 454/454 455/455 456/456
v -0.128813 -1.144500 -0.022713
v -0.113276 -1.144500 -0.065400
v -0.113276 -0.882900 -0.065400
v -0.128813 -0.882900 -0.022713
vt 0.777778 0.000000
vt 0.833333 0.000000
vt 0.833333 1.000000
vt 0.777778 1.000000
f 457/457 458/458 459/459 460/460
v 0.000000 -1.144500 0.000000
v -0.113276 -1.144500 -0.065400
v -0.128813 -1.144500 -0.022713
vt 0.000000 0.000000
vt 1.000000 0.000000
vt 1.000000 1.000000
f 461/461 462/462 463/463
v 0.000000 -0.882900 0.000000
v -0.128813 -0.882900 -0.022713
v -0.113276 -0.882900 -0.065400
vt 0.000000 0.000000
vt 1.000000 0.000000
vt 1.000000 1.000000
f 464/464 465/465 466/466
v -0.113276 -1.144500 -0.065400
v -0.084077 -1.144500 -0.100199
v -0.084077 -0.882900 -0.100199
v -0.113276 -0.882900 -0.065400
vt 0.833333 0.000000
vt 0.888889 0.000000
vt 0.888889 1.000000
vt 0.833333 1.000000
f 467/467 468/468 469/469 470/470
v 0.000000 -1.144500 0.000000
v -0.084077 -1.144500 -0.100199
v -0.113276 -1.144500 -0.065400
vt 0.000000 0.000000
vt 1.000000 0.000000
vt 1.000000 1.000000
f 471/471 472/472 473/473
v 0.000000 -0.882900 0.000000
v -0.113276 -0.882900 -0.065400
v -0.084077 -0.882900 -0.100199
vt 0.000000 0.000000
vt 1.000000 0.000000
vt 1.000000 1.000000
f 474/474 475/475 476/476
v -0.084077 -1.144500 -0.100199
v -0.044736 -1.144500 -0.122912
v -0.044736 -0.882900 -0.122912
v -0.084077 -0.882900 -0.100199
vt 0.888889 0.000000
vt 0.944444 0.000000
vt 0.944444 1.000000
vt 0.888889 1.000000
f 477/477 478/478 479/479 480/480
v 0.000000 -1.144500 0.000000
v -0.044736 -1.144500 -0.122912
v -0.084077 -1.144500 -0.100199
vt 0.000000 0.000000
vt 1.000000 0.000000
vt 1.000000 1.000000
f 481/481 482/482 483/483
v 0.000000 -0.882900 0.000000
v -0.084077 -0.882900 -0.100199
v -0.044736 -0.882900 -0.122912
vt 0.000000 0.000000
vt 1.000000 0.000000
vt 1.000000 1.000000
f 484/484 485/485 486/486
v -0.044736 -1.144500 -0.122912
v -0.000000 -1.144500 -0.130800
v -0.000000 -0.882900 -0.130800
v -0.044736 -0.882900 -0.122912
vt 0.944444 0.000000
vt 1.000000 0.000000
vt 1.000000 1.000000
vt 0.944444 1.000000
f 487/487 488/488 489/489 490/490
v 0.000000 -1.144500 0.000000
v -0.000000 -1.144500 -0.130800
v -0.044736 -1.144500 -0.122912
vt 0.000000 0.000000
vt 1.000000 0.000000
vt 1.000000 1.000000
f 491/491 492/492 493/493
v 0.000000 -0.882900 0.000000
v -0.044736 -0.882900 -0.122912
v -0.000000 -0.882900 -0.130800
vt 0.000000 0.000000
vt 1.000000 0.000000
vt 1.000000 1.000000
f 494/494 495/495 496/496
v -0.828400 -0.130800 -0.021800
v 0.828400 -0.130800 -0.021800
v 0.828400 0.348800 -0.021800
v -0.828400 0.348800 -0.021800
vt 0.000000 0.000000
vt 1.000000 0.000000
vt 1.000000 1.000000
vt 0.000000 1.000000
f 497/497 498/498 499/499 500/500
v 0.828400 -0.130800 0.021800
v -0.828400 -0.130800 0.021800
v -0.828400 0.348800 0.021800
v 0.828400 0.348800 0.021800
vt 0.000000 0.000000
vt 1.000000 0.000000
vt 1.000000 1.000000
vt 0.000000 1.000000
f 501/501 502/502 503/503 504/504
v -0.828400 -0.130800 0.021800
v -0.828400 -0.130800 -0.021800
v -0.828400 0.348800 -0.021800
v -0.828400 0.348800 0.021800
vt 0.000000 0.000000
vt 1.000000 0.000000
vt 1.000000 1.000000
vt 0.000000 1.000000
f 505/505 506/506 507/507 508/508
v 0.828400 -0.130800 -0.021800
v 0.828400 -0.130800 0.021800
v 0.828400 0.348800 0.021800
v 0.828400 0.348800 -0.021800
vt 0.000000 0.000000
vt 1.000000 0.000000
vt 1.000000 1.000000
vt 0.000000 1.000000
f 509/509 510/510 511/511 512/512
v -0.828400 0.348800 -0.021800
v 0.828400 0.348800 -0.021800
v 0.828400 0.348800 0.021800
v -0.828400 0.348800 0.021800
vt 0.000000 0.000000
vt 1.000000 0.000000
vt 1.000000 1.000000
vt 0.000000 1.000000
f 513/513 514/514 515/515 516/516
v -0.828400 -0.130800 0.021800
v 0.828400 -0.130800 0.021800
v 0.828400 -0.130800 -0.021800
v -0.828400 -0.130800 -0.021800
vt 0.000000 0.000000
vt 1.000000 0.000000
vt 1.000000 1.000000
vt 0.000000 1.000000
f 517/517 518/518 519/519 520/520
v -0.021800 -0.795700 -0.348800
v 0.021800 -0.795700 -0.348800
v 0.021800 -0.359700 -0.348800
v -0.021800 -0.359700 -0.348800
vt 0.000000 0.000000
vt 1.000000 0.000000
vt 1.000000 1.000000
vt 0.000000 1.000000
f 521/521 522/522 523/523 524/524
v 0.021800 -0.795700 0.348800
v -0.021800 -0.795700 0.348800
v -0.021800 -0.359700 0.348800
v 0.021800 -0.359700 0.348800
vt 0.000000 0.000000
vt 1.000000 0.000000
vt 1.000000 1.000000
vt 0.000000 1.000000
f 525/525 526/526 527/527 528/528
v -0.021800 -0.795700 0.348800
v -0.021800 -0.795700 -0.348800
v -0.021800 -0.359700 -0.348800
v -0.021800 -0.359700 0.348800
vt 0.000000 0.000000
vt 1.000000 0.000000
vt 1.000000 1.000000
vt 0.000000 1.000000
f 529/529 530/530 531/531 532/532
v 0.021800 -0.795700 -0.348800
v 0.021800 -0.795700 0.348800
v 0.021800 -0.359700 0.348800
v 0.021800 -0.359700 -0.348800
vt 0.000000 0.000000
vt 1.000000 0.000000
vt 1.000000 1.000000
vt 0.000000 1.000000
f 533/533 534/534 535/535 536/536
v -0.021800 -0.359700 -0.348800
v 0.021800 -0.359700 -0.348800
v 0.021800 -0.359700 0.348800
v -0.021800 -0.359700 0.348800
vt 0.000000 0.000000
vt 1.000000 0.000000
vt 1.000000 1.000000
vt 0.000000 1.000000
f 537/537 538/538 539/539 540/540
v -0.021800 -0.795700 0.348800
v 0.021800 -0.795700 0.348800
v 0.021800 -0.795700 -0.348800
v -0.021800 -0.795700 -0.348800
vt 0.000000 0.000000
vt 1.000000 0.000000
vt 1.000000 1.000000
vt 0.000000 1.000000
f 541/541 542/542 543/543 544/544
v -0.021800 -0.752100 0.130800
v 0.021800 -0.752100 0.130800
v 0.021800 -0.228900 0.130800
v -0.021800 -0.228900 0.130800
vt 0.000000 0.000000
vt 1.000000 0.000000
vt 1.000000 1.000000
vt 0.000000 1.000000
f 545/545 546/546 547/547 548/548
v 0.021800 -0.752100 0.392400
v -0.021800 -0.752100 0.392400
v -0.021800 -0.228900 0.392400
v 0.021800 -0.228900 0.392400
vt 0.000000 0.000000
vt 1.000000 0.000000
vt 1.000000 1.000000
vt 0.000000 1.000000
f 549/549 550/550 551/551 552/552
v -0.021800 -0.752100 0.392400
v -0.021800 -0.752100 0.130800
v -0.021800 -0.228900 0.130800
v -0.021800 -0.228900 0.392400
vt 0.000000 0.000000
vt 1.000000 0.000000
vt 1.000000 1.000000
vt 0.000000 1.000000
f 553/553 554/554 555/555 556/556
v 0.021800 -0.752100 0.130800
v 0.021800 -0.752100 0.392400
v 0.021800 -0.228900 0.392400
v 0.021800 -0.228900 0.130800
vt 0.000000 0.000000
vt 1.000000 0.000000
vt 1.000000 1.000000
vt 0.000000 1.000000
f 557/557 558/558 559/559 560/560
v -0.021800 -0.228900 0.130800
v 0.021800 -0.228900 0.130800
v 0.021800 -0.228900 0.392400
v -0.021800 -0.228900 0.392400
vt 0.000000 0.000000
vt 1.000000 0.000000
vt 1.000000 1.000000
vt 0.000000 1.000000
f 561/561 562/562 563/563 564/564
v -0.021800 -0.752100 0.392400
v 0.021800 -0.752100 0.392400
v 0.021800 -0.752100 0.130800
v -0.021800 -0.752100 0.130800
vt 0.000000 0.000000
vt 1.000000 0.000000
vt 1.000000 1.000000
vt 0.000000 1.000000
f 565/565 566/566 567/567 568/568
v -0.098100 -0.926500 -0.392400
v 0.098100 -0.926500 -0.392400
v 0.098100 -0.228900 -0.392400
v -0.098100 -0.228900 -0.392400
vt 0.000000 0.000000
vt 1.000000 0.000000
vt 1.000000 1.000000
vt 0.000000 1.000000
f 569/569 570/570 571/571 572/572
v 0.098100 -0.926500 -0.174400
v -0.098100 -0.926500 -0.174400
v -0.098100 -0.228900 -0.174400
v 0.098100 -0.228900 -0.174400
vt 0.000000 0.000000
vt 1.000000 0.000000
vt 1.000000 1.000000
vt 0.000000 1.000000
f 573/573 574/574 575/575 576/576
v -0.098100 -0.926500 -0.174400
v -0.098100 -0.926500 -0.392400
v -0.098100 -0.228900 -0.392400
v -0.098100 -0.228900 -0.174400
vt 0.000000 0.000000
vt 1.000000 0.000000
vt 1.000000 1.000000
vt 0.000000 1.000000
f 577/577 578/578 579/579 580/580
v 0.098100 -0.926500 -0.392400
v 0.098100 -0.926500 -0.174400
v 0.098100 -0.228900 -0.174400
v 0.098100 -0.228900 -0.392400
vt 0.000000 0.000000
vt 1.000000 0.000000
vt 1.000000 1.000000
vt 0.000000 1.000000
f 581/581 582/582 583/583 584/584
v -0.098100 -0.228900 -0.392400
v 0.098100 -0.228900 -0.392400
v 0.098100 -0.228900 -0.174400
v -0.098100 -0.228900 -0.174400
vt 0.000000 0.000000
vt 1.000000 0.000000
vt 1.000000 1.000000
vt 0.000000 1.000000
f 585/585 586/586 587/587 588/588
v -0.098100 -0.926500 -0.174400
v 0.098100 -0.926500 -0.174400
v 0.098100 -0.926500 -0.392400
v -0.098100 -0.926500 -0.392400
vt 0.000000 0.000000
vt 1.000000 0.000000
vt 1.000000 1.000000
vt 0.000000 1.000000
f 589/589 590/590 591/591 592/592
v 0.000000 -0.882900 -0.322640
v 0.026484 -0.882900 -0.316595
v 0.026484 -0.272500 -0.316595
v 0.000000 -0.272500 -0.322640
vt 0.000000 0.000000
vt 0.071429 0.000000
vt 0.071429 1.000000
vt 0.000000 1.000000
f 593/593 594/594 595/595 596/596
v 0.000000 -0.882900 -0.261600
v 0.026484 -0.882900 -0.316595
v 0.000000 -0.882900 -0.322640
vt 0.000000 0.000000
vt 1.000000 0.000000
vt 1.000000 1.000000
f 597/597 598/598 599/599
v 0.000000 -0.272500 -0.261600
v 0.000000 -0.272500 -0.322640
v 0.026484 -0.272500 -0.316595
vt 0.000000 0.000000
vt 1.000000 0.000000
vt 1.000000 1.000000
f 600/600 601/601 602/602
v 0.026484 -0.882900 -0.316595
v 0.047723 -0.882900 -0.299658
v 0.047723 -0.272500 -0.299658
v 0.026484 -0.272500 -0.316595
vt 0.071429 0.000000
vt 0.142857 0.000000
vt 0.142857 1.000000
vt 0.071429 1.000000
f 603/603 604/604 605/605 606/606
v 0.000000 -0.882900 -0.261600
v 0.047723 -0.882900 -0.299658
v 0.026484 -0.882900 -0.316595
vt 0.000000 0.000000
vt 1.000000 0.000000
vt 1.000000 1.000000
f 607/607 608/608 609/609
v 0.000000 -0.272500 -0.261600
v 0.026484 -0.272500 -0.316595
v 0.047723 -0.272500 -0.299658
vt 0.000000 0.000000
vt 1.000000 0.000000
vt 1.000000 1.000000
f 610/610 611/611 612/612
v 0.047723 -0.882900 -0.299658
v 0.059510 -0.882900 -0.275183
v 0.059510 -0.272500 -0.275183
v 0.047723 -0.272500 -0.299658
vt 0.142857 0.000000
vt 0.214286 0.000000
vt 0.214286 1.000000
vt 0.142857 1.000000
f 613/613 614/614 615/615 616/616
v 0.000000 -0.882900 -0.261600
v 0.059510 -0.882900 -0.275183
v 0.047723 -0.882900 -0.299658
vt 0.000000 0.000000
vt 1.000000 0.000000
vt 1.000000 1.000000
f 617/617 618/618 619/619
v 0.000000 -0.272500 -0.261600
v 0.047723 -0.272500 -0.299658
v 0.059510 -0.272500 -0.275183
vt 0.000000 0.000000
vt 1.000000 0.000000
vt 1.000000 1.000000
f 620/620 621/621 622/622
v 0.059510 -0.882900 -0.275183
v 0.059510 -0.882900 -0.248017
v 0.059510 -0.272500 -0.248017
v 0.059510 -0.272500 -0.275183
vt 0.214286 0.000000
vt 0.285714 0.000000
vt 0.285714 1.000000
vt 0.214286 1.000000
f 623/623 624/624 625/625 626/626
v 0.000000 -0.882900 -0.261600
v 0.059510 -0.882900 -0.248017
v 0.059510 -0.882900 -0.275183
vt 0.000000 0.000000
vt 1.000000 0.000000
vt 1.000000 1.000000
f 627/627 628/628 629/629
v 0.000000 -0.272500 -0.261600
v 0.059510 -0.272500 -0.275183
v 0.059510 -0.272500 -0.248017
vt 0.000000 0.000000
vt 1.000000 0.000000
vt 1.000000 1.000000
f 630/630 631/631 632/632
v 0.059510 -0.882900 -0.248017
v 0.047723 -0.882900 -0.223542
v 0.047723 -0.272500 -0.223542
v 0.059510 -0.272500 -0.248017
vt 0.285714 0.000000
vt 0.357143 0.000000
vt 0.357143 1.000000
vt 0.285714 1.000000
f 633/633 634/634 635/635 636/636
v 0.000000 -0.882900 -0.261600
v 0.047723 -0.882900 -0.223542
v 0.059510 -0.882900 -0.248017
vt 0.000000 0.000000
vt 1.000000 0.000000
vt 1.000000 1.000000
f 637/637 638/638 639/639
v 0.000000 -0.272500 -0.261600
v 0.059510 -0.272500 -0.248017
v 0.047723 -0.272500 -0.223542
vt 0.000000 0.000000
vt 1.000000 0.000000
vt 1.000000 1.000000
f 640/640 641/641 642/642
v 0.047723 -0.882900 -0.223542
v 0.026484 -0.882900 -0.206605
v 0.026484 -0.272500 -0.206605
v 0.047723 -0.272500 -0.223542
vt 0.357143 0.000000
vt 0.428571 0.000000
vt 0.428571 1.000000
vt 0.357143 1.000000
f 643/643 644/644 645/645 646/646
v 0.000000 -0.882900 -0.261600
v 0.026484 -0.882900 -0.206605
v 0.047723 -0.882900 -0.223542
vt 0.000000 0.000000
vt 1.000000 0.000000
vt 1.000000 1.000000
f 647/647 648/648 649/649
v 0.000000 -0.272500 -0.261600
v 0.047723 -0.272500 -0.223542
v 0.026484 -0.272500 -0.206605
vt 0.000000 0.000000
vt 1.000000 0.000000
vt 1.000000 1.000000
f 650/650 651/651 652/652
v 0.026484 -0.882900 -0.206605
v 0.000000 -0.882900 -0.200560
v 0.000000 -0.272500 -0.200560
v 0.026484 -0.272500 -0.206605
vt 0.428571 0.000000
vt 0.500000 0.000000
vt 0.500000 1.000000
vt 0.428571 1.000000
f 653/653 654/654 655/655 656/656
v 0.000000 -0.882900 -0.261600
v 0.000000 -0.882900 -0.200560
v 0.026484 -0.882900 -0.206605
vt 0.000000 0.000000
vt 1.000000 0.000000
vt 1.000000 1.000000
f 657/657 658/658 659/659
v 0.000000 -0.272500 -0.261600
v 0.026484 -0.272500 -0.206605
v 0.000000 -0.272500 -0.200560
vt 0.000000 0.000000
vt 1.000000 0.000000
vt 1.000000 1.000000
f 660/660 661/661 662/662
v 0.000000 -0.882900 -0.200560
v -0.026484 -0.882900 -0.206605
v -0.026484 -0.272500 -0.206605
v 0.000000 -0.272500 -0.200560
vt 0.500000 0.000000
vt 0.571429 0.000000
vt 0.571429 1.000000
vt 0.500000 1.000000
f 663/663 664/664 665/665 666/666
v 0.000000 -0.882900 -0.261600
v -0.026484 -0.882900 -0.206605
v 0.000000 -0.882900 -0.200560
vt 0.000000 0.000000
vt 1.000000 0.000000
vt 1.000000 1.000000
f 667/667 668/668 669/669
v 0.000000 -0.272500 -0.261600
v 0.000000 -0.272500 -0.200560
v -0.026484 -0.272500 -0.206605
vt 0.000000 0.000000
vt 1.000000 0.000000
vt 1.000000 1.000000
f 670/670 671/671 672/672
v -0.026484 -0.882900 -0.206605
v -0.047723 -0.882900 -0.223542
v -0.047723 -0.272500 -0.223542
v -0.026484 -0.272500 -0.206605
vt 0.571429 0.000000
vt 0.642857 0.000000
vt 0.642857 1.000000
vt 0.571429 1.000000
f 673/673 674/674 675/675 676/676
v 0.000000 -0.882900 -0.261600
v -0.047723 -0.882900 -0.223542
v -0.026484 -0.882900 -0.206605
vt 0.000000 0.000000
vt 1.000000 0.000000
vt 1.000000 1.000000
f 677/677 678/678 679/679
v 0.000000 -0.272500 -0.261600
v -0.026484 -0.272500 -0.206605
v -0.047723 -0.272500 -0.223542
vt 0.000000 0.000000
vt 1.000000 0.000000
vt 1.000000 1.000000
f 680/680 681/681 682/682
v -0.047723 -0.882900 -0.223542
v -0.059510 -0.882900 -0.248017
v -0.059510 -0.272500 -0.248017
v -0.047723 -0.272500 -0.223542
vt 0.642857 0.000000
vt 0.714286 0.000000
vt 0.714286 1.000000
vt 0.642857 1.000000
f 683/683 684/684 685/685 686/686
v 0.000000 -0.882900 -0.261600
v -0.059510 -0.882900 -0.248017
v -0.047723 -0.882900 -0.223542
vt 0.000000 0.000000
vt 1.000000 0.000000
vt 1.000000 1.000000
f 687/687 688/688 689/689
v 0.000000 -0.272500 -0.261600
v -0.047723 -0.272500 -0.223542
v -0.059510 -0.272500 -0.248017
vt 0.000000 0.000000
vt 1.000000 0.000000
vt 1.000000 1.000000
f 690/690 691/691 692/692
v -0.059510 -0.882900 -0.248017
v -0.059510 -0.882900 -0.275183
v -0.059510 -0.272500 -0.275183
v -0.059510 -0.272500 -0.248017
vt 0.714286 0.000000
vt 0.785714 0.000000
vt 0.785714 1.000000
vt 0.714286 1.000000
f 693/693 694/694 695/695 696/696
v 0.000000 -0.882900 -0.261600
v -0.059510 -0.882900 -0.275183
v -0.059510 -0.882900 -0.248017
vt 0.000000 0.000000
vt 1.000000 0.000000
vt 1.000000 1.000000
f 697/697 698/698 699/699
v 0.000000 -0.272500 -0.261600
v -0.059510 -0.272500 -0.248017
v -0.059510 -0.272500 -0.275183
vt 0.000000 0.000000
vt 1.000000 0.000000
vt 1.000000 1.000000
f 700/700 701/701 702/702
v -0.059510 -0.882900 -0.275183
v -0.047723 -0.882900 -0.299658
v -0.047723 -0.272500 -0.299658
v -0.059510 -0.272500 -0.275183
vt 0.785714 0.000000
vt 0.857143 0.000000
vt 0.857143 1.000000
vt 0.785714 1.000000
f 703/703 704/704 705/705 706/706
v 0.000000 -0.882900 -0.261600
v -0.047723 -0.882900 -0.299658
v -0.059510 -0.882900 -0.275183
vt 0.000000 0.000000
vt 1.000000 0.000000
vt 1.000000 1.000000
f 707/707 708/708 709/709
v 0.000000 -0.272500 -0.261600
v -0.059510 -0.272500 -0.275183
v -0.047723 -0.272500 -0.299658
vt 0.000000 0.000000
vt 1.000000 0.000000
vt 1.000000 1.000000
f 710/710 711/711 712/712
v -0.047723 -0.882900 -0.299658
v -0.026484 -0.882900 -0.316595
v -0.026484 -0.272500 -0.316595
v -0.047723 -0.272500 -0.299658
vt 0.857143 0.000000
vt 0.928571 0.000000
vt 0.928571 1.000000
vt 0.857143 1.000000
f 713/713 714/714 715/715 716/716
v 0.000000 -0.882900 -0.261600
v -0.026484 -0.882900 -0.316595
v -0.047723 -0.882900 -0.299658
vt 0.000000 0.000000
vt 1.000000 0.000000
vt 1.000000 1.000000
f 717/717 718/718 719/719
v 0.000000 -0.272500 -0.261600
v -0.047723 -0.272500 -0.299658
v -0.026484 -0.272500 -0.316595
vt 0.000000 0.000000
vt 1.000000 0.000000
vt 1.000000 1.000000
f 720/720 721/721 722/722
v -0.026484 -0.882900 -0.316595
v -0.000000 -0.882900 -0.322640
v -0.000000 -0.272500 -0.322640
v -0.026484 -0.272500 -0.316595
vt 0.928571 0.000000
vt 1.000000 0.000000
vt 1.000000 1.000000
vt 0.928571 1.000000
f 723/723 724/724 725/725 726/726
v 0.000000 -0.882900 -0.261600
v -0.000000 -0.882900 -0.322640
v -0.026484 -0.882900 -0.316595
vt 0.000000 0.000000
vt 1.000000 0.000000
vt 1.000000 1.000000
f 727/727 728/728 729/729
v 0.000000 -0.272500 -0.261600
v -0.026484 -0.272500 -0.316595
v -0.000000 -0.272500 -0.322640
vt 0.000000 0.000000
vt 1.000000 0.000000
vt 1.000000 1.000000
f 730/730 731/731 732/732
