mtllib cluster_bomb.mtl
o cluster_bomb
s 1
usemtl yellow
v 0.000000 -0.160000 -0.070000
v 0.026788 -0.160000 -0.064672
v 0.026788 0.180000 -0.064672
v 0.000000 0.180000 -0.070000
vt 0.000000 0.000000
vt 0.062500 0.000000
vt 0.062500 1.000000
vt 0.000000 1.000000
f 1/1 2/2 3/3 4/4
v 0.000000 -0.160000 0.000000
v 0.026788 -0.160000 -0.064672
v 0.000000 -0.160000 -0.070000
vt 0.000000 0.000000
vt 1.000000 0.000000
vt 1.000000 1.000000
f 5/5 6/6 7/7
v 0.000000 0.180000 0.000000
v 0.000000 0.180000 -0.070000
v 0.026788 0.180000 -0.064672
vt 0.000000 0.000000
vt 1.000000 0.000000
vt 1.000000 1.000000
f 8/8 9/9 10/10
v 0.026788 -0.160000 -0.064672
v 0.049497 -0.160000 -0.049497
v 0.049497 0.180000 -0.049497
v 0.026788 0.180000 -0.064672
vt 0.062500 0.000000
vt 0.125000 0.000000
vt 0.125000 1.000000
vt 0.062500 1.000000
f 11/11 12/12 13/13 14/14
v 0.000000 -0.160000 0.000000
v 0.049497 -0.160000 -0.049497
v 0.026788 -0.160000 -0.064672
vt 0.000000 0.000000
vt 1.000000 0.000000
vt 1.000000 1.000000
f 15/15 16/16 17/17
v 0.000000 0.180000 0.000000
v 0.026788 0.180000 -0.064672
v 0.049497 0.180000 -0.049497
vt 0.000000 0.000000
vt 1.000000 0.000000
vt 1.000000 1.000000
f 18/18 19/19 20/20
v 0.049497 -0.160000 -0.049497
v 0.064672 -0.160000 -0.026788
v 0.064672 0.180000 -0.026788
v 0.049497 0.180000 -0.049497
vt 0.125000 0.000000
vt 0.187500 0.000000
vt 0.187500 1.000000
vt 0.125000 1.000000
f 21/21 22/22 23/23 24/24
v 0.000000 -0.160000 0.000000
v 0.064672 -0.160000 -0.026788
v 0.049497 -0.160000 -0.049497
vt 0.000000 0.000000
vt 1.000000 0.000000
vt 1.000000 1.000000
f 25/25 26/26 27/27
v 0.000000 0.180000 0.000000
v 0.049497 0.180000 -0.049497
v 0.064672 0.180000 -0.026788
vt 0.000000 0.000000
vt 1.000000 0.000000
vt 1.000000 1.000000
f 28/28 29/29 30/30
v 0.064672 -0.160000 -0.026788
v 0.070000 -0.160000 -0.000000
v 0.070000 0.180000 -0.000000
v 0.064672 0.180000 -0.026788
vt 0.187500 0.000000
vt 0.250000 0.000000
vt 0.250000 1.000000
vt 0.187500 1.000000
f 31/31 32/32 33/33 34/34
v 0.000000 -0.160000 0.000000
v 0.070000 -0.160000 -0.000000
v 0.064672 -0.160000 -0.026788
vt 0.000000 0.000000
vt 1.000000 0.000000
vt 1.000000 1.000000
f 35/35 36/36 37/37
v 0.000000 0.180000 0.000000
v 0.064672 0.180000 -0.026788
v 0.070000 0.180000 -0.000000
vt 0.000000 0.000000
vt 1.000000 0.000000
vt 1.000000 1.000000
f 38/38 39/39 40/40
v 0.070000 -0.160000 -0.000000
v 0.064672 -0.160000 0.026788
v 0.064672 0.180000 0.026788
v 0.070000 0.180000 -0.000000
vt 0.250000 0.000000
vt 0.312500 0.000000
vt 0.312500 1.000000
vt 0.250000 1.000000
f 41/41 42/42 43/43 44/44
v 0.000000 -0.160000 0.000000
v 0.064672 -0.160000 0.026788
v 0.070000 -0.160000 -0.000000
vt 0.000000 0.000000
vt 1.000000 0.000000
vt 1.000000 1.000000
f 45/45 46/46 47/47
v 0.000000 0.180000 0.000000
v 0.070000 0.180000 -0.000000
v 0.064672 0.180000 0.026788
vt 0.000000 0.000000
vt 1.000000 0.000000
vt 1.000000 1.000000
f 48/48 49/49 50/50
v 0.064672 -0.160000 0.026788
v 0.049497 -0.160000 0.049497
v 0.049497 0.180000 0.049497
v 0.064672 0.180000 0.026788
vt 0.312500 0.000000
vt 0.375000 0.000000
vt 0.375000 1.000000
vt 0.312500 1.000000
f 51/51 52/52 53/53 54/54
v 0.000000 -0.160000 0.000000
v 0.049497 -0.160000 0.049497
v 0.064672 -0.160000 0.026788
vt 0.000000 0.000000
vt 1.000000 0.000000
vt 1.000000 1.000000
f 55/55 56/56 57/57
v 0.000000 0.180000 0.000000
v 0.064672 0.180000 0.026788
v 0.049497 0.180000 0.049497
vt 0.000000 0.000000
vt 1.000000 0.000000
vt 1.000000 1.000000
f 58/58 59/59 60/60
v 0.049497 -0.160000 0.049497
v 0.026788 -0.160000 0.064672
v 0.026788 0.180000 0.064672
v 0.049497 0.180000 0.049497
vt 0.375000 0.000000
vt 0.437500 0.000000
vt 0.437500 1.000000
vt 0.375000 1.000000
f 61/61 62/62 63/63 64/64
v 0.000000 -0.160000 0.000000
v 0.026788 -0.160000 0.064672
v 0.049497 -0.160000 0.049497
vt 0.000000 0.000000
vt 1.000000 0.000000
vt 1.000000 1.000000
f 65/65 66/66 67/67
v 0.000000 0.180000 0.000000
v 0.049497 0.180000 0.049497
v 0.026788 0.180000 0.064672
vt 0.000000 0.000000
vt 1.000000 0.000000
vt 1.000000 1.000000
f 68/68 69/69 70/70
v 0.026788 -0.160000 0.064672
v 0.000000 -0.160000 0.070000
v 0.000000 0.180000 0.070000
v 0.026788 0.180000 0.064672
vt 0.437500 0.000000
vt 0.500000 0.000000
vt 0.500000 1.000000
vt 0.437500 1.000000
f 71/71 72/72 73/73 74/74
v 0.000000 -0.160000 0.000000
v 0.000000 -0.160000 0.070000
v 0.026788 -0.160000 0.064672
vt 0.000000 0.000000
vt 1.000000 0.000000
vt 1.000000 1.000000
f 75/75 76/76 77/77
v 0.000000 0.180000 0.000000
v 0.026788 0.180000 0.064672
v 0.000000 0.180000 0.070000
vt 0.000000 0.000000
vt 1.000000 0.000000
vt 1.000000 1.000000
f 78/78 79/79 80/80
v 0.000000 -0.160000 0.070000
v -0.026788 -0.160000 0.064672
v -0.026788 0.180000 0.064672
v 0.000000 0.180000 0.070000
vt 0.500000 0.000000
vt 0.562500 0.000000
vt 0.562500 1.000000
vt 0.500000 1.000000
f 81/81 82/82 83/83 84/84
v 0.000000 -0.160000 0.000000
v -0.026788 -0.160000 0.064672
v 0.000000 -0.160000 0.070000
vt 0.000000 0.000000
vt 1.000000 0.000000
vt 1.000000 1.000000
f 85/85 86/86 87/87
v 0.000000 0.180000 0.000000
v 0.000000 0.180000 0.070000
v -0.026788 0.180000 0.064672
vt 0.000000 0.000000
vt 1.000000 0.000000
vt 1.000000 1.000000
f 88/88 89/89 90/90
v -0.026788 -0.160000 0.064672
v -0.049497 -0.160000 0.049497
v -0.049497 0.180000 0.049497
v -0.026788 0.180000 0.064672
vt 0.562500 0.000000
vt 0.625000 0.000000
vt 0.625000 1.000000
vt 0.562500 1.000000
f 91/91 92/92 93/93 94/94
v 0.000000 -0.160000 0.000000
v -0.049497 -0.160000 0.049497
v -0.026788 -0.160000 0.064672
vt 0.000000 0.000000
vt 1.000000 0.000000
vt 1.000000 1.000000
f 95/95 96/96 97/97
v 0.000000 0.180000 0.000000
v -0.026788 0.180000 0.064672
v -0.049497 0.180000 0.049497
vt 0.000000 0.000000
vt 1.000000 0.000000
vt 1.000000 1.000000
f 98/98 99/99 100/100
v -0.049497 -0.160000 0.049497
v -0.064672 -0.160000 0.026788
v -0.064672 0.180000 0.026788
v -0.049497 0.180000 0.049497
vt 0.625000 0.000000
vt 0.687500 0.000000
vt 0.687500 1.000000
vt 0.625000 1.000000
f 101/101 102/102 103/103 104/104
v 0.000000 -0.160000 0.000000
v -0.064672 -0.160000 0.026788
v -0.049497 -0.160000 0.049497
vt 0.000000 0.000000
vt 1.000000 0.000000
vt 1.000000 1.000000
f 105/105 106/106 107/107
v 0.000000 0.180000 0.000000
v -0.049497 0.180000 0.049497
v -0.064672 0.180000 0.026788
vt 0.000000 0.000000
vt 1.000000 0.000000
vt 1.000000 1.000000
f 108/108 109/109 110/110
v -0.064672 -0.160000 0.026788
v -0.070000 -0.160000 0.000000
v -0.070000 0.180000 0.000000
v -0.064672 0.180000 0.026788
vt 0.687500 0.000000
vt 0.750000 0.000000
vt 0.750000 1.000000
vt 0.687500 1.000000
f 111/111 112/112 113/113 114/114
v 0.000000 -0.160000 0.000000
v -0.070000 -0.160000 0.000000
v -0.064672 -0.160000 0.026788
vt 0.000000 0.000000
vt 1.000000 0.000000
vt 1.000000 1.000000
f 115/115 116/116 117/117
v 0.000000 0.180000 0.000000
v -0.064672 0.180000 0.026788
v -0.070000 0.180000 0.000000
vt 0.000000 0.000000
vt 1.000000 0.000000
vt 1.000000 1.000000
f 118/118 119/119 120/120
v -0.070000 -0.160000 0.000000
v -0.064672 -0.160000 -0.026788
v -0.064672 0.180000 -0.026788
v -0.070000 0.180000 0.000000
vt 0.750000 0.000000
vt 0.812500 0.000000
vt 0.812500 1.000000
vt 0.750000 1.000000
f 121/121 122/122 123/123 124/124
v 0.000000 -0.160000 0.000000
v -0.064672 -0.160000 -0.026788
v -0.070000 -0.160000 0.000000
vt 0.000000 0.000000
vt 1.000000 0.000000
vt 1.000000 1.000000
f 125/125 126/126 127/127
v 0.000000 0.180000 0.000000
v -0.070000 0.180000 0.000000
v -0.064672 0.180000 -0.026788
vt 0.000000 0.000000
vt 1.000000 0.000000
vt 1.000000 1.000000
f 128/128 129/129 130/130
v -0.064672 -0.160000 -0.026788
v -0.049497 -0.160000 -0.049497
v -0.049497 0.180000 -0.049497
v -0.064672 0.180000 -0.026788
vt 0.812500 0.000000
vt 0.875000 0.000000
vt 0.875000 1.000000
vt 0.812500 1.000000
f 131/131 132/132 133/133 134/134
v 0.000000 -0.160000 0.000000
v -0.049497 -0.160000 -0.049497
v -0.064672 -0.160000 -0.026788
vt 0.000000 0.000000
vt 1.000000 0.000000
vt 1.000000 1.000000
f 135/135 136/136 137/137
v 0.000000 0.180000 0.000000
v -0.064672 0.180000 -0.026788
v -0.049497 0.180000 -0.049497
vt 0.000000 0.000000
vt 1.000000 0.000000
vt 1.000000 1.000000
f 138/138 139/139 140/140
v -0.049497 -0.160000 -0.049497
v -0.026788 -0.160000 -0.064672
v -0.026788 0.180000 -0.064672
v -0.049497 0.180000 -0.049497
vt 0.875000 0.000000
vt 0.937500 0.000000
vt 0.937500 1.000000
vt 0.875000 1.000000
f 141/141 142/142 143/143 144/144
v 0.000000 -0.160000 0.000000
v -0.026788 -0.160000 -0.064672
v -0.049497 -0.160000 -0.049497
vt 0.000000 0.000000
vt 1.000000 0.000000
vt 1.000000 1.000000
f 145/145 146/146 147/147
v 0.000000 0.180000 0.000000
v -0.049497 0.180000 -0.049497
v -0.026788 0.180000 -0.064672
vt 0.000000 0.000000
vt 1.000000 0.000000
vt 1.000000 1.000000
f 148/148 149/149 150/150
v -0.026788 -0.160000 -0.064672
v -0.000000 -0.160000 -0.070000
v -0.000000 0.180000 -0.070000
v -0.026788 0.180000 -0.064672
vt 0.937500 0.000000
vt 1.000000 0.000000
vt 1.000000 1.000000
vt 0.937500 1.000000
f 151/151 152/152 153/153 154/154
v 0.000000 -0.160000 0.000000
v -0.000000 -0.160000 -0.070000
v -0.026788 -0.160000 -0.064672
vt 0.000000 0.000000
vt 1.000000 0.000000
vt 1.000000 1.000000
f 155/155 156/156 157/157
v 0.000000 0.180000 0.000000
v -0.026788 0.180000 -0.064672
v -0.000000 0.180000 -0.070000
vt 0.000000 0.000000
vt 1.000000 0.000000
vt 1.000000 1.000000
f 158/158 159/159 160/160
usemtl dark
v 0.000000 0.180000 -0.070000
v 0.030372 0.180000 -0.063068
v 0.000434 0.320000 -0.000901
v 0.000000 0.320000 -0.001000
vt 0.000000 0.000000
vt 0.071429 0.000000
vt 0.071429 1.000000
vt 0.000000 1.000000
f 161/161 162/162 163/163 164/164
v 0.000000 0.180000 0.000000
v 0.030372 0.180000 -0.063068
v 0.000000 0.180000 -0.070000
vt 0.000000 0.000000
vt 1.000000 0.000000
vt 1.000000 1.000000
f 165/165 166/166 167/167
v 0.000000 0.320000 0.000000
v 0.000000 0.320000 -0.001000
v 0.000434 0.320000 -0.000901
vt 0.000000 0.000000
vt 1.000000 0.000000
vt 1.000000 1.000000
f 168/168 169/169 170/170
v 0.030372 0.180000 -0.063068
v 0.054728 0.180000 -0.043644
v 0.000782 0.320000 -0.000623
v 0.000434 0.320000 -0.000901
vt 0.071429 0.000000
vt 0.142857 0.000000
vt 0.142857 1.000000
vt 0.071429 1.000000
f 171/171 172/172 173/173 174/174
v 0.000000 0.180000 0.000000
v 0.054728 0.180000 -0.043644
v 0.030372 0.180000 -0.063068
vt 0.000000 0.000000
vt 1.000000 0.000000
vt 1.000000 1.000000
f 175/175 176/176 177/177
v 0.000000 0.320000 0.000000
v 0.000434 0.320000 -0.000901
v 0.000782 0.320000 -0.000623
vt 0.000000 0.000000
vt 1.000000 0.000000
vt 1.000000 1.000000
f 178/178 179/179 180/180
v 0.054728 0.180000 -0.043644
v 0.068245 0.180000 -0.015576
v 0.000975 0.320000 -0.000223
v 0.000782 0.320000 -0.000623
vt 0.142857 0.000000
vt 0.214286 0.000000
vt 0.214286 1.000000
vt 0.142857 1.000000
f 181/181 182/182 183/183 184/184
v 0.000000 0.180000 0.000000
v 0.068245 0.180000 -0.015576
v 0.054728 0.180000 -0.043644
vt 0.000000 0.000000
vt 1.000000 0.000000
vt 1.000000 1.000000
f 185/185 186/186 187/187
v 0.000000 0.320000 0.000000
v 0.000782 0.320000 -0.000623
v 0.000975 0.320000 -0.000223
vt 0.000000 0.000000
vt 1.000000 0.000000
vt 1.000000 1.000000
f 188/188 189/189 190/190
v 0.068245 0.180000 -0.015576
v 0.068245 0.180000 0.015576
v 0.000975 0.320000 0.000223
v 0.000975 0.320000 -0.000223
vt 0.214286 0.000000
vt 0.285714 0.000000
vt 0.285714 1.000000
vt 0.214286 1.000000
f 191/191 192/192 193/193 194/194
v 0.000000 0.180000 0.000000
v 0.068245 0.180000 0.015576
v 0.068245 0.180000 -0.015576
vt 0.000000 0.000000
vt 1.000000 0.000000
vt 1.000000 1.000000
f 195/195 196/196 197/197
v 0.000000 0.320000 0.000000
v 0.000975 0.320000 -0.000223
v 0.000975 0.320000 0.000223
vt 0.000000 0.000000
vt 1.000000 0.000000
vt 1.000000 1.000000
f 198/198 199/199 200/200
v 0.068245 0.180000 0.015576
v 0.054728 0.180000 0.043644
v 0.000782 0.320000 0.000623
v 0.000975 0.320000 0.000223
vt 0.285714 0.000000
vt 0.357143 0.000000
vt 0.357143 1.000000
vt 0.285714 1.000000
f 201/201 202/202 203/203 204/204
v 0.000000 0.180000 0.000000
v 0.054728 0.180000 0.043644
v 0.068245 0.180000 0.015576
vt 0.000000 0.000000
vt 1.000000 0.000000
vt 1.000000 1.000000
f 205/205 206/206 207/207
v 0.000000 0.320000 0.000000
v 0.000975 0.320000 0.000223
v 0.000782 0.320000 0.000623
vt 0.000000 0.000000
vt 1.000000 0.000000
vt 1.000000 1.000000
f 208/208 209/209 210/210
v 0.054728 0.180000 0.043644
v 0.030372 0.180000 0.063068
v 0.000434 0.320000 0.000901
v 0.000782 0.320000 0.000623
vt 0.357143 0.000000
vt 0.428571 0.000000
vt 0.428571 1.000000
vt 0.357143 1.000000
f 211/211 212/212 213/213 214/214
v 0.000000 0.180000 0.000000
v 0.030372 0.180000 0.063068
v 0.054728 0.180000 0.043644
vt 0.000000 0.000000
vt 1.000000 0.000000
vt 1.000000 1.000000
f 215/215 216/216 217/217
v 0.000000 0.320000 0.000000
v 0.000782 0.320000 0.000623
v 0.000434 0.320000 0.000901
vt 0.000000 0.000000
vt 1.000000 0.000000
vt 1.000000 1.000000
f 218/218 219/219 220/220
v 0.030372 0.180000 0.063068
v 0.000000 0.180000 0.070000
v 0.000000 0.320000 0.001000
v 0.000434 0.320000 0.000901
vt 0.428571 0.000000
vt 0.500000 0.000000
vt 0.500000 1.000000
vt 0.428571 1.000000
f 221/221 222/222 223/223 224/224
v 0.000000 0.180000 0.000000
v 0.000000 0.180000 0.070000
v 0.030372 0.180000 0.063068
vt 0.000000 0.000000
vt 1.000000 0.000000
vt 1.000000 1.000000
f 225/225 226/226 227/227
v 0.000000 0.320000 0.000000
v 0.000434 0.320000 0.000901
v 0.000000 0.320000 0.001000
vt 0.000000 0.000000
vt 1.000000 0.000000
vt 1.000000 1.000000
f 228/228 229/229 230/230
v 0.000000 0.180000 0.070000
v -0.030372 0.180000 0.063068
v -0.000434 0.320000 0.000901
v 0.000000 0.320000 0.001000
vt 0.500000 0.000000
vt 0.571429 0.000000
vt 0.571429 1.000000
vt 0.500000 1.000000
f 231/231 232/232 233/233 234/234
v 0.000000 0.180000 0.000000
v -0.030372 0.180000 0.063068
v 0.000000 0.180000 0.070000
vt 0.000000 0.000000
vt 1.000000 0.000000
vt 1.000000 1.000000
f 235/235 236/236 237/237
v 0.000000 0.320000 0.000000
v 0.000000 0.320000 0.001000
v -0.000434 0.320000 0.000901
vt 0.000000 0.000000
vt 1.000000 0.000000
vt 1.000000 1.000000
f 238/238 239/239 240/240
v -0.030372 0.180000 0.063068
v -0.054728 0.180000 0.043644
v -0.000782 0.320000 0.000623
v -0.000434 0.320000 0.000901
vt 0.571429 0.000000
vt 0.642857 0.000000
vt 0.642857 1.000000
vt 0.571429 1.000000
f 241/241 242/242 243/243 244/244
v 0.000000 0.180000 0.000000
v -0.054728 0.180000 0.043644
v -0.030372 0.180000 0.063068
vt 0.000000 0.000000
vt 1.000000 0.000000
vt 1.000000 1.000000
f 245/245 246/246 247/247
v 0.000000 0.320000 0.000000
v -0.000434 0.320000 0.000901
v -0.000782 0.320000 0.000623
vt 0.000000 0.000000
vt 1.000000 0.000000
vt 1.000000 1.000000
f 248/248 249/249 250/250
v -0.054728 0.180000 0.043644
v -0.068245 0.180000 0.015576
v -0.000975 0.320000 0.000223
v -0.000782 0.320000 0.000623
vt 0.642857 0.000000
vt 0.714286 0.000000
vt 0.714286 1.000000
vt 0.642857 1.000000
f 251/251 252/252 253/253 254/254
v 0.000000 0.180000 0.000000
v -0.068245 0.180000 0.015576
v -0.054728 0.180000 0.043644
vt 0.000000 0.000000
vt 1.000000 0.000000
vt 1.000000 1.000000
f 255/255 256/256 257/257
v 0.000000 0.320000 0.000000
v -0.000782 0.320000 0.000623
v -0.000975 0.320000 0.000223
vt 0.000000 0.000000
vt 1.000000 0.000000
vt 1.000000 1.000000
f 258/258 259/259 260/260
v -0.068245 0.180000 0.015576
v -0.068245 0.180000 -0.015576
v -0.000975 0.320000 -0.000223
v -0.000975 0.320000 0.000223
vt 0.714286 0.000000
vt 0.785714 0.000000
vt 0.785714 1.000000
vt 0.714286 1.000000
f 261/261 262/262 263/263 264/264
v 0.000000 0.180000 0.000000
v -0.068245 0.180000 -0.015576
v -0.068245 0.180000 0.015576
vt 0.000000 0.000000
vt 1.000000 0.000000
vt 1.000000 1.000000
f 265/265 266/266 267/267
v 0.000000 0.320000 0.000000
v -0.000975 0.320000 0.000223
v -0.000975 0.320000 -0.000223
vt 0.000000 0.000000
vt 1.000000 0.000000
vt 1.000000 1.000000
f 268/268 269/269 270/270
v -0.068245 0.180000 -0.015576
v -0.054728 0.180000 -0.043644
v -0.000782 0.320000 -0.000623
v -0.000975 0.320000 -0.000223
vt 0.785714 0.000000
vt 0.857143 0.000000
vt 0.857143 1.000000
vt 0.785714 1.000000
f 271/271 272/272 273/273 274/274
v 0.000000 0.180000 0.000000
v -0.054728 0.180000 -0.043644
v -0.068245 0.180000 -0.015576
vt 0.000000 0.000000
vt 1.000000 0.000000
vt 1.000000 1.000000
f 275/275 276/276 277/277
v 0.000000 0.320000 0.000000
v -0.000975 0.320000 -0.000223
v -0.000782 0.320000 -0.000623
vt 0.000000 0.000000
vt 1.000000 0.000000
vt 1.000000 1.000000
f 278/278 279/279 280/280
v -0.054728 0.180000 -0.043644
v -0.030372 0.180000 -0.063068
v -0.000434 0.320000 -0.000901
v -0.000782 0.320000 -0.000623
vt 0.857143 0.000000
vt 0.928571 0.000000
vt 0.928571 1.000000
vt 0.857143 1.000000
f 281/281 282/282 283/283 284/284
v 0.000000 0.180000 0.000000
v -0.030372 0.180000 -0.063068
v -0.054728 0.180000 -0.043644
vt 0.000000 0.000000
vt 1.000000 0.000000
vt 1.000000 1.000000
f 285/285 286/286 287/287
v 0.000000 0.320000 0.000000
v -0.000782 0.320000 -0.000623
v -0.000434 0.320000 -0.000901
vt 0.000000 0.000000
vt 1.000000 0.000000
vt 1.000000 1.000000
f 288/288 289/289 290/290
v -0.030372 0.180000 -0.063068
v -0.000000 0.180000 -0.070000
v -0.000000 0.320000 -0.001000
v -0.000434 0.320000 -0.000901
vt 0.928571 0.000000
vt 1.000000 0.000000
vt 1.000000 1.000000
vt 0.928571 1.000000
f 291/291 292/292 293/293 294/294
v 0.000000 0.180000 0.000000
v -0.000000 0.180000 -0.070000
v -0.030372 0.180000 -0.063068
vt 0.000000 0.000000
vt 1.000000 0.000000
vt 1.000000 1.000000
f 295/295 296/296 297/297
v 0.000000 0.320000 0.000000
v -0.000434 0.320000 -0.000901
v -0.000000 0.320000 -0.001000
vt 0.000000 0.000000
vt 1.000000 0.000000
vt 1.000000 1.000000
f 298/298 299/299 300/300
v -0.010000 -0.180000 -0.080000
v 0.010000 -0.180000 -0.080000
v 0.010000 0.060000 -0.080000
v -0.010000 0.060000 -0.080000
vt 0.000000 0.000000
vt 1.000000 0.000000
vt 1.000000 1.000000
vt 0.000000 1.000000
f 301/301 302/302 303/303 304/304
v 0.010000 -0.180000 0.080000
v -0.010000 -0.180000 0.080000
v -0.010000 0.060000 0.080000
v 0.010000 0.060000 0.080000
vt 0.000000 0.000000
vt 1.000000 0.000000
vt 1.000000 1.000000
vt 0.000000 1.000000
f 305/305 306/306 307/307 308/308
v -0.010000 -0.180000 0.080000
v -0.010000 -0.180000 -0.080000
v -0.010000 0.060000 -0.080000
v -0.010000 0.060000 0.080000
vt 0.000000 0.000000
vt 1.000000 0.000000
vt 1.000000 1.000000
vt 0.000000 1.000000
f 309/309 310/310 311/311 312/312
v 0.010000 -0.180000 -0.080000
v 0.010000 -0.180000 0.080000
v 0.010000 0.060000 0.080000
v 0.010000 0.060000 -0.080000
vt 0.000000 0.000000
vt 1.000000 0.000000
vt 1.000000 1.000000
vt 0.000000 1.000000
f 313/313 314/314 315/315 316/316
v -0.010000 0.060000 -0.080000
v 0.010000 0.060000 -0.080000
v 0.010000 0.060000 0.080000
v -0.010000 0.060000 0.080000
vt 0.000000 0.000000
vt 1.000000 0.000000
vt 1.000000 1.000000
vt 0.000000 1.000000
f 317/317 318/318 319/319 320/320
v -0.010000 -0.180000 0.080000
v 0.010000 -0.180000 0.080000
v 0.010000 -0.180000 -0.080000
v -0.010000 -0.180000 -0.080000
vt 0.000000 0.000000
vt 1.000000 0.000000
vt 1.000000 1.000000
vt 0.000000 1.000000
f 321/321 322/322 323/323 324/324
v -0.080000 -0.180000 -0.010000
v 0.080000 -0.180000 -0.010000
v 0.080000 0.060000 -0.010000
v -0.080000 0.060000 -0.010000
vt 0.000000 0.000000
vt 1.000000 0.000000
vt 1.000000 1.000000
vt 0.000000 1.000000
f 325/325 326/326 327/327 328/328
v 0.080000 -0.180000 0.010000
v -0.080000 -0.180000 0.010000
v -0.080000 0.060000 0.010000
v 0.080000 0.060000 0.010000
vt 0.000000 0.000000
vt 1.000000 0.000000
vt 1.000000 1.000000
vt 0.000000 1.000000
f 329/329 330/330 331/331 332/332
v -0.080000 -0.180000 0.010000
v -0.080000 -0.180000 -0.010000
v -0.080000 0.060000 -0.010000
v -0.080000 0.060000 0.010000
vt 0.000000 0.000000
vt 1.000000 0.000000
vt 1.000000 1.000000
vt 0.000000 1.000000
f 333/333 334/334 335/335 336/336
v 0.080000 -0.180000 -0.010000
v 0.080000 -0.180000 0.010000
v 0.080000 0.060000 0.010000
v 0.080000 0.060000 -0.010000
vt 0.000000 0.000000
vt 1.000000 0.000000
vt 1.000000 1.000000
vt 0.000000 1.000000
f 337/337 338/338 339/339 340/340
v -0.080000 0.060000 -0.010000
v 0.080000 0.060000 -0.010000
v 0.080000 0.060000 0.010000
v -0.080000 0.060000 0.010000
vt 0.000000 0.000000
vt 1.000000 0.000000
vt 1.000000 1.000000
vt 0.000000 1.000000
f 341/341 342/342 343/343 344/344
v -0.080000 -0.180000 0.010000
v 0.080000 -0.180000 0.010000
v 0.080000 -0.180000 -0.010000
v -0.080000 -0.180000 -0.010000
vt 0.000000 0.000000
vt 1.000000 0.000000
vt 1.000000 1.000000
vt 0.000000 1.000000
f 345/345 346/346 347/347 348/348
usemtl yellow
v -0.040000 -0.100000 0.020000
v -0.025858 -0.100000 0.025858
v -0.025858 0.100000 0.025858
v -0.040000 0.100000 0.020000
vt 0.000000 0.000000
vt 0.125000 0.000000
vt 0.125000 1.000000
vt 0.000000 1.000000
f 349/349 350/350 351/351 352/352
v -0.040000 -0.100000 0.040000
v -0.025858 -0.100000 0.025858
v -0.040000 -0.100000 0.020000
vt 0.000000 0.000000
vt 1.000000 0.000000
vt 1.000000 1.000000
f 353/353 354/354 355/355
v -0.040000 0.100000 0.040000
v -0.040000 0.100000 0.020000
v -0.025858 0.100000 0.025858
vt 0.000000 0.000000
vt 1.000000 0.000000
vt 1.000000 1.000000
f 356/356 357/357 358/358
v -0.025858 -0.100000 0.025858
v -0.020000 -0.100000 0.040000
v -0.020000 0.100000 0.040000
v -0.025858 0.100000 0.025858
vt 0.125000 0.000000
vt 0.250000 0.000000
vt 0.250000 1.000000
vt 0.125000 1.000000
f 359/359 360/360 361/361 362/362
v -0.040000 -0.100000 0.040000
v -0.020000 -0.100000 0.040000
v -0.025858 -0.100000 0.025858
vt 0.000000 0.000000
vt 1.000000 0.000000
vt 1.000000 1.000000
f 363/363 364/364 365/365
v -0.040000 0.100000 0.040000
v -0.025858 0.100000 0.025858
v -0.020000 0.100000 0.040000
vt 0.000000 0.000000
vt 1.000000 0.000000
vt 1.000000 1.000000
f 366/366 367/367 368/368
v -0.020000 -0.100000 0.040000
v -0.025858 -0.100000 0.054142
v -0.025858 0.100000 0.054142
v -0.020000 0.100000 0.040000
vt 0.250000 0.000000
vt 0.375000 0.000000
vt 0.375000 1.000000
vt 0.250000 1.000000
f 369/369 370/370 371/371 372/372
v -0.040000 -0.100000 0.040000
v -0.025858 -0.100000 0.054142
v -0.020000 -0.100000 0.040000
vt 0.000000 0.000000
vt 1.000000 0.000000
vt 1.000000 1.000000
f 373/373 374/374 375/375
v -0.040000 0.100000 0.040000
v -0.020000 0.100000 0.040000
v -0.025858 0.100000 0.054142
vt 0.000000 0.000000
vt 1.000000 0.000000
vt 1.000000 1.000000
f 376/376 377/377 378/378
v -0.025858 -0.100000 0.054142
v -0.040000 -0.100000 0.060000
v -0.040000 0.100000 0.060000
v -0.025858 0.100000 0.054142
vt 0.375000 0.000000
vt 0.500000 0.000000
vt 0.500000 1.000000
vt 0.375000 1.000000
f 379/379 380/380 381/381 382/382
v -0.040000 -0.100000 0.040000
v -0.040000 -0.100000 0.060000
v -0.025858 -0.100000 0.054142
vt 0.000000 0.000000
vt 1.000000 0.000000
vt 1.000000 1.000000
f 383/383 384/384 385/385
v -0.040000 0.100000 0.040000
v -0.025858 0.100000 0.054142
v -0.040000 0.100000 0.060000
vt 0.000000 0.000000
vt 1.000000 0.000000
vt 1.000000 1.000000
f 386/386 387/387 388/388
v -0.040000 -0.100000 0.060000
v -0.054142 -0.100000 0.054142
v -0.054142 0.100000 0.054142
v -0.040000 0.100000 0.060000
vt 0.500000 0.000000
vt 0.625000 0.000000
vt 0.625000 1.000000
vt 0.500000 1.000000
f 389/389 390/390 391/391 392/392
v -0.040000 -0.100000 0.040000
v -0.054142 -0.100000 0.054142
v -0.040000 -0.100000 0.060000
vt 0.000000 0.000000
vt 1.000000 0.000000
vt 1.000000 1.000000
f 393/393 394/394 395/395
v -0.040000 0.100000 0.040000
v -0.040000 0.100000 0.060000
v -0.054142 0.100000 0.054142
vt 0.000000 0.000000
vt 1.000000 0.000000
vt 1.000000 1.000000
f 396/396 397/397 398/398
v -0.054142 -0.100000 0.054142
v -0.060000 -0.100000 0.040000
v -0.060000 0.100000 0.040000
v -0.054142 0.100000 0.054142
vt 0.625000 0.000000
vt 0.750000 0.000000
vt 0.750000 1.000000
vt 0.625000 1.000000
f 399/399 400/400 401/401 402/402
v -0.040000 -0.100000 0.040000
v -0.060000 -0.100000 0.040000
v -0.054142 -0.100000 0.054142
vt 0.000000 0.000000
vt 1.000000 0.000000
vt 1.000000 1.000000
f 403/403 404/404 405/405
v -0.040000 0.100000 0.040000
v -0.054142 0.100000 0.054142
v -0.060000 0.100000 0.040000
vt 0.000000 0.000000
vt 1.000000 0.000000
vt 1.000000 1.000000
f 406/406 407/407 408/408
v -0.060000 -0.100000 0.040000
v -0.054142 -0.100000 0.025858
v -0.054142 0.100000 0.025858
v -0.060000 0.100000 0.040000
vt 0.750000 0.000000
vt 0.875000 0.000000
vt 0.875000 1.000000
vt 0.750000 1.000000
f 409/409 410/410 411/411 412/412
v -0.040000 -0.100000 0.040000
v -0.054142 -0.100000 0.025858
v -0.060000 -0.100000 0.040000
vt 0.000000 0.000000
vt 1.000000 0.000000
vt 1.000000 1.000000
f 413/413 414/414 415/415
v -0.040000 0.100000 0.040000
v -0.060000 0.100000 0.040000
v -0.054142 0.100000 0.025858
vt 0.000000 0.000000
vt 1.000000 0.000000
vt 1.000000 1.000000
f 416/416 417/417 418/418
v -0.054142 -0.100000 0.025858
v -0.040000 -0.100000 0.020000
v -0.040000 0.100000 0.020000
v -0.054142 0.100000 0.025858
vt 0.875000 0.000000
vt 1.000000 0.000000
vt 1.000000 1.000000
vt 0.875000 1.000000
f 419/419 420/420 421/421 422/422
v -0.040000 -0.100000 0.040000
v -0.040000 -0.100000 0.020000
v -0.054142 -0.100000 0.025858
vt 0.000000 0.000000
vt 1.000000 0.000000
vt 1.000000 1.000000
f 423/423 424/424 425/425
v -0.040000 0.100000 0.040000
v -0.054142 0.100000 0.025858
v -0.040000 0.100000 0.020000
vt 0.000000 0.000000
vt 1.000000 0.000000
vt 1.000000 1.000000
f 426/426 427/427 428/428
v 0.040000 -0.100000 0.020000
v 0.054142 -0.100000 0.025858
v 0.054142 0.100000 0.025858
v 0.040000 0.100000 0.020000
vt 0.000000 0.000000
vt 0.125000 0.000000
vt 0.125000 1.000000
vt 0.000000 1.000000
f 429/429 430/430 431/431 432/432
v 0.040000 -0.100000 0.040000
v 0.054142 -0.100000 0.025858
v 0.040000 -0.100000 0.020000
vt 0.000000 0.000000
vt 1.000000 0.000000
vt 1.000000 1.000000
f 433/433 434/434 435/435
v 0.040000 0.100000 0.040000
v 0.040000 0.100000 0.020000
v 0.054142 0.100000 0.025858
vt 0.000000 0.000000
vt 1.000000 0.000000
vt 1.000000 1.000000
f 436/436 437/437 438/438
v 0.054142 -0.100000 0.025858
v 0.060000 -0.100000 0.040000
v 0.060000 0.100000 0.040000
v 0.054142 0.100000 0.025858
vt 0.125000 0.000000
vt 0.250000 0.000000
vt 0.250000 1.000000
vt 0.125000 1.000000
f 439/439 440/440 441/441 442/442
v 0.040000 -0.100000 0.040000
v 0.060000 -0.100000 0.040000
v 0.054142 -0.100000 0.025858
vt 0.000000 0.000000
vt 1.000000 0.000000
vt 1.000000 1.000000
f 443/443 444/444 445/445
v 0.040000 0.100000 0.040000
v 0.054142 0.100000 0.025858
v 0.060000 0.100000 0.040000
vt 0.000000 0.000000
vt 1.000000 0.000000
vt 1.000000 1.000000
f 446/446 447/447 448/448
v 0.060000 -0.100000 0.040000
v 0.054142 -0.100000 0.054142
v 0.054142 0.100000 0.054142
v 0.060000 0.100000 0.040000
vt 0.250000 0.000000
vt 0.375000 0.000000
vt 0.375000 1.000000
vt 0.250000 1.000000
f 449/449 450/450 451/451 452/452
v 0.040000 -0.100000 0.040000
v 0.054142 -0.100000 0.054142
v 0.060000 -0.100000 0.040000
vt 0.000000 0.000000
vt 1.000000 0.000000
vt 1.000000 1.000000
f 453/453 454/454 455/455
v 0.040000 0.100000 0.040000
v 0.060000 0.100000 0.040000
v 0.054142 0.100000 0.054142
vt 0.000000 0.000000
vt 1.000000 0.000000
vt 1.000000 1.000000
f 456/456 457/457 458/458
v 0.054142 -0.100000 0.054142
v 0.040000 -0.100000 0.060000
v 0.040000 0.100000 0.060000
v 0.054142 0.100000 0.054142
vt 0.375000 0.000000
vt 0.500000 0.000000
vt 0.500000 1.000000
vt 0.375000 1.000000
f 459/459 460/460 461/461 462/462
v 0.040000 -0.100000 0.040000
v 0.040000 -0.100000 0.060000
v 0.054142 -0.100000 0.054142
vt 0.000000 0.000000
vt 1.000000 0.000000
vt 1.000000 1.000000
f 463/463 464/464 465/465
v 0.040000 0.100000 0.040000
v 0.054142 0.100000 0.054142
v 0.040000 0.100000 0.060000
vt 0.000000 0.000000
vt 1.000000 0.000000
vt 1.000000 1.000000
f 466/466 467/467 468/468
v 0.040000 -0.100000 0.060000
v 0.025858 -0.100000 0.054142
v 0.025858 0.100000 0.054142
v 0.040000 0.100000 0.060000
vt 0.500000 0.000000
vt 0.625000 0.000000
vt 0.625000 1.000000
vt 0.500000 1.000000
f 469/469 470/470 471/471 472/472
v 0.040000 -0.100000 0.040000
v 0.025858 -0.100000 0.054142
v 0.040000 -0.100000 0.060000
vt 0.000000 0.000000
vt 1.000000 0.000000
vt 1.000000 1.000000
f 473/473 474/474 475/475
v 0.040000 0.100000 0.040000
v 0.040000 0.100000 0.060000
v 0.025858 0.100000 0.054142
vt 0.000000 0.000000
vt 1.000000 0.000000
vt 1.000000 1.000000
f 476/476 477/477 478/478
v 0.025858 -0.100000 0.054142
v 0.020000 -0.100000 0.040000
v 0.020000 0.100000 0.040000
v 0.025858 0.100000 0.054142
vt 0.625000 0.000000
vt 0.750000 0.000000
vt 0.750000 1.000000
vt 0.625000 1.000000
f 479/479 480/480 481/481 482/482
v 0.040000 -0.100000 0.040000
v 0.020000 -0.100000 0.040000
v 0.025858 -0.100000 0.054142
vt 0.000000 0.000000
vt 1.000000 0.000000
vt 1.000000 1.000000
f 483/483 484/484 485/485
v 0.040000 0.100000 0.040000
v 0.025858 0.100000 0.054142
v 0.020000 0.100000 0.040000
vt 0.000000 0.000000
vt 1.000000 0.000000
vt 1.000000 1.000000
f 486/486 487/487 488/488
v 0.020000 -0.100000 0.040000
v 0.025858 -0.100000 0.025858
v 0.025858 0.100000 0.025858
v 0.020000 0.100000 0.040000
vt 0.750000 0.000000
vt 0.875000 0.000000
vt 0.875000 1.000000
vt 0.750000 1.000000
f 489/489 490/490 491/491 492/492
v 0.040000 -0.100000 0.040000
v 0.025858 -0.100000 0.025858
v 0.020000 -0.100000 0.040000
vt 0.000000 0.000000
vt 1.000000 0.000000
vt 1.000000 1.000000
f 493/493 494/494 495/495
v 0.040000 0.100000 0.040000
v 0.020000 0.100000 0.040000
v 0.025858 0.100000 0.025858
vt 0.000000 0.000000
vt 1.000000 0.000000
vt 1.000000 1.000000
f 496/496 497/497 498/498
v 0.025858 -0.100000 0.025858
v 0.040000 -0.100000 0.020000
v 0.040000 0.100000 0.020000
v 0.025858 0.100000 0.025858
vt 0.875000 0.000000
vt 1.000000 0.000000
vt 1.000000 1.000000
vt 0.875000 1.000000
f 499/499 500/500 501/501 502/502
v 0.040000 -0.100000 0.040000
v 0.040000 -0.100000 0.020000
v 0.025858 -0.100000 0.025858
vt 0.000000 0.000000
vt 1.000000 0.000000
vt 1.000000 1.000000
f 503/503 504/504 505/505
v 0.040000 0.100000 0.040000
v 0.025858 0.100000 0.025858
v 0.040000 0.100000 0.020000
vt 0.000000 0.000000
vt 1.000000 0.000000
vt 1.000000 1.000000
f 506/506 507/507 508/508
