mtllib decoy_warhead.mtl
o decoy_warhead
s 1
usemtl olive
v -0.120000 0.000000 -0.080000
v 0.120000 0.000000 -0.080000
v 0.120000 0.100000 -0.080000
v -0.120000 0.100000 -0.080000
vt 0.000000 0.000000
vt 1.000000 0.000000
vt 1.000000 1.000000
vt 0.000000 1.000000
f 1/1 2/2 3/3 4/4
v 0.120000 0.000000 0.080000
v -0.120000 0.000000 0.080000
v -0.120000 0.100000 0.080000
v 0.120000 0.100000 0.080000
vt 0.000000 0.000000
vt 1.000000 0.000000
vt 1.000000 1.000000
vt 0.000000 1.000000
f 5/5 6/6 7/7 8/8
v -0.120000 0.000000 0.080000
v -0.120000 0.000000 -0.080000
v -0.120000 0.100000 -0.080000
v -0.120000 0.100000 0.080000
vt 0.000000 0.000000
vt 1.000000 0.000000
vt 1.000000 1.000000
vt 0.000000 1.000000
f 9/9 10/10 11/11 12/12
v 0.120000 0.000000 -0.080000
v 0.120000 0.000000 0.080000
v 0.120000 0.100000 0.080000
v 0.120000 0.100000 -0.080000
vt 0.000000 0.000000
vt 1.000000 0.000000
vt 1.000000 1.000000
vt 0.000000 1.000000
f 13/13 14/14 15/15 16/16
v -0.120000 0.100000 -0.080000
v 0.120000 0.100000 -0.080000
v 0.120000 0.100000 0.080000
v -0.120000 0.100000 0.080000
vt 0.000000 0.000000
vt 1.000000 0.000000
vt 1.000000 1.000000
vt 0.000000 1.000000
f 17/17 18/18 19/19 20/20
v -0.120000 0.000000 0.080000
v 0.120000 0.000000 0.080000
v 0.120000 0.000000 -0.080000
v -0.120000 0.000000 -0.080000
vt 0.000000 0.000000
vt 1.000000 0.000000
vt 1.000000 1.000000
vt 0.000000 1.000000
f 21/21 22/22 23/23 24/24
usemtl white
v -0.080000 0.100000 -0.022000
v -0.064444 0.100000 -0.015556
v -0.064444 0.240000 -0.015556
v -0.080000 0.240000 -0.022000
vt 0.000000 0.000000
vt 0.125000 0.000000
vt 0.125000 1.000000
vt 0.000000 1.000000
f 25/25 26/26 27/27 28/28
v -0.080000 0.100000 0.000000
v -0.064444 0.100000 -0.015556
v -0.080000 0.100000 -0.022000
vt 0.000000 0.000000
vt 1.000000 0.000000
vt 1.000000 1.000000
f 29/29 30/30 31/31
v -0.080000 0.240000 0.000000
v -0.080000 0.240000 -0.022000
v -0.064444 0.240000 -0.015556
vt 0.000000 0.000000
vt 1.000000 0.000000
vt 1.000000 1.000000
f 32/32 33/33 34/34
v -0.064444 0.100000 -0.015556
v -0.058000 0.100000 -0.000000
v -0.058000 0.240000 -0.000000
v -0.064444 0.240000 -0.015556
vt 0.125000 0.000000
vt 0.250000 0.000000
vt 0.250000 1.000000
vt 0.125000 1.000000
f 35/35 36/36 37/37 38/38
v -0.080000 0.100000 0.000000
v -0.058000 0.100000 -0.000000
v -0.064444 0.100000 -0.015556
vt 0.000000 0.000000
vt 1.000000 0.000000
vt 1.000000 1.000000
f 39/39 40/40 41/41
v -0.080000 0.240000 0.000000
v -0.064444 0.240000 -0.015556
v -0.058000 0.240000 -0.000000
vt 0.000000 0.000000
vt 1.000000 0.000000
vt 1.000000 1.000000
f 42/42 43/43 44/44
v -0.058000 0.100000 -0.000000
v -0.064444 0.100000 0.015556
v -0.064444 0.240000 0.015556
v -0.058000 0.240000 -0.000000
vt 0.250000 0.000000
vt 0.375000 0.000000
vt 0.375000 1.000000
vt 0.250000 1.000000
f 45/45 46/46 47/47 48/48
v -0.080000 0.100000 0.000000
v -0.064444 0.100000 0.015556
v -0.058000 0.100000 -0.000000
vt 0.000000 0.000000
vt 1.000000 0.000000
vt 1.000000 1.000000
f 49/49 50/50 51/51
v -0.080000 0.240000 0.000000
v -0.058000 0.240000 -0.000000
v -0.064444 0.240000 0.015556
vt 0.000000 0.000000
vt 1.000000 0.000000
vt 1.000000 1.000000
f 52/52 53/53 54/54
v -0.064444 0.100000 0.015556
v -0.080000 0.100000 0.022000
v -0.080000 0.240000 0.022000
v -0.064444 0.240000 0.015556
vt 0.375000 0.000000
vt 0.500000 0.000000
vt 0.500000 1.000000
vt 0.375000 1.000000
f 55/55 56/56 57/57 58/58
v -0.080000 0.100000 0.000000
v -0.080000 0.100000 0.022000
v -0.064444 0.100000 0.015556
vt 0.000000 0.000000
vt 1.000000 0.000000
vt 1.000000 1.000000
f 59/59 60/60 61/61
v -0.080000 0.240000 0.000000
v -0.064444 0.240000 0.015556
v -0.080000 0.240000 0.022000
vt 0.000000 0.000000
vt 1.000000 0.000000
vt 1.000000 1.000000
f 62/62 63/63 64/64
v -0.080000 0.100000 0.022000
v -0.095556 0.100000 0.015556
v -0.095556 0.240000 0.015556
v -0.080000 0.240000 0.022000
vt 0.500000 0.000000
vt 0.625000 0.000000
vt 0.625000 1.000000
vt 0.500000 1.000000
f 65/65 66/66 67/67 68/68
v -0.080000 0.100000 0.000000
v -0.095556 0.100000 0.015556
v -0.080000 0.100000 0.022000
vt 0.000000 0.000000
vt 1.000000 0.000000
vt 1.000000 1.000000
f 69/69 70/70 71/71
v -0.080000 0.240000 0.000000
v -0.080000 0.240000 0.022000
v -0.095556 0.240000 0.015556
vt 0.000000 0.000000
vt 1.000000 0.000000
vt 1.000000 1.000000
f 72/72 73/73 74/74
v -0.095556 0.100000 0.015556
v -0.102000 0.100000 0.000000
v -0.102000 0.240000 0.000000
v -0.095556 0.240000 0.015556
vt 0.625000 0.000000
vt 0.750000 0.000000
vt 0.750000 1.000000
vt 0.625000 1.000000
f 75/75 76/76 77/77 78/78
v -0.080000 0.100000 0.000000
v -0.102000 0.100000 0.000000
v -0.095556 0.100000 0.015556
vt 0.000000 0.000000
vt 1.000000 0.000000
vt 1.000000 1.000000
f 79/79 80/80 81/81
v -0.080000 0.240000 0.000000
v -0.095556 0.240000 0.015556
v -0.102000 0.240000 0.000000
vt 0.000000 0.000000
vt 1.000000 0.000000
vt 1.000000 1.000000
f 82/82 83/83 84/84
v -0.102000 0.100000 0.000000
v -0.095556 0.100000 -0.015556
v -0.095556 0.240000 -0.015556
v -0.102000 0.240000 0.000000
vt 0.750000 0.000000
vt 0.875000 0.000000
vt 0.875000 1.000000
vt 0.750000 1.000000
f 85/85 86/86 87/87 88/88
v -0.080000 0.100000 0.000000
v -0.095556 0.100000 -0.015556
v -0.102000 0.100000 0.000000
vt 0.000000 0.000000
vt 1.000000 0.000000
vt 1.000000 1.000000
f 89/89 90/90 91/91
v -0.080000 0.240000 0.000000
v -0.102000 0.240000 0.000000
v -0.095556 0.240000 -0.015556
vt 0.000000 0.000000
vt 1.000000 0.000000
vt 1.000000 1.000000
f 92/92 93/93 94/94
v -0.095556 0.100000 -0.015556
v -0.080000 0.100000 -0.022000
v -0.080000 0.240000 -0.022000
v -0.095556 0.240000 -0.015556
vt 0.875000 0.000000
vt 1.000000 0.000000
vt 1.000000 1.000000
vt 0.875000 1.000000
f 95/95 96/96 97/97 98/98
v -0.080000 0.100000 0.000000
v -0.080000 0.100000 -0.022000
v -0.095556 0.100000 -0.015556
vt 0.000000 0.000000
vt 1.000000 0.000000
vt 1.000000 1.000000
f 99/99 100/100 101/101
v -0.080000 0.240000 0.000000
v -0.095556 0.240000 -0.015556
v -0.080000 0.240000 -0.022000
vt 0.000000 0.000000
vt 1.000000 0.000000
vt 1.000000 1.000000
f 102/102 103/103 104/104
usemtl accent
v -0.080000 0.240000 -0.022000
v -0.064444 0.240000 -0.015556
v -0.079293 0.300000 -0.000707
v -0.080000 0.300000 -0.001000
vt 0.000000 0.000000
vt 0.125000 0.000000
vt 0.125000 1.000000
vt 0.000000 1.000000
f 105/105 106/106 107/107 108/108
v -0.080000 0.240000 0.000000
v -0.064444 0.240000 -0.015556
v -0.080000 0.240000 -0.022000
vt 0.000000 0.000000
vt 1.000000 0.000000
vt 1.000000 1.000000
f 109/109 110/110 111/111
v -0.080000 0.300000 0.000000
v -0.080000 0.300000 -0.001000
v -0.079293 0.300000 -0.000707
vt 0.000000 0.000000
vt 1.000000 0.000000
vt 1.000000 1.000000
f 112/112 113/113 114/114
v -0.064444 0.240000 -0.015556
v -0.058000 0.240000 -0.000000
v -0.079000 0.300000 -0.000000
v -0.079293 0.300000 -0.000707
vt 0.125000 0.000000
vt 0.250000 0.000000
vt 0.250000 1.000000
vt 0.125000 1.000000
f 115/115 116/116 117/117 118/118
v -0.080000 0.240000 0.000000
v -0.058000 0.240000 -0.000000
v -0.064444 0.240000 -0.015556
vt 0.000000 0.000000
vt 1.000000 0.000000
vt 1.000000 1.000000
f 119/119 120/120 121/121
v -0.080000 0.300000 0.000000
v -0.079293 0.300000 -0.000707
v -0.079000 0.300000 -0.000000
vt 0.000000 0.000000
vt 1.000000 0.000000
vt 1.000000 1.000000
f 122/122 123/123 124/124
v -0.058000 0.240000 -0.000000
v -0.064444 0.240000 0.015556
v -0.079293 0.300000 0.000707
v -0.079000 0.300000 -0.000000
vt 0.250000 0.000000
vt 0.375000 0.000000
vt 0.375000 1.000000
vt 0.250000 1.000000
f 125/125 126/126 127/127 128/128
v -0.080000 0.240000 0.000000
v -0.064444 0.240000 0.015556
v -0.058000 0.240000 -0.000000
vt 0.000000 0.000000
vt 1.000000 0.000000
vt 1.000000 1.000000
f 129/129 130/130 131/131
v -0.080000 0.300000 0.000000
v -0.079000 0.300000 -0.000000
v -0.079293 0.300000 0.000707
vt 0.000000 0.000000
vt 1.000000 0.000000
vt 1.000000 1.000000
f 132/132 133/133 134/134
v -0.064444 0.240000 0.015556
v -0.080000 0.240000 0.022000
v -0.080000 0.300000 0.001000
v -0.079293 0.300000 0.000707
vt 0.375000 0.000000
vt 0.500000 0.000000
vt 0.500000 1.000000
vt 0.375000 1.000000
f 135/135 136/136 137/137 138/138
v -0.080000 0.240000 0.000000
v -0.080000 0.240000 0.022000
v -0.064444 0.240000 0.015556
vt 0.000000 0.000000
vt 1.000000 0.000000
vt 1.000000 1.000000
f 139/139 140/140 141/141
v -0.080000 0.300000 0.000000
v -0.079293 0.300000 0.000707
v -0.080000 0.300000 0.001000
vt 0.000000 0.000000
vt 1.000000 0.000000
vt 1.000000 1.000000
f 142/142 143/143 144/144
v -0.080000 0.240000 0.022000
v -0.095556 0.240000 0.015556
v -0.080707 0.300000 0.000707
v -0.080000 0.300000 0.001000
vt 0.500000 0.000000
vt 0.625000 0.000000
vt 0.625000 1.000000
vt 0.500000 1.000000
f 145/145 146/146 147/147 148/148
v -0.080000 0.240000 0.000000
v -0.095556 0.240000 0.015556
v -0.080000 0.240000 0.022000
vt 0.000000 0.000000
vt 1.000000 0.000000
vt 1.000000 1.000000
f 149/149 150/150 151/151
v -0.080000 0.300000 0.000000
v -0.080000 0.300000 0.001000
v -0.080707 0.300000 0.000707
vt 0.000000 0.000000
vt 1.000000 0.000000
vt 1.000000 1.000000
f 152/152 153/153 154/154
v -0.095556 0.240000 0.015556
v -0.102000 0.240000 0.000000
v -0.081000 0.300000 0.000000
v -0.080707 0.300000 0.000707
vt 0.625000 0.000000
vt 0.750000 0.000000
vt 0.750000 1.000000
vt 0.625000 1.000000
f 155/155 156/156 157/157 158/158
v -0.080000 0.240000 0.000000
v -0.102000 0.240000 0.000000
v -0.095556 0.240000 0.015556
vt 0.000000 0.000000
vt 1.000000 0.000000
vt 1.000000 1.000000
f 159/159 160/160 161/161
v -0.080000 0.300000 0.000000
v -0.080707 0.300000 0.000707
v -0.081000 0.300000 0.000000
vt 0.000000 0.000000
vt 1.000000 0.000000
vt 1.000000 1.000000
f 162/162 163/163 164/164
v -0.102000 0.240000 0.000000
v -0.095556 0.240000 -0.015556
v -0.080707 0.300000 -0.000707
v -0.081000 0.300000 0.000000
vt 0.750000 0.000000
vt 0.875000 0.000000
vt 0.875000 1.000000
vt 0.750000 1.000000
f 165/165 166/166 167/167 168/168
v -0.080000 0.240000 0.000000
v -0.095556 0.240000 -0.015556
v -0.102000 0.240000 0.000000
vt 0.000000 0.000000
vt 1.000000 0.000000
vt 1.000000 1.000000
f 169/169 170/170 171/171
v -0.080000 0.300000 0.000000
v -0.081000 0.300000 0.000000
v -0.080707 0.300000 -0.000707
vt 0.000000 0.000000
vt 1.000000 0.000000
vt 1.000000 1.000000
f 172/172 173/173 174/174
v -0.095556 0.240000 -0.015556
v -0.080000 0.240000 -0.022000
v -0.080000 0.300000 -0.001000
v -0.080707 0.300000 -0.000707
vt 0.875000 0.000000
vt 1.000000 0.000000
vt 1.000000 1.000000
vt 0.875000 1.000000
f 175/175 176/176 177/177 178/178
v -0.080000 0.240000 0.000000
v -0.080000 0.240000 -0.022000
v -0.095556 0.240000 -0.015556
vt 0.000000 0.000000
vt 1.000000 0.000000
vt 1.000000 1.000000
f 179/179 180/180 181/181
v -0.080000 0.300000 0.000000
v -0.080707 0.300000 -0.000707
v -0.080000 0.300000 -0.001000
vt 0.000000 0.000000
vt 1.000000 0.000000
vt 1.000000 1.000000
f 182/182 183/183 184/184
usemtl white
v 0.000000 0.100000 -0.022000
v 0.015556 0.100000 -0.015556
v 0.015556 0.240000 -0.015556
v 0.000000 0.240000 -0.022000
vt 0.000000 0.000000
vt 0.125000 0.000000
vt 0.125000 1.000000
vt 0.000000 1.000000
f 185/185 186/186 187/187 188/188
v 0.000000 0.100000 0.000000
v 0.015556 0.100000 -0.015556
v 0.000000 0.100000 -0.022000
vt 0.000000 0.000000
vt 1.000000 0.000000
vt 1.000000 1.000000
f 189/189 190/190 191/191
v 0.000000 0.240000 0.000000
v 0.000000 0.240000 -0.022000
v 0.015556 0.240000 -0.015556
vt 0.000000 0.000000
vt 1.000000 0.000000
vt 1.000000 1.000000
f 192/192 193/193 194/194
v 0.015556 0.100000 -0.015556
v 0.022000 0.100000 -0.000000
v 0.022000 0.240000 -0.000000
v 0.015556 0.240000 -0.015556
vt 0.125000 0.000000
vt 0.250000 0.000000
vt 0.250000 1.000000
vt 0.125000 1.000000
f 195/195 196/196 197/197 198/198
v 0.000000 0.100000 0.000000
v 0.022000 0.100000 -0.000000
v 0.015556 0.100000 -0.015556
vt 0.000000 0.000000
vt 1.000000 0.000000
vt 1.000000 1.000000
f 199/199 200/200 201/201
v 0.000000 0.240000 0.000000
v 0.015556 0.240000 -0.015556
v 0.022000 0.240000 -0.000000
vt 0.000000 0.000000
vt 1.000000 0.000000
vt 1.000000 1.000000
f 202/202 203/203 204/204
v 0.022000 0.100000 -0.000000
v 0.015556 0.100000 0.015556
v 0.015556 0.240000 0.015556
v 0.022000 0.240000 -0.000000
vt 0.250000 0.000000
vt 0.375000 0.000000
vt 0.375000 1.000000
vt 0.250000 1.000000
f 205/205 206/206 207/207 208/208
v 0.000000 0.100000 0.000000
v 0.015556 0.100000 0.015556
v 0.022000 0.100000 -0.000000
vt 0.000000 0.000000
vt 1.000000 0.000000
vt 1.000000 1.000000
f 209/209 210/210 211/211
v 0.000000 0.240000 0.000000
v 0.022000 0.240000 -0.000000
v 0.015556 0.240000 0.015556
vt 0.000000 0.000000
vt 1.000000 0.000000
vt 1.000000 1.000000
f 212/212 213/213 214/214
v 0.015556 0.100000 0.015556
v 0.000000 0.100000 0.022000
v 0.000000 0.240000 0.022000
v 0.015556 0.240000 0.015556
vt 0.375000 0.000000
vt 0.500000 0.000000
vt 0.500000 1.000000
vt 0.375000 1.000000
f 215/215 216/216 217/217 218/218
v 0.000000 0.100000 0.000000
v 0.000000 0.100000 0.022000
v 0.015556 0.100000 0.015556
vt 0.000000 0.000000
vt 1.000000 0.000000
vt 1.000000 1.000000
f 219/219 220/220 221/221
v 0.000000 0.240000 0.000000
v 0.015556 0.240000 0.015556
v 0.000000 0.240000 0.022000
vt 0.000000 0.000000
vt 1.000000 0.000000
vt 1.000000 1.000000
f 222/222 223/223 224/224
v 0.000000 0.100000 0.022000
v -0.015556 0.100000 0.015556
v -0.015556 0.240000 0.015556
v 0.000000 0.240000 0.022000
vt 0.500000 0.000000
vt 0.625000 0.000000
vt 0.625000 1.000000
vt 0.500000 1.000000
f 225/225 226/226 227/227 228/228
v 0.000000 0.100000 0.000000
v -0.015556 0.100000 0.015556
v 0.000000 0.100000 0.022000
vt 0.000000 0.000000
vt 1.000000 0.000000
vt 1.000000 1.000000
f 229/229 230/230 231/231
v 0.000000 0.240000 0.000000
v 0.000000 0.240000 0.022000
v -0.015556 0.240000 0.015556
vt 0.000000 0.000000
vt 1.000000 0.000000
vt 1.000000 1.000000
f 232/232 233/233 234/234
v -0.015556 0.100000 0.015556
v -0.022000 0.100000 0.000000
v -0.022000 0.240000 0.000000
v -0.015556 0.240000 0.015556
vt 0.625000 0.000000
vt 0.750000 0.000000
vt 0.750000 1.000000
vt 0.625000 1.000000
f 235/235 236/236 237/237 238/238
v 0.000000 0.100000 0.000000
v -0.022000 0.100000 0.000000
v -0.015556 0.100000 0.015556
vt 0.000000 0.000000
vt 1.000000 0.000000
vt 1.000000 1.000000
f 239/239 240/240 241/241
v 0.000000 0.240000 0.000000
v -0.015556 0.240000 0.015556
v -0.022000 0.240000 0.000000
vt 0.000000 0.000000
vt 1.000000 0.000000
vt 1.000000 1.000000
f 242/242 243/243 244/244
v -0.022000 0.100000 0.000000
v -0.015556 0.100000 -0.015556
v -0.015556 0.240000 -0.015556
v -0.022000 0.240000 0.000000
vt 0.750000 0.000000
vt 0.875000 0.000000
vt 0.875000 1.000000
vt 0.750000 1.000000
f 245/245 246/246 247/247 248/248
v 0.000000 0.100000 0.000000
v -0.015556 0.100000 -0.015556
v -0.022000 0.100000 0.000000
vt 0.000000 0.000000
vt 1.000000 0.000000
vt 1.000000 1.000000
f 249/249 250/250 251/251
v 0.000000 0.240000 0.000000
v -0.022000 0.240000 0.000000
v -0.015556 0.240000 -0.015556
vt 0.000000 0.000000
vt 1.000000 0.000000
vt 1.000000 1.000000
f 252/252 253/253 254/254
v -0.015556 0.100000 -0.015556
v -0.000000 0.100000 -0.022000
v -0.000000 0.240000 -0.022000
v -0.015556 0.240000 -0.015556
vt 0.875000 0.000000
vt 1.000000 0.000000
vt 1.000000 1.000000
vt 0.875000 1.000000
f 255/255 256/256 257/257 258/258
v 0.000000 0.100000 0.000000
v -0.000000 0.100000 -0.022000
v -0.015556 0.100000 -0.015556
vt 0.000000 0.000000
vt 1.000000 0.000000
vt 1.000000 1.000000
f 259/259 260/260 261/261
v 0.000000 0.240000 0.000000
v -0.015556 0.240000 -0.015556
v -0.000000 0.240000 -0.022000
vt 0.000000 0.000000
vt 1.000000 0.000000
vt 1.000000 1.000000
f 262/262 263/263 264/264
usemtl accent
v 0.000000 0.240000 -0.022000
v 0.015556 0.240000 -0.015556
v 0.000707 0.300000 -0.000707
v 0.000000 0.300000 -0.001000
vt 0.000000 0.000000
vt 0.125000 0.000000
vt 0.125000 1.000000
vt 0.000000 1.000000
f 265/265 266/266 267/267 268/268
v 0.000000 0.240000 0.000000
v 0.015556 0.240000 -0.015556
v 0.000000 0.240000 -0.022000
vt 0.000000 0.000000
vt 1.000000 0.000000
vt 1.000000 1.000000
f 269/269 270/270 271/271
v 0.000000 0.300000 0.000000
v 0.000000 0.300000 -0.001000
v 0.000707 0.300000 -0.000707
vt 0.000000 0.000000
vt 1.000000 0.000000
vt 1.000000 1.000000
f 272/272 273/273 274/274
v 0.015556 0.240000 -0.015556
v 0.022000 0.240000 -0.000000
v 0.001000 0.300000 -0.000000
v 0.000707 0.300000 -0.000707
vt 0.125000 0.000000
vt 0.250000 0.000000
vt 0.250000 1.000000
vt 0.125000 1.000000
f 275/275 276/276 277/277 278/278
v 0.000000 0.240000 0.000000
v 0.022000 0.240000 -0.000000
v 0.015556 0.240000 -0.015556
vt 0.000000 0.000000
vt 1.000000 0.000000
vt 1.000000 1.000000
f 279/279 280/280 281/281
v 0.000000 0.300000 0.000000
v 0.000707 0.300000 -0.000707
v 0.001000 0.300000 -0.000000
vt 0.000000 0.000000
vt 1.000000 0.000000
vt 1.000000 1.000000
f 282/282 283/283 284/284
v 0.022000 0.240000 -0.000000
v 0.015556 0.240000 0.015556
v 0.000707 0.300000 0.000707
v 0.001000 0.300000 -0.000000
vt 0.250000 0.000000
vt 0.375000 0.000000
vt 0.375000 1.000000
vt 0.250000 1.000000
f 285/285 286/286 287/287 288/288
v 0.000000 0.240000 0.000000
v 0.015556 0.240000 0.015556
v 0.022000 0.240000 -0.000000
vt 0.000000 0.000000
vt 1.000000 0.000000
vt 1.000000 1.000000
f 289/289 290/290 291/291
v 0.000000 0.300000 0.000000
v 0.001000 0.300000 -0.000000
v 0.000707 0.300000 0.000707
vt 0.000000 0.000000
vt 1.000000 0.000000
vt 1.000000 1.000000
f 292/292 293/293 294/294
v 0.015556 0.240000 0.015556
v 0.000000 0.240000 0.022000
v 0.000000 0.300000 0.001000
v 0.000707 0.300000 0.000707
vt 0.375000 0.000000
vt 0.500000 0.000000
vt 0.500000 1.000000
vt 0.375000 1.000000
f 295/295 296/296 297/297 298/298
v 0.000000 0.240000 0.000000
v 0.000000 0.240000 0.022000
v 0.015556 0.240000 0.015556
vt 0.000000 0.000000
vt 1.000000 0.000000
vt 1.000000 1.000000
f 299/299 300/300 301/301
v 0.000000 0.300000 0.000000
v 0.000707 0.300000 0.000707
v 0.000000 0.300000 0.001000
vt 0.000000 0.000000
vt 1.000000 0.000000
vt 1.000000 1.000000
f 302/302 303/303 304/304
v 0.000000 0.240000 0.022000
v -0.015556 0.240000 0.015556
v -0.000707 0.300000 0.000707
v 0.000000 0.300000 0.001000
vt 0.500000 0.000000
vt 0.625000 0.000000
vt 0.625000 1.000000
vt 0.500000 1.000000
f 305/305 306/306 307/307 308/308
v 0.000000 0.240000 0.000000
v -0.015556 0.240000 0.015556
v 0.000000 0.240000 0.022000
vt 0.000000 0.000000
vt 1.000000 0.000000
vt 1.000000 1.000000
f 309/309 310/310 311/311
v 0.000000 0.300000 0.000000
v 0.000000 0.300000 0.001000
v -0.000707 0.300000 0.000707
vt 0.000000 0.000000
vt 1.000000 0.000000
vt 1.000000 1.000000
f 312/312 313/313 314/314
v -0.015556 0.240000 0.015556
v -0.022000 0.240000 0.000000
v -0.001000 0.300000 0.000000
v -0.000707 0.300000 0.000707
vt 0.625000 0.000000
vt 0.750000 0.000000
vt 0.750000 1.000000
vt 0.625000 1.000000
f 315/315 316/316 317/317 318/318
v 0.000000 0.240000 0.000000
v -0.022000 0.240000 0.000000
v -0.015556 0.240000 0.015556
vt 0.000000 0.000000
vt 1.000000 0.000000
vt 1.000000 1.000000
f 319/319 320/320 321/321
v 0.000000 0.300000 0.000000
v -0.000707 0.300000 0.000707
v -0.001000 0.300000 0.000000
vt 0.000000 0.000000
vt 1.000000 0.000000
vt 1.000000 1.000000
f 322/322 323/323 324/324
v -0.022000 0.240000 0.000000
v -0.015556 0.240000 -0.015556
v -0.000707 0.300000 -0.000707
v -0.001000 0.300000 0.000000
vt 0.750000 0.000000
vt 0.875000 0.000000
vt 0.875000 1.000000
vt 0.750000 1.000000
f 325/325 326/326 327/327 328/328
v 0.000000 0.240000 0.000000
v -0.015556 0.240000 -0.015556
v -0.022000 0.240000 0.000000
vt 0.000000 0.000000
vt 1.000000 0.000000
vt 1.000000 1.000000
f 329/329 330/330 331/331
v 0.000000 0.300000 0.000000
v -0.001000 0.300000 0.000000
v -0.000707 0.300000 -0.000707
vt 0.000000 0.000000
vt 1.000000 0.000000
vt 1.000000 1.000000
f 332/332 333/333 334/334
v -0.015556 0.240000 -0.015556
v -0.000000 0.240000 -0.022000
v -0.000000 0.300000 -0.001000
v -0.000707 0.300000 -0.000707
vt 0.875000 0.000000
vt 1.000000 0.000000
vt 1.000000 1.000000
vt 0.875000 1.000000
f 335/335 336/336 337/337 338/338
v 0.000000 0.240000 0.000000
v -0.000000 0.240000 -0.022000
v -0.015556 0.240000 -0.015556
vt 0.000000 0.000000
vt 1.000000 0.000000
vt 1.000000 1.000000
f 339/339 340/340 341/341
v 0.000000 0.300000 0.000000
v -0.000707 0.300000 -0.000707
v -0.000000 0.300000 -0.001000
vt 0.000000 0.000000
vt 1.000000 0.000000
vt 1.000000 1.000000
f 342/342 343/343 344/344
usemtl white
v 0.080000 0.100000 -0.022000
v 0.095556 0.100000 -0.015556
v 0.095556 0.240000 -0.015556
v 0.080000 0.240000 -0.022000
vt 0.000000 0.000000
vt 0.125000 0.000000
vt 0.125000 1.000000
vt 0.000000 1.000000
f 345/345 346/346 347/347 348/348
v 0.080000 0.100000 0.000000
v 0.095556 0.100000 -0.015556
v 0.080000 0.100000 -0.022000
vt 0.000000 0.000000
vt 1.000000 0.000000
vt 1.000000 1.000000
f 349/349 350/350 351/351
v 0.080000 0.240000 0.000000
v 0.080000 0.240000 -0.022000
v 0.095556 0.240000 -0.015556
vt 0.000000 0.000000
vt 1.000000 0.000000
vt 1.000000 1.000000
f 352/352 353/353 354/354
v 0.095556 0.100000 -0.015556
v 0.102000 0.100000 -0.000000
v 0.102000 0.240000 -0.000000
v 0.095556 0.240000 -0.015556
vt 0.125000 0.000000
vt 0.250000 0.000000
vt 0.250000 1.000000
vt 0.125000 1.000000
f 355/355 356/356 357/357 358/358
v 0.080000 0.100000 0.000000
v 0.102000 0.100000 -0.000000
v 0.095556 0.100000 -0.015556
vt 0.000000 0.000000
vt 1.000000 0.000000
vt 1.000000 1.000000
f 359/359 360/360 361/361
v 0.080000 0.240000 0.000000
v 0.095556 0.240000 -0.015556
v 0.102000 0.240000 -0.000000
vt 0.000000 0.000000
vt 1.000000 0.000000
vt 1.000000 1.000000
f 362/362 363/363 364/364
v 0.102000 0.100000 -0.000000
v 0.095556 0.100000 0.015556
v 0.095556 0.240000 0.015556
v 0.102000 0.240000 -0.000000
vt 0.250000 0.000000
vt 0.375000 0.000000
vt 0.375000 1.000000
vt 0.250000 1.000000
f 365/365 366/366 367/367 368/368
v 0.080000 0.100000 0.000000
v 0.095556 0.100000 0.015556
v 0.102000 0.100000 -0.000000
vt 0.000000 0.000000
vt 1.000000 0.000000
vt 1.000000 1.000000
f 369/369 370/370 371/371
v 0.080000 0.240000 0.000000
v 0.102000 0.240000 -0.000000
v 0.095556 0.240000 0.015556
vt 0.000000 0.000000
vt 1.000000 0.000000
vt 1.000000 1.000000
f 372/372 373/373 374/374
v 0.095556 0.100000 0.015556
v 0.080000 0.100000 0.022000
v 0.080000 0.240000 0.022000
v 0.095556 0.240000 0.015556
vt 0.375000 0.000000
vt 0.500000 0.000000
vt 0.500000 1.000000
vt 0.375000 1.000000
f 375/375 376/376 377/377 378/378
v 0.080000 0.100000 0.000000
v 0.080000 0.100000 0.022000
v 0.095556 0.100000 0.015556
vt 0.000000 0.000000
vt 1.000000 0.000000
vt 1.000000 1.000000
f 379/379 380/380 381/381
v 0.080000 0.240000 0.000000
v 0.095556 0.240000 0.015556
v 0.080000 0.240000 0.022000
vt 0.000000 0.000000
vt 1.000000 0.000000
vt 1.000000 1.000000
f 382/382 383/383 384/384
v 0.080000 0.100000 0.022000
v 0.064444 0.100000 0.015556
v 0.064444 0.240000 0.015556
v 0.080000 0.240000 0.022000
vt 0.500000 0.000000
vt 0.625000 0.000000
vt 0.625000 1.000000
vt 0.500000 1.000000
f 385/385 386/386 387/387 388/388
v 0.080000 0.100000 0.000000
v 0.064444 0.100000 0.015556
v 0.080000 0.100000 0.022000
vt 0.000000 0.000000
vt 1.000000 0.000000
vt 1.000000 1.000000
f 389/389 390/390 391/391
v 0.080000 0.240000 0.000000
v 0.080000 0.240000 0.022000
v 0.064444 0.240000 0.015556
vt 0.000000 0.000000
vt 1.000000 0.000000
vt 1.000000 1.000000
f 392/392 393/393 394/394
v 0.064444 0.100000 0.015556
v 0.058000 0.100000 0.000000
v 0.058000 0.240000 0.000000
v 0.064444 0.240000 0.015556
vt 0.625000 0.000000
vt 0.750000 0.000000
vt 0.750000 1.000000
vt 0.625000 1.000000
f 395/395 396/396 397/397 398/398
v 0.080000 0.100000 0.000000
v 0.058000 0.100000 0.000000
v 0.064444 0.100000 0.015556
vt 0.000000 0.000000
vt 1.000000 0.000000
vt 1.000000 1.000000
f 399/399 400/400 401/401
v 0.080000 0.240000 0.000000
v 0.064444 0.240000 0.015556
v 0.058000 0.240000 0.000000
vt 0.000000 0.000000
vt 1.000000 0.000000
vt 1.000000 1.000000
f 402/402 403/403 404/404
v 0.058000 0.100000 0.000000
v 0.064444 0.100000 -0.015556
v 0.064444 0.240000 -0.015556
v 0.058000 0.240000 0.000000
vt 0.750000 0.000000
vt 0.875000 0.000000
vt 0.875000 1.000000
vt 0.750000 1.000000
f 405/405 406/406 407/407 408/408
v 0.080000 0.100000 0.000000
v 0.064444 0.100000 -0.015556
v 0.058000 0.100000 0.000000
vt 0.000000 0.000000
vt 1.000000 0.000000
vt 1.000000 1.000000
f 409/409 410/410 411/411
v 0.080000 0.240000 0.000000
v 0.058000 0.240000 0.000000
v 0.064444 0.240000 -0.015556
vt 0.000000 0.000000
vt 1.000000 0.000000
vt 1.000000 1.000000
f 412/412 413/413 414/414
v 0.064444 0.100000 -0.015556
v 0.080000 0.100000 -0.022000
v 0.080000 0.240000 -0.022000
v 0.064444 0.240000 -0.015556
vt 0.875000 0.000000
vt 1.000000 0.000000
vt 1.000000 1.000000
vt 0.875000 1.000000
f 415/415 416/416 417/417 418/418
v 0.080000 0.100000 0.000000
v 0.080000 0.100000 -0.022000
v 0.064444 0.100000 -0.015556
vt 0.000000 0.000000
vt 1.000000 0.000000
vt 1.000000 1.000000
f 419/419 420/420 421/421
v 0.080000 0.240000 0.000000
v 0.064444 0.240000 -0.015556
v 0.080000 0.240000 -0.022000
vt 0.000000 0.000000
vt 1.000000 0.000000
vt 1.000000 1.000000
f 422/422 423/423 424/424
usemtl accent
v 0.080000 0.240000 -0.022000
v 0.095556 0.240000 -0.015556
v 0.080707 0.300000 -0.000707
v 0.080000 0.300000 -0.001000
vt 0.000000 0.000000
vt 0.125000 0.000000
vt 0.125000 1.000000
vt 0.000000 1.000000
f 425/425 426/426 427/427 428/428
v 0.080000 0.240000 0.000000
v 0.095556 0.240000 -0.015556
v 0.080000 0.240000 -0.022000
vt 0.000000 0.000000
vt 1.000000 0.000000
vt 1.000000 1.000000
f 429/429 430/430 431/431
v 0.080000 0.300000 0.000000
v 0.080000 0.300000 -0.001000
v 0.080707 0.300000 -0.000707
vt 0.000000 0.000000
vt 1.000000 0.000000
vt 1.000000 1.000000
f 432/432 433/433 434/434
v 0.095556 0.240000 -0.015556
v 0.102000 0.240000 -0.000000
v 0.081000 0.300000 -0.000000
v 0.080707 0.300000 -0.000707
vt 0.125000 0.000000
vt 0.250000 0.000000
vt 0.250000 1.000000
vt 0.125000 1.000000
f 435/435 436/436 437/437 438/438
v 0.080000 0.240000 0.000000
v 0.102000 0.240000 -0.000000
v 0.095556 0.240000 -0.015556
vt 0.000000 0.000000
vt 1.000000 0.000000
vt 1.000000 1.000000
f 439/439 440/440 441/441
v 0.080000 0.300000 0.000000
v 0.080707 0.300000 -0.000707
v 0.081000 0.300000 -0.000000
vt 0.000000 0.000000
vt 1.000000 0.000000
vt 1.000000 1.000000
f 442/442 443/443 444/444
v 0.102000 0.240000 -0.000000
v 0.095556 0.240000 0.015556
v 0.080707 0.300000 0.000707
v 0.081000 0.300000 -0.000000
vt 0.250000 0.000000
vt 0.375000 0.000000
vt 0.375000 1.000000
vt 0.250000 1.000000
f 445/445 446/446 447/447 448/448
v 0.080000 0.240000 0.000000
v 0.095556 0.240000 0.015556
v 0.102000 0.240000 -0.000000
vt 0.000000 0.000000
vt 1.000000 0.000000
vt 1.000000 1.000000
f 449/449 450/450 451/451
v 0.080000 0.300000 0.000000
v 0.081000 0.300000 -0.000000
v 0.080707 0.300000 0.000707
vt 0.000000 0.000000
vt 1.000000 0.000000
vt 1.000000 1.000000
f 452/452 453/453 454/454
v 0.095556 0.240000 0.015556
v 0.080000 0.240000 0.022000
v 0.080000 0.300000 0.001000
v 0.080707 0.300000 0.000707
vt 0.375000 0.000000
vt 0.500000 0.000000
vt 0.500000 1.000000
vt 0.375000 1.000000
f 455/455 456/456 457/457 458/458
v 0.080000 0.240000 0.000000
v 0.080000 0.240000 0.022000
v 0.095556 0.240000 0.015556
vt 0.000000 0.000000
vt 1.000000 0.000000
vt 1.000000 1.000000
f 459/459 460/460 461/461
v 0.080000 0.300000 0.000000
v 0.080707 0.300000 0.000707
v 0.080000 0.300000 0.001000
vt 0.000000 0.000000
vt 1.000000 0.000000
vt 1.000000 1.000000
f 462/462 463/463 464/464
v 0.080000 0.240000 0.022000
v 0.064444 0.240000 0.015556
v 0.079293 0.300000 0.000707
v 0.080000 0.300000 0.001000
vt 0.500000 0.000000
vt 0.625000 0.000000
vt 0.625000 1.000000
vt 0.500000 1.000000
f 465/465 466/466 467/467 468/468
v 0.080000 0.240000 0.000000
v 0.064444 0.240000 0.015556
v 0.080000 0.240000 0.022000
vt 0.000000 0.000000
vt 1.000000 0.000000
vt 1.000000 1.000000
f 469/469 470/470 471/471
v 0.080000 0.300000 0.000000
v 0.080000 0.300000 0.001000
v 0.079293 0.300000 0.000707
vt 0.000000 0.000000
vt 1.000000 0.000000
vt 1.000000 1.000000
f 472/472 473/473 474/474
v 0.064444 0.240000 0.015556
v 0.058000 0.240000 0.000000
v 0.079000 0.300000 0.000000
v 0.079293 0.300000 0.000707
vt 0.625000 0.000000
vt 0.750000 0.000000
vt 0.750000 1.000000
vt 0.625000 1.000000
f 475/475 476/476 477/477 478/478
v 0.080000 0.240000 0.000000
v 0.058000 0.240000 0.000000
v 0.064444 0.240000 0.015556
vt 0.000000 0.000000
vt 1.000000 0.000000
vt 1.000000 1.000000
f 479/479 480/480 481/481
v 0.080000 0.300000 0.000000
v 0.079293 0.300000 0.000707
v 0.079000 0.300000 0.000000
vt 0.000000 0.000000
vt 1.000000 0.000000
vt 1.000000 1.000000
f 482/482 483/483 484/484
v 0.058000 0.240000 0.000000
v 0.064444 0.240000 -0.015556
v 0.079293 0.300000 -0.000707
v 0.079000 0.300000 0.000000
vt 0.750000 0.000000
vt 0.875000 0.000000
vt 0.875000 1.000000
vt 0.750000 1.000000
f 485/485 486/486 487/487 488/488
v 0.080000 0.240000 0.000000
v 0.064444 0.240000 -0.015556
v 0.058000 0.240000 0.000000
vt 0.000000 0.000000
vt 1.000000 0.000000
vt 1.000000 1.000000
f 489/489 490/490 491/491
v 0.080000 0.300000 0.000000
v 0.079000 0.300000 0.000000
v 0.079293 0.300000 -0.000707
vt 0.000000 0.000000
vt 1.000000 0.000000
vt 1.000000 1.000000
f 492/492 493/493 494/494
v 0.064444 0.240000 -0.015556
v 0.080000 0.240000 -0.022000
v 0.080000 0.300000 -0.001000
v 0.079293 0.300000 -0.000707
vt 0.875000 0.000000
vt 1.000000 0.000000
vt 1.000000 1.000000
vt 0.875000 1.000000
f 495/495 496/496 497/497 498/498
v 0.080000 0.240000 0.000000
v 0.080000 0.240000 -0.022000
v 0.064444 0.240000 -0.015556
vt 0.000000 0.000000
vt 1.000000 0.000000
vt 1.000000 1.000000
f 499/499 500/500 501/501
v 0.080000 0.300000 0.000000
v 0.079293 0.300000 -0.000707
v 0.080000 0.300000 -0.001000
vt 0.000000 0.000000
vt 1.000000 0.000000
vt 1.000000 1.000000
f 502/502 503/503 504/504
