mtllib gauss_rifle.mtl
o gauss_rifle
s 1
usemtl dark
v -0.055000 0.000000 -0.280000
v 0.055000 0.000000 -0.280000
v 0.055000 0.120000 -0.280000
v -0.055000 0.120000 -0.280000
vt 0.000000 0.000000
vt 1.000000 0.000000
vt 1.000000 1.000000
vt 0.000000 1.000000
f 1/1 2/2 3/3 4/4
v 0.055000 0.000000 0.420000
v -0.055000 0.000000 0.420000
v -0.055000 0.120000 0.420000
v 0.055000 0.120000 0.420000
vt 0.000000 0.000000
vt 1.000000 0.000000
vt 1.000000 1.000000
vt 0.000000 1.000000
f 5/5 6/6 7/7 8/8
v -0.055000 0.000000 0.420000
v -0.055000 0.000000 -0.280000
v -0.055000 0.120000 -0.280000
v -0.055000 0.120000 0.420000
vt 0.000000 0.000000
vt 1.000000 0.000000
vt 1.000000 1.000000
vt 0.000000 1.000000
f 9/9 10/10 11/11 12/12
v 0.055000 0.000000 -0.280000
v 0.055000 0.000000 0.420000
v 0.055000 0.120000 0.420000
v 0.055000 0.120000 -0.280000
vt 0.000000 0.000000
vt 1.000000 0.000000
vt 1.000000 1.000000
vt 0.000000 1.000000
f 13/13 14/14 15/15 16/16
v -0.055000 0.120000 -0.280000
v 0.055000 0.120000 -0.280000
v 0.055000 0.120000 0.420000
v -0.055000 0.120000 0.420000
vt 0.000000 0.000000
vt 1.000000 0.000000
vt 1.000000 1.000000
vt 0.000000 1.000000
f 17/17 18/18 19/19 20/20
v -0.055000 0.000000 0.420000
v 0.055000 0.000000 0.420000
v 0.055000 0.000000 -0.280000
v -0.055000 0.000000 -0.280000
vt 0.000000 0.000000
vt 1.000000 0.000000
vt 1.000000 1.000000
vt 0.000000 1.000000
f 21/21 22/22 23/23 24/24
usemtl body
v -0.032000 0.070000 0.180000
v -0.029564 0.082246 0.180000
v -0.029564 0.082246 1.020000
v -0.032000 0.070000 1.020000
vt 0.000000 0.000000
vt 0.062500 0.000000
vt 0.062500 1.000000
vt 0.000000 1.000000
f 25/25 26/26 27/27 28/28
v 0.000000 0.070000 0.180000
v -0.029564 0.082246 0.180000
v -0.032000 0.070000 0.180000
vt 0.000000 0.000000
vt 1.000000 0.000000
vt 1.000000 1.000000
f 29/29 30/30 31/31
v 0.000000 0.070000 1.020000
v -0.032000 0.070000 1.020000
v -0.029564 0.082246 1.020000
vt 0.000000 0.000000
vt 1.000000 0.000000
vt 1.000000 1.000000
f 32/32 33/33 34/34
v -0.029564 0.082246 0.180000
v -0.022627 0.092627 0.180000
v -0.022627 0.092627 1.020000
v -0.029564 0.082246 1.020000
vt 0.062500 0.000000
vt 0.125000 0.000000
vt 0.125000 1.000000
vt 0.062500 1.000000
f 35/35 36/36 37/37 38/38
v 0.000000 0.070000 0.180000
v -0.022627 0.092627 0.180000
v -0.029564 0.082246 0.180000
vt 0.000000 0.000000
vt 1.000000 0.000000
vt 1.000000 1.000000
f 39/39 40/40 41/41
v 0.000000 0.070000 1.020000
v -0.029564 0.082246 1.020000
v -0.022627 0.092627 1.020000
vt 0.000000 0.000000
vt 1.000000 0.000000
vt 1.000000 1.000000
f 42/42 43/43 44/44
v -0.022627 0.092627 0.180000
v -0.012246 0.099564 0.180000
v -0.012246 0.099564 1.020000
v -0.022627 0.092627 1.020000
vt 0.125000 0.000000
vt 0.187500 0.000000
vt 0.187500 1.000000
vt 0.125000 1.000000
f 45/45 46/46 47/47 48/48
v 0.000000 0.070000 0.180000
v -0.012246 0.099564 0.180000
v -0.022627 0.092627 0.180000
vt 0.000000 0.000000
vt 1.000000 0.000000
vt 1.000000 1.000000
f 49/49 50/50 51/51
v 0.000000 0.070000 1.020000
v -0.022627 0.092627 1.020000
v -0.012246 0.099564 1.020000
vt 0.000000 0.000000
vt 1.000000 0.000000
vt 1.000000 1.000000
f 52/52 53/53 54/54
v -0.012246 0.099564 0.180000
v -0.000000 0.102000 0.180000
v -0.000000 0.102000 1.020000
v -0.012246 0.099564 1.020000
vt 0.187500 0.000000
vt 0.250000 0.000000
vt 0.250000 1.000000
vt 0.187500 1.000000
f 55/55 56/56 57/57 58/58
v 0.000000 0.070000 0.180000
v -0.000000 0.102000 0.180000
v -0.012246 0.099564 0.180000
vt 0.000000 0.000000
vt 1.000000 0.000000
vt 1.000000 1.000000
f 59/59 60/60 61/61
v 0.000000 0.070000 1.020000
v -0.012246 0.099564 1.020000
v -0.000000 0.102000 1.020000
vt 0.000000 0.000000
vt 1.000000 0.000000
vt 1.000000 1.000000
f 62/62 63/63 64/64
v -0.000000 0.102000 0.180000
v 0.012246 0.099564 0.180000
v 0.012246 0.099564 1.020000
v -0.000000 0.102000 1.020000
vt 0.250000 0.000000
vt 0.312500 0.000000
vt 0.312500 1.000000
vt 0.250000 1.000000
f 65/65 66/66 67/67 68/68
v 0.000000 0.070000 0.180000
v 0.012246 0.099564 0.180000
v -0.000000 0.102000 0.180000
vt 0.000000 0.000000
vt 1.000000 0.000000
vt 1.000000 1.000000
f 69/69 70/70 71/71
v 0.000000 0.070000 1.020000
v -0.000000 0.102000 1.020000
v 0.012246 0.099564 1.020000
vt 0.000000 0.000000
vt 1.000000 0.000000
vt 1.000000 1.000000
f 72/72 73/73 74/74
v 0.012246 0.099564 0.180000
v 0.022627 0.092627 0.180000
v 0.022627 0.092627 1.020000
v 0.012246 0.099564 1.020000
vt 0.312500 0.000000
vt 0.375000 0.000000
vt 0.375000 1.000000
vt 0.312500 1.000000
f 75/75 76/76 77/77 78/78
v 0.000000 0.070000 0.180000
v 0.022627 0.092627 0.180000
v 0.012246 0.099564 0.180000
vt 0.000000 0.000000
vt 1.000000 0.000000
vt 1.000000 1.000000
f 79/79 80/80 81/81
v 0.000000 0.070000 1.020000
v 0.012246 0.099564 1.020000
v 0.022627 0.092627 1.020000
vt 0.000000 0.000000
vt 1.000000 0.000000
vt 1.000000 1.000000
f 82/82 83/83 84/84
v 0.022627 0.092627 0.180000
v 0.029564 0.082246 0.180000
v 0.029564 0.082246 1.020000
v 0.022627 0.092627 1.020000
vt 0.375000 0.000000
vt 0.437500 0.000000
vt 0.437500 1.000000
vt 0.375000 1.000000
f 85/85 86/86 87/87 88/88
v 0.000000 0.070000 0.180000
v 0.029564 0.082246 0.180000
v 0.022627 0.092627 0.180000
vt 0.000000 0.000000
vt 1.000000 0.000000
vt 1.000000 1.000000
f 89/89 90/90 91/91
v 0.000000 0.070000 1.020000
v 0.022627 0.092627 1.020000
v 0.029564 0.082246 1.020000
vt 0.000000 0.000000
vt 1.000000 0.000000
vt 1.000000 1.000000
f 92/92 93/93 94/94
v 0.029564 0.082246 0.180000
v 0.032000 0.070000 0.180000
v 0.032000 0.070000 1.020000
v 0.029564 0.082246 1.020000
vt 0.437500 0.000000
vt 0.500000 0.000000
vt 0.500000 1.000000
vt 0.437500 1.000000
f 95/95 96/96 97/97 98/98
v 0.000000 0.070000 0.180000
v 0.032000 0.070000 0.180000
v 0.029564 0.082246 0.180000
vt 0.000000 0.000000
vt 1.000000 0.000000
vt 1.000000 1.000000
f 99/99 100/100 101/101
v 0.000000 0.070000 1.020000
v 0.029564 0.082246 1.020000
v 0.032000 0.070000 1.020000
vt 0.000000 0.000000
vt 1.000000 0.000000
vt 1.000000 1.000000
f 102/102 103/103 104/104
v 0.032000 0.070000 0.180000
v 0.029564 0.057754 0.180000
v 0.029564 0.057754 1.020000
v 0.032000 0.070000 1.020000
vt 0.500000 0.000000
vt 0.562500 0.000000
vt 0.562500 1.000000
vt 0.500000 1.000000
f 105/105 106/106 107/107 108/108
v 0.000000 0.070000 0.180000
v 0.029564 0.057754 0.180000
v 0.032000 0.070000 0.180000
vt 0.000000 0.000000
vt 1.000000 0.000000
vt 1.000000 1.000000
f 109/109 110/110 111/111
v 0.000000 0.070000 1.020000
v 0.032000 0.070000 1.020000
v 0.029564 0.057754 1.020000
vt 0.000000 0.000000
vt 1.000000 0.000000
vt 1.000000 1.000000
f 112/112 113/113 114/114
v 0.029564 0.057754 0.180000
v 0.022627 0.047373 0.180000
v 0.022627 0.047373 1.020000
v 0.029564 0.057754 1.020000
vt 0.562500 0.000000
vt 0.625000 0.000000
vt 0.625000 1.000000
vt 0.562500 1.000000
f 115/115 116/116 117/117 118/118
v 0.000000 0.070000 0.180000
v 0.022627 0.047373 0.180000
v 0.029564 0.057754 0.180000
vt 0.000000 0.000000
vt 1.000000 0.000000
vt 1.000000 1.000000
f 119/119 120/120 121/121
v 0.000000 0.070000 1.020000
v 0.029564 0.057754 1.020000
v 0.022627 0.047373 1.020000
vt 0.000000 0.000000
vt 1.000000 0.000000
vt 1.000000 1.000000
f 122/122 123/123 124/124
v 0.022627 0.047373 0.180000
v 0.012246 0.040436 0.180000
v 0.012246 0.040436 1.020000
v 0.022627 0.047373 1.020000
vt 0.625000 0.000000
vt 0.687500 0.000000
vt 0.687500 1.000000
vt 0.625000 1.000000
f 125/125 126/126 127/127 128/128
v 0.000000 0.070000 0.180000
v 0.012246 0.040436 0.180000
v 0.022627 0.047373 0.180000
vt 0.000000 0.000000
vt 1.000000 0.000000
vt 1.000000 1.000000
f 129/129 130/130 131/131
v 0.000000 0.070000 1.020000
v 0.022627 0.047373 1.020000
v 0.012246 0.040436 1.020000
vt 0.000000 0.000000
vt 1.000000 0.000000
vt 1.000000 1.000000
f 132/132 133/133 134/134
v 0.012246 0.040436 0.180000
v 0.000000 0.038000 0.180000
v 0.000000 0.038000 1.020000
v 0.012246 0.040436 1.020000
vt 0.687500 0.000000
vt 0.750000 0.000000
vt 0.750000 1.000000
vt 0.687500 1.000000
f 135/135 136/136 137/137 138/138
v 0.000000 0.070000 0.180000
v 0.000000 0.038000 0.180000
v 0.012246 0.040436 0.180000
vt 0.000000 0.000000
vt 1.000000 0.000000
vt 1.000000 1.000000
f 139/139 140/140 141/141
v 0.000000 0.070000 1.020000
v 0.012246 0.040436 1.020000
v 0.000000 0.038000 1.020000
vt 0.000000 0.000000
vt 1.000000 0.000000
vt 1.000000 1.000000
f 142/142 143/143 144/144
v 0.000000 0.038000 0.180000
v -0.012246 0.040436 0.180000
v -0.012246 0.040436 1.020000
v 0.000000 0.038000 1.020000
vt 0.750000 0.000000
vt 0.812500 0.000000
vt 0.812500 1.000000
vt 0.750000 1.000000
f 145/145 146/146 147/147 148/148
v 0.000000 0.070000 0.180000
v -0.012246 0.040436 0.180000
v 0.000000 0.038000 0.180000
vt 0.000000 0.000000
vt 1.000000 0.000000
vt 1.000000 1.000000
f 149/149 150/150 151/151
v 0.000000 0.070000 1.020000
v 0.000000 0.038000 1.020000
v -0.012246 0.040436 1.020000
vt 0.000000 0.000000
vt 1.000000 0.000000
vt 1.000000 1.000000
f 152/152 153/153 154/154
v -0.012246 0.040436 0.180000
v -0.022627 0.047373 0.180000
v -0.022627 0.047373 1.020000
v -0.012246 0.040436 1.020000
vt 0.812500 0.000000
vt 0.875000 0.000000
vt 0.875000 1.000000
vt 0.812500 1.000000
f 155/155 156/156 157/157 158/158
v 0.000000 0.070000 0.180000
v -0.022627 0.047373 0.180000
v -0.012246 0.040436 0.180000
vt 0.000000 0.000000
vt 1.000000 0.000000
vt 1.000000 1.000000
f 159/159 160/160 161/161
v 0.000000 0.070000 1.020000
v -0.012246 0.040436 1.020000
v -0.022627 0.047373 1.020000
vt 0.000000 0.000000
vt 1.000000 0.000000
vt 1.000000 1.000000
f 162/162 163/163 164/164
v -0.022627 0.047373 0.180000
v -0.029564 0.057754 0.180000
v -0.029564 0.057754 1.020000
v -0.022627 0.047373 1.020000
vt 0.875000 0.000000
vt 0.937500 0.000000
vt 0.937500 1.000000
vt 0.875000 1.000000
f 165/165 166/166 167/167 168/168
v 0.000000 0.070000 0.180000
v -0.029564 0.057754 0.180000
v -0.022627 0.047373 0.180000
vt 0.000000 0.000000
vt 1.000000 0.000000
vt 1.000000 1.000000
f 169/169 170/170 171/171
v 0.000000 0.070000 1.020000
v -0.022627 0.047373 1.020000
v -0.029564 0.057754 1.020000
vt 0.000000 0.000000
vt 1.000000 0.000000
vt 1.000000 1.000000
f 172/172 173/173 174/174
v -0.029564 0.057754 0.180000
v -0.032000 0.070000 0.180000
v -0.032000 0.070000 1.020000
v -0.029564 0.057754 1.020000
vt 0.937500 0.000000
vt 1.000000 0.000000
vt 1.000000 1.000000
vt 0.937500 1.000000
f 175/175 176/176 177/177 178/178
v 0.000000 0.070000 0.180000
v -0.032000 0.070000 0.180000
v -0.029564 0.057754 0.180000
vt 0.000000 0.000000
vt 1.000000 0.000000
vt 1.000000 1.000000
f 179/179 180/180 181/181
v 0.000000 0.070000 1.020000
v -0.029564 0.057754 1.020000
v -0.032000 0.070000 1.020000
vt 0.000000 0.000000
vt 1.000000 0.000000
vt 1.000000 1.000000
f 182/182 183/183 184/184
usemtl accent
v -0.052000 0.070000 0.280000
v -0.045033 0.096000 0.280000
v -0.045033 0.096000 0.315000
v -0.052000 0.070000 0.315000
vt 0.000000 0.000000
vt 0.083333 0.000000
vt 0.083333 1.000000
vt 0.000000 1.000000
f 185/185 186/186 187/187 188/188
v -0.045033 0.096000 0.280000
v -0.026000 0.115033 0.280000
v -0.026000 0.115033 0.315000
v -0.045033 0.096000 0.315000
vt 0.083333 0.000000
vt 0.166667 0.000000
vt 0.166667 1.000000
vt 0.083333 1.000000
f 189/189 190/190 191/191 192/192
v -0.026000 0.115033 0.280000
v -0.000000 0.122000 0.280000
v -0.000000 0.122000 0.315000
v -0.026000 0.115033 0.315000
vt 0.166667 0.000000
vt 0.250000 0.000000
vt 0.250000 1.000000
vt 0.166667 1.000000
f 193/193 194/194 195/195 196/196
v -0.000000 0.122000 0.280000
v 0.026000 0.115033 0.280000
v 0.026000 0.115033 0.315000
v -0.000000 0.122000 0.315000
vt 0.250000 0.000000
vt 0.333333 0.000000
vt 0.333333 1.000000
vt 0.250000 1.000000
f 197/197 198/198 199/199 200/200
v 0.026000 0.115033 0.280000
v 0.045033 0.096000 0.280000
v 0.045033 0.096000 0.315000
v 0.026000 0.115033 0.315000
vt 0.333333 0.000000
vt 0.416667 0.000000
vt 0.416667 1.000000
vt 0.333333 1.000000
f 201/201 202/202 203/203 204/204
v 0.045033 0.096000 0.280000
v 0.052000 0.070000 0.280000
v 0.052000 0.070000 0.315000
v 0.045033 0.096000 0.315000
vt 0.416667 0.000000
vt 0.500000 0.000000
vt 0.500000 1.000000
vt 0.416667 1.000000
f 205/205 206/206 207/207 208/208
v 0.052000 0.070000 0.280000
v 0.045033 0.044000 0.280000
v 0.045033 0.044000 0.315000
v 0.052000 0.070000 0.315000
vt 0.500000 0.000000
vt 0.583333 0.000000
vt 0.583333 1.000000
vt 0.500000 1.000000
f 209/209 210/210 211/211 212/212
v 0.045033 0.044000 0.280000
v 0.026000 0.024967 0.280000
v 0.026000 0.024967 0.315000
v 0.045033 0.044000 0.315000
vt 0.583333 0.000000
vt 0.666667 0.000000
vt 0.666667 1.000000
vt 0.583333 1.000000
f 213/213 214/214 215/215 216/216
v 0.026000 0.024967 0.280000
v 0.000000 0.018000 0.280000
v 0.000000 0.018000 0.315000
v 0.026000 0.024967 0.315000
vt 0.666667 0.000000
vt 0.750000 0.000000
vt 0.750000 1.000000
vt 0.666667 1.000000
f 217/217 218/218 219/219 220/220
v 0.000000 0.018000 0.280000
v -0.026000 0.024967 0.280000
v -0.026000 0.024967 0.315000
v 0.000000 0.018000 0.315000
vt 0.750000 0.000000
vt 0.833333 0.000000
vt 0.833333 1.000000
vt 0.750000 1.000000
f 221/221 222/222 223/223 224/224
v -0.026000 0.024967 0.280000
v -0.045033 0.044000 0.280000
v -0.045033 0.044000 0.315000
v -0.026000 0.024967 0.315000
vt 0.833333 0.000000
vt 0.916667 0.000000
vt 0.916667 1.000000
vt 0.833333 1.000000
f 225/225 226/226 227/227 228/228
v -0.045033 0.044000 0.280000
v -0.052000 0.070000 0.280000
v -0.052000 0.070000 0.315000
v -0.045033 0.044000 0.315000
vt 0.916667 0.000000
vt 1.000000 0.000000
vt 1.000000 1.000000
vt 0.916667 1.000000
f 229/229 230/230 231/231 232/232
v -0.052000 0.070000 0.400000
v -0.045033 0.096000 0.400000
v -0.045033 0.096000 0.435000
v -0.052000 0.070000 0.435000
vt 0.000000 0.000000
vt 0.083333 0.000000
vt 0.083333 1.000000
vt 0.000000 1.000000
f 233/233 234/234 235/235 236/236
v -0.045033 0.096000 0.400000
v -0.026000 0.115033 0.400000
v -0.026000 0.115033 0.435000
v -0.045033 0.096000 0.435000
vt 0.083333 0.000000
vt 0.166667 0.000000
vt 0.166667 1.000000
vt 0.083333 1.000000
f 237/237 238/238 239/239 240/240
v -0.026000 0.115033 0.400000
v -0.000000 0.122000 0.400000
v -0.000000 0.122000 0.435000
v -0.026000 0.115033 0.435000
vt 0.166667 0.000000
vt 0.250000 0.000000
vt 0.250000 1.000000
vt 0.166667 1.000000
f 241/241 242/242 243/243 244/244
v -0.000000 0.122000 0.400000
v 0.026000 0.115033 0.400000
v 0.026000 0.115033 0.435000
v -0.000000 0.122000 0.435000
vt 0.250000 0.000000
vt 0.333333 0.000000
vt 0.333333 1.000000
vt 0.250000 1.000000
f 245/245 246/246 247/247 248/248
v 0.026000 0.115033 0.400000
v 0.045033 0.096000 0.400000
v 0.045033 0.096000 0.435000
v 0.026000 0.115033 0.435000
vt 0.333333 0.000000
vt 0.416667 0.000000
vt 0.416667 1.000000
vt 0.333333 1.000000
f 249/249 250/250 251/251 252/252
v 0.045033 0.096000 0.400000
v 0.052000 0.070000 0.400000
v 0.052000 0.070000 0.435000
v 0.045033 0.096000 0.435000
vt 0.416667 0.000000
vt 0.500000 0.000000
vt 0.500000 1.000000
vt 0.416667 1.000000
f 253/253 254/254 255/255 256/256
v 0.052000 0.070000 0.400000
v 0.045033 0.044000 0.400000
v 0.045033 0.044000 0.435000
v 0.052000 0.070000 0.435000
vt 0.500000 0.000000
vt 0.583333 0.000000
vt 0.583333 1.000000
vt 0.500000 1.000000
f 257/257 258/258 259/259 260/260
v 0.045033 0.044000 0.400000
v 0.026000 0.024967 0.400000
v 0.026000 0.024967 0.435000
v 0.045033 0.044000 0.435000
vt 0.583333 0.000000
vt 0.666667 0.000000
vt 0.666667 1.000000
vt 0.583333 1.000000
f 261/261 262/262 263/263 264/264
v 0.026000 0.024967 0.400000
v 0.000000 0.018000 0.400000
v 0.000000 0.018000 0.435000
v 0.026000 0.024967 0.435000
vt 0.666667 0.000000
vt 0.750000 0.000000
vt 0.750000 1.000000
vt 0.666667 1.000000
f 265/265 266/266 267/267 268/268
v 0.000000 0.018000 0.400000
v -0.026000 0.024967 0.400000
v -0.026000 0.024967 0.435000
v 0.000000 0.018000 0.435000
vt 0.750000 0.000000
vt 0.833333 0.000000
vt 0.833333 1.000000
vt 0.750000 1.000000
f 269/269 270/270 271/271 272/272
v -0.026000 0.024967 0.400000
v -0.045033 0.044000 0.400000
v -0.045033 0.044000 0.435000
v -0.026000 0.024967 0.435000
vt 0.833333 0.000000
vt 0.916667 0.000000
vt 0.916667 1.000000
vt 0.833333 1.000000
f 273/273 274/274 275/275 276/276
v -0.045033 0.044000 0.400000
v -0.052000 0.070000 0.400000
v -0.052000 0.070000 0.435000
v -0.045033 0.044000 0.435000
vt 0.916667 0.000000
vt 1.000000 0.000000
vt 1.000000 1.000000
vt 0.916667 1.000000
f 277/277 278/278 279/279 280/280
v -0.052000 0.070000 0.520000
v -0.045033 0.096000 0.520000
v -0.045033 0.096000 0.555000
v -0.052000 0.070000 0.555000
vt 0.000000 0.000000
vt 0.083333 0.000000
vt 0.083333 1.000000
vt 0.000000 1.000000
f 281/281 282/282 283/283 284/284
v -0.045033 0.096000 0.520000
v -0.026000 0.115033 0.520000
v -0.026000 0.115033 0.555000
v -0.045033 0.096000 0.555000
vt 0.083333 0.000000
vt 0.166667 0.000000
vt 0.166667 1.000000
vt 0.083333 1.000000
f 285/285 286/286 287/287 288/288
v -0.026000 0.115033 0.520000
v -0.000000 0.122000 0.520000
v -0.000000 0.122000 0.555000
v -0.026000 0.115033 0.555000
vt 0.166667 0.000000
vt 0.250000 0.000000
vt 0.250000 1.000000
vt 0.166667 1.000000
f 289/289 290/290 291/291 292/292
v -0.000000 0.122000 0.520000
v 0.026000 0.115033 0.520000
v 0.026000 0.115033 0.555000
v -0.000000 0.122000 0.555000
vt 0.250000 0.000000
vt 0.333333 0.000000
vt 0.333333 1.000000
vt 0.250000 1.000000
f 293/293 294/294 295/295 296/296
v 0.026000 0.115033 0.520000
v 0.045033 0.096000 0.520000
v 0.045033 0.096000 0.555000
v 0.026000 0.115033 0.555000
vt 0.333333 0.000000
vt 0.416667 0.000000
vt 0.416667 1.000000
vt 0.333333 1.000000
f 297/297 298/298 299/299 300/300
v 0.045033 0.096000 0.520000
v 0.052000 0.070000 0.520000
v 0.052000 0.070000 0.555000
v 0.045033 0.096000 0.555000
vt 0.416667 0.000000
vt 0.500000 0.000000
vt 0.500000 1.000000
vt 0.416667 1.000000
f 301/301 302/302 303/303 304/304
v 0.052000 0.070000 0.520000
v 0.045033 0.044000 0.520000
v 0.045033 0.044000 0.555000
v 0.052000 0.070000 0.555000
vt 0.500000 0.000000
vt 0.583333 0.000000
vt 0.583333 1.000000
vt 0.500000 1.000000
f 305/305 306/306 307/307 308/308
v 0.045033 0.044000 0.520000
v 0.026000 0.024967 0.520000
v 0.026000 0.024967 0.555000
v 0.045033 0.044000 0.555000
vt 0.583333 0.000000
vt 0.666667 0.000000
vt 0.666667 1.000000
vt 0.583333 1.000000
f 309/309 310/310 311/311 312/312
v 0.026000 0.024967 0.520000
v 0.000000 0.018000 0.520000
v 0.000000 0.018000 0.555000
v 0.026000 0.024967 0.555000
vt 0.666667 0.000000
vt 0.750000 0.000000
vt 0.750000 1.000000
vt 0.666667 1.000000
f 313/313 314/314 315/315 316/316
v 0.000000 0.018000 0.520000
v -0.026000 0.024967 0.520000
v -0.026000 0.024967 0.555000
v 0.000000 0.018000 0.555000
vt 0.750000 0.000000
vt 0.833333 0.000000
vt 0.833333 1.000000
vt 0.750000 1.000000
f 317/317 318/318 319/319 320/320
v -0.026000 0.024967 0.520000
v -0.045033 0.044000 0.520000
v -0.045033 0.044000 0.555000
v -0.026000 0.024967 0.555000
vt 0.833333 0.000000
vt 0.916667 0.000000
vt 0.916667 1.000000
vt 0.833333 1.000000
f 321/321 322/322 323/323 324/324
v -0.045033 0.044000 0.520000
v -0.052000 0.070000 0.520000
v -0.052000 0.070000 0.555000
v -0.045033 0.044000 0.555000
vt 0.916667 0.000000
vt 1.000000 0.000000
vt 1.000000 1.000000
vt 0.916667 1.000000
f 325/325 326/326 327/327 328/328
v -0.052000 0.070000 0.640000
v -0.045033 0.096000 0.640000
v -0.045033 0.096000 0.675000
v -0.052000 0.070000 0.675000
vt 0.000000 0.000000
vt 0.083333 0.000000
vt 0.083333 1.000000
vt 0.000000 1.000000
f 329/329 330/330 331/331 332/332
v -0.045033 0.096000 0.640000
v -0.026000 0.115033 0.640000
v -0.026000 0.115033 0.675000
v -0.045033 0.096000 0.675000
vt 0.083333 0.000000
vt 0.166667 0.000000
vt 0.166667 1.000000
vt 0.083333 1.000000
f 333/333 334/334 335/335 336/336
v -0.026000 0.115033 0.640000
v -0.000000 0.122000 0.640000
v -0.000000 0.122000 0.675000
v -0.026000 0.115033 0.675000
vt 0.166667 0.000000
vt 0.250000 0.000000
vt 0.250000 1.000000
vt 0.166667 1.000000
f 337/337 338/338 339/339 340/340
v -0.000000 0.122000 0.640000
v 0.026000 0.115033 0.640000
v 0.026000 0.115033 0.675000
v -0.000000 0.122000 0.675000
vt 0.250000 0.000000
vt 0.333333 0.000000
vt 0.333333 1.000000
vt 0.250000 1.000000
f 341/341 342/342 343/343 344/344
v 0.026000 0.115033 0.640000
v 0.045033 0.096000 0.640000
v 0.045033 0.096000 0.675000
v 0.026000 0.115033 0.675000
vt 0.333333 0.000000
vt 0.416667 0.000000
vt 0.416667 1.000000
vt 0.333333 1.000000
f 345/345 346/346 347/347 348/348
v 0.045033 0.096000 0.640000
v 0.052000 0.070000 0.640000
v 0.052000 0.070000 0.675000
v 0.045033 0.096000 0.675000
vt 0.416667 0.000000
vt 0.500000 0.000000
vt 0.500000 1.000000
vt 0.416667 1.000000
f 349/349 350/350 351/351 352/352
v 0.052000 0.070000 0.640000
v 0.045033 0.044000 0.640000
v 0.045033 0.044000 0.675000
v 0.052000 0.070000 0.675000
vt 0.500000 0.000000
vt 0.583333 0.000000
vt 0.583333 1.000000
vt 0.500000 1.000000
f 353/353 354/354 355/355 356/356
v 0.045033 0.044000 0.640000
v 0.026000 0.024967 0.640000
v 0.026000 0.024967 0.675000
v 0.045033 0.044000 0.675000
vt 0.583333 0.000000
vt 0.666667 0.000000
vt 0.666667 1.000000
vt 0.583333 1.000000
f 357/357 358/358 359/359 360/360
v 0.026000 0.024967 0.640000
v 0.000000 0.018000 0.640000
v 0.000000 0.018000 0.675000
v 0.026000 0.024967 0.675000
vt 0.666667 0.000000
vt 0.750000 0.000000
vt 0.750000 1.000000
vt 0.666667 1.000000
f 361/361 362/362 363/363 364/364
v 0.000000 0.018000 0.640000
v -0.026000 0.024967 0.640000
v -0.026000 0.024967 0.675000
v 0.000000 0.018000 0.675000
vt 0.750000 0.000000
vt 0.833333 0.000000
vt 0.833333 1.000000
vt 0.750000 1.000000
f 365/365 366/366 367/367 368/368
v -0.026000 0.024967 0.640000
v -0.045033 0.044000 0.640000
v -0.045033 0.044000 0.675000
v -0.026000 0.024967 0.675000
vt 0.833333 0.000000
vt 0.916667 0.000000
vt 0.916667 1.000000
vt 0.833333 1.000000
f 369/369 370/370 371/371 372/372
v -0.045033 0.044000 0.640000
v -0.052000 0.070000 0.640000
v -0.052000 0.070000 0.675000
v -0.045033 0.044000 0.675000
vt 0.916667 0.000000
vt 1.000000 0.000000
vt 1.000000 1.000000
vt 0.916667 1.000000
f 373/373 374/374 375/375 376/376
v -0.052000 0.070000 0.760000
v -0.045033 0.096000 0.760000
v -0.045033 0.096000 0.795000
v -0.052000 0.070000 0.795000
vt 0.000000 0.000000
vt 0.083333 0.000000
vt 0.083333 1.000000
vt 0.000000 1.000000
f 377/377 378/378 379/379 380/380
v -0.045033 0.096000 0.760000
v -0.026000 0.115033 0.760000
v -0.026000 0.115033 0.795000
v -0.045033 0.096000 0.795000
vt 0.083333 0.000000
vt 0.166667 0.000000
vt 0.166667 1.000000
vt 0.083333 1.000000
f 381/381 382/382 383/383 384/384
v -0.026000 0.115033 0.760000
v -0.000000 0.122000 0.760000
v -0.000000 0.122000 0.795000
v -0.026000 0.115033 0.795000
vt 0.166667 0.000000
vt 0.250000 0.000000
vt 0.250000 1.000000
vt 0.166667 1.000000
f 385/385 386/386 387/387 388/388
v -0.000000 0.122000 0.760000
v 0.026000 0.115033 0.760000
v 0.026000 0.115033 0.795000
v -0.000000 0.122000 0.795000
vt 0.250000 0.000000
vt 0.333333 0.000000
vt 0.333333 1.000000
vt 0.250000 1.000000
f 389/389 390/390 391/391 392/392
v 0.026000 0.115033 0.760000
v 0.045033 0.096000 0.760000
v 0.045033 0.096000 0.795000
v 0.026000 0.115033 0.795000
vt 0.333333 0.000000
vt 0.416667 0.000000
vt 0.416667 1.000000
vt 0.333333 1.000000
f 393/393 394/394 395/395 396/396
v 0.045033 0.096000 0.760000
v 0.052000 0.070000 0.760000
v 0.052000 0.070000 0.795000
v 0.045033 0.096000 0.795000
vt 0.416667 0.000000
vt 0.500000 0.000000
vt 0.500000 1.000000
vt 0.416667 1.000000
f 397/397 398/398 399/399 400/400
v 0.052000 0.070000 0.760000
v 0.045033 0.044000 0.760000
v 0.045033 0.044000 0.795000
v 0.052000 0.070000 0.795000
vt 0.500000 0.000000
vt 0.583333 0.000000
vt 0.583333 1.000000
vt 0.500000 1.000000
f 401/401 402/402 403/403 404/404
v 0.045033 0.044000 0.760000
v 0.026000 0.024967 0.760000
v 0.026000 0.024967 0.795000
v 0.045033 0.044000 0.795000
vt 0.583333 0.000000
vt 0.666667 0.000000
vt 0.666667 1.000000
vt 0.583333 1.000000
f 405/405 406/406 407/407 408/408
v 0.026000 0.024967 0.760000
v 0.000000 0.018000 0.760000
v 0.000000 0.018000 0.795000
v 0.026000 0.024967 0.795000
vt 0.666667 0.000000
vt 0.750000 0.000000
vt 0.750000 1.000000
vt 0.666667 1.000000
f 409/409 410/410 411/411 412/412
v 0.000000 0.018000 0.760000
v -0.026000 0.024967 0.760000
v -0.026000 0.024967 0.795000
v 0.000000 0.018000 0.795000
vt 0.750000 0.000000
vt 0.833333 0.000000
vt 0.833333 1.000000
vt 0.750000 1.000000
f 413/413 414/414 415/415 416/416
v -0.026000 0.024967 0.760000
v -0.045033 0.044000 0.760000
v -0.045033 0.044000 0.795000
v -0.026000 0.024967 0.795000
vt 0.833333 0.000000
vt 0.916667 0.000000
vt 0.916667 1.000000
vt 0.833333 1.000000
f 417/417 418/418 419/419 420/420
v -0.045033 0.044000 0.760000
v -0.052000 0.070000 0.760000
v -0.052000 0.070000 0.795000
v -0.045033 0.044000 0.795000
vt 0.916667 0.000000
vt 1.000000 0.000000
vt 1.000000 1.000000
vt 0.916667 1.000000
f 421/421 422/422 423/423 424/424
v -0.052000 0.070000 0.880000
v -0.045033 0.096000 0.880000
v -0.045033 0.096000 0.915000
v -0.052000 0.070000 0.915000
vt 0.000000 0.000000
vt 0.083333 0.000000
vt 0.083333 1.000000
vt 0.000000 1.000000
f 425/425 426/426 427/427 428/428
v -0.045033 0.096000 0.880000
v -0.026000 0.115033 0.880000
v -0.026000 0.115033 0.915000
v -0.045033 0.096000 0.915000
vt 0.083333 0.000000
vt 0.166667 0.000000
vt 0.166667 1.000000
vt 0.083333 1.000000
f 429/429 430/430 431/431 432/432
v -0.026000 0.115033 0.880000
v -0.000000 0.122000 0.880000
v -0.000000 0.122000 0.915000
v -0.026000 0.115033 0.915000
vt 0.166667 0.000000
vt 0.250000 0.000000
vt 0.250000 1.000000
vt 0.166667 1.000000
f 433/433 434/434 435/435 436/436
v -0.000000 0.122000 0.880000
v 0.026000 0.115033 0.880000
v 0.026000 0.115033 0.915000
v -0.000000 0.122000 0.915000
vt 0.250000 0.000000
vt 0.333333 0.000000
vt 0.333333 1.000000
vt 0.250000 1.000000
f 437/437 438/438 439/439 440/440
v 0.026000 0.115033 0.880000
v 0.045033 0.096000 0.880000
v 0.045033 0.096000 0.915000
v 0.026000 0.115033 0.915000
vt 0.333333 0.000000
vt 0.416667 0.000000
vt 0.416667 1.000000
vt 0.333333 1.000000
f 441/441 442/442 443/443 444/444
v 0.045033 0.096000 0.880000
v 0.052000 0.070000 0.880000
v 0.052000 0.070000 0.915000
v 0.045033 0.096000 0.915000
vt 0.416667 0.000000
vt 0.500000 0.000000
vt 0.500000 1.000000
vt 0.416667 1.000000
f 445/445 446/446 447/447 448/448
v 0.052000 0.070000 0.880000
v 0.045033 0.044000 0.880000
v 0.045033 0.044000 0.915000
v 0.052000 0.070000 0.915000
vt 0.500000 0.000000
vt 0.583333 0.000000
vt 0.583333 1.000000
vt 0.500000 1.000000
f 449/449 450/450 451/451 452/452
v 0.045033 0.044000 0.880000
v 0.026000 0.024967 0.880000
v 0.026000 0.024967 0.915000
v 0.045033 0.044000 0.915000
vt 0.583333 0.000000
vt 0.666667 0.000000
vt 0.666667 1.000000
vt 0.583333 1.000000
f 453/453 454/454 455/455 456/456
v 0.026000 0.024967 0.880000
v 0.000000 0.018000 0.880000
v 0.000000 0.018000 0.915000
v 0.026000 0.024967 0.915000
vt 0.666667 0.000000
vt 0.750000 0.000000
vt 0.750000 1.000000
vt 0.666667 1.000000
f 457/457 458/458 459/459 460/460
v 0.000000 0.018000 0.880000
v -0.026000 0.024967 0.880000
v -0.026000 0.024967 0.915000
v 0.000000 0.018000 0.915000
vt 0.750000 0.000000
vt 0.833333 0.000000
vt 0.833333 1.000000
vt 0.750000 1.000000
f 461/461 462/462 463/463 464/464
v -0.026000 0.024967 0.880000
v -0.045033 0.044000 0.880000
v -0.045033 0.044000 0.915000
v -0.026000 0.024967 0.915000
vt 0.833333 0.000000
vt 0.916667 0.000000
vt 0.916667 1.000000
vt 0.833333 1.000000
f 465/465 466/466 467/467 468/468
v -0.045033 0.044000 0.880000
v -0.052000 0.070000 0.880000
v -0.052000 0.070000 0.915000
v -0.045033 0.044000 0.915000
vt 0.916667 0.000000
vt 1.000000 0.000000
vt 1.000000 1.000000
vt 0.916667 1.000000
f 469/469 470/470 471/471 472/472
usemtl dark
v -0.035000 -0.160000 -0.080000
v 0.035000 -0.160000 -0.080000
v 0.035000 0.020000 -0.080000
v -0.035000 0.020000 -0.080000
vt 0.000000 0.000000
vt 1.000000 0.000000
vt 1.000000 1.000000
vt 0.000000 1.000000
f 473/473 474/474 475/475 476/476
v 0.035000 -0.160000 0.120000
v -0.035000 -0.160000 0.120000
v -0.035000 0.020000 0.120000
v 0.035000 0.020000 0.120000
vt 0.000000 0.000000
vt 1.000000 0.000000
vt 1.000000 1.000000
vt 0.000000 1.000000
f 477/477 478/478 479/479 480/480
v -0.035000 -0.160000 0.120000
v -0.035000 -0.160000 -0.080000
v -0.035000 0.020000 -0.080000
v -0.035000 0.020000 0.120000
vt 0.000000 0.000000
vt 1.000000 0.000000
vt 1.000000 1.000000
vt 0.000000 1.000000
f 481/481 482/482 483/483 484/484
v 0.035000 -0.160000 -0.080000
v 0.035000 -0.160000 0.120000
v 0.035000 0.020000 0.120000
v 0.035000 0.020000 -0.080000
vt 0.000000 0.000000
vt 1.000000 0.000000
vt 1.000000 1.000000
vt 0.000000 1.000000
f 485/485 486/486 487/487 488/488
v -0.035000 0.020000 -0.080000
v 0.035000 0.020000 -0.080000
v 0.035000 0.020000 0.120000
v -0.035000 0.020000 0.120000
vt 0.000000 0.000000
vt 1.000000 0.000000
vt 1.000000 1.000000
vt 0.000000 1.000000
f 489/489 490/490 491/491 492/492
v -0.035000 -0.160000 0.120000
v 0.035000 -0.160000 0.120000
v 0.035000 -0.160000 -0.080000
v -0.035000 -0.160000 -0.080000
vt 0.000000 0.000000
vt 1.000000 0.000000
vt 1.000000 1.000000
vt 0.000000 1.000000
f 493/493 494/494 495/495 496/496
v -0.018000 -0.040000 0.180000
v 0.018000 -0.040000 0.180000
v 0.018000 0.020000 0.180000
v -0.018000 0.020000 0.180000
vt 0.000000 0.000000
vt 1.000000 0.000000
vt 1.000000 1.000000
vt 0.000000 1.000000
f 497/497 498/498 499/499 500/500
v 0.018000 -0.040000 0.340000
v -0.018000 -0.040000 0.340000
v -0.018000 0.020000 0.340000
v 0.018000 0.020000 0.340000
vt 0.000000 0.000000
vt 1.000000 0.000000
vt 1.000000 1.000000
vt 0.000000 1.000000
f 501/501 502/502 503/503 504/504
v -0.018000 -0.040000 0.340000
v -0.018000 -0.040000 0.180000
v -0.018000 0.020000 0.180000
v -0.018000 0.020000 0.340000
vt 0.000000 0.000000
vt 1.000000 0.000000
vt 1.000000 1.000000
vt 0.000000 1.000000
f 505/505 506/506 507/507 508/508
v 0.018000 -0.040000 0.180000
v 0.018000 -0.040000 0.340000
v 0.018000 0.020000 0.340000
v 0.018000 0.020000 0.180000
vt 0.000000 0.000000
vt 1.000000 0.000000
vt 1.000000 1.000000
vt 0.000000 1.000000
f 509/509 510/510 511/511 512/512
v -0.018000 0.020000 0.180000
v 0.018000 0.020000 0.180000
v 0.018000 0.020000 0.340000
v -0.018000 0.020000 0.340000
vt 0.000000 0.000000
vt 1.000000 0.000000
vt 1.000000 1.000000
vt 0.000000 1.000000
f 513/513 514/514 515/515 516/516
v -0.018000 -0.040000 0.340000
v 0.018000 -0.040000 0.340000
v 0.018000 -0.040000 0.180000
v -0.018000 -0.040000 0.180000
vt 0.000000 0.000000
vt 1.000000 0.000000
vt 1.000000 1.000000
vt 0.000000 1.000000
f 517/517 518/518 519/519 520/520
usemtl glass
v -0.050000 0.100000 -0.240000
v 0.050000 0.100000 -0.240000
v 0.050000 0.200000 -0.240000
v -0.050000 0.200000 -0.240000
vt 0.000000 0.000000
vt 1.000000 0.000000
vt 1.000000 1.000000
vt 0.000000 1.000000
f 521/521 522/522 523/523 524/524
v 0.050000 0.100000 0.080000
v -0.050000 0.100000 0.080000
v -0.050000 0.200000 0.080000
v 0.050000 0.200000 0.080000
vt 0.000000 0.000000
vt 1.000000 0.000000
vt 1.000000 1.000000
vt 0.000000 1.000000
f 525/525 526/526 527/527 528/528
v -0.050000 0.100000 0.080000
v -0.050000 0.100000 -0.240000
v -0.050000 0.200000 -0.240000
v -0.050000 0.200000 0.080000
vt 0.000000 0.000000
vt 1.000000 0.000000
vt 1.000000 1.000000
vt 0.000000 1.000000
f 529/529 530/530 531/531 532/532
v 0.050000 0.100000 -0.240000
v 0.050000 0.100000 0.080000
v 0.050000 0.200000 0.080000
v 0.050000 0.200000 -0.240000
vt 0.000000 0.000000
vt 1.000000 0.000000
vt 1.000000 1.000000
vt 0.000000 1.000000
f 533/533 534/534 535/535 536/536
v -0.050000 0.200000 -0.240000
v 0.050000 0.200000 -0.240000
v 0.050000 0.200000 0.080000
v -0.050000 0.200000 0.080000
vt 0.000000 0.000000
vt 1.000000 0.000000
vt 1.000000 1.000000
vt 0.000000 1.000000
f 537/537 538/538 539/539 540/540
v -0.050000 0.100000 0.080000
v 0.050000 0.100000 0.080000
v 0.050000 0.100000 -0.240000
v -0.050000 0.100000 -0.240000
vt 0.000000 0.000000
vt 1.000000 0.000000
vt 1.000000 1.000000
vt 0.000000 1.000000
f 541/541 542/542 543/543 544/544
usemtl yellow
v -0.070000 0.000000 0.320000
v 0.070000 0.000000 0.320000
v 0.070000 0.160000 0.320000
v -0.070000 0.160000 0.320000
vt 0.000000 0.000000
vt 1.000000 0.000000
vt 1.000000 1.000000
vt 0.000000 1.000000
f 545/545 546/546 547/547 548/548
v 0.070000 0.000000 0.500000
v -0.070000 0.000000 0.500000
v -0.070000 0.160000 0.500000
v 0.070000 0.160000 0.500000
vt 0.000000 0.000000
vt 1.000000 0.000000
vt 1.000000 1.000000
vt 0.000000 1.000000
f 549/549 550/550 551/551 552/552
v -0.070000 0.000000 0.500000
v -0.070000 0.000000 0.320000
v -0.070000 0.160000 0.320000
v -0.070000 0.160000 0.500000
vt 0.000000 0.000000
vt 1.000000 0.000000
vt 1.000000 1.000000
vt 0.000000 1.000000
f 553/553 554/554 555/555 556/556
v 0.070000 0.000000 0.320000
v 0.070000 0.000000 0.500000
v 0.070000 0.160000 0.500000
v 0.070000 0.160000 0.320000
vt 0.000000 0.000000
vt 1.000000 0.000000
vt 1.000000 1.000000
vt 0.000000 1.000000
f 557/557 558/558 559/559 560/560
v -0.070000 0.160000 0.320000
v 0.070000 0.160000 0.320000
v 0.070000 0.160000 0.500000
v -0.070000 0.160000 0.500000
vt 0.000000 0.000000
vt 1.000000 0.000000
vt 1.000000 1.000000
vt 0.000000 1.000000
f 561/561 562/562 563/563 564/564
v -0.070000 0.000000 0.500000
v 0.070000 0.000000 0.500000
v 0.070000 0.000000 0.320000
v -0.070000 0.000000 0.320000
vt 0.000000 0.000000
vt 1.000000 0.000000
vt 1.000000 1.000000
vt 0.000000 1.000000
f 565/565 566/566 567/567 568/568
usemtl body
v 0.040000 0.020000 -0.100000
v 0.120000 0.020000 -0.100000
v 0.120000 0.100000 -0.100000
v 0.040000 0.100000 -0.100000
vt 0.000000 0.000000
vt 1.000000 0.000000
vt 1.000000 1.000000
vt 0.000000 1.000000
f 569/569 570/570 571/571 572/572
v 0.120000 0.020000 0.160000
v 0.040000 0.020000 0.160000
v 0.040000 0.100000 0.160000
v 0.120000 0.100000 0.160000
vt 0.000000 0.000000
vt 1.000000 0.000000
vt 1.000000 1.000000
vt 0.000000 1.000000
f 573/573 574/574 575/575 576/576
v 0.040000 0.020000 0.160000
v 0.040000 0.020000 -0.100000
v 0.040000 0.100000 -0.100000
v 0.040000 0.100000 0.160000
vt 0.000000 0.000000
vt 1.000000 0.000000
vt 1.000000 1.000000
vt 0.000000 1.000000
f 577/577 578/578 579/579 580/580
v 0.120000 0.020000 -0.100000
v 0.120000 0.020000 0.160000
v 0.120000 0.100000 0.160000
v 0.120000 0.100000 -0.100000
vt 0.000000 0.000000
vt 1.000000 0.000000
vt 1.000000 1.000000
vt 0.000000 1.000000
f 581/581 582/582 583/583 584/584
v 0.040000 0.100000 -0.100000
v 0.120000 0.100000 -0.100000
v 0.120000 0.100000 0.160000
v 0.040000 0.100000 0.160000
vt 0.000000 0.000000
vt 1.000000 0.000000
vt 1.000000 1.000000
vt 0.000000 1.000000
f 585/585 586/586 587/587 588/588
v 0.040000 0.020000 0.160000
v 0.120000 0.020000 0.160000
v 0.120000 0.020000 -0.100000
v 0.040000 0.020000 -0.100000
vt 0.000000 0.000000
vt 1.000000 0.000000
vt 1.000000 1.000000
vt 0.000000 1.000000
f 589/589 590/590 591/591 592/592
usemtl dark
v -0.022000 0.070000 0.980000
v -0.017798 0.082931 0.980000
v -0.017798 0.082931 1.080000
v -0.022000 0.070000 1.080000
vt 0.000000 0.000000
vt 0.100000 0.000000
vt 0.100000 1.000000
vt 0.000000 1.000000
f 593/593 594/594 595/595 596/596
v 0.000000 0.070000 0.980000
v -0.017798 0.082931 0.980000
v -0.022000 0.070000 0.980000
vt 0.000000 0.000000
vt 1.000000 0.000000
vt 1.000000 1.000000
f 597/597 598/598 599/599
v 0.000000 0.070000 1.080000
v -0.022000 0.070000 1.080000
v -0.017798 0.082931 1.080000
vt 0.000000 0.000000
vt 1.000000 0.000000
vt 1.000000 1.000000
f 600/600 601/601 602/602
v -0.017798 0.082931 0.980000
v -0.006798 0.090923 0.980000
v -0.006798 0.090923 1.080000
v -0.017798 0.082931 1.080000
vt 0.100000 0.000000
vt 0.200000 0.000000
vt 0.200000 1.000000
vt 0.100000 1.000000
f 603/603 604/604 605/605 606/606
v 0.000000 0.070000 0.980000
v -0.006798 0.090923 0.980000
v -0.017798 0.082931 0.980000
vt 0.000000 0.000000
vt 1.000000 0.000000
vt 1.000000 1.000000
f 607/607 608/608 609/609
v 0.000000 0.070000 1.080000
v -0.017798 0.082931 1.080000
v -0.006798 0.090923 1.080000
vt 0.000000 0.000000
vt 1.000000 0.000000
vt 1.000000 1.000000
f 610/610 611/611 612/612
v -0.006798 0.090923 0.980000
v 0.006798 0.090923 0.980000
v 0.006798 0.090923 1.080000
v -0.006798 0.090923 1.080000
vt 0.200000 0.000000
vt 0.300000 0.000000
vt 0.300000 1.000000
vt 0.200000 1.000000
f 613/613 614/614 615/615 616/616
v 0.000000 0.070000 0.980000
v 0.006798 0.090923 0.980000
v -0.006798 0.090923 0.980000
vt 0.000000 0.000000
vt 1.000000 0.000000
vt 1.000000 1.000000
f 617/617 618/618 619/619
v 0.000000 0.070000 1.080000
v -0.006798 0.090923 1.080000
v 0.006798 0.090923 1.080000
vt 0.000000 0.000000
vt 1.000000 0.000000
vt 1.000000 1.000000
f 620/620 621/621 622/622
v 0.006798 0.090923 0.980000
v 0.017798 0.082931 0.980000
v 0.017798 0.082931 1.080000
v 0.006798 0.090923 1.080000
vt 0.300000 0.000000
vt 0.400000 0.000000
vt 0.400000 1.000000
vt 0.300000 1.000000
f 623/623 624/624 625/625 626/626
v 0.000000 0.070000 0.980000
v 0.017798 0.082931 0.980000
v 0.006798 0.090923 0.980000
vt 0.000000 0.000000
vt 1.000000 0.000000
vt 1.000000 1.000000
f 627/627 628/628 629/629
v 0.000000 0.070000 1.080000
v 0.006798 0.090923 1.080000
v 0.017798 0.082931 1.080000
vt 0.000000 0.000000
vt 1.000000 0.000000
vt 1.000000 1.000000
f 630/630 631/631 632/632
v 0.017798 0.082931 0.980000
v 0.022000 0.070000 0.980000
v 0.022000 0.070000 1.080000
v 0.017798 0.082931 1.080000
vt 0.400000 0.000000
vt 0.500000 0.000000
vt 0.500000 1.000000
vt 0.400000 1.000000
f 633/633 634/634 635/635 636/636
v 0.000000 0.070000 0.980000
v 0.022000 0.070000 0.980000
v 0.017798 0.082931 0.980000
vt 0.000000 0.000000
vt 1.000000 0.000000
vt 1.000000 1.000000
f 637/637 638/638 639/639
v 0.000000 0.070000 1.080000
v 0.017798 0.082931 1.080000
v 0.022000 0.070000 1.080000
vt 0.000000 0.000000
vt 1.000000 0.000000
vt 1.000000 1.000000
f 640/640 641/641 642/642
v 0.022000 0.070000 0.980000
v 0.017798 0.057069 0.980000
v 0.017798 0.057069 1.080000
v 0.022000 0.070000 1.080000
vt 0.500000 0.000000
vt 0.600000 0.000000
vt 0.600000 1.000000
vt 0.500000 1.000000
f 643/643 644/644 645/645 646/646
v 0.000000 0.070000 0.980000
v 0.017798 0.057069 0.980000
v 0.022000 0.070000 0.980000
vt 0.000000 0.000000
vt 1.000000 0.000000
vt 1.000000 1.000000
f 647/647 648/648 649/649
v 0.000000 0.070000 1.080000
v 0.022000 0.070000 1.080000
v 0.017798 0.057069 1.080000
vt 0.000000 0.000000
vt 1.000000 0.000000
vt 1.000000 1.000000
f 650/650 651/651 652/652
v 0.017798 0.057069 0.980000
v 0.006798 0.049077 0.980000
v 0.006798 0.049077 1.080000
v 0.017798 0.057069 1.080000
vt 0.600000 0.000000
vt 0.700000 0.000000
vt 0.700000 1.000000
vt 0.600000 1.000000
f 653/653 654/654 655/655 656/656
v 0.000000 0.070000 0.980000
v 0.006798 0.049077 0.980000
v 0.017798 0.057069 0.980000
vt 0.000000 0.000000
vt 1.000000 0.000000
vt 1.000000 1.000000
f 657/657 658/658 659/659
v 0.000000 0.070000 1.080000
v 0.017798 0.057069 1.080000
v 0.006798 0.049077 1.080000
vt 0.000000 0.000000
vt 1.000000 0.000000
vt 1.000000 1.000000
f 660/660 661/661 662/662
v 0.006798 0.049077 0.980000
v -0.006798 0.049077 0.980000
v -0.006798 0.049077 1.080000
v 0.006798 0.049077 1.080000
vt 0.700000 0.000000
vt 0.800000 0.000000
vt 0.800000 1.000000
vt 0.700000 1.000000
f 663/663 664/664 665/665 666/666
v 0.000000 0.070000 0.980000
v -0.006798 0.049077 0.980000
v 0.006798 0.049077 0.980000
vt 0.000000 0.000000
vt 1.000000 0.000000
vt 1.000000 1.000000
f 667/667 668/668 669/669
v 0.000000 0.070000 1.080000
v 0.006798 0.049077 1.080000
v -0.006798 0.049077 1.080000
vt 0.000000 0.000000
vt 1.000000 0.000000
vt 1.000000 1.000000
f 670/670 671/671 672/672
v -0.006798 0.049077 0.980000
v -0.017798 0.057069 0.980000
v -0.017798 0.057069 1.080000
v -0.006798 0.049077 1.080000
vt 0.800000 0.000000
vt 0.900000 0.000000
vt 0.900000 1.000000
vt 0.800000 1.000000
f 673/673 674/674 675/675 676/676
v 0.000000 0.070000 0.980000
v -0.017798 0.057069 0.980000
v -0.006798 0.049077 0.980000
vt 0.000000 0.000000
vt 1.000000 0.000000
vt 1.000000 1.000000
f 677/677 678/678 679/679
v 0.000000 0.070000 1.080000
v -0.006798 0.049077 1.080000
v -0.017798 0.057069 1.080000
vt 0.000000 0.000000
vt 1.000000 0.000000
vt 1.000000 1.000000
f 680/680 681/681 682/682
v -0.017798 0.057069 0.980000
v -0.022000 0.070000 0.980000
v -0.022000 0.070000 1.080000
v -0.017798 0.057069 1.080000
vt 0.900000 0.000000
vt 1.000000 0.000000
vt 1.000000 1.000000
vt 0.900000 1.000000
f 683/683 684/684 685/685 686/686
v 0.000000 0.070000 0.980000
v -0.022000 0.070000 0.980000
v -0.017798 0.057069 0.980000
vt 0.000000 0.000000
vt 1.000000 0.000000
vt 1.000000 1.000000
f 687/687 688/688 689/689
v 0.000000 0.070000 1.080000
v -0.017798 0.057069 1.080000
v -0.022000 0.070000 1.080000
vt 0.000000 0.000000
vt 1.000000 0.000000
vt 1.000000 1.000000
f 690/690 691/691 692/692
