mtllib guidance_inertial.mtl
o guidance_inertial
s 1
usemtl dark
v -0.120000 0.000000 -0.100000
v 0.120000 0.000000 -0.100000
v 0.120000 0.080000 -0.100000
v -0.120000 0.080000 -0.100000
vt 0.000000 0.000000
vt 1.000000 0.000000
vt 1.000000 1.000000
vt 0.000000 1.000000
f 1/1 2/2 3/3 4/4
v 0.120000 0.000000 0.100000
v -0.120000 0.000000 0.100000
v -0.120000 0.080000 0.100000
v 0.120000 0.080000 0.100000
vt 0.000000 0.000000
vt 1.000000 0.000000
vt 1.000000 1.000000
vt 0.000000 1.000000
f 5/5 6/6 7/7 8/8
v -0.120000 0.000000 0.100000
v -0.120000 0.000000 -0.100000
v -0.120000 0.080000 -0.100000
v -0.120000 0.080000 0.100000
vt 0.000000 0.000000
vt 1.000000 0.000000
vt 1.000000 1.000000
vt 0.000000 1.000000
f 9/9 10/10 11/11 12/12
v 0.120000 0.000000 -0.100000
v 0.120000 0.000000 0.100000
v 0.120000 0.080000 0.100000
v 0.120000 0.080000 -0.100000
vt 0.000000 0.000000
vt 1.000000 0.000000
vt 1.000000 1.000000
vt 0.000000 1.000000
f 13/13 14/14 15/15 16/16
v -0.120000 0.080000 -0.100000
v 0.120000 0.080000 -0.100000
v 0.120000 0.080000 0.100000
v -0.120000 0.080000 0.100000
vt 0.000000 0.000000
vt 1.000000 0.000000
vt 1.000000 1.000000
vt 0.000000 1.000000
f 17/17 18/18 19/19 20/20
v -0.120000 0.000000 0.100000
v 0.120000 0.000000 0.100000
v 0.120000 0.000000 -0.100000
v -0.120000 0.000000 -0.100000
vt 0.000000 0.000000
vt 1.000000 0.000000
vt 1.000000 1.000000
vt 0.000000 1.000000
f 21/21 22/22 23/23 24/24
usemtl body
v -0.100000 0.080000 -0.080000
v 0.100000 0.080000 -0.080000
v 0.100000 0.120000 -0.080000
v -0.100000 0.120000 -0.080000
vt 0.000000 0.000000
vt 1.000000 0.000000
vt 1.000000 1.000000
vt 0.000000 1.000000
f 25/25 26/26 27/27 28/28
v 0.100000 0.080000 0.080000
v -0.100000 0.080000 0.080000
v -0.100000 0.120000 0.080000
v 0.100000 0.120000 0.080000
vt 0.000000 0.000000
vt 1.000000 0.000000
vt 1.000000 1.000000
vt 0.000000 1.000000
f 29/29 30/30 31/31 32/32
v -0.100000 0.080000 0.080000
v -0.100000 0.080000 -0.080000
v -0.100000 0.120000 -0.080000
v -0.100000 0.120000 0.080000
vt 0.000000 0.000000
vt 1.000000 0.000000
vt 1.000000 1.000000
vt 0.000000 1.000000
f 33/33 34/34 35/35 36/36
v 0.100000 0.080000 -0.080000
v 0.100000 0.080000 0.080000
v 0.100000 0.120000 0.080000
v 0.100000 0.120000 -0.080000
vt 0.000000 0.000000
vt 1.000000 0.000000
vt 1.000000 1.000000
vt 0.000000 1.000000
f 37/37 38/38 39/39 40/40
v -0.100000 0.120000 -0.080000
v 0.100000 0.120000 -0.080000
v 0.100000 0.120000 0.080000
v -0.100000 0.120000 0.080000
vt 0.000000 0.000000
vt 1.000000 0.000000
vt 1.000000 1.000000
vt 0.000000 1.000000
f 41/41 42/42 43/43 44/44
v -0.100000 0.080000 0.080000
v 0.100000 0.080000 0.080000
v 0.100000 0.080000 -0.080000
v -0.100000 0.080000 -0.080000
vt 0.000000 0.000000
vt 1.000000 0.000000
vt 1.000000 1.000000
vt 0.000000 1.000000
f 45/45 46/46 47/47 48/48
usemtl glass
v 0.000000 0.120000 -0.050000
v 0.025000 0.120000 -0.043301
v 0.025000 0.200000 -0.043301
v 0.000000 0.200000 -0.050000
vt 0.000000 0.000000
vt 0.083333 0.000000
vt 0.083333 1.000000
vt 0.000000 1.000000
f 49/49 50/50 51/51 52/52
v 0.000000 0.120000 0.000000
v 0.025000 0.120000 -0.043301
v 0.000000 0.120000 -0.050000
vt 0.000000 0.000000
vt 1.000000 0.000000
vt 1.000000 1.000000
f 53/53 54/54 55/55
v 0.000000 0.200000 0.000000
v 0.000000 0.200000 -0.050000
v 0.025000 0.200000 -0.043301
vt 0.000000 0.000000
vt 1.000000 0.000000
vt 1.000000 1.000000
f 56/56 57/57 58/58
v 0.025000 0.120000 -0.043301
v 0.043301 0.120000 -0.025000
v 0.043301 0.200000 -0.025000
v 0.025000 0.200000 -0.043301
vt 0.083333 0.000000
vt 0.166667 0.000000
vt 0.166667 1.000000
vt 0.083333 1.000000
f 59/59 60/60 61/61 62/62
v 0.000000 0.120000 0.000000
v 0.043301 0.120000 -0.025000
v 0.025000 0.120000 -0.043301
vt 0.000000 0.000000
vt 1.000000 0.000000
vt 1.000000 1.000000
f 63/63 64/64 65/65
v 0.000000 0.200000 0.000000
v 0.025000 0.200000 -0.043301
v 0.043301 0.200000 -0.025000
vt 0.000000 0.000000
vt 1.000000 0.000000
vt 1.000000 1.000000
f 66/66 67/67 68/68
v 0.043301 0.120000 -0.025000
v 0.050000 0.120000 -0.000000
v 0.050000 0.200000 -0.000000
v 0.043301 0.200000 -0.025000
vt 0.166667 0.000000
vt 0.250000 0.000000
vt 0.250000 1.000000
vt 0.166667 1.000000
f 69/69 70/70 71/71 72/72
v 0.000000 0.120000 0.000000
v 0.050000 0.120000 -0.000000
v 0.043301 0.120000 -0.025000
vt 0.000000 0.000000
vt 1.000000 0.000000
vt 1.000000 1.000000
f 73/73 74/74 75/75
v 0.000000 0.200000 0.000000
v 0.043301 0.200000 -0.025000
v 0.050000 0.200000 -0.000000
vt 0.000000 0.000000
vt 1.000000 0.000000
vt 1.000000 1.000000
f 76/76 77/77 78/78
v 0.050000 0.120000 -0.000000
v 0.043301 0.120000 0.025000
v 0.043301 0.200000 0.025000
v 0.050000 0.200000 -0.000000
vt 0.250000 0.000000
vt 0.333333 0.000000
vt 0.333333 1.000000
vt 0.250000 1.000000
f 79/79 80/80 81/81 82/82
v 0.000000 0.120000 0.000000
v 0.043301 0.120000 0.025000
v 0.050000 0.120000 -0.000000
vt 0.000000 0.000000
vt 1.000000 0.000000
vt 1.000000 1.000000
f 83/83 84/84 85/85
v 0.000000 0.200000 0.000000
v 0.050000 0.200000 -0.000000
v 0.043301 0.200000 0.025000
vt 0.000000 0.000000
vt 1.000000 0.000000
vt 1.000000 1.000000
f 86/86 87/87 88/88
v 0.043301 0.120000 0.025000
v 0.025000 0.120000 0.043301
v 0.025000 0.200000 0.043301
v 0.043301 0.200000 0.025000
vt 0.333333 0.000000
vt 0.416667 0.000000
vt 0.416667 1.000000
vt 0.333333 1.000000
f 89/89 90/90 91/91 92/92
v 0.000000 0.120000 0.000000
v 0.025000 0.120000 0.043301
v 0.043301 0.120000 0.025000
vt 0.000000 0.000000
vt 1.000000 0.000000
vt 1.000000 1.000000
f 93/93 94/94 95/95
v 0.000000 0.200000 0.000000
v 0.043301 0.200000 0.025000
v 0.025000 0.200000 0.043301
vt 0.000000 0.000000
vt 1.000000 0.000000
vt 1.000000 1.000000
f 96/96 97/97 98/98
v 0.025000 0.120000 0.043301
v 0.000000 0.120000 0.050000
v 0.000000 0.200000 0.050000
v 0.025000 0.200000 0.043301
vt 0.416667 0.000000
vt 0.500000 0.000000
vt 0.500000 1.000000
vt 0.416667 1.000000
f 99/99 100/100 101/101 102/102
v 0.000000 0.120000 0.000000
v 0.000000 0.120000 0.050000
v 0.025000 0.120000 0.043301
vt 0.000000 0.000000
vt 1.000000 0.000000
vt 1.000000 1.000000
f 103/103 104/104 105/105
v 0.000000 0.200000 0.000000
v 0.025000 0.200000 0.043301
v 0.000000 0.200000 0.050000
vt 0.000000 0.000000
vt 1.000000 0.000000
vt 1.000000 1.000000
f 106/106 107/107 108/108
v 0.000000 0.120000 0.050000
v -0.025000 0.120000 0.043301
v -0.025000 0.200000 0.043301
v 0.000000 0.200000 0.050000
vt 0.500000 0.000000
vt 0.583333 0.000000
vt 0.583333 1.000000
vt 0.500000 1.000000
f 109/109 110/110 111/111 112/112
v 0.000000 0.120000 0.000000
v -0.025000 0.120000 0.043301
v 0.000000 0.120000 0.050000
vt 0.000000 0.000000
vt 1.000000 0.000000
vt 1.000000 1.000000
f 113/113 114/114 115/115
v 0.000000 0.200000 0.000000
v 0.000000 0.200000 0.050000
v -0.025000 0.200000 0.043301
vt 0.000000 0.000000
vt 1.000000 0.000000
vt 1.000000 1.000000
f 116/116 117/117 118/118
v -0.025000 0.120000 0.043301
v -0.043301 0.120000 0.025000
v -0.043301 0.200000 0.025000
v -0.025000 0.200000 0.043301
vt 0.583333 0.000000
vt 0.666667 0.000000
vt 0.666667 1.000000
vt 0.583333 1.000000
f 119/119 120/120 121/121 122/122
v 0.000000 0.120000 0.000000
v -0.043301 0.120000 0.025000
v -0.025000 0.120000 0.043301
vt 0.000000 0.000000
vt 1.000000 0.000000
vt 1.000000 1.000000
f 123/123 124/124 125/125
v 0.000000 0.200000 0.000000
v -0.025000 0.200000 0.043301
v -0.043301 0.200000 0.025000
vt 0.000000 0.000000
vt 1.000000 0.000000
vt 1.000000 1.000000
f 126/126 127/127 128/128
v -0.043301 0.120000 0.025000
v -0.050000 0.120000 0.000000
v -0.050000 0.200000 0.000000
v -0.043301 0.200000 0.025000
vt 0.666667 0.000000
vt 0.750000 0.000000
vt 0.750000 1.000000
vt 0.666667 1.000000
f 129/129 130/130 131/131 132/132
v 0.000000 0.120000 0.000000
v -0.050000 0.120000 0.000000
v -0.043301 0.120000 0.025000
vt 0.000000 0.000000
vt 1.000000 0.000000
vt 1.000000 1.000000
f 133/133 134/134 135/135
v 0.000000 0.200000 0.000000
v -0.043301 0.200000 0.025000
v -0.050000 0.200000 0.000000
vt 0.000000 0.000000
vt 1.000000 0.000000
vt 1.000000 1.000000
f 136/136 137/137 138/138
v -0.050000 0.120000 0.000000
v -0.043301 0.120000 -0.025000
v -0.043301 0.200000 -0.025000
v -0.050000 0.200000 0.000000
vt 0.750000 0.000000
vt 0.833333 0.000000
vt 0.833333 1.000000
vt 0.750000 1.000000
f 139/139 140/140 141/141 142/142
v 0.000000 0.120000 0.000000
v -0.043301 0.120000 -0.025000
v -0.050000 0.120000 0.000000
vt 0.000000 0.000000
vt 1.000000 0.000000
vt 1.000000 1.000000
f 143/143 144/144 145/145
v 0.000000 0.200000 0.000000
v -0.050000 0.200000 0.000000
v -0.043301 0.200000 -0.025000
vt 0.000000 0.000000
vt 1.000000 0.000000
vt 1.000000 1.000000
f 146/146 147/147 148/148
v -0.043301 0.120000 -0.025000
v -0.025000 0.120000 -0.043301
v -0.025000 0.200000 -0.043301
v -0.043301 0.200000 -0.025000
vt 0.833333 0.000000
vt 0.916667 0.000000
vt 0.916667 1.000000
vt 0.833333 1.000000
f 149/149 150/150 151/151 152/152
v 0.000000 0.120000 0.000000
v -0.025000 0.120000 -0.043301
v -0.043301 0.120000 -0.025000
vt 0.000000 0.000000
vt 1.000000 0.000000
vt 1.000000 1.000000
f 153/153 154/154 155/155
v 0.000000 0.200000 0.000000
v -0.043301 0.200000 -0.025000
v -0.025000 0.200000 -0.043301
vt 0.000000 0.000000
vt 1.000000 0.000000
vt 1.000000 1.000000
f 156/156 157/157 158/158
v -0.025000 0.120000 -0.043301
v -0.000000 0.120000 -0.050000
v -0.000000 0.200000 -0.050000
v -0.025000 0.200000 -0.043301
vt 0.916667 0.000000
vt 1.000000 0.000000
vt 1.000000 1.000000
vt 0.916667 1.000000
f 159/159 160/160 161/161 162/162
v 0.000000 0.120000 0.000000
v -0.000000 0.120000 -0.050000
v -0.025000 0.120000 -0.043301
vt 0.000000 0.000000
vt 1.000000 0.000000
vt 1.000000 1.000000
f 163/163 164/164 165/165
v 0.000000 0.200000 0.000000
v -0.025000 0.200000 -0.043301
v -0.000000 0.200000 -0.050000
vt 0.000000 0.000000
vt 1.000000 0.000000
vt 1.000000 1.000000
f 166/166 167/167 168/168
