mtllib jammer.mtl
o jammer
s 1
usemtl olive
v -0.160000 0.000000 -0.120000
v 0.160000 0.000000 -0.120000
v 0.160000 0.280000 -0.120000
v -0.160000 0.280000 -0.120000
vt 0.000000 0.000000
vt 1.000000 0.000000
vt 1.000000 1.000000
vt 0.000000 1.000000
f 1/1 2/2 3/3 4/4
v 0.160000 0.000000 0.160000
v -0.160000 0.000000 0.160000
v -0.160000 0.280000 0.160000
v 0.160000 0.280000 0.160000
vt 0.000000 0.000000
vt 1.000000 0.000000
vt 1.000000 1.000000
vt 0.000000 1.000000
f 5/5 6/6 7/7 8/8
v -0.160000 0.000000 0.160000
v -0.160000 0.000000 -0.120000
v -0.160000 0.280000 -0.120000
v -0.160000 0.280000 0.160000
vt 0.000000 0.000000
vt 1.000000 0.000000
vt 1.000000 1.000000
vt 0.000000 1.000000
f 9/9 10/10 11/11 12/12
v 0.160000 0.000000 -0.120000
v 0.160000 0.000000 0.160000
v 0.160000 0.280000 0.160000
v 0.160000 0.280000 -0.120000
vt 0.000000 0.000000
vt 1.000000 0.000000
vt 1.000000 1.000000
vt 0.000000 1.000000
f 13/13 14/14 15/15 16/16
v -0.160000 0.280000 -0.120000
v 0.160000 0.280000 -0.120000
v 0.160000 0.280000 0.160000
v -0.160000 0.280000 0.160000
vt 0.000000 0.000000
vt 1.000000 0.000000
vt 1.000000 1.000000
vt 0.000000 1.000000
f 17/17 18/18 19/19 20/20
v -0.160000 0.000000 0.160000
v 0.160000 0.000000 0.160000
v 0.160000 0.000000 -0.120000
v -0.160000 0.000000 -0.120000
vt 0.000000 0.000000
vt 1.000000 0.000000
vt 1.000000 1.000000
vt 0.000000 1.000000
f 21/21 22/22 23/23 24/24
usemtl yellow
v 0.000000 0.280000 -0.020000
v 0.014142 0.280000 -0.014142
v 0.014142 0.720000 -0.014142
v 0.000000 0.720000 -0.020000
vt 0.000000 0.000000
vt 0.125000 0.000000
vt 0.125000 1.000000
vt 0.000000 1.000000
f 25/25 26/26 27/27 28/28
v 0.000000 0.280000 0.000000
v 0.014142 0.280000 -0.014142
v 0.000000 0.280000 -0.020000
vt 0.000000 0.000000
vt 1.000000 0.000000
vt 1.000000 1.000000
f 29/29 30/30 31/31
v 0.000000 0.720000 0.000000
v 0.000000 0.720000 -0.020000
v 0.014142 0.720000 -0.014142
vt 0.000000 0.000000
vt 1.000000 0.000000
vt 1.000000 1.000000
f 32/32 33/33 34/34
v 0.014142 0.280000 -0.014142
v 0.020000 0.280000 -0.000000
v 0.020000 0.720000 -0.000000
v 0.014142 0.720000 -0.014142
vt 0.125000 0.000000
vt 0.250000 0.000000
vt 0.250000 1.000000
vt 0.125000 1.000000
f 35/35 36/36 37/37 38/38
v 0.000000 0.280000 0.000000
v 0.020000 0.280000 -0.000000
v 0.014142 0.280000 -0.014142
vt 0.000000 0.000000
vt 1.000000 0.000000
vt 1.000000 1.000000
f 39/39 40/40 41/41
v 0.000000 0.720000 0.000000
v 0.014142 0.720000 -0.014142
v 0.020000 0.720000 -0.000000
vt 0.000000 0.000000
vt 1.000000 0.000000
vt 1.000000 1.000000
f 42/42 43/43 44/44
v 0.020000 0.280000 -0.000000
v 0.014142 0.280000 0.014142
v 0.014142 0.720000 0.014142
v 0.020000 0.720000 -0.000000
vt 0.250000 0.000000
vt 0.375000 0.000000
vt 0.375000 1.000000
vt 0.250000 1.000000
f 45/45 46/46 47/47 48/48
v 0.000000 0.280000 0.000000
v 0.014142 0.280000 0.014142
v 0.020000 0.280000 -0.000000
vt 0.000000 0.000000
vt 1.000000 0.000000
vt 1.000000 1.000000
f 49/49 50/50 51/51
v 0.000000 0.720000 0.000000
v 0.020000 0.720000 -0.000000
v 0.014142 0.720000 0.014142
vt 0.000000 0.000000
vt 1.000000 0.000000
vt 1.000000 1.000000
f 52/52 53/53 54/54
v 0.014142 0.280000 0.014142
v 0.000000 0.280000 0.020000
v 0.000000 0.720000 0.020000
v 0.014142 0.720000 0.014142
vt 0.375000 0.000000
vt 0.500000 0.000000
vt 0.500000 1.000000
vt 0.375000 1.000000
f 55/55 56/56 57/57 58/58
v 0.000000 0.280000 0.000000
v 0.000000 0.280000 0.020000
v 0.014142 0.280000 0.014142
vt 0.000000 0.000000
vt 1.000000 0.000000
vt 1.000000 1.000000
f 59/59 60/60 61/61
v 0.000000 0.720000 0.000000
v 0.014142 0.720000 0.014142
v 0.000000 0.720000 0.020000
vt 0.000000 0.000000
vt 1.000000 0.000000
vt 1.000000 1.000000
f 62/62 63/63 64/64
v 0.000000 0.280000 0.020000
v -0.014142 0.280000 0.014142
v -0.014142 0.720000 0.014142
v 0.000000 0.720000 0.020000
vt 0.500000 0.000000
vt 0.625000 0.000000
vt 0.625000 1.000000
vt 0.500000 1.000000
f 65/65 66/66 67/67 68/68
v 0.000000 0.280000 0.000000
v -0.014142 0.280000 0.014142
v 0.000000 0.280000 0.020000
vt 0.000000 0.000000
vt 1.000000 0.000000
vt 1.000000 1.000000
f 69/69 70/70 71/71
v 0.000000 0.720000 0.000000
v 0.000000 0.720000 0.020000
v -0.014142 0.720000 0.014142
vt 0.000000 0.000000
vt 1.000000 0.000000
vt 1.000000 1.000000
f 72/72 73/73 74/74
v -0.014142 0.280000 0.014142
v -0.020000 0.280000 0.000000
v -0.020000 0.720000 0.000000
v -0.014142 0.720000 0.014142
vt 0.625000 0.000000
vt 0.750000 0.000000
vt 0.750000 1.000000
vt 0.625000 1.000000
f 75/75 76/76 77/77 78/78
v 0.000000 0.280000 0.000000
v -0.020000 0.280000 0.000000
v -0.014142 0.280000 0.014142
vt 0.000000 0.000000
vt 1.000000 0.000000
vt 1.000000 1.000000
f 79/79 80/80 81/81
v 0.000000 0.720000 0.000000
v -0.014142 0.720000 0.014142
v -0.020000 0.720000 0.000000
vt 0.000000 0.000000
vt 1.000000 0.000000
vt 1.000000 1.000000
f 82/82 83/83 84/84
v -0.020000 0.280000 0.000000
v -0.014142 0.280000 -0.014142
v -0.014142 0.720000 -0.014142
v -0.020000 0.720000 0.000000
vt 0.750000 0.000000
vt 0.875000 0.000000
vt 0.875000 1.000000
vt 0.750000 1.000000
f 85/85 86/86 87/87 88/88
v 0.000000 0.280000 0.000000
v -0.014142 0.280000 -0.014142
v -0.020000 0.280000 0.000000
vt 0.000000 0.000000
vt 1.000000 0.000000
vt 1.000000 1.000000
f 89/89 90/90 91/91
v 0.000000 0.720000 0.000000
v -0.020000 0.720000 0.000000
v -0.014142 0.720000 -0.014142
vt 0.000000 0.000000
vt 1.000000 0.000000
vt 1.000000 1.000000
f 92/92 93/93 94/94
v -0.014142 0.280000 -0.014142
v -0.000000 0.280000 -0.020000
v -0.000000 0.720000 -0.020000
v -0.014142 0.720000 -0.014142
vt 0.875000 0.000000
vt 1.000000 0.000000
vt 1.000000 1.000000
vt 0.875000 1.000000
f 95/95 96/96 97/97 98/98
v 0.000000 0.280000 0.000000
v -0.000000 0.280000 -0.020000
v -0.014142 0.280000 -0.014142
vt 0.000000 0.000000
vt 1.000000 0.000000
vt 1.000000 1.000000
f 99/99 100/100 101/101
v 0.000000 0.720000 0.000000
v -0.014142 0.720000 -0.014142
v -0.000000 0.720000 -0.020000
vt 0.000000 0.000000
vt 1.000000 0.000000
vt 1.000000 1.000000
f 102/102 103/103 104/104
usemtl glass
v -0.120000 0.080000 -0.140000
v 0.120000 0.080000 -0.140000
v 0.120000 0.220000 -0.140000
v -0.120000 0.220000 -0.140000
vt 0.000000 0.000000
vt 1.000000 0.000000
vt 1.000000 1.000000
vt 0.000000 1.000000
f 105/105 106/106 107/107 108/108
v 0.120000 0.080000 -0.100000
v -0.120000 0.080000 -0.100000
v -0.120000 0.220000 -0.100000
v 0.120000 0.220000 -0.100000
vt 0.000000 0.000000
vt 1.000000 0.000000
vt 1.000000 1.000000
vt 0.000000 1.000000
f 109/109 110/110 111/111 112/112
v -0.120000 0.080000 -0.100000
v -0.120000 0.080000 -0.140000
v -0.120000 0.220000 -0.140000
v -0.120000 0.220000 -0.100000
vt 0.000000 0.000000
vt 1.000000 0.000000
vt 1.000000 1.000000
vt 0.000000 1.000000
f 113/113 114/114 115/115 116/116
v 0.120000 0.080000 -0.140000
v 0.120000 0.080000 -0.100000
v 0.120000 0.220000 -0.100000
v 0.120000 0.220000 -0.140000
vt 0.000000 0.000000
vt 1.000000 0.000000
vt 1.000000 1.000000
vt 0.000000 1.000000
f 117/117 118/118 119/119 120/120
v -0.120000 0.220000 -0.140000
v 0.120000 0.220000 -0.140000
v 0.120000 0.220000 -0.100000
v -0.120000 0.220000 -0.100000
vt 0.000000 0.000000
vt 1.000000 0.000000
vt 1.000000 1.000000
vt 0.000000 1.000000
f 121/121 122/122 123/123 124/124
v -0.120000 0.080000 -0.100000
v 0.120000 0.080000 -0.100000
v 0.120000 0.080000 -0.140000
v -0.120000 0.080000 -0.140000
vt 0.000000 0.000000
vt 1.000000 0.000000
vt 1.000000 1.000000
vt 0.000000 1.000000
f 125/125 126/126 127/127 128/128
usemtl dark
v -0.180000 0.000000 -0.080000
v -0.140000 0.000000 -0.080000
v -0.140000 0.120000 -0.080000
v -0.180000 0.120000 -0.080000
vt 0.000000 0.000000
vt 1.000000 0.000000
vt 1.000000 1.000000
vt 0.000000 1.000000
f 129/129 130/130 131/131 132/132
v -0.140000 0.000000 0.120000
v -0.180000 0.000000 0.120000
v -0.180000 0.120000 0.120000
v -0.140000 0.120000 0.120000
vt 0.000000 0.000000
vt 1.000000 0.000000
vt 1.000000 1.000000
vt 0.000000 1.000000
f 133/133 134/134 135/135 136/136
v -0.180000 0.000000 0.120000
v -0.180000 0.000000 -0.080000
v -0.180000 0.120000 -0.080000
v -0.180000 0.120000 0.120000
vt 0.000000 0.000000
vt 1.000000 0.000000
vt 1.000000 1.000000
vt 0.000000 1.000000
f 137/137 138/138 139/139 140/140
v -0.140000 0.000000 -0.080000
v -0.140000 0.000000 0.120000
v -0.140000 0.120000 0.120000
v -0.140000 0.120000 -0.080000
vt 0.000000 0.000000
vt 1.000000 0.000000
vt 1.000000 1.000000
vt 0.000000 1.000000
f 141/141 142/142 143/143 144/144
v -0.180000 0.120000 -0.080000
v -0.140000 0.120000 -0.080000
v -0.140000 0.120000 0.120000
v -0.180000 0.120000 0.120000
vt 0.000000 0.000000
vt 1.000000 0.000000
vt 1.000000 1.000000
vt 0.000000 1.000000
f 145/145 146/146 147/147 148/148
v -0.180000 0.000000 0.120000
v -0.140000 0.000000 0.120000
v -0.140000 0.000000 -0.080000
v -0.180000 0.000000 -0.080000
vt 0.000000 0.000000
vt 1.000000 0.000000
vt 1.000000 1.000000
vt 0.000000 1.000000
f 149/149 150/150 151/151 152/152
