mtllib laser_defense.mtl
o laser_defense
s 1
usemtl dark
v 0.080000 0.000000 0.080000
v 0.920000 0.000000 0.080000
v 0.920000 0.140000 0.080000
v 0.080000 0.140000 0.080000
vt 0.000000 0.000000
vt 1.000000 0.000000
vt 1.000000 1.000000
vt 0.000000 1.000000
f 1/1 2/2 3/3 4/4
v 0.920000 0.000000 0.920000
v 0.080000 0.000000 0.920000
v 0.080000 0.140000 0.920000
v 0.920000 0.140000 0.920000
vt 0.000000 0.000000
vt 1.000000 0.000000
vt 1.000000 1.000000
vt 0.000000 1.000000
f 5/5 6/6 7/7 8/8
v 0.080000 0.000000 0.920000
v 0.080000 0.000000 0.080000
v 0.080000 0.140000 0.080000
v 0.080000 0.140000 0.920000
vt 0.000000 0.000000
vt 1.000000 0.000000
vt 1.000000 1.000000
vt 0.000000 1.000000
f 9/9 10/10 11/11 12/12
v 0.920000 0.000000 0.080000
v 0.920000 0.000000 0.920000
v 0.920000 0.140000 0.920000
v 0.920000 0.140000 0.080000
vt 0.000000 0.000000
vt 1.000000 0.000000
vt 1.000000 1.000000
vt 0.000000 1.000000
f 13/13 14/14 15/15 16/16
v 0.080000 0.140000 0.080000
v 0.920000 0.140000 0.080000
v 0.920000 0.140000 0.920000
v 0.080000 0.140000 0.920000
vt 0.000000 0.000000
vt 1.000000 0.000000
vt 1.000000 1.000000
vt 0.000000 1.000000
f 17/17 18/18 19/19 20/20
v 0.080000 0.000000 0.920000
v 0.920000 0.000000 0.920000
v 0.920000 0.000000 0.080000
v 0.080000 0.000000 0.080000
vt 0.000000 0.000000
vt 1.000000 0.000000
vt 1.000000 1.000000
vt 0.000000 1.000000
f 21/21 22/22 23/23 24/24
usemtl body
v 0.160000 0.140000 0.160000
v 0.840000 0.140000 0.160000
v 0.840000 0.520000 0.160000
v 0.160000 0.520000 0.160000
vt 0.000000 0.000000
vt 1.000000 0.000000
vt 1.000000 1.000000
vt 0.000000 1.000000
f 25/25 26/26 27/27 28/28
v 0.840000 0.140000 0.720000
v 0.160000 0.140000 0.720000
v 0.160000 0.520000 0.720000
v 0.840000 0.520000 0.720000
vt 0.000000 0.000000
vt 1.000000 0.000000
vt 1.000000 1.000000
vt 0.000000 1.000000
f 29/29 30/30 31/31 32/32
v 0.160000 0.140000 0.720000
v 0.160000 0.140000 0.160000
v 0.160000 0.520000 0.160000
v 0.160000 0.520000 0.720000
vt 0.000000 0.000000
vt 1.000000 0.000000
vt 1.000000 1.000000
vt 0.000000 1.000000
f 33/33 34/34 35/35 36/36
v 0.840000 0.140000 0.160000
v 0.840000 0.140000 0.720000
v 0.840000 0.520000 0.720000
v 0.840000 0.520000 0.160000
vt 0.000000 0.000000
vt 1.000000 0.000000
vt 1.000000 1.000000
vt 0.000000 1.000000
f 37/37 38/38 39/39 40/40
v 0.160000 0.520000 0.160000
v 0.840000 0.520000 0.160000
v 0.840000 0.520000 0.720000
v 0.160000 0.520000 0.720000
vt 0.000000 0.000000
vt 1.000000 0.000000
vt 1.000000 1.000000
vt 0.000000 1.000000
f 41/41 42/42 43/43 44/44
v 0.160000 0.140000 0.720000
v 0.840000 0.140000 0.720000
v 0.840000 0.140000 0.160000
v 0.160000 0.140000 0.160000
vt 0.000000 0.000000
vt 1.000000 0.000000
vt 1.000000 1.000000
vt 0.000000 1.000000
f 45/45 46/46 47/47 48/48
usemtl dark
v 0.500000 0.500000 0.370000
v 0.533992 0.500000 0.375384
v 0.533992 0.700000 0.375384
v 0.500000 0.700000 0.370000
vt 0.000000 0.000000
vt 0.050000 0.000000
vt 0.050000 1.000000
vt 0.000000 1.000000
f 49/49 50/50 51/51 52/52
v 0.500000 0.500000 0.480000
v 0.533992 0.500000 0.375384
v 0.500000 0.500000 0.370000
vt 0.000000 0.000000
vt 1.000000 0.000000
vt 1.000000 1.000000
f 53/53 54/54 55/55
v 0.500000 0.700000 0.480000
v 0.500000 0.700000 0.370000
v 0.533992 0.700000 0.375384
vt 0.000000 0.000000
vt 1.000000 0.000000
vt 1.000000 1.000000
f 56/56 57/57 58/58
v 0.533992 0.500000 0.375384
v 0.564656 0.500000 0.391008
v 0.564656 0.700000 0.391008
v 0.533992 0.700000 0.375384
vt 0.050000 0.000000
vt 0.100000 0.000000
vt 0.100000 1.000000
vt 0.050000 1.000000
f 59/59 60/60 61/61 62/62
v 0.500000 0.500000 0.480000
v 0.564656 0.500000 0.391008
v 0.533992 0.500000 0.375384
vt 0.000000 0.000000
vt 1.000000 0.000000
vt 1.000000 1.000000
f 63/63 64/64 65/65
v 0.500000 0.700000 0.480000
v 0.533992 0.700000 0.375384
v 0.564656 0.700000 0.391008
vt 0.000000 0.000000
vt 1.000000 0.000000
vt 1.000000 1.000000
f 66/66 67/67 68/68
v 0.564656 0.500000 0.391008
v 0.588992 0.500000 0.415344
v 0.588992 0.700000 0.415344
v 0.564656 0.700000 0.391008
vt 0.100000 0.000000
vt 0.150000 0.000000
vt 0.150000 1.000000
vt 0.100000 1.000000
f 69/69 70/70 71/71 72/72
v 0.500000 0.500000 0.480000
v 0.588992 0.500000 0.415344
v 0.564656 0.500000 0.391008
vt 0.000000 0.000000
vt 1.000000 0.000000
vt 1.000000 1.000000
f 73/73 74/74 75/75
v 0.500000 0.700000 0.480000
v 0.564656 0.700000 0.391008
v 0.588992 0.700000 0.415344
vt 0.000000 0.000000
vt 1.000000 0.000000
vt 1.000000 1.000000
f 76/76 77/77 78/78
v 0.588992 0.500000 0.415344
v 0.604616 0.500000 0.446008
v 0.604616 0.700000 0.446008
v 0.588992 0.700000 0.415344
vt 0.150000 0.000000
vt 0.200000 0.000000
vt 0.200000 1.000000
vt 0.150000 1.000000
f 79/79 80/80 81/81 82/82
v 0.500000 0.500000 0.480000
v 0.604616 0.500000 0.446008
v 0.588992 0.500000 0.415344
vt 0.000000 0.000000
vt 1.000000 0.000000
vt 1.000000 1.000000
f 83/83 84/84 85/85
v 0.500000 0.700000 0.480000
v 0.588992 0.700000 0.415344
v 0.604616 0.700000 0.446008
vt 0.000000 0.000000
vt 1.000000 0.000000
vt 1.000000 1.000000
f 86/86 87/87 88/88
v 0.604616 0.500000 0.446008
v 0.610000 0.500000 0.480000
v 0.610000 0.700000 0.480000
v 0.604616 0.700000 0.446008
vt 0.200000 0.000000
vt 0.250000 0.000000
vt 0.250000 1.000000
vt 0.200000 1.000000
f 89/89 90/90 91/91 92/92
v 0.500000 0.500000 0.480000
v 0.610000 0.500000 0.480000
v 0.604616 0.500000 0.446008
vt 0.000000 0.000000
vt 1.000000 0.000000
vt 1.000000 1.000000
f 93/93 94/94 95/95
v 0.500000 0.700000 0.480000
v 0.604616 0.700000 0.446008
v 0.610000 0.700000 0.480000
vt 0.000000 0.000000
vt 1.000000 0.000000
vt 1.000000 1.000000
f 96/96 97/97 98/98
v 0.610000 0.500000 0.480000
v 0.604616 0.500000 0.513992
v 0.604616 0.700000 0.513992
v 0.610000 0.700000 0.480000
vt 0.250000 0.000000
vt 0.300000 0.000000
vt 0.300000 1.000000
vt 0.250000 1.000000
f 99/99 100/100 101/101 102/102
v 0.500000 0.500000 0.480000
v 0.604616 0.500000 0.513992
v 0.610000 0.500000 0.480000
vt 0.000000 0.000000
vt 1.000000 0.000000
vt 1.000000 1.000000
f 103/103 104/104 105/105
v 0.500000 0.700000 0.480000
v 0.610000 0.700000 0.480000
v 0.604616 0.700000 0.513992
vt 0.000000 0.000000
vt 1.000000 0.000000
vt 1.000000 1.000000
f 106/106 107/107 108/108
v 0.604616 0.500000 0.513992
v 0.588992 0.500000 0.544656
v 0.588992 0.700000 0.544656
v 0.604616 0.700000 0.513992
vt 0.300000 0.000000
vt 0.350000 0.000000
vt 0.350000 1.000000
vt 0.300000 1.000000
f 109/109 110/110 111/111 112/112
v 0.500000 0.500000 0.480000
v 0.588992 0.500000 0.544656
v 0.604616 0.500000 0.513992
vt 0.000000 0.000000
vt 1.000000 0.000000
vt 1.000000 1.000000
f 113/113 114/114 115/115
v 0.500000 0.700000 0.480000
v 0.604616 0.700000 0.513992
v 0.588992 0.700000 0.544656
vt 0.000000 0.000000
vt 1.000000 0.000000
vt 1.000000 1.000000
f 116/116 117/117 118/118
v 0.588992 0.500000 0.544656
v 0.564656 0.500000 0.568992
v 0.564656 0.700000 0.568992
v 0.588992 0.700000 0.544656
vt 0.350000 0.000000
vt 0.400000 0.000000
vt 0.400000 1.000000
vt 0.350000 1.000000
f 119/119 120/120 121/121 122/122
v 0.500000 0.500000 0.480000
v 0.564656 0.500000 0.568992
v 0.588992 0.500000 0.544656
vt 0.000000 0.000000
vt 1.000000 0.000000
vt 1.000000 1.000000
f 123/123 124/124 125/125
v 0.500000 0.700000 0.480000
v 0.588992 0.700000 0.544656
v 0.564656 0.700000 0.568992
vt 0.000000 0.000000
vt 1.000000 0.000000
vt 1.000000 1.000000
f 126/126 127/127 128/128
v 0.564656 0.500000 0.568992
v 0.533992 0.500000 0.584616
v 0.533992 0.700000 0.584616
v 0.564656 0.700000 0.568992
vt 0.400000 0.000000
vt 0.450000 0.000000
vt 0.450000 1.000000
vt 0.400000 1.000000
f 129/129 130/130 131/131 132/132
v 0.500000 0.500000 0.480000
v 0.533992 0.500000 0.584616
v 0.564656 0.500000 0.568992
vt 0.000000 0.000000
vt 1.000000 0.000000
vt 1.000000 1.000000
f 133/133 134/134 135/135
v 0.500000 0.700000 0.480000
v 0.564656 0.700000 0.568992
v 0.533992 0.700000 0.584616
vt 0.000000 0.000000
vt 1.000000 0.000000
vt 1.000000 1.000000
f 136/136 137/137 138/138
v 0.533992 0.500000 0.584616
v 0.500000 0.500000 0.590000
v 0.500000 0.700000 0.590000
v 0.533992 0.700000 0.584616
vt 0.450000 0.000000
vt 0.500000 0.000000
vt 0.500000 1.000000
vt 0.450000 1.000000
f 139/139 140/140 141/141 142/142
v 0.500000 0.500000 0.480000
v 0.500000 0.500000 0.590000
v 0.533992 0.500000 0.584616
vt 0.000000 0.000000
vt 1.000000 0.000000
vt 1.000000 1.000000
f 143/143 144/144 145/145
v 0.500000 0.700000 0.480000
v 0.533992 0.700000 0.584616
v 0.500000 0.700000 0.590000
vt 0.000000 0.000000
vt 1.000000 0.000000
vt 1.000000 1.000000
f 146/146 147/147 148/148
v 0.500000 0.500000 0.590000
v 0.466008 0.500000 0.584616
v 0.466008 0.700000 0.584616
v 0.500000 0.700000 0.590000
vt 0.500000 0.000000
vt 0.550000 0.000000
vt 0.550000 1.000000
vt 0.500000 1.000000
f 149/149 150/150 151/151 152/152
v 0.500000 0.500000 0.480000
v 0.466008 0.500000 0.584616
v 0.500000 0.500000 0.590000
vt 0.000000 0.000000
vt 1.000000 0.000000
vt 1.000000 1.000000
f 153/153 154/154 155/155
v 0.500000 0.700000 0.480000
v 0.500000 0.700000 0.590000
v 0.466008 0.700000 0.584616
vt 0.000000 0.000000
vt 1.000000 0.000000
vt 1.000000 1.000000
f 156/156 157/157 158/158
v 0.466008 0.500000 0.584616
v 0.435344 0.500000 0.568992
v 0.435344 0.700000 0.568992
v 0.466008 0.700000 0.584616
vt 0.550000 0.000000
vt 0.600000 0.000000
vt 0.600000 1.000000
vt 0.550000 1.000000
f 159/159 160/160 161/161 162/162
v 0.500000 0.500000 0.480000
v 0.435344 0.500000 0.568992
v 0.466008 0.500000 0.584616
vt 0.000000 0.000000
vt 1.000000 0.000000
vt 1.000000 1.000000
f 163/163 164/164 165/165
v 0.500000 0.700000 0.480000
v 0.466008 0.700000 0.584616
v 0.435344 0.700000 0.568992
vt 0.000000 0.000000
vt 1.000000 0.000000
vt 1.000000 1.000000
f 166/166 167/167 168/168
v 0.435344 0.500000 0.568992
v 0.411008 0.500000 0.544656
v 0.411008 0.700000 0.544656
v 0.435344 0.700000 0.568992
vt 0.600000 0.000000
vt 0.650000 0.000000
vt 0.650000 1.000000
vt 0.600000 1.000000
f 169/169 170/170 171/171 172/172
v 0.500000 0.500000 0.480000
v 0.411008 0.500000 0.544656
v 0.435344 0.500000 0.568992
vt 0.000000 0.000000
vt 1.000000 0.000000
vt 1.000000 1.000000
f 173/173 174/174 175/175
v 0.500000 0.700000 0.480000
v 0.435344 0.700000 0.568992
v 0.411008 0.700000 0.544656
vt 0.000000 0.000000
vt 1.000000 0.000000
vt 1.000000 1.000000
f 176/176 177/177 178/178
v 0.411008 0.500000 0.544656
v 0.395384 0.500000 0.513992
v 0.395384 0.700000 0.513992
v 0.411008 0.700000 0.544656
vt 0.650000 0.000000
vt 0.700000 0.000000
vt 0.700000 1.000000
vt 0.650000 1.000000
f 179/179 180/180 181/181 182/182
v 0.500000 0.500000 0.480000
v 0.395384 0.500000 0.513992
v 0.411008 0.500000 0.544656
vt 0.000000 0.000000
vt 1.000000 0.000000
vt 1.000000 1.000000
f 183/183 184/184 185/185
v 0.500000 0.700000 0.480000
v 0.411008 0.700000 0.544656
v 0.395384 0.700000 0.513992
vt 0.000000 0.000000
vt 1.000000 0.000000
vt 1.000000 1.000000
f 186/186 187/187 188/188
v 0.395384 0.500000 0.513992
v 0.390000 0.500000 0.480000
v 0.390000 0.700000 0.480000
v 0.395384 0.700000 0.513992
vt 0.700000 0.000000
vt 0.750000 0.000000
vt 0.750000 1.000000
vt 0.700000 1.000000
f 189/189 190/190 191/191 192/192
v 0.500000 0.500000 0.480000
v 0.390000 0.500000 0.480000
v 0.395384 0.500000 0.513992
vt 0.000000 0.000000
vt 1.000000 0.000000
vt 1.000000 1.000000
f 193/193 194/194 195/195
v 0.500000 0.700000 0.480000
v 0.395384 0.700000 0.513992
v 0.390000 0.700000 0.480000
vt 0.000000 0.000000
vt 1.000000 0.000000
vt 1.000000 1.000000
f 196/196 197/197 198/198
v 0.390000 0.500000 0.480000
v 0.395384 0.500000 0.446008
v 0.395384 0.700000 0.446008
v 0.390000 0.700000 0.480000
vt 0.750000 0.000000
vt 0.800000 0.000000
vt 0.800000 1.000000
vt 0.750000 1.000000
f 199/199 200/200 201/201 202/202
v 0.500000 0.500000 0.480000
v 0.395384 0.500000 0.446008
v 0.390000 0.500000 0.480000
vt 0.000000 0.000000
vt 1.000000 0.000000
vt 1.000000 1.000000
f 203/203 204/204 205/205
v 0.500000 0.700000 0.480000
v 0.390000 0.700000 0.480000
v 0.395384 0.700000 0.446008
vt 0.000000 0.000000
vt 1.000000 0.000000
vt 1.000000 1.000000
f 206/206 207/207 208/208
v 0.395384 0.500000 0.446008
v 0.411008 0.500000 0.415344
v 0.411008 0.700000 0.415344
v 0.395384 0.700000 0.446008
vt 0.800000 0.000000
vt 0.850000 0.000000
vt 0.850000 1.000000
vt 0.800000 1.000000
f 209/209 210/210 211/211 212/212
v 0.500000 0.500000 0.480000
v 0.411008 0.500000 0.415344
v 0.395384 0.500000 0.446008
vt 0.000000 0.000000
vt 1.000000 0.000000
vt 1.000000 1.000000
f 213/213 214/214 215/215
v 0.500000 0.700000 0.480000
v 0.395384 0.700000 0.446008
v 0.411008 0.700000 0.415344
vt 0.000000 0.000000
vt 1.000000 0.000000
vt 1.000000 1.000000
f 216/216 217/217 218/218
v 0.411008 0.500000 0.415344
v 0.435344 0.500000 0.391008
v 0.435344 0.700000 0.391008
v 0.411008 0.700000 0.415344
vt 0.850000 0.000000
vt 0.900000 0.000000
vt 0.900000 1.000000
vt 0.850000 1.000000
f 219/219 220/220 221/221 222/222
v 0.500000 0.500000 0.480000
v 0.435344 0.500000 0.391008
v 0.411008 0.500000 0.415344
vt 0.000000 0.000000
vt 1.000000 0.000000
vt 1.000000 1.000000
f 223/223 224/224 225/225
v 0.500000 0.700000 0.480000
v 0.411008 0.700000 0.415344
v 0.435344 0.700000 0.391008
vt 0.000000 0.000000
vt 1.000000 0.000000
vt 1.000000 1.000000
f 226/226 227/227 228/228
v 0.435344 0.500000 0.391008
v 0.466008 0.500000 0.375384
v 0.466008 0.700000 0.375384
v 0.435344 0.700000 0.391008
vt 0.900000 0.000000
vt 0.950000 0.000000
vt 0.950000 1.000000
vt 0.900000 1.000000
f 229/229 230/230 231/231 232/232
v 0.500000 0.500000 0.480000
v 0.466008 0.500000 0.375384
v 0.435344 0.500000 0.391008
vt 0.000000 0.000000
vt 1.000000 0.000000
vt 1.000000 1.000000
f 233/233 234/234 235/235
v 0.500000 0.700000 0.480000
v 0.435344 0.700000 0.391008
v 0.466008 0.700000 0.375384
vt 0.000000 0.000000
vt 1.000000 0.000000
vt 1.000000 1.000000
f 236/236 237/237 238/238
v 0.466008 0.500000 0.375384
v 0.500000 0.500000 0.370000
v 0.500000 0.700000 0.370000
v 0.466008 0.700000 0.375384
vt 0.950000 0.000000
vt 1.000000 0.000000
vt 1.000000 1.000000
vt 0.950000 1.000000
f 239/239 240/240 241/241 242/242
v 0.500000 0.500000 0.480000
v 0.500000 0.500000 0.370000
v 0.466008 0.500000 0.375384
vt 0.000000 0.000000
vt 1.000000 0.000000
vt 1.000000 1.000000
f 243/243 244/244 245/245
v 0.500000 0.700000 0.480000
v 0.466008 0.700000 0.375384
v 0.500000 0.700000 0.370000
vt 0.000000 0.000000
vt 1.000000 0.000000
vt 1.000000 1.000000
f 246/246 247/247 248/248
usemtl accent
v 0.200000 0.140000 0.700000
v 0.400000 0.140000 0.700000
v 0.400000 0.400000 0.700000
v 0.200000 0.400000 0.700000
vt 0.000000 0.000000
vt 1.000000 0.000000
vt 1.000000 1.000000
vt 0.000000 1.000000
f 249/249 250/250 251/251 252/252
v 0.400000 0.140000 0.880000
v 0.200000 0.140000 0.880000
v 0.200000 0.400000 0.880000
v 0.400000 0.400000 0.880000
vt 0.000000 0.000000
vt 1.000000 0.000000
vt 1.000000 1.000000
vt 0.000000 1.000000
f 253/253 254/254 255/255 256/256
v 0.200000 0.140000 0.880000
v 0.200000 0.140000 0.700000
v 0.200000 0.400000 0.700000
v 0.200000 0.400000 0.880000
vt 0.000000 0.000000
vt 1.000000 0.000000
vt 1.000000 1.000000
vt 0.000000 1.000000
f 257/257 258/258 259/259 260/260
v 0.400000 0.140000 0.700000
v 0.400000 0.140000 0.880000
v 0.400000 0.400000 0.880000
v 0.400000 0.400000 0.700000
vt 0.000000 0.000000
vt 1.000000 0.000000
vt 1.000000 1.000000
vt 0.000000 1.000000
f 261/261 262/262 263/263 264/264
v 0.200000 0.400000 0.700000
v 0.400000 0.400000 0.700000
v 0.400000 0.400000 0.880000
v 0.200000 0.400000 0.880000
vt 0.000000 0.000000
vt 1.000000 0.000000
vt 1.000000 1.000000
vt 0.000000 1.000000
f 265/265 266/266 267/267 268/268
v 0.200000 0.140000 0.880000
v 0.400000 0.140000 0.880000
v 0.400000 0.140000 0.700000
v 0.200000 0.140000 0.700000
vt 0.000000 0.000000
vt 1.000000 0.000000
vt 1.000000 1.000000
vt 0.000000 1.000000
f 269/269 270/270 271/271 272/272
usemtl yellow
v 0.260000 0.520000 0.200000
v 0.320000 0.520000 0.200000
v 0.320000 0.780000 0.200000
v 0.260000 0.780000 0.200000
vt 0.000000 0.000000
vt 1.000000 0.000000
vt 1.000000 1.000000
vt 0.000000 1.000000
f 273/273 274/274 275/275 276/276
v 0.320000 0.520000 0.280000
v 0.260000 0.520000 0.280000
v 0.260000 0.780000 0.280000
v 0.320000 0.780000 0.280000
vt 0.000000 0.000000
vt 1.000000 0.000000
vt 1.000000 1.000000
vt 0.000000 1.000000
f 277/277 278/278 279/279 280/280
v 0.260000 0.520000 0.280000
v 0.260000 0.520000 0.200000
v 0.260000 0.780000 0.200000
v 0.260000 0.780000 0.280000
vt 0.000000 0.000000
vt 1.000000 0.000000
vt 1.000000 1.000000
vt 0.000000 1.000000
f 281/281 282/282 283/283 284/284
v 0.320000 0.520000 0.200000
v 0.320000 0.520000 0.280000
v 0.320000 0.780000 0.280000
v 0.320000 0.780000 0.200000
vt 0.000000 0.000000
vt 1.000000 0.000000
vt 1.000000 1.000000
vt 0.000000 1.000000
f 285/285 286/286 287/287 288/288
v 0.260000 0.780000 0.200000
v 0.320000 0.780000 0.200000
v 0.320000 0.780000 0.280000
v 0.260000 0.780000 0.280000
vt 0.000000 0.000000
vt 1.000000 0.000000
vt 1.000000 1.000000
vt 0.000000 1.000000
f 289/289 290/290 291/291 292/292
v 0.260000 0.520000 0.280000
v 0.320000 0.520000 0.280000
v 0.320000 0.520000 0.200000
v 0.260000 0.520000 0.200000
vt 0.000000 0.000000
vt 1.000000 0.000000
vt 1.000000 1.000000
vt 0.000000 1.000000
f 293/293 294/294 295/295 296/296
v 0.400000 0.520000 0.200000
v 0.460000 0.520000 0.200000
v 0.460000 0.780000 0.200000
v 0.400000 0.780000 0.200000
vt 0.000000 0.000000
vt 1.000000 0.000000
vt 1.000000 1.000000
vt 0.000000 1.000000
f 297/297 298/298 299/299 300/300
v 0.460000 0.520000 0.280000
v 0.400000 0.520000 0.280000
v 0.400000 0.780000 0.280000
v 0.460000 0.780000 0.280000
vt 0.000000 0.000000
vt 1.000000 0.000000
vt 1.000000 1.000000
vt 0.000000 1.000000
f 301/301 302/302 303/303 304/304
v 0.400000 0.520000 0.280000
v 0.400000 0.520000 0.200000
v 0.400000 0.780000 0.200000
v 0.400000 0.780000 0.280000
vt 0.000000 0.000000
vt 1.000000 0.000000
vt 1.000000 1.000000
vt 0.000000 1.000000
f 305/305 306/306 307/307 308/308
v 0.460000 0.520000 0.200000
v 0.460000 0.520000 0.280000
v 0.460000 0.780000 0.280000
v 0.460000 0.780000 0.200000
vt 0.000000 0.000000
vt 1.000000 0.000000
vt 1.000000 1.000000
vt 0.000000 1.000000
f 309/309 310/310 311/311 312/312
v 0.400000 0.780000 0.200000
v 0.460000 0.780000 0.200000
v 0.460000 0.780000 0.280000
v 0.400000 0.780000 0.280000
vt 0.000000 0.000000
vt 1.000000 0.000000
vt 1.000000 1.000000
vt 0.000000 1.000000
f 313/313 314/314 315/315 316/316
v 0.400000 0.520000 0.280000
v 0.460000 0.520000 0.280000
v 0.460000 0.520000 0.200000
v 0.400000 0.520000 0.200000
vt 0.000000 0.000000
vt 1.000000 0.000000
vt 1.000000 1.000000
vt 0.000000 1.000000
f 317/317 318/318 319/319 320/320
v 0.540000 0.520000 0.200000
v 0.600000 0.520000 0.200000
v 0.600000 0.780000 0.200000
v 0.540000 0.780000 0.200000
vt 0.000000 0.000000
vt 1.000000 0.000000
vt 1.000000 1.000000
vt 0.000000 1.000000
f 321/321 322/322 323/323 324/324
v 0.600000 0.520000 0.280000
v 0.540000 0.520000 0.280000
v 0.540000 0.780000 0.280000
v 0.600000 0.780000 0.280000
vt 0.000000 0.000000
vt 1.000000 0.000000
vt 1.000000 1.000000
vt 0.000000 1.000000
f 325/325 326/326 327/327 328/328
v 0.540000 0.520000 0.280000
v 0.540000 0.520000 0.200000
v 0.540000 0.780000 0.200000
v 0.540000 0.780000 0.280000
vt 0.000000 0.000000
vt 1.000000 0.000000
vt 1.000000 1.000000
vt 0.000000 1.000000
f 329/329 330/330 331/331 332/332
v 0.600000 0.520000 0.200000
v 0.600000 0.520000 0.280000
v 0.600000 0.780000 0.280000
v 0.600000 0.780000 0.200000
vt 0.000000 0.000000
vt 1.000000 0.000000
vt 1.000000 1.000000
vt 0.000000 1.000000
f 333/333 334/334 335/335 336/336
v 0.540000 0.780000 0.200000
v 0.600000 0.780000 0.200000
v 0.600000 0.780000 0.280000
v 0.540000 0.780000 0.280000
vt 0.000000 0.000000
vt 1.000000 0.000000
vt 1.000000 1.000000
vt 0.000000 1.000000
f 337/337 338/338 339/339 340/340
v 0.540000 0.520000 0.280000
v 0.600000 0.520000 0.280000
v 0.600000 0.520000 0.200000
v 0.540000 0.520000 0.200000
vt 0.000000 0.000000
vt 1.000000 0.000000
vt 1.000000 1.000000
vt 0.000000 1.000000
f 341/341 342/342 343/343 344/344
v 0.680000 0.520000 0.200000
v 0.740000 0.520000 0.200000
v 0.740000 0.780000 0.200000
v 0.680000 0.780000 0.200000
vt 0.000000 0.000000
vt 1.000000 0.000000
vt 1.000000 1.000000
vt 0.000000 1.000000
f 345/345 346/346 347/347 348/348
v 0.740000 0.520000 0.280000
v 0.680000 0.520000 0.280000
v 0.680000 0.780000 0.280000
v 0.740000 0.780000 0.280000
vt 0.000000 0.000000
vt 1.000000 0.000000
vt 1.000000 1.000000
vt 0.000000 1.000000
f 349/349 350/350 351/351 352/352
v 0.680000 0.520000 0.280000
v 0.680000 0.520000 0.200000
v 0.680000 0.780000 0.200000
v 0.680000 0.780000 0.280000
vt 0.000000 0.000000
vt 1.000000 0.000000
vt 1.000000 1.000000
vt 0.000000 1.000000
f 353/353 354/354 355/355 356/356
v 0.740000 0.520000 0.200000
v 0.740000 0.520000 0.280000
v 0.740000 0.780000 0.280000
v 0.740000 0.780000 0.200000
vt 0.000000 0.000000
vt 1.000000 0.000000
vt 1.000000 1.000000
vt 0.000000 1.000000
f 357/357 358/358 359/359 360/360
v 0.680000 0.780000 0.200000
v 0.740000 0.780000 0.200000
v 0.740000 0.780000 0.280000
v 0.680000 0.780000 0.280000
vt 0.000000 0.000000
vt 1.000000 0.000000
vt 1.000000 1.000000
vt 0.000000 1.000000
f 361/361 362/362 363/363 364/364
v 0.680000 0.520000 0.280000
v 0.740000 0.520000 0.280000
v 0.740000 0.520000 0.200000
v 0.680000 0.520000 0.200000
vt 0.000000 0.000000
vt 1.000000 0.000000
vt 1.000000 1.000000
vt 0.000000 1.000000
f 365/365 366/366 367/367 368/368
v 0.500000 0.140000 0.108000
v 0.508485 0.140000 0.111515
v 0.508485 0.159200 0.111515
v 0.500000 0.159200 0.108000
vt 0.000000 0.000000
vt 0.125000 0.000000
vt 0.125000 1.000000
vt 0.000000 1.000000
f 369/369 370/370 371/371 372/372
v 0.500000 0.140000 0.120000
v 0.508485 0.140000 0.111515
v 0.500000 0.140000 0.108000
vt 0.000000 0.000000
vt 1.000000 0.000000
vt 1.000000 1.000000
f 373/373 374/374 375/375
v 0.500000 0.159200 0.120000
v 0.500000 0.159200 0.108000
v 0.508485 0.159200 0.111515
vt 0.000000 0.000000
vt 1.000000 0.000000
vt 1.000000 1.000000
f 376/376 377/377 378/378
v 0.508485 0.140000 0.111515
v 0.512000 0.140000 0.120000
v 0.512000 0.159200 0.120000
v 0.508485 0.159200 0.111515
vt 0.125000 0.000000
vt 0.250000 0.000000
vt 0.250000 1.000000
vt 0.125000 1.000000
f 379/379 380/380 381/381 382/382
v 0.500000 0.140000 0.120000
v 0.512000 0.140000 0.120000
v 0.508485 0.140000 0.111515
vt 0.000000 0.000000
vt 1.000000 0.000000
vt 1.000000 1.000000
f 383/383 384/384 385/385
v 0.500000 0.159200 0.120000
v 0.508485 0.159200 0.111515
v 0.512000 0.159200 0.120000
vt 0.000000 0.000000
vt 1.000000 0.000000
vt 1.000000 1.000000
f 386/386 387/387 388/388
v 0.512000 0.140000 0.120000
v 0.508485 0.140000 0.128485
v 0.508485 0.159200 0.128485
v 0.512000 0.159200 0.120000
vt 0.250000 0.000000
vt 0.375000 0.000000
vt 0.375000 1.000000
vt 0.250000 1.000000
f 389/389 390/390 391/391 392/392
v 0.500000 0.140000 0.120000
v 0.508485 0.140000 0.128485
v 0.512000 0.140000 0.120000
vt 0.000000 0.000000
vt 1.000000 0.000000
vt 1.000000 1.000000
f 393/393 394/394 395/395
v 0.500000 0.159200 0.120000
v 0.512000 0.159200 0.120000
v 0.508485 0.159200 0.128485
vt 0.000000 0.000000
vt 1.000000 0.000000
vt 1.000000 1.000000
f 396/396 397/397 398/398
v 0.508485 0.140000 0.128485
v 0.500000 0.140000 0.132000
v 0.500000 0.159200 0.132000
v 0.508485 0.159200 0.128485
vt 0.375000 0.000000
vt 0.500000 0.000000
vt 0.500000 1.000000
vt 0.375000 1.000000
f 399/399 400/400 401/401 402/402
v 0.500000 0.140000 0.120000
v 0.500000 0.140000 0.132000
v 0.508485 0.140000 0.128485
vt 0.000000 0.000000
vt 1.000000 0.000000
vt 1.000000 1.000000
f 403/403 404/404 405/405
v 0.500000 0.159200 0.120000
v 0.508485 0.159200 0.128485
v 0.500000 0.159200 0.132000
vt 0.000000 0.000000
vt 1.000000 0.000000
vt 1.000000 1.000000
f 406/406 407/407 408/408
v 0.500000 0.140000 0.132000
v 0.491515 0.140000 0.128485
v 0.491515 0.159200 0.128485
v 0.500000 0.159200 0.132000
vt 0.500000 0.000000
vt 0.625000 0.000000
vt 0.625000 1.000000
vt 0.500000 1.000000
f 409/409 410/410 411/411 412/412
v 0.500000 0.140000 0.120000
v 0.491515 0.140000 0.128485
v 0.500000 0.140000 0.132000
vt 0.000000 0.000000
vt 1.000000 0.000000
vt 1.000000 1.000000
f 413/413 414/414 415/415
v 0.500000 0.159200 0.120000
v 0.500000 0.159200 0.132000
v 0.491515 0.159200 0.128485
vt 0.000000 0.000000
vt 1.000000 0.000000
vt 1.000000 1.000000
f 416/416 417/417 418/418
v 0.491515 0.140000 0.128485
v 0.488000 0.140000 0.120000
v 0.488000 0.159200 0.120000
v 0.491515 0.159200 0.128485
vt 0.625000 0.000000
vt 0.750000 0.000000
vt 0.750000 1.000000
vt 0.625000 1.000000
f 419/419 420/420 421/421 422/422
v 0.500000 0.140000 0.120000
v 0.488000 0.140000 0.120000
v 0.491515 0.140000 0.128485
vt 0.000000 0.000000
vt 1.000000 0.000000
vt 1.000000 1.000000
f 423/423 424/424 425/425
v 0.500000 0.159200 0.120000
v 0.491515 0.159200 0.128485
v 0.488000 0.159200 0.120000
vt 0.000000 0.000000
vt 1.000000 0.000000
vt 1.000000 1.000000
f 426/426 427/427 428/428
v 0.488000 0.140000 0.120000
v 0.491515 0.140000 0.111515
v 0.491515 0.159200 0.111515
v 0.488000 0.159200 0.120000
vt 0.750000 0.000000
vt 0.875000 0.000000
vt 0.875000 1.000000
vt 0.750000 1.000000
f 429/429 430/430 431/431 432/432
v 0.500000 0.140000 0.120000
v 0.491515 0.140000 0.111515
v 0.488000 0.140000 0.120000
vt 0.000000 0.000000
vt 1.000000 0.000000
vt 1.000000 1.000000
f 433/433 434/434 435/435
v 0.500000 0.159200 0.120000
v 0.488000 0.159200 0.120000
v 0.491515 0.159200 0.111515
vt 0.000000 0.000000
vt 1.000000 0.000000
vt 1.000000 1.000000
f 436/436 437/437 438/438
v 0.491515 0.140000 0.111515
v 0.500000 0.140000 0.108000
v 0.500000 0.159200 0.108000
v 0.491515 0.159200 0.111515
vt 0.875000 0.000000
vt 1.000000 0.000000
vt 1.000000 1.000000
vt 0.875000 1.000000
f 439/439 440/440 441/441 442/442
v 0.500000 0.140000 0.120000
v 0.500000 0.140000 0.108000
v 0.491515 0.140000 0.111515
vt 0.000000 0.000000
vt 1.000000 0.000000
vt 1.000000 1.000000
f 443/443 444/444 445/445
v 0.500000 0.159200 0.120000
v 0.491515 0.159200 0.111515
v 0.500000 0.159200 0.108000
vt 0.000000 0.000000
vt 1.000000 0.000000
vt 1.000000 1.000000
f 446/446 447/447 448/448
v 0.768701 0.140000 0.219299
v 0.777186 0.140000 0.222814
v 0.777186 0.159200 0.222814
v 0.768701 0.159200 0.219299
vt 0.000000 0.000000
vt 0.125000 0.000000
vt 0.125000 1.000000
vt 0.000000 1.000000
f 449/449 450/450 451/451 452/452
v 0.768701 0.140000 0.231299
v 0.777186 0.140000 0.222814
v 0.768701 0.140000 0.219299
vt 0.000000 0.000000
vt 1.000000 0.000000
vt 1.000000 1.000000
f 453/453 454/454 455/455
v 0.768701 0.159200 0.231299
v 0.768701 0.159200 0.219299
v 0.777186 0.159200 0.222814
vt 0.000000 0.000000
vt 1.000000 0.000000
vt 1.000000 1.000000
f 456/456 457/457 458/458
v 0.777186 0.140000 0.222814
v 0.780701 0.140000 0.231299
v 0.780701 0.159200 0.231299
v 0.777186 0.159200 0.222814
vt 0.125000 0.000000
vt 0.250000 0.000000
vt 0.250000 1.000000
vt 0.125000 1.000000
f 459/459 460/460 461/461 462/462
v 0.768701 0.140000 0.231299
v 0.780701 0.140000 0.231299
v 0.777186 0.140000 0.222814
vt 0.000000 0.000000
vt 1.000000 0.000000
vt 1.000000 1.000000
f 463/463 464/464 465/465
v 0.768701 0.159200 0.231299
v 0.777186 0.159200 0.222814
v 0.780701 0.159200 0.231299
vt 0.000000 0.000000
vt 1.000000 0.000000
vt 1.000000 1.000000
f 466/466 467/467 468/468
v 0.780701 0.140000 0.231299
v 0.777186 0.140000 0.239785
v 0.777186 0.159200 0.239785
v 0.780701 0.159200 0.231299
vt 0.250000 0.000000
vt 0.375000 0.000000
vt 0.375000 1.000000
vt 0.250000 1.000000
f 469/469 470/470 471/471 472/472
v 0.768701 0.140000 0.231299
v 0.777186 0.140000 0.239785
v 0.780701 0.140000 0.231299
vt 0.000000 0.000000
vt 1.000000 0.000000
vt 1.000000 1.000000
f 473/473 474/474 475/475
v 0.768701 0.159200 0.231299
v 0.780701 0.159200 0.231299
v 0.777186 0.159200 0.239785
vt 0.000000 0.000000
vt 1.000000 0.000000
vt 1.000000 1.000000
f 476/476 477/477 478/478
v 0.777186 0.140000 0.239785
v 0.768701 0.140000 0.243299
v 0.768701 0.159200 0.243299
v 0.777186 0.159200 0.239785
vt 0.375000 0.000000
vt 0.500000 0.000000
vt 0.500000 1.000000
vt 0.375000 1.000000
f 479/479 480/480 481/481 482/482
v 0.768701 0.140000 0.231299
v 0.768701 0.140000 0.243299
v 0.777186 0.140000 0.239785
vt 0.000000 0.000000
vt 1.000000 0.000000
vt 1.000000 1.000000
f 483/483 484/484 485/485
v 0.768701 0.159200 0.231299
v 0.777186 0.159200 0.239785
v 0.768701 0.159200 0.243299
vt 0.000000 0.000000
vt 1.000000 0.000000
vt 1.000000 1.000000
f 486/486 487/487 488/488
v 0.768701 0.140000 0.243299
v 0.760215 0.140000 0.239785
v 0.760215 0.159200 0.239785
v 0.768701 0.159200 0.243299
vt 0.500000 0.000000
vt 0.625000 0.000000
vt 0.625000 1.000000
vt 0.500000 1.000000
f 489/489 490/490 491/491 492/492
v 0.768701 0.140000 0.231299
v 0.760215 0.140000 0.239785
v 0.768701 0.140000 0.243299
vt 0.000000 0.000000
vt 1.000000 0.000000
vt 1.000000 1.000000
f 493/493 494/494 495/495
v 0.768701 0.159200 0.231299
v 0.768701 0.159200 0.243299
v 0.760215 0.159200 0.239785
vt 0.000000 0.000000
vt 1.000000 0.000000
vt 1.000000 1.000000
f 496/496 497/497 498/498
v 0.760215 0.140000 0.239785
v 0.756701 0.140000 0.231299
v 0.756701 0.159200 0.231299
v 0.760215 0.159200 0.239785
vt 0.625000 0.000000
vt 0.750000 0.000000
vt 0.750000 1.000000
vt 0.625000 1.000000
f 499/499 500/500 501/501 502/502
v 0.768701 0.140000 0.231299
v 0.756701 0.140000 0.231299
v 0.760215 0.140000 0.239785
vt 0.000000 0.000000
vt 1.000000 0.000000
vt 1.000000 1.000000
f 503/503 504/504 505/505
v 0.768701 0.159200 0.231299
v 0.760215 0.159200 0.239785
v 0.756701 0.159200 0.231299
vt 0.000000 0.000000
vt 1.000000 0.000000
vt 1.000000 1.000000
f 506/506 507/507 508/508
v 0.756701 0.140000 0.231299
v 0.760215 0.140000 0.222814
v 0.760215 0.159200 0.222814
v 0.756701 0.159200 0.231299
vt 0.750000 0.000000
vt 0.875000 0.000000
vt 0.875000 1.000000
vt 0.750000 1.000000
f 509/509 510/510 511/511 512/512
v 0.768701 0.140000 0.231299
v 0.760215 0.140000 0.222814
v 0.756701 0.140000 0.231299
vt 0.000000 0.000000
vt 1.000000 0.000000
vt 1.000000 1.000000
f 513/513 514/514 515/515
v 0.768701 0.159200 0.231299
v 0.756701 0.159200 0.231299
v 0.760215 0.159200 0.222814
vt 0.000000 0.000000
vt 1.000000 0.000000
vt 1.000000 1.000000
f 516/516 517/517 518/518
v 0.760215 0.140000 0.222814
v 0.768701 0.140000 0.219299
v 0.768701 0.159200 0.219299
v 0.760215 0.159200 0.222814
vt 0.875000 0.000000
vt 1.000000 0.000000
vt 1.000000 1.000000
vt 0.875000 1.000000
f 519/519 520/520 521/521 522/522
v 0.768701 0.140000 0.231299
v 0.768701 0.140000 0.219299
v 0.760215 0.140000 0.222814
vt 0.000000 0.000000
vt 1.000000 0.000000
vt 1.000000 1.000000
f 523/523 524/524 525/525
v 0.768701 0.159200 0.231299
v 0.760215 0.159200 0.222814
v 0.768701 0.159200 0.219299
vt 0.000000 0.000000
vt 1.000000 0.000000
vt 1.000000 1.000000
f 526/526 527/527 528/528
v 0.880000 0.140000 0.488000
v 0.888485 0.140000 0.491515
v 0.888485 0.159200 0.491515
v 0.880000 0.159200 0.488000
vt 0.000000 0.000000
vt 0.125000 0.000000
vt 0.125000 1.000000
vt 0.000000 1.000000
f 529/529 530/530 531/531 532/532
v 0.880000 0.140000 0.500000
v 0.888485 0.140000 0.491515
v 0.880000 0.140000 0.488000
vt 0.000000 0.000000
vt 1.000000 0.000000
vt 1.000000 1.000000
f 533/533 534/534 535/535
v 0.880000 0.159200 0.500000
v 0.880000 0.159200 0.488000
v 0.888485 0.159200 0.491515
vt 0.000000 0.000000
vt 1.000000 0.000000
vt 1.000000 1.000000
f 536/536 537/537 538/538
v 0.888485 0.140000 0.491515
v 0.892000 0.140000 0.500000
v 0.892000 0.159200 0.500000
v 0.888485 0.159200 0.491515
vt 0.125000 0.000000
vt 0.250000 0.000000
vt 0.250000 1.000000
vt 0.125000 1.000000
f 539/539 540/540 541/541 542/542
v 0.880000 0.140000 0.500000
v 0.892000 0.140000 0.500000
v 0.888485 0.140000 0.491515
vt 0.000000 0.000000
vt 1.000000 0.000000
vt 1.000000 1.000000
f 543/543 544/544 545/545
v 0.880000 0.159200 0.500000
v 0.888485 0.159200 0.491515
v 0.892000 0.159200 0.500000
vt 0.000000 0.000000
vt 1.000000 0.000000
vt 1.000000 1.000000
f 546/546 547/547 548/548
v 0.892000 0.140000 0.500000
v 0.888485 0.140000 0.508485
v 0.888485 0.159200 0.508485
v 0.892000 0.159200 0.500000
vt 0.250000 0.000000
vt 0.375000 0.000000
vt 0.375000 1.000000
vt 0.250000 1.000000
f 549/549 550/550 551/551 552/552
v 0.880000 0.140000 0.500000
v 0.888485 0.140000 0.508485
v 0.892000 0.140000 0.500000
vt 0.000000 0.000000
vt 1.000000 0.000000
vt 1.000000 1.000000
f 553/553 554/554 555/555
v 0.880000 0.159200 0.500000
v 0.892000 0.159200 0.500000
v 0.888485 0.159200 0.508485
vt 0.000000 0.000000
vt 1.000000 0.000000
vt 1.000000 1.000000
f 556/556 557/557 558/558
v 0.888485 0.140000 0.508485
v 0.880000 0.140000 0.512000
v 0.880000 0.159200 0.512000
v 0.888485 0.159200 0.508485
vt 0.375000 0.000000
vt 0.500000 0.000000
vt 0.500000 1.000000
vt 0.375000 1.000000
f 559/559 560/560 561/561 562/562
v 0.880000 0.140000 0.500000
v 0.880000 0.140000 0.512000
v 0.888485 0.140000 0.508485
vt 0.000000 0.000000
vt 1.000000 0.000000
vt 1.000000 1.000000
f 563/563 564/564 565/565
v 0.880000 0.159200 0.500000
v 0.888485 0.159200 0.508485
v 0.880000 0.159200 0.512000
vt 0.000000 0.000000
vt 1.000000 0.000000
vt 1.000000 1.000000
f 566/566 567/567 568/568
v 0.880000 0.140000 0.512000
v 0.871515 0.140000 0.508485
v 0.871515 0.159200 0.508485
v 0.880000 0.159200 0.512000
vt 0.500000 0.000000
vt 0.625000 0.000000
vt 0.625000 1.000000
vt 0.500000 1.000000
f 569/569 570/570 571/571 572/572
v 0.880000 0.140000 0.500000
v 0.871515 0.140000 0.508485
v 0.880000 0.140000 0.512000
vt 0.000000 0.000000
vt 1.000000 0.000000
vt 1.000000 1.000000
f 573/573 574/574 575/575
v 0.880000 0.159200 0.500000
v 0.880000 0.159200 0.512000
v 0.871515 0.159200 0.508485
vt 0.000000 0.000000
vt 1.000000 0.000000
vt 1.000000 1.000000
f 576/576 577/577 578/578
v 0.871515 0.140000 0.508485
v 0.868000 0.140000 0.500000
v 0.868000 0.159200 0.500000
v 0.871515 0.159200 0.508485
vt 0.625000 0.000000
vt 0.750000 0.000000
vt 0.750000 1.000000
vt 0.625000 1.000000
f 579/579 580/580 581/581 582/582
v 0.880000 0.140000 0.500000
v 0.868000 0.140000 0.500000
v 0.871515 0.140000 0.508485
vt 0.000000 0.000000
vt 1.000000 0.000000
vt 1.000000 1.000000
f 583/583 584/584 585/585
v 0.880000 0.159200 0.500000
v 0.871515 0.159200 0.508485
v 0.868000 0.159200 0.500000
vt 0.000000 0.000000
vt 1.000000 0.000000
vt 1.000000 1.000000
f 586/586 587/587 588/588
v 0.868000 0.140000 0.500000
v 0.871515 0.140000 0.491515
v 0.871515 0.159200 0.491515
v 0.868000 0.159200 0.500000
vt 0.750000 0.000000
vt 0.875000 0.000000
vt 0.875000 1.000000
vt 0.750000 1.000000
f 589/589 590/590 591/591 592/592
v 0.880000 0.140000 0.500000
v 0.871515 0.140000 0.491515
v 0.868000 0.140000 0.500000
vt 0.000000 0.000000
vt 1.000000 0.000000
vt 1.000000 1.000000
f 593/593 594/594 595/595
v 0.880000 0.159200 0.500000
v 0.868000 0.159200 0.500000
v 0.871515 0.159200 0.491515
vt 0.000000 0.000000
vt 1.000000 0.000000
vt 1.000000 1.000000
f 596/596 597/597 598/598
v 0.871515 0.140000 0.491515
v 0.880000 0.140000 0.488000
v 0.880000 0.159200 0.488000
v 0.871515 0.159200 0.491515
vt 0.875000 0.000000
vt 1.000000 0.000000
vt 1.000000 1.000000
vt 0.875000 1.000000
f 599/599 600/600 601/601 602/602
v 0.880000 0.140000 0.500000
v 0.880000 0.140000 0.488000
v 0.871515 0.140000 0.491515
vt 0.000000 0.000000
vt 1.000000 0.000000
vt 1.000000 1.000000
f 603/603 604/604 605/605
v 0.880000 0.159200 0.500000
v 0.871515 0.159200 0.491515
v 0.880000 0.159200 0.488000
vt 0.000000 0.000000
vt 1.000000 0.000000
vt 1.000000 1.000000
f 606/606 607/607 608/608
v 0.768701 0.140000 0.756701
v 0.777186 0.140000 0.760215
v 0.777186 0.159200 0.760215
v 0.768701 0.159200 0.756701
vt 0.000000 0.000000
vt 0.125000 0.000000
vt 0.125000 1.000000
vt 0.000000 1.000000
f 609/609 610/610 611/611 612/612
v 0.768701 0.140000 0.768701
v 0.777186 0.140000 0.760215
v 0.768701 0.140000 0.756701
vt 0.000000 0.000000
vt 1.000000 0.000000
vt 1.000000 1.000000
f 613/613 614/614 615/615
v 0.768701 0.159200 0.768701
v 0.768701 0.159200 0.756701
v 0.777186 0.159200 0.760215
vt 0.000000 0.000000
vt 1.000000 0.000000
vt 1.000000 1.000000
f 616/616 617/617 618/618
v 0.777186 0.140000 0.760215
v 0.780701 0.140000 0.768701
v 0.780701 0.159200 0.768701
v 0.777186 0.159200 0.760215
vt 0.125000 0.000000
vt 0.250000 0.000000
vt 0.250000 1.000000
vt 0.125000 1.000000
f 619/619 620/620 621/621 622/622
v 0.768701 0.140000 0.768701
v 0.780701 0.140000 0.768701
v 0.777186 0.140000 0.760215
vt 0.000000 0.000000
vt 1.000000 0.000000
vt 1.000000 1.000000
f 623/623 624/624 625/625
v 0.768701 0.159200 0.768701
v 0.777186 0.159200 0.760215
v 0.780701 0.159200 0.768701
vt 0.000000 0.000000
vt 1.000000 0.000000
vt 1.000000 1.000000
f 626/626 627/627 628/628
v 0.780701 0.140000 0.768701
v 0.777186 0.140000 0.777186
v 0.777186 0.159200 0.777186
v 0.780701 0.159200 0.768701
vt 0.250000 0.000000
vt 0.375000 0.000000
vt 0.375000 1.000000
vt 0.250000 1.000000
f 629/629 630/630 631/631 632/632
v 0.768701 0.140000 0.768701
v 0.777186 0.140000 0.777186
v 0.780701 0.140000 0.768701
vt 0.000000 0.000000
vt 1.000000 0.000000
vt 1.000000 1.000000
f 633/633 634/634 635/635
v 0.768701 0.159200 0.768701
v 0.780701 0.159200 0.768701
v 0.777186 0.159200 0.777186
vt 0.000000 0.000000
vt 1.000000 0.000000
vt 1.000000 1.000000
f 636/636 637/637 638/638
v 0.777186 0.140000 0.777186
v 0.768701 0.140000 0.780701
v 0.768701 0.159200 0.780701
v 0.777186 0.159200 0.777186
vt 0.375000 0.000000
vt 0.500000 0.000000
vt 0.500000 1.000000
vt 0.375000 1.000000
f 639/639 640/640 641/641 642/642
v 0.768701 0.140000 0.768701
v 0.768701 0.140000 0.780701
v 0.777186 0.140000 0.777186
vt 0.000000 0.000000
vt 1.000000 0.000000
vt 1.000000 1.000000
f 643/643 644/644 645/645
v 0.768701 0.159200 0.768701
v 0.777186 0.159200 0.777186
v 0.768701 0.159200 0.780701
vt 0.000000 0.000000
vt 1.000000 0.000000
vt 1.000000 1.000000
f 646/646 647/647 648/648
v 0.768701 0.140000 0.780701
v 0.760215 0.140000 0.777186
v 0.760215 0.159200 0.777186
v 0.768701 0.159200 0.780701
vt 0.500000 0.000000
vt 0.625000 0.000000
vt 0.625000 1.000000
vt 0.500000 1.000000
f 649/649 650/650 651/651 652/652
v 0.768701 0.140000 0.768701
v 0.760215 0.140000 0.777186
v 0.768701 0.140000 0.780701
vt 0.000000 0.000000
vt 1.000000 0.000000
vt 1.000000 1.000000
f 653/653 654/654 655/655
v 0.768701 0.159200 0.768701
v 0.768701 0.159200 0.780701
v 0.760215 0.159200 0.777186
vt 0.000000 0.000000
vt 1.000000 0.000000
vt 1.000000 1.000000
f 656/656 657/657 658/658
v 0.760215 0.140000 0.777186
v 0.756701 0.140000 0.768701
v 0.756701 0.159200 0.768701
v 0.760215 0.159200 0.777186
vt 0.625000 0.000000
vt 0.750000 0.000000
vt 0.750000 1.000000
vt 0.625000 1.000000
f 659/659 660/660 661/661 662/662
v 0.768701 0.140000 0.768701
v 0.756701 0.140000 0.768701
v 0.760215 0.140000 0.777186
vt 0.000000 0.000000
vt 1.000000 0.000000
vt 1.000000 1.000000
f 663/663 664/664 665/665
v 0.768701 0.159200 0.768701
v 0.760215 0.159200 0.777186
v 0.756701 0.159200 0.768701
vt 0.000000 0.000000
vt 1.000000 0.000000
vt 1.000000 1.000000
f 666/666 667/667 668/668
v 0.756701 0.140000 0.768701
v 0.760215 0.140000 0.760215
v 0.760215 0.159200 0.760215
v 0.756701 0.159200 0.768701
vt 0.750000 0.000000
vt 0.875000 0.000000
vt 0.875000 1.000000
vt 0.750000 1.000000
f 669/669 670/670 671/671 672/672
v 0.768701 0.140000 0.768701
v 0.760215 0.140000 0.760215
v 0.756701 0.140000 0.768701
vt 0.000000 0.000000
vt 1.000000 0.000000
vt 1.000000 1.000000
f 673/673 674/674 675/675
v 0.768701 0.159200 0.768701
v 0.756701 0.159200 0.768701
v 0.760215 0.159200 0.760215
vt 0.000000 0.000000
vt 1.000000 0.000000
vt 1.000000 1.000000
f 676/676 677/677 678/678
v 0.760215 0.140000 0.760215
v 0.768701 0.140000 0.756701
v 0.768701 0.159200 0.756701
v 0.760215 0.159200 0.760215
vt 0.875000 0.000000
vt 1.000000 0.000000
vt 1.000000 1.000000
vt 0.875000 1.000000
f 679/679 680/680 681/681 682/682
v 0.768701 0.140000 0.768701
v 0.768701 0.140000 0.756701
v 0.760215 0.140000 0.760215
vt 0.000000 0.000000
vt 1.000000 0.000000
vt 1.000000 1.000000
f 683/683 684/684 685/685
v 0.768701 0.159200 0.768701
v 0.760215 0.159200 0.760215
v 0.768701 0.159200 0.756701
vt 0.000000 0.000000
vt 1.000000 0.000000
vt 1.000000 1.000000
f 686/686 687/687 688/688
v 0.500000 0.140000 0.868000
v 0.508485 0.140000 0.871515
v 0.508485 0.159200 0.871515
v 0.500000 0.159200 0.868000
vt 0.000000 0.000000
vt 0.125000 0.000000
vt 0.125000 1.000000
vt 0.000000 1.000000
f 689/689 690/690 691/691 692/692
v 0.500000 0.140000 0.880000
v 0.508485 0.140000 0.871515
v 0.500000 0.140000 0.868000
vt 0.000000 0.000000
vt 1.000000 0.000000
vt 1.000000 1.000000
f 693/693 694/694 695/695
v 0.500000 0.159200 0.880000
v 0.500000 0.159200 0.868000
v 0.508485 0.159200 0.871515
vt 0.000000 0.000000
vt 1.000000 0.000000
vt 1.000000 1.000000
f 696/696 697/697 698/698
v 0.508485 0.140000 0.871515
v 0.512000 0.140000 0.880000
v 0.512000 0.159200 0.880000
v 0.508485 0.159200 0.871515
vt 0.125000 0.000000
vt 0.250000 0.000000
vt 0.250000 1.000000
vt 0.125000 1.000000
f 699/699 700/700 701/701 702/702
v 0.500000 0.140000 0.880000
v 0.512000 0.140000 0.880000
v 0.508485 0.140000 0.871515
vt 0.000000 0.000000
vt 1.000000 0.000000
vt 1.000000 1.000000
f 703/703 704/704 705/705
v 0.500000 0.159200 0.880000
v 0.508485 0.159200 0.871515
v 0.512000 0.159200 0.880000
vt 0.000000 0.000000
vt 1.000000 0.000000
vt 1.000000 1.000000
f 706/706 707/707 708/708
v 0.512000 0.140000 0.880000
v 0.508485 0.140000 0.888485
v 0.508485 0.159200 0.888485
v 0.512000 0.159200 0.880000
vt 0.250000 0.000000
vt 0.375000 0.000000
vt 0.375000 1.000000
vt 0.250000 1.000000
f 709/709 710/710 711/711 712/712
v 0.500000 0.140000 0.880000
v 0.508485 0.140000 0.888485
v 0.512000 0.140000 0.880000
vt 0.000000 0.000000
vt 1.000000 0.000000
vt 1.000000 1.000000
f 713/713 714/714 715/715
v 0.500000 0.159200 0.880000
v 0.512000 0.159200 0.880000
v 0.508485 0.159200 0.888485
vt 0.000000 0.000000
vt 1.000000 0.000000
vt 1.000000 1.000000
f 716/716 717/717 718/718
v 0.508485 0.140000 0.888485
v 0.500000 0.140000 0.892000
v 0.500000 0.159200 0.892000
v 0.508485 0.159200 0.888485
vt 0.375000 0.000000
vt 0.500000 0.000000
vt 0.500000 1.000000
vt 0.375000 1.000000
f 719/719 720/720 721/721 722/722
v 0.500000 0.140000 0.880000
v 0.500000 0.140000 0.892000
v 0.508485 0.140000 0.888485
vt 0.000000 0.000000
vt 1.000000 0.000000
vt 1.000000 1.000000
f 723/723 724/724 725/725
v 0.500000 0.159200 0.880000
v 0.508485 0.159200 0.888485
v 0.500000 0.159200 0.892000
vt 0.000000 0.000000
vt 1.000000 0.000000
vt 1.000000 1.000000
f 726/726 727/727 728/728
v 0.500000 0.140000 0.892000
v 0.491515 0.140000 0.888485
v 0.491515 0.159200 0.888485
v 0.500000 0.159200 0.892000
vt 0.500000 0.000000
vt 0.625000 0.000000
vt 0.625000 1.000000
vt 0.500000 1.000000
f 729/729 730/730 731/731 732/732
v 0.500000 0.140000 0.880000
v 0.491515 0.140000 0.888485
v 0.500000 0.140000 0.892000
vt 0.000000 0.000000
vt 1.000000 0.000000
vt 1.000000 1.000000
f 733/733 734/734 735/735
v 0.500000 0.159200 0.880000
v 0.500000 0.159200 0.892000
v 0.491515 0.159200 0.888485
vt 0.000000 0.000000
vt 1.000000 0.000000
vt 1.000000 1.000000
f 736/736 737/737 738/738
v 0.491515 0.140000 0.888485
v 0.488000 0.140000 0.880000
v 0.488000 0.159200 0.880000
v 0.491515 0.159200 0.888485
vt 0.625000 0.000000
vt 0.750000 0.000000
vt 0.750000 1.000000
vt 0.625000 1.000000
f 739/739 740/740 741/741 742/742
v 0.500000 0.140000 0.880000
v 0.488000 0.140000 0.880000
v 0.491515 0.140000 0.888485
vt 0.000000 0.000000
vt 1.000000 0.000000
vt 1.000000 1.000000
f 743/743 744/744 745/745
v 0.500000 0.159200 0.880000
v 0.491515 0.159200 0.888485
v 0.488000 0.159200 0.880000
vt 0.000000 0.000000
vt 1.000000 0.000000
vt 1.000000 1.000000
f 746/746 747/747 748/748
v 0.488000 0.140000 0.880000
v 0.491515 0.140000 0.871515
v 0.491515 0.159200 0.871515
v 0.488000 0.159200 0.880000
vt 0.750000 0.000000
vt 0.875000 0.000000
vt 0.875000 1.000000
vt 0.750000 1.000000
f 749/749 750/750 751/751 752/752
v 0.500000 0.140000 0.880000
v 0.491515 0.140000 0.871515
v 0.488000 0.140000 0.880000
vt 0.000000 0.000000
vt 1.000000 0.000000
vt 1.000000 1.000000
f 753/753 754/754 755/755
v 0.500000 0.159200 0.880000
v 0.488000 0.159200 0.880000
v 0.491515 0.159200 0.871515
vt 0.000000 0.000000
vt 1.000000 0.000000
vt 1.000000 1.000000
f 756/756 757/757 758/758
v 0.491515 0.140000 0.871515
v 0.500000 0.140000 0.868000
v 0.500000 0.159200 0.868000
v 0.491515 0.159200 0.871515
vt 0.875000 0.000000
vt 1.000000 0.000000
vt 1.000000 1.000000
vt 0.875000 1.000000
f 759/759 760/760 761/761 762/762
v 0.500000 0.140000 0.880000
v 0.500000 0.140000 0.868000
v 0.491515 0.140000 0.871515
vt 0.000000 0.000000
vt 1.000000 0.000000
vt 1.000000 1.000000
f 763/763 764/764 765/765
v 0.500000 0.159200 0.880000
v 0.491515 0.159200 0.871515
v 0.500000 0.159200 0.868000
vt 0.000000 0.000000
vt 1.000000 0.000000
vt 1.000000 1.000000
f 766/766 767/767 768/768
v 0.231299 0.140000 0.756701
v 0.239785 0.140000 0.760215
v 0.239785 0.159200 0.760215
v 0.231299 0.159200 0.756701
vt 0.000000 0.000000
vt 0.125000 0.000000
vt 0.125000 1.000000
vt 0.000000 1.000000
f 769/769 770/770 771/771 772/772
v 0.231299 0.140000 0.768701
v 0.239785 0.140000 0.760215
v 0.231299 0.140000 0.756701
vt 0.000000 0.000000
vt 1.000000 0.000000
vt 1.000000 1.000000
f 773/773 774/774 775/775
v 0.231299 0.159200 0.768701
v 0.231299 0.159200 0.756701
v 0.239785 0.159200 0.760215
vt 0.000000 0.000000
vt 1.000000 0.000000
vt 1.000000 1.000000
f 776/776 777/777 778/778
v 0.239785 0.140000 0.760215
v 0.243299 0.140000 0.768701
v 0.243299 0.159200 0.768701
v 0.239785 0.159200 0.760215
vt 0.125000 0.000000
vt 0.250000 0.000000
vt 0.250000 1.000000
vt 0.125000 1.000000
f 779/779 780/780 781/781 782/782
v 0.231299 0.140000 0.768701
v 0.243299 0.140000 0.768701
v 0.239785 0.140000 0.760215
vt 0.000000 0.000000
vt 1.000000 0.000000
vt 1.000000 1.000000
f 783/783 784/784 785/785
v 0.231299 0.159200 0.768701
v 0.239785 0.159200 0.760215
v 0.243299 0.159200 0.768701
vt 0.000000 0.000000
vt 1.000000 0.000000
vt 1.000000 1.000000
f 786/786 787/787 788/788
v 0.243299 0.140000 0.768701
v 0.239785 0.140000 0.777186
v 0.239785 0.159200 0.777186
v 0.243299 0.159200 0.768701
vt 0.250000 0.000000
vt 0.375000 0.000000
vt 0.375000 1.000000
vt 0.250000 1.000000
f 789/789 790/790 791/791 792/792
v 0.231299 0.140000 0.768701
v 0.239785 0.140000 0.777186
v 0.243299 0.140000 0.768701
vt 0.000000 0.000000
vt 1.000000 0.000000
vt 1.000000 1.000000
f 793/793 794/794 795/795
v 0.231299 0.159200 0.768701
v 0.243299 0.159200 0.768701
v 0.239785 0.159200 0.777186
vt 0.000000 0.000000
vt 1.000000 0.000000
vt 1.000000 1.000000
f 796/796 797/797 798/798
v 0.239785 0.140000 0.777186
v 0.231299 0.140000 0.780701
v 0.231299 0.159200 0.780701
v 0.239785 0.159200 0.777186
vt 0.375000 0.000000
vt 0.500000 0.000000
vt 0.500000 1.000000
vt 0.375000 1.000000
f 799/799 800/800 801/801 802/802
v 0.231299 0.140000 0.768701
v 0.231299 0.140000 0.780701
v 0.239785 0.140000 0.777186
vt 0.000000 0.000000
vt 1.000000 0.000000
vt 1.000000 1.000000
f 803/803 804/804 805/805
v 0.231299 0.159200 0.768701
v 0.239785 0.159200 0.777186
v 0.231299 0.159200 0.780701
vt 0.000000 0.000000
vt 1.000000 0.000000
vt 1.000000 1.000000
f 806/806 807/807 808/808
v 0.231299 0.140000 0.780701
v 0.222814 0.140000 0.777186
v 0.222814 0.159200 0.777186
v 0.231299 0.159200 0.780701
vt 0.500000 0.000000
vt 0.625000 0.000000
vt 0.625000 1.000000
vt 0.500000 1.000000
f 809/809 810/810 811/811 812/812
v 0.231299 0.140000 0.768701
v 0.222814 0.140000 0.777186
v 0.231299 0.140000 0.780701
vt 0.000000 0.000000
vt 1.000000 0.000000
vt 1.000000 1.000000
f 813/813 814/814 815/815
v 0.231299 0.159200 0.768701
v 0.231299 0.159200 0.780701
v 0.222814 0.159200 0.777186
vt 0.000000 0.000000
vt 1.000000 0.000000
vt 1.000000 1.000000
f 816/816 817/817 818/818
v 0.222814 0.140000 0.777186
v 0.219299 0.140000 0.768701
v 0.219299 0.159200 0.768701
v 0.222814 0.159200 0.777186
vt 0.625000 0.000000
vt 0.750000 0.000000
vt 0.750000 1.000000
vt 0.625000 1.000000
f 819/819 820/820 821/821 822/822
v 0.231299 0.140000 0.768701
v 0.219299 0.140000 0.768701
v 0.222814 0.140000 0.777186
vt 0.000000 0.000000
vt 1.000000 0.000000
vt 1.000000 1.000000
f 823/823 824/824 825/825
v 0.231299 0.159200 0.768701
v 0.222814 0.159200 0.777186
v 0.219299 0.159200 0.768701
vt 0.000000 0.000000
vt 1.000000 0.000000
vt 1.000000 1.000000
f 826/826 827/827 828/828
v 0.219299 0.140000 0.768701
v 0.222814 0.140000 0.760215
v 0.222814 0.159200 0.760215
v 0.219299 0.159200 0.768701
vt 0.750000 0.000000
vt 0.875000 0.000000
vt 0.875000 1.000000
vt 0.750000 1.000000
f 829/829 830/830 831/831 832/832
v 0.231299 0.140000 0.768701
v 0.222814 0.140000 0.760215
v 0.219299 0.140000 0.768701
vt 0.000000 0.000000
vt 1.000000 0.000000
vt 1.000000 1.000000
f 833/833 834/834 835/835
v 0.231299 0.159200 0.768701
v 0.219299 0.159200 0.768701
v 0.222814 0.159200 0.760215
vt 0.000000 0.000000
vt 1.000000 0.000000
vt 1.000000 1.000000
f 836/836 837/837 838/838
v 0.222814 0.140000 0.760215
v 0.231299 0.140000 0.756701
v 0.231299 0.159200 0.756701
v 0.222814 0.159200 0.760215
vt 0.875000 0.000000
vt 1.000000 0.000000
vt 1.000000 1.000000
vt 0.875000 1.000000
f 839/839 840/840 841/841 842/842
v 0.231299 0.140000 0.768701
v 0.231299 0.140000 0.756701
v 0.222814 0.140000 0.760215
vt 0.000000 0.000000
vt 1.000000 0.000000
vt 1.000000 1.000000
f 843/843 844/844 845/845
v 0.231299 0.159200 0.768701
v 0.222814 0.159200 0.760215
v 0.231299 0.159200 0.756701
vt 0.000000 0.000000
vt 1.000000 0.000000
vt 1.000000 1.000000
f 846/846 847/847 848/848
v 0.120000 0.140000 0.488000
v 0.128485 0.140000 0.491515
v 0.128485 0.159200 0.491515
v 0.120000 0.159200 0.488000
vt 0.000000 0.000000
vt 0.125000 0.000000
vt 0.125000 1.000000
vt 0.000000 1.000000
f 849/849 850/850 851/851 852/852
v 0.120000 0.140000 0.500000
v 0.128485 0.140000 0.491515
v 0.120000 0.140000 0.488000
vt 0.000000 0.000000
vt 1.000000 0.000000
vt 1.000000 1.000000
f 853/853 854/854 855/855
v 0.120000 0.159200 0.500000
v 0.120000 0.159200 0.488000
v 0.128485 0.159200 0.491515
vt 0.000000 0.000000
vt 1.000000 0.000000
vt 1.000000 1.000000
f 856/856 857/857 858/858
v 0.128485 0.140000 0.491515
v 0.132000 0.140000 0.500000
v 0.132000 0.159200 0.500000
v 0.128485 0.159200 0.491515
vt 0.125000 0.000000
vt 0.250000 0.000000
vt 0.250000 1.000000
vt 0.125000 1.000000
f 859/859 860/860 861/861 862/862
v 0.120000 0.140000 0.500000
v 0.132000 0.140000 0.500000
v 0.128485 0.140000 0.491515
vt 0.000000 0.000000
vt 1.000000 0.000000
vt 1.000000 1.000000
f 863/863 864/864 865/865
v 0.120000 0.159200 0.500000
v 0.128485 0.159200 0.491515
v 0.132000 0.159200 0.500000
vt 0.000000 0.000000
vt 1.000000 0.000000
vt 1.000000 1.000000
f 866/866 867/867 868/868
v 0.132000 0.140000 0.500000
v 0.128485 0.140000 0.508485
v 0.128485 0.159200 0.508485
v 0.132000 0.159200 0.500000
vt 0.250000 0.000000
vt 0.375000 0.000000
vt 0.375000 1.000000
vt 0.250000 1.000000
f 869/869 870/870 871/871 872/872
v 0.120000 0.140000 0.500000
v 0.128485 0.140000 0.508485
v 0.132000 0.140000 0.500000
vt 0.000000 0.000000
vt 1.000000 0.000000
vt 1.000000 1.000000
f 873/873 874/874 875/875
v 0.120000 0.159200 0.500000
v 0.132000 0.159200 0.500000
v 0.128485 0.159200 0.508485
vt 0.000000 0.000000
vt 1.000000 0.000000
vt 1.000000 1.000000
f 876/876 877/877 878/878
v 0.128485 0.140000 0.508485
v 0.120000 0.140000 0.512000
v 0.120000 0.159200 0.512000
v 0.128485 0.159200 0.508485
vt 0.375000 0.000000
vt 0.500000 0.000000
vt 0.500000 1.000000
vt 0.375000 1.000000
f 879/879 880/880 881/881 882/882
v 0.120000 0.140000 0.500000
v 0.120000 0.140000 0.512000
v 0.128485 0.140000 0.508485
vt 0.000000 0.000000
vt 1.000000 0.000000
vt 1.000000 1.000000
f 883/883 884/884 885/885
v 0.120000 0.159200 0.500000
v 0.128485 0.159200 0.508485
v 0.120000 0.159200 0.512000
vt 0.000000 0.000000
vt 1.000000 0.000000
vt 1.000000 1.000000
f 886/886 887/887 888/888
v 0.120000 0.140000 0.512000
v 0.111515 0.140000 0.508485
v 0.111515 0.159200 0.508485
v 0.120000 0.159200 0.512000
vt 0.500000 0.000000
vt 0.625000 0.000000
vt 0.625000 1.000000
vt 0.500000 1.000000
f 889/889 890/890 891/891 892/892
v 0.120000 0.140000 0.500000
v 0.111515 0.140000 0.508485
v 0.120000 0.140000 0.512000
vt 0.000000 0.000000
vt 1.000000 0.000000
vt 1.000000 1.000000
f 893/893 894/894 895/895
v 0.120000 0.159200 0.500000
v 0.120000 0.159200 0.512000
v 0.111515 0.159200 0.508485
vt 0.000000 0.000000
vt 1.000000 0.000000
vt 1.000000 1.000000
f 896/896 897/897 898/898
v 0.111515 0.140000 0.508485
v 0.108000 0.140000 0.500000
v 0.108000 0.159200 0.500000
v 0.111515 0.159200 0.508485
vt 0.625000 0.000000
vt 0.750000 0.000000
vt 0.750000 1.000000
vt 0.625000 1.000000
f 899/899 900/900 901/901 902/902
v 0.120000 0.140000 0.500000
v 0.108000 0.140000 0.500000
v 0.111515 0.140000 0.508485
vt 0.000000 0.000000
vt 1.000000 0.000000
vt 1.000000 1.000000
f 903/903 904/904 905/905
v 0.120000 0.159200 0.500000
v 0.111515 0.159200 0.508485
v 0.108000 0.159200 0.500000
vt 0.000000 0.000000
vt 1.000000 0.000000
vt 1.000000 1.000000
f 906/906 907/907 908/908
v 0.108000 0.140000 0.500000
v 0.111515 0.140000 0.491515
v 0.111515 0.159200 0.491515
v 0.108000 0.159200 0.500000
vt 0.750000 0.000000
vt 0.875000 0.000000
vt 0.875000 1.000000
vt 0.750000 1.000000
f 909/909 910/910 911/911 912/912
v 0.120000 0.140000 0.500000
v 0.111515 0.140000 0.491515
v 0.108000 0.140000 0.500000
vt 0.000000 0.000000
vt 1.000000 0.000000
vt 1.000000 1.000000
f 913/913 914/914 915/915
v 0.120000 0.159200 0.500000
v 0.108000 0.159200 0.500000
v 0.111515 0.159200 0.491515
vt 0.000000 0.000000
vt 1.000000 0.000000
vt 1.000000 1.000000
f 916/916 917/917 918/918
v 0.111515 0.140000 0.491515
v 0.120000 0.140000 0.488000
v 0.120000 0.159200 0.488000
v 0.111515 0.159200 0.491515
vt 0.875000 0.000000
vt 1.000000 0.000000
vt 1.000000 1.000000
vt 0.875000 1.000000
f 919/919 920/920 921/921 922/922
v 0.120000 0.140000 0.500000
v 0.120000 0.140000 0.488000
v 0.111515 0.140000 0.491515
vt 0.000000 0.000000
vt 1.000000 0.000000
vt 1.000000 1.000000
f 923/923 924/924 925/925
v 0.120000 0.159200 0.500000
v 0.111515 0.159200 0.491515
v 0.120000 0.159200 0.488000
vt 0.000000 0.000000
vt 1.000000 0.000000
vt 1.000000 1.000000
f 926/926 927/927 928/928
v 0.231299 0.140000 0.219299
v 0.239785 0.140000 0.222814
v 0.239785 0.159200 0.222814
v 0.231299 0.159200 0.219299
vt 0.000000 0.000000
vt 0.125000 0.000000
vt 0.125000 1.000000
vt 0.000000 1.000000
f 929/929 930/930 931/931 932/932
v 0.231299 0.140000 0.231299
v 0.239785 0.140000 0.222814
v 0.231299 0.140000 0.219299
vt 0.000000 0.000000
vt 1.000000 0.000000
vt 1.000000 1.000000
f 933/933 934/934 935/935
v 0.231299 0.159200 0.231299
v 0.231299 0.159200 0.219299
v 0.239785 0.159200 0.222814
vt 0.000000 0.000000
vt 1.000000 0.000000
vt 1.000000 1.000000
f 936/936 937/937 938/938
v 0.239785 0.140000 0.222814
v 0.243299 0.140000 0.231299
v 0.243299 0.159200 0.231299
v 0.239785 0.159200 0.222814
vt 0.125000 0.000000
vt 0.250000 0.000000
vt 0.250000 1.000000
vt 0.125000 1.000000
f 939/939 940/940 941/941 942/942
v 0.231299 0.140000 0.231299
v 0.243299 0.140000 0.231299
v 0.239785 0.140000 0.222814
vt 0.000000 0.000000
vt 1.000000 0.000000
vt 1.000000 1.000000
f 943/943 944/944 945/945
v 0.231299 0.159200 0.231299
v 0.239785 0.159200 0.222814
v 0.243299 0.159200 0.231299
vt 0.000000 0.000000
vt 1.000000 0.000000
vt 1.000000 1.000000
f 946/946 947/947 948/948
v 0.243299 0.140000 0.231299
v 0.239785 0.140000 0.239785
v 0.239785 0.159200 0.239785
v 0.243299 0.159200 0.231299
vt 0.250000 0.000000
vt 0.375000 0.000000
vt 0.375000 1.000000
vt 0.250000 1.000000
f 949/949 950/950 951/951 952/952
v 0.231299 0.140000 0.231299
v 0.239785 0.140000 0.239785
v 0.243299 0.140000 0.231299
vt 0.000000 0.000000
vt 1.000000 0.000000
vt 1.000000 1.000000
f 953/953 954/954 955/955
v 0.231299 0.159200 0.231299
v 0.243299 0.159200 0.231299
v 0.239785 0.159200 0.239785
vt 0.000000 0.000000
vt 1.000000 0.000000
vt 1.000000 1.000000
f 956/956 957/957 958/958
v 0.239785 0.140000 0.239785
v 0.231299 0.140000 0.243299
v 0.231299 0.159200 0.243299
v 0.239785 0.159200 0.239785
vt 0.375000 0.000000
vt 0.500000 0.000000
vt 0.500000 1.000000
vt 0.375000 1.000000
f 959/959 960/960 961/961 962/962
v 0.231299 0.140000 0.231299
v 0.231299 0.140000 0.243299
v 0.239785 0.140000 0.239785
vt 0.000000 0.000000
vt 1.000000 0.000000
vt 1.000000 1.000000
f 963/963 964/964 965/965
v 0.231299 0.159200 0.231299
v 0.239785 0.159200 0.239785
v 0.231299 0.159200 0.243299
vt 0.000000 0.000000
vt 1.000000 0.000000
vt 1.000000 1.000000
f 966/966 967/967 968/968
v 0.231299 0.140000 0.243299
v 0.222814 0.140000 0.239785
v 0.222814 0.159200 0.239785
v 0.231299 0.159200 0.243299
vt 0.500000 0.000000
vt 0.625000 0.000000
vt 0.625000 1.000000
vt 0.500000 1.000000
f 969/969 970/970 971/971 972/972
v 0.231299 0.140000 0.231299
v 0.222814 0.140000 0.239785
v 0.231299 0.140000 0.243299
vt 0.000000 0.000000
vt 1.000000 0.000000
vt 1.000000 1.000000
f 973/973 974/974 975/975
v 0.231299 0.159200 0.231299
v 0.231299 0.159200 0.243299
v 0.222814 0.159200 0.239785
vt 0.000000 0.000000
vt 1.000000 0.000000
vt 1.000000 1.000000
f 976/976 977/977 978/978
v 0.222814 0.140000 0.239785
v 0.219299 0.140000 0.231299
v 0.219299 0.159200 0.231299
v 0.222814 0.159200 0.239785
vt 0.625000 0.000000
vt 0.750000 0.000000
vt 0.750000 1.000000
vt 0.625000 1.000000
f 979/979 980/980 981/981 982/982
v 0.231299 0.140000 0.231299
v 0.219299 0.140000 0.231299
v 0.222814 0.140000 0.239785
vt 0.000000 0.000000
vt 1.000000 0.000000
vt 1.000000 1.000000
f 983/983 984/984 985/985
v 0.231299 0.159200 0.231299
v 0.222814 0.159200 0.239785
v 0.219299 0.159200 0.231299
vt 0.000000 0.000000
vt 1.000000 0.000000
vt 1.000000 1.000000
f 986/986 987/987 988/988
v 0.219299 0.140000 0.231299
v 0.222814 0.140000 0.222814
v 0.222814 0.159200 0.222814
v 0.219299 0.159200 0.231299
vt 0.750000 0.000000
vt 0.875000 0.000000
vt 0.875000 1.000000
vt 0.750000 1.000000
f 989/989 990/990 991/991 992/992
v 0.231299 0.140000 0.231299
v 0.222814 0.140000 0.222814
v 0.219299 0.140000 0.231299
vt 0.000000 0.000000
vt 1.000000 0.000000
vt 1.000000 1.000000
f 993/993 994/994 995/995
v 0.231299 0.159200 0.231299
v 0.219299 0.159200 0.231299
v 0.222814 0.159200 0.222814
vt 0.000000 0.000000
vt 1.000000 0.000000
vt 1.000000 1.000000
f 996/996 997/997 998/998
v 0.222814 0.140000 0.222814
v 0.231299 0.140000 0.219299
v 0.231299 0.159200 0.219299
v 0.222814 0.159200 0.222814
vt 0.875000 0.000000
vt 1.000000 0.000000
vt 1.000000 1.000000
vt 0.875000 1.000000
f 999/999 1000/1000 1001/1001 1002/1002
v 0.231299 0.140000 0.231299
v 0.231299 0.140000 0.219299
v 0.222814 0.140000 0.222814
vt 0.000000 0.000000
vt 1.000000 0.000000
vt 1.000000 1.000000
f 1003/1003 1004/1004 1005/1005
v 0.231299 0.159200 0.231299
v 0.222814 0.159200 0.222814
v 0.231299 0.159200 0.219299
vt 0.000000 0.000000
vt 1.000000 0.000000
vt 1.000000 1.000000
f 1006/1006 1007/1007 1008/1008
usemtl white
v 0.425000 0.700000 0.380000
v 0.428671 0.723176 0.380000
v 0.428671 0.723176 0.760000
v 0.425000 0.700000 0.760000
vt 0.000000 0.000000
vt 0.050000 0.000000
vt 0.050000 1.000000
vt 0.000000 1.000000
f 1009/1009 1010/1010 1011/1011 1012/1012
v 0.500000 0.700000 0.380000
v 0.428671 0.723176 0.380000
v 0.425000 0.700000 0.380000
vt 0.000000 0.000000
vt 1.000000 0.000000
vt 1.000000 1.000000
f 1013/1013 1014/1014 1015/1015
v 0.500000 0.700000 0.760000
v 0.425000 0.700000 0.760000
v 0.428671 0.723176 0.760000
vt 0.000000 0.000000
vt 1.000000 0.000000
vt 1.000000 1.000000
f 1016/1016 1017/1017 1018/1018
v 0.428671 0.723176 0.380000
v 0.439324 0.744084 0.380000
v 0.439324 0.744084 0.760000
v 0.428671 0.723176 0.760000
vt 0.050000 0.000000
vt 0.100000 0.000000
vt 0.100000 1.000000
vt 0.050000 1.000000
f 1019/1019 1020/1020 1021/1021 1022/1022
v 0.500000 0.700000 0.380000
v 0.439324 0.744084 0.380000
v 0.428671 0.723176 0.380000
vt 0.000000 0.000000
vt 1.000000 0.000000
vt 1.000000 1.000000
f 1023/1023 1024/1024 1025/1025
v 0.500000 0.700000 0.760000
v 0.428671 0.723176 0.760000
v 0.439324 0.744084 0.760000
vt 0.000000 0.000000
vt 1.000000 0.000000
vt 1.000000 1.000000
f 1026/1026 1027/1027 1028/1028
v 0.439324 0.744084 0.380000
v 0.455916 0.760676 0.380000
v 0.455916 0.760676 0.760000
v 0.439324 0.744084 0.760000
vt 0.100000 0.000000
vt 0.150000 0.000000
vt 0.150000 1.000000
vt 0.100000 1.000000
f 1029/1029 1030/1030 1031/1031 1032/1032
v 0.500000 0.700000 0.380000
v 0.455916 0.760676 0.380000
v 0.439324 0.744084 0.380000
vt 0.000000 0.000000
vt 1.000000 0.000000
vt 1.000000 1.000000
f 1033/1033 1034/1034 1035/1035
v 0.500000 0.700000 0.760000
v 0.439324 0.744084 0.760000
v 0.455916 0.760676 0.760000
vt 0.000000 0.000000
vt 1.000000 0.000000
vt 1.000000 1.000000
f 1036/1036 1037/1037 1038/1038
v 0.455916 0.760676 0.380000
v 0.476824 0.771329 0.380000
v 0.476824 0.771329 0.760000
v 0.455916 0.760676 0.760000
vt 0.150000 0.000000
vt 0.200000 0.000000
vt 0.200000 1.000000
vt 0.150000 1.000000
f 1039/1039 1040/1040 1041/1041 1042/1042
v 0.500000 0.700000 0.380000
v 0.476824 0.771329 0.380000
v 0.455916 0.760676 0.380000
vt 0.000000 0.000000
vt 1.000000 0.000000
vt 1.000000 1.000000
f 1043/1043 1044/1044 1045/1045
v 0.500000 0.700000 0.760000
v 0.455916 0.760676 0.760000
v 0.476824 0.771329 0.760000
vt 0.000000 0.000000
vt 1.000000 0.000000
vt 1.000000 1.000000
f 1046/1046 1047/1047 1048/1048
v 0.476824 0.771329 0.380000
v 0.500000 0.775000 0.380000
v 0.500000 0.775000 0.760000
v 0.476824 0.771329 0.760000
vt 0.200000 0.000000
vt 0.250000 0.000000
vt 0.250000 1.000000
vt 0.200000 1.000000
f 1049/1049 1050/1050 1051/1051 1052/1052
v 0.500000 0.700000 0.380000
v 0.500000 0.775000 0.380000
v 0.476824 0.771329 0.380000
vt 0.000000 0.000000
vt 1.000000 0.000000
vt 1.000000 1.000000
f 1053/1053 1054/1054 1055/1055
v 0.500000 0.700000 0.760000
v 0.476824 0.771329 0.760000
v 0.500000 0.775000 0.760000
vt 0.000000 0.000000
vt 1.000000 0.000000
vt 1.000000 1.000000
f 1056/1056 1057/1057 1058/1058
v 0.500000 0.775000 0.380000
v 0.523176 0.771329 0.380000
v 0.523176 0.771329 0.760000
v 0.500000 0.775000 0.760000
vt 0.250000 0.000000
vt 0.300000 0.000000
vt 0.300000 1.000000
vt 0.250000 1.000000
f 1059/1059 1060/1060 1061/1061 1062/1062
v 0.500000 0.700000 0.380000
v 0.523176 0.771329 0.380000
v 0.500000 0.775000 0.380000
vt 0.000000 0.000000
vt 1.000000 0.000000
vt 1.000000 1.000000
f 1063/1063 1064/1064 1065/1065
v 0.500000 0.700000 0.760000
v 0.500000 0.775000 0.760000
v 0.523176 0.771329 0.760000
vt 0.000000 0.000000
vt 1.000000 0.000000
vt 1.000000 1.000000
f 1066/1066 1067/1067 1068/1068
v 0.523176 0.771329 0.380000
v 0.544084 0.760676 0.380000
v 0.544084 0.760676 0.760000
v 0.523176 0.771329 0.760000
vt 0.300000 0.000000
vt 0.350000 0.000000
vt 0.350000 1.000000
vt 0.300000 1.000000
f 1069/1069 1070/1070 1071/1071 1072/1072
v 0.500000 0.700000 0.380000
v 0.544084 0.760676 0.380000
v 0.523176 0.771329 0.380000
vt 0.000000 0.000000
vt 1.000000 0.000000
vt 1.000000 1.000000
f 1073/1073 1074/1074 1075/1075
v 0.500000 0.700000 0.760000
v 0.523176 0.771329 0.760000
v 0.544084 0.760676 0.760000
vt 0.000000 0.000000
vt 1.000000 0.000000
vt 1.000000 1.000000
f 1076/1076 1077/1077 1078/1078
v 0.544084 0.760676 0.380000
v 0.560676 0.744084 0.380000
v 0.560676 0.744084 0.760000
v 0.544084 0.760676 0.760000
vt 0.350000 0.000000
vt 0.400000 0.000000
vt 0.400000 1.000000
vt 0.350000 1.000000
f 1079/1079 1080/1080 1081/1081 1082/1082
v 0.500000 0.700000 0.380000
v 0.560676 0.744084 0.380000
v 0.544084 0.760676 0.380000
vt 0.000000 0.000000
vt 1.000000 0.000000
vt 1.000000 1.000000
f 1083/1083 1084/1084 1085/1085
v 0.500000 0.700000 0.760000
v 0.544084 0.760676 0.760000
v 0.560676 0.744084 0.760000
vt 0.000000 0.000000
vt 1.000000 0.000000
vt 1.000000 1.000000
f 1086/1086 1087/1087 1088/1088
v 0.560676 0.744084 0.380000
v 0.571329 0.723176 0.380000
v 0.571329 0.723176 0.760000
v 0.560676 0.744084 0.760000
vt 0.400000 0.000000
vt 0.450000 0.000000
vt 0.450000 1.000000
vt 0.400000 1.000000
f 1089/1089 1090/1090 1091/1091 1092/1092
v 0.500000 0.700000 0.380000
v 0.571329 0.723176 0.380000
v 0.560676 0.744084 0.380000
vt 0.000000 0.000000
vt 1.000000 0.000000
vt 1.000000 1.000000
f 1093/1093 1094/1094 1095/1095
v 0.500000 0.700000 0.760000
v 0.560676 0.744084 0.760000
v 0.571329 0.723176 0.760000
vt 0.000000 0.000000
vt 1.000000 0.000000
vt 1.000000 1.000000
f 1096/1096 1097/1097 1098/1098
v 0.571329 0.723176 0.380000
v 0.575000 0.700000 0.380000
v 0.575000 0.700000 0.760000
v 0.571329 0.723176 0.760000
vt 0.450000 0.000000
vt 0.500000 0.000000
vt 0.500000 1.000000
vt 0.450000 1.000000
f 1099/1099 1100/1100 1101/1101 1102/1102
v 0.500000 0.700000 0.380000
v 0.575000 0.700000 0.380000
v 0.571329 0.723176 0.380000
vt 0.000000 0.000000
vt 1.000000 0.000000
vt 1.000000 1.000000
f 1103/1103 1104/1104 1105/1105
v 0.500000 0.700000 0.760000
v 0.571329 0.723176 0.760000
v 0.575000 0.700000 0.760000
vt 0.000000 0.000000
vt 1.000000 0.000000
vt 1.000000 1.000000
f 1106/1106 1107/1107 1108/1108
v 0.575000 0.700000 0.380000
v 0.571329 0.676824 0.380000
v 0.571329 0.676824 0.760000
v 0.575000 0.700000 0.760000
vt 0.500000 0.000000
vt 0.550000 0.000000
vt 0.550000 1.000000
vt 0.500000 1.000000
f 1109/1109 1110/1110 1111/1111 1112/1112
v 0.500000 0.700000 0.380000
v 0.571329 0.676824 0.380000
v 0.575000 0.700000 0.380000
vt 0.000000 0.000000
vt 1.000000 0.000000
vt 1.000000 1.000000
f 1113/1113 1114/1114 1115/1115
v 0.500000 0.700000 0.760000
v 0.575000 0.700000 0.760000
v 0.571329 0.676824 0.760000
vt 0.000000 0.000000
vt 1.000000 0.000000
vt 1.000000 1.000000
f 1116/1116 1117/1117 1118/1118
v 0.571329 0.676824 0.380000
v 0.560676 0.655916 0.380000
v 0.560676 0.655916 0.760000
v 0.571329 0.676824 0.760000
vt 0.550000 0.000000
vt 0.600000 0.000000
vt 0.600000 1.000000
vt 0.550000 1.000000
f 1119/1119 1120/1120 1121/1121 1122/1122
v 0.500000 0.700000 0.380000
v 0.560676 0.655916 0.380000
v 0.571329 0.676824 0.380000
vt 0.000000 0.000000
vt 1.000000 0.000000
vt 1.000000 1.000000
f 1123/1123 1124/1124 1125/1125
v 0.500000 0.700000 0.760000
v 0.571329 0.676824 0.760000
v 0.560676 0.655916 0.760000
vt 0.000000 0.000000
vt 1.000000 0.000000
vt 1.000000 1.000000
f 1126/1126 1127/1127 1128/1128
v 0.560676 0.655916 0.380000
v 0.544084 0.639324 0.380000
v 0.544084 0.639324 0.760000
v 0.560676 0.655916 0.760000
vt 0.600000 0.000000
vt 0.650000 0.000000
vt 0.650000 1.000000
vt 0.600000 1.000000
f 1129/1129 1130/1130 1131/1131 1132/1132
v 0.500000 0.700000 0.380000
v 0.544084 0.639324 0.380000
v 0.560676 0.655916 0.380000
vt 0.000000 0.000000
vt 1.000000 0.000000
vt 1.000000 1.000000
f 1133/1133 1134/1134 1135/1135
v 0.500000 0.700000 0.760000
v 0.560676 0.655916 0.760000
v 0.544084 0.639324 0.760000
vt 0.000000 0.000000
vt 1.000000 0.000000
vt 1.000000 1.000000
f 1136/1136 1137/1137 1138/1138
v 0.544084 0.639324 0.380000
v 0.523176 0.628671 0.380000
v 0.523176 0.628671 0.760000
v 0.544084 0.639324 0.760000
vt 0.650000 0.000000
vt 0.700000 0.000000
vt 0.700000 1.000000
vt 0.650000 1.000000
f 1139/1139 1140/1140 1141/1141 1142/1142
v 0.500000 0.700000 0.380000
v 0.523176 0.628671 0.380000
v 0.544084 0.639324 0.380000
vt 0.000000 0.000000
vt 1.000000 0.000000
vt 1.000000 1.000000
f 1143/1143 1144/1144 1145/1145
v 0.500000 0.700000 0.760000
v 0.544084 0.639324 0.760000
v 0.523176 0.628671 0.760000
vt 0.000000 0.000000
vt 1.000000 0.000000
vt 1.000000 1.000000
f 1146/1146 1147/1147 1148/1148
v 0.523176 0.628671 0.380000
v 0.500000 0.625000 0.380000
v 0.500000 0.625000 0.760000
v 0.523176 0.628671 0.760000
vt 0.700000 0.000000
vt 0.750000 0.000000
vt 0.750000 1.000000
vt 0.700000 1.000000
f 1149/1149 1150/1150 1151/1151 1152/1152
v 0.500000 0.700000 0.380000
v 0.500000 0.625000 0.380000
v 0.523176 0.628671 0.380000
vt 0.000000 0.000000
vt 1.000000 0.000000
vt 1.000000 1.000000
f 1153/1153 1154/1154 1155/1155
v 0.500000 0.700000 0.760000
v 0.523176 0.628671 0.760000
v 0.500000 0.625000 0.760000
vt 0.000000 0.000000
vt 1.000000 0.000000
vt 1.000000 1.000000
f 1156/1156 1157/1157 1158/1158
v 0.500000 0.625000 0.380000
v 0.476824 0.628671 0.380000
v 0.476824 0.628671 0.760000
v 0.500000 0.625000 0.760000
vt 0.750000 0.000000
vt 0.800000 0.000000
vt 0.800000 1.000000
vt 0.750000 1.000000
f 1159/1159 1160/1160 1161/1161 1162/1162
v 0.500000 0.700000 0.380000
v 0.476824 0.628671 0.380000
v 0.500000 0.625000 0.380000
vt 0.000000 0.000000
vt 1.000000 0.000000
vt 1.000000 1.000000
f 1163/1163 1164/1164 1165/1165
v 0.500000 0.700000 0.760000
v 0.500000 0.625000 0.760000
v 0.476824 0.628671 0.760000
vt 0.000000 0.000000
vt 1.000000 0.000000
vt 1.000000 1.000000
f 1166/1166 1167/1167 1168/1168
v 0.476824 0.628671 0.380000
v 0.455916 0.639324 0.380000
v 0.455916 0.639324 0.760000
v 0.476824 0.628671 0.760000
vt 0.800000 0.000000
vt 0.850000 0.000000
vt 0.850000 1.000000
vt 0.800000 1.000000
f 1169/1169 1170/1170 1171/1171 1172/1172
v 0.500000 0.700000 0.380000
v 0.455916 0.639324 0.380000
v 0.476824 0.628671 0.380000
vt 0.000000 0.000000
vt 1.000000 0.000000
vt 1.000000 1.000000
f 1173/1173 1174/1174 1175/1175
v 0.500000 0.700000 0.760000
v 0.476824 0.628671 0.760000
v 0.455916 0.639324 0.760000
vt 0.000000 0.000000
vt 1.000000 0.000000
vt 1.000000 1.000000
f 1176/1176 1177/1177 1178/1178
v 0.455916 0.639324 0.380000
v 0.439324 0.655916 0.380000
v 0.439324 0.655916 0.760000
v 0.455916 0.639324 0.760000
vt 0.850000 0.000000
vt 0.900000 0.000000
vt 0.900000 1.000000
vt 0.850000 1.000000
f 1179/1179 1180/1180 1181/1181 1182/1182
v 0.500000 0.700000 0.380000
v 0.439324 0.655916 0.380000
v 0.455916 0.639324 0.380000
vt 0.000000 0.000000
vt 1.000000 0.000000
vt 1.000000 1.000000
f 1183/1183 1184/1184 1185/1185
v 0.500000 0.700000 0.760000
v 0.455916 0.639324 0.760000
v 0.439324 0.655916 0.760000
vt 0.000000 0.000000
vt 1.000000 0.000000
vt 1.000000 1.000000
f 1186/1186 1187/1187 1188/1188
v 0.439324 0.655916 0.380000
v 0.428671 0.676824 0.380000
v 0.428671 0.676824 0.760000
v 0.439324 0.655916 0.760000
vt 0.900000 0.000000
vt 0.950000 0.000000
vt 0.950000 1.000000
vt 0.900000 1.000000
f 1189/1189 1190/1190 1191/1191 1192/1192
v 0.500000 0.700000 0.380000
v 0.428671 0.676824 0.380000
v 0.439324 0.655916 0.380000
vt 0.000000 0.000000
vt 1.000000 0.000000
vt 1.000000 1.000000
f 1193/1193 1194/1194 1195/1195
v 0.500000 0.700000 0.760000
v 0.439324 0.655916 0.760000
v 0.428671 0.676824 0.760000
vt 0.000000 0.000000
vt 1.000000 0.000000
vt 1.000000 1.000000
f 1196/1196 1197/1197 1198/1198
v 0.428671 0.676824 0.380000
v 0.425000 0.700000 0.380000
v 0.425000 0.700000 0.760000
v 0.428671 0.676824 0.760000
vt 0.950000 0.000000
vt 1.000000 0.000000
vt 1.000000 1.000000
vt 0.950000 1.000000
f 1199/1199 1200/1200 1201/1201 1202/1202
v 0.500000 0.700000 0.380000
v 0.425000 0.700000 0.380000
v 0.428671 0.676824 0.380000
vt 0.000000 0.000000
vt 1.000000 0.000000
vt 1.000000 1.000000
f 1203/1203 1204/1204 1205/1205
v 0.500000 0.700000 0.760000
v 0.428671 0.676824 0.760000
v 0.425000 0.700000 0.760000
vt 0.000000 0.000000
vt 1.000000 0.000000
vt 1.000000 1.000000
f 1206/1206 1207/1207 1208/1208
usemtl glass
v 0.405000 0.700000 0.740000
v 0.410729 0.732492 0.740000
v 0.410729 0.732492 0.880000
v 0.405000 0.700000 0.880000
vt 0.000000 0.000000
vt 0.055556 0.000000
vt 0.055556 1.000000
vt 0.000000 1.000000
f 1209/1209 1210/1210 1211/1211 1212/1212
v 0.500000 0.700000 0.740000
v 0.410729 0.732492 0.740000
v 0.405000 0.700000 0.740000
vt 0.000000 0.000000
vt 1.000000 0.000000
vt 1.000000 1.000000
f 1213/1213 1214/1214 1215/1215
v 0.500000 0.700000 0.880000
v 0.405000 0.700000 0.880000
v 0.410729 0.732492 0.880000
vt 0.000000 0.000000
vt 1.000000 0.000000
vt 1.000000 1.000000
f 1216/1216 1217/1217 1218/1218
v 0.410729 0.732492 0.740000
v 0.427226 0.761065 0.740000
v 0.427226 0.761065 0.880000
v 0.410729 0.732492 0.880000
vt 0.055556 0.000000
vt 0.111111 0.000000
vt 0.111111 1.000000
vt 0.055556 1.000000
f 1219/1219 1220/1220 1221/1221 1222/1222
v 0.500000 0.700000 0.740000
v 0.427226 0.761065 0.740000
v 0.410729 0.732492 0.740000
vt 0.000000 0.000000
vt 1.000000 0.000000
vt 1.000000 1.000000
f 1223/1223 1224/1224 1225/1225
v 0.500000 0.700000 0.880000
v 0.410729 0.732492 0.880000
v 0.427226 0.761065 0.880000
vt 0.000000 0.000000
vt 1.000000 0.000000
vt 1.000000 1.000000
f 1226/1226 1227/1227 1228/1228
v 0.427226 0.761065 0.740000
v 0.452500 0.782272 0.740000
v 0.452500 0.782272 0.880000
v 0.427226 0.761065 0.880000
vt 0.111111 0.000000
vt 0.166667 0.000000
vt 0.166667 1.000000
vt 0.111111 1.000000
f 1229/1229 1230/1230 1231/1231 1232/1232
v 0.500000 0.700000 0.740000
v 0.452500 0.782272 0.740000
v 0.427226 0.761065 0.740000
vt 0.000000 0.000000
vt 1.000000 0.000000
vt 1.000000 1.000000
f 1233/1233 1234/1234 1235/1235
v 0.500000 0.700000 0.880000
v 0.427226 0.761065 0.880000
v 0.452500 0.782272 0.880000
vt 0.000000 0.000000
vt 1.000000 0.000000
vt 1.000000 1.000000
f 1236/1236 1237/1237 1238/1238
v 0.452500 0.782272 0.740000
v 0.483503 0.793557 0.740000
v 0.483503 0.793557 0.880000
v 0.452500 0.782272 0.880000
vt 0.166667 0.000000
vt 0.222222 0.000000
vt 0.222222 1.000000
vt 0.166667 1.000000
f 1239/1239 1240/1240 1241/1241 1242/1242
v 0.500000 0.700000 0.740000
v 0.483503 0.793557 0.740000
v 0.452500 0.782272 0.740000
vt 0.000000 0.000000
vt 1.000000 0.000000
vt 1.000000 1.000000
f 1243/1243 1244/1244 1245/1245
v 0.500000 0.700000 0.880000
v 0.452500 0.782272 0.880000
v 0.483503 0.793557 0.880000
vt 0.000000 0.000000
vt 1.000000 0.000000
vt 1.000000 1.000000
f 1246/1246 1247/1247 1248/1248
v 0.483503 0.793557 0.740000
v 0.516497 0.793557 0.740000
v 0.516497 0.793557 0.880000
v 0.483503 0.793557 0.880000
vt 0.222222 0.000000
vt 0.277778 0.000000
vt 0.277778 1.000000
vt 0.222222 1.000000
f 1249/1249 1250/1250 1251/1251 1252/1252
v 0.500000 0.700000 0.740000
v 0.516497 0.793557 0.740000
v 0.483503 0.793557 0.740000
vt 0.000000 0.000000
vt 1.000000 0.000000
vt 1.000000 1.000000
f 1253/1253 1254/1254 1255/1255
v 0.500000 0.700000 0.880000
v 0.483503 0.793557 0.880000
v 0.516497 0.793557 0.880000
vt 0.000000 0.000000
vt 1.000000 0.000000
vt 1.000000 1.000000
f 1256/1256 1257/1257 1258/1258
v 0.516497 0.793557 0.740000
v 0.547500 0.782272 0.740000
v 0.547500 0.782272 0.880000
v 0.516497 0.793557 0.880000
vt 0.277778 0.000000
vt 0.333333 0.000000
vt 0.333333 1.000000
vt 0.277778 1.000000
f 1259/1259 1260/1260 1261/1261 1262/1262
v 0.500000 0.700000 0.740000
v 0.547500 0.782272 0.740000
v 0.516497 0.793557 0.740000
vt 0.000000 0.000000
vt 1.000000 0.000000
vt 1.000000 1.000000
f 1263/1263 1264/1264 1265/1265
v 0.500000 0.700000 0.880000
v 0.516497 0.793557 0.880000
v 0.547500 0.782272 0.880000
vt 0.000000 0.000000
vt 1.000000 0.000000
vt 1.000000 1.000000
f 1266/1266 1267/1267 1268/1268
v 0.547500 0.782272 0.740000
v 0.572774 0.761065 0.740000
v 0.572774 0.761065 0.880000
v 0.547500 0.782272 0.880000
vt 0.333333 0.000000
vt 0.388889 0.000000
vt 0.388889 1.000000
vt 0.333333 1.000000
f 1269/1269 1270/1270 1271/1271 1272/1272
v 0.500000 0.700000 0.740000
v 0.572774 0.761065 0.740000
v 0.547500 0.782272 0.740000
vt 0.000000 0.000000
vt 1.000000 0.000000
vt 1.000000 1.000000
f 1273/1273 1274/1274 1275/1275
v 0.500000 0.700000 0.880000
v 0.547500 0.782272 0.880000
v 0.572774 0.761065 0.880000
vt 0.000000 0.000000
vt 1.000000 0.000000
vt 1.000000 1.000000
f 1276/1276 1277/1277 1278/1278
v 0.572774 0.761065 0.740000
v 0.589271 0.732492 0.740000
v 0.589271 0.732492 0.880000
v 0.572774 0.761065 0.880000
vt 0.388889 0.000000
vt 0.444444 0.000000
vt 0.444444 1.000000
vt 0.388889 1.000000
f 1279/1279 1280/1280 1281/1281 1282/1282
v 0.500000 0.700000 0.740000
v 0.589271 0.732492 0.740000
v 0.572774 0.761065 0.740000
vt 0.000000 0.000000
vt 1.000000 0.000000
vt 1.000000 1.000000
f 1283/1283 1284/1284 1285/1285
v 0.500000 0.700000 0.880000
v 0.572774 0.761065 0.880000
v 0.589271 0.732492 0.880000
vt 0.000000 0.000000
vt 1.000000 0.000000
vt 1.000000 1.000000
f 1286/1286 1287/1287 1288/1288
v 0.589271 0.732492 0.740000
v 0.595000 0.700000 0.740000
v 0.595000 0.700000 0.880000
v 0.589271 0.732492 0.880000
vt 0.444444 0.000000
vt 0.500000 0.000000
vt 0.500000 1.000000
vt 0.444444 1.000000
f 1289/1289 1290/1290 1291/1291 1292/1292
v 0.500000 0.700000 0.740000
v 0.595000 0.700000 0.740000
v 0.589271 0.732492 0.740000
vt 0.000000 0.000000
vt 1.000000 0.000000
vt 1.000000 1.000000
f 1293/1293 1294/1294 1295/1295
v 0.500000 0.700000 0.880000
v 0.589271 0.732492 0.880000
v 0.595000 0.700000 0.880000
vt 0.000000 0.000000
vt 1.000000 0.000000
vt 1.000000 1.000000
f 1296/1296 1297/1297 1298/1298
v 0.595000 0.700000 0.740000
v 0.589271 0.667508 0.740000
v 0.589271 0.667508 0.880000
v 0.595000 0.700000 0.880000
vt 0.500000 0.000000
vt 0.555556 0.000000
vt 0.555556 1.000000
vt 0.500000 1.000000
f 1299/1299 1300/1300 1301/1301 1302/1302
v 0.500000 0.700000 0.740000
v 0.589271 0.667508 0.740000
v 0.595000 0.700000 0.740000
vt 0.000000 0.000000
vt 1.000000 0.000000
vt 1.000000 1.000000
f 1303/1303 1304/1304 1305/1305
v 0.500000 0.700000 0.880000
v 0.595000 0.700000 0.880000
v 0.589271 0.667508 0.880000
vt 0.000000 0.000000
vt 1.000000 0.000000
vt 1.000000 1.000000
f 1306/1306 1307/1307 1308/1308
v 0.589271 0.667508 0.740000
v 0.572774 0.638935 0.740000
v 0.572774 0.638935 0.880000
v 0.589271 0.667508 0.880000
vt 0.555556 0.000000
vt 0.611111 0.000000
vt 0.611111 1.000000
vt 0.555556 1.000000
f 1309/1309 1310/1310 1311/1311 1312/1312
v 0.500000 0.700000 0.740000
v 0.572774 0.638935 0.740000
v 0.589271 0.667508 0.740000
vt 0.000000 0.000000
vt 1.000000 0.000000
vt 1.000000 1.000000
f 1313/1313 1314/1314 1315/1315
v 0.500000 0.700000 0.880000
v 0.589271 0.667508 0.880000
v 0.572774 0.638935 0.880000
vt 0.000000 0.000000
vt 1.000000 0.000000
vt 1.000000 1.000000
f 1316/1316 1317/1317 1318/1318
v 0.572774 0.638935 0.740000
v 0.547500 0.617728 0.740000
v 0.547500 0.617728 0.880000
v 0.572774 0.638935 0.880000
vt 0.611111 0.000000
vt 0.666667 0.000000
vt 0.666667 1.000000
vt 0.611111 1.000000
f 1319/1319 1320/1320 1321/1321 1322/1322
v 0.500000 0.700000 0.740000
v 0.547500 0.617728 0.740000
v 0.572774 0.638935 0.740000
vt 0.000000 0.000000
vt 1.000000 0.000000
vt 1.000000 1.000000
f 1323/1323 1324/1324 1325/1325
v 0.500000 0.700000 0.880000
v 0.572774 0.638935 0.880000
v 0.547500 0.617728 0.880000
vt 0.000000 0.000000
vt 1.000000 0.000000
vt 1.000000 1.000000
f 1326/1326 1327/1327 1328/1328
v 0.547500 0.617728 0.740000
v 0.516497 0.606443 0.740000
v 0.516497 0.606443 0.880000
v 0.547500 0.617728 0.880000
vt 0.666667 0.000000
vt 0.722222 0.000000
vt 0.722222 1.000000
vt 0.666667 1.000000
f 1329/1329 1330/1330 1331/1331 1332/1332
v 0.500000 0.700000 0.740000
v 0.516497 0.606443 0.740000
v 0.547500 0.617728 0.740000
vt 0.000000 0.000000
vt 1.000000 0.000000
vt 1.000000 1.000000
f 1333/1333 1334/1334 1335/1335
v 0.500000 0.700000 0.880000
v 0.547500 0.617728 0.880000
v 0.516497 0.606443 0.880000
vt 0.000000 0.000000
vt 1.000000 0.000000
vt 1.000000 1.000000
f 1336/1336 1337/1337 1338/1338
v 0.516497 0.606443 0.740000
v 0.483503 0.606443 0.740000
v 0.483503 0.606443 0.880000
v 0.516497 0.606443 0.880000
vt 0.722222 0.000000
vt 0.777778 0.000000
vt 0.777778 1.000000
vt 0.722222 1.000000
f 1339/1339 1340/1340 1341/1341 1342/1342
v 0.500000 0.700000 0.740000
v 0.483503 0.606443 0.740000
v 0.516497 0.606443 0.740000
vt 0.000000 0.000000
vt 1.000000 0.000000
vt 1.000000 1.000000
f 1343/1343 1344/1344 1345/1345
v 0.500000 0.700000 0.880000
v 0.516497 0.606443 0.880000
v 0.483503 0.606443 0.880000
vt 0.000000 0.000000
vt 1.000000 0.000000
vt 1.000000 1.000000
f 1346/1346 1347/1347 1348/1348
v 0.483503 0.606443 0.740000
v 0.452500 0.617728 0.740000
v 0.452500 0.617728 0.880000
v 0.483503 0.606443 0.880000
vt 0.777778 0.000000
vt 0.833333 0.000000
vt 0.833333 1.000000
vt 0.777778 1.000000
f 1349/1349 1350/1350 1351/1351 1352/1352
v 0.500000 0.700000 0.740000
v 0.452500 0.617728 0.740000
v 0.483503 0.606443 0.740000
vt 0.000000 0.000000
vt 1.000000 0.000000
vt 1.000000 1.000000
f 1353/1353 1354/1354 1355/1355
v 0.500000 0.700000 0.880000
v 0.483503 0.606443 0.880000
v 0.452500 0.617728 0.880000
vt 0.000000 0.000000
vt 1.000000 0.000000
vt 1.000000 1.000000
f 1356/1356 1357/1357 1358/1358
v 0.452500 0.617728 0.740000
v 0.427226 0.638935 0.740000
v 0.427226 0.638935 0.880000
v 0.452500 0.617728 0.880000
vt 0.833333 0.000000
vt 0.888889 0.000000
vt 0.888889 1.000000
vt 0.833333 1.000000
f 1359/1359 1360/1360 1361/1361 1362/1362
v 0.500000 0.700000 0.740000
v 0.427226 0.638935 0.740000
v 0.452500 0.617728 0.740000
vt 0.000000 0.000000
vt 1.000000 0.000000
vt 1.000000 1.000000
f 1363/1363 1364/1364 1365/1365
v 0.500000 0.700000 0.880000
v 0.452500 0.617728 0.880000
v 0.427226 0.638935 0.880000
vt 0.000000 0.000000
vt 1.000000 0.000000
vt 1.000000 1.000000
f 1366/1366 1367/1367 1368/1368
v 0.427226 0.638935 0.740000
v 0.410729 0.667508 0.740000
v 0.410729 0.667508 0.880000
v 0.427226 0.638935 0.880000
vt 0.888889 0.000000
vt 0.944444 0.000000
vt 0.944444 1.000000
vt 0.888889 1.000000
f 1369/1369 1370/1370 1371/1371 1372/1372
v 0.500000 0.700000 0.740000
v 0.410729 0.667508 0.740000
v 0.427226 0.638935 0.740000
vt 0.000000 0.000000
vt 1.000000 0.000000
vt 1.000000 1.000000
f 1373/1373 1374/1374 1375/1375
v 0.500000 0.700000 0.880000
v 0.427226 0.638935 0.880000
v 0.410729 0.667508 0.880000
vt 0.000000 0.000000
vt 1.000000 0.000000
vt 1.000000 1.000000
f 1376/1376 1377/1377 1378/1378
v 0.410729 0.667508 0.740000
v 0.405000 0.700000 0.740000
v 0.405000 0.700000 0.880000
v 0.410729 0.667508 0.880000
vt 0.944444 0.000000
vt 1.000000 0.000000
vt 1.000000 1.000000
vt 0.944444 1.000000
f 1379/1379 1380/1380 1381/1381 1382/1382
v 0.500000 0.700000 0.740000
v 0.405000 0.700000 0.740000
v 0.410729 0.667508 0.740000
vt 0.000000 0.000000
vt 1.000000 0.000000
vt 1.000000 1.000000
f 1383/1383 1384/1384 1385/1385
v 0.500000 0.700000 0.880000
v 0.410729 0.667508 0.880000
v 0.405000 0.700000 0.880000
vt 0.000000 0.000000
vt 1.000000 0.000000
vt 1.000000 1.000000
f 1386/1386 1387/1387 1388/1388
usemtl dark
v 0.400000 0.620000 0.320000
v 0.600000 0.620000 0.320000
v 0.600000 0.780000 0.320000
v 0.400000 0.780000 0.320000
vt 0.000000 0.000000
vt 1.000000 0.000000
vt 1.000000 1.000000
vt 0.000000 1.000000
f 1389/1389 1390/1390 1391/1391 1392/1392
v 0.600000 0.620000 0.420000
v 0.400000 0.620000 0.420000
v 0.400000 0.780000 0.420000
v 0.600000 0.780000 0.420000
vt 0.000000 0.000000
vt 1.000000 0.000000
vt 1.000000 1.000000
vt 0.000000 1.000000
f 1393/1393 1394/1394 1395/1395 1396/1396
v 0.400000 0.620000 0.420000
v 0.400000 0.620000 0.320000
v 0.400000 0.780000 0.320000
v 0.400000 0.780000 0.420000
vt 0.000000 0.000000
vt 1.000000 0.000000
vt 1.000000 1.000000
vt 0.000000 1.000000
f 1397/1397 1398/1398 1399/1399 1400/1400
v 0.600000 0.620000 0.320000
v 0.600000 0.620000 0.420000
v 0.600000 0.780000 0.420000
v 0.600000 0.780000 0.320000
vt 0.000000 0.000000
vt 1.000000 0.000000
vt 1.000000 1.000000
vt 0.000000 1.000000
f 1401/1401 1402/1402 1403/1403 1404/1404
v 0.400000 0.780000 0.320000
v 0.600000 0.780000 0.320000
v 0.600000 0.780000 0.420000
v 0.400000 0.780000 0.420000
vt 0.000000 0.000000
vt 1.000000 0.000000
vt 1.000000 1.000000
vt 0.000000 1.000000
f 1405/1405 1406/1406 1407/1407 1408/1408
v 0.400000 0.620000 0.420000
v 0.600000 0.620000 0.420000
v 0.600000 0.620000 0.320000
v 0.400000 0.620000 0.320000
vt 0.000000 0.000000
vt 1.000000 0.000000
vt 1.000000 1.000000
vt 0.000000 1.000000
f 1409/1409 1410/1410 1411/1411 1412/1412
usemtl accent
v 0.470000 0.760000 0.440000
v 0.530000 0.760000 0.440000
v 0.530000 0.840000 0.440000
v 0.470000 0.840000 0.440000
vt 0.000000 0.000000
vt 1.000000 0.000000
vt 1.000000 1.000000
vt 0.000000 1.000000
f 1413/1413 1414/1414 1415/1415 1416/1416
v 0.530000 0.760000 0.580000
v 0.470000 0.760000 0.580000
v 0.470000 0.840000 0.580000
v 0.530000 0.840000 0.580000
vt 0.000000 0.000000
vt 1.000000 0.000000
vt 1.000000 1.000000
vt 0.000000 1.000000
f 1417/1417 1418/1418 1419/1419 1420/1420
v 0.470000 0.760000 0.580000
v 0.470000 0.760000 0.440000
v 0.470000 0.840000 0.440000
v 0.470000 0.840000 0.580000
vt 0.000000 0.000000
vt 1.000000 0.000000
vt 1.000000 1.000000
vt 0.000000 1.000000
f 1421/1421 1422/1422 1423/1423 1424/1424
v 0.530000 0.760000 0.440000
v 0.530000 0.760000 0.580000
v 0.530000 0.840000 0.580000
v 0.530000 0.840000 0.440000
vt 0.000000 0.000000
vt 1.000000 0.000000
vt 1.000000 1.000000
vt 0.000000 1.000000
f 1425/1425 1426/1426 1427/1427 1428/1428
v 0.470000 0.840000 0.440000
v 0.530000 0.840000 0.440000
v 0.530000 0.840000 0.580000
v 0.470000 0.840000 0.580000
vt 0.000000 0.000000
vt 1.000000 0.000000
vt 1.000000 1.000000
vt 0.000000 1.000000
f 1429/1429 1430/1430 1431/1431 1432/1432
v 0.470000 0.760000 0.580000
v 0.530000 0.760000 0.580000
v 0.530000 0.760000 0.440000
v 0.470000 0.760000 0.440000
vt 0.000000 0.000000
vt 1.000000 0.000000
vt 1.000000 1.000000
vt 0.000000 1.000000
f 1433/1433 1434/1434 1435/1435 1436/1436
