mtllib maintenance_hatch.mtl
o maintenance_hatch
s 1
usemtl dark
v 0.500000 0.020000 0.080000
v 0.593459 0.020000 0.090530
v 0.593459 0.180000 0.090530
v 0.500000 0.180000 0.080000
vt 0.000000 0.000000
vt 0.035714 0.000000
vt 0.035714 1.000000
vt 0.000000 1.000000
f 1/1 2/2 3/3 4/4
v 0.500000 0.020000 0.500000
v 0.593459 0.020000 0.090530
v 0.500000 0.020000 0.080000
vt 0.000000 0.000000
vt 1.000000 0.000000
vt 1.000000 1.000000
f 5/5 6/6 7/7
v 0.500000 0.180000 0.500000
v 0.500000 0.180000 0.080000
v 0.593459 0.180000 0.090530
vt 0.000000 0.000000
vt 1.000000 0.000000
vt 1.000000 1.000000
f 8/8 9/9 10/10
v 0.593459 0.020000 0.090530
v 0.682231 0.020000 0.121593
v 0.682231 0.180000 0.121593
v 0.593459 0.180000 0.090530
vt 0.035714 0.000000
vt 0.071429 0.000000
vt 0.071429 1.000000
vt 0.035714 1.000000
f 11/11 12/12 13/13 14/14
v 0.500000 0.020000 0.500000
v 0.682231 0.020000 0.121593
v 0.593459 0.020000 0.090530
vt 0.000000 0.000000
vt 1.000000 0.000000
vt 1.000000 1.000000
f 15/15 16/16 17/17
v 0.500000 0.180000 0.500000
v 0.593459 0.180000 0.090530
v 0.682231 0.180000 0.121593
vt 0.000000 0.000000
vt 1.000000 0.000000
vt 1.000000 1.000000
f 18/18 19/19 20/20
v 0.682231 0.020000 0.121593
v 0.761866 0.020000 0.171631
v 0.761866 0.180000 0.171631
v 0.682231 0.180000 0.121593
vt 0.071429 0.000000
vt 0.107143 0.000000
vt 0.107143 1.000000
vt 0.071429 1.000000
f 21/21 22/22 23/23 24/24
v 0.500000 0.020000 0.500000
v 0.761866 0.020000 0.171631
v 0.682231 0.020000 0.121593
vt 0.000000 0.000000
vt 1.000000 0.000000
vt 1.000000 1.000000
f 25/25 26/26 27/27
v 0.500000 0.180000 0.500000
v 0.682231 0.180000 0.121593
v 0.761866 0.180000 0.171631
vt 0.000000 0.000000
vt 1.000000 0.000000
vt 1.000000 1.000000
f 28/28 29/29 30/30
v 0.761866 0.020000 0.171631
v 0.828369 0.020000 0.238134
v 0.828369 0.180000 0.238134
v 0.761866 0.180000 0.171631
vt 0.107143 0.000000
vt 0.142857 0.000000
vt 0.142857 1.000000
vt 0.107143 1.000000
f 31/31 32/32 33/33 34/34
v 0.500000 0.020000 0.500000
v 0.828369 0.020000 0.238134
v 0.761866 0.020000 0.171631
vt 0.000000 0.000000
vt 1.000000 0.000000
vt 1.000000 1.000000
f 35/35 36/36 37/37
v 0.500000 0.180000 0.500000
v 0.761866 0.180000 0.171631
v 0.828369 0.180000 0.238134
vt 0.000000 0.000000
vt 1.000000 0.000000
vt 1.000000 1.000000
f 38/38 39/39 40/40
v 0.828369 0.020000 0.238134
v 0.878407 0.020000 0.317769
v 0.878407 0.180000 0.317769
v 0.828369 0.180000 0.238134
vt 0.142857 0.000000
vt 0.178571 0.000000
vt 0.178571 1.000000
vt 0.142857 1.000000
f 41/41 42/42 43/43 44/44
v 0.500000 0.020000 0.500000
v 0.878407 0.020000 0.317769
v 0.828369 0.020000 0.238134
vt 0.000000 0.000000
vt 1.000000 0.000000
vt 1.000000 1.000000
f 45/45 46/46 47/47
v 0.500000 0.180000 0.500000
v 0.828369 0.180000 0.238134
v 0.878407 0.180000 0.317769
vt 0.000000 0.000000
vt 1.000000 0.000000
vt 1.000000 1.000000
f 48/48 49/49 50/50
v 0.878407 0.020000 0.317769
v 0.909470 0.020000 0.406541
v 0.909470 0.180000 0.406541
v 0.878407 0.180000 0.317769
vt 0.178571 0.000000
vt 0.214286 0.000000
vt 0.214286 1.000000
vt 0.178571 1.000000
f 51/51 52/52 53/53 54/54
v 0.500000 0.020000 0.500000
v 0.909470 0.020000 0.406541
v 0.878407 0.020000 0.317769
vt 0.000000 0.000000
vt 1.000000 0.000000
vt 1.000000 1.000000
f 55/55 56/56 57/57
v 0.500000 0.180000 0.500000
v 0.878407 0.180000 0.317769
v 0.909470 0.180000 0.406541
vt 0.000000 0.000000
vt 1.000000 0.000000
vt 1.000000 1.000000
f 58/58 59/59 60/60
v 0.909470 0.020000 0.406541
v 0.920000 0.020000 0.500000
v 0.920000 0.180000 0.500000
v 0.909470 0.180000 0.406541
vt 0.214286 0.000000
vt 0.250000 0.000000
vt 0.250000 1.000000
vt 0.214286 1.000000
f 61/61 62/62 63/63 64/64
v 0.500000 0.020000 0.500000
v 0.920000 0.020000 0.500000
v 0.909470 0.020000 0.406541
vt 0.000000 0.000000
vt 1.000000 0.000000
vt 1.000000 1.000000
f 65/65 66/66 67/67
v 0.500000 0.180000 0.500000
v 0.909470 0.180000 0.406541
v 0.920000 0.180000 0.500000
vt 0.000000 0.000000
vt 1.000000 0.000000
vt 1.000000 1.000000
f 68/68 69/69 70/70
v 0.920000 0.020000 0.500000
v 0.909470 0.020000 0.593459
v 0.909470 0.180000 0.593459
v 0.920000 0.180000 0.500000
vt 0.250000 0.000000
vt 0.285714 0.000000
vt 0.285714 1.000000
vt 0.250000 1.000000
f 71/71 72/72 73/73 74/74
v 0.500000 0.020000 0.500000
v 0.909470 0.020000 0.593459
v 0.920000 0.020000 0.500000
vt 0.000000 0.000000
vt 1.000000 0.000000
vt 1.000000 1.000000
f 75/75 76/76 77/77
v 0.500000 0.180000 0.500000
v 0.920000 0.180000 0.500000
v 0.909470 0.180000 0.593459
vt 0.000000 0.000000
vt 1.000000 0.000000
vt 1.000000 1.000000
f 78/78 79/79 80/80
v 0.909470 0.020000 0.593459
v 0.878407 0.020000 0.682231
v 0.878407 0.180000 0.682231
v 0.909470 0.180000 0.593459
vt 0.285714 0.000000
vt 0.321429 0.000000
vt 0.321429 1.000000
vt 0.285714 1.000000
f 81/81 82/82 83/83 84/84
v 0.500000 0.020000 0.500000
v 0.878407 0.020000 0.682231
v 0.909470 0.020000 0.593459
vt 0.000000 0.000000
vt 1.000000 0.000000
vt 1.000000 1.000000
f 85/85 86/86 87/87
v 0.500000 0.180000 0.500000
v 0.909470 0.180000 0.593459
v 0.878407 0.180000 0.682231
vt 0.000000 0.000000
vt 1.000000 0.000000
vt 1.000000 1.000000
f 88/88 89/89 90/90
v 0.878407 0.020000 0.682231
v 0.828369 0.020000 0.761866
v 0.828369 0.180000 0.761866
v 0.878407 0.180000 0.682231
vt 0.321429 0.000000
vt 0.357143 0.000000
vt 0.357143 1.000000
vt 0.321429 1.000000
f 91/91 92/92 93/93 94/94
v 0.500000 0.020000 0.500000
v 0.828369 0.020000 0.761866
v 0.878407 0.020000 0.682231
vt 0.000000 0.000000
vt 1.000000 0.000000
vt 1.000000 1.000000
f 95/95 96/96 97/97
v 0.500000 0.180000 0.500000
v 0.878407 0.180000 0.682231
v 0.828369 0.180000 0.761866
vt 0.000000 0.000000
vt 1.000000 0.000000
vt 1.000000 1.000000
f 98/98 99/99 100/100
v 0.828369 0.020000 0.761866
v 0.761866 0.020000 0.828369
v 0.761866 0.180000 0.828369
v 0.828369 0.180000 0.761866
vt 0.357143 0.000000
vt 0.392857 0.000000
vt 0.392857 1.000000
vt 0.357143 1.000000
f 101/101 102/102 103/103 104/104
v 0.500000 0.020000 0.500000
v 0.761866 0.020000 0.828369
v 0.828369 0.020000 0.761866
vt 0.000000 0.000000
vt 1.000000 0.000000
vt 1.000000 1.000000
f 105/105 106/106 107/107
v 0.500000 0.180000 0.500000
v 0.828369 0.180000 0.761866
v 0.761866 0.180000 0.828369
vt 0.000000 0.000000
vt 1.000000 0.000000
vt 1.000000 1.000000
f 108/108 109/109 110/110
v 0.761866 0.020000 0.828369
v 0.682231 0.020000 0.878407
v 0.682231 0.180000 0.878407
v 0.761866 0.180000 0.828369
vt 0.392857 0.000000
vt 0.428571 0.000000
vt 0.428571 1.000000
vt 0.392857 1.000000
f 111/111 112/112 113/113 114/114
v 0.500000 0.020000 0.500000
v 0.682231 0.020000 0.878407
v 0.761866 0.020000 0.828369
vt 0.000000 0.000000
vt 1.000000 0.000000
vt 1.000000 1.000000
f 115/115 116/116 117/117
v 0.500000 0.180000 0.500000
v 0.761866 0.180000 0.828369
v 0.682231 0.180000 0.878407
vt 0.000000 0.000000
vt 1.000000 0.000000
vt 1.000000 1.000000
f 118/118 119/119 120/120
v 0.682231 0.020000 0.878407
v 0.593459 0.020000 0.909470
v 0.593459 0.180000 0.909470
v 0.682231 0.180000 0.878407
vt 0.428571 0.000000
vt 0.464286 0.000000
vt 0.464286 1.000000
vt 0.428571 1.000000
f 121/121 122/122 123/123 124/124
v 0.500000 0.020000 0.500000
v 0.593459 0.020000 0.909470
v 0.682231 0.020000 0.878407
vt 0.000000 0.000000
vt 1.000000 0.000000
vt 1.000000 1.000000
f 125/125 126/126 127/127
v 0.500000 0.180000 0.500000
v 0.682231 0.180000 0.878407
v 0.593459 0.180000 0.909470
vt 0.000000 0.000000
vt 1.000000 0.000000
vt 1.000000 1.000000
f 128/128 129/129 130/130
v 0.593459 0.020000 0.909470
v 0.500000 0.020000 0.920000
v 0.500000 0.180000 0.920000
v 0.593459 0.180000 0.909470
vt 0.464286 0.000000
vt 0.500000 0.000000
vt 0.500000 1.000000
vt 0.464286 1.000000
f 131/131 132/132 133/133 134/134
v 0.500000 0.020000 0.500000
v 0.500000 0.020000 0.920000
v 0.593459 0.020000 0.909470
vt 0.000000 0.000000
vt 1.000000 0.000000
vt 1.000000 1.000000
f 135/135 136/136 137/137
v 0.500000 0.180000 0.500000
v 0.593459 0.180000 0.909470
v 0.500000 0.180000 0.920000
vt 0.000000 0.000000
vt 1.000000 0.000000
vt 1.000000 1.000000
f 138/138 139/139 140/140
v 0.500000 0.020000 0.920000
v 0.406541 0.020000 0.909470
v 0.406541 0.180000 0.909470
v 0.500000 0.180000 0.920000
vt 0.500000 0.000000
vt 0.535714 0.000000
vt 0.535714 1.000000
vt 0.500000 1.000000
f 141/141 142/142 143/143 144/144
v 0.500000 0.020000 0.500000
v 0.406541 0.020000 0.909470
v 0.500000 0.020000 0.920000
vt 0.000000 0.000000
vt 1.000000 0.000000
vt 1.000000 1.000000
f 145/145 146/146 147/147
v 0.500000 0.180000 0.500000
v 0.500000 0.180000 0.920000
v 0.406541 0.180000 0.909470
vt 0.000000 0.000000
vt 1.000000 0.000000
vt 1.000000 1.000000
f 148/148 149/149 150/150
v 0.406541 0.020000 0.909470
v 0.317769 0.020000 0.878407
v 0.317769 0.180000 0.878407
v 0.406541 0.180000 0.909470
vt 0.535714 0.000000
vt 0.571429 0.000000
vt 0.571429 1.000000
vt 0.535714 1.000000
f 151/151 152/152 153/153 154/154
v 0.500000 0.020000 0.500000
v 0.317769 0.020000 0.878407
v 0.406541 0.020000 0.909470
vt 0.000000 0.000000
vt 1.000000 0.000000
vt 1.000000 1.000000
f 155/155 156/156 157/157
v 0.500000 0.180000 0.500000
v 0.406541 0.180000 0.909470
v 0.317769 0.180000 0.878407
vt 0.000000 0.000000
vt 1.000000 0.000000
vt 1.000000 1.000000
f 158/158 159/159 160/160
v 0.317769 0.020000 0.878407
v 0.238134 0.020000 0.828369
v 0.238134 0.180000 0.828369
v 0.317769 0.180000 0.878407
vt 0.571429 0.000000
vt 0.607143 0.000000
vt 0.607143 1.000000
vt 0.571429 1.000000
f 161/161 162/162 163/163 164/164
v 0.500000 0.020000 0.500000
v 0.238134 0.020000 0.828369
v 0.317769 0.020000 0.878407
vt 0.000000 0.000000
vt 1.000000 0.000000
vt 1.000000 1.000000
f 165/165 166/166 167/167
v 0.500000 0.180000 0.500000
v 0.317769 0.180000 0.878407
v 0.238134 0.180000 0.828369
vt 0.000000 0.000000
vt 1.000000 0.000000
vt 1.000000 1.000000
f 168/168 169/169 170/170
v 0.238134 0.020000 0.828369
v 0.171631 0.020000 0.761866
v 0.171631 0.180000 0.761866
v 0.238134 0.180000 0.828369
vt 0.607143 0.000000
vt 0.642857 0.000000
vt 0.642857 1.000000
vt 0.607143 1.000000
f 171/171 172/172 173/173 174/174
v 0.500000 0.020000 0.500000
v 0.171631 0.020000 0.761866
v 0.238134 0.020000 0.828369
vt 0.000000 0.000000
vt 1.000000 0.000000
vt 1.000000 1.000000
f 175/175 176/176 177/177
v 0.500000 0.180000 0.500000
v 0.238134 0.180000 0.828369
v 0.171631 0.180000 0.761866
vt 0.000000 0.000000
vt 1.000000 0.000000
vt 1.000000 1.000000
f 178/178 179/179 180/180
v 0.171631 0.020000 0.761866
v 0.121593 0.020000 0.682231
v 0.121593 0.180000 0.682231
v 0.171631 0.180000 0.761866
vt 0.642857 0.000000
vt 0.678571 0.000000
vt 0.678571 1.000000
vt 0.642857 1.000000
f 181/181 182/182 183/183 184/184
v 0.500000 0.020000 0.500000
v 0.121593 0.020000 0.682231
v 0.171631 0.020000 0.761866
vt 0.000000 0.000000
vt 1.000000 0.000000
vt 1.000000 1.000000
f 185/185 186/186 187/187
v 0.500000 0.180000 0.500000
v 0.171631 0.180000 0.761866
v 0.121593 0.180000 0.682231
vt 0.000000 0.000000
vt 1.000000 0.000000
vt 1.000000 1.000000
f 188/188 189/189 190/190
v 0.121593 0.020000 0.682231
v 0.090530 0.020000 0.593459
v 0.090530 0.180000 0.593459
v 0.121593 0.180000 0.682231
vt 0.678571 0.000000
vt 0.714286 0.000000
vt 0.714286 1.000000
vt 0.678571 1.000000
f 191/191 192/192 193/193 194/194
v 0.500000 0.020000 0.500000
v 0.090530 0.020000 0.593459
v 0.121593 0.020000 0.682231
vt 0.000000 0.000000
vt 1.000000 0.000000
vt 1.000000 1.000000
f 195/195 196/196 197/197
v 0.500000 0.180000 0.500000
v 0.121593 0.180000 0.682231
v 0.090530 0.180000 0.593459
vt 0.000000 0.000000
vt 1.000000 0.000000
vt 1.000000 1.000000
f 198/198 199/199 200/200
v 0.090530 0.020000 0.593459
v 0.080000 0.020000 0.500000
v 0.080000 0.180000 0.500000
v 0.090530 0.180000 0.593459
vt 0.714286 0.000000
vt 0.750000 0.000000
vt 0.750000 1.000000
vt 0.714286 1.000000
f 201/201 202/202 203/203 204/204
v 0.500000 0.020000 0.500000
v 0.080000 0.020000 0.500000
v 0.090530 0.020000 0.593459
vt 0.000000 0.000000
vt 1.000000 0.000000
vt 1.000000 1.000000
f 205/205 206/206 207/207
v 0.500000 0.180000 0.500000
v 0.090530 0.180000 0.593459
v 0.080000 0.180000 0.500000
vt 0.000000 0.000000
vt 1.000000 0.000000
vt 1.000000 1.000000
f 208/208 209/209 210/210
v 0.080000 0.020000 0.500000
v 0.090530 0.020000 0.406541
v 0.090530 0.180000 0.406541
v 0.080000 0.180000 0.500000
vt 0.750000 0.000000
vt 0.785714 0.000000
vt 0.785714 1.000000
vt 0.750000 1.000000
f 211/211 212/212 213/213 214/214
v 0.500000 0.020000 0.500000
v 0.090530 0.020000 0.406541
v 0.080000 0.020000 0.500000
vt 0.000000 0.000000
vt 1.000000 0.000000
vt 1.000000 1.000000
f 215/215 216/216 217/217
v 0.500000 0.180000 0.500000
v 0.080000 0.180000 0.500000
v 0.090530 0.180000 0.406541
vt 0.000000 0.000000
vt 1.000000 0.000000
vt 1.000000 1.000000
f 218/218 219/219 220/220
v 0.090530 0.020000 0.406541
v 0.121593 0.020000 0.317769
v 0.121593 0.180000 0.317769
v 0.090530 0.180000 0.406541
vt 0.785714 0.000000
vt 0.821429 0.000000
vt 0.821429 1.000000
vt 0.785714 1.000000
f 221/221 222/222 223/223 224/224
v 0.500000 0.020000 0.500000
v 0.121593 0.020000 0.317769
v 0.090530 0.020000 0.406541
vt 0.000000 0.000000
vt 1.000000 0.000000
vt 1.000000 1.000000
f 225/225 226/226 227/227
v 0.500000 0.180000 0.500000
v 0.090530 0.180000 0.406541
v 0.121593 0.180000 0.317769
vt 0.000000 0.000000
vt 1.000000 0.000000
vt 1.000000 1.000000
f 228/228 229/229 230/230
v 0.121593 0.020000 0.317769
v 0.171631 0.020000 0.238134
v 0.171631 0.180000 0.238134
v 0.121593 0.180000 0.317769
vt 0.821429 0.000000
vt 0.857143 0.000000
vt 0.857143 1.000000
vt 0.821429 1.000000
f 231/231 232/232 233/233 234/234
v 0.500000 0.020000 0.500000
v 0.171631 0.020000 0.238134
v 0.121593 0.020000 0.317769
vt 0.000000 0.000000
vt 1.000000 0.000000
vt 1.000000 1.000000
f 235/235 236/236 237/237
v 0.500000 0.180000 0.500000
v 0.121593 0.180000 0.317769
v 0.171631 0.180000 0.238134
vt 0.000000 0.000000
vt 1.000000 0.000000
vt 1.000000 1.000000
f 238/238 239/239 240/240
v 0.171631 0.020000 0.238134
v 0.238134 0.020000 0.171631
v 0.238134 0.180000 0.171631
v 0.171631 0.180000 0.238134
vt 0.857143 0.000000
vt 0.892857 0.000000
vt 0.892857 1.000000
vt 0.857143 1.000000
f 241/241 242/242 243/243 244/244
v 0.500000 0.020000 0.500000
v 0.238134 0.020000 0.171631
v 0.171631 0.020000 0.238134
vt 0.000000 0.000000
vt 1.000000 0.000000
vt 1.000000 1.000000
f 245/245 246/246 247/247
v 0.500000 0.180000 0.500000
v 0.171631 0.180000 0.238134
v 0.238134 0.180000 0.171631
vt 0.000000 0.000000
vt 1.000000 0.000000
vt 1.000000 1.000000
f 248/248 249/249 250/250
v 0.238134 0.020000 0.171631
v 0.317769 0.020000 0.121593
v 0.317769 0.180000 0.121593
v 0.238134 0.180000 0.171631
vt 0.892857 0.000000
vt 0.928571 0.000000
vt 0.928571 1.000000
vt 0.892857 1.000000
f 251/251 252/252 253/253 254/254
v 0.500000 0.020000 0.500000
v 0.317769 0.020000 0.121593
v 0.238134 0.020000 0.171631
vt 0.000000 0.000000
vt 1.000000 0.000000
vt 1.000000 1.000000
f 255/255 256/256 257/257
v 0.500000 0.180000 0.500000
v 0.238134 0.180000 0.171631
v 0.317769 0.180000 0.121593
vt 0.000000 0.000000
vt 1.000000 0.000000
vt 1.000000 1.000000
f 258/258 259/259 260/260
v 0.317769 0.020000 0.121593
v 0.406541 0.020000 0.090530
v 0.406541 0.180000 0.090530
v 0.317769 0.180000 0.121593
vt 0.928571 0.000000
vt 0.964286 0.000000
vt 0.964286 1.000000
vt 0.928571 1.000000
f 261/261 262/262 263/263 264/264
v 0.500000 0.020000 0.500000
v 0.406541 0.020000 0.090530
v 0.317769 0.020000 0.121593
vt 0.000000 0.000000
vt 1.000000 0.000000
vt 1.000000 1.000000
f 265/265 266/266 267/267
v 0.500000 0.180000 0.500000
v 0.317769 0.180000 0.121593
v 0.406541 0.180000 0.090530
vt 0.000000 0.000000
vt 1.000000 0.000000
vt 1.000000 1.000000
f 268/268 269/269 270/270
v 0.406541 0.020000 0.090530
v 0.500000 0.020000 0.080000
v 0.500000 0.180000 0.080000
v 0.406541 0.180000 0.090530
vt 0.964286 0.000000
vt 1.000000 0.000000
vt 1.000000 1.000000
vt 0.964286 1.000000
f 271/271 272/272 273/273 274/274
v 0.500000 0.020000 0.500000
v 0.500000 0.020000 0.080000
v 0.406541 0.020000 0.090530
vt 0.000000 0.000000
vt 1.000000 0.000000
vt 1.000000 1.000000
f 275/275 276/276 277/277
v 0.500000 0.180000 0.500000
v 0.406541 0.180000 0.090530
v 0.500000 0.180000 0.080000
vt 0.000000 0.000000
vt 1.000000 0.000000
vt 1.000000 1.000000
f 278/278 279/279 280/280
usemtl concrete
v 0.080000 0.000000 0.080000
v 0.920000 0.000000 0.080000
v 0.920000 0.040000 0.080000
v 0.080000 0.040000 0.080000
vt 0.000000 0.000000
vt 1.000000 0.000000
vt 1.000000 1.000000
vt 0.000000 1.000000
f 281/281 282/282 283/283 284/284
v 0.920000 0.000000 0.920000
v 0.080000 0.000000 0.920000
v 0.080000 0.040000 0.920000
v 0.920000 0.040000 0.920000
vt 0.000000 0.000000
vt 1.000000 0.000000
vt 1.000000 1.000000
vt 0.000000 1.000000
f 285/285 286/286 287/287 288/288
v 0.080000 0.000000 0.920000
v 0.080000 0.000000 0.080000
v 0.080000 0.040000 0.080000
v 0.080000 0.040000 0.920000
vt 0.000000 0.000000
vt 1.000000 0.000000
vt 1.000000 1.000000
vt 0.000000 1.000000
f 289/289 290/290 291/291 292/292
v 0.920000 0.000000 0.080000
v 0.920000 0.000000 0.920000
v 0.920000 0.040000 0.920000
v 0.920000 0.040000 0.080000
vt 0.000000 0.000000
vt 1.000000 0.000000
vt 1.000000 1.000000
vt 0.000000 1.000000
f 293/293 294/294 295/295 296/296
v 0.080000 0.040000 0.080000
v 0.920000 0.040000 0.080000
v 0.920000 0.040000 0.920000
v 0.080000 0.040000 0.920000
vt 0.000000 0.000000
vt 1.000000 0.000000
vt 1.000000 1.000000
vt 0.000000 1.000000
f 297/297 298/298 299/299 300/300
v 0.080000 0.000000 0.920000
v 0.920000 0.000000 0.920000
v 0.920000 0.000000 0.080000
v 0.080000 0.000000 0.080000
vt 0.000000 0.000000
vt 1.000000 0.000000
vt 1.000000 1.000000
vt 0.000000 1.000000
f 301/301 302/302 303/303 304/304
usemtl yellow
v 0.200000 0.160000 0.200000
v 0.800000 0.160000 0.200000
v 0.800000 0.200000 0.200000
v 0.200000 0.200000 0.200000
vt 0.000000 0.000000
vt 1.000000 0.000000
vt 1.000000 1.000000
vt 0.000000 1.000000
f 305/305 306/306 307/307 308/308
v 0.800000 0.160000 0.800000
v 0.200000 0.160000 0.800000
v 0.200000 0.200000 0.800000
v 0.800000 0.200000 0.800000
vt 0.000000 0.000000
vt 1.000000 0.000000
vt 1.000000 1.000000
vt 0.000000 1.000000
f 309/309 310/310 311/311 312/312
v 0.200000 0.160000 0.800000
v 0.200000 0.160000 0.200000
v 0.200000 0.200000 0.200000
v 0.200000 0.200000 0.800000
vt 0.000000 0.000000
vt 1.000000 0.000000
vt 1.000000 1.000000
vt 0.000000 1.000000
f 313/313 314/314 315/315 316/316
v 0.800000 0.160000 0.200000
v 0.800000 0.160000 0.800000
v 0.800000 0.200000 0.800000
v 0.800000 0.200000 0.200000
vt 0.000000 0.000000
vt 1.000000 0.000000
vt 1.000000 1.000000
vt 0.000000 1.000000
f 317/317 318/318 319/319 320/320
v 0.200000 0.200000 0.200000
v 0.800000 0.200000 0.200000
v 0.800000 0.200000 0.800000
v 0.200000 0.200000 0.800000
vt 0.000000 0.000000
vt 1.000000 0.000000
vt 1.000000 1.000000
vt 0.000000 1.000000
f 321/321 322/322 323/323 324/324
v 0.200000 0.160000 0.800000
v 0.800000 0.160000 0.800000
v 0.800000 0.160000 0.200000
v 0.200000 0.160000 0.200000
vt 0.000000 0.000000
vt 1.000000 0.000000
vt 1.000000 1.000000
vt 0.000000 1.000000
f 325/325 326/326 327/327 328/328
