mtllib plasma_blade.mtl
o plasma_blade
s 1
usemtl dark
v -0.035000 -0.050000 -0.180000
v 0.035000 -0.050000 -0.180000
v 0.035000 0.050000 -0.180000
v -0.035000 0.050000 -0.180000
vt 0.000000 0.000000
vt 1.000000 0.000000
vt 1.000000 1.000000
vt 0.000000 1.000000
f 1/1 2/2 3/3 4/4
v 0.035000 -0.050000 0.200000
v -0.035000 -0.050000 0.200000
v -0.035000 0.050000 0.200000
v 0.035000 0.050000 0.200000
vt 0.000000 0.000000
vt 1.000000 0.000000
vt 1.000000 1.000000
vt 0.000000 1.000000
f 5/5 6/6 7/7 8/8
v -0.035000 -0.050000 0.200000
v -0.035000 -0.050000 -0.180000
v -0.035000 0.050000 -0.180000
v -0.035000 0.050000 0.200000
vt 0.000000 0.000000
vt 1.000000 0.000000
vt 1.000000 1.000000
vt 0.000000 1.000000
f 9/9 10/10 11/11 12/12
v 0.035000 -0.050000 -0.180000
v 0.035000 -0.050000 0.200000
v 0.035000 0.050000 0.200000
v 0.035000 0.050000 -0.180000
vt 0.000000 0.000000
vt 1.000000 0.000000
vt 1.000000 1.000000
vt 0.000000 1.000000
f 13/13 14/14 15/15 16/16
v -0.035000 0.050000 -0.180000
v 0.035000 0.050000 -0.180000
v 0.035000 0.050000 0.200000
v -0.035000 0.050000 0.200000
vt 0.000000 0.000000
vt 1.000000 0.000000
vt 1.000000 1.000000
vt 0.000000 1.000000
f 17/17 18/18 19/19 20/20
v -0.035000 -0.050000 0.200000
v 0.035000 -0.050000 0.200000
v 0.035000 -0.050000 -0.180000
v -0.035000 -0.050000 -0.180000
vt 0.000000 0.000000
vt 1.000000 0.000000
vt 1.000000 1.000000
vt 0.000000 1.000000
f 21/21 22/22 23/23 24/24
usemtl yellow
v -0.045000 0.000000 0.160000
v -0.038971 0.022500 0.160000
v -0.038971 0.022500 0.260000
v -0.045000 0.000000 0.260000
vt 0.000000 0.000000
vt 0.083333 0.000000
vt 0.083333 1.000000
vt 0.000000 1.000000
f 25/25 26/26 27/27 28/28
v 0.000000 0.000000 0.160000
v -0.038971 0.022500 0.160000
v -0.045000 0.000000 0.160000
vt 0.000000 0.000000
vt 1.000000 0.000000
vt 1.000000 1.000000
f 29/29 30/30 31/31
v 0.000000 0.000000 0.260000
v -0.045000 0.000000 0.260000
v -0.038971 0.022500 0.260000
vt 0.000000 0.000000
vt 1.000000 0.000000
vt 1.000000 1.000000
f 32/32 33/33 34/34
v -0.038971 0.022500 0.160000
v -0.022500 0.038971 0.160000
v -0.022500 0.038971 0.260000
v -0.038971 0.022500 0.260000
vt 0.083333 0.000000
vt 0.166667 0.000000
vt 0.166667 1.000000
vt 0.083333 1.000000
f 35/35 36/36 37/37 38/38
v 0.000000 0.000000 0.160000
v -0.022500 0.038971 0.160000
v -0.038971 0.022500 0.160000
vt 0.000000 0.000000
vt 1.000000 0.000000
vt 1.000000 1.000000
f 39/39 40/40 41/41
v 0.000000 0.000000 0.260000
v -0.038971 0.022500 0.260000
v -0.022500 0.038971 0.260000
vt 0.000000 0.000000
vt 1.000000 0.000000
vt 1.000000 1.000000
f 42/42 43/43 44/44
v -0.022500 0.038971 0.160000
v -0.000000 0.045000 0.160000
v -0.000000 0.045000 0.260000
v -0.022500 0.038971 0.260000
vt 0.166667 0.000000
vt 0.250000 0.000000
vt 0.250000 1.000000
vt 0.166667 1.000000
f 45/45 46/46 47/47 48/48
v 0.000000 0.000000 0.160000
v -0.000000 0.045000 0.160000
v -0.022500 0.038971 0.160000
vt 0.000000 0.000000
vt 1.000000 0.000000
vt 1.000000 1.000000
f 49/49 50/50 51/51
v 0.000000 0.000000 0.260000
v -0.022500 0.038971 0.260000
v -0.000000 0.045000 0.260000
vt 0.000000 0.000000
vt 1.000000 0.000000
vt 1.000000 1.000000
f 52/52 53/53 54/54
v -0.000000 0.045000 0.160000
v 0.022500 0.038971 0.160000
v 0.022500 0.038971 0.260000
v -0.000000 0.045000 0.260000
vt 0.250000 0.000000
vt 0.333333 0.000000
vt 0.333333 1.000000
vt 0.250000 1.000000
f 55/55 56/56 57/57 58/58
v 0.000000 0.000000 0.160000
v 0.022500 0.038971 0.160000
v -0.000000 0.045000 0.160000
vt 0.000000 0.000000
vt 1.000000 0.000000
vt 1.000000 1.000000
f 59/59 60/60 61/61
v 0.000000 0.000000 0.260000
v -0.000000 0.045000 0.260000
v 0.022500 0.038971 0.260000
vt 0.000000 0.000000
vt 1.000000 0.000000
vt 1.000000 1.000000
f 62/62 63/63 64/64
v 0.022500 0.038971 0.160000
v 0.038971 0.022500 0.160000
v 0.038971 0.022500 0.260000
v 0.022500 0.038971 0.260000
vt 0.333333 0.000000
vt 0.416667 0.000000
vt 0.416667 1.000000
vt 0.333333 1.000000
f 65/65 66/66 67/67 68/68
v 0.000000 0.000000 0.160000
v 0.038971 0.022500 0.160000
v 0.022500 0.038971 0.160000
vt 0.000000 0.000000
vt 1.000000 0.000000
vt 1.000000 1.000000
f 69/69 70/70 71/71
v 0.000000 0.000000 0.260000
v 0.022500 0.038971 0.260000
v 0.038971 0.022500 0.260000
vt 0.000000 0.000000
vt 1.000000 0.000000
vt 1.000000 1.000000
f 72/72 73/73 74/74
v 0.038971 0.022500 0.160000
v 0.045000 0.000000 0.160000
v 0.045000 0.000000 0.260000
v 0.038971 0.022500 0.260000
vt 0.416667 0.000000
vt 0.500000 0.000000
vt 0.500000 1.000000
vt 0.416667 1.000000
f 75/75 76/76 77/77 78/78
v 0.000000 0.000000 0.160000
v 0.045000 0.000000 0.160000
v 0.038971 0.022500 0.160000
vt 0.000000 0.000000
vt 1.000000 0.000000
vt 1.000000 1.000000
f 79/79 80/80 81/81
v 0.000000 0.000000 0.260000
v 0.038971 0.022500 0.260000
v 0.045000 0.000000 0.260000
vt 0.000000 0.000000
vt 1.000000 0.000000
vt 1.000000 1.000000
f 82/82 83/83 84/84
v 0.045000 0.000000 0.160000
v 0.038971 -0.022500 0.160000
v 0.038971 -0.022500 0.260000
v 0.045000 0.000000 0.260000
vt 0.500000 0.000000
vt 0.583333 0.000000
vt 0.583333 1.000000
vt 0.500000 1.000000
f 85/85 86/86 87/87 88/88
v 0.000000 0.000000 0.160000
v 0.038971 -0.022500 0.160000
v 0.045000 0.000000 0.160000
vt 0.000000 0.000000
vt 1.000000 0.000000
vt 1.000000 1.000000
f 89/89 90/90 91/91
v 0.000000 0.000000 0.260000
v 0.045000 0.000000 0.260000
v 0.038971 -0.022500 0.260000
vt 0.000000 0.000000
vt 1.000000 0.000000
vt 1.000000 1.000000
f 92/92 93/93 94/94
v 0.038971 -0.022500 0.160000
v 0.022500 -0.038971 0.160000
v 0.022500 -0.038971 0.260000
v 0.038971 -0.022500 0.260000
vt 0.583333 0.000000
vt 0.666667 0.000000
vt 0.666667 1.000000
vt 0.583333 1.000000
f 95/95 96/96 97/97 98/98
v 0.000000 0.000000 0.160000
v 0.022500 -0.038971 0.160000
v 0.038971 -0.022500 0.160000
vt 0.000000 0.000000
vt 1.000000 0.000000
vt 1.000000 1.000000
f 99/99 100/100 101/101
v 0.000000 0.000000 0.260000
v 0.038971 -0.022500 0.260000
v 0.022500 -0.038971 0.260000
vt 0.000000 0.000000
vt 1.000000 0.000000
vt 1.000000 1.000000
f 102/102 103/103 104/104
v 0.022500 -0.038971 0.160000
v 0.000000 -0.045000 0.160000
v 0.000000 -0.045000 0.260000
v 0.022500 -0.038971 0.260000
vt 0.666667 0.000000
vt 0.750000 0.000000
vt 0.750000 1.000000
vt 0.666667 1.000000
f 105/105 106/106 107/107 108/108
v 0.000000 0.000000 0.160000
v 0.000000 -0.045000 0.160000
v 0.022500 -0.038971 0.160000
vt 0.000000 0.000000
vt 1.000000 0.000000
vt 1.000000 1.000000
f 109/109 110/110 111/111
v 0.000000 0.000000 0.260000
v 0.022500 -0.038971 0.260000
v 0.000000 -0.045000 0.260000
vt 0.000000 0.000000
vt 1.000000 0.000000
vt 1.000000 1.000000
f 112/112 113/113 114/114
v 0.000000 -0.045000 0.160000
v -0.022500 -0.038971 0.160000
v -0.022500 -0.038971 0.260000
v 0.000000 -0.045000 0.260000
vt 0.750000 0.000000
vt 0.833333 0.000000
vt 0.833333 1.000000
vt 0.750000 1.000000
f 115/115 116/116 117/117 118/118
v 0.000000 0.000000 0.160000
v -0.022500 -0.038971 0.160000
v 0.000000 -0.045000 0.160000
vt 0.000000 0.000000
vt 1.000000 0.000000
vt 1.000000 1.000000
f 119/119 120/120 121/121
v 0.000000 0.000000 0.260000
v 0.000000 -0.045000 0.260000
v -0.022500 -0.038971 0.260000
vt 0.000000 0.000000
vt 1.000000 0.000000
vt 1.000000 1.000000
f 122/122 123/123 124/124
v -0.022500 -0.038971 0.160000
v -0.038971 -0.022500 0.160000
v -0.038971 -0.022500 0.260000
v -0.022500 -0.038971 0.260000
vt 0.833333 0.000000
vt 0.916667 0.000000
vt 0.916667 1.000000
vt 0.833333 1.000000
f 125/125 126/126 127/127 128/128
v 0.000000 0.000000 0.160000
v -0.038971 -0.022500 0.160000
v -0.022500 -0.038971 0.160000
vt 0.000000 0.000000
vt 1.000000 0.000000
vt 1.000000 1.000000
f 129/129 130/130 131/131
v 0.000000 0.000000 0.260000
v -0.022500 -0.038971 0.260000
v -0.038971 -0.022500 0.260000
vt 0.000000 0.000000
vt 1.000000 0.000000
vt 1.000000 1.000000
f 132/132 133/133 134/134
v -0.038971 -0.022500 0.160000
v -0.045000 -0.000000 0.160000
v -0.045000 -0.000000 0.260000
v -0.038971 -0.022500 0.260000
vt 0.916667 0.000000
vt 1.000000 0.000000
vt 1.000000 1.000000
vt 0.916667 1.000000
f 135/135 136/136 137/137 138/138
v 0.000000 0.000000 0.160000
v -0.045000 -0.000000 0.160000
v -0.038971 -0.022500 0.160000
vt 0.000000 0.000000
vt 1.000000 0.000000
vt 1.000000 1.000000
f 139/139 140/140 141/141
v 0.000000 0.000000 0.260000
v -0.038971 -0.022500 0.260000
v -0.045000 -0.000000 0.260000
vt 0.000000 0.000000
vt 1.000000 0.000000
vt 1.000000 1.000000
f 142/142 143/143 144/144
usemtl accent
v -0.055000 -0.045000 0.200000
v 0.055000 -0.045000 0.200000
v 0.055000 0.045000 0.200000
v -0.055000 0.045000 0.200000
vt 0.000000 0.000000
vt 1.000000 0.000000
vt 1.000000 1.000000
vt 0.000000 1.000000
f 145/145 146/146 147/147 148/148
v 0.055000 -0.045000 0.300000
v -0.055000 -0.045000 0.300000
v -0.055000 0.045000 0.300000
v 0.055000 0.045000 0.300000
vt 0.000000 0.000000
vt 1.000000 0.000000
vt 1.000000 1.000000
vt 0.000000 1.000000
f 149/149 150/150 151/151 152/152
v -0.055000 -0.045000 0.300000
v -0.055000 -0.045000 0.200000
v -0.055000 0.045000 0.200000
v -0.055000 0.045000 0.300000
vt 0.000000 0.000000
vt 1.000000 0.000000
vt 1.000000 1.000000
vt 0.000000 1.000000
f 153/153 154/154 155/155 156/156
v 0.055000 -0.045000 0.200000
v 0.055000 -0.045000 0.300000
v 0.055000 0.045000 0.300000
v 0.055000 0.045000 0.200000
vt 0.000000 0.000000
vt 1.000000 0.000000
vt 1.000000 1.000000
vt 0.000000 1.000000
f 157/157 158/158 159/159 160/160
v -0.055000 0.045000 0.200000
v 0.055000 0.045000 0.200000
v 0.055000 0.045000 0.300000
v -0.055000 0.045000 0.300000
vt 0.000000 0.000000
vt 1.000000 0.000000
vt 1.000000 1.000000
vt 0.000000 1.000000
f 161/161 162/162 163/163 164/164
v -0.055000 -0.045000 0.300000
v 0.055000 -0.045000 0.300000
v 0.055000 -0.045000 0.200000
v -0.055000 -0.045000 0.200000
vt 0.000000 0.000000
vt 1.000000 0.000000
vt 1.000000 1.000000
vt 0.000000 1.000000
f 165/165 166/166 167/167 168/168
usemtl glass
v -0.018000 -0.012000 0.280000
v 0.018000 -0.012000 0.280000
v 0.018000 0.012000 0.280000
v -0.018000 0.012000 0.280000
vt 0.000000 0.000000
vt 1.000000 0.000000
vt 1.000000 1.000000
vt 0.000000 1.000000
f 169/169 170/170 171/171 172/172
v 0.018000 -0.012000 1.020000
v -0.018000 -0.012000 1.020000
v -0.018000 0.012000 1.020000
v 0.018000 0.012000 1.020000
vt 0.000000 0.000000
vt 1.000000 0.000000
vt 1.000000 1.000000
vt 0.000000 1.000000
f 173/173 174/174 175/175 176/176
v -0.018000 -0.012000 1.020000
v -0.018000 -0.012000 0.280000
v -0.018000 0.012000 0.280000
v -0.018000 0.012000 1.020000
vt 0.000000 0.000000
vt 1.000000 0.000000
vt 1.000000 1.000000
vt 0.000000 1.000000
f 177/177 178/178 179/179 180/180
v 0.018000 -0.012000 0.280000
v 0.018000 -0.012000 1.020000
v 0.018000 0.012000 1.020000
v 0.018000 0.012000 0.280000
vt 0.000000 0.000000
vt 1.000000 0.000000
vt 1.000000 1.000000
vt 0.000000 1.000000
f 181/181 182/182 183/183 184/184
v -0.018000 0.012000 0.280000
v 0.018000 0.012000 0.280000
v 0.018000 0.012000 1.020000
v -0.018000 0.012000 1.020000
vt 0.000000 0.000000
vt 1.000000 0.000000
vt 1.000000 1.000000
vt 0.000000 1.000000
f 185/185 186/186 187/187 188/188
v -0.018000 -0.012000 1.020000
v 0.018000 -0.012000 1.020000
v 0.018000 -0.012000 0.280000
v -0.018000 -0.012000 0.280000
vt 0.000000 0.000000
vt 1.000000 0.000000
vt 1.000000 1.000000
vt 0.000000 1.000000
f 189/189 190/190 191/191 192/192
v -0.010000 -0.022000 0.320000
v 0.010000 -0.022000 0.320000
v 0.010000 0.022000 0.320000
v -0.010000 0.022000 0.320000
vt 0.000000 0.000000
vt 1.000000 0.000000
vt 1.000000 1.000000
vt 0.000000 1.000000
f 193/193 194/194 195/195 196/196
v 0.010000 -0.022000 0.960000
v -0.010000 -0.022000 0.960000
v -0.010000 0.022000 0.960000
v 0.010000 0.022000 0.960000
vt 0.000000 0.000000
vt 1.000000 0.000000
vt 1.000000 1.000000
vt 0.000000 1.000000
f 197/197 198/198 199/199 200/200
v -0.010000 -0.022000 0.960000
v -0.010000 -0.022000 0.320000
v -0.010000 0.022000 0.320000
v -0.010000 0.022000 0.960000
vt 0.000000 0.000000
vt 1.000000 0.000000
vt 1.000000 1.000000
vt 0.000000 1.000000
f 201/201 202/202 203/203 204/204
v 0.010000 -0.022000 0.320000
v 0.010000 -0.022000 0.960000
v 0.010000 0.022000 0.960000
v 0.010000 0.022000 0.320000
vt 0.000000 0.000000
vt 1.000000 0.000000
vt 1.000000 1.000000
vt 0.000000 1.000000
f 205/205 206/206 207/207 208/208
v -0.010000 0.022000 0.320000
v 0.010000 0.022000 0.320000
v 0.010000 0.022000 0.960000
v -0.010000 0.022000 0.960000
vt 0.000000 0.000000
vt 1.000000 0.000000
vt 1.000000 1.000000
vt 0.000000 1.000000
f 209/209 210/210 211/211 212/212
v -0.010000 -0.022000 0.960000
v 0.010000 -0.022000 0.960000
v 0.010000 -0.022000 0.320000
v -0.010000 -0.022000 0.320000
vt 0.000000 0.000000
vt 1.000000 0.000000
vt 1.000000 1.000000
vt 0.000000 1.000000
f 213/213 214/214 215/215 216/216
usemtl body
v -0.040000 -0.030000 -0.080000
v 0.040000 -0.030000 -0.080000
v 0.040000 0.030000 -0.080000
v -0.040000 0.030000 -0.080000
vt 0.000000 0.000000
vt 1.000000 0.000000
vt 1.000000 1.000000
vt 0.000000 1.000000
f 217/217 218/218 219/219 220/220
v 0.040000 -0.030000 0.040000
v -0.040000 -0.030000 0.040000
v -0.040000 0.030000 0.040000
v 0.040000 0.030000 0.040000
vt 0.000000 0.000000
vt 1.000000 0.000000
vt 1.000000 1.000000
vt 0.000000 1.000000
f 221/221 222/222 223/223 224/224
v -0.040000 -0.030000 0.040000
v -0.040000 -0.030000 -0.080000
v -0.040000 0.030000 -0.080000
v -0.040000 0.030000 0.040000
vt 0.000000 0.000000
vt 1.000000 0.000000
vt 1.000000 1.000000
vt 0.000000 1.000000
f 225/225 226/226 227/227 228/228
v 0.040000 -0.030000 -0.080000
v 0.040000 -0.030000 0.040000
v 0.040000 0.030000 0.040000
v 0.040000 0.030000 -0.080000
vt 0.000000 0.000000
vt 1.000000 0.000000
vt 1.000000 1.000000
vt 0.000000 1.000000
f 229/229 230/230 231/231 232/232
v -0.040000 0.030000 -0.080000
v 0.040000 0.030000 -0.080000
v 0.040000 0.030000 0.040000
v -0.040000 0.030000 0.040000
vt 0.000000 0.000000
vt 1.000000 0.000000
vt 1.000000 1.000000
vt 0.000000 1.000000
f 233/233 234/234 235/235 236/236
v -0.040000 -0.030000 0.040000
v 0.040000 -0.030000 0.040000
v 0.040000 -0.030000 -0.080000
v -0.040000 -0.030000 -0.080000
vt 0.000000 0.000000
vt 1.000000 0.000000
vt 1.000000 1.000000
vt 0.000000 1.000000
f 237/237 238/238 239/239 240/240
