mtllib security_door.mtl
o security_door
s 1
usemtl navy
v 0.380000 0.000000 0.080000
v 0.620000 0.000000 0.080000
v 0.620000 1.000000 0.080000
v 0.380000 1.000000 0.080000
vt 0.000000 0.000000
vt 1.000000 0.000000
vt 1.000000 1.000000
vt 0.000000 1.000000
f 1/1 2/2 3/3 4/4
v 0.620000 0.000000 0.920000
v 0.380000 0.000000 0.920000
v 0.380000 1.000000 0.920000
v 0.620000 1.000000 0.920000
vt 0.000000 0.000000
vt 1.000000 0.000000
vt 1.000000 1.000000
vt 0.000000 1.000000
f 5/5 6/6 7/7 8/8
v 0.380000 0.000000 0.920000
v 0.380000 0.000000 0.080000
v 0.380000 1.000000 0.080000
v 0.380000 1.000000 0.920000
vt 0.000000 0.000000
vt 1.000000 0.000000
vt 1.000000 1.000000
vt 0.000000 1.000000
f 9/9 10/10 11/11 12/12
v 0.620000 0.000000 0.080000
v 0.620000 0.000000 0.920000
v 0.620000 1.000000 0.920000
v 0.620000 1.000000 0.080000
vt 0.000000 0.000000
vt 1.000000 0.000000
vt 1.000000 1.000000
vt 0.000000 1.000000
f 13/13 14/14 15/15 16/16
v 0.380000 1.000000 0.080000
v 0.620000 1.000000 0.080000
v 0.620000 1.000000 0.920000
v 0.380000 1.000000 0.920000
vt 0.000000 0.000000
vt 1.000000 0.000000
vt 1.000000 1.000000
vt 0.000000 1.000000
f 17/17 18/18 19/19 20/20
v 0.380000 0.000000 0.920000
v 0.620000 0.000000 0.920000
v 0.620000 0.000000 0.080000
v 0.380000 0.000000 0.080000
vt 0.000000 0.000000
vt 1.000000 0.000000
vt 1.000000 1.000000
vt 0.000000 1.000000
f 21/21 22/22 23/23 24/24
usemtl dark
v 0.400000 0.060000 0.120000
v 0.600000 0.060000 0.120000
v 0.600000 0.940000 0.120000
v 0.400000 0.940000 0.120000
vt 0.000000 0.000000
vt 1.000000 0.000000
vt 1.000000 1.000000
vt 0.000000 1.000000
f 25/25 26/26 27/27 28/28
v 0.600000 0.060000 0.880000
v 0.400000 0.060000 0.880000
v 0.400000 0.940000 0.880000
v 0.600000 0.940000 0.880000
vt 0.000000 0.000000
vt 1.000000 0.000000
vt 1.000000 1.000000
vt 0.000000 1.000000
f 29/29 30/30 31/31 32/32
v 0.400000 0.060000 0.880000
v 0.400000 0.060000 0.120000
v 0.400000 0.940000 0.120000
v 0.400000 0.940000 0.880000
vt 0.000000 0.000000
vt 1.000000 0.000000
vt 1.000000 1.000000
vt 0.000000 1.000000
f 33/33 34/34 35/35 36/36
v 0.600000 0.060000 0.120000
v 0.600000 0.060000 0.880000
v 0.600000 0.940000 0.880000
v 0.600000 0.940000 0.120000
vt 0.000000 0.000000
vt 1.000000 0.000000
vt 1.000000 1.000000
vt 0.000000 1.000000
f 37/37 38/38 39/39 40/40
v 0.400000 0.940000 0.120000
v 0.600000 0.940000 0.120000
v 0.600000 0.940000 0.880000
v 0.400000 0.940000 0.880000
vt 0.000000 0.000000
vt 1.000000 0.000000
vt 1.000000 1.000000
vt 0.000000 1.000000
f 41/41 42/42 43/43 44/44
v 0.400000 0.060000 0.880000
v 0.600000 0.060000 0.880000
v 0.600000 0.060000 0.120000
v 0.400000 0.060000 0.120000
vt 0.000000 0.000000
vt 1.000000 0.000000
vt 1.000000 1.000000
vt 0.000000 1.000000
f 45/45 46/46 47/47 48/48
usemtl yellow
v 0.500000 0.480000 0.645000
v 0.500000 0.542913 0.630640
v 0.517678 0.539736 0.624043
v 0.517678 0.480000 0.637678
vt 0.000000 0.000000
vt 1.000000 0.000000
vt 1.000000 1.000000
vt 0.000000 1.000000
f 49/49 50/50 51/51 52/52
v 0.517678 0.480000 0.637678
v 0.517678 0.539736 0.624043
v 0.525000 0.532066 0.608116
v 0.525000 0.480000 0.620000
vt 0.000000 0.000000
vt 1.000000 0.000000
vt 1.000000 1.000000
vt 0.000000 1.000000
f 53/53 54/54 55/55 56/56
v 0.525000 0.480000 0.620000
v 0.525000 0.532066 0.608116
v 0.517678 0.524396 0.592189
v 0.517678 0.480000 0.602322
vt 0.000000 0.000000
vt 1.000000 0.000000
vt 1.000000 1.000000
vt 0.000000 1.000000
f 57/57 58/58 59/59 60/60
v 0.517678 0.480000 0.602322
v 0.517678 0.524396 0.592189
v 0.500000 0.521219 0.585592
v 0.500000 0.480000 0.595000
vt 0.000000 0.000000
vt 1.000000 0.000000
vt 1.000000 1.000000
vt 0.000000 1.000000
f 61/61 62/62 63/63 64/64
v 0.500000 0.480000 0.595000
v 0.500000 0.521219 0.585592
v 0.482322 0.524396 0.592189
v 0.482322 0.480000 0.602322
vt 0.000000 0.000000
vt 1.000000 0.000000
vt 1.000000 1.000000
vt 0.000000 1.000000
f 65/65 66/66 67/67 68/68
v 0.482322 0.480000 0.602322
v 0.482322 0.524396 0.592189
v 0.475000 0.532066 0.608116
v 0.475000 0.480000 0.620000
vt 0.000000 0.000000
vt 1.000000 0.000000
vt 1.000000 1.000000
vt 0.000000 1.000000
f 69/69 70/70 71/71 72/72
v 0.475000 0.480000 0.620000
v 0.475000 0.532066 0.608116
v 0.482322 0.539736 0.624043
v 0.482322 0.480000 0.637678
vt 0.000000 0.000000
vt 1.000000 0.000000
vt 1.000000 1.000000
vt 0.000000 1.000000
f 73/73 74/74 75/75 76/76
v 0.482322 0.480000 0.637678
v 0.482322 0.539736 0.624043
v 0.500000 0.542913 0.630640
v 0.500000 0.480000 0.645000
vt 0.000000 0.000000
vt 1.000000 0.000000
vt 1.000000 1.000000
vt 0.000000 1.000000
f 77/77 78/78 79/79 80/80
v 0.500000 0.542913 0.630640
v 0.500000 0.593366 0.590406
v 0.517678 0.587641 0.585841
v 0.517678 0.539736 0.624043
vt 0.000000 0.000000
vt 1.000000 0.000000
vt 1.000000 1.000000
vt 0.000000 1.000000
f 81/81 82/82 83/83 84/84
v 0.517678 0.539736 0.624043
v 0.517678 0.587641 0.585841
v 0.525000 0.573820 0.574819
v 0.525000 0.532066 0.608116
vt 0.000000 0.000000
vt 1.000000 0.000000
vt 1.000000 1.000000
vt 0.000000 1.000000
f 85/85 86/86 87/87 88/88
v 0.525000 0.532066 0.608116
v 0.525000 0.573820 0.574819
v 0.517678 0.559999 0.563797
v 0.517678 0.524396 0.592189
vt 0.000000 0.000000
vt 1.000000 0.000000
vt 1.000000 1.000000
vt 0.000000 1.000000
f 89/89 90/90 91/91 92/92
v 0.517678 0.524396 0.592189
v 0.517678 0.559999 0.563797
v 0.500000 0.554274 0.559232
v 0.500000 0.521219 0.585592
vt 0.000000 0.000000
vt 1.000000 0.000000
vt 1.000000 1.000000
vt 0.000000 1.000000
f 93/93 94/94 95/95 96/96
v 0.500000 0.521219 0.585592
v 0.500000 0.554274 0.559232
v 0.482322 0.559999 0.563797
v 0.482322 0.524396 0.592189
vt 0.000000 0.000000
vt 1.000000 0.000000
vt 1.000000 1.000000
vt 0.000000 1.000000
f 97/97 98/98 99/99 100/100
v 0.482322 0.524396 0.592189
v 0.482322 0.559999 0.563797
v 0.475000 0.573820 0.574819
v 0.475000 0.532066 0.608116
vt 0.000000 0.000000
vt 1.000000 0.000000
vt 1.000000 1.000000
vt 0.000000 1.000000
f 101/101 102/102 103/103 104/104
v 0.475000 0.532066 0.608116
v 0.475000 0.573820 0.574819
v 0.482322 0.587641 0.585841
v 0.482322 0.539736 0.624043
vt 0.000000 0.000000
vt 1.000000 0.000000
vt 1.000000 1.000000
vt 0.000000 1.000000
f 105/105 106/106 107/107 108/108
v 0.482322 0.539736 0.624043
v 0.482322 0.587641 0.585841
v 0.500000 0.593366 0.590406
v 0.500000 0.542913 0.630640
vt 0.000000 0.000000
vt 1.000000 0.000000
vt 1.000000 1.000000
vt 0.000000 1.000000
f 109/109 110/110 111/111 112/112
v 0.500000 0.593366 0.590406
v 0.500000 0.621365 0.532266
v 0.517678 0.614226 0.530636
v 0.517678 0.587641 0.585841
vt 0.000000 0.000000
vt 1.000000 0.000000
vt 1.000000 1.000000
vt 0.000000 1.000000
f 113/113 114/114 115/115 116/116
v 0.517678 0.587641 0.585841
v 0.517678 0.614226 0.530636
v 0.525000 0.596991 0.526703
v 0.525000 0.573820 0.574819
vt 0.000000 0.000000
vt 1.000000 0.000000
vt 1.000000 1.000000
vt 0.000000 1.000000
f 117/117 118/118 119/119 120/120
v 0.525000 0.573820 0.574819
v 0.525000 0.596991 0.526703
v 0.517678 0.579757 0.522769
v 0.517678 0.559999 0.563797
vt 0.000000 0.000000
vt 1.000000 0.000000
vt 1.000000 1.000000
vt 0.000000 1.000000
f 121/121 122/122 123/123 124/124
v 0.517678 0.559999 0.563797
v 0.517678 0.579757 0.522769
v 0.500000 0.572618 0.521139
v 0.500000 0.554274 0.559232
vt 0.000000 0.000000
vt 1.000000 0.000000
vt 1.000000 1.000000
vt 0.000000 1.000000
f 125/125 126/126 127/127 128/128
v 0.500000 0.554274 0.559232
v 0.500000 0.572618 0.521139
v 0.482322 0.579757 0.522769
v 0.482322 0.559999 0.563797
vt 0.000000 0.000000
vt 1.000000 0.000000
vt 1.000000 1.000000
vt 0.000000 1.000000
f 129/129 130/130 131/131 132/132
v 0.482322 0.559999 0.563797
v 0.482322 0.579757 0.522769
v 0.475000 0.596991 0.526703
v 0.475000 0.573820 0.574819
vt 0.000000 0.000000
vt 1.000000 0.000000
vt 1.000000 1.000000
vt 0.000000 1.000000
f 133/133 134/134 135/135 136/136
v 0.475000 0.573820 0.574819
v 0.475000 0.596991 0.526703
v 0.482322 0.614226 0.530636
v 0.482322 0.587641 0.585841
vt 0.000000 0.000000
vt 1.000000 0.000000
vt 1.000000 1.000000
vt 0.000000 1.000000
f 137/137 138/138 139/139 140/140
v 0.482322 0.587641 0.585841
v 0.482322 0.614226 0.530636
v 0.500000 0.621365 0.532266
v 0.500000 0.593366 0.590406
vt 0.000000 0.000000
vt 1.000000 0.000000
vt 1.000000 1.000000
vt 0.000000 1.000000
f 141/141 142/142 143/143 144/144
v 0.500000 0.621365 0.532266
v 0.500000 0.621365 0.467734
v 0.517678 0.614226 0.469364
v 0.517678 0.614226 0.530636
vt 0.000000 0.000000
vt 1.000000 0.000000
vt 1.000000 1.000000
vt 0.000000 1.000000
f 145/145 146/146 147/147 148/148
v 0.517678 0.614226 0.530636
v 0.517678 0.614226 0.469364
v 0.525000 0.596991 0.473297
v 0.525000 0.596991 0.526703
vt 0.000000 0.000000
vt 1.000000 0.000000
vt 1.000000 1.000000
vt 0.000000 1.000000
f 149/149 150/150 151/151 152/152
v 0.525000 0.596991 0.526703
v 0.525000 0.596991 0.473297
v 0.517678 0.579757 0.477231
v 0.517678 0.579757 0.522769
vt 0.000000 0.000000
vt 1.000000 0.000000
vt 1.000000 1.000000
vt 0.000000 1.000000
f 153/153 154/154 155/155 156/156
v 0.517678 0.579757 0.522769
v 0.517678 0.579757 0.477231
v 0.500000 0.572618 0.478861
v 0.500000 0.572618 0.521139
vt 0.000000 0.000000
vt 1.000000 0.000000
vt 1.000000 1.000000
vt 0.000000 1.000000
f 157/157 158/158 159/159 160/160
v 0.500000 0.572618 0.521139
v 0.500000 0.572618 0.478861
v 0.482322 0.579757 0.477231
v 0.482322 0.579757 0.522769
vt 0.000000 0.000000
vt 1.000000 0.000000
vt 1.000000 1.000000
vt 0.000000 1.000000
f 161/161 162/162 163/163 164/164
v 0.482322 0.579757 0.522769
v 0.482322 0.579757 0.477231
v 0.475000 0.596991 0.473297
v 0.475000 0.596991 0.526703
vt 0.000000 0.000000
vt 1.000000 0.000000
vt 1.000000 1.000000
vt 0.000000 1.000000
f 165/165 166/166 167/167 168/168
v 0.475000 0.596991 0.526703
v 0.475000 0.596991 0.473297
v 0.482322 0.614226 0.469364
v 0.482322 0.614226 0.530636
vt 0.000000 0.000000
vt 1.000000 0.000000
vt 1.000000 1.000000
vt 0.000000 1.000000
f 169/169 170/170 171/171 172/172
v 0.482322 0.614226 0.530636
v 0.482322 0.614226 0.469364
v 0.500000 0.621365 0.467734
v 0.500000 0.621365 0.532266
vt 0.000000 0.000000
vt 1.000000 0.000000
vt 1.000000 1.000000
vt 0.000000 1.000000
f 173/173 174/174 175/175 176/176
v 0.500000 0.621365 0.467734
v 0.500000 0.593366 0.409594
v 0.517678 0.587641 0.414159
v 0.517678 0.614226 0.469364
vt 0.000000 0.000000
vt 1.000000 0.000000
vt 1.000000 1.000000
vt 0.000000 1.000000
f 177/177 178/178 179/179 180/180
v 0.517678 0.614226 0.469364
v 0.517678 0.587641 0.414159
v 0.525000 0.573820 0.425181
v 0.525000 0.596991 0.473297
vt 0.000000 0.000000
vt 1.000000 0.000000
vt 1.000000 1.000000
vt 0.000000 1.000000
f 181/181 182/182 183/183 184/184
v 0.525000 0.596991 0.473297
v 0.525000 0.573820 0.425181
v 0.517678 0.559999 0.436203
v 0.517678 0.579757 0.477231
vt 0.000000 0.000000
vt 1.000000 0.000000
vt 1.000000 1.000000
vt 0.000000 1.000000
f 185/185 186/186 187/187 188/188
v 0.517678 0.579757 0.477231
v 0.517678 0.559999 0.436203
v 0.500000 0.554274 0.440768
v 0.500000 0.572618 0.478861
vt 0.000000 0.000000
vt 1.000000 0.000000
vt 1.000000 1.000000
vt 0.000000 1.000000
f 189/189 190/190 191/191 192/192
v 0.500000 0.572618 0.478861
v 0.500000 0.554274 0.440768
v 0.482322 0.559999 0.436203
v 0.482322 0.579757 0.477231
vt 0.000000 0.000000
vt 1.000000 0.000000
vt 1.000000 1.000000
vt 0.000000 1.000000
f 193/193 194/194 195/195 196/196
v 0.482322 0.579757 0.477231
v 0.482322 0.559999 0.436203
v 0.475000 0.573820 0.425181
v 0.475000 0.596991 0.473297
vt 0.000000 0.000000
vt 1.000000 0.000000
vt 1.000000 1.000000
vt 0.000000 1.000000
f 197/197 198/198 199/199 200/200
v 0.475000 0.596991 0.473297
v 0.475000 0.573820 0.425181
v 0.482322 0.587641 0.414159
v 0.482322 0.614226 0.469364
vt 0.000000 0.000000
vt 1.000000 0.000000
vt 1.000000 1.000000
vt 0.000000 1.000000
f 201/201 202/202 203/203 204/204
v 0.482322 0.614226 0.469364
v 0.482322 0.587641 0.414159
v 0.500000 0.593366 0.409594
v 0.500000 0.621365 0.467734
vt 0.000000 0.000000
vt 1.000000 0.000000
vt 1.000000 1.000000
vt 0.000000 1.000000
f 205/205 206/206 207/207 208/208
v 0.500000 0.593366 0.409594
v 0.500000 0.542913 0.369360
v 0.517678 0.539736 0.375957
v 0.517678 0.587641 0.414159
vt 0.000000 0.000000
vt 1.000000 0.000000
vt 1.000000 1.000000
vt 0.000000 1.000000
f 209/209 210/210 211/211 212/212
v 0.517678 0.587641 0.414159
v 0.517678 0.539736 0.375957
v 0.525000 0.532066 0.391884
v 0.525000 0.573820 0.425181
vt 0.000000 0.000000
vt 1.000000 0.000000
vt 1.000000 1.000000
vt 0.000000 1.000000
f 213/213 214/214 215/215 216/216
v 0.525000 0.573820 0.425181
v 0.525000 0.532066 0.391884
v 0.517678 0.524396 0.407811
v 0.517678 0.559999 0.436203
vt 0.000000 0.000000
vt 1.000000 0.000000
vt 1.000000 1.000000
vt 0.000000 1.000000
f 217/217 218/218 219/219 220/220
v 0.517678 0.559999 0.436203
v 0.517678 0.524396 0.407811
v 0.500000 0.521219 0.414408
v 0.500000 0.554274 0.440768
vt 0.000000 0.000000
vt 1.000000 0.000000
vt 1.000000 1.000000
vt 0.000000 1.000000
f 221/221 222/222 223/223 224/224
v 0.500000 0.554274 0.440768
v 0.500000 0.521219 0.414408
v 0.482322 0.524396 0.407811
v 0.482322 0.559999 0.436203
vt 0.000000 0.000000
vt 1.000000 0.000000
vt 1.000000 1.000000
vt 0.000000 1.000000
f 225/225 226/226 227/227 228/228
v 0.482322 0.559999 0.436203
v 0.482322 0.524396 0.407811
v 0.475000 0.532066 0.391884
v 0.475000 0.573820 0.425181
vt 0.000000 0.000000
vt 1.000000 0.000000
vt 1.000000 1.000000
vt 0.000000 1.000000
f 229/229 230/230 231/231 232/232
v 0.475000 0.573820 0.425181
v 0.475000 0.532066 0.391884
v 0.482322 0.539736 0.375957
v 0.482322 0.587641 0.414159
vt 0.000000 0.000000
vt 1.000000 0.000000
vt 1.000000 1.000000
vt 0.000000 1.000000
f 233/233 234/234 235/235 236/236
v 0.482322 0.587641 0.414159
v 0.482322 0.539736 0.375957
v 0.500000 0.542913 0.369360
v 0.500000 0.593366 0.409594
vt 0.000000 0.000000
vt 1.000000 0.000000
vt 1.000000 1.000000
vt 0.000000 1.000000
f 237/237 238/238 239/239 240/240
v 0.500000 0.542913 0.369360
v 0.500000 0.480000 0.355000
v 0.517678 0.480000 0.362322
v 0.517678 0.539736 0.375957
vt 0.000000 0.000000
vt 1.000000 0.000000
vt 1.000000 1.000000
vt 0.000000 1.000000
f 241/241 242/242 243/243 244/244
v 0.517678 0.539736 0.375957
v 0.517678 0.480000 0.362322
v 0.525000 0.480000 0.380000
v 0.525000 0.532066 0.391884
vt 0.000000 0.000000
vt 1.000000 0.000000
vt 1.000000 1.000000
vt 0.000000 1.000000
f 245/245 246/246 247/247 248/248
v 0.525000 0.532066 0.391884
v 0.525000 0.480000 0.380000
v 0.517678 0.480000 0.397678
v 0.517678 0.524396 0.407811
vt 0.000000 0.000000
vt 1.000000 0.000000
vt 1.000000 1.000000
vt 0.000000 1.000000
f 249/249 250/250 251/251 252/252
v 0.517678 0.524396 0.407811
v 0.517678 0.480000 0.397678
v 0.500000 0.480000 0.405000
v 0.500000 0.521219 0.414408
vt 0.000000 0.000000
vt 1.000000 0.000000
vt 1.000000 1.000000
vt 0.000000 1.000000
f 253/253 254/254 255/255 256/256
v 0.500000 0.521219 0.414408
v 0.500000 0.480000 0.405000
v 0.482322 0.480000 0.397678
v 0.482322 0.524396 0.407811
vt 0.000000 0.000000
vt 1.000000 0.000000
vt 1.000000 1.000000
vt 0.000000 1.000000
f 257/257 258/258 259/259 260/260
v 0.482322 0.524396 0.407811
v 0.482322 0.480000 0.397678
v 0.475000 0.480000 0.380000
v 0.475000 0.532066 0.391884
vt 0.000000 0.000000
vt 1.000000 0.000000
vt 1.000000 1.000000
vt 0.000000 1.000000
f 261/261 262/262 263/263 264/264
v 0.475000 0.532066 0.391884
v 0.475000 0.480000 0.380000
v 0.482322 0.480000 0.362322
v 0.482322 0.539736 0.375957
vt 0.000000 0.000000
vt 1.000000 0.000000
vt 1.000000 1.000000
vt 0.000000 1.000000
f 265/265 266/266 267/267 268/268
v 0.482322 0.539736 0.375957
v 0.482322 0.480000 0.362322
v 0.500000 0.480000 0.355000
v 0.500000 0.542913 0.369360
vt 0.000000 0.000000
vt 1.000000 0.000000
vt 1.000000 1.000000
vt 0.000000 1.000000
f 269/269 270/270 271/271 272/272
v 0.500000 0.480000 0.355000
v 0.500000 0.417087 0.369360
v 0.517678 0.420264 0.375957
v 0.517678 0.480000 0.362322
vt 0.000000 0.000000
vt 1.000000 0.000000
vt 1.000000 1.000000
vt 0.000000 1.000000
f 273/273 274/274 275/275 276/276
v 0.517678 0.480000 0.362322
v 0.517678 0.420264 0.375957
v 0.525000 0.427934 0.391884
v 0.525000 0.480000 0.380000
vt 0.000000 0.000000
vt 1.000000 0.000000
vt 1.000000 1.000000
vt 0.000000 1.000000
f 277/277 278/278 279/279 280/280
v 0.525000 0.480000 0.380000
v 0.525000 0.427934 0.391884
v 0.517678 0.435604 0.407811
v 0.517678 0.480000 0.397678
vt 0.000000 0.000000
vt 1.000000 0.000000
vt 1.000000 1.000000
vt 0.000000 1.000000
f 281/281 282/282 283/283 284/284
v 0.517678 0.480000 0.397678
v 0.517678 0.435604 0.407811
v 0.500000 0.438781 0.414408
v 0.500000 0.480000 0.405000
vt 0.000000 0.000000
vt 1.000000 0.000000
vt 1.000000 1.000000
vt 0.000000 1.000000
f 285/285 286/286 287/287 288/288
v 0.500000 0.480000 0.405000
v 0.500000 0.438781 0.414408
v 0.482322 0.435604 0.407811
v 0.482322 0.480000 0.397678
vt 0.000000 0.000000
vt 1.000000 0.000000
vt 1.000000 1.000000
vt 0.000000 1.000000
f 289/289 290/290 291/291 292/292
v 0.482322 0.480000 0.397678
v 0.482322 0.435604 0.407811
v 0.475000 0.427934 0.391884
v 0.475000 0.480000 0.380000
vt 0.000000 0.000000
vt 1.000000 0.000000
vt 1.000000 1.000000
vt 0.000000 1.000000
f 293/293 294/294 295/295 296/296
v 0.475000 0.480000 0.380000
v 0.475000 0.427934 0.391884
v 0.482322 0.420264 0.375957
v 0.482322 0.480000 0.362322
vt 0.000000 0.000000
vt 1.000000 0.000000
vt 1.000000 1.000000
vt 0.000000 1.000000
f 297/297 298/298 299/299 300/300
v 0.482322 0.480000 0.362322
v 0.482322 0.420264 0.375957
v 0.500000 0.417087 0.369360
v 0.500000 0.480000 0.355000
vt 0.000000 0.000000
vt 1.000000 0.000000
vt 1.000000 1.000000
vt 0.000000 1.000000
f 301/301 302/302 303/303 304/304
v 0.500000 0.417087 0.369360
v 0.500000 0.366634 0.409594
v 0.517678 0.372359 0.414159
v 0.517678 0.420264 0.375957
vt 0.000000 0.000000
vt 1.000000 0.000000
vt 1.000000 1.000000
vt 0.000000 1.000000
f 305/305 306/306 307/307 308/308
v 0.517678 0.420264 0.375957
v 0.517678 0.372359 0.414159
v 0.525000 0.386180 0.425181
v 0.525000 0.427934 0.391884
vt 0.000000 0.000000
vt 1.000000 0.000000
vt 1.000000 1.000000
vt 0.000000 1.000000
f 309/309 310/310 311/311 312/312
v 0.525000 0.427934 0.391884
v 0.525000 0.386180 0.425181
v 0.517678 0.400001 0.436203
v 0.517678 0.435604 0.407811
vt 0.000000 0.000000
vt 1.000000 0.000000
vt 1.000000 1.000000
vt 0.000000 1.000000
f 313/313 314/314 315/315 316/316
v 0.517678 0.435604 0.407811
v 0.517678 0.400001 0.436203
v 0.500000 0.405726 0.440768
v 0.500000 0.438781 0.414408
vt 0.000000 0.000000
vt 1.000000 0.000000
vt 1.000000 1.000000
vt 0.000000 1.000000
f 317/317 318/318 319/319 320/320
v 0.500000 0.438781 0.414408
v 0.500000 0.405726 0.440768
v 0.482322 0.400001 0.436203
v 0.482322 0.435604 0.407811
vt 0.000000 0.000000
vt 1.000000 0.000000
vt 1.000000 1.000000
vt 0.000000 1.000000
f 321/321 322/322 323/323 324/324
v 0.482322 0.435604 0.407811
v 0.482322 0.400001 0.436203
v 0.475000 0.386180 0.425181
v 0.475000 0.427934 0.391884
vt 0.000000 0.000000
vt 1.000000 0.000000
vt 1.000000 1.000000
vt 0.000000 1.000000
f 325/325 326/326 327/327 328/328
v 0.475000 0.427934 0.391884
v 0.475000 0.386180 0.425181
v 0.482322 0.372359 0.414159
v 0.482322 0.420264 0.375957
vt 0.000000 0.000000
vt 1.000000 0.000000
vt 1.000000 1.000000
vt 0.000000 1.000000
f 329/329 330/330 331/331 332/332
v 0.482322 0.420264 0.375957
v 0.482322 0.372359 0.414159
v 0.500000 0.366634 0.409594
v 0.500000 0.417087 0.369360
vt 0.000000 0.000000
vt 1.000000 0.000000
vt 1.000000 1.000000
vt 0.000000 1.000000
f 333/333 334/334 335/335 336/336
v 0.500000 0.366634 0.409594
v 0.500000 0.338635 0.467734
v 0.517678 0.345774 0.469364
v 0.517678 0.372359 0.414159
vt 0.000000 0.000000
vt 1.000000 0.000000
vt 1.000000 1.000000
vt 0.000000 1.000000
f 337/337 338/338 339/339 340/340
v 0.517678 0.372359 0.414159
v 0.517678 0.345774 0.469364
v 0.525000 0.363009 0.473297
v 0.525000 0.386180 0.425181
vt 0.000000 0.000000
vt 1.000000 0.000000
vt 1.000000 1.000000
vt 0.000000 1.000000
f 341/341 342/342 343/343 344/344
v 0.525000 0.386180 0.425181
v 0.525000 0.363009 0.473297
v 0.517678 0.380243 0.477231
v 0.517678 0.400001 0.436203
vt 0.000000 0.000000
vt 1.000000 0.000000
vt 1.000000 1.000000
vt 0.000000 1.000000
f 345/345 346/346 347/347 348/348
v 0.517678 0.400001 0.436203
v 0.517678 0.380243 0.477231
v 0.500000 0.387382 0.478861
v 0.500000 0.405726 0.440768
vt 0.000000 0.000000
vt 1.000000 0.000000
vt 1.000000 1.000000
vt 0.000000 1.000000
f 349/349 350/350 351/351 352/352
v 0.500000 0.405726 0.440768
v 0.500000 0.387382 0.478861
v 0.482322 0.380243 0.477231
v 0.482322 0.400001 0.436203
vt 0.000000 0.000000
vt 1.000000 0.000000
vt 1.000000 1.000000
vt 0.000000 1.000000
f 353/353 354/354 355/355 356/356
v 0.482322 0.400001 0.436203
v 0.482322 0.380243 0.477231
v 0.475000 0.363009 0.473297
v 0.475000 0.386180 0.425181
vt 0.000000 0.000000
vt 1.000000 0.000000
vt 1.000000 1.000000
vt 0.000000 1.000000
f 357/357 358/358 359/359 360/360
v 0.475000 0.386180 0.425181
v 0.475000 0.363009 0.473297
v 0.482322 0.345774 0.469364
v 0.482322 0.372359 0.414159
vt 0.000000 0.000000
vt 1.000000 0.000000
vt 1.000000 1.000000
vt 0.000000 1.000000
f 361/361 362/362 363/363 364/364
v 0.482322 0.372359 0.414159
v 0.482322 0.345774 0.469364
v 0.500000 0.338635 0.467734
v 0.500000 0.366634 0.409594
vt 0.000000 0.000000
vt 1.000000 0.000000
vt 1.000000 1.000000
vt 0.000000 1.000000
f 365/365 366/366 367/367 368/368
v 0.500000 0.338635 0.467734
v 0.500000 0.338635 0.532266
v 0.517678 0.345774 0.530636
v 0.517678 0.345774 0.469364
vt 0.000000 0.000000
vt 1.000000 0.000000
vt 1.000000 1.000000
vt 0.000000 1.000000
f 369/369 370/370 371/371 372/372
v 0.517678 0.345774 0.469364
v 0.517678 0.345774 0.530636
v 0.525000 0.363009 0.526703
v 0.525000 0.363009 0.473297
vt 0.000000 0.000000
vt 1.000000 0.000000
vt 1.000000 1.000000
vt 0.000000 1.000000
f 373/373 374/374 375/375 376/376
v 0.525000 0.363009 0.473297
v 0.525000 0.363009 0.526703
v 0.517678 0.380243 0.522769
v 0.517678 0.380243 0.477231
vt 0.000000 0.000000
vt 1.000000 0.000000
vt 1.000000 1.000000
vt 0.000000 1.000000
f 377/377 378/378 379/379 380/380
v 0.517678 0.380243 0.477231
v 0.517678 0.380243 0.522769
v 0.500000 0.387382 0.521139
v 0.500000 0.387382 0.478861
vt 0.000000 0.000000
vt 1.000000 0.000000
vt 1.000000 1.000000
vt 0.000000 1.000000
f 381/381 382/382 383/383 384/384
v 0.500000 0.387382 0.478861
v 0.500000 0.387382 0.521139
v 0.482322 0.380243 0.522769
v 0.482322 0.380243 0.477231
vt 0.000000 0.000000
vt 1.000000 0.000000
vt 1.000000 1.000000
vt 0.000000 1.000000
f 385/385 386/386 387/387 388/388
v 0.482322 0.380243 0.477231
v 0.482322 0.380243 0.522769
v 0.475000 0.363009 0.526703
v 0.475000 0.363009 0.473297
vt 0.000000 0.000000
vt 1.000000 0.000000
vt 1.000000 1.000000
vt 0.000000 1.000000
f 389/389 390/390 391/391 392/392
v 0.475000 0.363009 0.473297
v 0.475000 0.363009 0.526703
v 0.482322 0.345774 0.530636
v 0.482322 0.345774 0.469364
vt 0.000000 0.000000
vt 1.000000 0.000000
vt 1.000000 1.000000
vt 0.000000 1.000000
f 393/393 394/394 395/395 396/396
v 0.482322 0.345774 0.469364
v 0.482322 0.345774 0.530636
v 0.500000 0.338635 0.532266
v 0.500000 0.338635 0.467734
vt 0.000000 0.000000
vt 1.000000 0.000000
vt 1.000000 1.000000
vt 0.000000 1.000000
f 397/397 398/398 399/399 400/400
v 0.500000 0.338635 0.532266
v 0.500000 0.366634 0.590406
v 0.517678 0.372359 0.585841
v 0.517678 0.345774 0.530636
vt 0.000000 0.000000
vt 1.000000 0.000000
vt 1.000000 1.000000
vt 0.000000 1.000000
f 401/401 402/402 403/403 404/404
v 0.517678 0.345774 0.530636
v 0.517678 0.372359 0.585841
v 0.525000 0.386180 0.574819
v 0.525000 0.363009 0.526703
vt 0.000000 0.000000
vt 1.000000 0.000000
vt 1.000000 1.000000
vt 0.000000 1.000000
f 405/405 406/406 407/407 408/408
v 0.525000 0.363009 0.526703
v 0.525000 0.386180 0.574819
v 0.517678 0.400001 0.563797
v 0.517678 0.380243 0.522769
vt 0.000000 0.000000
vt 1.000000 0.000000
vt 1.000000 1.000000
vt 0.000000 1.000000
f 409/409 410/410 411/411 412/412
v 0.517678 0.380243 0.522769
v 0.517678 0.400001 0.563797
v 0.500000 0.405726 0.559232
v 0.500000 0.387382 0.521139
vt 0.000000 0.000000
vt 1.000000 0.000000
vt 1.000000 1.000000
vt 0.000000 1.000000
f 413/413 414/414 415/415 416/416
v 0.500000 0.387382 0.521139
v 0.500000 0.405726 0.559232
v 0.482322 0.400001 0.563797
v 0.482322 0.380243 0.522769
vt 0.000000 0.000000
vt 1.000000 0.000000
vt 1.000000 1.000000
vt 0.000000 1.000000
f 417/417 418/418 419/419 420/420
v 0.482322 0.380243 0.522769
v 0.482322 0.400001 0.563797
v 0.475000 0.386180 0.574819
v 0.475000 0.363009 0.526703
vt 0.000000 0.000000
vt 1.000000 0.000000
vt 1.000000 1.000000
vt 0.000000 1.000000
f 421/421 422/422 423/423 424/424
v 0.475000 0.363009 0.526703
v 0.475000 0.386180 0.574819
v 0.482322 0.372359 0.585841
v 0.482322 0.345774 0.530636
vt 0.000000 0.000000
vt 1.000000 0.000000
vt 1.000000 1.000000
vt 0.000000 1.000000
f 425/425 426/426 427/427 428/428
v 0.482322 0.345774 0.530636
v 0.482322 0.372359 0.585841
v 0.500000 0.366634 0.590406
v 0.500000 0.338635 0.532266
vt 0.000000 0.000000
vt 1.000000 0.000000
vt 1.000000 1.000000
vt 0.000000 1.000000
f 429/429 430/430 431/431 432/432
v 0.500000 0.366634 0.590406
v 0.500000 0.417087 0.630640
v 0.517678 0.420264 0.624043
v 0.517678 0.372359 0.585841
vt 0.000000 0.000000
vt 1.000000 0.000000
vt 1.000000 1.000000
vt 0.000000 1.000000
f 433/433 434/434 435/435 436/436
v 0.517678 0.372359 0.585841
v 0.517678 0.420264 0.624043
v 0.525000 0.427934 0.608116
v 0.525000 0.386180 0.574819
vt 0.000000 0.000000
vt 1.000000 0.000000
vt 1.000000 1.000000
vt 0.000000 1.000000
f 437/437 438/438 439/439 440/440
v 0.525000 0.386180 0.574819
v 0.525000 0.427934 0.608116
v 0.517678 0.435604 0.592189
v 0.517678 0.400001 0.563797
vt 0.000000 0.000000
vt 1.000000 0.000000
vt 1.000000 1.000000
vt 0.000000 1.000000
f 441/441 442/442 443/443 444/444
v 0.517678 0.400001 0.563797
v 0.517678 0.435604 0.592189
v 0.500000 0.438781 0.585592
v 0.500000 0.405726 0.559232
vt 0.000000 0.000000
vt 1.000000 0.000000
vt 1.000000 1.000000
vt 0.000000 1.000000
f 445/445 446/446 447/447 448/448
v 0.500000 0.405726 0.559232
v 0.500000 0.438781 0.585592
v 0.482322 0.435604 0.592189
v 0.482322 0.400001 0.563797
vt 0.000000 0.000000
vt 1.000000 0.000000
vt 1.000000 1.000000
vt 0.000000 1.000000
f 449/449 450/450 451/451 452/452
v 0.482322 0.400001 0.563797
v 0.482322 0.435604 0.592189
v 0.475000 0.427934 0.608116
v 0.475000 0.386180 0.574819
vt 0.000000 0.000000
vt 1.000000 0.000000
vt 1.000000 1.000000
vt 0.000000 1.000000
f 453/453 454/454 455/455 456/456
v 0.475000 0.386180 0.574819
v 0.475000 0.427934 0.608116
v 0.482322 0.420264 0.624043
v 0.482322 0.372359 0.585841
vt 0.000000 0.000000
vt 1.000000 0.000000
vt 1.000000 1.000000
vt 0.000000 1.000000
f 457/457 458/458 459/459 460/460
v 0.482322 0.372359 0.585841
v 0.482322 0.420264 0.624043
v 0.500000 0.417087 0.630640
v 0.500000 0.366634 0.590406
vt 0.000000 0.000000
vt 1.000000 0.000000
vt 1.000000 1.000000
vt 0.000000 1.000000
f 461/461 462/462 463/463 464/464
v 0.500000 0.417087 0.630640
v 0.500000 0.480000 0.645000
v 0.517678 0.480000 0.637678
v 0.517678 0.420264 0.624043
vt 0.000000 0.000000
vt 1.000000 0.000000
vt 1.000000 1.000000
vt 0.000000 1.000000
f 465/465 466/466 467/467 468/468
v 0.517678 0.420264 0.624043
v 0.517678 0.480000 0.637678
v 0.525000 0.480000 0.620000
v 0.525000 0.427934 0.608116
vt 0.000000 0.000000
vt 1.000000 0.000000
vt 1.000000 1.000000
vt 0.000000 1.000000
f 469/469 470/470 471/471 472/472
v 0.525000 0.427934 0.608116
v 0.525000 0.480000 0.620000
v 0.517678 0.480000 0.602322
v 0.517678 0.435604 0.592189
vt 0.000000 0.000000
vt 1.000000 0.000000
vt 1.000000 1.000000
vt 0.000000 1.000000
f 473/473 474/474 475/475 476/476
v 0.517678 0.435604 0.592189
v 0.517678 0.480000 0.602322
v 0.500000 0.480000 0.595000
v 0.500000 0.438781 0.585592
vt 0.000000 0.000000
vt 1.000000 0.000000
vt 1.000000 1.000000
vt 0.000000 1.000000
f 477/477 478/478 479/479 480/480
v 0.500000 0.438781 0.585592
v 0.500000 0.480000 0.595000
v 0.482322 0.480000 0.602322
v 0.482322 0.435604 0.592189
vt 0.000000 0.000000
vt 1.000000 0.000000
vt 1.000000 1.000000
vt 0.000000 1.000000
f 481/481 482/482 483/483 484/484
v 0.482322 0.435604 0.592189
v 0.482322 0.480000 0.602322
v 0.475000 0.480000 0.620000
v 0.475000 0.427934 0.608116
vt 0.000000 0.000000
vt 1.000000 0.000000
vt 1.000000 1.000000
vt 0.000000 1.000000
f 485/485 486/486 487/487 488/488
v 0.475000 0.427934 0.608116
v 0.475000 0.480000 0.620000
v 0.482322 0.480000 0.637678
v 0.482322 0.420264 0.624043
vt 0.000000 0.000000
vt 1.000000 0.000000
vt 1.000000 1.000000
vt 0.000000 1.000000
f 489/489 490/490 491/491 492/492
v 0.482322 0.420264 0.624043
v 0.482322 0.480000 0.637678
v 0.500000 0.480000 0.645000
v 0.500000 0.417087 0.630640
vt 0.000000 0.000000
vt 1.000000 0.000000
vt 1.000000 1.000000
vt 0.000000 1.000000
f 493/493 494/494 495/495 496/496
v 0.360000 0.080000 0.100000
v 0.400000 0.080000 0.100000
v 0.400000 0.160000 0.100000
v 0.360000 0.160000 0.100000
vt 0.000000 0.000000
vt 1.000000 0.000000
vt 1.000000 1.000000
vt 0.000000 1.000000
f 497/497 498/498 499/499 500/500
v 0.400000 0.080000 0.900000
v 0.360000 0.080000 0.900000
v 0.360000 0.160000 0.900000
v 0.400000 0.160000 0.900000
vt 0.000000 0.000000
vt 1.000000 0.000000
vt 1.000000 1.000000
vt 0.000000 1.000000
f 501/501 502/502 503/503 504/504
v 0.360000 0.080000 0.900000
v 0.360000 0.080000 0.100000
v 0.360000 0.160000 0.100000
v 0.360000 0.160000 0.900000
vt 0.000000 0.000000
vt 1.000000 0.000000
vt 1.000000 1.000000
vt 0.000000 1.000000
f 505/505 506/506 507/507 508/508
v 0.400000 0.080000 0.100000
v 0.400000 0.080000 0.900000
v 0.400000 0.160000 0.900000
v 0.400000 0.160000 0.100000
vt 0.000000 0.000000
vt 1.000000 0.000000
vt 1.000000 1.000000
vt 0.000000 1.000000
f 509/509 510/510 511/511 512/512
v 0.360000 0.160000 0.100000
v 0.400000 0.160000 0.100000
v 0.400000 0.160000 0.900000
v 0.360000 0.160000 0.900000
vt 0.000000 0.000000
vt 1.000000 0.000000
vt 1.000000 1.000000
vt 0.000000 1.000000
f 513/513 514/514 515/515 516/516
v 0.360000 0.080000 0.900000
v 0.400000 0.080000 0.900000
v 0.400000 0.080000 0.100000
v 0.360000 0.080000 0.100000
vt 0.000000 0.000000
vt 1.000000 0.000000
vt 1.000000 1.000000
vt 0.000000 1.000000
f 517/517 518/518 519/519 520/520
usemtl glass
v 0.410000 0.520000 0.280000
v 0.480000 0.520000 0.280000
v 0.480000 0.820000 0.280000
v 0.410000 0.820000 0.280000
vt 0.000000 0.000000
vt 1.000000 0.000000
vt 1.000000 1.000000
vt 0.000000 1.000000
f 521/521 522/522 523/523 524/524
v 0.480000 0.520000 0.720000
v 0.410000 0.520000 0.720000
v 0.410000 0.820000 0.720000
v 0.480000 0.820000 0.720000
vt 0.000000 0.000000
vt 1.000000 0.000000
vt 1.000000 1.000000
vt 0.000000 1.000000
f 525/525 526/526 527/527 528/528
v 0.410000 0.520000 0.720000
v 0.410000 0.520000 0.280000
v 0.410000 0.820000 0.280000
v 0.410000 0.820000 0.720000
vt 0.000000 0.000000
vt 1.000000 0.000000
vt 1.000000 1.000000
vt 0.000000 1.000000
f 529/529 530/530 531/531 532/532
v 0.480000 0.520000 0.280000
v 0.480000 0.520000 0.720000
v 0.480000 0.820000 0.720000
v 0.480000 0.820000 0.280000
vt 0.000000 0.000000
vt 1.000000 0.000000
vt 1.000000 1.000000
vt 0.000000 1.000000
f 533/533 534/534 535/535 536/536
v 0.410000 0.820000 0.280000
v 0.480000 0.820000 0.280000
v 0.480000 0.820000 0.720000
v 0.410000 0.820000 0.720000
vt 0.000000 0.000000
vt 1.000000 0.000000
vt 1.000000 1.000000
vt 0.000000 1.000000
f 537/537 538/538 539/539 540/540
v 0.410000 0.520000 0.720000
v 0.480000 0.520000 0.720000
v 0.480000 0.520000 0.280000
v 0.410000 0.520000 0.280000
vt 0.000000 0.000000
vt 1.000000 0.000000
vt 1.000000 1.000000
vt 0.000000 1.000000
f 541/541 542/542 543/543 544/544
usemtl yellow
v 0.500000 0.200000 0.792000
v 0.500000 0.208485 0.788485
v 0.519200 0.208485 0.788485
v 0.519200 0.200000 0.792000
vt 0.000000 0.000000
vt 0.125000 0.000000
vt 0.125000 1.000000
vt 0.000000 1.000000
f 545/545 546/546 547/547 548/548
v 0.500000 0.200000 0.780000
v 0.500000 0.208485 0.788485
v 0.500000 0.200000 0.792000
vt 0.000000 0.000000
vt 1.000000 0.000000
vt 1.000000 1.000000
f 549/549 550/550 551/551
v 0.519200 0.200000 0.780000
v 0.519200 0.200000 0.792000
v 0.519200 0.208485 0.788485
vt 0.000000 0.000000
vt 1.000000 0.000000
vt 1.000000 1.000000
f 552/552 553/553 554/554
v 0.500000 0.208485 0.788485
v 0.500000 0.212000 0.780000
v 0.519200 0.212000 0.780000
v 0.519200 0.208485 0.788485
vt 0.125000 0.000000
vt 0.250000 0.000000
vt 0.250000 1.000000
vt 0.125000 1.000000
f 555/555 556/556 557/557 558/558
v 0.500000 0.200000 0.780000
v 0.500000 0.212000 0.780000
v 0.500000 0.208485 0.788485
vt 0.000000 0.000000
vt 1.000000 0.000000
vt 1.000000 1.000000
f 559/559 560/560 561/561
v 0.519200 0.200000 0.780000
v 0.519200 0.208485 0.788485
v 0.519200 0.212000 0.780000
vt 0.000000 0.000000
vt 1.000000 0.000000
vt 1.000000 1.000000
f 562/562 563/563 564/564
v 0.500000 0.212000 0.780000
v 0.500000 0.208485 0.771515
v 0.519200 0.208485 0.771515
v 0.519200 0.212000 0.780000
vt 0.250000 0.000000
vt 0.375000 0.000000
vt 0.375000 1.000000
vt 0.250000 1.000000
f 565/565 566/566 567/567 568/568
v 0.500000 0.200000 0.780000
v 0.500000 0.208485 0.771515
v 0.500000 0.212000 0.780000
vt 0.000000 0.000000
vt 1.000000 0.000000
vt 1.000000 1.000000
f 569/569 570/570 571/571
v 0.519200 0.200000 0.780000
v 0.519200 0.212000 0.780000
v 0.519200 0.208485 0.771515
vt 0.000000 0.000000
vt 1.000000 0.000000
vt 1.000000 1.000000
f 572/572 573/573 574/574
v 0.500000 0.208485 0.771515
v 0.500000 0.200000 0.768000
v 0.519200 0.200000 0.768000
v 0.519200 0.208485 0.771515
vt 0.375000 0.000000
vt 0.500000 0.000000
vt 0.500000 1.000000
vt 0.375000 1.000000
f 575/575 576/576 577/577 578/578
v 0.500000 0.200000 0.780000
v 0.500000 0.200000 0.768000
v 0.500000 0.208485 0.771515
vt 0.000000 0.000000
vt 1.000000 0.000000
vt 1.000000 1.000000
f 579/579 580/580 581/581
v 0.519200 0.200000 0.780000
v 0.519200 0.208485 0.771515
v 0.519200 0.200000 0.768000
vt 0.000000 0.000000
vt 1.000000 0.000000
vt 1.000000 1.000000
f 582/582 583/583 584/584
v 0.500000 0.200000 0.768000
v 0.500000 0.191515 0.771515
v 0.519200 0.191515 0.771515
v 0.519200 0.200000 0.768000
vt 0.500000 0.000000
vt 0.625000 0.000000
vt 0.625000 1.000000
vt 0.500000 1.000000
f 585/585 586/586 587/587 588/588
v 0.500000 0.200000 0.780000
v 0.500000 0.191515 0.771515
v 0.500000 0.200000 0.768000
vt 0.000000 0.000000
vt 1.000000 0.000000
vt 1.000000 1.000000
f 589/589 590/590 591/591
v 0.519200 0.200000 0.780000
v 0.519200 0.200000 0.768000
v 0.519200 0.191515 0.771515
vt 0.000000 0.000000
vt 1.000000 0.000000
vt 1.000000 1.000000
f 592/592 593/593 594/594
v 0.500000 0.191515 0.771515
v 0.500000 0.188000 0.780000
v 0.519200 0.188000 0.780000
v 0.519200 0.191515 0.771515
vt 0.625000 0.000000
vt 0.750000 0.000000
vt 0.750000 1.000000
vt 0.625000 1.000000
f 595/595 596/596 597/597 598/598
v 0.500000 0.200000 0.780000
v 0.500000 0.188000 0.780000
v 0.500000 0.191515 0.771515
vt 0.000000 0.000000
vt 1.000000 0.000000
vt 1.000000 1.000000
f 599/599 600/600 601/601
v 0.519200 0.200000 0.780000
v 0.519200 0.191515 0.771515
v 0.519200 0.188000 0.780000
vt 0.000000 0.000000
vt 1.000000 0.000000
vt 1.000000 1.000000
f 602/602 603/603 604/604
v 0.500000 0.188000 0.780000
v 0.500000 0.191515 0.788485
v 0.519200 0.191515 0.788485
v 0.519200 0.188000 0.780000
vt 0.750000 0.000000
vt 0.875000 0.000000
vt 0.875000 1.000000
vt 0.750000 1.000000
f 605/605 606/606 607/607 608/608
v 0.500000 0.200000 0.780000
v 0.500000 0.191515 0.788485
v 0.500000 0.188000 0.780000
vt 0.000000 0.000000
vt 1.000000 0.000000
vt 1.000000 1.000000
f 609/609 610/610 611/611
v 0.519200 0.200000 0.780000
v 0.519200 0.188000 0.780000
v 0.519200 0.191515 0.788485
vt 0.000000 0.000000
vt 1.000000 0.000000
vt 1.000000 1.000000
f 612/612 613/613 614/614
v 0.500000 0.191515 0.788485
v 0.500000 0.200000 0.792000
v 0.519200 0.200000 0.792000
v 0.519200 0.191515 0.788485
vt 0.875000 0.000000
vt 1.000000 0.000000
vt 1.000000 1.000000
vt 0.875000 1.000000
f 615/615 616/616 617/617 618/618
v 0.500000 0.200000 0.780000
v 0.500000 0.200000 0.792000
v 0.500000 0.191515 0.788485
vt 0.000000 0.000000
vt 1.000000 0.000000
vt 1.000000 1.000000
f 619/619 620/620 621/621
v 0.519200 0.200000 0.780000
v 0.519200 0.191515 0.788485
v 0.519200 0.200000 0.792000
vt 0.000000 0.000000
vt 1.000000 0.000000
vt 1.000000 1.000000
f 622/622 623/623 624/624
v 0.500000 0.397990 0.709990
v 0.500000 0.406475 0.706475
v 0.519200 0.406475 0.706475
v 0.519200 0.397990 0.709990
vt 0.000000 0.000000
vt 0.125000 0.000000
vt 0.125000 1.000000
vt 0.000000 1.000000
f 625/625 626/626 627/627 628/628
v 0.500000 0.397990 0.697990
v 0.500000 0.406475 0.706475
v 0.500000 0.397990 0.709990
vt 0.000000 0.000000
vt 1.000000 0.000000
vt 1.000000 1.000000
f 629/629 630/630 631/631
v 0.519200 0.397990 0.697990
v 0.519200 0.397990 0.709990
v 0.519200 0.406475 0.706475
vt 0.000000 0.000000
vt 1.000000 0.000000
vt 1.000000 1.000000
f 632/632 633/633 634/634
v 0.500000 0.406475 0.706475
v 0.500000 0.409990 0.697990
v 0.519200 0.409990 0.697990
v 0.519200 0.406475 0.706475
vt 0.125000 0.000000
vt 0.250000 0.000000
vt 0.250000 1.000000
vt 0.125000 1.000000
f 635/635 636/636 637/637 638/638
v 0.500000 0.397990 0.697990
v 0.500000 0.409990 0.697990
v 0.500000 0.406475 0.706475
vt 0.000000 0.000000
vt 1.000000 0.000000
vt 1.000000 1.000000
f 639/639 640/640 641/641
v 0.519200 0.397990 0.697990
v 0.519200 0.406475 0.706475
v 0.519200 0.409990 0.697990
vt 0.000000 0.000000
vt 1.000000 0.000000
vt 1.000000 1.000000
f 642/642 643/643 644/644
v 0.500000 0.409990 0.697990
v 0.500000 0.406475 0.689505
v 0.519200 0.406475 0.689505
v 0.519200 0.409990 0.697990
vt 0.250000 0.000000
vt 0.375000 0.000000
vt 0.375000 1.000000
vt 0.250000 1.000000
f 645/645 646/646 647/647 648/648
v 0.500000 0.397990 0.697990
v 0.500000 0.406475 0.689505
v 0.500000 0.409990 0.697990
vt 0.000000 0.000000
vt 1.000000 0.000000
vt 1.000000 1.000000
f 649/649 650/650 651/651
v 0.519200 0.397990 0.697990
v 0.519200 0.409990 0.697990
v 0.519200 0.406475 0.689505
vt 0.000000 0.000000
vt 1.000000 0.000000
vt 1.000000 1.000000
f 652/652 653/653 654/654
v 0.500000 0.406475 0.689505
v 0.500000 0.397990 0.685990
v 0.519200 0.397990 0.685990
v 0.519200 0.406475 0.689505
vt 0.375000 0.000000
vt 0.500000 0.000000
vt 0.500000 1.000000
vt 0.375000 1.000000
f 655/655 656/656 657/657 658/658
v 0.500000 0.397990 0.697990
v 0.500000 0.397990 0.685990
v 0.500000 0.406475 0.689505
vt 0.000000 0.000000
vt 1.000000 0.000000
vt 1.000000 1.000000
f 659/659 660/660 661/661
v 0.519200 0.397990 0.697990
v 0.519200 0.406475 0.689505
v 0.519200 0.397990 0.685990
vt 0.000000 0.000000
vt 1.000000 0.000000
vt 1.000000 1.000000
f 662/662 663/663 664/664
v 0.500000 0.397990 0.685990
v 0.500000 0.389505 0.689505
v 0.519200 0.389505 0.689505
v 0.519200 0.397990 0.685990
vt 0.500000 0.000000
vt 0.625000 0.000000
vt 0.625000 1.000000
vt 0.500000 1.000000
f 665/665 666/666 667/667 668/668
v 0.500000 0.397990 0.697990
v 0.500000 0.389505 0.689505
v 0.500000 0.397990 0.685990
vt 0.000000 0.000000
vt 1.000000 0.000000
vt 1.000000 1.000000
f 669/669 670/670 671/671
v 0.519200 0.397990 0.697990
v 0.519200 0.397990 0.685990
v 0.519200 0.389505 0.689505
vt 0.000000 0.000000
vt 1.000000 0.000000
vt 1.000000 1.000000
f 672/672 673/673 674/674
v 0.500000 0.389505 0.689505
v 0.500000 0.385990 0.697990
v 0.519200 0.385990 0.697990
v 0.519200 0.389505 0.689505
vt 0.625000 0.000000
vt 0.750000 0.000000
vt 0.750000 1.000000
vt 0.625000 1.000000
f 675/675 676/676 677/677 678/678
v 0.500000 0.397990 0.697990
v 0.500000 0.385990 0.697990
v 0.500000 0.389505 0.689505
vt 0.000000 0.000000
vt 1.000000 0.000000
vt 1.000000 1.000000
f 679/679 680/680 681/681
v 0.519200 0.397990 0.697990
v 0.519200 0.389505 0.689505
v 0.519200 0.385990 0.697990
vt 0.000000 0.000000
vt 1.000000 0.000000
vt 1.000000 1.000000
f 682/682 683/683 684/684
v 0.500000 0.385990 0.697990
v 0.500000 0.389505 0.706475
v 0.519200 0.389505 0.706475
v 0.519200 0.385990 0.697990
vt 0.750000 0.000000
vt 0.875000 0.000000
vt 0.875000 1.000000
vt 0.750000 1.000000
f 685/685 686/686 687/687 688/688
v 0.500000 0.397990 0.697990
v 0.500000 0.389505 0.706475
v 0.500000 0.385990 0.697990
vt 0.000000 0.000000
vt 1.000000 0.000000
vt 1.000000 1.000000
f 689/689 690/690 691/691
v 0.519200 0.397990 0.697990
v 0.519200 0.385990 0.697990
v 0.519200 0.389505 0.706475
vt 0.000000 0.000000
vt 1.000000 0.000000
vt 1.000000 1.000000
f 692/692 693/693 694/694
v 0.500000 0.389505 0.706475
v 0.500000 0.397990 0.709990
v 0.519200 0.397990 0.709990
v 0.519200 0.389505 0.706475
vt 0.875000 0.000000
vt 1.000000 0.000000
vt 1.000000 1.000000
vt 0.875000 1.000000
f 695/695 696/696 697/697 698/698
v 0.500000 0.397990 0.697990
v 0.500000 0.397990 0.709990
v 0.500000 0.389505 0.706475
vt 0.000000 0.000000
vt 1.000000 0.000000
vt 1.000000 1.000000
f 699/699 700/700 701/701
v 0.519200 0.397990 0.697990
v 0.519200 0.389505 0.706475
v 0.519200 0.397990 0.709990
vt 0.000000 0.000000
vt 1.000000 0.000000
vt 1.000000 1.000000
f 702/702 703/703 704/704
v 0.500000 0.480000 0.512000
v 0.500000 0.488485 0.508485
v 0.519200 0.488485 0.508485
v 0.519200 0.480000 0.512000
vt 0.000000 0.000000
vt 0.125000 0.000000
vt 0.125000 1.000000
vt 0.000000 1.000000
f 705/705 706/706 707/707 708/708
v 0.500000 0.480000 0.500000
v 0.500000 0.488485 0.508485
v 0.500000 0.480000 0.512000
vt 0.000000 0.000000
vt 1.000000 0.000000
vt 1.000000 1.000000
f 709/709 710/710 711/711
v 0.519200 0.480000 0.500000
v 0.519200 0.480000 0.512000
v 0.519200 0.488485 0.508485
vt 0.000000 0.000000
vt 1.000000 0.000000
vt 1.000000 1.000000
f 712/712 713/713 714/714
v 0.500000 0.488485 0.508485
v 0.500000 0.492000 0.500000
v 0.519200 0.492000 0.500000
v 0.519200 0.488485 0.508485
vt 0.125000 0.000000
vt 0.250000 0.000000
vt 0.250000 1.000000
vt 0.125000 1.000000
f 715/715 716/716 717/717 718/718
v 0.500000 0.480000 0.500000
v 0.500000 0.492000 0.500000
v 0.500000 0.488485 0.508485
vt 0.000000 0.000000
vt 1.000000 0.000000
vt 1.000000 1.000000
f 719/719 720/720 721/721
v 0.519200 0.480000 0.500000
v 0.519200 0.488485 0.508485
v 0.519200 0.492000 0.500000
vt 0.000000 0.000000
vt 1.000000 0.000000
vt 1.000000 1.000000
f 722/722 723/723 724/724
v 0.500000 0.492000 0.500000
v 0.500000 0.488485 0.491515
v 0.519200 0.488485 0.491515
v 0.519200 0.492000 0.500000
vt 0.250000 0.000000
vt 0.375000 0.000000
vt 0.375000 1.000000
vt 0.250000 1.000000
f 725/725 726/726 727/727 728/728
v 0.500000 0.480000 0.500000
v 0.500000 0.488485 0.491515
v 0.500000 0.492000 0.500000
vt 0.000000 0.000000
vt 1.000000 0.000000
vt 1.000000 1.000000
f 729/729 730/730 731/731
v 0.519200 0.480000 0.500000
v 0.519200 0.492000 0.500000
v 0.519200 0.488485 0.491515
vt 0.000000 0.000000
vt 1.000000 0.000000
vt 1.000000 1.000000
f 732/732 733/733 734/734
v 0.500000 0.488485 0.491515
v 0.500000 0.480000 0.488000
v 0.519200 0.480000 0.488000
v 0.519200 0.488485 0.491515
vt 0.375000 0.000000
vt 0.500000 0.000000
vt 0.500000 1.000000
vt 0.375000 1.000000
f 735/735 736/736 737/737 738/738
v 0.500000 0.480000 0.500000
v 0.500000 0.480000 0.488000
v 0.500000 0.488485 0.491515
vt 0.000000 0.000000
vt 1.000000 0.000000
vt 1.000000 1.000000
f 739/739 740/740 741/741
v 0.519200 0.480000 0.500000
v 0.519200 0.488485 0.491515
v 0.519200 0.480000 0.488000
vt 0.000000 0.000000
vt 1.000000 0.000000
vt 1.000000 1.000000
f 742/742 743/743 744/744
v 0.500000 0.480000 0.488000
v 0.500000 0.471515 0.491515
v 0.519200 0.471515 0.491515
v 0.519200 0.480000 0.488000
vt 0.500000 0.000000
vt 0.625000 0.000000
vt 0.625000 1.000000
vt 0.500000 1.000000
f 745/745 746/746 747/747 748/748
v 0.500000 0.480000 0.500000
v 0.500000 0.471515 0.491515
v 0.500000 0.480000 0.488000
vt 0.000000 0.000000
vt 1.000000 0.000000
vt 1.000000 1.000000
f 749/749 750/750 751/751
v 0.519200 0.480000 0.500000
v 0.519200 0.480000 0.488000
v 0.519200 0.471515 0.491515
vt 0.000000 0.000000
vt 1.000000 0.000000
vt 1.000000 1.000000
f 752/752 753/753 754/754
v 0.500000 0.471515 0.491515
v 0.500000 0.468000 0.500000
v 0.519200 0.468000 0.500000
v 0.519200 0.471515 0.491515
vt 0.625000 0.000000
vt 0.750000 0.000000
vt 0.750000 1.000000
vt 0.625000 1.000000
f 755/755 756/756 757/757 758/758
v 0.500000 0.480000 0.500000
v 0.500000 0.468000 0.500000
v 0.500000 0.471515 0.491515
vt 0.000000 0.000000
vt 1.000000 0.000000
vt 1.000000 1.000000
f 759/759 760/760 761/761
v 0.519200 0.480000 0.500000
v 0.519200 0.471515 0.491515
v 0.519200 0.468000 0.500000
vt 0.000000 0.000000
vt 1.000000 0.000000
vt 1.000000 1.000000
f 762/762 763/763 764/764
v 0.500000 0.468000 0.500000
v 0.500000 0.471515 0.508485
v 0.519200 0.471515 0.508485
v 0.519200 0.468000 0.500000
vt 0.750000 0.000000
vt 0.875000 0.000000
vt 0.875000 1.000000
vt 0.750000 1.000000
f 765/765 766/766 767/767 768/768
v 0.500000 0.480000 0.500000
v 0.500000 0.471515 0.508485
v 0.500000 0.468000 0.500000
vt 0.000000 0.000000
vt 1.000000 0.000000
vt 1.000000 1.000000
f 769/769 770/770 771/771
v 0.519200 0.480000 0.500000
v 0.519200 0.468000 0.500000
v 0.519200 0.471515 0.508485
vt 0.000000 0.000000
vt 1.000000 0.000000
vt 1.000000 1.000000
f 772/772 773/773 774/774
v 0.500000 0.471515 0.508485
v 0.500000 0.480000 0.512000
v 0.519200 0.480000 0.512000
v 0.519200 0.471515 0.508485
vt 0.875000 0.000000
vt 1.000000 0.000000
vt 1.000000 1.000000
vt 0.875000 1.000000
f 775/775 776/776 777/777 778/778
v 0.500000 0.480000 0.500000
v 0.500000 0.480000 0.512000
v 0.500000 0.471515 0.508485
vt 0.000000 0.000000
vt 1.000000 0.000000
vt 1.000000 1.000000
f 779/779 780/780 781/781
v 0.519200 0.480000 0.500000
v 0.519200 0.471515 0.508485
v 0.519200 0.480000 0.512000
vt 0.000000 0.000000
vt 1.000000 0.000000
vt 1.000000 1.000000
f 782/782 783/783 784/784
v 0.500000 0.397990 0.314010
v 0.500000 0.406475 0.310495
v 0.519200 0.406475 0.310495
v 0.519200 0.397990 0.314010
vt 0.000000 0.000000
vt 0.125000 0.000000
vt 0.125000 1.000000
vt 0.000000 1.000000
f 785/785 786/786 787/787 788/788
v 0.500000 0.397990 0.302010
v 0.500000 0.406475 0.310495
v 0.500000 0.397990 0.314010
vt 0.000000 0.000000
vt 1.000000 0.000000
vt 1.000000 1.000000
f 789/789 790/790 791/791
v 0.519200 0.397990 0.302010
v 0.519200 0.397990 0.314010
v 0.519200 0.406475 0.310495
vt 0.000000 0.000000
vt 1.000000 0.000000
vt 1.000000 1.000000
f 792/792 793/793 794/794
v 0.500000 0.406475 0.310495
v 0.500000 0.409990 0.302010
v 0.519200 0.409990 0.302010
v 0.519200 0.406475 0.310495
vt 0.125000 0.000000
vt 0.250000 0.000000
vt 0.250000 1.000000
vt 0.125000 1.000000
f 795/795 796/796 797/797 798/798
v 0.500000 0.397990 0.302010
v 0.500000 0.409990 0.302010
v 0.500000 0.406475 0.310495
vt 0.000000 0.000000
vt 1.000000 0.000000
vt 1.000000 1.000000
f 799/799 800/800 801/801
v 0.519200 0.397990 0.302010
v 0.519200 0.406475 0.310495
v 0.519200 0.409990 0.302010
vt 0.000000 0.000000
vt 1.000000 0.000000
vt 1.000000 1.000000
f 802/802 803/803 804/804
v 0.500000 0.409990 0.302010
v 0.500000 0.406475 0.293525
v 0.519200 0.406475 0.293525
v 0.519200 0.409990 0.302010
vt 0.250000 0.000000
vt 0.375000 0.000000
vt 0.375000 1.000000
vt 0.250000 1.000000
f 805/805 806/806 807/807 808/808
v 0.500000 0.397990 0.302010
v 0.500000 0.406475 0.293525
v 0.500000 0.409990 0.302010
vt 0.000000 0.000000
vt 1.000000 0.000000
vt 1.000000 1.000000
f 809/809 810/810 811/811
v 0.519200 0.397990 0.302010
v 0.519200 0.409990 0.302010
v 0.519200 0.406475 0.293525
vt 0.000000 0.000000
vt 1.000000 0.000000
vt 1.000000 1.000000
f 812/812 813/813 814/814
v 0.500000 0.406475 0.293525
v 0.500000 0.397990 0.290010
v 0.519200 0.397990 0.290010
v 0.519200 0.406475 0.293525
vt 0.375000 0.000000
vt 0.500000 0.000000
vt 0.500000 1.000000
vt 0.375000 1.000000
f 815/815 816/816 817/817 818/818
v 0.500000 0.397990 0.302010
v 0.500000 0.397990 0.290010
v 0.500000 0.406475 0.293525
vt 0.000000 0.000000
vt 1.000000 0.000000
vt 1.000000 1.000000
f 819/819 820/820 821/821
v 0.519200 0.397990 0.302010
v 0.519200 0.406475 0.293525
v 0.519200 0.397990 0.290010
vt 0.000000 0.000000
vt 1.000000 0.000000
vt 1.000000 1.000000
f 822/822 823/823 824/824
v 0.500000 0.397990 0.290010
v 0.500000 0.389505 0.293525
v 0.519200 0.389505 0.293525
v 0.519200 0.397990 0.290010
vt 0.500000 0.000000
vt 0.625000 0.000000
vt 0.625000 1.000000
vt 0.500000 1.000000
f 825/825 826/826 827/827 828/828
v 0.500000 0.397990 0.302010
v 0.500000 0.389505 0.293525
v 0.500000 0.397990 0.290010
vt 0.000000 0.000000
vt 1.000000 0.000000
vt 1.000000 1.000000
f 829/829 830/830 831/831
v 0.519200 0.397990 0.302010
v 0.519200 0.397990 0.290010
v 0.519200 0.389505 0.293525
vt 0.000000 0.000000
vt 1.000000 0.000000
vt 1.000000 1.000000
f 832/832 833/833 834/834
v 0.500000 0.389505 0.293525
v 0.500000 0.385990 0.302010
v 0.519200 0.385990 0.302010
v 0.519200 0.389505 0.293525
vt 0.625000 0.000000
vt 0.750000 0.000000
vt 0.750000 1.000000
vt 0.625000 1.000000
f 835/835 836/836 837/837 838/838
v 0.500000 0.397990 0.302010
v 0.500000 0.385990 0.302010
v 0.500000 0.389505 0.293525
vt 0.000000 0.000000
vt 1.000000 0.000000
vt 1.000000 1.000000
f 839/839 840/840 841/841
v 0.519200 0.397990 0.302010
v 0.519200 0.389505 0.293525
v 0.519200 0.385990 0.302010
vt 0.000000 0.000000
vt 1.000000 0.000000
vt 1.000000 1.000000
f 842/842 843/843 844/844
v 0.500000 0.385990 0.302010
v 0.500000 0.389505 0.310495
v 0.519200 0.389505 0.310495
v 0.519200 0.385990 0.302010
vt 0.750000 0.000000
vt 0.875000 0.000000
vt 0.875000 1.000000
vt 0.750000 1.000000
f 845/845 846/846 847/847 848/848
v 0.500000 0.397990 0.302010
v 0.500000 0.389505 0.310495
v 0.500000 0.385990 0.302010
vt 0.000000 0.000000
vt 1.000000 0.000000
vt 1.000000 1.000000
f 849/849 850/850 851/851
v 0.519200 0.397990 0.302010
v 0.519200 0.385990 0.302010
v 0.519200 0.389505 0.310495
vt 0.000000 0.000000
vt 1.000000 0.000000
vt 1.000000 1.000000
f 852/852 853/853 854/854
v 0.500000 0.389505 0.310495
v 0.500000 0.397990 0.314010
v 0.519200 0.397990 0.314010
v 0.519200 0.389505 0.310495
vt 0.875000 0.000000
vt 1.000000 0.000000
vt 1.000000 1.000000
vt 0.875000 1.000000
f 855/855 856/856 857/857 858/858
v 0.500000 0.397990 0.302010
v 0.500000 0.397990 0.314010
v 0.500000 0.389505 0.310495
vt 0.000000 0.000000
vt 1.000000 0.000000
vt 1.000000 1.000000
f 859/859 860/860 861/861
v 0.519200 0.397990 0.302010
v 0.519200 0.389505 0.310495
v 0.519200 0.397990 0.314010
vt 0.000000 0.000000
vt 1.000000 0.000000
vt 1.000000 1.000000
f 862/862 863/863 864/864
v 0.500000 0.200000 0.232000
v 0.500000 0.208485 0.228485
v 0.519200 0.208485 0.228485
v 0.519200 0.200000 0.232000
vt 0.000000 0.000000
vt 0.125000 0.000000
vt 0.125000 1.000000
vt 0.000000 1.000000
f 865/865 866/866 867/867 868/868
v 0.500000 0.200000 0.220000
v 0.500000 0.208485 0.228485
v 0.500000 0.200000 0.232000
vt 0.000000 0.000000
vt 1.000000 0.000000
vt 1.000000 1.000000
f 869/869 870/870 871/871
v 0.519200 0.200000 0.220000
v 0.519200 0.200000 0.232000
v 0.519200 0.208485 0.228485
vt 0.000000 0.000000
vt 1.000000 0.000000
vt 1.000000 1.000000
f 872/872 873/873 874/874
v 0.500000 0.208485 0.228485
v 0.500000 0.212000 0.220000
v 0.519200 0.212000 0.220000
v 0.519200 0.208485 0.228485
vt 0.125000 0.000000
vt 0.250000 0.000000
vt 0.250000 1.000000
vt 0.125000 1.000000
f 875/875 876/876 877/877 878/878
v 0.500000 0.200000 0.220000
v 0.500000 0.212000 0.220000
v 0.500000 0.208485 0.228485
vt 0.000000 0.000000
vt 1.000000 0.000000
vt 1.000000 1.000000
f 879/879 880/880 881/881
v 0.519200 0.200000 0.220000
v 0.519200 0.208485 0.228485
v 0.519200 0.212000 0.220000
vt 0.000000 0.000000
vt 1.000000 0.000000
vt 1.000000 1.000000
f 882/882 883/883 884/884
v 0.500000 0.212000 0.220000
v 0.500000 0.208485 0.211515
v 0.519200 0.208485 0.211515
v 0.519200 0.212000 0.220000
vt 0.250000 0.000000
vt 0.375000 0.000000
vt 0.375000 1.000000
vt 0.250000 1.000000
f 885/885 886/886 887/887 888/888
v 0.500000 0.200000 0.220000
v 0.500000 0.208485 0.211515
v 0.500000 0.212000 0.220000
vt 0.000000 0.000000
vt 1.000000 0.000000
vt 1.000000 1.000000
f 889/889 890/890 891/891
v 0.519200 0.200000 0.220000
v 0.519200 0.212000 0.220000
v 0.519200 0.208485 0.211515
vt 0.000000 0.000000
vt 1.000000 0.000000
vt 1.000000 1.000000
f 892/892 893/893 894/894
v 0.500000 0.208485 0.211515
v 0.500000 0.200000 0.208000
v 0.519200 0.200000 0.208000
v 0.519200 0.208485 0.211515
vt 0.375000 0.000000
vt 0.500000 0.000000
vt 0.500000 1.000000
vt 0.375000 1.000000
f 895/895 896/896 897/897 898/898
v 0.500000 0.200000 0.220000
v 0.500000 0.200000 0.208000
v 0.500000 0.208485 0.211515
vt 0.000000 0.000000
vt 1.000000 0.000000
vt 1.000000 1.000000
f 899/899 900/900 901/901
v 0.519200 0.200000 0.220000
v 0.519200 0.208485 0.211515
v 0.519200 0.200000 0.208000
vt 0.000000 0.000000
vt 1.000000 0.000000
vt 1.000000 1.000000
f 902/902 903/903 904/904
v 0.500000 0.200000 0.208000
v 0.500000 0.191515 0.211515
v 0.519200 0.191515 0.211515
v 0.519200 0.200000 0.208000
vt 0.500000 0.000000
vt 0.625000 0.000000
vt 0.625000 1.000000
vt 0.500000 1.000000
f 905/905 906/906 907/907 908/908
v 0.500000 0.200000 0.220000
v 0.500000 0.191515 0.211515
v 0.500000 0.200000 0.208000
vt 0.000000 0.000000
vt 1.000000 0.000000
vt 1.000000 1.000000
f 909/909 910/910 911/911
v 0.519200 0.200000 0.220000
v 0.519200 0.200000 0.208000
v 0.519200 0.191515 0.211515
vt 0.000000 0.000000
vt 1.000000 0.000000
vt 1.000000 1.000000
f 912/912 913/913 914/914
v 0.500000 0.191515 0.211515
v 0.500000 0.188000 0.220000
v 0.519200 0.188000 0.220000
v 0.519200 0.191515 0.211515
vt 0.625000 0.000000
vt 0.750000 0.000000
vt 0.750000 1.000000
vt 0.625000 1.000000
f 915/915 916/916 917/917 918/918
v 0.500000 0.200000 0.220000
v 0.500000 0.188000 0.220000
v 0.500000 0.191515 0.211515
vt 0.000000 0.000000
vt 1.000000 0.000000
vt 1.000000 1.000000
f 919/919 920/920 921/921
v 0.519200 0.200000 0.220000
v 0.519200 0.191515 0.211515
v 0.519200 0.188000 0.220000
vt 0.000000 0.000000
vt 1.000000 0.000000
vt 1.000000 1.000000
f 922/922 923/923 924/924
v 0.500000 0.188000 0.220000
v 0.500000 0.191515 0.228485
v 0.519200 0.191515 0.228485
v 0.519200 0.188000 0.220000
vt 0.750000 0.000000
vt 0.875000 0.000000
vt 0.875000 1.000000
vt 0.750000 1.000000
f 925/925 926/926 927/927 928/928
v 0.500000 0.200000 0.220000
v 0.500000 0.191515 0.228485
v 0.500000 0.188000 0.220000
vt 0.000000 0.000000
vt 1.000000 0.000000
vt 1.000000 1.000000
f 929/929 930/930 931/931
v 0.519200 0.200000 0.220000
v 0.519200 0.188000 0.220000
v 0.519200 0.191515 0.228485
vt 0.000000 0.000000
vt 1.000000 0.000000
vt 1.000000 1.000000
f 932/932 933/933 934/934
v 0.500000 0.191515 0.228485
v 0.500000 0.200000 0.232000
v 0.519200 0.200000 0.232000
v 0.519200 0.191515 0.228485
vt 0.875000 0.000000
vt 1.000000 0.000000
vt 1.000000 1.000000
vt 0.875000 1.000000
f 935/935 936/936 937/937 938/938
v 0.500000 0.200000 0.220000
v 0.500000 0.200000 0.232000
v 0.500000 0.191515 0.228485
vt 0.000000 0.000000
vt 1.000000 0.000000
vt 1.000000 1.000000
f 939/939 940/940 941/941
v 0.519200 0.200000 0.220000
v 0.519200 0.191515 0.228485
v 0.519200 0.200000 0.232000
vt 0.000000 0.000000
vt 1.000000 0.000000
vt 1.000000 1.000000
f 942/942 943/943 944/944
v 0.500000 0.002010 0.314010
v 0.500000 0.010495 0.310495
v 0.519200 0.010495 0.310495
v 0.519200 0.002010 0.314010
vt 0.000000 0.000000
vt 0.125000 0.000000
vt 0.125000 1.000000
vt 0.000000 1.000000
f 945/945 946/946 947/947 948/948
v 0.500000 0.002010 0.302010
v 0.500000 0.010495 0.310495
v 0.500000 0.002010 0.314010
vt 0.000000 0.000000
vt 1.000000 0.000000
vt 1.000000 1.000000
f 949/949 950/950 951/951
v 0.519200 0.002010 0.302010
v 0.519200 0.002010 0.314010
v 0.519200 0.010495 0.310495
vt 0.000000 0.000000
vt 1.000000 0.000000
vt 1.000000 1.000000
f 952/952 953/953 954/954
v 0.500000 0.010495 0.310495
v 0.500000 0.014010 0.302010
v 0.519200 0.014010 0.302010
v 0.519200 0.010495 0.310495
vt 0.125000 0.000000
vt 0.250000 0.000000
vt 0.250000 1.000000
vt 0.125000 1.000000
f 955/955 956/956 957/957 958/958
v 0.500000 0.002010 0.302010
v 0.500000 0.014010 0.302010
v 0.500000 0.010495 0.310495
vt 0.000000 0.000000
vt 1.000000 0.000000
vt 1.000000 1.000000
f 959/959 960/960 961/961
v 0.519200 0.002010 0.302010
v 0.519200 0.010495 0.310495
v 0.519200 0.014010 0.302010
vt 0.000000 0.000000
vt 1.000000 0.000000
vt 1.000000 1.000000
f 962/962 963/963 964/964
v 0.500000 0.014010 0.302010
v 0.500000 0.010495 0.293525
v 0.519200 0.010495 0.293525
v 0.519200 0.014010 0.302010
vt 0.250000 0.000000
vt 0.375000 0.000000
vt 0.375000 1.000000
vt 0.250000 1.000000
f 965/965 966/966 967/967 968/968
v 0.500000 0.002010 0.302010
v 0.500000 0.010495 0.293525
v 0.500000 0.014010 0.302010
vt 0.000000 0.000000
vt 1.000000 0.000000
vt 1.000000 1.000000
f 969/969 970/970 971/971
v 0.519200 0.002010 0.302010
v 0.519200 0.014010 0.302010
v 0.519200 0.010495 0.293525
vt 0.000000 0.000000
vt 1.000000 0.000000
vt 1.000000 1.000000
f 972/972 973/973 974/974
v 0.500000 0.010495 0.293525
v 0.500000 0.002010 0.290010
v 0.519200 0.002010 0.290010
v 0.519200 0.010495 0.293525
vt 0.375000 0.000000
vt 0.500000 0.000000
vt 0.500000 1.000000
vt 0.375000 1.000000
f 975/975 976/976 977/977 978/978
v 0.500000 0.002010 0.302010
v 0.500000 0.002010 0.290010
v 0.500000 0.010495 0.293525
vt 0.000000 0.000000
vt 1.000000 0.000000
vt 1.000000 1.000000
f 979/979 980/980 981/981
v 0.519200 0.002010 0.302010
v 0.519200 0.010495 0.293525
v 0.519200 0.002010 0.290010
vt 0.000000 0.000000
vt 1.000000 0.000000
vt 1.000000 1.000000
f 982/982 983/983 984/984
v 0.500000 0.002010 0.290010
v 0.500000 -0.006475 0.293525
v 0.519200 -0.006475 0.293525
v 0.519200 0.002010 0.290010
vt 0.500000 0.000000
vt 0.625000 0.000000
vt 0.625000 1.000000
vt 0.500000 1.000000
f 985/985 986/986 987/987 988/988
v 0.500000 0.002010 0.302010
v 0.500000 -0.006475 0.293525
v 0.500000 0.002010 0.290010
vt 0.000000 0.000000
vt 1.000000 0.000000
vt 1.000000 1.000000
f 989/989 990/990 991/991
v 0.519200 0.002010 0.302010
v 0.519200 0.002010 0.290010
v 0.519200 -0.006475 0.293525
vt 0.000000 0.000000
vt 1.000000 0.000000
vt 1.000000 1.000000
f 992/992 993/993 994/994
v 0.500000 -0.006475 0.293525
v 0.500000 -0.009990 0.302010
v 0.519200 -0.009990 0.302010
v 0.519200 -0.006475 0.293525
vt 0.625000 0.000000
vt 0.750000 0.000000
vt 0.750000 1.000000
vt 0.625000 1.000000
f 995/995 996/996 997/997 998/998
v 0.500000 0.002010 0.302010
v 0.500000 -0.009990 0.302010
v 0.500000 -0.006475 0.293525
vt 0.000000 0.000000
vt 1.000000 0.000000
vt 1.000000 1.000000
f 999/999 1000/1000 1001/1001
v 0.519200 0.002010 0.302010
v 0.519200 -0.006475 0.293525
v 0.519200 -0.009990 0.302010
vt 0.000000 0.000000
vt 1.000000 0.000000
vt 1.000000 1.000000
f 1002/1002 1003/1003 1004/1004
v 0.500000 -0.009990 0.302010
v 0.500000 -0.006475 0.310495
v 0.519200 -0.006475 0.310495
v 0.519200 -0.009990 0.302010
vt 0.750000 0.000000
vt 0.875000 0.000000
vt 0.875000 1.000000
vt 0.750000 1.000000
f 1005/1005 1006/1006 1007/1007 1008/1008
v 0.500000 0.002010 0.302010
v 0.500000 -0.006475 0.310495
v 0.500000 -0.009990 0.302010
vt 0.000000 0.000000
vt 1.000000 0.000000
vt 1.000000 1.000000
f 1009/1009 1010/1010 1011/1011
v 0.519200 0.002010 0.302010
v 0.519200 -0.009990 0.302010
v 0.519200 -0.006475 0.310495
vt 0.000000 0.000000
vt 1.000000 0.000000
vt 1.000000 1.000000
f 1012/1012 1013/1013 1014/1014
v 0.500000 -0.006475 0.310495
v 0.500000 0.002010 0.314010
v 0.519200 0.002010 0.314010
v 0.519200 -0.006475 0.310495
vt 0.875000 0.000000
vt 1.000000 0.000000
vt 1.000000 1.000000
vt 0.875000 1.000000
f 1015/1015 1016/1016 1017/1017 1018/1018
v 0.500000 0.002010 0.302010
v 0.500000 0.002010 0.314010
v 0.500000 -0.006475 0.310495
vt 0.000000 0.000000
vt 1.000000 0.000000
vt 1.000000 1.000000
f 1019/1019 1020/1020 1021/1021
v 0.519200 0.002010 0.302010
v 0.519200 -0.006475 0.310495
v 0.519200 0.002010 0.314010
vt 0.000000 0.000000
vt 1.000000 0.000000
vt 1.000000 1.000000
f 1022/1022 1023/1023 1024/1024
v 0.500000 -0.080000 0.512000
v 0.500000 -0.071515 0.508485
v 0.519200 -0.071515 0.508485
v 0.519200 -0.080000 0.512000
vt 0.000000 0.000000
vt 0.125000 0.000000
vt 0.125000 1.000000
vt 0.000000 1.000000
f 1025/1025 1026/1026 1027/1027 1028/1028
v 0.500000 -0.080000 0.500000
v 0.500000 -0.071515 0.508485
v 0.500000 -0.080000 0.512000
vt 0.000000 0.000000
vt 1.000000 0.000000
vt 1.000000 1.000000
f 1029/1029 1030/1030 1031/1031
v 0.519200 -0.080000 0.500000
v 0.519200 -0.080000 0.512000
v 0.519200 -0.071515 0.508485
vt 0.000000 0.000000
vt 1.000000 0.000000
vt 1.000000 1.000000
f 1032/1032 1033/1033 1034/1034
v 0.500000 -0.071515 0.508485
v 0.500000 -0.068000 0.500000
v 0.519200 -0.068000 0.500000
v 0.519200 -0.071515 0.508485
vt 0.125000 0.000000
vt 0.250000 0.000000
vt 0.250000 1.000000
vt 0.125000 1.000000
f 1035/1035 1036/1036 1037/1037 1038/1038
v 0.500000 -0.080000 0.500000
v 0.500000 -0.068000 0.500000
v 0.500000 -0.071515 0.508485
vt 0.000000 0.000000
vt 1.000000 0.000000
vt 1.000000 1.000000
f 1039/1039 1040/1040 1041/1041
v 0.519200 -0.080000 0.500000
v 0.519200 -0.071515 0.508485
v 0.519200 -0.068000 0.500000
vt 0.000000 0.000000
vt 1.000000 0.000000
vt 1.000000 1.000000
f 1042/1042 1043/1043 1044/1044
v 0.500000 -0.068000 0.500000
v 0.500000 -0.071515 0.491515
v 0.519200 -0.071515 0.491515
v 0.519200 -0.068000 0.500000
vt 0.250000 0.000000
vt 0.375000 0.000000
vt 0.375000 1.000000
vt 0.250000 1.000000
f 1045/1045 1046/1046 1047/1047 1048/1048
v 0.500000 -0.080000 0.500000
v 0.500000 -0.071515 0.491515
v 0.500000 -0.068000 0.500000
vt 0.000000 0.000000
vt 1.000000 0.000000
vt 1.000000 1.000000
f 1049/1049 1050/1050 1051/1051
v 0.519200 -0.080000 0.500000
v 0.519200 -0.068000 0.500000
v 0.519200 -0.071515 0.491515
vt 0.000000 0.000000
vt 1.000000 0.000000
vt 1.000000 1.000000
f 1052/1052 1053/1053 1054/1054
v 0.500000 -0.071515 0.491515
v 0.500000 -0.080000 0.488000
v 0.519200 -0.080000 0.488000
v 0.519200 -0.071515 0.491515
vt 0.375000 0.000000
vt 0.500000 0.000000
vt 0.500000 1.000000
vt 0.375000 1.000000
f 1055/1055 1056/1056 1057/1057 1058/1058
v 0.500000 -0.080000 0.500000
v 0.500000 -0.080000 0.488000
v 0.500000 -0.071515 0.491515
vt 0.000000 0.000000
vt 1.000000 0.000000
vt 1.000000 1.000000
f 1059/1059 1060/1060 1061/1061
v 0.519200 -0.080000 0.500000
v 0.519200 -0.071515 0.491515
v 0.519200 -0.080000 0.488000
vt 0.000000 0.000000
vt 1.000000 0.000000
vt 1.000000 1.000000
f 1062/1062 1063/1063 1064/1064
v 0.500000 -0.080000 0.488000
v 0.500000 -0.088485 0.491515
v 0.519200 -0.088485 0.491515
v 0.519200 -0.080000 0.488000
vt 0.500000 0.000000
vt 0.625000 0.000000
vt 0.625000 1.000000
vt 0.500000 1.000000
f 1065/1065 1066/1066 1067/1067 1068/1068
v 0.500000 -0.080000 0.500000
v 0.500000 -0.088485 0.491515
v 0.500000 -0.080000 0.488000
vt 0.000000 0.000000
vt 1.000000 0.000000
vt 1.000000 1.000000
f 1069/1069 1070/1070 1071/1071
v 0.519200 -0.080000 0.500000
v 0.519200 -0.080000 0.488000
v 0.519200 -0.088485 0.491515
vt 0.000000 0.000000
vt 1.000000 0.000000
vt 1.000000 1.000000
f 1072/1072 1073/1073 1074/1074
v 0.500000 -0.088485 0.491515
v 0.500000 -0.092000 0.500000
v 0.519200 -0.092000 0.500000
v 0.519200 -0.088485 0.491515
vt 0.625000 0.000000
vt 0.750000 0.000000
vt 0.750000 1.000000
vt 0.625000 1.000000
f 1075/1075 1076/1076 1077/1077 1078/1078
v 0.500000 -0.080000 0.500000
v 0.500000 -0.092000 0.500000
v 0.500000 -0.088485 0.491515
vt 0.000000 0.000000
vt 1.000000 0.000000
vt 1.000000 1.000000
f 1079/1079 1080/1080 1081/1081
v 0.519200 -0.080000 0.500000
v 0.519200 -0.088485 0.491515
v 0.519200 -0.092000 0.500000
vt 0.000000 0.000000
vt 1.000000 0.000000
vt 1.000000 1.000000
f 1082/1082 1083/1083 1084/1084
v 0.500000 -0.092000 0.500000
v 0.500000 -0.088485 0.508485
v 0.519200 -0.088485 0.508485
v 0.519200 -0.092000 0.500000
vt 0.750000 0.000000
vt 0.875000 0.000000
vt 0.875000 1.000000
vt 0.750000 1.000000
f 1085/1085 1086/1086 1087/1087 1088/1088
v 0.500000 -0.080000 0.500000
v 0.500000 -0.088485 0.508485
v 0.500000 -0.092000 0.500000
vt 0.000000 0.000000
vt 1.000000 0.000000
vt 1.000000 1.000000
f 1089/1089 1090/1090 1091/1091
v 0.519200 -0.080000 0.500000
v 0.519200 -0.092000 0.500000
v 0.519200 -0.088485 0.508485
vt 0.000000 0.000000
vt 1.000000 0.000000
vt 1.000000 1.000000
f 1092/1092 1093/1093 1094/1094
v 0.500000 -0.088485 0.508485
v 0.500000 -0.080000 0.512000
v 0.519200 -0.080000 0.512000
v 0.519200 -0.088485 0.508485
vt 0.875000 0.000000
vt 1.000000 0.000000
vt 1.000000 1.000000
vt 0.875000 1.000000
f 1095/1095 1096/1096 1097/1097 1098/1098
v 0.500000 -0.080000 0.500000
v 0.500000 -0.080000 0.512000
v 0.500000 -0.088485 0.508485
vt 0.000000 0.000000
vt 1.000000 0.000000
vt 1.000000 1.000000
f 1099/1099 1100/1100 1101/1101
v 0.519200 -0.080000 0.500000
v 0.519200 -0.088485 0.508485
v 0.519200 -0.080000 0.512000
vt 0.000000 0.000000
vt 1.000000 0.000000
vt 1.000000 1.000000
f 1102/1102 1103/1103 1104/1104
v 0.500000 0.002010 0.709990
v 0.500000 0.010495 0.706475
v 0.519200 0.010495 0.706475
v 0.519200 0.002010 0.709990
vt 0.000000 0.000000
vt 0.125000 0.000000
vt 0.125000 1.000000
vt 0.000000 1.000000
f 1105/1105 1106/1106 1107/1107 1108/1108
v 0.500000 0.002010 0.697990
v 0.500000 0.010495 0.706475
v 0.500000 0.002010 0.709990
vt 0.000000 0.000000
vt 1.000000 0.000000
vt 1.000000 1.000000
f 1109/1109 1110/1110 1111/1111
v 0.519200 0.002010 0.697990
v 0.519200 0.002010 0.709990
v 0.519200 0.010495 0.706475
vt 0.000000 0.000000
vt 1.000000 0.000000
vt 1.000000 1.000000
f 1112/1112 1113/1113 1114/1114
v 0.500000 0.010495 0.706475
v 0.500000 0.014010 0.697990
v 0.519200 0.014010 0.697990
v 0.519200 0.010495 0.706475
vt 0.125000 0.000000
vt 0.250000 0.000000
vt 0.250000 1.000000
vt 0.125000 1.000000
f 1115/1115 1116/1116 1117/1117 1118/1118
v 0.500000 0.002010 0.697990
v 0.500000 0.014010 0.697990
v 0.500000 0.010495 0.706475
vt 0.000000 0.000000
vt 1.000000 0.000000
vt 1.000000 1.000000
f 1119/1119 1120/1120 1121/1121
v 0.519200 0.002010 0.697990
v 0.519200 0.010495 0.706475
v 0.519200 0.014010 0.697990
vt 0.000000 0.000000
vt 1.000000 0.000000
vt 1.000000 1.000000
f 1122/1122 1123/1123 1124/1124
v 0.500000 0.014010 0.697990
v 0.500000 0.010495 0.689505
v 0.519200 0.010495 0.689505
v 0.519200 0.014010 0.697990
vt 0.250000 0.000000
vt 0.375000 0.000000
vt 0.375000 1.000000
vt 0.250000 1.000000
f 1125/1125 1126/1126 1127/1127 1128/1128
v 0.500000 0.002010 0.697990
v 0.500000 0.010495 0.689505
v 0.500000 0.014010 0.697990
vt 0.000000 0.000000
vt 1.000000 0.000000
vt 1.000000 1.000000
f 1129/1129 1130/1130 1131/1131
v 0.519200 0.002010 0.697990
v 0.519200 0.014010 0.697990
v 0.519200 0.010495 0.689505
vt 0.000000 0.000000
vt 1.000000 0.000000
vt 1.000000 1.000000
f 1132/1132 1133/1133 1134/1134
v 0.500000 0.010495 0.689505
v 0.500000 0.002010 0.685990
v 0.519200 0.002010 0.685990
v 0.519200 0.010495 0.689505
vt 0.375000 0.000000
vt 0.500000 0.000000
vt 0.500000 1.000000
vt 0.375000 1.000000
f 1135/1135 1136/1136 1137/1137 1138/1138
v 0.500000 0.002010 0.697990
v 0.500000 0.002010 0.685990
v 0.500000 0.010495 0.689505
vt 0.000000 0.000000
vt 1.000000 0.000000
vt 1.000000 1.000000
f 1139/1139 1140/1140 1141/1141
v 0.519200 0.002010 0.697990
v 0.519200 0.010495 0.689505
v 0.519200 0.002010 0.685990
vt 0.000000 0.000000
vt 1.000000 0.000000
vt 1.000000 1.000000
f 1142/1142 1143/1143 1144/1144
v 0.500000 0.002010 0.685990
v 0.500000 -0.006475 0.689505
v 0.519200 -0.006475 0.689505
v 0.519200 0.002010 0.685990
vt 0.500000 0.000000
vt 0.625000 0.000000
vt 0.625000 1.000000
vt 0.500000 1.000000
f 1145/1145 1146/1146 1147/1147 1148/1148
v 0.500000 0.002010 0.697990
v 0.500000 -0.006475 0.689505
v 0.500000 0.002010 0.685990
vt 0.000000 0.000000
vt 1.000000 0.000000
vt 1.000000 1.000000
f 1149/1149 1150/1150 1151/1151
v 0.519200 0.002010 0.697990
v 0.519200 0.002010 0.685990
v 0.519200 -0.006475 0.689505
vt 0.000000 0.000000
vt 1.000000 0.000000
vt 1.000000 1.000000
f 1152/1152 1153/1153 1154/1154
v 0.500000 -0.006475 0.689505
v 0.500000 -0.009990 0.697990
v 0.519200 -0.009990 0.697990
v 0.519200 -0.006475 0.689505
vt 0.625000 0.000000
vt 0.750000 0.000000
vt 0.750000 1.000000
vt 0.625000 1.000000
f 1155/1155 1156/1156 1157/1157 1158/1158
v 0.500000 0.002010 0.697990
v 0.500000 -0.009990 0.697990
v 0.500000 -0.006475 0.689505
vt 0.000000 0.000000
vt 1.000000 0.000000
vt 1.000000 1.000000
f 1159/1159 1160/1160 1161/1161
v 0.519200 0.002010 0.697990
v 0.519200 -0.006475 0.689505
v 0.519200 -0.009990 0.697990
vt 0.000000 0.000000
vt 1.000000 0.000000
vt 1.000000 1.000000
f 1162/1162 1163/1163 1164/1164
v 0.500000 -0.009990 0.697990
v 0.500000 -0.006475 0.706475
v 0.519200 -0.006475 0.706475
v 0.519200 -0.009990 0.697990
vt 0.750000 0.000000
vt 0.875000 0.000000
vt 0.875000 1.000000
vt 0.750000 1.000000
f 1165/1165 1166/1166 1167/1167 1168/1168
v 0.500000 0.002010 0.697990
v 0.500000 -0.006475 0.706475
v 0.500000 -0.009990 0.697990
vt 0.000000 0.000000
vt 1.000000 0.000000
vt 1.000000 1.000000
f 1169/1169 1170/1170 1171/1171
v 0.519200 0.002010 0.697990
v 0.519200 -0.009990 0.697990
v 0.519200 -0.006475 0.706475
vt 0.000000 0.000000
vt 1.000000 0.000000
vt 1.000000 1.000000
f 1172/1172 1173/1173 1174/1174
v 0.500000 -0.006475 0.706475
v 0.500000 0.002010 0.709990
v 0.519200 0.002010 0.709990
v 0.519200 -0.006475 0.706475
vt 0.875000 0.000000
vt 1.000000 0.000000
vt 1.000000 1.000000
vt 0.875000 1.000000
f 1175/1175 1176/1176 1177/1177 1178/1178
v 0.500000 0.002010 0.697990
v 0.500000 0.002010 0.709990
v 0.500000 -0.006475 0.706475
vt 0.000000 0.000000
vt 1.000000 0.000000
vt 1.000000 1.000000
f 1179/1179 1180/1180 1181/1181
v 0.519200 0.002010 0.697990
v 0.519200 -0.006475 0.706475
v 0.519200 0.002010 0.709990
vt 0.000000 0.000000
vt 1.000000 0.000000
vt 1.000000 1.000000
f 1182/1182 1183/1183 1184/1184
