mtllib srbm.mtl
o srbm
s 1
usemtl dark
v 0.000000 -1.890000 -0.990000
v 0.305927 -1.890000 -0.941546
v 0.203951 -1.674000 -0.627697
v 0.000000 -1.674000 -0.660000
vt 0.000000 0.000000
vt 0.050000 0.000000
vt 0.050000 1.000000
vt 0.000000 1.000000
f 1/1 2/2 3/3 4/4
v 0.000000 -1.890000 0.000000
v 0.305927 -1.890000 -0.941546
v 0.000000 -1.890000 -0.990000
vt 0.000000 0.000000
vt 1.000000 0.000000
vt 1.000000 1.000000
f 5/5 6/6 7/7
v 0.000000 -1.674000 0.000000
v 0.000000 -1.674000 -0.660000
v 0.203951 -1.674000 -0.627697
vt 0.000000 0.000000
vt 1.000000 0.000000
vt 1.000000 1.000000
f 8/8 9/9 10/10
v 0.305927 -1.890000 -0.941546
v 0.581907 -1.890000 -0.800927
v 0.387938 -1.674000 -0.533951
v 0.203951 -1.674000 -0.627697
vt 0.050000 0.000000
vt 0.100000 0.000000
vt 0.100000 1.000000
vt 0.050000 1.000000
f 11/11 12/12 13/13 14/14
v 0.000000 -1.890000 0.000000
v 0.581907 -1.890000 -0.800927
v 0.305927 -1.890000 -0.941546
vt 0.000000 0.000000
vt 1.000000 0.000000
vt 1.000000 1.000000
f 15/15 16/16 17/17
v 0.000000 -1.674000 0.000000
v 0.203951 -1.674000 -0.627697
v 0.387938 -1.674000 -0.533951
vt 0.000000 0.000000
vt 1.000000 0.000000
vt 1.000000 1.000000
f 18/18 19/19 20/20
v 0.581907 -1.890000 -0.800927
v 0.800927 -1.890000 -0.581907
v 0.533951 -1.674000 -0.387938
v 0.387938 -1.674000 -0.533951
vt 0.100000 0.000000
vt 0.150000 0.000000
vt 0.150000 1.000000
vt 0.100000 1.000000
f 21/21 22/22 23/23 24/24
v 0.000000 -1.890000 0.000000
v 0.800927 -1.890000 -0.581907
v 0.581907 -1.890000 -0.800927
vt 0.000000 0.000000
vt 1.000000 0.000000
vt 1.000000 1.000000
f 25/25 26/26 27/27
v 0.000000 -1.674000 0.000000
v 0.387938 -1.674000 -0.533951
v 0.533951 -1.674000 -0.387938
vt 0.000000 0.000000
vt 1.000000 0.000000
vt 1.000000 1.000000
f 28/28 29/29 30/30
v 0.800927 -1.890000 -0.581907
v 0.941546 -1.890000 -0.305927
v 0.627697 -1.674000 -0.203951
v 0.533951 -1.674000 -0.387938
vt 0.150000 0.000000
vt 0.200000 0.000000
vt 0.200000 1.000000
vt 0.150000 1.000000
f 31/31 32/32 33/33 34/34
v 0.000000 -1.890000 0.000000
v 0.941546 -1.890000 -0.305927
v 0.800927 -1.890000 -0.581907
vt 0.000000 0.000000
vt 1.000000 0.000000
vt 1.000000 1.000000
f 35/35 36/36 37/37
v 0.000000 -1.674000 0.000000
v 0.533951 -1.674000 -0.387938
v 0.627697 -1.674000 -0.203951
vt 0.000000 0.000000
vt 1.000000 0.000000
vt 1.000000 1.000000
f 38/38 39/39 40/40
v 0.941546 -1.890000 -0.305927
v 0.990000 -1.890000 -0.000000
v 0.660000 -1.674000 -0.000000
v 0.627697 -1.674000 -0.203951
vt 0.200000 0.000000
vt 0.250000 0.000000
vt 0.250000 1.000000
vt 0.200000 1.000000
f 41/41 42/42 43/43 44/44
v 0.000000 -1.890000 0.000000
v 0.990000 -1.890000 -0.000000
v 0.941546 -1.890000 -0.305927
vt 0.000000 0.000000
vt 1.000000 0.000000
vt 1.000000 1.000000
f 45/45 46/46 47/47
v 0.000000 -1.674000 0.000000
v 0.627697 -1.674000 -0.203951
v 0.660000 -1.674000 -0.000000
vt 0.000000 0.000000
vt 1.000000 0.000000
vt 1.000000 1.000000
f 48/48 49/49 50/50
v 0.990000 -1.890000 -0.000000
v 0.941546 -1.890000 0.305927
v 0.627697 -1.674000 0.203951
v 0.660000 -1.674000 -0.000000
vt 0.250000 0.000000
vt 0.300000 0.000000
vt 0.300000 1.000000
vt 0.250000 1.000000
f 51/51 52/52 53/53 54/54
v 0.000000 -1.890000 0.000000
v 0.941546 -1.890000 0.305927
v 0.990000 -1.890000 -0.000000
vt 0.000000 0.000000
vt 1.000000 0.000000
vt 1.000000 1.000000
f 55/55 56/56 57/57
v 0.000000 -1.674000 0.000000
v 0.660000 -1.674000 -0.000000
v 0.627697 -1.674000 0.203951
vt 0.000000 0.000000
vt 1.000000 0.000000
vt 1.000000 1.000000
f 58/58 59/59 60/60
v 0.941546 -1.890000 0.305927
v 0.800927 -1.890000 0.581907
v 0.533951 -1.674000 0.387938
v 0.627697 -1.674000 0.203951
vt 0.300000 0.000000
vt 0.350000 0.000000
vt 0.350000 1.000000
vt 0.300000 1.000000
f 61/61 62/62 63/63 64/64
v 0.000000 -1.890000 0.000000
v 0.800927 -1.890000 0.581907
v 0.941546 -1.890000 0.305927
vt 0.000000 0.000000
vt 1.000000 0.000000
vt 1.000000 1.000000
f 65/65 66/66 67/67
v 0.000000 -1.674000 0.000000
v 0.627697 -1.674000 0.203951
v 0.533951 -1.674000 0.387938
vt 0.000000 0.000000
vt 1.000000 0.000000
vt 1.000000 1.000000
f 68/68 69/69 70/70
v 0.800927 -1.890000 0.581907
v 0.581907 -1.890000 0.800927
v 0.387938 -1.674000 0.533951
v 0.533951 -1.674000 0.387938
vt 0.350000 0.000000
vt 0.400000 0.000000
vt 0.400000 1.000000
vt 0.350000 1.000000
f 71/71 72/72 73/73 74/74
v 0.000000 -1.890000 0.000000
v 0.581907 -1.890000 0.800927
v 0.800927 -1.890000 0.581907
vt 0.000000 0.000000
vt 1.000000 0.000000
vt 1.000000 1.000000
f 75/75 76/76 77/77
v 0.000000 -1.674000 0.000000
v 0.533951 -1.674000 0.387938
v 0.387938 -1.674000 0.533951
vt 0.000000 0.000000
vt 1.000000 0.000000
vt 1.000000 1.000000
f 78/78 79/79 80/80
v 0.581907 -1.890000 0.800927
v 0.305927 -1.890000 0.941546
v 0.203951 -1.674000 0.627697
v 0.387938 -1.674000 0.533951
vt 0.400000 0.000000
vt 0.450000 0.000000
vt 0.450000 1.000000
vt 0.400000 1.000000
f 81/81 82/82 83/83 84/84
v 0.000000 -1.890000 0.000000
v 0.305927 -1.890000 0.941546
v 0.581907 -1.890000 0.800927
vt 0.000000 0.000000
vt 1.000000 0.000000
vt 1.000000 1.000000
f 85/85 86/86 87/87
v 0.000000 -1.674000 0.000000
v 0.387938 -1.674000 0.533951
v 0.203951 -1.674000 0.627697
vt 0.000000 0.000000
vt 1.000000 0.000000
vt 1.000000 1.000000
f 88/88 89/89 90/90
v 0.305927 -1.890000 0.941546
v 0.000000 -1.890000 0.990000
v 0.000000 -1.674000 0.660000
v 0.203951 -1.674000 0.627697
vt 0.450000 0.000000
vt 0.500000 0.000000
vt 0.500000 1.000000
vt 0.450000 1.000000
f 91/91 92/92 93/93 94/94
v 0.000000 -1.890000 0.000000
v 0.000000 -1.890000 0.990000
v 0.305927 -1.890000 0.941546
vt 0.000000 0.000000
vt 1.000000 0.000000
vt 1.000000 1.000000
f 95/95 96/96 97/97
v 0.000000 -1.674000 0.000000
v 0.203951 -1.674000 0.627697
v 0.000000 -1.674000 0.660000
vt 0.000000 0.000000
vt 1.000000 0.000000
vt 1.000000 1.000000
f 98/98 99/99 100/100
v 0.000000 -1.890000 0.990000
v -0.305927 -1.890000 0.941546
v -0.203951 -1.674000 0.627697
v 0.000000 -1.674000 0.660000
vt 0.500000 0.000000
vt 0.550000 0.000000
vt 0.550000 1.000000
vt 0.500000 1.000000
f 101/101 102/102 103/103 104/104
v 0.000000 -1.890000 0.000000
v -0.305927 -1.890000 0.941546
v 0.000000 -1.890000 0.990000
vt 0.000000 0.000000
vt 1.000000 0.000000
vt 1.000000 1.000000
f 105/105 106/106 107/107
v 0.000000 -1.674000 0.000000
v 0.000000 -1.674000 0.660000
v -0.203951 -1.674000 0.627697
vt 0.000000 0.000000
vt 1.000000 0.000000
vt 1.000000 1.000000
f 108/108 109/109 110/110
v -0.305927 -1.890000 0.941546
v -0.581907 -1.890000 0.800927
v -0.387938 -1.674000 0.533951
v -0.203951 -1.674000 0.627697
vt 0.550000 0.000000
vt 0.600000 0.000000
vt 0.600000 1.000000
vt 0.550000 1.000000
f 111/111 112/112 113/113 114/114
v 0.000000 -1.890000 0.000000
v -0.581907 -1.890000 0.800927
v -0.305927 -1.890000 0.941546
vt 0.000000 0.000000
vt 1.000000 0.000000
vt 1.000000 1.000000
f 115/115 116/116 117/117
v 0.000000 -1.674000 0.000000
v -0.203951 -1.674000 0.627697
v -0.387938 -1.674000 0.533951
vt 0.000000 0.000000
vt 1.000000 0.000000
vt 1.000000 1.000000
f 118/118 119/119 120/120
v -0.581907 -1.890000 0.800927
v -0.800927 -1.890000 0.581907
v -0.533951 -1.674000 0.387938
v -0.387938 -1.674000 0.533951
vt 0.600000 0.000000
vt 0.650000 0.000000
vt 0.650000 1.000000
vt 0.600000 1.000000
f 121/121 122/122 123/123 124/124
v 0.000000 -1.890000 0.000000
v -0.800927 -1.890000 0.581907
v -0.581907 -1.890000 0.800927
vt 0.000000 0.000000
vt 1.000000 0.000000
vt 1.000000 1.000000
f 125/125 126/126 127/127
v 0.000000 -1.674000 0.000000
v -0.387938 -1.674000 0.533951
v -0.533951 -1.674000 0.387938
vt 0.000000 0.000000
vt 1.000000 0.000000
vt 1.000000 1.000000
f 128/128 129/129 130/130
v -0.800927 -1.890000 0.581907
v -0.941546 -1.890000 0.305927
v -0.627697 -1.674000 0.203951
v -0.533951 -1.674000 0.387938
vt 0.650000 0.000000
vt 0.700000 0.000000
vt 0.700000 1.000000
vt 0.650000 1.000000
f 131/131 132/132 133/133 134/134
v 0.000000 -1.890000 0.000000
v -0.941546 -1.890000 0.305927
v -0.800927 -1.890000 0.581907
vt 0.000000 0.000000
vt 1.000000 0.000000
vt 1.000000 1.000000
f 135/135 136/136 137/137
v 0.000000 -1.674000 0.000000
v -0.533951 -1.674000 0.387938
v -0.627697 -1.674000 0.203951
vt 0.000000 0.000000
vt 1.000000 0.000000
vt 1.000000 1.000000
f 138/138 139/139 140/140
v -0.941546 -1.890000 0.305927
v -0.990000 -1.890000 0.000000
v -0.660000 -1.674000 0.000000
v -0.627697 -1.674000 0.203951
vt 0.700000 0.000000
vt 0.750000 0.000000
vt 0.750000 1.000000
vt 0.700000 1.000000
f 141/141 142/142 143/143 144/144
v 0.000000 -1.890000 0.000000
v -0.990000 -1.890000 0.000000
v -0.941546 -1.890000 0.305927
vt 0.000000 0.000000
vt 1.000000 0.000000
vt 1.000000 1.000000
f 145/145 146/146 147/147
v 0.000000 -1.674000 0.000000
v -0.627697 -1.674000 0.203951
v -0.660000 -1.674000 0.000000
vt 0.000000 0.000000
vt 1.000000 0.000000
vt 1.000000 1.000000
f 148/148 149/149 150/150
v -0.990000 -1.890000 0.000000
v -0.941546 -1.890000 -0.305927
v -0.627697 -1.674000 -0.203951
v -0.660000 -1.674000 0.000000
vt 0.750000 0.000000
vt 0.800000 0.000000
vt 0.800000 1.000000
vt 0.750000 1.000000
f 151/151 152/152 153/153 154/154
v 0.000000 -1.890000 0.000000
v -0.941546 -1.890000 -0.305927
v -0.990000 -1.890000 0.000000
vt 0.000000 0.000000
vt 1.000000 0.000000
vt 1.000000 1.000000
f 155/155 156/156 157/157
v 0.000000 -1.674000 0.000000
v -0.660000 -1.674000 0.000000
v -0.627697 -1.674000 -0.203951
vt 0.000000 0.000000
vt 1.000000 0.000000
vt 1.000000 1.000000
f 158/158 159/159 160/160
v -0.941546 -1.890000 -0.305927
v -0.800927 -1.890000 -0.581907
v -0.533951 -1.674000 -0.387938
v -0.627697 -1.674000 -0.203951
vt 0.800000 0.000000
vt 0.850000 0.000000
vt 0.850000 1.000000
vt 0.800000 1.000000
f 161/161 162/162 163/163 164/164
v 0.000000 -1.890000 0.000000
v -0.800927 -1.890000 -0.581907
v -0.941546 -1.890000 -0.305927
vt 0.000000 0.000000
vt 1.000000 0.000000
vt 1.000000 1.000000
f 165/165 166/166 167/167
v 0.000000 -1.674000 0.000000
v -0.627697 -1.674000 -0.203951
v -0.533951 -1.674000 -0.387938
vt 0.000000 0.000000
vt 1.000000 0.000000
vt 1.000000 1.000000
f 168/168 169/169 170/170
v -0.800927 -1.890000 -0.581907
v -0.581907 -1.890000 -0.800927
v -0.387938 -1.674000 -0.533951
v -0.533951 -1.674000 -0.387938
vt 0.850000 0.000000
vt 0.900000 0.000000
vt 0.900000 1.000000
vt 0.850000 1.000000
f 171/171 172/172 173/173 174/174
v 0.000000 -1.890000 0.000000
v -0.581907 -1.890000 -0.800927
v -0.800927 -1.890000 -0.581907
vt 0.000000 0.000000
vt 1.000000 0.000000
vt 1.000000 1.000000
f 175/175 176/176 177/177
v 0.000000 -1.674000 0.000000
v -0.533951 -1.674000 -0.387938
v -0.387938 -1.674000 -0.533951
vt 0.000000 0.000000
vt 1.000000 0.000000
vt 1.000000 1.000000
f 178/178 179/179 180/180
v -0.581907 -1.890000 -0.800927
v -0.305927 -1.890000 -0.941546
v -0.203951 -1.674000 -0.627697
v -0.387938 -1.674000 -0.533951
vt 0.900000 0.000000
vt 0.950000 0.000000
vt 0.950000 1.000000
vt 0.900000 1.000000
f 181/181 182/182 183/183 184/184
v 0.000000 -1.890000 0.000000
v -0.305927 -1.890000 -0.941546
v -0.581907 -1.890000 -0.800927
vt 0.000000 0.000000
vt 1.000000 0.000000
vt 1.000000 1.000000
f 185/185 186/186 187/187
v 0.000000 -1.674000 0.000000
v -0.387938 -1.674000 -0.533951
v -0.203951 -1.674000 -0.627697
vt 0.000000 0.000000
vt 1.000000 0.000000
vt 1.000000 1.000000
f 188/188 189/189 190/190
v -0.305927 -1.890000 -0.941546
v -0.000000 -1.890000 -0.990000
v -0.000000 -1.674000 -0.660000
v -0.203951 -1.674000 -0.627697
vt 0.950000 0.000000
vt 1.000000 0.000000
vt 1.000000 1.000000
vt 0.950000 1.000000
f 191/191 192/192 193/193 194/194
v 0.000000 -1.890000 0.000000
v -0.000000 -1.890000 -0.990000
v -0.305927 -1.890000 -0.941546
vt 0.000000 0.000000
vt 1.000000 0.000000
vt 1.000000 1.000000
f 195/195 196/196 197/197
v 0.000000 -1.674000 0.000000
v -0.203951 -1.674000 -0.627697
v -0.000000 -1.674000 -0.660000
vt 0.000000 0.000000
vt 1.000000 0.000000
vt 1.000000 1.000000
f 198/198 199/199 200/200
usemtl olive
v 0.000000 -1.674000 -1.375000
v 0.305966 -1.674000 -1.340526
v 0.305966 0.756000 -1.340526
v 0.000000 0.756000 -1.375000
vt 0.000000 0.000000
vt 0.035714 0.000000
vt 0.035714 1.000000
vt 0.000000 1.000000
f 201/201 202/202 203/203 204/204
v 0.305966 -1.674000 -1.340526
v 0.596590 -1.674000 -1.238832
v 0.596590 0.756000 -1.238832
v 0.305966 0.756000 -1.340526
vt 0.035714 0.000000
vt 0.071429 0.000000
vt 0.071429 1.000000
vt 0.035714 1.000000
f 205/205 206/206 207/207 208/208
v 0.596590 -1.674000 -1.238832
v 0.857298 -1.674000 -1.075018
v 0.857298 0.756000 -1.075018
v 0.596590 0.756000 -1.238832
vt 0.071429 0.000000
vt 0.107143 0.000000
vt 0.107143 1.000000
vt 0.071429 1.000000
f 209/209 210/210 211/211 212/212
v 0.857298 -1.674000 -1.075018
v 1.075018 -1.674000 -0.857298
v 1.075018 0.756000 -0.857298
v 0.857298 0.756000 -1.075018
vt 0.107143 0.000000
vt 0.142857 0.000000
vt 0.142857 1.000000
vt 0.107143 1.000000
f 213/213 214/214 215/215 216/216
v 1.075018 -1.674000 -0.857298
v 1.238832 -1.674000 -0.596590
v 1.238832 0.756000 -0.596590
v 1.075018 0.756000 -0.857298
vt 0.142857 0.000000
vt 0.178571 0.000000
vt 0.178571 1.000000
vt 0.142857 1.000000
f 217/217 218/218 219/219 220/220
v 1.238832 -1.674000 -0.596590
v 1.340526 -1.674000 -0.305966
v 1.340526 0.756000 -0.305966
v 1.238832 0.756000 -0.596590
vt 0.178571 0.000000
vt 0.214286 0.000000
vt 0.214286 1.000000
vt 0.178571 1.000000
f 221/221 222/222 223/223 224/224
v 1.340526 -1.674000 -0.305966
v 1.375000 -1.674000 -0.000000
v 1.375000 0.756000 -0.000000
v 1.340526 0.756000 -0.305966
vt 0.214286 0.000000
vt 0.250000 0.000000
vt 0.250000 1.000000
vt 0.214286 1.000000
f 225/225 226/226 227/227 228/228
v 1.375000 -1.674000 -0.000000
v 1.340526 -1.674000 0.305966
v 1.340526 0.756000 0.305966
v 1.375000 0.756000 -0.000000
vt 0.250000 0.000000
vt 0.285714 0.000000
vt 0.285714 1.000000
vt 0.250000 1.000000
f 229/229 230/230 231/231 232/232
v 1.340526 -1.674000 0.305966
v 1.238832 -1.674000 0.596590
v 1.238832 0.756000 0.596590
v 1.340526 0.756000 0.305966
vt 0.285714 0.000000
vt 0.321429 0.000000
vt 0.321429 1.000000
vt 0.285714 1.000000
f 233/233 234/234 235/235 236/236
v 1.238832 -1.674000 0.596590
v 1.075018 -1.674000 0.857298
v 1.075018 0.756000 0.857298
v 1.238832 0.756000 0.596590
vt 0.321429 0.000000
vt 0.357143 0.000000
vt 0.357143 1.000000
vt 0.321429 1.000000
f 237/237 238/238 239/239 240/240
v 1.075018 -1.674000 0.857298
v 0.857298 -1.674000 1.075018
v 0.857298 0.756000 1.075018
v 1.075018 0.756000 0.857298
vt 0.357143 0.000000
vt 0.392857 0.000000
vt 0.392857 1.000000
vt 0.357143 1.000000
f 241/241 242/242 243/243 244/244
v 0.857298 -1.674000 1.075018
v 0.596590 -1.674000 1.238832
v 0.596590 0.756000 1.238832
v 0.857298 0.756000 1.075018
vt 0.392857 0.000000
vt 0.428571 0.000000
vt 0.428571 1.000000
vt 0.392857 1.000000
f 245/245 246/246 247/247 248/248
v 0.596590 -1.674000 1.238832
v 0.305966 -1.674000 1.340526
v 0.305966 0.756000 1.340526
v 0.596590 0.756000 1.238832
vt 0.428571 0.000000
vt 0.464286 0.000000
vt 0.464286 1.000000
vt 0.428571 1.000000
f 249/249 250/250 251/251 252/252
v 0.305966 -1.674000 1.340526
v 0.000000 -1.674000 1.375000
v 0.000000 0.756000 1.375000
v 0.305966 0.756000 1.340526
vt 0.464286 0.000000
vt 0.500000 0.000000
vt 0.500000 1.000000
vt 0.464286 1.000000
f 253/253 254/254 255/255 256/256
v 0.000000 -1.674000 1.375000
v -0.305966 -1.674000 1.340526
v -0.305966 0.756000 1.340526
v 0.000000 0.756000 1.375000
vt 0.500000 0.000000
vt 0.535714 0.000000
vt 0.535714 1.000000
vt 0.500000 1.000000
f 257/257 258/258 259/259 260/260
v -0.305966 -1.674000 1.340526
v -0.596590 -1.674000 1.238832
v -0.596590 0.756000 1.238832
v -0.305966 0.756000 1.340526
vt 0.535714 0.000000
vt 0.571429 0.000000
vt 0.571429 1.000000
vt 0.535714 1.000000
f 261/261 262/262 263/263 264/264
v -0.596590 -1.674000 1.238832
v -0.857298 -1.674000 1.075018
v -0.857298 0.756000 1.075018
v -0.596590 0.756000 1.238832
vt 0.571429 0.000000
vt 0.607143 0.000000
vt 0.607143 1.000000
vt 0.571429 1.000000
f 265/265 266/266 267/267 268/268
v -0.857298 -1.674000 1.075018
v -1.075018 -1.674000 0.857298
v -1.075018 0.756000 0.857298
v -0.857298 0.756000 1.075018
vt 0.607143 0.000000
vt 0.642857 0.000000
vt 0.642857 1.000000
vt 0.607143 1.000000
f 269/269 270/270 271/271 272/272
v -1.075018 -1.674000 0.857298
v -1.238832 -1.674000 0.596590
v -1.238832 0.756000 0.596590
v -1.075018 0.756000 0.857298
vt 0.642857 0.000000
vt 0.678571 0.000000
vt 0.678571 1.000000
vt 0.642857 1.000000
f 273/273 274/274 275/275 276/276
v -1.238832 -1.674000 0.596590
v -1.340526 -1.674000 0.305966
v -1.340526 0.756000 0.305966
v -1.238832 0.756000 0.596590
vt 0.678571 0.000000
vt 0.714286 0.000000
vt 0.714286 1.000000
vt 0.678571 1.000000
f 277/277 278/278 279/279 280/280
v -1.340526 -1.674000 0.305966
v -1.375000 -1.674000 0.000000
v -1.375000 0.756000 0.000000
v -1.340526 0.756000 0.305966
vt 0.714286 0.000000
vt 0.750000 0.000000
vt 0.750000 1.000000
vt 0.714286 1.000000
f 281/281 282/282 283/283 284/284
v -1.375000 -1.674000 0.000000
v -1.340526 -1.674000 -0.305966
v -1.340526 0.756000 -0.305966
v -1.375000 0.756000 0.000000
vt 0.750000 0.000000
vt 0.785714 0.000000
vt 0.785714 1.000000
vt 0.750000 1.000000
f 285/285 286/286 287/287 288/288
v -1.340526 -1.674000 -0.305966
v -1.238832 -1.674000 -0.596590
v -1.238832 0.756000 -0.596590
v -1.340526 0.756000 -0.305966
vt 0.785714 0.000000
vt 0.821429 0.000000
vt 0.821429 1.000000
vt 0.785714 1.000000
f 289/289 290/290 291/291 292/292
v -1.238832 -1.674000 -0.596590
v -1.075018 -1.674000 -0.857298
v -1.075018 0.756000 -0.857298
v -1.238832 0.756000 -0.596590
vt 0.821429 0.000000
vt 0.857143 0.000000
vt 0.857143 1.000000
vt 0.821429 1.000000
f 293/293 294/294 295/295 296/296
v -1.075018 -1.674000 -0.857298
v -0.857298 -1.674000 -1.075018
v -0.857298 0.756000 -1.075018
v -1.075018 0.756000 -0.857298
vt 0.857143 0.000000
vt 0.892857 0.000000
vt 0.892857 1.000000
vt 0.857143 1.000000
f 297/297 298/298 299/299 300/300
v -0.857298 -1.674000 -1.075018
v -0.596590 -1.674000 -1.238832
v -0.596590 0.756000 -1.238832
v -0.857298 0.756000 -1.075018
vt 0.892857 0.000000
vt 0.928571 0.000000
vt 0.928571 1.000000
vt 0.892857 1.000000
f 301/301 302/302 303/303 304/304
v -0.596590 -1.674000 -1.238832
v -0.305966 -1.674000 -1.340526
v -0.305966 0.756000 -1.340526
v -0.596590 0.756000 -1.238832
vt 0.928571 0.000000
vt 0.964286 0.000000
vt 0.964286 1.000000
vt 0.928571 1.000000
f 305/305 306/306 307/307 308/308
v -0.305966 -1.674000 -1.340526
v -0.000000 -1.674000 -1.375000
v -0.000000 0.756000 -1.375000
v -0.305966 0.756000 -1.340526
vt 0.964286 0.000000
vt 1.000000 0.000000
vt 1.000000 1.000000
vt 0.964286 1.000000
f 309/309 310/310 311/311 312/312
v 0.000000 0.756000 -1.375000
v 0.424898 0.756000 -1.307703
v 0.305927 1.134000 -0.941546
v 0.000000 1.134000 -0.990000
vt 0.000000 0.000000
vt 0.050000 0.000000
vt 0.050000 1.000000
vt 0.000000 1.000000
f 313/313 314/314 315/315 316/316
v 0.424898 0.756000 -1.307703
v 0.808205 0.756000 -1.112398
v 0.581907 1.134000 -0.800927
v 0.305927 1.134000 -0.941546
vt 0.050000 0.000000
vt 0.100000 0.000000
vt 0.100000 1.000000
vt 0.050000 1.000000
f 317/317 318/318 319/319 320/320
v 0.808205 0.756000 -1.112398
v 1.112398 0.756000 -0.808205
v 0.800927 1.134000 -0.581907
v 0.581907 1.134000 -0.800927
vt 0.100000 0.000000
vt 0.150000 0.000000
vt 0.150000 1.000000
vt 0.100000 1.000000
f 321/321 322/322 323/323 324/324
v 1.112398 0.756000 -0.808205
v 1.307703 0.756000 -0.424898
v 0.941546 1.134000 -0.305927
v 0.800927 1.134000 -0.581907
vt 0.150000 0.000000
vt 0.200000 0.000000
vt 0.200000 1.000000
vt 0.150000 1.000000
f 325/325 326/326 327/327 328/328
v 1.307703 0.756000 -0.424898
v 1.375000 0.756000 -0.000000
v 0.990000 1.134000 -0.000000
v 0.941546 1.134000 -0.305927
vt 0.200000 0.000000
vt 0.250000 0.000000
vt 0.250000 1.000000
vt 0.200000 1.000000
f 329/329 330/330 331/331 332/332
v 1.375000 0.756000 -0.000000
v 1.307703 0.756000 0.424898
v 0.941546 1.134000 0.305927
v 0.990000 1.134000 -0.000000
vt 0.250000 0.000000
vt 0.300000 0.000000
vt 0.300000 1.000000
vt 0.250000 1.000000
f 333/333 334/334 335/335 336/336
v 1.307703 0.756000 0.424898
v 1.112398 0.756000 0.808205
v 0.800927 1.134000 0.581907
v 0.941546 1.134000 0.305927
vt 0.300000 0.000000
vt 0.350000 0.000000
vt 0.350000 1.000000
vt 0.300000 1.000000
f 337/337 338/338 339/339 340/340
v 1.112398 0.756000 0.808205
v 0.808205 0.756000 1.112398
v 0.581907 1.134000 0.800927
v 0.800927 1.134000 0.581907
vt 0.350000 0.000000
vt 0.400000 0.000000
vt 0.400000 1.000000
vt 0.350000 1.000000
f 341/341 342/342 343/343 344/344
v 0.808205 0.756000 1.112398
v 0.424898 0.756000 1.307703
v 0.305927 1.134000 0.941546
v 0.581907 1.134000 0.800927
vt 0.400000 0.000000
vt 0.450000 0.000000
vt 0.450000 1.000000
vt 0.400000 1.000000
f 345/345 346/346 347/347 348/348
v 0.424898 0.756000 1.307703
v 0.000000 0.756000 1.375000
v 0.000000 1.134000 0.990000
v 0.305927 1.134000 0.941546
vt 0.450000 0.000000
vt 0.500000 0.000000
vt 0.500000 1.000000
vt 0.450000 1.000000
f 349/349 350/350 351/351 352/352
v 0.000000 0.756000 1.375000
v -0.424898 0.756000 1.307703
v -0.305927 1.134000 0.941546
v 0.000000 1.134000 0.990000
vt 0.500000 0.000000
vt 0.550000 0.000000
vt 0.550000 1.000000
vt 0.500000 1.000000
f 353/353 354/354 355/355 356/356
v -0.424898 0.756000 1.307703
v -0.808205 0.756000 1.112398
v -0.581907 1.134000 0.800927
v -0.305927 1.134000 0.941546
vt 0.550000 0.000000
vt 0.600000 0.000000
vt 0.600000 1.000000
vt 0.550000 1.000000
f 357/357 358/358 359/359 360/360
v -0.808205 0.756000 1.112398
v -1.112398 0.756000 0.808205
v -0.800927 1.134000 0.581907
v -0.581907 1.134000 0.800927
vt 0.600000 0.000000
vt 0.650000 0.000000
vt 0.650000 1.000000
vt 0.600000 1.000000
f 361/361 362/362 363/363 364/364
v -1.112398 0.756000 0.808205
v -1.307703 0.756000 0.424898
v -0.941546 1.134000 0.305927
v -0.800927 1.134000 0.581907
vt 0.650000 0.000000
vt 0.700000 0.000000
vt 0.700000 1.000000
vt 0.650000 1.000000
f 365/365 366/366 367/367 368/368
v -1.307703 0.756000 0.424898
v -1.375000 0.756000 0.000000
v -0.990000 1.134000 0.000000
v -0.941546 1.134000 0.305927
vt 0.700000 0.000000
vt 0.750000 0.000000
vt 0.750000 1.000000
vt 0.700000 1.000000
f 369/369 370/370 371/371 372/372
v -1.375000 0.756000 0.000000
v -1.307703 0.756000 -0.424898
v -0.941546 1.134000 -0.305927
v -0.990000 1.134000 0.000000
vt 0.750000 0.000000
vt 0.800000 0.000000
vt 0.800000 1.000000
vt 0.750000 1.000000
f 373/373 374/374 375/375 376/376
v -1.307703 0.756000 -0.424898
v -1.112398 0.756000 -0.808205
v -0.800927 1.134000 -0.581907
v -0.941546 1.134000 -0.305927
vt 0.800000 0.000000
vt 0.850000 0.000000
vt 0.850000 1.000000
vt 0.800000 1.000000
f 377/377 378/378 379/379 380/380
v -1.112398 0.756000 -0.808205
v -0.808205 0.756000 -1.112398
v -0.581907 1.134000 -0.800927
v -0.800927 1.134000 -0.581907
vt 0.850000 0.000000
vt 0.900000 0.000000
vt 0.900000 1.000000
vt 0.850000 1.000000
f 381/381 382/382 383/383 384/384
v -0.808205 0.756000 -1.112398
v -0.424898 0.756000 -1.307703
v -0.305927 1.134000 -0.941546
v -0.581907 1.134000 -0.800927
vt 0.900000 0.000000
vt 0.950000 0.000000
vt 0.950000 1.000000
vt 0.900000 1.000000
f 385/385 386/386 387/387 388/388
v -0.424898 0.756000 -1.307703
v -0.000000 0.756000 -1.375000
v -0.000000 1.134000 -0.990000
v -0.305927 1.134000 -0.941546
vt 0.950000 0.000000
vt 1.000000 0.000000
vt 1.000000 1.000000
vt 0.950000 1.000000
f 389/389 390/390 391/391 392/392
usemtl accent
v 0.000000 1.134000 -0.990000
v 0.220296 1.134000 -0.965179
v 0.002448 2.106000 -0.010724
v 0.000000 2.106000 -0.011000
vt 0.000000 0.000000
vt 0.035714 0.000000
vt 0.035714 1.000000
vt 0.000000 1.000000
f 393/393 394/394 395/395 396/396
v 0.000000 1.134000 0.000000
v 0.220296 1.134000 -0.965179
v 0.000000 1.134000 -0.990000
vt 0.000000 0.000000
vt 1.000000 0.000000
vt 1.000000 1.000000
f 397/397 398/398 399/399
v 0.000000 2.106000 0.000000
v 0.000000 2.106000 -0.011000
v 0.002448 2.106000 -0.010724
vt 0.000000 0.000000
vt 1.000000 0.000000
vt 1.000000 1.000000
f 400/400 401/401 402/402
v 0.220296 1.134000 -0.965179
v 0.429545 1.134000 -0.891959
v 0.004773 2.106000 -0.009911
v 0.002448 2.106000 -0.010724
vt 0.035714 0.000000
vt 0.071429 0.000000
vt 0.071429 1.000000
vt 0.035714 1.000000
f 403/403 404/404 405/405 406/406
v 0.000000 1.134000 0.000000
v 0.429545 1.134000 -0.891959
v 0.220296 1.134000 -0.965179
vt 0.000000 0.000000
vt 1.000000 0.000000
vt 1.000000 1.000000
f 407/407 408/408 409/409
v 0.000000 2.106000 0.000000
v 0.002448 2.106000 -0.010724
v 0.004773 2.106000 -0.009911
vt 0.000000 0.000000
vt 1.000000 0.000000
vt 1.000000 1.000000
f 410/410 411/411 412/412
v 0.429545 1.134000 -0.891959
v 0.617255 1.134000 -0.774013
v 0.006858 2.106000 -0.008600
v 0.004773 2.106000 -0.009911
vt 0.071429 0.000000
vt 0.107143 0.000000
vt 0.107143 1.000000
vt 0.071429 1.000000
f 413/413 414/414 415/415 416/416
v 0.000000 1.134000 0.000000
v 0.617255 1.134000 -0.774013
v 0.429545 1.134000 -0.891959
vt 0.000000 0.000000
vt 1.000000 0.000000
vt 1.000000 1.000000
f 417/417 418/418 419/419
v 0.000000 2.106000 0.000000
v 0.004773 2.106000 -0.009911
v 0.006858 2.106000 -0.008600
vt 0.000000 0.000000
vt 1.000000 0.000000
vt 1.000000 1.000000
f 420/420 421/421 422/422
v 0.617255 1.134000 -0.774013
v 0.774013 1.134000 -0.617255
v 0.008600 2.106000 -0.006858
v 0.006858 2.106000 -0.008600
vt 0.107143 0.000000
vt 0.142857 0.000000
vt 0.142857 1.000000
vt 0.107143 1.000000
f 423/423 424/424 425/425 426/426
v 0.000000 1.134000 0.000000
v 0.774013 1.134000 -0.617255
v 0.617255 1.134000 -0.774013
vt 0.000000 0.000000
vt 1.000000 0.000000
vt 1.000000 1.000000
f 427/427 428/428 429/429
v 0.000000 2.106000 0.000000
v 0.006858 2.106000 -0.008600
v 0.008600 2.106000 -0.006858
vt 0.000000 0.000000
vt 1.000000 0.000000
vt 1.000000 1.000000
f 430/430 431/431 432/432
v 0.774013 1.134000 -0.617255
v 0.891959 1.134000 -0.429545
v 0.009911 2.106000 -0.004773
v 0.008600 2.106000 -0.006858
vt 0.142857 0.000000
vt 0.178571 0.000000
vt 0.178571 1.000000
vt 0.142857 1.000000
f 433/433 434/434 435/435 436/436
v 0.000000 1.134000 0.000000
v 0.891959 1.134000 -0.429545
v 0.774013 1.134000 -0.617255
vt 0.000000 0.000000
vt 1.000000 0.000000
vt 1.000000 1.000000
f 437/437 438/438 439/439
v 0.000000 2.106000 0.000000
v 0.008600 2.106000 -0.006858
v 0.009911 2.106000 -0.004773
vt 0.000000 0.000000
vt 1.000000 0.000000
vt 1.000000 1.000000
f 440/440 441/441 442/442
v 0.891959 1.134000 -0.429545
v 0.965179 1.134000 -0.220296
v 0.010724 2.106000 -0.002448
v 0.009911 2.106000 -0.004773
vt 0.178571 0.000000
vt 0.214286 0.000000
vt 0.214286 1.000000
vt 0.178571 1.000000
f 443/443 444/444 445/445 446/446
v 0.000000 1.134000 0.000000
v 0.965179 1.134000 -0.220296
v 0.891959 1.134000 -0.429545
vt 0.000000 0.000000
vt 1.000000 0.000000
vt 1.000000 1.000000
f 447/447 448/448 449/449
v 0.000000 2.106000 0.000000
v 0.009911 2.106000 -0.004773
v 0.010724 2.106000 -0.002448
vt 0.000000 0.000000
vt 1.000000 0.000000
vt 1.000000 1.000000
f 450/450 451/451 452/452
v 0.965179 1.134000 -0.220296
v 0.990000 1.134000 -0.000000
v 0.011000 2.106000 -0.000000
v 0.010724 2.106000 -0.002448
vt 0.214286 0.000000
vt 0.250000 0.000000
vt 0.250000 1.000000
vt 0.214286 1.000000
f 453/453 454/454 455/455 456/456
v 0.000000 1.134000 0.000000
v 0.990000 1.134000 -0.000000
v 0.965179 1.134000 -0.220296
vt 0.000000 0.000000
vt 1.000000 0.000000
vt 1.000000 1.000000
f 457/457 458/458 459/459
v 0.000000 2.106000 0.000000
v 0.010724 2.106000 -0.002448
v 0.011000 2.106000 -0.000000
vt 0.000000 0.000000
vt 1.000000 0.000000
vt 1.000000 1.000000
f 460/460 461/461 462/462
v 0.990000 1.134000 -0.000000
v 0.965179 1.134000 0.220296
v 0.010724 2.106000 0.002448
v 0.011000 2.106000 -0.000000
vt 0.250000 0.000000
vt 0.285714 0.000000
vt 0.285714 1.000000
vt 0.250000 1.000000
f 463/463 464/464 465/465 466/466
v 0.000000 1.134000 0.000000
v 0.965179 1.134000 0.220296
v 0.990000 1.134000 -0.000000
vt 0.000000 0.000000
vt 1.000000 0.000000
vt 1.000000 1.000000
f 467/467 468/468 469/469
v 0.000000 2.106000 0.000000
v 0.011000 2.106000 -0.000000
v 0.010724 2.106000 0.002448
vt 0.000000 0.000000
vt 1.000000 0.000000
vt 1.000000 1.000000
f 470/470 471/471 472/472
v 0.965179 1.134000 0.220296
v 0.891959 1.134000 0.429545
v 0.009911 2.106000 0.004773
v 0.010724 2.106000 0.002448
vt 0.285714 0.000000
vt 0.321429 0.000000
vt 0.321429 1.000000
vt 0.285714 1.000000
f 473/473 474/474 475/475 476/476
v 0.000000 1.134000 0.000000
v 0.891959 1.134000 0.429545
v 0.965179 1.134000 0.220296
vt 0.000000 0.000000
vt 1.000000 0.000000
vt 1.000000 1.000000
f 477/477 478/478 479/479
v 0.000000 2.106000 0.000000
v 0.010724 2.106000 0.002448
v 0.009911 2.106000 0.004773
vt 0.000000 0.000000
vt 1.000000 0.000000
vt 1.000000 1.000000
f 480/480 481/481 482/482
v 0.891959 1.134000 0.429545
v 0.774013 1.134000 0.617255
v 0.008600 2.106000 0.006858
v 0.009911 2.106000 0.004773
vt 0.321429 0.000000
vt 0.357143 0.000000
vt 0.357143 1.000000
vt 0.321429 1.000000
f 483/483 484/484 485/485 486/486
v 0.000000 1.134000 0.000000
v 0.774013 1.134000 0.617255
v 0.891959 1.134000 0.429545
vt 0.000000 0.000000
vt 1.000000 0.000000
vt 1.000000 1.000000
f 487/487 488/488 489/489
v 0.000000 2.106000 0.000000
v 0.009911 2.106000 0.004773
v 0.008600 2.106000 0.006858
vt 0.000000 0.000000
vt 1.000000 0.000000
vt 1.000000 1.000000
f 490/490 491/491 492/492
v 0.774013 1.134000 0.617255
v 0.617255 1.134000 0.774013
v 0.006858 2.106000 0.008600
v 0.008600 2.106000 0.006858
vt 0.357143 0.000000
vt 0.392857 0.000000
vt 0.392857 1.000000
vt 0.357143 1.000000
f 493/493 494/494 495/495 496/496
v 0.000000 1.134000 0.000000
v 0.617255 1.134000 0.774013
v 0.774013 1.134000 0.617255
vt 0.000000 0.000000
vt 1.000000 0.000000
vt 1.000000 1.000000
f 497/497 498/498 499/499
v 0.000000 2.106000 0.000000
v 0.008600 2.106000 0.006858
v 0.006858 2.106000 0.008600
vt 0.000000 0.000000
vt 1.000000 0.000000
vt 1.000000 1.000000
f 500/500 501/501 502/502
v 0.617255 1.134000 0.774013
v 0.429545 1.134000 0.891959
v 0.004773 2.106000 0.009911
v 0.006858 2.106000 0.008600
vt 0.392857 0.000000
vt 0.428571 0.000000
vt 0.428571 1.000000
vt 0.392857 1.000000
f 503/503 504/504 505/505 506/506
v 0.000000 1.134000 0.000000
v 0.429545 1.134000 0.891959
v 0.617255 1.134000 0.774013
vt 0.000000 0.000000
vt 1.000000 0.000000
vt 1.000000 1.000000
f 507/507 508/508 509/509
v 0.000000 2.106000 0.000000
v 0.006858 2.106000 0.008600
v 0.004773 2.106000 0.009911
vt 0.000000 0.000000
vt 1.000000 0.000000
vt 1.000000 1.000000
f 510/510 511/511 512/512
v 0.429545 1.134000 0.891959
v 0.220296 1.134000 0.965179
v 0.002448 2.106000 0.010724
v 0.004773 2.106000 0.009911
vt 0.428571 0.000000
vt 0.464286 0.000000
vt 0.464286 1.000000
vt 0.428571 1.000000
f 513/513 514/514 515/515 516/516
v 0.000000 1.134000 0.000000
v 0.220296 1.134000 0.965179
v 0.429545 1.134000 0.891959
vt 0.000000 0.000000
vt 1.000000 0.000000
vt 1.000000 1.000000
f 517/517 518/518 519/519
v 0.000000 2.106000 0.000000
v 0.004773 2.106000 0.009911
v 0.002448 2.106000 0.010724
vt 0.000000 0.000000
vt 1.000000 0.000000
vt 1.000000 1.000000
f 520/520 521/521 522/522
v 0.220296 1.134000 0.965179
v 0.000000 1.134000 0.990000
v 0.000000 2.106000 0.011000
v 0.002448 2.106000 0.010724
vt 0.464286 0.000000
vt 0.500000 0.000000
vt 0.500000 1.000000
vt 0.464286 1.000000
f 523/523 524/524 525/525 526/526
v 0.000000 1.134000 0.000000
v 0.000000 1.134000 0.990000
v 0.220296 1.134000 0.965179
vt 0.000000 0.000000
vt 1.000000 0.000000
vt 1.000000 1.000000
f 527/527 528/528 529/529
v 0.000000 2.106000 0.000000
v 0.002448 2.106000 0.010724
v 0.000000 2.106000 0.011000
vt 0.000000 0.000000
vt 1.000000 0.000000
vt 1.000000 1.000000
f 530/530 531/531 532/532
v 0.000000 1.134000 0.990000
v -0.220296 1.134000 0.965179
v -0.002448 2.106000 0.010724
v 0.000000 2.106000 0.011000
vt 0.500000 0.000000
vt 0.535714 0.000000
vt 0.535714 1.000000
vt 0.500000 1.000000
f 533/533 534/534 535/535 536/536
v 0.000000 1.134000 0.000000
v -0.220296 1.134000 0.965179
v 0.000000 1.134000 0.990000
vt 0.000000 0.000000
vt 1.000000 0.000000
vt 1.000000 1.000000
f 537/537 538/538 539/539
v 0.000000 2.106000 0.000000
v 0.000000 2.106000 0.011000
v -0.002448 2.106000 0.010724
vt 0.000000 0.000000
vt 1.000000 0.000000
vt 1.000000 1.000000
f 540/540 541/541 542/542
v -0.220296 1.134000 0.965179
v -0.429545 1.134000 0.891959
v -0.004773 2.106000 0.009911
v -0.002448 2.106000 0.010724
vt 0.535714 0.000000
vt 0.571429 0.000000
vt 0.571429 1.000000
vt 0.535714 1.000000
f 543/543 544/544 545/545 546/546
v 0.000000 1.134000 0.000000
v -0.429545 1.134000 0.891959
v -0.220296 1.134000 0.965179
vt 0.000000 0.000000
vt 1.000000 0.000000
vt 1.000000 1.000000
f 547/547 548/548 549/549
v 0.000000 2.106000 0.000000
v -0.002448 2.106000 0.010724
v -0.004773 2.106000 0.009911
vt 0.000000 0.000000
vt 1.000000 0.000000
vt 1.000000 1.000000
f 550/550 551/551 552/552
v -0.429545 1.134000 0.891959
v -0.617255 1.134000 0.774013
v -0.006858 2.106000 0.008600
v -0.004773 2.106000 0.009911
vt 0.571429 0.000000
vt 0.607143 0.000000
vt 0.607143 1.000000
vt 0.571429 1.000000
f 553/553 554/554 555/555 556/556
v 0.000000 1.134000 0.000000
v -0.617255 1.134000 0.774013
v -0.429545 1.134000 0.891959
vt 0.000000 0.000000
vt 1.000000 0.000000
vt 1.000000 1.000000
f 557/557 558/558 559/559
v 0.000000 2.106000 0.000000
v -0.004773 2.106000 0.009911
v -0.006858 2.106000 0.008600
vt 0.000000 0.000000
vt 1.000000 0.000000
vt 1.000000 1.000000
f 560/560 561/561 562/562
v -0.617255 1.134000 0.774013
v -0.774013 1.134000 0.617255
v -0.008600 2.106000 0.006858
v -0.006858 2.106000 0.008600
vt 0.607143 0.000000
vt 0.642857 0.000000
vt 0.642857 1.000000
vt 0.607143 1.000000
f 563/563 564/564 565/565 566/566
v 0.000000 1.134000 0.000000
v -0.774013 1.134000 0.617255
v -0.617255 1.134000 0.774013
vt 0.000000 0.000000
vt 1.000000 0.000000
vt 1.000000 1.000000
f 567/567 568/568 569/569
v 0.000000 2.106000 0.000000
v -0.006858 2.106000 0.008600
v -0.008600 2.106000 0.006858
vt 0.000000 0.000000
vt 1.000000 0.000000
vt 1.000000 1.000000
f 570/570 571/571 572/572
v -0.774013 1.134000 0.617255
v -0.891959 1.134000 0.429545
v -0.009911 2.106000 0.004773
v -0.008600 2.106000 0.006858
vt 0.642857 0.000000
vt 0.678571 0.000000
vt 0.678571 1.000000
vt 0.642857 1.000000
f 573/573 574/574 575/575 576/576
v 0.000000 1.134000 0.000000
v -0.891959 1.134000 0.429545
v -0.774013 1.134000 0.617255
vt 0.000000 0.000000
vt 1.000000 0.000000
vt 1.000000 1.000000
f 577/577 578/578 579/579
v 0.000000 2.106000 0.000000
v -0.008600 2.106000 0.006858
v -0.009911 2.106000 0.004773
vt 0.000000 0.000000
vt 1.000000 0.000000
vt 1.000000 1.000000
f 580/580 581/581 582/582
v -0.891959 1.134000 0.429545
v -0.965179 1.134000 0.220296
v -0.010724 2.106000 0.002448
v -0.009911 2.106000 0.004773
vt 0.678571 0.000000
vt 0.714286 0.000000
vt 0.714286 1.000000
vt 0.678571 1.000000
f 583/583 584/584 585/585 586/586
v 0.000000 1.134000 0.000000
v -0.965179 1.134000 0.220296
v -0.891959 1.134000 0.429545
vt 0.000000 0.000000
vt 1.000000 0.000000
vt 1.000000 1.000000
f 587/587 588/588 589/589
v 0.000000 2.106000 0.000000
v -0.009911 2.106000 0.004773
v -0.010724 2.106000 0.002448
vt 0.000000 0.000000
vt 1.000000 0.000000
vt 1.000000 1.000000
f 590/590 591/591 592/592
v -0.965179 1.134000 0.220296
v -0.990000 1.134000 0.000000
v -0.011000 2.106000 0.000000
v -0.010724 2.106000 0.002448
vt 0.714286 0.000000
vt 0.750000 0.000000
vt 0.750000 1.000000
vt 0.714286 1.000000
f 593/593 594/594 595/595 596/596
v 0.000000 1.134000 0.000000
v -0.990000 1.134000 0.000000
v -0.965179 1.134000 0.220296
vt 0.000000 0.000000
vt 1.000000 0.000000
vt 1.000000 1.000000
f 597/597 598/598 599/599
v 0.000000 2.106000 0.000000
v -0.010724 2.106000 0.002448
v -0.011000 2.106000 0.000000
vt 0.000000 0.000000
vt 1.000000 0.000000
vt 1.000000 1.000000
f 600/600 601/601 602/602
v -0.990000 1.134000 0.000000
v -0.965179 1.134000 -0.220296
v -0.010724 2.106000 -0.002448
v -0.011000 2.106000 0.000000
vt 0.750000 0.000000
vt 0.785714 0.000000
vt 0.785714 1.000000
vt 0.750000 1.000000
f 603/603 604/604 605/605 606/606
v 0.000000 1.134000 0.000000
v -0.965179 1.134000 -0.220296
v -0.990000 1.134000 0.000000
vt 0.000000 0.000000
vt 1.000000 0.000000
vt 1.000000 1.000000
f 607/607 608/608 609/609
v 0.000000 2.106000 0.000000
v -0.011000 2.106000 0.000000
v -0.010724 2.106000 -0.002448
vt 0.000000 0.000000
vt 1.000000 0.000000
vt 1.000000 1.000000
f 610/610 611/611 612/612
v -0.965179 1.134000 -0.220296
v -0.891959 1.134000 -0.429545
v -0.009911 2.106000 -0.004773
v -0.010724 2.106000 -0.002448
vt 0.785714 0.000000
vt 0.821429 0.000000
vt 0.821429 1.000000
vt 0.785714 1.000000
f 613/613 614/614 615/615 616/616
v 0.000000 1.134000 0.000000
v -0.891959 1.134000 -0.429545
v -0.965179 1.134000 -0.220296
vt 0.000000 0.000000
vt 1.000000 0.000000
vt 1.000000 1.000000
f 617/617 618/618 619/619
v 0.000000 2.106000 0.000000
v -0.010724 2.106000 -0.002448
v -0.009911 2.106000 -0.004773
vt 0.000000 0.000000
vt 1.000000 0.000000
vt 1.000000 1.000000
f 620/620 621/621 622/622
v -0.891959 1.134000 -0.429545
v -0.774013 1.134000 -0.617255
v -0.008600 2.106000 -0.006858
v -0.009911 2.106000 -0.004773
vt 0.821429 0.000000
vt 0.857143 0.000000
vt 0.857143 1.000000
vt 0.821429 1.000000
f 623/623 624/624 625/625 626/626
v 0.000000 1.134000 0.000000
v -0.774013 1.134000 -0.617255
v -0.891959 1.134000 -0.429545
vt 0.000000 0.000000
vt 1.000000 0.000000
vt 1.000000 1.000000
f 627/627 628/628 629/629
v 0.000000 2.106000 0.000000
v -0.009911 2.106000 -0.004773
v -0.008600 2.106000 -0.006858
vt 0.000000 0.000000
vt 1.000000 0.000000
vt 1.000000 1.000000
f 630/630 631/631 632/632
v -0.774013 1.134000 -0.617255
v -0.617255 1.134000 -0.774013
v -0.006858 2.106000 -0.008600
v -0.008600 2.106000 -0.006858
vt 0.857143 0.000000
vt 0.892857 0.000000
vt 0.892857 1.000000
vt 0.857143 1.000000
f 633/633 634/634 635/635 636/636
v 0.000000 1.134000 0.000000
v -0.617255 1.134000 -0.774013
v -0.774013 1.134000 -0.617255
vt 0.000000 0.000000
vt 1.000000 0.000000
vt 1.000000 1.000000
f 637/637 638/638 639/639
v 0.000000 2.106000 0.000000
v -0.008600 2.106000 -0.006858
v -0.006858 2.106000 -0.008600
vt 0.000000 0.000000
vt 1.000000 0.000000
vt 1.000000 1.000000
f 640/640 641/641 642/642
v -0.617255 1.134000 -0.774013
v -0.429545 1.134000 -0.891959
v -0.004773 2.106000 -0.009911
v -0.006858 2.106000 -0.008600
vt 0.892857 0.000000
vt 0.928571 0.000000
vt 0.928571 1.000000
vt 0.892857 1.000000
f 643/643 644/644 645/645 646/646
v 0.000000 1.134000 0.000000
v -0.429545 1.134000 -0.891959
v -0.617255 1.134000 -0.774013
vt 0.000000 0.000000
vt 1.000000 0.000000
vt 1.000000 1.000000
f 647/647 648/648 649/649
v 0.000000 2.106000 0.000000
v -0.006858 2.106000 -0.008600
v -0.004773 2.106000 -0.009911
vt 0.000000 0.000000
vt 1.000000 0.000000
vt 1.000000 1.000000
f 650/650 651/651 652/652
v -0.429545 1.134000 -0.891959
v -0.220296 1.134000 -0.965179
v -0.002448 2.106000 -0.010724
v -0.004773 2.106000 -0.009911
vt 0.928571 0.000000
vt 0.964286 0.000000
vt 0.964286 1.000000
vt 0.928571 1.000000
f 653/653 654/654 655/655 656/656
v 0.000000 1.134000 0.000000
v -0.220296 1.134000 -0.965179
v -0.429545 1.134000 -0.891959
vt 0.000000 0.000000
vt 1.000000 0.000000
vt 1.000000 1.000000
f 657/657 658/658 659/659
v 0.000000 2.106000 0.000000
v -0.004773 2.106000 -0.009911
v -0.002448 2.106000 -0.010724
vt 0.000000 0.000000
vt 1.000000 0.000000
vt 1.000000 1.000000
f 660/660 661/661 662/662
v -0.220296 1.134000 -0.965179
v -0.000000 1.134000 -0.990000
v -0.000000 2.106000 -0.011000
v -0.002448 2.106000 -0.010724
vt 0.964286 0.000000
vt 1.000000 0.000000
vt 1.000000 1.000000
vt 0.964286 1.000000
f 663/663 664/664 665/665 666/666
v 0.000000 1.134000 0.000000
v -0.000000 1.134000 -0.990000
v -0.220296 1.134000 -0.965179
vt 0.000000 0.000000
vt 1.000000 0.000000
vt 1.000000 1.000000
f 667/667 668/668 669/669
v 0.000000 2.106000 0.000000
v -0.002448 2.106000 -0.010724
v -0.000000 2.106000 -0.011000
vt 0.000000 0.000000
vt 1.000000 0.000000
vt 1.000000 1.000000
f 670/670 671/671 672/672
usemtl dark
v 1.375000 -1.566000 0.110000
v 3.520000 -1.431000 0.110000
v 3.520000 -0.533250 0.110000
v 1.375000 -0.486000 0.110000
vt 0.000000 0.000000
vt 1.000000 0.000000
vt 1.000000 1.000000
vt 0.000000 1.000000
f 673/673 674/674 675/675 676/676
v 1.375000 -1.566000 -0.110000
v 1.375000 -0.486000 -0.110000
v 3.520000 -0.533250 -0.110000
v 3.520000 -1.431000 -0.110000
vt 0.000000 0.000000
vt 1.000000 0.000000
vt 1.000000 1.000000
vt 0.000000 1.000000
f 677/677 678/678 679/679 680/680
v 1.375000 -1.566000 0.110000
v 1.375000 -1.566000 -0.110000
v 3.520000 -1.431000 -0.110000
v 1.375000 -0.486000 0.110000
vt 0.000000 0.000000
vt 1.000000 0.000000
vt 1.000000 1.000000
vt 0.000000 1.000000
f 681/681 682/682 683/683 684/684
v 3.520000 -1.431000 0.110000
v 3.520000 -0.533250 0.110000
v 3.520000 -0.533250 -0.110000
v 1.375000 -0.486000 -0.110000
vt 0.000000 0.000000
vt 1.000000 0.000000
vt 1.000000 1.000000
vt 0.000000 1.000000
f 685/685 686/686 687/687 688/688
v -1.375000 -1.566000 -0.110000
v -3.520000 -1.431000 -0.110000
v -3.520000 -0.533250 -0.110000
v -1.375000 -0.486000 -0.110000
vt 0.000000 0.000000
vt 1.000000 0.000000
vt 1.000000 1.000000
vt 0.000000 1.000000
f 689/689 690/690 691/691 692/692
v -1.375000 -1.566000 0.110000
v -1.375000 -0.486000 0.110000
v -3.520000 -0.533250 0.110000
v -3.520000 -1.431000 0.110000
vt 0.000000 0.000000
vt 1.000000 0.000000
vt 1.000000 1.000000
vt 0.000000 1.000000
f 693/693 694/694 695/695 696/696
v -1.375000 -1.566000 -0.110000
v -1.375000 -1.566000 0.110000
v -3.520000 -1.431000 0.110000
v -1.375000 -0.486000 -0.110000
vt 0.000000 0.000000
vt 1.000000 0.000000
vt 1.000000 1.000000
vt 0.000000 1.000000
f 697/697 698/698 699/699 700/700
v -3.520000 -1.431000 -0.110000
v -3.520000 -0.533250 -0.110000
v -3.520000 -0.533250 0.110000
v -1.375000 -0.486000 0.110000
vt 0.000000 0.000000
vt 1.000000 0.000000
vt 1.000000 1.000000
vt 0.000000 1.000000
f 701/701 702/702 703/703 704/704
v -0.110000 -1.566000 1.375000
v -0.110000 -1.431000 3.520000
v -0.110000 -0.533250 3.520000
v -0.110000 -0.486000 1.375000
vt 0.000000 0.000000
vt 1.000000 0.000000
vt 1.000000 1.000000
vt 0.000000 1.000000
f 705/705 706/706 707/707 708/708
v 0.110000 -1.566000 1.375000
v 0.110000 -0.486000 1.375000
v 0.110000 -0.533250 3.520000
v 0.110000 -1.431000 3.520000
vt 0.000000 0.000000
vt 1.000000 0.000000
vt 1.000000 1.000000
vt 0.000000 1.000000
f 709/709 710/710 711/711 712/712
v -0.110000 -1.566000 1.375000
v 0.110000 -1.566000 1.375000
v 0.110000 -1.431000 3.520000
v -0.110000 -0.486000 1.375000
vt 0.000000 0.000000
vt 1.000000 0.000000
vt 1.000000 1.000000
vt 0.000000 1.000000
f 713/713 714/714 715/715 716/716
v -0.110000 -1.431000 3.520000
v -0.110000 -0.533250 3.520000
v 0.110000 -0.533250 3.520000
v 0.110000 -0.486000 1.375000
vt 0.000000 0.000000
vt 1.000000 0.000000
vt 1.000000 1.000000
vt 0.000000 1.000000
f 717/717 718/718 719/719 720/720
v 0.110000 -1.566000 -1.375000
v 0.110000 -1.431000 -3.520000
v 0.110000 -0.533250 -3.520000
v 0.110000 -0.486000 -1.375000
vt 0.000000 0.000000
vt 1.000000 0.000000
vt 1.000000 1.000000
vt 0.000000 1.000000
f 721/721 722/722 723/723 724/724
v -0.110000 -1.566000 -1.375000
v -0.110000 -0.486000 -1.375000
v -0.110000 -0.533250 -3.520000
v -0.110000 -1.431000 -3.520000
vt 0.000000 0.000000
vt 1.000000 0.000000
vt 1.000000 1.000000
vt 0.000000 1.000000
f 725/725 726/726 727/727 728/728
v 0.110000 -1.566000 -1.375000
v -0.110000 -1.566000 -1.375000
v -0.110000 -1.431000 -3.520000
v 0.110000 -0.486000 -1.375000
vt 0.000000 0.000000
vt 1.000000 0.000000
vt 1.000000 1.000000
vt 0.000000 1.000000
f 729/729 730/730 731/731 732/732
v 0.110000 -1.431000 -3.520000
v 0.110000 -0.533250 -3.520000
v -0.110000 -0.533250 -3.520000
v -0.110000 -0.486000 -1.375000
vt 0.000000 0.000000
vt 1.000000 0.000000
vt 1.000000 1.000000
vt 0.000000 1.000000
f 733/733 734/734 735/735 736/736
v 1.100000 -1.350000 -0.176000
v 1.540000 -1.350000 -0.176000
v 1.540000 0.594000 -0.176000
v 1.100000 0.594000 -0.176000
vt 0.000000 0.000000
vt 1.000000 0.000000
vt 1.000000 1.000000
vt 0.000000 1.000000
f 737/737 738/738 739/739 740/740
v 1.540000 -1.350000 0.176000
v 1.100000 -1.350000 0.176000
v 1.100000 0.594000 0.176000
v 1.540000 0.594000 0.176000
vt 0.000000 0.000000
vt 1.000000 0.000000
vt 1.000000 1.000000
vt 0.000000 1.000000
f 741/741 742/742 743/743 744/744
v 1.100000 -1.350000 0.176000
v 1.100000 -1.350000 -0.176000
v 1.100000 0.594000 -0.176000
v 1.100000 0.594000 0.176000
vt 0.000000 0.000000
vt 1.000000 0.000000
vt 1.000000 1.000000
vt 0.000000 1.000000
f 745/745 746/746 747/747 748/748
v 1.540000 -1.350000 -0.176000
v 1.540000 -1.350000 0.176000
v 1.540000 0.594000 0.176000
v 1.540000 0.594000 -0.176000
vt 0.000000 0.000000
vt 1.000000 0.000000
vt 1.000000 1.000000
vt 0.000000 1.000000
f 749/749 750/750 751/751 752/752
v 1.100000 0.594000 -0.176000
v 1.540000 0.594000 -0.176000
v 1.540000 0.594000 0.176000
v 1.100000 0.594000 0.176000
vt 0.000000 0.000000
vt 1.000000 0.000000
vt 1.000000 1.000000
vt 0.000000 1.000000
f 753/753 754/754 755/755 756/756
v 1.100000 -1.350000 0.176000
v 1.540000 -1.350000 0.176000
v 1.540000 -1.350000 -0.176000
v 1.100000 -1.350000 -0.176000
vt 0.000000 0.000000
vt 1.000000 0.000000
vt 1.000000 1.000000
vt 0.000000 1.000000
f 757/757 758/758 759/759 760/760
usemtl yellow
v 0.000000 -0.270000 -1.485000
v 0.330444 -0.270000 -1.447768
v 0.330444 -0.216000 -1.447768
v 0.000000 -0.216000 -1.485000
vt 0.000000 0.000000
vt 0.035714 0.000000
vt 0.035714 1.000000
vt 0.000000 1.000000
f 761/761 762/762 763/763 764/764
v 0.330444 -0.270000 -1.447768
v 0.644317 -0.270000 -1.337939
v 0.644317 -0.216000 -1.337939
v 0.330444 -0.216000 -1.447768
vt 0.035714 0.000000
vt 0.071429 0.000000
vt 0.071429 1.000000
vt 0.035714 1.000000
f 765/765 766/766 767/767 768/768
v 0.644317 -0.270000 -1.337939
v 0.925882 -0.270000 -1.161020
v 0.925882 -0.216000 -1.161020
v 0.644317 -0.216000 -1.337939
vt 0.071429 0.000000
vt 0.107143 0.000000
vt 0.107143 1.000000
vt 0.071429 1.000000
f 769/769 770/770 771/771 772/772
v 0.925882 -0.270000 -1.161020
v 1.161020 -0.270000 -0.925882
v 1.161020 -0.216000 -0.925882
v 0.925882 -0.216000 -1.161020
vt 0.107143 0.000000
vt 0.142857 0.000000
vt 0.142857 1.000000
vt 0.107143 1.000000
f 773/773 774/774 775/775 776/776
v 1.161020 -0.270000 -0.925882
v 1.337939 -0.270000 -0.644317
v 1.337939 -0.216000 -0.644317
v 1.161020 -0.216000 -0.925882
vt 0.142857 0.000000
vt 0.178571 0.000000
vt 0.178571 1.000000
vt 0.142857 1.000000
f 777/777 778/778 779/779 780/780
v 1.337939 -0.270000 -0.644317
v 1.447768 -0.270000 -0.330444
v 1.447768 -0.216000 -0.330444
v 1.337939 -0.216000 -0.644317
vt 0.178571 0.000000
vt 0.214286 0.000000
vt 0.214286 1.000000
vt 0.178571 1.000000
f 781/781 782/782 783/783 784/784
v 1.447768 -0.270000 -0.330444
v 1.485000 -0.270000 -0.000000
v 1.485000 -0.216000 -0.000000
v 1.447768 -0.216000 -0.330444
vt 0.214286 0.000000
vt 0.250000 0.000000
vt 0.250000 1.000000
vt 0.214286 1.000000
f 785/785 786/786 787/787 788/788
v 1.485000 -0.270000 -0.000000
v 1.447768 -0.270000 0.330444
v 1.447768 -0.216000 0.330444
v 1.485000 -0.216000 -0.000000
vt 0.250000 0.000000
vt 0.285714 0.000000
vt 0.285714 1.000000
vt 0.250000 1.000000
f 789/789 790/790 791/791 792/792
v 1.447768 -0.270000 0.330444
v 1.337939 -0.270000 0.644317
v 1.337939 -0.216000 0.644317
v 1.447768 -0.216000 0.330444
vt 0.285714 0.000000
vt 0.321429 0.000000
vt 0.321429 1.000000
vt 0.285714 1.000000
f 793/793 794/794 795/795 796/796
v 1.337939 -0.270000 0.644317
v 1.161020 -0.270000 0.925882
v 1.161020 -0.216000 0.925882
v 1.337939 -0.216000 0.644317
vt 0.321429 0.000000
vt 0.357143 0.000000
vt 0.357143 1.000000
vt 0.321429 1.000000
f 797/797 798/798 799/799 800/800
v 1.161020 -0.270000 0.925882
v 0.925882 -0.270000 1.161020
v 0.925882 -0.216000 1.161020
v 1.161020 -0.216000 0.925882
vt 0.357143 0.000000
vt 0.392857 0.000000
vt 0.392857 1.000000
vt 0.357143 1.000000
f 801/801 802/802 803/803 804/804
v 0.925882 -0.270000 1.161020
v 0.644317 -0.270000 1.337939
v 0.644317 -0.216000 1.337939
v 0.925882 -0.216000 1.161020
vt 0.392857 0.000000
vt 0.428571 0.000000
vt 0.428571 1.000000
vt 0.392857 1.000000
f 805/805 806/806 807/807 808/808
v 0.644317 -0.270000 1.337939
v 0.330444 -0.270000 1.447768
v 0.330444 -0.216000 1.447768
v 0.644317 -0.216000 1.337939
vt 0.428571 0.000000
vt 0.464286 0.000000
vt 0.464286 1.000000
vt 0.428571 1.000000
f 809/809 810/810 811/811 812/812
v 0.330444 -0.270000 1.447768
v 0.000000 -0.270000 1.485000
v 0.000000 -0.216000 1.485000
v 0.330444 -0.216000 1.447768
vt 0.464286 0.000000
vt 0.500000 0.000000
vt 0.500000 1.000000
vt 0.464286 1.000000
f 813/813 814/814 815/815 816/816
v 0.000000 -0.270000 1.485000
v -0.330444 -0.270000 1.447768
v -0.330444 -0.216000 1.447768
v 0.000000 -0.216000 1.485000
vt 0.500000 0.000000
vt 0.535714 0.000000
vt 0.535714 1.000000
vt 0.500000 1.000000
f 817/817 818/818 819/819 820/820
v -0.330444 -0.270000 1.447768
v -0.644317 -0.270000 1.337939
v -0.644317 -0.216000 1.337939
v -0.330444 -0.216000 1.447768
vt 0.535714 0.000000
vt 0.571429 0.000000
vt 0.571429 1.000000
vt 0.535714 1.000000
f 821/821 822/822 823/823 824/824
v -0.644317 -0.270000 1.337939
v -0.925882 -0.270000 1.161020
v -0.925882 -0.216000 1.161020
v -0.644317 -0.216000 1.337939
vt 0.571429 0.000000
vt 0.607143 0.000000
vt 0.607143 1.000000
vt 0.571429 1.000000
f 825/825 826/826 827/827 828/828
v -0.925882 -0.270000 1.161020
v -1.161020 -0.270000 0.925882
v -1.161020 -0.216000 0.925882
v -0.925882 -0.216000 1.161020
vt 0.607143 0.000000
vt 0.642857 0.000000
vt 0.642857 1.000000
vt 0.607143 1.000000
f 829/829 830/830 831/831 832/832
v -1.161020 -0.270000 0.925882
v -1.337939 -0.270000 0.644317
v -1.337939 -0.216000 0.644317
v -1.161020 -0.216000 0.925882
vt 0.642857 0.000000
vt 0.678571 0.000000
vt 0.678571 1.000000
vt 0.642857 1.000000
f 833/833 834/834 835/835 836/836
v -1.337939 -0.270000 0.644317
v -1.447768 -0.270000 0.330444
v -1.447768 -0.216000 0.330444
v -1.337939 -0.216000 0.644317
vt 0.678571 0.000000
vt 0.714286 0.000000
vt 0.714286 1.000000
vt 0.678571 1.000000
f 837/837 838/838 839/839 840/840
v -1.447768 -0.270000 0.330444
v -1.485000 -0.270000 0.000000
v -1.485000 -0.216000 0.000000
v -1.447768 -0.216000 0.330444
vt 0.714286 0.000000
vt 0.750000 0.000000
vt 0.750000 1.000000
vt 0.714286 1.000000
f 841/841 842/842 843/843 844/844
v -1.485000 -0.270000 0.000000
v -1.447768 -0.270000 -0.330444
v -1.447768 -0.216000 -0.330444
v -1.485000 -0.216000 0.000000
vt 0.750000 0.000000
vt 0.785714 0.000000
vt 0.785714 1.000000
vt 0.750000 1.000000
f 845/845 846/846 847/847 848/848
v -1.447768 -0.270000 -0.330444
v -1.337939 -0.270000 -0.644317
v -1.337939 -0.216000 -0.644317
v -1.447768 -0.216000 -0.330444
vt 0.785714 0.000000
vt 0.821429 0.000000
vt 0.821429 1.000000
vt 0.785714 1.000000
f 849/849 850/850 851/851 852/852
v -1.337939 -0.270000 -0.644317
v -1.161020 -0.270000 -0.925882
v -1.161020 -0.216000 -0.925882
v -1.337939 -0.216000 -0.644317
vt 0.821429 0.000000
vt 0.857143 0.000000
vt 0.857143 1.000000
vt 0.821429 1.000000
f 853/853 854/854 855/855 856/856
v -1.161020 -0.270000 -0.925882
v -0.925882 -0.270000 -1.161020
v -0.925882 -0.216000 -1.161020
v -1.161020 -0.216000 -0.925882
vt 0.857143 0.000000
vt 0.892857 0.000000
vt 0.892857 1.000000
vt 0.857143 1.000000
f 857/857 858/858 859/859 860/860
v -0.925882 -0.270000 -1.161020
v -0.644317 -0.270000 -1.337939
v -0.644317 -0.216000 -1.337939
v -0.925882 -0.216000 -1.161020
vt 0.892857 0.000000
vt 0.928571 0.000000
vt 0.928571 1.000000
vt 0.892857 1.000000
f 861/861 862/862 863/863 864/864
v -0.644317 -0.270000 -1.337939
v -0.330444 -0.270000 -1.447768
v -0.330444 -0.216000 -1.447768
v -0.644317 -0.216000 -1.337939
vt 0.928571 0.000000
vt 0.964286 0.000000
vt 0.964286 1.000000
vt 0.928571 1.000000
f 865/865 866/866 867/867 868/868
v -0.330444 -0.270000 -1.447768
v -0.000000 -0.270000 -1.485000
v -0.000000 -0.216000 -1.485000
v -0.330444 -0.216000 -1.447768
vt 0.964286 0.000000
vt 1.000000 0.000000
vt 1.000000 1.000000
vt 0.964286 1.000000
f 869/869 870/870 871/871 872/872
