mtllib targeting_tablet.mtl
o targeting_tablet
s 1
usemtl dark
v -0.220000 -0.020000 -0.320000
v 0.220000 -0.020000 -0.320000
v 0.220000 0.030000 -0.320000
v -0.220000 0.030000 -0.320000
vt 0.000000 0.000000
vt 1.000000 0.000000
vt 1.000000 1.000000
vt 0.000000 1.000000
f 1/1 2/2 3/3 4/4
v 0.220000 -0.020000 0.320000
v -0.220000 -0.020000 0.320000
v -0.220000 0.030000 0.320000
v 0.220000 0.030000 0.320000
vt 0.000000 0.000000
vt 1.000000 0.000000
vt 1.000000 1.000000
vt 0.000000 1.000000
f 5/5 6/6 7/7 8/8
v -0.220000 -0.020000 0.320000
v -0.220000 -0.020000 -0.320000
v -0.220000 0.030000 -0.320000
v -0.220000 0.030000 0.320000
vt 0.000000 0.000000
vt 1.000000 0.000000
vt 1.000000 1.000000
vt 0.000000 1.000000
f 9/9 10/10 11/11 12/12
v 0.220000 -0.020000 -0.320000
v 0.220000 -0.020000 0.320000
v 0.220000 0.030000 0.320000
v 0.220000 0.030000 -0.320000
vt 0.000000 0.000000
vt 1.000000 0.000000
vt 1.000000 1.000000
vt 0.000000 1.000000
f 13/13 14/14 15/15 16/16
v -0.220000 0.030000 -0.320000
v 0.220000 0.030000 -0.320000
v 0.220000 0.030000 0.320000
v -0.220000 0.030000 0.320000
vt 0.000000 0.000000
vt 1.000000 0.000000
vt 1.000000 1.000000
vt 0.000000 1.000000
f 17/17 18/18 19/19 20/20
v -0.220000 -0.020000 0.320000
v 0.220000 -0.020000 0.320000
v 0.220000 -0.020000 -0.320000
v -0.220000 -0.020000 -0.320000
vt 0.000000 0.000000
vt 1.000000 0.000000
vt 1.000000 1.000000
vt 0.000000 1.000000
f 21/21 22/22 23/23 24/24
usemtl glass
v -0.180000 0.030000 -0.260000
v 0.180000 0.030000 -0.260000
v 0.180000 0.040000 -0.260000
v -0.180000 0.040000 -0.260000
vt 0.000000 0.000000
vt 1.000000 0.000000
vt 1.000000 1.000000
vt 0.000000 1.000000
f 25/25 26/26 27/27 28/28
v 0.180000 0.030000 0.260000
v -0.180000 0.030000 0.260000
v -0.180000 0.040000 0.260000
v 0.180000 0.040000 0.260000
vt 0.000000 0.000000
vt 1.000000 0.000000
vt 1.000000 1.000000
vt 0.000000 1.000000
f 29/29 30/30 31/31 32/32
v -0.180000 0.030000 0.260000
v -0.180000 0.030000 -0.260000
v -0.180000 0.040000 -0.260000
v -0.180000 0.040000 0.260000
vt 0.000000 0.000000
vt 1.000000 0.000000
vt 1.000000 1.000000
vt 0.000000 1.000000
f 33/33 34/34 35/35 36/36
v 0.180000 0.030000 -0.260000
v 0.180000 0.030000 0.260000
v 0.180000 0.040000 0.260000
v 0.180000 0.040000 -0.260000
vt 0.000000 0.000000
vt 1.000000 0.000000
vt 1.000000 1.000000
vt 0.000000 1.000000
f 37/37 38/38 39/39 40/40
v -0.180000 0.040000 -0.260000
v 0.180000 0.040000 -0.260000
v 0.180000 0.040000 0.260000
v -0.180000 0.040000 0.260000
vt 0.000000 0.000000
vt 1.000000 0.000000
vt 1.000000 1.000000
vt 0.000000 1.000000
f 41/41 42/42 43/43 44/44
v -0.180000 0.030000 0.260000
v 0.180000 0.030000 0.260000
v 0.180000 0.030000 -0.260000
v -0.180000 0.030000 -0.260000
vt 0.000000 0.000000
vt 1.000000 0.000000
vt 1.000000 1.000000
vt 0.000000 1.000000
f 45/45 46/46 47/47 48/48
usemtl body
v -0.200000 -0.030000 -0.280000
v 0.200000 -0.030000 -0.280000
v 0.200000 -0.020000 -0.280000
v -0.200000 -0.020000 -0.280000
vt 0.000000 0.000000
vt 1.000000 0.000000
vt 1.000000 1.000000
vt 0.000000 1.000000
f 49/49 50/50 51/51 52/52
v 0.200000 -0.030000 0.280000
v -0.200000 -0.030000 0.280000
v -0.200000 -0.020000 0.280000
v 0.200000 -0.020000 0.280000
vt 0.000000 0.000000
vt 1.000000 0.000000
vt 1.000000 1.000000
vt 0.000000 1.000000
f 53/53 54/54 55/55 56/56
v -0.200000 -0.030000 0.280000
v -0.200000 -0.030000 -0.280000
v -0.200000 -0.020000 -0.280000
v -0.200000 -0.020000 0.280000
vt 0.000000 0.000000
vt 1.000000 0.000000
vt 1.000000 1.000000
vt 0.000000 1.000000
f 57/57 58/58 59/59 60/60
v 0.200000 -0.030000 -0.280000
v 0.200000 -0.030000 0.280000
v 0.200000 -0.020000 0.280000
v 0.200000 -0.020000 -0.280000
vt 0.000000 0.000000
vt 1.000000 0.000000
vt 1.000000 1.000000
vt 0.000000 1.000000
f 61/61 62/62 63/63 64/64
v -0.200000 -0.020000 -0.280000
v 0.200000 -0.020000 -0.280000
v 0.200000 -0.020000 0.280000
v -0.200000 -0.020000 0.280000
vt 0.000000 0.000000
vt 1.000000 0.000000
vt 1.000000 1.000000
vt 0.000000 1.000000
f 65/65 66/66 67/67 68/68
v -0.200000 -0.030000 0.280000
v 0.200000 -0.030000 0.280000
v 0.200000 -0.030000 -0.280000
v -0.200000 -0.030000 -0.280000
vt 0.000000 0.000000
vt 1.000000 0.000000
vt 1.000000 1.000000
vt 0.000000 1.000000
f 69/69 70/70 71/71 72/72
usemtl accent
v 0.160000 0.000000 0.260000
v 0.174142 0.000000 0.265858
v 0.174142 0.060000 0.265858
v 0.160000 0.060000 0.260000
vt 0.000000 0.000000
vt 0.125000 0.000000
vt 0.125000 1.000000
vt 0.000000 1.000000
f 73/73 74/74 75/75 76/76
v 0.160000 0.000000 0.280000
v 0.174142 0.000000 0.265858
v 0.160000 0.000000 0.260000
vt 0.000000 0.000000
vt 1.000000 0.000000
vt 1.000000 1.000000
f 77/77 78/78 79/79
v 0.160000 0.060000 0.280000
v 0.160000 0.060000 0.260000
v 0.174142 0.060000 0.265858
vt 0.000000 0.000000
vt 1.000000 0.000000
vt 1.000000 1.000000
f 80/80 81/81 82/82
v 0.174142 0.000000 0.265858
v 0.180000 0.000000 0.280000
v 0.180000 0.060000 0.280000
v 0.174142 0.060000 0.265858
vt 0.125000 0.000000
vt 0.250000 0.000000
vt 0.250000 1.000000
vt 0.125000 1.000000
f 83/83 84/84 85/85 86/86
v 0.160000 0.000000 0.280000
v 0.180000 0.000000 0.280000
v 0.174142 0.000000 0.265858
vt 0.000000 0.000000
vt 1.000000 0.000000
vt 1.000000 1.000000
f 87/87 88/88 89/89
v 0.160000 0.060000 0.280000
v 0.174142 0.060000 0.265858
v 0.180000 0.060000 0.280000
vt 0.000000 0.000000
vt 1.000000 0.000000
vt 1.000000 1.000000
f 90/90 91/91 92/92
v 0.180000 0.000000 0.280000
v 0.174142 0.000000 0.294142
v 0.174142 0.060000 0.294142
v 0.180000 0.060000 0.280000
vt 0.250000 0.000000
vt 0.375000 0.000000
vt 0.375000 1.000000
vt 0.250000 1.000000
f 93/93 94/94 95/95 96/96
v 0.160000 0.000000 0.280000
v 0.174142 0.000000 0.294142
v 0.180000 0.000000 0.280000
vt 0.000000 0.000000
vt 1.000000 0.000000
vt 1.000000 1.000000
f 97/97 98/98 99/99
v 0.160000 0.060000 0.280000
v 0.180000 0.060000 0.280000
v 0.174142 0.060000 0.294142
vt 0.000000 0.000000
vt 1.000000 0.000000
vt 1.000000 1.000000
f 100/100 101/101 102/102
v 0.174142 0.000000 0.294142
v 0.160000 0.000000 0.300000
v 0.160000 0.060000 0.300000
v 0.174142 0.060000 0.294142
vt 0.375000 0.000000
vt 0.500000 0.000000
vt 0.500000 1.000000
vt 0.375000 1.000000
f 103/103 104/104 105/105 106/106
v 0.160000 0.000000 0.280000
v 0.160000 0.000000 0.300000
v 0.174142 0.000000 0.294142
vt 0.000000 0.000000
vt 1.000000 0.000000
vt 1.000000 1.000000
f 107/107 108/108 109/109
v 0.160000 0.060000 0.280000
v 0.174142 0.060000 0.294142
v 0.160000 0.060000 0.300000
vt 0.000000 0.000000
vt 1.000000 0.000000
vt 1.000000 1.000000
f 110/110 111/111 112/112
v 0.160000 0.000000 0.300000
v 0.145858 0.000000 0.294142
v 0.145858 0.060000 0.294142
v 0.160000 0.060000 0.300000
vt 0.500000 0.000000
vt 0.625000 0.000000
vt 0.625000 1.000000
vt 0.500000 1.000000
f 113/113 114/114 115/115 116/116
v 0.160000 0.000000 0.280000
v 0.145858 0.000000 0.294142
v 0.160000 0.000000 0.300000
vt 0.000000 0.000000
vt 1.000000 0.000000
vt 1.000000 1.000000
f 117/117 118/118 119/119
v 0.160000 0.060000 0.280000
v 0.160000 0.060000 0.300000
v 0.145858 0.060000 0.294142
vt 0.000000 0.000000
vt 1.000000 0.000000
vt 1.000000 1.000000
f 120/120 121/121 122/122
v 0.145858 0.000000 0.294142
v 0.140000 0.000000 0.280000
v 0.140000 0.060000 0.280000
v 0.145858 0.060000 0.294142
vt 0.625000 0.000000
vt 0.750000 0.000000
vt 0.750000 1.000000
vt 0.625000 1.000000
f 123/123 124/124 125/125 126/126
v 0.160000 0.000000 0.280000
v 0.140000 0.000000 0.280000
v 0.145858 0.000000 0.294142
vt 0.000000 0.000000
vt 1.000000 0.000000
vt 1.000000 1.000000
f 127/127 128/128 129/129
v 0.160000 0.060000 0.280000
v 0.145858 0.060000 0.294142
v 0.140000 0.060000 0.280000
vt 0.000000 0.000000
vt 1.000000 0.000000
vt 1.000000 1.000000
f 130/130 131/131 132/132
v 0.140000 0.000000 0.280000
v 0.145858 0.000000 0.265858
v 0.145858 0.060000 0.265858
v 0.140000 0.060000 0.280000
vt 0.750000 0.000000
vt 0.875000 0.000000
vt 0.875000 1.000000
vt 0.750000 1.000000
f 133/133 134/134 135/135 136/136
v 0.160000 0.000000 0.280000
v 0.145858 0.000000 0.265858
v 0.140000 0.000000 0.280000
vt 0.000000 0.000000
vt 1.000000 0.000000
vt 1.000000 1.000000
f 137/137 138/138 139/139
v 0.160000 0.060000 0.280000
v 0.140000 0.060000 0.280000
v 0.145858 0.060000 0.265858
vt 0.000000 0.000000
vt 1.000000 0.000000
vt 1.000000 1.000000
f 140/140 141/141 142/142
v 0.145858 0.000000 0.265858
v 0.160000 0.000000 0.260000
v 0.160000 0.060000 0.260000
v 0.145858 0.060000 0.265858
vt 0.875000 0.000000
vt 1.000000 0.000000
vt 1.000000 1.000000
vt 0.875000 1.000000
f 143/143 144/144 145/145 146/146
v 0.160000 0.000000 0.280000
v 0.160000 0.000000 0.260000
v 0.145858 0.000000 0.265858
vt 0.000000 0.000000
vt 1.000000 0.000000
vt 1.000000 1.000000
f 147/147 148/148 149/149
v 0.160000 0.060000 0.280000
v 0.145858 0.060000 0.265858
v 0.160000 0.060000 0.260000
vt 0.000000 0.000000
vt 1.000000 0.000000
vt 1.000000 1.000000
f 150/150 151/151 152/152
