mtllib two_stage_motor.mtl
o two_stage_motor
s 1
usemtl white
v 0.000000 -0.160000 -0.080000
v 0.027362 -0.160000 -0.075175
v 0.027362 0.040000 -0.075175
v 0.000000 0.040000 -0.080000
vt 0.000000 0.000000
vt 0.055556 0.000000
vt 0.055556 1.000000
vt 0.000000 1.000000
f 1/1 2/2 3/3 4/4
v 0.027362 -0.160000 -0.075175
v 0.051423 -0.160000 -0.061284
v 0.051423 0.040000 -0.061284
v 0.027362 0.040000 -0.075175
vt 0.055556 0.000000
vt 0.111111 0.000000
vt 0.111111 1.000000
vt 0.055556 1.000000
f 5/5 6/6 7/7 8/8
v 0.051423 -0.160000 -0.061284
v 0.069282 -0.160000 -0.040000
v 0.069282 0.040000 -0.040000
v 0.051423 0.040000 -0.061284
vt 0.111111 0.000000
vt 0.166667 0.000000
vt 0.166667 1.000000
vt 0.111111 1.000000
f 9/9 10/10 11/11 12/12
v 0.069282 -0.160000 -0.040000
v 0.078785 -0.160000 -0.013892
v 0.078785 0.040000 -0.013892
v 0.069282 0.040000 -0.040000
vt 0.166667 0.000000
vt 0.222222 0.000000
vt 0.222222 1.000000
vt 0.166667 1.000000
f 13/13 14/14 15/15 16/16
v 0.078785 -0.160000 -0.013892
v 0.078785 -0.160000 0.013892
v 0.078785 0.040000 0.013892
v 0.078785 0.040000 -0.013892
vt 0.222222 0.000000
vt 0.277778 0.000000
vt 0.277778 1.000000
vt 0.222222 1.000000
f 17/17 18/18 19/19 20/20
v 0.078785 -0.160000 0.013892
v 0.069282 -0.160000 0.040000
v 0.069282 0.040000 0.040000
v 0.078785 0.040000 0.013892
vt 0.277778 0.000000
vt 0.333333 0.000000
vt 0.333333 1.000000
vt 0.277778 1.000000
f 21/21 22/22 23/23 24/24
v 0.069282 -0.160000 0.040000
v 0.051423 -0.160000 0.061284
v 0.051423 0.040000 0.061284
v 0.069282 0.040000 0.040000
vt 0.333333 0.000000
vt 0.388889 0.000000
vt 0.388889 1.000000
vt 0.333333 1.000000
f 25/25 26/26 27/27 28/28
v 0.051423 -0.160000 0.061284
v 0.027362 -0.160000 0.075175
v 0.027362 0.040000 0.075175
v 0.051423 0.040000 0.061284
vt 0.388889 0.000000
vt 0.444444 0.000000
vt 0.444444 1.000000
vt 0.388889 1.000000
f 29/29 30/30 31/31 32/32
v 0.027362 -0.160000 0.075175
v 0.000000 -0.160000 0.080000
v 0.000000 0.040000 0.080000
v 0.027362 0.040000 0.075175
vt 0.444444 0.000000
vt 0.500000 0.000000
vt 0.500000 1.000000
vt 0.444444 1.000000
f 33/33 34/34 35/35 36/36
v 0.000000 -0.160000 0.080000
v -0.027362 -0.160000 0.075175
v -0.027362 0.040000 0.075175
v 0.000000 0.040000 0.080000
vt 0.500000 0.000000
vt 0.555556 0.000000
vt 0.555556 1.000000
vt 0.500000 1.000000
f 37/37 38/38 39/39 40/40
v -0.027362 -0.160000 0.075175
v -0.051423 -0.160000 0.061284
v -0.051423 0.040000 0.061284
v -0.027362 0.040000 0.075175
vt 0.555556 0.000000
vt 0.611111 0.000000
vt 0.611111 1.000000
vt 0.555556 1.000000
f 41/41 42/42 43/43 44/44
v -0.051423 -0.160000 0.061284
v -0.069282 -0.160000 0.040000
v -0.069282 0.040000 0.040000
v -0.051423 0.040000 0.061284
vt 0.611111 0.000000
vt 0.666667 0.000000
vt 0.666667 1.000000
vt 0.611111 1.000000
f 45/45 46/46 47/47 48/48
v -0.069282 -0.160000 0.040000
v -0.078785 -0.160000 0.013892
v -0.078785 0.040000 0.013892
v -0.069282 0.040000 0.040000
vt 0.666667 0.000000
vt 0.722222 0.000000
vt 0.722222 1.000000
vt 0.666667 1.000000
f 49/49 50/50 51/51 52/52
v -0.078785 -0.160000 0.013892
v -0.078785 -0.160000 -0.013892
v -0.078785 0.040000 -0.013892
v -0.078785 0.040000 0.013892
vt 0.722222 0.000000
vt 0.777778 0.000000
vt 0.777778 1.000000
vt 0.722222 1.000000
f 53/53 54/54 55/55 56/56
v -0.078785 -0.160000 -0.013892
v -0.069282 -0.160000 -0.040000
v -0.069282 0.040000 -0.040000
v -0.078785 0.040000 -0.013892
vt 0.777778 0.000000
vt 0.833333 0.000000
vt 0.833333 1.000000
vt 0.777778 1.000000
f 57/57 58/58 59/59 60/60
v -0.069282 -0.160000 -0.040000
v -0.051423 -0.160000 -0.061284
v -0.051423 0.040000 -0.061284
v -0.069282 0.040000 -0.040000
vt 0.833333 0.000000
vt 0.888889 0.000000
vt 0.888889 1.000000
vt 0.833333 1.000000
f 61/61 62/62 63/63 64/64
v -0.051423 -0.160000 -0.061284
v -0.027362 -0.160000 -0.075175
v -0.027362 0.040000 -0.075175
v -0.051423 0.040000 -0.061284
vt 0.888889 0.000000
vt 0.944444 0.000000
vt 0.944444 1.000000
vt 0.888889 1.000000
f 65/65 66/66 67/67 68/68
v -0.027362 -0.160000 -0.075175
v -0.000000 -0.160000 -0.080000
v -0.000000 0.040000 -0.080000
v -0.027362 0.040000 -0.075175
vt 0.944444 0.000000
vt 1.000000 0.000000
vt 1.000000 1.000000
vt 0.944444 1.000000
f 69/69 70/70 71/71 72/72
usemtl body
v 0.000000 0.040000 -0.065000
v 0.024874 0.040000 -0.060052
v 0.024874 0.220000 -0.060052
v 0.000000 0.220000 -0.065000
vt 0.000000 0.000000
vt 0.062500 0.000000
vt 0.062500 1.000000
vt 0.000000 1.000000
f 73/73 74/74 75/75 76/76
v 0.024874 0.040000 -0.060052
v 0.045962 0.040000 -0.045962
v 0.045962 0.220000 -0.045962
v 0.024874 0.220000 -0.060052
vt 0.062500 0.000000
vt 0.125000 0.000000
vt 0.125000 1.000000
vt 0.062500 1.000000
f 77/77 78/78 79/79 80/80
v 0.045962 0.040000 -0.045962
v 0.060052 0.040000 -0.024874
v 0.060052 0.220000 -0.024874
v 0.045962 0.220000 -0.045962
vt 0.125000 0.000000
vt 0.187500 0.000000
vt 0.187500 1.000000
vt 0.125000 1.000000
f 81/81 82/82 83/83 84/84
v 0.060052 0.040000 -0.024874
v 0.065000 0.040000 -0.000000
v 0.065000 0.220000 -0.000000
v 0.060052 0.220000 -0.024874
vt 0.187500 0.000000
vt 0.250000 0.000000
vt 0.250000 1.000000
vt 0.187500 1.000000
f 85/85 86/86 87/87 88/88
v 0.065000 0.040000 -0.000000
v 0.060052 0.040000 0.024874
v 0.060052 0.220000 0.024874
v 0.065000 0.220000 -0.000000
vt 0.250000 0.000000
vt 0.312500 0.000000
vt 0.312500 1.000000
vt 0.250000 1.000000
f 89/89 90/90 91/91 92/92
v 0.060052 0.040000 0.024874
v 0.045962 0.040000 0.045962
v 0.045962 0.220000 0.045962
v 0.060052 0.220000 0.024874
vt 0.312500 0.000000
vt 0.375000 0.000000
vt 0.375000 1.000000
vt 0.312500 1.000000
f 93/93 94/94 95/95 96/96
v 0.045962 0.040000 0.045962
v 0.024874 0.040000 0.060052
v 0.024874 0.220000 0.060052
v 0.045962 0.220000 0.045962
vt 0.375000 0.000000
vt 0.437500 0.000000
vt 0.437500 1.000000
vt 0.375000 1.000000
f 97/97 98/98 99/99 100/100
v 0.024874 0.040000 0.060052
v 0.000000 0.040000 0.065000
v 0.000000 0.220000 0.065000
v 0.024874 0.220000 0.060052
vt 0.437500 0.000000
vt 0.500000 0.000000
vt 0.500000 1.000000
vt 0.437500 1.000000
f 101/101 102/102 103/103 104/104
v 0.000000 0.040000 0.065000
v -0.024874 0.040000 0.060052
v -0.024874 0.220000 0.060052
v 0.000000 0.220000 0.065000
vt 0.500000 0.000000
vt 0.562500 0.000000
vt 0.562500 1.000000
vt 0.500000 1.000000
f 105/105 106/106 107/107 108/108
v -0.024874 0.040000 0.060052
v -0.045962 0.040000 0.045962
v -0.045962 0.220000 0.045962
v -0.024874 0.220000 0.060052
vt 0.562500 0.000000
vt 0.625000 0.000000
vt 0.625000 1.000000
vt 0.562500 1.000000
f 109/109 110/110 111/111 112/112
v -0.045962 0.040000 0.045962
v -0.060052 0.040000 0.024874
v -0.060052 0.220000 0.024874
v -0.045962 0.220000 0.045962
vt 0.625000 0.000000
vt 0.687500 0.000000
vt 0.687500 1.000000
vt 0.625000 1.000000
f 113/113 114/114 115/115 116/116
v -0.060052 0.040000 0.024874
v -0.065000 0.040000 0.000000
v -0.065000 0.220000 0.000000
v -0.060052 0.220000 0.024874
vt 0.687500 0.000000
vt 0.750000 0.000000
vt 0.750000 1.000000
vt 0.687500 1.000000
f 117/117 118/118 119/119 120/120
v -0.065000 0.040000 0.000000
v -0.060052 0.040000 -0.024874
v -0.060052 0.220000 -0.024874
v -0.065000 0.220000 0.000000
vt 0.750000 0.000000
vt 0.812500 0.000000
vt 0.812500 1.000000
vt 0.750000 1.000000
f 121/121 122/122 123/123 124/124
v -0.060052 0.040000 -0.024874
v -0.045962 0.040000 -0.045962
v -0.045962 0.220000 -0.045962
v -0.060052 0.220000 -0.024874
vt 0.812500 0.000000
vt 0.875000 0.000000
vt 0.875000 1.000000
vt 0.812500 1.000000
f 125/125 126/126 127/127 128/128
v -0.045962 0.040000 -0.045962
v -0.024874 0.040000 -0.060052
v -0.024874 0.220000 -0.060052
v -0.045962 0.220000 -0.045962
vt 0.875000 0.000000
vt 0.937500 0.000000
vt 0.937500 1.000000
vt 0.875000 1.000000
f 129/129 130/130 131/131 132/132
v -0.024874 0.040000 -0.060052
v -0.000000 0.040000 -0.065000
v -0.000000 0.220000 -0.065000
v -0.024874 0.220000 -0.060052
vt 0.937500 0.000000
vt 1.000000 0.000000
vt 1.000000 1.000000
vt 0.937500 1.000000
f 133/133 134/134 135/135 136/136
usemtl dark
v 0.000000 -0.180000 -0.090000
v 0.034442 -0.180000 -0.083149
v 0.034442 -0.120000 -0.083149
v 0.000000 -0.120000 -0.090000
vt 0.000000 0.000000
vt 0.062500 0.000000
vt 0.062500 1.000000
vt 0.000000 1.000000
f 137/137 138/138 139/139 140/140
v 0.000000 -0.180000 0.000000
v 0.034442 -0.180000 -0.083149
v 0.000000 -0.180000 -0.090000
vt 0.000000 0.000000
vt 1.000000 0.000000
vt 1.000000 1.000000
f 141/141 142/142 143/143
v 0.000000 -0.120000 0.000000
v 0.000000 -0.120000 -0.090000
v 0.034442 -0.120000 -0.083149
vt 0.000000 0.000000
vt 1.000000 0.000000
vt 1.000000 1.000000
f 144/144 145/145 146/146
v 0.034442 -0.180000 -0.083149
v 0.063640 -0.180000 -0.063640
v 0.063640 -0.120000 -0.063640
v 0.034442 -0.120000 -0.083149
vt 0.062500 0.000000
vt 0.125000 0.000000
vt 0.125000 1.000000
vt 0.062500 1.000000
f 147/147 148/148 149/149 150/150
v 0.000000 -0.180000 0.000000
v 0.063640 -0.180000 -0.063640
v 0.034442 -0.180000 -0.083149
vt 0.000000 0.000000
vt 1.000000 0.000000
vt 1.000000 1.000000
f 151/151 152/152 153/153
v 0.000000 -0.120000 0.000000
v 0.034442 -0.120000 -0.083149
v 0.063640 -0.120000 -0.063640
vt 0.000000 0.000000
vt 1.000000 0.000000
vt 1.000000 1.000000
f 154/154 155/155 156/156
v 0.063640 -0.180000 -0.063640
v 0.083149 -0.180000 -0.034442
v 0.083149 -0.120000 -0.034442
v 0.063640 -0.120000 -0.063640
vt 0.125000 0.000000
vt 0.187500 0.000000
vt 0.187500 1.000000
vt 0.125000 1.000000
f 157/157 158/158 159/159 160/160
v 0.000000 -0.180000 0.000000
v 0.083149 -0.180000 -0.034442
v 0.063640 -0.180000 -0.063640
vt 0.000000 0.000000
vt 1.000000 0.000000
vt 1.000000 1.000000
f 161/161 162/162 163/163
v 0.000000 -0.120000 0.000000
v 0.063640 -0.120000 -0.063640
v 0.083149 -0.120000 -0.034442
vt 0.000000 0.000000
vt 1.000000 0.000000
vt 1.000000 1.000000
f 164/164 165/165 166/166
v 0.083149 -0.180000 -0.034442
v 0.090000 -0.180000 -0.000000
v 0.090000 -0.120000 -0.000000
v 0.083149 -0.120000 -0.034442
vt 0.187500 0.000000
vt 0.250000 0.000000
vt 0.250000 1.000000
vt 0.187500 1.000000
f 167/167 168/168 169/169 170/170
v 0.000000 -0.180000 0.000000
v 0.090000 -0.180000 -0.000000
v 0.083149 -0.180000 -0.034442
vt 0.000000 0.000000
vt 1.000000 0.000000
vt 1.000000 1.000000
f 171/171 172/172 173/173
v 0.000000 -0.120000 0.000000
v 0.083149 -0.120000 -0.034442
v 0.090000 -0.120000 -0.000000
vt 0.000000 0.000000
vt 1.000000 0.000000
vt 1.000000 1.000000
f 174/174 175/175 176/176
v 0.090000 -0.180000 -0.000000
v 0.083149 -0.180000 0.034442
v 0.083149 -0.120000 0.034442
v 0.090000 -0.120000 -0.000000
vt 0.250000 0.000000
vt 0.312500 0.000000
vt 0.312500 1.000000
vt 0.250000 1.000000
f 177/177 178/178 179/179 180/180
v 0.000000 -0.180000 0.000000
v 0.083149 -0.180000 0.034442
v 0.090000 -0.180000 -0.000000
vt 0.000000 0.000000
vt 1.000000 0.000000
vt 1.000000 1.000000
f 181/181 182/182 183/183
v 0.000000 -0.120000 0.000000
v 0.090000 -0.120000 -0.000000
v 0.083149 -0.120000 0.034442
vt 0.000000 0.000000
vt 1.000000 0.000000
vt 1.000000 1.000000
f 184/184 185/185 186/186
v 0.083149 -0.180000 0.034442
v 0.063640 -0.180000 0.063640
v 0.063640 -0.120000 0.063640
v 0.083149 -0.120000 0.034442
vt 0.312500 0.000000
vt 0.375000 0.000000
vt 0.375000 1.000000
vt 0.312500 1.000000
f 187/187 188/188 189/189 190/190
v 0.000000 -0.180000 0.000000
v 0.063640 -0.180000 0.063640
v 0.083149 -0.180000 0.034442
vt 0.000000 0.000000
vt 1.000000 0.000000
vt 1.000000 1.000000
f 191/191 192/192 193/193
v 0.000000 -0.120000 0.000000
v 0.083149 -0.120000 0.034442
v 0.063640 -0.120000 0.063640
vt 0.000000 0.000000
vt 1.000000 0.000000
vt 1.000000 1.000000
f 194/194 195/195 196/196
v 0.063640 -0.180000 0.063640
v 0.034442 -0.180000 0.083149
v 0.034442 -0.120000 0.083149
v 0.063640 -0.120000 0.063640
vt 0.375000 0.000000
vt 0.437500 0.000000
vt 0.437500 1.000000
vt 0.375000 1.000000
f 197/197 198/198 199/199 200/200
v 0.000000 -0.180000 0.000000
v 0.034442 -0.180000 0.083149
v 0.063640 -0.180000 0.063640
vt 0.000000 0.000000
vt 1.000000 0.000000
vt 1.000000 1.000000
f 201/201 202/202 203/203
v 0.000000 -0.120000 0.000000
v 0.063640 -0.120000 0.063640
v 0.034442 -0.120000 0.083149
vt 0.000000 0.000000
vt 1.000000 0.000000
vt 1.000000 1.000000
f 204/204 205/205 206/206
v 0.034442 -0.180000 0.083149
v 0.000000 -0.180000 0.090000
v 0.000000 -0.120000 0.090000
v 0.034442 -0.120000 0.083149
vt 0.437500 0.000000
vt 0.500000 0.000000
vt 0.500000 1.000000
vt 0.437500 1.000000
f 207/207 208/208 209/209 210/210
v 0.000000 -0.180000 0.000000
v 0.000000 -0.180000 0.090000
v 0.034442 -0.180000 0.083149
vt 0.000000 0.000000
vt 1.000000 0.000000
vt 1.000000 1.000000
f 211/211 212/212 213/213
v 0.000000 -0.120000 0.000000
v 0.034442 -0.120000 0.083149
v 0.000000 -0.120000 0.090000
vt 0.000000 0.000000
vt 1.000000 0.000000
vt 1.000000 1.000000
f 214/214 215/215 216/216
v 0.000000 -0.180000 0.090000
v -0.034442 -0.180000 0.083149
v -0.034442 -0.120000 0.083149
v 0.000000 -0.120000 0.090000
vt 0.500000 0.000000
vt 0.562500 0.000000
vt 0.562500 1.000000
vt 0.500000 1.000000
f 217/217 218/218 219/219 220/220
v 0.000000 -0.180000 0.000000
v -0.034442 -0.180000 0.083149
v 0.000000 -0.180000 0.090000
vt 0.000000 0.000000
vt 1.000000 0.000000
vt 1.000000 1.000000
f 221/221 222/222 223/223
v 0.000000 -0.120000 0.000000
v 0.000000 -0.120000 0.090000
v -0.034442 -0.120000 0.083149
vt 0.000000 0.000000
vt 1.000000 0.000000
vt 1.000000 1.000000
f 224/224 225/225 226/226
v -0.034442 -0.180000 0.083149
v -0.063640 -0.180000 0.063640
v -0.063640 -0.120000 0.063640
v -0.034442 -0.120000 0.083149
vt 0.562500 0.000000
vt 0.625000 0.000000
vt 0.625000 1.000000
vt 0.562500 1.000000
f 227/227 228/228 229/229 230/230
v 0.000000 -0.180000 0.000000
v -0.063640 -0.180000 0.063640
v -0.034442 -0.180000 0.083149
vt 0.000000 0.000000
vt 1.000000 0.000000
vt 1.000000 1.000000
f 231/231 232/232 233/233
v 0.000000 -0.120000 0.000000
v -0.034442 -0.120000 0.083149
v -0.063640 -0.120000 0.063640
vt 0.000000 0.000000
vt 1.000000 0.000000
vt 1.000000 1.000000
f 234/234 235/235 236/236
v -0.063640 -0.180000 0.063640
v -0.083149 -0.180000 0.034442
v -0.083149 -0.120000 0.034442
v -0.063640 -0.120000 0.063640
vt 0.625000 0.000000
vt 0.687500 0.000000
vt 0.687500 1.000000
vt 0.625000 1.000000
f 237/237 238/238 239/239 240/240
v 0.000000 -0.180000 0.000000
v -0.083149 -0.180000 0.034442
v -0.063640 -0.180000 0.063640
vt 0.000000 0.000000
vt 1.000000 0.000000
vt 1.000000 1.000000
f 241/241 242/242 243/243
v 0.000000 -0.120000 0.000000
v -0.063640 -0.120000 0.063640
v -0.083149 -0.120000 0.034442
vt 0.000000 0.000000
vt 1.000000 0.000000
vt 1.000000 1.000000
f 244/244 245/245 246/246
v -0.083149 -0.180000 0.034442
v -0.090000 -0.180000 0.000000
v -0.090000 -0.120000 0.000000
v -0.083149 -0.120000 0.034442
vt 0.687500 0.000000
vt 0.750000 0.000000
vt 0.750000 1.000000
vt 0.687500 1.000000
f 247/247 248/248 249/249 250/250
v 0.000000 -0.180000 0.000000
v -0.090000 -0.180000 0.000000
v -0.083149 -0.180000 0.034442
vt 0.000000 0.000000
vt 1.000000 0.000000
vt 1.000000 1.000000
f 251/251 252/252 253/253
v 0.000000 -0.120000 0.000000
v -0.083149 -0.120000 0.034442
v -0.090000 -0.120000 0.000000
vt 0.000000 0.000000
vt 1.000000 0.000000
vt 1.000000 1.000000
f 254/254 255/255 256/256
v -0.090000 -0.180000 0.000000
v -0.083149 -0.180000 -0.034442
v -0.083149 -0.120000 -0.034442
v -0.090000 -0.120000 0.000000
vt 0.750000 0.000000
vt 0.812500 0.000000
vt 0.812500 1.000000
vt 0.750000 1.000000
f 257/257 258/258 259/259 260/260
v 0.000000 -0.180000 0.000000
v -0.083149 -0.180000 -0.034442
v -0.090000 -0.180000 0.000000
vt 0.000000 0.000000
vt 1.000000 0.000000
vt 1.000000 1.000000
f 261/261 262/262 263/263
v 0.000000 -0.120000 0.000000
v -0.090000 -0.120000 0.000000
v -0.083149 -0.120000 -0.034442
vt 0.000000 0.000000
vt 1.000000 0.000000
vt 1.000000 1.000000
f 264/264 265/265 266/266
v -0.083149 -0.180000 -0.034442
v -0.063640 -0.180000 -0.063640
v -0.063640 -0.120000 -0.063640
v -0.083149 -0.120000 -0.034442
vt 0.812500 0.000000
vt 0.875000 0.000000
vt 0.875000 1.000000
vt 0.812500 1.000000
f 267/267 268/268 269/269 270/270
v 0.000000 -0.180000 0.000000
v -0.063640 -0.180000 -0.063640
v -0.083149 -0.180000 -0.034442
vt 0.000000 0.000000
vt 1.000000 0.000000
vt 1.000000 1.000000
f 271/271 272/272 273/273
v 0.000000 -0.120000 0.000000
v -0.083149 -0.120000 -0.034442
v -0.063640 -0.120000 -0.063640
vt 0.000000 0.000000
vt 1.000000 0.000000
vt 1.000000 1.000000
f 274/274 275/275 276/276
v -0.063640 -0.180000 -0.063640
v -0.034442 -0.180000 -0.083149
v -0.034442 -0.120000 -0.083149
v -0.063640 -0.120000 -0.063640
vt 0.875000 0.000000
vt 0.937500 0.000000
vt 0.937500 1.000000
vt 0.875000 1.000000
f 277/277 278/278 279/279 280/280
v 0.000000 -0.180000 0.000000
v -0.034442 -0.180000 -0.083149
v -0.063640 -0.180000 -0.063640
vt 0.000000 0.000000
vt 1.000000 0.000000
vt 1.000000 1.000000
f 281/281 282/282 283/283
v 0.000000 -0.120000 0.000000
v -0.063640 -0.120000 -0.063640
v -0.034442 -0.120000 -0.083149
vt 0.000000 0.000000
vt 1.000000 0.000000
vt 1.000000 1.000000
f 284/284 285/285 286/286
v -0.034442 -0.180000 -0.083149
v -0.000000 -0.180000 -0.090000
v -0.000000 -0.120000 -0.090000
v -0.034442 -0.120000 -0.083149
vt 0.937500 0.000000
vt 1.000000 0.000000
vt 1.000000 1.000000
vt 0.937500 1.000000
f 287/287 288/288 289/289 290/290
v 0.000000 -0.180000 0.000000
v -0.000000 -0.180000 -0.090000
v -0.034442 -0.180000 -0.083149
vt 0.000000 0.000000
vt 1.000000 0.000000
vt 1.000000 1.000000
f 291/291 292/292 293/293
v 0.000000 -0.120000 0.000000
v -0.034442 -0.120000 -0.083149
v -0.000000 -0.120000 -0.090000
vt 0.000000 0.000000
vt 1.000000 0.000000
vt 1.000000 1.000000
f 294/294 295/295 296/296
usemtl accent
v 0.000000 0.020000 -0.085000
v 0.032528 0.020000 -0.078530
v 0.032528 0.050000 -0.078530
v 0.000000 0.050000 -0.085000
vt 0.000000 0.000000
vt 0.062500 0.000000
vt 0.062500 1.000000
vt 0.000000 1.000000
f 297/297 298/298 299/299 300/300
v 0.032528 0.020000 -0.078530
v 0.060104 0.020000 -0.060104
v 0.060104 0.050000 -0.060104
v 0.032528 0.050000 -0.078530
vt 0.062500 0.000000
vt 0.125000 0.000000
vt 0.125000 1.000000
vt 0.062500 1.000000
f 301/301 302/302 303/303 304/304
v 0.060104 0.020000 -0.060104
v 0.078530 0.020000 -0.032528
v 0.078530 0.050000 -0.032528
v 0.060104 0.050000 -0.060104
vt 0.125000 0.000000
vt 0.187500 0.000000
vt 0.187500 1.000000
vt 0.125000 1.000000
f 305/305 306/306 307/307 308/308
v 0.078530 0.020000 -0.032528
v 0.085000 0.020000 -0.000000
v 0.085000 0.050000 -0.000000
v 0.078530 0.050000 -0.032528
vt 0.187500 0.000000
vt 0.250000 0.000000
vt 0.250000 1.000000
vt 0.187500 1.000000
f 309/309 310/310 311/311 312/312
v 0.085000 0.020000 -0.000000
v 0.078530 0.020000 0.032528
v 0.078530 0.050000 0.032528
v 0.085000 0.050000 -0.000000
vt 0.250000 0.000000
vt 0.312500 0.000000
vt 0.312500 1.000000
vt 0.250000 1.000000
f 313/313 314/314 315/315 316/316
v 0.078530 0.020000 0.032528
v 0.060104 0.020000 0.060104
v 0.060104 0.050000 0.060104
v 0.078530 0.050000 0.032528
vt 0.312500 0.000000
vt 0.375000 0.000000
vt 0.375000 1.000000
vt 0.312500 1.000000
f 317/317 318/318 319/319 320/320
v 0.060104 0.020000 0.060104
v 0.032528 0.020000 0.078530
v 0.032528 0.050000 0.078530
v 0.060104 0.050000 0.060104
vt 0.375000 0.000000
vt 0.437500 0.000000
vt 0.437500 1.000000
vt 0.375000 1.000000
f 321/321 322/322 323/323 324/324
v 0.032528 0.020000 0.078530
v 0.000000 0.020000 0.085000
v 0.000000 0.050000 0.085000
v 0.032528 0.050000 0.078530
vt 0.437500 0.000000
vt 0.500000 0.000000
vt 0.500000 1.000000
vt 0.437500 1.000000
f 325/325 326/326 327/327 328/328
v 0.000000 0.020000 0.085000
v -0.032528 0.020000 0.078530
v -0.032528 0.050000 0.078530
v 0.000000 0.050000 0.085000
vt 0.500000 0.000000
vt 0.562500 0.000000
vt 0.562500 1.000000
vt 0.500000 1.000000
f 329/329 330/330 331/331 332/332
v -0.032528 0.020000 0.078530
v -0.060104 0.020000 0.060104
v -0.060104 0.050000 0.060104
v -0.032528 0.050000 0.078530
vt 0.562500 0.000000
vt 0.625000 0.000000
vt 0.625000 1.000000
vt 0.562500 1.000000
f 333/333 334/334 335/335 336/336
v -0.060104 0.020000 0.060104
v -0.078530 0.020000 0.032528
v -0.078530 0.050000 0.032528
v -0.060104 0.050000 0.060104
vt 0.625000 0.000000
vt 0.687500 0.000000
vt 0.687500 1.000000
vt 0.625000 1.000000
f 337/337 338/338 339/339 340/340
v -0.078530 0.020000 0.032528
v -0.085000 0.020000 0.000000
v -0.085000 0.050000 0.000000
v -0.078530 0.050000 0.032528
vt 0.687500 0.000000
vt 0.750000 0.000000
vt 0.750000 1.000000
vt 0.687500 1.000000
f 341/341 342/342 343/343 344/344
v -0.085000 0.020000 0.000000
v -0.078530 0.020000 -0.032528
v -0.078530 0.050000 -0.032528
v -0.085000 0.050000 0.000000
vt 0.750000 0.000000
vt 0.812500 0.000000
vt 0.812500 1.000000
vt 0.750000 1.000000
f 345/345 346/346 347/347 348/348
v -0.078530 0.020000 -0.032528
v -0.060104 0.020000 -0.060104
v -0.060104 0.050000 -0.060104
v -0.078530 0.050000 -0.032528
vt 0.812500 0.000000
vt 0.875000 0.000000
vt 0.875000 1.000000
vt 0.812500 1.000000
f 349/349 350/350 351/351 352/352
v -0.060104 0.020000 -0.060104
v -0.032528 0.020000 -0.078530
v -0.032528 0.050000 -0.078530
v -0.060104 0.050000 -0.060104
vt 0.875000 0.000000
vt 0.937500 0.000000
vt 0.937500 1.000000
vt 0.875000 1.000000
f 353/353 354/354 355/355 356/356
v -0.032528 0.020000 -0.078530
v -0.000000 0.020000 -0.085000
v -0.000000 0.050000 -0.085000
v -0.032528 0.050000 -0.078530
vt 0.937500 0.000000
vt 1.000000 0.000000
vt 1.000000 1.000000
vt 0.937500 1.000000
f 357/357 358/358 359/359 360/360
