mtllib vault_door.mtl
o vault_door
s 1
usemtl yellow
v 0.000000 0.000000 0.000000
v 2.000000 0.000000 0.000000
v 2.000000 3.000000 0.000000
v 0.000000 3.000000 0.000000
vt 0.000000 0.000000
vt 1.000000 0.000000
vt 1.000000 1.000000
vt 0.000000 1.000000
f 1/1 2/2 3/3 4/4
v 2.000000 0.000000 0.420000
v 0.000000 0.000000 0.420000
v 0.000000 3.000000 0.420000
v 2.000000 3.000000 0.420000
vt 0.000000 0.000000
vt 1.000000 0.000000
vt 1.000000 1.000000
vt 0.000000 1.000000
f 5/5 6/6 7/7 8/8
v 0.000000 0.000000 0.420000
v 0.000000 0.000000 0.000000
v 0.000000 3.000000 0.000000
v 0.000000 3.000000 0.420000
vt 0.000000 0.000000
vt 1.000000 0.000000
vt 1.000000 1.000000
vt 0.000000 1.000000
f 9/9 10/10 11/11 12/12
v 2.000000 0.000000 0.000000
v 2.000000 0.000000 0.420000
v 2.000000 3.000000 0.420000
v 2.000000 3.000000 0.000000
vt 0.000000 0.000000
vt 1.000000 0.000000
vt 1.000000 1.000000
vt 0.000000 1.000000
f 13/13 14/14 15/15 16/16
v 0.000000 3.000000 0.000000
v 2.000000 3.000000 0.000000
v 2.000000 3.000000 0.420000
v 0.000000 3.000000 0.420000
vt 0.000000 0.000000
vt 1.000000 0.000000
vt 1.000000 1.000000
vt 0.000000 1.000000
f 17/17 18/18 19/19 20/20
v 0.000000 0.000000 0.420000
v 2.000000 0.000000 0.420000
v 2.000000 0.000000 0.000000
v 0.000000 0.000000 0.000000
vt 0.000000 0.000000
vt 1.000000 0.000000
vt 1.000000 1.000000
vt 0.000000 1.000000
f 21/21 22/22 23/23 24/24
usemtl dark
v 0.040000 0.060000 0.030000
v 1.960000 0.060000 0.030000
v 1.960000 2.940000 0.030000
v 0.040000 2.940000 0.030000
vt 0.000000 0.000000
vt 1.000000 0.000000
vt 1.000000 1.000000
vt 0.000000 1.000000
f 25/25 26/26 27/27 28/28
v 1.960000 0.060000 0.390000
v 0.040000 0.060000 0.390000
v 0.040000 2.940000 0.390000
v 1.960000 2.940000 0.390000
vt 0.000000 0.000000
vt 1.000000 0.000000
vt 1.000000 1.000000
vt 0.000000 1.000000
f 29/29 30/30 31/31 32/32
v 0.040000 0.060000 0.390000
v 0.040000 0.060000 0.030000
v 0.040000 2.940000 0.030000
v 0.040000 2.940000 0.390000
vt 0.000000 0.000000
vt 1.000000 0.000000
vt 1.000000 1.000000
vt 0.000000 1.000000
f 33/33 34/34 35/35 36/36
v 1.960000 0.060000 0.030000
v 1.960000 0.060000 0.390000
v 1.960000 2.940000 0.390000
v 1.960000 2.940000 0.030000
vt 0.000000 0.000000
vt 1.000000 0.000000
vt 1.000000 1.000000
vt 0.000000 1.000000
f 37/37 38/38 39/39 40/40
v 0.040000 2.940000 0.030000
v 1.960000 2.940000 0.030000
v 1.960000 2.940000 0.390000
v 0.040000 2.940000 0.390000
vt 0.000000 0.000000
vt 1.000000 0.000000
vt 1.000000 1.000000
vt 0.000000 1.000000
f 41/41 42/42 43/43 44/44
v 0.040000 0.060000 0.390000
v 1.960000 0.060000 0.390000
v 1.960000 0.060000 0.030000
v 0.040000 0.060000 0.030000
vt 0.000000 0.000000
vt 1.000000 0.000000
vt 1.000000 1.000000
vt 0.000000 1.000000
f 45/45 46/46 47/47 48/48
usemtl body
v 0.680000 1.400000 0.168000
v 0.690530 1.493459 0.168000
v 0.690530 1.493459 0.480000
v 0.680000 1.400000 0.480000
vt 0.000000 0.000000
vt 0.035714 0.000000
vt 0.035714 1.000000
vt 0.000000 1.000000
f 49/49 50/50 51/51 52/52
v 1.100000 1.400000 0.168000
v 0.690530 1.493459 0.168000
v 0.680000 1.400000 0.168000
vt 0.000000 0.000000
vt 1.000000 0.000000
vt 1.000000 1.000000
f 53/53 54/54 55/55
v 1.100000 1.400000 0.480000
v 0.680000 1.400000 0.480000
v 0.690530 1.493459 0.480000
vt 0.000000 0.000000
vt 1.000000 0.000000
vt 1.000000 1.000000
f 56/56 57/57 58/58
v 0.690530 1.493459 0.168000
v 0.721593 1.582231 0.168000
v 0.721593 1.582231 0.480000
v 0.690530 1.493459 0.480000
vt 0.035714 0.000000
vt 0.071429 0.000000
vt 0.071429 1.000000
vt 0.035714 1.000000
f 59/59 60/60 61/61 62/62
v 1.100000 1.400000 0.168000
v 0.721593 1.582231 0.168000
v 0.690530 1.493459 0.168000
vt 0.000000 0.000000
vt 1.000000 0.000000
vt 1.000000 1.000000
f 63/63 64/64 65/65
v 1.100000 1.400000 0.480000
v 0.690530 1.493459 0.480000
v 0.721593 1.582231 0.480000
vt 0.000000 0.000000
vt 1.000000 0.000000
vt 1.000000 1.000000
f 66/66 67/67 68/68
v 0.721593 1.582231 0.168000
v 0.771631 1.661866 0.168000
v 0.771631 1.661866 0.480000
v 0.721593 1.582231 0.480000
vt 0.071429 0.000000
vt 0.107143 0.000000
vt 0.107143 1.000000
vt 0.071429 1.000000
f 69/69 70/70 71/71 72/72
v 1.100000 1.400000 0.168000
v 0.771631 1.661866 0.168000
v 0.721593 1.582231 0.168000
vt 0.000000 0.000000
vt 1.000000 0.000000
vt 1.000000 1.000000
f 73/73 74/74 75/75
v 1.100000 1.400000 0.480000
v 0.721593 1.582231 0.480000
v 0.771631 1.661866 0.480000
vt 0.000000 0.000000
vt 1.000000 0.000000
vt 1.000000 1.000000
f 76/76 77/77 78/78
v 0.771631 1.661866 0.168000
v 0.838134 1.728369 0.168000
v 0.838134 1.728369 0.480000
v 0.771631 1.661866 0.480000
vt 0.107143 0.000000
vt 0.142857 0.000000
vt 0.142857 1.000000
vt 0.107143 1.000000
f 79/79 80/80 81/81 82/82
v 1.100000 1.400000 0.168000
v 0.838134 1.728369 0.168000
v 0.771631 1.661866 0.168000
vt 0.000000 0.000000
vt 1.000000 0.000000
vt 1.000000 1.000000
f 83/83 84/84 85/85
v 1.100000 1.400000 0.480000
v 0.771631 1.661866 0.480000
v 0.838134 1.728369 0.480000
vt 0.000000 0.000000
vt 1.000000 0.000000
vt 1.000000 1.000000
f 86/86 87/87 88/88
v 0.838134 1.728369 0.168000
v 0.917769 1.778407 0.168000
v 0.917769 1.778407 0.480000
v 0.838134 1.728369 0.480000
vt 0.142857 0.000000
vt 0.178571 0.000000
vt 0.178571 1.000000
vt 0.142857 1.000000
f 89/89 90/90 91/91 92/92
v 1.100000 1.400000 0.168000
v 0.917769 1.778407 0.168000
v 0.838134 1.728369 0.168000
vt 0.000000 0.000000
vt 1.000000 0.000000
vt 1.000000 1.000000
f 93/93 94/94 95/95
v 1.100000 1.400000 0.480000
v 0.838134 1.728369 0.480000
v 0.917769 1.778407 0.480000
vt 0.000000 0.000000
vt 1.000000 0.000000
vt 1.000000 1.000000
f 96/96 97/97 98/98
v 0.917769 1.778407 0.168000
v 1.006541 1.809470 0.168000
v 1.006541 1.809470 0.480000
v 0.917769 1.778407 0.480000
vt 0.178571 0.000000
vt 0.214286 0.000000
vt 0.214286 1.000000
vt 0.178571 1.000000
f 99/99 100/100 101/101 102/102
v 1.100000 1.400000 0.168000
v 1.006541 1.809470 0.168000
v 0.917769 1.778407 0.168000
vt 0.000000 0.000000
vt 1.000000 0.000000
vt 1.000000 1.000000
f 103/103 104/104 105/105
v 1.100000 1.400000 0.480000
v 0.917769 1.778407 0.480000
v 1.006541 1.809470 0.480000
vt 0.000000 0.000000
vt 1.000000 0.000000
vt 1.000000 1.000000
f 106/106 107/107 108/108
v 1.006541 1.809470 0.168000
v 1.100000 1.820000 0.168000
v 1.100000 1.820000 0.480000
v 1.006541 1.809470 0.480000
vt 0.214286 0.000000
vt 0.250000 0.000000
vt 0.250000 1.000000
vt 0.214286 1.000000
f 109/109 110/110 111/111 112/112
v 1.100000 1.400000 0.168000
v 1.100000 1.820000 0.168000
v 1.006541 1.809470 0.168000
vt 0.000000 0.000000
vt 1.000000 0.000000
vt 1.000000 1.000000
f 113/113 114/114 115/115
v 1.100000 1.400000 0.480000
v 1.006541 1.809470 0.480000
v 1.100000 1.820000 0.480000
vt 0.000000 0.000000
vt 1.000000 0.000000
vt 1.000000 1.000000
f 116/116 117/117 118/118
v 1.100000 1.820000 0.168000
v 1.193459 1.809470 0.168000
v 1.193459 1.809470 0.480000
v 1.100000 1.820000 0.480000
vt 0.250000 0.000000
vt 0.285714 0.000000
vt 0.285714 1.000000
vt 0.250000 1.000000
f 119/119 120/120 121/121 122/122
v 1.100000 1.400000 0.168000
v 1.193459 1.809470 0.168000
v 1.100000 1.820000 0.168000
vt 0.000000 0.000000
vt 1.000000 0.000000
vt 1.000000 1.000000
f 123/123 124/124 125/125
v 1.100000 1.400000 0.480000
v 1.100000 1.820000 0.480000
v 1.193459 1.809470 0.480000
vt 0.000000 0.000000
vt 1.000000 0.000000
vt 1.000000 1.000000
f 126/126 127/127 128/128
v 1.193459 1.809470 0.168000
v 1.282231 1.778407 0.168000
v 1.282231 1.778407 0.480000
v 1.193459 1.809470 0.480000
vt 0.285714 0.000000
vt 0.321429 0.000000
vt 0.321429 1.000000
vt 0.285714 1.000000
f 129/129 130/130 131/131 132/132
v 1.100000 1.400000 0.168000
v 1.282231 1.778407 0.168000
v 1.193459 1.809470 0.168000
vt 0.000000 0.000000
vt 1.000000 0.000000
vt 1.000000 1.000000
f 133/133 134/134 135/135
v 1.100000 1.400000 0.480000
v 1.193459 1.809470 0.480000
v 1.282231 1.778407 0.480000
vt 0.000000 0.000000
vt 1.000000 0.000000
vt 1.000000 1.000000
f 136/136 137/137 138/138
v 1.282231 1.778407 0.168000
v 1.361866 1.728369 0.168000
v 1.361866 1.728369 0.480000
v 1.282231 1.778407 0.480000
vt 0.321429 0.000000
vt 0.357143 0.000000
vt 0.357143 1.000000
vt 0.321429 1.000000
f 139/139 140/140 141/141 142/142
v 1.100000 1.400000 0.168000
v 1.361866 1.728369 0.168000
v 1.282231 1.778407 0.168000
vt 0.000000 0.000000
vt 1.000000 0.000000
vt 1.000000 1.000000
f 143/143 144/144 145/145
v 1.100000 1.400000 0.480000
v 1.282231 1.778407 0.480000
v 1.361866 1.728369 0.480000
vt 0.000000 0.000000
vt 1.000000 0.000000
vt 1.000000 1.000000
f 146/146 147/147 148/148
v 1.361866 1.728369 0.168000
v 1.428369 1.661866 0.168000
v 1.428369 1.661866 0.480000
v 1.361866 1.728369 0.480000
vt 0.357143 0.000000
vt 0.392857 0.000000
vt 0.392857 1.000000
vt 0.357143 1.000000
f 149/149 150/150 151/151 152/152
v 1.100000 1.400000 0.168000
v 1.428369 1.661866 0.168000
v 1.361866 1.728369 0.168000
vt 0.000000 0.000000
vt 1.000000 0.000000
vt 1.000000 1.000000
f 153/153 154/154 155/155
v 1.100000 1.400000 0.480000
v 1.361866 1.728369 0.480000
v 1.428369 1.661866 0.480000
vt 0.000000 0.000000
vt 1.000000 0.000000
vt 1.000000 1.000000
f 156/156 157/157 158/158
v 1.428369 1.661866 0.168000
v 1.478407 1.582231 0.168000
v 1.478407 1.582231 0.480000
v 1.428369 1.661866 0.480000
vt 0.392857 0.000000
vt 0.428571 0.000000
vt 0.428571 1.000000
vt 0.392857 1.000000
f 159/159 160/160 161/161 162/162
v 1.100000 1.400000 0.168000
v 1.478407 1.582231 0.168000
v 1.428369 1.661866 0.168000
vt 0.000000 0.000000
vt 1.000000 0.000000
vt 1.000000 1.000000
f 163/163 164/164 165/165
v 1.100000 1.400000 0.480000
v 1.428369 1.661866 0.480000
v 1.478407 1.582231 0.480000
vt 0.000000 0.000000
vt 1.000000 0.000000
vt 1.000000 1.000000
f 166/166 167/167 168/168
v 1.478407 1.582231 0.168000
v 1.509470 1.493459 0.168000
v 1.509470 1.493459 0.480000
v 1.478407 1.582231 0.480000
vt 0.428571 0.000000
vt 0.464286 0.000000
vt 0.464286 1.000000
vt 0.428571 1.000000
f 169/169 170/170 171/171 172/172
v 1.100000 1.400000 0.168000
v 1.509470 1.493459 0.168000
v 1.478407 1.582231 0.168000
vt 0.000000 0.000000
vt 1.000000 0.000000
vt 1.000000 1.000000
f 173/173 174/174 175/175
v 1.100000 1.400000 0.480000
v 1.478407 1.582231 0.480000
v 1.509470 1.493459 0.480000
vt 0.000000 0.000000
vt 1.000000 0.000000
vt 1.000000 1.000000
f 176/176 177/177 178/178
v 1.509470 1.493459 0.168000
v 1.520000 1.400000 0.168000
v 1.520000 1.400000 0.480000
v 1.509470 1.493459 0.480000
vt 0.464286 0.000000
vt 0.500000 0.000000
vt 0.500000 1.000000
vt 0.464286 1.000000
f 179/179 180/180 181/181 182/182
v 1.100000 1.400000 0.168000
v 1.520000 1.400000 0.168000
v 1.509470 1.493459 0.168000
vt 0.000000 0.000000
vt 1.000000 0.000000
vt 1.000000 1.000000
f 183/183 184/184 185/185
v 1.100000 1.400000 0.480000
v 1.509470 1.493459 0.480000
v 1.520000 1.400000 0.480000
vt 0.000000 0.000000
vt 1.000000 0.000000
vt 1.000000 1.000000
f 186/186 187/187 188/188
v 1.520000 1.400000 0.168000
v 1.509470 1.306541 0.168000
v 1.509470 1.306541 0.480000
v 1.520000 1.400000 0.480000
vt 0.500000 0.000000
vt 0.535714 0.000000
vt 0.535714 1.000000
vt 0.500000 1.000000
f 189/189 190/190 191/191 192/192
v 1.100000 1.400000 0.168000
v 1.509470 1.306541 0.168000
v 1.520000 1.400000 0.168000
vt 0.000000 0.000000
vt 1.000000 0.000000
vt 1.000000 1.000000
f 193/193 194/194 195/195
v 1.100000 1.400000 0.480000
v 1.520000 1.400000 0.480000
v 1.509470 1.306541 0.480000
vt 0.000000 0.000000
vt 1.000000 0.000000
vt 1.000000 1.000000
f 196/196 197/197 198/198
v 1.509470 1.306541 0.168000
v 1.478407 1.217769 0.168000
v 1.478407 1.217769 0.480000
v 1.509470 1.306541 0.480000
vt 0.535714 0.000000
vt 0.571429 0.000000
vt 0.571429 1.000000
vt 0.535714 1.000000
f 199/199 200/200 201/201 202/202
v 1.100000 1.400000 0.168000
v 1.478407 1.217769 0.168000
v 1.509470 1.306541 0.168000
vt 0.000000 0.000000
vt 1.000000 0.000000
vt 1.000000 1.000000
f 203/203 204/204 205/205
v 1.100000 1.400000 0.480000
v 1.509470 1.306541 0.480000
v 1.478407 1.217769 0.480000
vt 0.000000 0.000000
vt 1.000000 0.000000
vt 1.000000 1.000000
f 206/206 207/207 208/208
v 1.478407 1.217769 0.168000
v 1.428369 1.138134 0.168000
v 1.428369 1.138134 0.480000
v 1.478407 1.217769 0.480000
vt 0.571429 0.000000
vt 0.607143 0.000000
vt 0.607143 1.000000
vt 0.571429 1.000000
f 209/209 210/210 211/211 212/212
v 1.100000 1.400000 0.168000
v 1.428369 1.138134 0.168000
v 1.478407 1.217769 0.168000
vt 0.000000 0.000000
vt 1.000000 0.000000
vt 1.000000 1.000000
f 213/213 214/214 215/215
v 1.100000 1.400000 0.480000
v 1.478407 1.217769 0.480000
v 1.428369 1.138134 0.480000
vt 0.000000 0.000000
vt 1.000000 0.000000
vt 1.000000 1.000000
f 216/216 217/217 218/218
v 1.428369 1.138134 0.168000
v 1.361866 1.071631 0.168000
v 1.361866 1.071631 0.480000
v 1.428369 1.138134 0.480000
vt 0.607143 0.000000
vt 0.642857 0.000000
vt 0.642857 1.000000
vt 0.607143 1.000000
f 219/219 220/220 221/221 222/222
v 1.100000 1.400000 0.168000
v 1.361866 1.071631 0.168000
v 1.428369 1.138134 0.168000
vt 0.000000 0.000000
vt 1.000000 0.000000
vt 1.000000 1.000000
f 223/223 224/224 225/225
v 1.100000 1.400000 0.480000
v 1.428369 1.138134 0.480000
v 1.361866 1.071631 0.480000
vt 0.000000 0.000000
vt 1.000000 0.000000
vt 1.000000 1.000000
f 226/226 227/227 228/228
v 1.361866 1.071631 0.168000
v 1.282231 1.021593 0.168000
v 1.282231 1.021593 0.480000
v 1.361866 1.071631 0.480000
vt 0.642857 0.000000
vt 0.678571 0.000000
vt 0.678571 1.000000
vt 0.642857 1.000000
f 229/229 230/230 231/231 232/232
v 1.100000 1.400000 0.168000
v 1.282231 1.021593 0.168000
v 1.361866 1.071631 0.168000
vt 0.000000 0.000000
vt 1.000000 0.000000
vt 1.000000 1.000000
f 233/233 234/234 235/235
v 1.100000 1.400000 0.480000
v 1.361866 1.071631 0.480000
v 1.282231 1.021593 0.480000
vt 0.000000 0.000000
vt 1.000000 0.000000
vt 1.000000 1.000000
f 236/236 237/237 238/238
v 1.282231 1.021593 0.168000
v 1.193459 0.990530 0.168000
v 1.193459 0.990530 0.480000
v 1.282231 1.021593 0.480000
vt 0.678571 0.000000
vt 0.714286 0.000000
vt 0.714286 1.000000
vt 0.678571 1.000000
f 239/239 240/240 241/241 242/242
v 1.100000 1.400000 0.168000
v 1.193459 0.990530 0.168000
v 1.282231 1.021593 0.168000
vt 0.000000 0.000000
vt 1.000000 0.000000
vt 1.000000 1.000000
f 243/243 244/244 245/245
v 1.100000 1.400000 0.480000
v 1.282231 1.021593 0.480000
v 1.193459 0.990530 0.480000
vt 0.000000 0.000000
vt 1.000000 0.000000
vt 1.000000 1.000000
f 246/246 247/247 248/248
v 1.193459 0.990530 0.168000
v 1.100000 0.980000 0.168000
v 1.100000 0.980000 0.480000
v 1.193459 0.990530 0.480000
vt 0.714286 0.000000
vt 0.750000 0.000000
vt 0.750000 1.000000
vt 0.714286 1.000000
f 249/249 250/250 251/251 252/252
v 1.100000 1.400000 0.168000
v 1.100000 0.980000 0.168000
v 1.193459 0.990530 0.168000
vt 0.000000 0.000000
vt 1.000000 0.000000
vt 1.000000 1.000000
f 253/253 254/254 255/255
v 1.100000 1.400000 0.480000
v 1.193459 0.990530 0.480000
v 1.100000 0.980000 0.480000
vt 0.000000 0.000000
vt 1.000000 0.000000
vt 1.000000 1.000000
f 256/256 257/257 258/258
v 1.100000 0.980000 0.168000
v 1.006541 0.990530 0.168000
v 1.006541 0.990530 0.480000
v 1.100000 0.980000 0.480000
vt 0.750000 0.000000
vt 0.785714 0.000000
vt 0.785714 1.000000
vt 0.750000 1.000000
f 259/259 260/260 261/261 262/262
v 1.100000 1.400000 0.168000
v 1.006541 0.990530 0.168000
v 1.100000 0.980000 0.168000
vt 0.000000 0.000000
vt 1.000000 0.000000
vt 1.000000 1.000000
f 263/263 264/264 265/265
v 1.100000 1.400000 0.480000
v 1.100000 0.980000 0.480000
v 1.006541 0.990530 0.480000
vt 0.000000 0.000000
vt 1.000000 0.000000
vt 1.000000 1.000000
f 266/266 267/267 268/268
v 1.006541 0.990530 0.168000
v 0.917769 1.021593 0.168000
v 0.917769 1.021593 0.480000
v 1.006541 0.990530 0.480000
vt 0.785714 0.000000
vt 0.821429 0.000000
vt 0.821429 1.000000
vt 0.785714 1.000000
f 269/269 270/270 271/271 272/272
v 1.100000 1.400000 0.168000
v 0.917769 1.021593 0.168000
v 1.006541 0.990530 0.168000
vt 0.000000 0.000000
vt 1.000000 0.000000
vt 1.000000 1.000000
f 273/273 274/274 275/275
v 1.100000 1.400000 0.480000
v 1.006541 0.990530 0.480000
v 0.917769 1.021593 0.480000
vt 0.000000 0.000000
vt 1.000000 0.000000
vt 1.000000 1.000000
f 276/276 277/277 278/278
v 0.917769 1.021593 0.168000
v 0.838134 1.071631 0.168000
v 0.838134 1.071631 0.480000
v 0.917769 1.021593 0.480000
vt 0.821429 0.000000
vt 0.857143 0.000000
vt 0.857143 1.000000
vt 0.821429 1.000000
f 279/279 280/280 281/281 282/282
v 1.100000 1.400000 0.168000
v 0.838134 1.071631 0.168000
v 0.917769 1.021593 0.168000
vt 0.000000 0.000000
vt 1.000000 0.000000
vt 1.000000 1.000000
f 283/283 284/284 285/285
v 1.100000 1.400000 0.480000
v 0.917769 1.021593 0.480000
v 0.838134 1.071631 0.480000
vt 0.000000 0.000000
vt 1.000000 0.000000
vt 1.000000 1.000000
f 286/286 287/287 288/288
v 0.838134 1.071631 0.168000
v 0.771631 1.138134 0.168000
v 0.771631 1.138134 0.480000
v 0.838134 1.071631 0.480000
vt 0.857143 0.000000
vt 0.892857 0.000000
vt 0.892857 1.000000
vt 0.857143 1.000000
f 289/289 290/290 291/291 292/292
v 1.100000 1.400000 0.168000
v 0.771631 1.138134 0.168000
v 0.838134 1.071631 0.168000
vt 0.000000 0.000000
vt 1.000000 0.000000
vt 1.000000 1.000000
f 293/293 294/294 295/295
v 1.100000 1.400000 0.480000
v 0.838134 1.071631 0.480000
v 0.771631 1.138134 0.480000
vt 0.000000 0.000000
vt 1.000000 0.000000
vt 1.000000 1.000000
f 296/296 297/297 298/298
v 0.771631 1.138134 0.168000
v 0.721593 1.217769 0.168000
v 0.721593 1.217769 0.480000
v 0.771631 1.138134 0.480000
vt 0.892857 0.000000
vt 0.928571 0.000000
vt 0.928571 1.000000
vt 0.892857 1.000000
f 299/299 300/300 301/301 302/302
v 1.100000 1.400000 0.168000
v 0.721593 1.217769 0.168000
v 0.771631 1.138134 0.168000
vt 0.000000 0.000000
vt 1.000000 0.000000
vt 1.000000 1.000000
f 303/303 304/304 305/305
v 1.100000 1.400000 0.480000
v 0.771631 1.138134 0.480000
v 0.721593 1.217769 0.480000
vt 0.000000 0.000000
vt 1.000000 0.000000
vt 1.000000 1.000000
f 306/306 307/307 308/308
v 0.721593 1.217769 0.168000
v 0.690530 1.306541 0.168000
v 0.690530 1.306541 0.480000
v 0.721593 1.217769 0.480000
vt 0.928571 0.000000
vt 0.964286 0.000000
vt 0.964286 1.000000
vt 0.928571 1.000000
f 309/309 310/310 311/311 312/312
v 1.100000 1.400000 0.168000
v 0.690530 1.306541 0.168000
v 0.721593 1.217769 0.168000
vt 0.000000 0.000000
vt 1.000000 0.000000
vt 1.000000 1.000000
f 313/313 314/314 315/315
v 1.100000 1.400000 0.480000
v 0.721593 1.217769 0.480000
v 0.690530 1.306541 0.480000
vt 0.000000 0.000000
vt 1.000000 0.000000
vt 1.000000 1.000000
f 316/316 317/317 318/318
v 0.690530 1.306541 0.168000
v 0.680000 1.400000 0.168000
v 0.680000 1.400000 0.480000
v 0.690530 1.306541 0.480000
vt 0.964286 0.000000
vt 1.000000 0.000000
vt 1.000000 1.000000
vt 0.964286 1.000000
f 319/319 320/320 321/321 322/322
v 1.100000 1.400000 0.168000
v 0.680000 1.400000 0.168000
v 0.690530 1.306541 0.168000
vt 0.000000 0.000000
vt 1.000000 0.000000
vt 1.000000 1.000000
f 323/323 324/324 325/325
v 1.100000 1.400000 0.480000
v 0.690530 1.306541 0.480000
v 0.680000 1.400000 0.480000
vt 0.000000 0.000000
vt 1.000000 0.000000
vt 1.000000 1.000000
f 326/326 327/327 328/328
usemtl yellow
v 0.770000 1.400000 0.460000
v 0.795120 1.526286 0.460000
v 0.803942 1.522631 0.489389
v 0.779549 1.400000 0.489389
vt 0.000000 0.000000
vt 1.000000 0.000000
vt 1.000000 1.000000
vt 0.000000 1.000000
f 329/329 330/330 331/331 332/332
v 0.779549 1.400000 0.489389
v 0.803942 1.522631 0.489389
v 0.827039 1.513064 0.507553
v 0.804549 1.400000 0.507553
vt 0.000000 0.000000
vt 1.000000 0.000000
vt 1.000000 1.000000
vt 0.000000 1.000000
f 333/333 334/334 335/335 336/336
v 0.804549 1.400000 0.507553
v 0.827039 1.513064 0.507553
v 0.855588 1.501239 0.507553
v 0.835451 1.400000 0.507553
vt 0.000000 0.000000
vt 1.000000 0.000000
vt 1.000000 1.000000
vt 0.000000 1.000000
f 337/337 338/338 339/339 340/340
v 0.835451 1.400000 0.507553
v 0.855588 1.501239 0.507553
v 0.878685 1.491671 0.489389
v 0.860451 1.400000 0.489389
vt 0.000000 0.000000
vt 1.000000 0.000000
vt 1.000000 1.000000
vt 0.000000 1.000000
f 341/341 342/342 343/343 344/344
v 0.860451 1.400000 0.489389
v 0.878685 1.491671 0.489389
v 0.887508 1.488017 0.460000
v 0.870000 1.400000 0.460000
vt 0.000000 0.000000
vt 1.000000 0.000000
vt 1.000000 1.000000
vt 0.000000 1.000000
f 345/345 346/346 347/347 348/348
v 0.870000 1.400000 0.460000
v 0.887508 1.488017 0.460000
v 0.878685 1.491671 0.430611
v 0.860451 1.400000 0.430611
vt 0.000000 0.000000
vt 1.000000 0.000000
vt 1.000000 1.000000
vt 0.000000 1.000000
f 349/349 350/350 351/351 352/352
v 0.860451 1.400000 0.430611
v 0.878685 1.491671 0.430611
v 0.855588 1.501239 0.412447
v 0.835451 1.400000 0.412447
vt 0.000000 0.000000
vt 1.000000 0.000000
vt 1.000000 1.000000
vt 0.000000 1.000000
f 353/353 354/354 355/355 356/356
v 0.835451 1.400000 0.412447
v 0.855588 1.501239 0.412447
v 0.827039 1.513064 0.412447
v 0.804549 1.400000 0.412447
vt 0.000000 0.000000
vt 1.000000 0.000000
vt 1.000000 1.000000
vt 0.000000 1.000000
f 357/357 358/358 359/359 360/360
v 0.804549 1.400000 0.412447
v 0.827039 1.513064 0.412447
v 0.803942 1.522631 0.430611
v 0.779549 1.400000 0.430611
vt 0.000000 0.000000
vt 1.000000 0.000000
vt 1.000000 1.000000
vt 0.000000 1.000000
f 361/361 362/362 363/363 364/364
v 0.779549 1.400000 0.430611
v 0.803942 1.522631 0.430611
v 0.795120 1.526286 0.460000
v 0.770000 1.400000 0.460000
vt 0.000000 0.000000
vt 1.000000 0.000000
vt 1.000000 1.000000
vt 0.000000 1.000000
f 365/365 366/366 367/367 368/368
v 0.795120 1.526286 0.460000
v 0.866655 1.633345 0.460000
v 0.873407 1.626593 0.489389
v 0.803942 1.522631 0.489389
vt 0.000000 0.000000
vt 1.000000 0.000000
vt 1.000000 1.000000
vt 0.000000 1.000000
f 369/369 370/370 371/371 372/372
v 0.803942 1.522631 0.489389
v 0.873407 1.626593 0.489389
v 0.891085 1.608915 0.507553
v 0.827039 1.513064 0.507553
vt 0.000000 0.000000
vt 1.000000 0.000000
vt 1.000000 1.000000
vt 0.000000 1.000000
f 373/373 374/374 375/375 376/376
v 0.827039 1.513064 0.507553
v 0.891085 1.608915 0.507553
v 0.912936 1.587064 0.507553
v 0.855588 1.501239 0.507553
vt 0.000000 0.000000
vt 1.000000 0.000000
vt 1.000000 1.000000
vt 0.000000 1.000000
f 377/377 378/378 379/379 380/380
v 0.855588 1.501239 0.507553
v 0.912936 1.587064 0.507553
v 0.930613 1.569387 0.489389
v 0.878685 1.491671 0.489389
vt 0.000000 0.000000
vt 1.000000 0.000000
vt 1.000000 1.000000
vt 0.000000 1.000000
f 381/381 382/382 383/383 384/384
v 0.878685 1.491671 0.489389
v 0.930613 1.569387 0.489389
v 0.937365 1.562635 0.460000
v 0.887508 1.488017 0.460000
vt 0.000000 0.000000
vt 1.000000 0.000000
vt 1.000000 1.000000
vt 0.000000 1.000000
f 385/385 386/386 387/387 388/388
v 0.887508 1.488017 0.460000
v 0.937365 1.562635 0.460000
v 0.930613 1.569387 0.430611
v 0.878685 1.491671 0.430611
vt 0.000000 0.000000
vt 1.000000 0.000000
vt 1.000000 1.000000
vt 0.000000 1.000000
f 389/389 390/390 391/391 392/392
v 0.878685 1.491671 0.430611
v 0.930613 1.569387 0.430611
v 0.912936 1.587064 0.412447
v 0.855588 1.501239 0.412447
vt 0.000000 0.000000
vt 1.000000 0.000000
vt 1.000000 1.000000
vt 0.000000 1.000000
f 393/393 394/394 395/395 396/396
v 0.855588 1.501239 0.412447
v 0.912936 1.587064 0.412447
v 0.891085 1.608915 0.412447
v 0.827039 1.513064 0.412447
vt 0.000000 0.000000
vt 1.000000 0.000000
vt 1.000000 1.000000
vt 0.000000 1.000000
f 397/397 398/398 399/399 400/400
v 0.827039 1.513064 0.412447
v 0.891085 1.608915 0.412447
v 0.873407 1.626593 0.430611
v 0.803942 1.522631 0.430611
vt 0.000000 0.000000
vt 1.000000 0.000000
vt 1.000000 1.000000
vt 0.000000 1.000000
f 401/401 402/402 403/403 404/404
v 0.803942 1.522631 0.430611
v 0.873407 1.626593 0.430611
v 0.866655 1.633345 0.460000
v 0.795120 1.526286 0.460000
vt 0.000000 0.000000
vt 1.000000 0.000000
vt 1.000000 1.000000
vt 0.000000 1.000000
f 405/405 406/406 407/407 408/408
v 0.866655 1.633345 0.460000
v 0.973714 1.704880 0.460000
v 0.977369 1.696058 0.489389
v 0.873407 1.626593 0.489389
vt 0.000000 0.000000
vt 1.000000 0.000000
vt 1.000000 1.000000
vt 0.000000 1.000000
f 409/409 410/410 411/411 412/412
v 0.873407 1.626593 0.489389
v 0.977369 1.696058 0.489389
v 0.986936 1.672961 0.507553
v 0.891085 1.608915 0.507553
vt 0.000000 0.000000
vt 1.000000 0.000000
vt 1.000000 1.000000
vt 0.000000 1.000000
f 413/413 414/414 415/415 416/416
v 0.891085 1.608915 0.507553
v 0.986936 1.672961 0.507553
v 0.998761 1.644412 0.507553
v 0.912936 1.587064 0.507553
vt 0.000000 0.000000
vt 1.000000 0.000000
vt 1.000000 1.000000
vt 0.000000 1.000000
f 417/417 418/418 419/419 420/420
v 0.912936 1.587064 0.507553
v 0.998761 1.644412 0.507553
v 1.008329 1.621315 0.489389
v 0.930613 1.569387 0.489389
vt 0.000000 0.000000
vt 1.000000 0.000000
vt 1.000000 1.000000
vt 0.000000 1.000000
f 421/421 422/422 423/423 424/424
v 0.930613 1.569387 0.489389
v 1.008329 1.621315 0.489389
v 1.011983 1.612492 0.460000
v 0.937365 1.562635 0.460000
vt 0.000000 0.000000
vt 1.000000 0.000000
vt 1.000000 1.000000
vt 0.000000 1.000000
f 425/425 426/426 427/427 428/428
v 0.937365 1.562635 0.460000
v 1.011983 1.612492 0.460000
v 1.008329 1.621315 0.430611
v 0.930613 1.569387 0.430611
vt 0.000000 0.000000
vt 1.000000 0.000000
vt 1.000000 1.000000
vt 0.000000 1.000000
f 429/429 430/430 431/431 432/432
v 0.930613 1.569387 0.430611
v 1.008329 1.621315 0.430611
v 0.998761 1.644412 0.412447
v 0.912936 1.587064 0.412447
vt 0.000000 0.000000
vt 1.000000 0.000000
vt 1.000000 1.000000
vt 0.000000 1.000000
f 433/433 434/434 435/435 436/436
v 0.912936 1.587064 0.412447
v 0.998761 1.644412 0.412447
v 0.986936 1.672961 0.412447
v 0.891085 1.608915 0.412447
vt 0.000000 0.000000
vt 1.000000 0.000000
vt 1.000000 1.000000
vt 0.000000 1.000000
f 437/437 438/438 439/439 440/440
v 0.891085 1.608915 0.412447
v 0.986936 1.672961 0.412447
v 0.977369 1.696058 0.430611
v 0.873407 1.626593 0.430611
vt 0.000000 0.000000
vt 1.000000 0.000000
vt 1.000000 1.000000
vt 0.000000 1.000000
f 441/441 442/442 443/443 444/444
v 0.873407 1.626593 0.430611
v 0.977369 1.696058 0.430611
v 0.973714 1.704880 0.460000
v 0.866655 1.633345 0.460000
vt 0.000000 0.000000
vt 1.000000 0.000000
vt 1.000000 1.000000
vt 0.000000 1.000000
f 445/445 446/446 447/447 448/448
v 0.973714 1.704880 0.460000
v 1.100000 1.730000 0.460000
v 1.100000 1.720451 0.489389
v 0.977369 1.696058 0.489389
vt 0.000000 0.000000
vt 1.000000 0.000000
vt 1.000000 1.000000
vt 0.000000 1.000000
f 449/449 450/450 451/451 452/452
v 0.977369 1.696058 0.489389
v 1.100000 1.720451 0.489389
v 1.100000 1.695451 0.507553
v 0.986936 1.672961 0.507553
vt 0.000000 0.000000
vt 1.000000 0.000000
vt 1.000000 1.000000
vt 0.000000 1.000000
f 453/453 454/454 455/455 456/456
v 0.986936 1.672961 0.507553
v 1.100000 1.695451 0.507553
v 1.100000 1.664549 0.507553
v 0.998761 1.644412 0.507553
vt 0.000000 0.000000
vt 1.000000 0.000000
vt 1.000000 1.000000
vt 0.000000 1.000000
f 457/457 458/458 459/459 460/460
v 0.998761 1.644412 0.507553
v 1.100000 1.664549 0.507553
v 1.100000 1.639549 0.489389
v 1.008329 1.621315 0.489389
vt 0.000000 0.000000
vt 1.000000 0.000000
vt 1.000000 1.000000
vt 0.000000 1.000000
f 461/461 462/462 463/463 464/464
v 1.008329 1.621315 0.489389
v 1.100000 1.639549 0.489389
v 1.100000 1.630000 0.460000
v 1.011983 1.612492 0.460000
vt 0.000000 0.000000
vt 1.000000 0.000000
vt 1.000000 1.000000
vt 0.000000 1.000000
f 465/465 466/466 467/467 468/468
v 1.011983 1.612492 0.460000
v 1.100000 1.630000 0.460000
v 1.100000 1.639549 0.430611
v 1.008329 1.621315 0.430611
vt 0.000000 0.000000
vt 1.000000 0.000000
vt 1.000000 1.000000
vt 0.000000 1.000000
f 469/469 470/470 471/471 472/472
v 1.008329 1.621315 0.430611
v 1.100000 1.639549 0.430611
v 1.100000 1.664549 0.412447
v 0.998761 1.644412 0.412447
vt 0.000000 0.000000
vt 1.000000 0.000000
vt 1.000000 1.000000
vt 0.000000 1.000000
f 473/473 474/474 475/475 476/476
v 0.998761 1.644412 0.412447
v 1.100000 1.664549 0.412447
v 1.100000 1.695451 0.412447
v 0.986936 1.672961 0.412447
vt 0.000000 0.000000
vt 1.000000 0.000000
vt 1.000000 1.000000
vt 0.000000 1.000000
f 477/477 478/478 479/479 480/480
v 0.986936 1.672961 0.412447
v 1.100000 1.695451 0.412447
v 1.100000 1.720451 0.430611
v 0.977369 1.696058 0.430611
vt 0.000000 0.000000
vt 1.000000 0.000000
vt 1.000000 1.000000
vt 0.000000 1.000000
f 481/481 482/482 483/483 484/484
v 0.977369 1.696058 0.430611
v 1.100000 1.720451 0.430611
v 1.100000 1.730000 0.460000
v 0.973714 1.704880 0.460000
vt 0.000000 0.000000
vt 1.000000 0.000000
vt 1.000000 1.000000
vt 0.000000 1.000000
f 485/485 486/486 487/487 488/488
v 1.100000 1.730000 0.460000
v 1.226286 1.704880 0.460000
v 1.222631 1.696058 0.489389
v 1.100000 1.720451 0.489389
vt 0.000000 0.000000
vt 1.000000 0.000000
vt 1.000000 1.000000
vt 0.000000 1.000000
f 489/489 490/490 491/491 492/492
v 1.100000 1.720451 0.489389
v 1.222631 1.696058 0.489389
v 1.213064 1.672961 0.507553
v 1.100000 1.695451 0.507553
vt 0.000000 0.000000
vt 1.000000 0.000000
vt 1.000000 1.000000
vt 0.000000 1.000000
f 493/493 494/494 495/495 496/496
v 1.100000 1.695451 0.507553
v 1.213064 1.672961 0.507553
v 1.201239 1.644412 0.507553
v 1.100000 1.664549 0.507553
vt 0.000000 0.000000
vt 1.000000 0.000000
vt 1.000000 1.000000
vt 0.000000 1.000000
f 497/497 498/498 499/499 500/500
v 1.100000 1.664549 0.507553
v 1.201239 1.644412 0.507553
v 1.191671 1.621315 0.489389
v 1.100000 1.639549 0.489389
vt 0.000000 0.000000
vt 1.000000 0.000000
vt 1.000000 1.000000
vt 0.000000 1.000000
f 501/501 502/502 503/503 504/504
v 1.100000 1.639549 0.489389
v 1.191671 1.621315 0.489389
v 1.188017 1.612492 0.460000
v 1.100000 1.630000 0.460000
vt 0.000000 0.000000
vt 1.000000 0.000000
vt 1.000000 1.000000
vt 0.000000 1.000000
f 505/505 506/506 507/507 508/508
v 1.100000 1.630000 0.460000
v 1.188017 1.612492 0.460000
v 1.191671 1.621315 0.430611
v 1.100000 1.639549 0.430611
vt 0.000000 0.000000
vt 1.000000 0.000000
vt 1.000000 1.000000
vt 0.000000 1.000000
f 509/509 510/510 511/511 512/512
v 1.100000 1.639549 0.430611
v 1.191671 1.621315 0.430611
v 1.201239 1.644412 0.412447
v 1.100000 1.664549 0.412447
vt 0.000000 0.000000
vt 1.000000 0.000000
vt 1.000000 1.000000
vt 0.000000 1.000000
f 513/513 514/514 515/515 516/516
v 1.100000 1.664549 0.412447
v 1.201239 1.644412 0.412447
v 1.213064 1.672961 0.412447
v 1.100000 1.695451 0.412447
vt 0.000000 0.000000
vt 1.000000 0.000000
vt 1.000000 1.000000
vt 0.000000 1.000000
f 517/517 518/518 519/519 520/520
v 1.100000 1.695451 0.412447
v 1.213064 1.672961 0.412447
v 1.222631 1.696058 0.430611
v 1.100000 1.720451 0.430611
vt 0.000000 0.000000
vt 1.000000 0.000000
vt 1.000000 1.000000
vt 0.000000 1.000000
f 521/521 522/522 523/523 524/524
v 1.100000 1.720451 0.430611
v 1.222631 1.696058 0.430611
v 1.226286 1.704880 0.460000
v 1.100000 1.730000 0.460000
vt 0.000000 0.000000
vt 1.000000 0.000000
vt 1.000000 1.000000
vt 0.000000 1.000000
f 525/525 526/526 527/527 528/528
v 1.226286 1.704880 0.460000
v 1.333345 1.633345 0.460000
v 1.326593 1.626593 0.489389
v 1.222631 1.696058 0.489389
vt 0.000000 0.000000
vt 1.000000 0.000000
vt 1.000000 1.000000
vt 0.000000 1.000000
f 529/529 530/530 531/531 532/532
v 1.222631 1.696058 0.489389
v 1.326593 1.626593 0.489389
v 1.308915 1.608915 0.507553
v 1.213064 1.672961 0.507553
vt 0.000000 0.000000
vt 1.000000 0.000000
vt 1.000000 1.000000
vt 0.000000 1.000000
f 533/533 534/534 535/535 536/536
v 1.213064 1.672961 0.507553
v 1.308915 1.608915 0.507553
v 1.287064 1.587064 0.507553
v 1.201239 1.644412 0.507553
vt 0.000000 0.000000
vt 1.000000 0.000000
vt 1.000000 1.000000
vt 0.000000 1.000000
f 537/537 538/538 539/539 540/540
v 1.201239 1.644412 0.507553
v 1.287064 1.587064 0.507553
v 1.269387 1.569387 0.489389
v 1.191671 1.621315 0.489389
vt 0.000000 0.000000
vt 1.000000 0.000000
vt 1.000000 1.000000
vt 0.000000 1.000000
f 541/541 542/542 543/543 544/544
v 1.191671 1.621315 0.489389
v 1.269387 1.569387 0.489389
v 1.262635 1.562635 0.460000
v 1.188017 1.612492 0.460000
vt 0.000000 0.000000
vt 1.000000 0.000000
vt 1.000000 1.000000
vt 0.000000 1.000000
f 545/545 546/546 547/547 548/548
v 1.188017 1.612492 0.460000
v 1.262635 1.562635 0.460000
v 1.269387 1.569387 0.430611
v 1.191671 1.621315 0.430611
vt 0.000000 0.000000
vt 1.000000 0.000000
vt 1.000000 1.000000
vt 0.000000 1.000000
f 549/549 550/550 551/551 552/552
v 1.191671 1.621315 0.430611
v 1.269387 1.569387 0.430611
v 1.287064 1.587064 0.412447
v 1.201239 1.644412 0.412447
vt 0.000000 0.000000
vt 1.000000 0.000000
vt 1.000000 1.000000
vt 0.000000 1.000000
f 553/553 554/554 555/555 556/556
v 1.201239 1.644412 0.412447
v 1.287064 1.587064 0.412447
v 1.308915 1.608915 0.412447
v 1.213064 1.672961 0.412447
vt 0.000000 0.000000
vt 1.000000 0.000000
vt 1.000000 1.000000
vt 0.000000 1.000000
f 557/557 558/558 559/559 560/560
v 1.213064 1.672961 0.412447
v 1.308915 1.608915 0.412447
v 1.326593 1.626593 0.430611
v 1.222631 1.696058 0.430611
vt 0.000000 0.000000
vt 1.000000 0.000000
vt 1.000000 1.000000
vt 0.000000 1.000000
f 561/561 562/562 563/563 564/564
v 1.222631 1.696058 0.430611
v 1.326593 1.626593 0.430611
v 1.333345 1.633345 0.460000
v 1.226286 1.704880 0.460000
vt 0.000000 0.000000
vt 1.000000 0.000000
vt 1.000000 1.000000
vt 0.000000 1.000000
f 565/565 566/566 567/567 568/568
v 1.333345 1.633345 0.460000
v 1.404880 1.526286 0.460000
v 1.396058 1.522631 0.489389
v 1.326593 1.626593 0.489389
vt 0.000000 0.000000
vt 1.000000 0.000000
vt 1.000000 1.000000
vt 0.000000 1.000000
f 569/569 570/570 571/571 572/572
v 1.326593 1.626593 0.489389
v 1.396058 1.522631 0.489389
v 1.372961 1.513064 0.507553
v 1.308915 1.608915 0.507553
vt 0.000000 0.000000
vt 1.000000 0.000000
vt 1.000000 1.000000
vt 0.000000 1.000000
f 573/573 574/574 575/575 576/576
v 1.308915 1.608915 0.507553
v 1.372961 1.513064 0.507553
v 1.344412 1.501239 0.507553
v 1.287064 1.587064 0.507553
vt 0.000000 0.000000
vt 1.000000 0.000000
vt 1.000000 1.000000
vt 0.000000 1.000000
f 577/577 578/578 579/579 580/580
v 1.287064 1.587064 0.507553
v 1.344412 1.501239 0.507553
v 1.321315 1.491671 0.489389
v 1.269387 1.569387 0.489389
vt 0.000000 0.000000
vt 1.000000 0.000000
vt 1.000000 1.000000
vt 0.000000 1.000000
f 581/581 582/582 583/583 584/584
v 1.269387 1.569387 0.489389
v 1.321315 1.491671 0.489389
v 1.312492 1.488017 0.460000
v 1.262635 1.562635 0.460000
vt 0.000000 0.000000
vt 1.000000 0.000000
vt 1.000000 1.000000
vt 0.000000 1.000000
f 585/585 586/586 587/587 588/588
v 1.262635 1.562635 0.460000
v 1.312492 1.488017 0.460000
v 1.321315 1.491671 0.430611
v 1.269387 1.569387 0.430611
vt 0.000000 0.000000
vt 1.000000 0.000000
vt 1.000000 1.000000
vt 0.000000 1.000000
f 589/589 590/590 591/591 592/592
v 1.269387 1.569387 0.430611
v 1.321315 1.491671 0.430611
v 1.344412 1.501239 0.412447
v 1.287064 1.587064 0.412447
vt 0.000000 0.000000
vt 1.000000 0.000000
vt 1.000000 1.000000
vt 0.000000 1.000000
f 593/593 594/594 595/595 596/596
v 1.287064 1.587064 0.412447
v 1.344412 1.501239 0.412447
v 1.372961 1.513064 0.412447
v 1.308915 1.608915 0.412447
vt 0.000000 0.000000
vt 1.000000 0.000000
vt 1.000000 1.000000
vt 0.000000 1.000000
f 597/597 598/598 599/599 600/600
v 1.308915 1.608915 0.412447
v 1.372961 1.513064 0.412447
v 1.396058 1.522631 0.430611
v 1.326593 1.626593 0.430611
vt 0.000000 0.000000
vt 1.000000 0.000000
vt 1.000000 1.000000
vt 0.000000 1.000000
f 601/601 602/602 603/603 604/604
v 1.326593 1.626593 0.430611
v 1.396058 1.522631 0.430611
v 1.404880 1.526286 0.460000
v 1.333345 1.633345 0.460000
vt 0.000000 0.000000
vt 1.000000 0.000000
vt 1.000000 1.000000
vt 0.000000 1.000000
f 605/605 606/606 607/607 608/608
v 1.404880 1.526286 0.460000
v 1.430000 1.400000 0.460000
v 1.420451 1.400000 0.489389
v 1.396058 1.522631 0.489389
vt 0.000000 0.000000
vt 1.000000 0.000000
vt 1.000000 1.000000
vt 0.000000 1.000000
f 609/609 610/610 611/611 612/612
v 1.396058 1.522631 0.489389
v 1.420451 1.400000 0.489389
v 1.395451 1.400000 0.507553
v 1.372961 1.513064 0.507553
vt 0.000000 0.000000
vt 1.000000 0.000000
vt 1.000000 1.000000
vt 0.000000 1.000000
f 613/613 614/614 615/615 616/616
v 1.372961 1.513064 0.507553
v 1.395451 1.400000 0.507553
v 1.364549 1.400000 0.507553
v 1.344412 1.501239 0.507553
vt 0.000000 0.000000
vt 1.000000 0.000000
vt 1.000000 1.000000
vt 0.000000 1.000000
f 617/617 618/618 619/619 620/620
v 1.344412 1.501239 0.507553
v 1.364549 1.400000 0.507553
v 1.339549 1.400000 0.489389
v 1.321315 1.491671 0.489389
vt 0.000000 0.000000
vt 1.000000 0.000000
vt 1.000000 1.000000
vt 0.000000 1.000000
f 621/621 622/622 623/623 624/624
v 1.321315 1.491671 0.489389
v 1.339549 1.400000 0.489389
v 1.330000 1.400000 0.460000
v 1.312492 1.488017 0.460000
vt 0.000000 0.000000
vt 1.000000 0.000000
vt 1.000000 1.000000
vt 0.000000 1.000000
f 625/625 626/626 627/627 628/628
v 1.312492 1.488017 0.460000
v 1.330000 1.400000 0.460000
v 1.339549 1.400000 0.430611
v 1.321315 1.491671 0.430611
vt 0.000000 0.000000
vt 1.000000 0.000000
vt 1.000000 1.000000
vt 0.000000 1.000000
f 629/629 630/630 631/631 632/632
v 1.321315 1.491671 0.430611
v 1.339549 1.400000 0.430611
v 1.364549 1.400000 0.412447
v 1.344412 1.501239 0.412447
vt 0.000000 0.000000
vt 1.000000 0.000000
vt 1.000000 1.000000
vt 0.000000 1.000000
f 633/633 634/634 635/635 636/636
v 1.344412 1.501239 0.412447
v 1.364549 1.400000 0.412447
v 1.395451 1.400000 0.412447
v 1.372961 1.513064 0.412447
vt 0.000000 0.000000
vt 1.000000 0.000000
vt 1.000000 1.000000
vt 0.000000 1.000000
f 637/637 638/638 639/639 640/640
v 1.372961 1.513064 0.412447
v 1.395451 1.400000 0.412447
v 1.420451 1.400000 0.430611
v 1.396058 1.522631 0.430611
vt 0.000000 0.000000
vt 1.000000 0.000000
vt 1.000000 1.000000
vt 0.000000 1.000000
f 641/641 642/642 643/643 644/644
v 1.396058 1.522631 0.430611
v 1.420451 1.400000 0.430611
v 1.430000 1.400000 0.460000
v 1.404880 1.526286 0.460000
vt 0.000000 0.000000
vt 1.000000 0.000000
vt 1.000000 1.000000
vt 0.000000 1.000000
f 645/645 646/646 647/647 648/648
v 1.430000 1.400000 0.460000
v 1.404880 1.273714 0.460000
v 1.396058 1.277369 0.489389
v 1.420451 1.400000 0.489389
vt 0.000000 0.000000
vt 1.000000 0.000000
vt 1.000000 1.000000
vt 0.000000 1.000000
f 649/649 650/650 651/651 652/652
v 1.420451 1.400000 0.489389
v 1.396058 1.277369 0.489389
v 1.372961 1.286936 0.507553
v 1.395451 1.400000 0.507553
vt 0.000000 0.000000
vt 1.000000 0.000000
vt 1.000000 1.000000
vt 0.000000 1.000000
f 653/653 654/654 655/655 656/656
v 1.395451 1.400000 0.507553
v 1.372961 1.286936 0.507553
v 1.344412 1.298761 0.507553
v 1.364549 1.400000 0.507553
vt 0.000000 0.000000
vt 1.000000 0.000000
vt 1.000000 1.000000
vt 0.000000 1.000000
f 657/657 658/658 659/659 660/660
v 1.364549 1.400000 0.507553
v 1.344412 1.298761 0.507553
v 1.321315 1.308329 0.489389
v 1.339549 1.400000 0.489389
vt 0.000000 0.000000
vt 1.000000 0.000000
vt 1.000000 1.000000
vt 0.000000 1.000000
f 661/661 662/662 663/663 664/664
v 1.339549 1.400000 0.489389
v 1.321315 1.308329 0.489389
v 1.312492 1.311983 0.460000
v 1.330000 1.400000 0.460000
vt 0.000000 0.000000
vt 1.000000 0.000000
vt 1.000000 1.000000
vt 0.000000 1.000000
f 665/665 666/666 667/667 668/668
v 1.330000 1.400000 0.460000
v 1.312492 1.311983 0.460000
v 1.321315 1.308329 0.430611
v 1.339549 1.400000 0.430611
vt 0.000000 0.000000
vt 1.000000 0.000000
vt 1.000000 1.000000
vt 0.000000 1.000000
f 669/669 670/670 671/671 672/672
v 1.339549 1.400000 0.430611
v 1.321315 1.308329 0.430611
v 1.344412 1.298761 0.412447
v 1.364549 1.400000 0.412447
vt 0.000000 0.000000
vt 1.000000 0.000000
vt 1.000000 1.000000
vt 0.000000 1.000000
f 673/673 674/674 675/675 676/676
v 1.364549 1.400000 0.412447
v 1.344412 1.298761 0.412447
v 1.372961 1.286936 0.412447
v 1.395451 1.400000 0.412447
vt 0.000000 0.000000
vt 1.000000 0.000000
vt 1.000000 1.000000
vt 0.000000 1.000000
f 677/677 678/678 679/679 680/680
v 1.395451 1.400000 0.412447
v 1.372961 1.286936 0.412447
v 1.396058 1.277369 0.430611
v 1.420451 1.400000 0.430611
vt 0.000000 0.000000
vt 1.000000 0.000000
vt 1.000000 1.000000
vt 0.000000 1.000000
f 681/681 682/682 683/683 684/684
v 1.420451 1.400000 0.430611
v 1.396058 1.277369 0.430611
v 1.404880 1.273714 0.460000
v 1.430000 1.400000 0.460000
vt 0.000000 0.000000
vt 1.000000 0.000000
vt 1.000000 1.000000
vt 0.000000 1.000000
f 685/685 686/686 687/687 688/688
v 1.404880 1.273714 0.460000
v 1.333345 1.166655 0.460000
v 1.326593 1.173407 0.489389
v 1.396058 1.277369 0.489389
vt 0.000000 0.000000
vt 1.000000 0.000000
vt 1.000000 1.000000
vt 0.000000 1.000000
f 689/689 690/690 691/691 692/692
v 1.396058 1.277369 0.489389
v 1.326593 1.173407 0.489389
v 1.308915 1.191085 0.507553
v 1.372961 1.286936 0.507553
vt 0.000000 0.000000
vt 1.000000 0.000000
vt 1.000000 1.000000
vt 0.000000 1.000000
f 693/693 694/694 695/695 696/696
v 1.372961 1.286936 0.507553
v 1.308915 1.191085 0.507553
v 1.287064 1.212936 0.507553
v 1.344412 1.298761 0.507553
vt 0.000000 0.000000
vt 1.000000 0.000000
vt 1.000000 1.000000
vt 0.000000 1.000000
f 697/697 698/698 699/699 700/700
v 1.344412 1.298761 0.507553
v 1.287064 1.212936 0.507553
v 1.269387 1.230613 0.489389
v 1.321315 1.308329 0.489389
vt 0.000000 0.000000
vt 1.000000 0.000000
vt 1.000000 1.000000
vt 0.000000 1.000000
f 701/701 702/702 703/703 704/704
v 1.321315 1.308329 0.489389
v 1.269387 1.230613 0.489389
v 1.262635 1.237365 0.460000
v 1.312492 1.311983 0.460000
vt 0.000000 0.000000
vt 1.000000 0.000000
vt 1.000000 1.000000
vt 0.000000 1.000000
f 705/705 706/706 707/707 708/708
v 1.312492 1.311983 0.460000
v 1.262635 1.237365 0.460000
v 1.269387 1.230613 0.430611
v 1.321315 1.308329 0.430611
vt 0.000000 0.000000
vt 1.000000 0.000000
vt 1.000000 1.000000
vt 0.000000 1.000000
f 709/709 710/710 711/711 712/712
v 1.321315 1.308329 0.430611
v 1.269387 1.230613 0.430611
v 1.287064 1.212936 0.412447
v 1.344412 1.298761 0.412447
vt 0.000000 0.000000
vt 1.000000 0.000000
vt 1.000000 1.000000
vt 0.000000 1.000000
f 713/713 714/714 715/715 716/716
v 1.344412 1.298761 0.412447
v 1.287064 1.212936 0.412447
v 1.308915 1.191085 0.412447
v 1.372961 1.286936 0.412447
vt 0.000000 0.000000
vt 1.000000 0.000000
vt 1.000000 1.000000
vt 0.000000 1.000000
f 717/717 718/718 719/719 720/720
v 1.372961 1.286936 0.412447
v 1.308915 1.191085 0.412447
v 1.326593 1.173407 0.430611
v 1.396058 1.277369 0.430611
vt 0.000000 0.000000
vt 1.000000 0.000000
vt 1.000000 1.000000
vt 0.000000 1.000000
f 721/721 722/722 723/723 724/724
v 1.396058 1.277369 0.430611
v 1.326593 1.173407 0.430611
v 1.333345 1.166655 0.460000
v 1.404880 1.273714 0.460000
vt 0.000000 0.000000
vt 1.000000 0.000000
vt 1.000000 1.000000
vt 0.000000 1.000000
f 725/725 726/726 727/727 728/728
v 1.333345 1.166655 0.460000
v 1.226286 1.095120 0.460000
v 1.222631 1.103942 0.489389
v 1.326593 1.173407 0.489389
vt 0.000000 0.000000
vt 1.000000 0.000000
vt 1.000000 1.000000
vt 0.000000 1.000000
f 729/729 730/730 731/731 732/732
v 1.326593 1.173407 0.489389
v 1.222631 1.103942 0.489389
v 1.213064 1.127039 0.507553
v 1.308915 1.191085 0.507553
vt 0.000000 0.000000
vt 1.000000 0.000000
vt 1.000000 1.000000
vt 0.000000 1.000000
f 733/733 734/734 735/735 736/736
v 1.308915 1.191085 0.507553
v 1.213064 1.127039 0.507553
v 1.201239 1.155588 0.507553
v 1.287064 1.212936 0.507553
vt 0.000000 0.000000
vt 1.000000 0.000000
vt 1.000000 1.000000
vt 0.000000 1.000000
f 737/737 738/738 739/739 740/740
v 1.287064 1.212936 0.507553
v 1.201239 1.155588 0.507553
v 1.191671 1.178685 0.489389
v 1.269387 1.230613 0.489389
vt 0.000000 0.000000
vt 1.000000 0.000000
vt 1.000000 1.000000
vt 0.000000 1.000000
f 741/741 742/742 743/743 744/744
v 1.269387 1.230613 0.489389
v 1.191671 1.178685 0.489389
v 1.188017 1.187508 0.460000
v 1.262635 1.237365 0.460000
vt 0.000000 0.000000
vt 1.000000 0.000000
vt 1.000000 1.000000
vt 0.000000 1.000000
f 745/745 746/746 747/747 748/748
v 1.262635 1.237365 0.460000
v 1.188017 1.187508 0.460000
v 1.191671 1.178685 0.430611
v 1.269387 1.230613 0.430611
vt 0.000000 0.000000
vt 1.000000 0.000000
vt 1.000000 1.000000
vt 0.000000 1.000000
f 749/749 750/750 751/751 752/752
v 1.269387 1.230613 0.430611
v 1.191671 1.178685 0.430611
v 1.201239 1.155588 0.412447
v 1.287064 1.212936 0.412447
vt 0.000000 0.000000
vt 1.000000 0.000000
vt 1.000000 1.000000
vt 0.000000 1.000000
f 753/753 754/754 755/755 756/756
v 1.287064 1.212936 0.412447
v 1.201239 1.155588 0.412447
v 1.213064 1.127039 0.412447
v 1.308915 1.191085 0.412447
vt 0.000000 0.000000
vt 1.000000 0.000000
vt 1.000000 1.000000
vt 0.000000 1.000000
f 757/757 758/758 759/759 760/760
v 1.308915 1.191085 0.412447
v 1.213064 1.127039 0.412447
v 1.222631 1.103942 0.430611
v 1.326593 1.173407 0.430611
vt 0.000000 0.000000
vt 1.000000 0.000000
vt 1.000000 1.000000
vt 0.000000 1.000000
f 761/761 762/762 763/763 764/764
v 1.326593 1.173407 0.430611
v 1.222631 1.103942 0.430611
v 1.226286 1.095120 0.460000
v 1.333345 1.166655 0.460000
vt 0.000000 0.000000
vt 1.000000 0.000000
vt 1.000000 1.000000
vt 0.000000 1.000000
f 765/765 766/766 767/767 768/768
v 1.226286 1.095120 0.460000
v 1.100000 1.070000 0.460000
v 1.100000 1.079549 0.489389
v 1.222631 1.103942 0.489389
vt 0.000000 0.000000
vt 1.000000 0.000000
vt 1.000000 1.000000
vt 0.000000 1.000000
f 769/769 770/770 771/771 772/772
v 1.222631 1.103942 0.489389
v 1.100000 1.079549 0.489389
v 1.100000 1.104549 0.507553
v 1.213064 1.127039 0.507553
vt 0.000000 0.000000
vt 1.000000 0.000000
vt 1.000000 1.000000
vt 0.000000 1.000000
f 773/773 774/774 775/775 776/776
v 1.213064 1.127039 0.507553
v 1.100000 1.104549 0.507553
v 1.100000 1.135451 0.507553
v 1.201239 1.155588 0.507553
vt 0.000000 0.000000
vt 1.000000 0.000000
vt 1.000000 1.000000
vt 0.000000 1.000000
f 777/777 778/778 779/779 780/780
v 1.201239 1.155588 0.507553
v 1.100000 1.135451 0.507553
v 1.100000 1.160451 0.489389
v 1.191671 1.178685 0.489389
vt 0.000000 0.000000
vt 1.000000 0.000000
vt 1.000000 1.000000
vt 0.000000 1.000000
f 781/781 782/782 783/783 784/784
v 1.191671 1.178685 0.489389
v 1.100000 1.160451 0.489389
v 1.100000 1.170000 0.460000
v 1.188017 1.187508 0.460000
vt 0.000000 0.000000
vt 1.000000 0.000000
vt 1.000000 1.000000
vt 0.000000 1.000000
f 785/785 786/786 787/787 788/788
v 1.188017 1.187508 0.460000
v 1.100000 1.170000 0.460000
v 1.100000 1.160451 0.430611
v 1.191671 1.178685 0.430611
vt 0.000000 0.000000
vt 1.000000 0.000000
vt 1.000000 1.000000
vt 0.000000 1.000000
f 789/789 790/790 791/791 792/792
v 1.191671 1.178685 0.430611
v 1.100000 1.160451 0.430611
v 1.100000 1.135451 0.412447
v 1.201239 1.155588 0.412447
vt 0.000000 0.000000
vt 1.000000 0.000000
vt 1.000000 1.000000
vt 0.000000 1.000000
f 793/793 794/794 795/795 796/796
v 1.201239 1.155588 0.412447
v 1.100000 1.135451 0.412447
v 1.100000 1.104549 0.412447
v 1.213064 1.127039 0.412447
vt 0.000000 0.000000
vt 1.000000 0.000000
vt 1.000000 1.000000
vt 0.000000 1.000000
f 797/797 798/798 799/799 800/800
v 1.213064 1.127039 0.412447
v 1.100000 1.104549 0.412447
v 1.100000 1.079549 0.430611
v 1.222631 1.103942 0.430611
vt 0.000000 0.000000
vt 1.000000 0.000000
vt 1.000000 1.000000
vt 0.000000 1.000000
f 801/801 802/802 803/803 804/804
v 1.222631 1.103942 0.430611
v 1.100000 1.079549 0.430611
v 1.100000 1.070000 0.460000
v 1.226286 1.095120 0.460000
vt 0.000000 0.000000
vt 1.000000 0.000000
vt 1.000000 1.000000
vt 0.000000 1.000000
f 805/805 806/806 807/807 808/808
v 1.100000 1.070000 0.460000
v 0.973714 1.095120 0.460000
v 0.977369 1.103942 0.489389
v 1.100000 1.079549 0.489389
vt 0.000000 0.000000
vt 1.000000 0.000000
vt 1.000000 1.000000
vt 0.000000 1.000000
f 809/809 810/810 811/811 812/812
v 1.100000 1.079549 0.489389
v 0.977369 1.103942 0.489389
v 0.986936 1.127039 0.507553
v 1.100000 1.104549 0.507553
vt 0.000000 0.000000
vt 1.000000 0.000000
vt 1.000000 1.000000
vt 0.000000 1.000000
f 813/813 814/814 815/815 816/816
v 1.100000 1.104549 0.507553
v 0.986936 1.127039 0.507553
v 0.998761 1.155588 0.507553
v 1.100000 1.135451 0.507553
vt 0.000000 0.000000
vt 1.000000 0.000000
vt 1.000000 1.000000
vt 0.000000 1.000000
f 817/817 818/818 819/819 820/820
v 1.100000 1.135451 0.507553
v 0.998761 1.155588 0.507553
v 1.008329 1.178685 0.489389
v 1.100000 1.160451 0.489389
vt 0.000000 0.000000
vt 1.000000 0.000000
vt 1.000000 1.000000
vt 0.000000 1.000000
f 821/821 822/822 823/823 824/824
v 1.100000 1.160451 0.489389
v 1.008329 1.178685 0.489389
v 1.011983 1.187508 0.460000
v 1.100000 1.170000 0.460000
vt 0.000000 0.000000
vt 1.000000 0.000000
vt 1.000000 1.000000
vt 0.000000 1.000000
f 825/825 826/826 827/827 828/828
v 1.100000 1.170000 0.460000
v 1.011983 1.187508 0.460000
v 1.008329 1.178685 0.430611
v 1.100000 1.160451 0.430611
vt 0.000000 0.000000
vt 1.000000 0.000000
vt 1.000000 1.000000
vt 0.000000 1.000000
f 829/829 830/830 831/831 832/832
v 1.100000 1.160451 0.430611
v 1.008329 1.178685 0.430611
v 0.998761 1.155588 0.412447
v 1.100000 1.135451 0.412447
vt 0.000000 0.000000
vt 1.000000 0.000000
vt 1.000000 1.000000
vt 0.000000 1.000000
f 833/833 834/834 835/835 836/836
v 1.100000 1.135451 0.412447
v 0.998761 1.155588 0.412447
v 0.986936 1.127039 0.412447
v 1.100000 1.104549 0.412447
vt 0.000000 0.000000
vt 1.000000 0.000000
vt 1.000000 1.000000
vt 0.000000 1.000000
f 837/837 838/838 839/839 840/840
v 1.100000 1.104549 0.412447
v 0.986936 1.127039 0.412447
v 0.977369 1.103942 0.430611
v 1.100000 1.079549 0.430611
vt 0.000000 0.000000
vt 1.000000 0.000000
vt 1.000000 1.000000
vt 0.000000 1.000000
f 841/841 842/842 843/843 844/844
v 1.100000 1.079549 0.430611
v 0.977369 1.103942 0.430611
v 0.973714 1.095120 0.460000
v 1.100000 1.070000 0.460000
vt 0.000000 0.000000
vt 1.000000 0.000000
vt 1.000000 1.000000
vt 0.000000 1.000000
f 845/845 846/846 847/847 848/848
v 0.973714 1.095120 0.460000
v 0.866655 1.166655 0.460000
v 0.873407 1.173407 0.489389
v 0.977369 1.103942 0.489389
vt 0.000000 0.000000
vt 1.000000 0.000000
vt 1.000000 1.000000
vt 0.000000 1.000000
f 849/849 850/850 851/851 852/852
v 0.977369 1.103942 0.489389
v 0.873407 1.173407 0.489389
v 0.891085 1.191085 0.507553
v 0.986936 1.127039 0.507553
vt 0.000000 0.000000
vt 1.000000 0.000000
vt 1.000000 1.000000
vt 0.000000 1.000000
f 853/853 854/854 855/855 856/856
v 0.986936 1.127039 0.507553
v 0.891085 1.191085 0.507553
v 0.912936 1.212936 0.507553
v 0.998761 1.155588 0.507553
vt 0.000000 0.000000
vt 1.000000 0.000000
vt 1.000000 1.000000
vt 0.000000 1.000000
f 857/857 858/858 859/859 860/860
v 0.998761 1.155588 0.507553
v 0.912936 1.212936 0.507553
v 0.930613 1.230613 0.489389
v 1.008329 1.178685 0.489389
vt 0.000000 0.000000
vt 1.000000 0.000000
vt 1.000000 1.000000
vt 0.000000 1.000000
f 861/861 862/862 863/863 864/864
v 1.008329 1.178685 0.489389
v 0.930613 1.230613 0.489389
v 0.937365 1.237365 0.460000
v 1.011983 1.187508 0.460000
vt 0.000000 0.000000
vt 1.000000 0.000000
vt 1.000000 1.000000
vt 0.000000 1.000000
f 865/865 866/866 867/867 868/868
v 1.011983 1.187508 0.460000
v 0.937365 1.237365 0.460000
v 0.930613 1.230613 0.430611
v 1.008329 1.178685 0.430611
vt 0.000000 0.000000
vt 1.000000 0.000000
vt 1.000000 1.000000
vt 0.000000 1.000000
f 869/869 870/870 871/871 872/872
v 1.008329 1.178685 0.430611
v 0.930613 1.230613 0.430611
v 0.912936 1.212936 0.412447
v 0.998761 1.155588 0.412447
vt 0.000000 0.000000
vt 1.000000 0.000000
vt 1.000000 1.000000
vt 0.000000 1.000000
f 873/873 874/874 875/875 876/876
v 0.998761 1.155588 0.412447
v 0.912936 1.212936 0.412447
v 0.891085 1.191085 0.412447
v 0.986936 1.127039 0.412447
vt 0.000000 0.000000
vt 1.000000 0.000000
vt 1.000000 1.000000
vt 0.000000 1.000000
f 877/877 878/878 879/879 880/880
v 0.986936 1.127039 0.412447
v 0.891085 1.191085 0.412447
v 0.873407 1.173407 0.430611
v 0.977369 1.103942 0.430611
vt 0.000000 0.000000
vt 1.000000 0.000000
vt 1.000000 1.000000
vt 0.000000 1.000000
f 881/881 882/882 883/883 884/884
v 0.977369 1.103942 0.430611
v 0.873407 1.173407 0.430611
v 0.866655 1.166655 0.460000
v 0.973714 1.095120 0.460000
vt 0.000000 0.000000
vt 1.000000 0.000000
vt 1.000000 1.000000
vt 0.000000 1.000000
f 885/885 886/886 887/887 888/888
v 0.866655 1.166655 0.460000
v 0.795120 1.273714 0.460000
v 0.803942 1.277369 0.489389
v 0.873407 1.173407 0.489389
vt 0.000000 0.000000
vt 1.000000 0.000000
vt 1.000000 1.000000
vt 0.000000 1.000000
f 889/889 890/890 891/891 892/892
v 0.873407 1.173407 0.489389
v 0.803942 1.277369 0.489389
v 0.827039 1.286936 0.507553
v 0.891085 1.191085 0.507553
vt 0.000000 0.000000
vt 1.000000 0.000000
vt 1.000000 1.000000
vt 0.000000 1.000000
f 893/893 894/894 895/895 896/896
v 0.891085 1.191085 0.507553
v 0.827039 1.286936 0.507553
v 0.855588 1.298761 0.507553
v 0.912936 1.212936 0.507553
vt 0.000000 0.000000
vt 1.000000 0.000000
vt 1.000000 1.000000
vt 0.000000 1.000000
f 897/897 898/898 899/899 900/900
v 0.912936 1.212936 0.507553
v 0.855588 1.298761 0.507553
v 0.878685 1.308329 0.489389
v 0.930613 1.230613 0.489389
vt 0.000000 0.000000
vt 1.000000 0.000000
vt 1.000000 1.000000
vt 0.000000 1.000000
f 901/901 902/902 903/903 904/904
v 0.930613 1.230613 0.489389
v 0.878685 1.308329 0.489389
v 0.887508 1.311983 0.460000
v 0.937365 1.237365 0.460000
vt 0.000000 0.000000
vt 1.000000 0.000000
vt 1.000000 1.000000
vt 0.000000 1.000000
f 905/905 906/906 907/907 908/908
v 0.937365 1.237365 0.460000
v 0.887508 1.311983 0.460000
v 0.878685 1.308329 0.430611
v 0.930613 1.230613 0.430611
vt 0.000000 0.000000
vt 1.000000 0.000000
vt 1.000000 1.000000
vt 0.000000 1.000000
f 909/909 910/910 911/911 912/912
v 0.930613 1.230613 0.430611
v 0.878685 1.308329 0.430611
v 0.855588 1.298761 0.412447
v 0.912936 1.212936 0.412447
vt 0.000000 0.000000
vt 1.000000 0.000000
vt 1.000000 1.000000
vt 0.000000 1.000000
f 913/913 914/914 915/915 916/916
v 0.912936 1.212936 0.412447
v 0.855588 1.298761 0.412447
v 0.827039 1.286936 0.412447
v 0.891085 1.191085 0.412447
vt 0.000000 0.000000
vt 1.000000 0.000000
vt 1.000000 1.000000
vt 0.000000 1.000000
f 917/917 918/918 919/919 920/920
v 0.891085 1.191085 0.412447
v 0.827039 1.286936 0.412447
v 0.803942 1.277369 0.430611
v 0.873407 1.173407 0.430611
vt 0.000000 0.000000
vt 1.000000 0.000000
vt 1.000000 1.000000
vt 0.000000 1.000000
f 921/921 922/922 923/923 924/924
v 0.873407 1.173407 0.430611
v 0.803942 1.277369 0.430611
v 0.795120 1.273714 0.460000
v 0.866655 1.166655 0.460000
vt 0.000000 0.000000
vt 1.000000 0.000000
vt 1.000000 1.000000
vt 0.000000 1.000000
f 925/925 926/926 927/927 928/928
v 0.795120 1.273714 0.460000
v 0.770000 1.400000 0.460000
v 0.779549 1.400000 0.489389
v 0.803942 1.277369 0.489389
vt 0.000000 0.000000
vt 1.000000 0.000000
vt 1.000000 1.000000
vt 0.000000 1.000000
f 929/929 930/930 931/931 932/932
v 0.803942 1.277369 0.489389
v 0.779549 1.400000 0.489389
v 0.804549 1.400000 0.507553
v 0.827039 1.286936 0.507553
vt 0.000000 0.000000
vt 1.000000 0.000000
vt 1.000000 1.000000
vt 0.000000 1.000000
f 933/933 934/934 935/935 936/936
v 0.827039 1.286936 0.507553
v 0.804549 1.400000 0.507553
v 0.835451 1.400000 0.507553
v 0.855588 1.298761 0.507553
vt 0.000000 0.000000
vt 1.000000 0.000000
vt 1.000000 1.000000
vt 0.000000 1.000000
f 937/937 938/938 939/939 940/940
v 0.855588 1.298761 0.507553
v 0.835451 1.400000 0.507553
v 0.860451 1.400000 0.489389
v 0.878685 1.308329 0.489389
vt 0.000000 0.000000
vt 1.000000 0.000000
vt 1.000000 1.000000
vt 0.000000 1.000000
f 941/941 942/942 943/943 944/944
v 0.878685 1.308329 0.489389
v 0.860451 1.400000 0.489389
v 0.870000 1.400000 0.460000
v 0.887508 1.311983 0.460000
vt 0.000000 0.000000
vt 1.000000 0.000000
vt 1.000000 1.000000
vt 0.000000 1.000000
f 945/945 946/946 947/947 948/948
v 0.887508 1.311983 0.460000
v 0.870000 1.400000 0.460000
v 0.860451 1.400000 0.430611
v 0.878685 1.308329 0.430611
vt 0.000000 0.000000
vt 1.000000 0.000000
vt 1.000000 1.000000
vt 0.000000 1.000000
f 949/949 950/950 951/951 952/952
v 0.878685 1.308329 0.430611
v 0.860451 1.400000 0.430611
v 0.835451 1.400000 0.412447
v 0.855588 1.298761 0.412447
vt 0.000000 0.000000
vt 1.000000 0.000000
vt 1.000000 1.000000
vt 0.000000 1.000000
f 953/953 954/954 955/955 956/956
v 0.855588 1.298761 0.412447
v 0.835451 1.400000 0.412447
v 0.804549 1.400000 0.412447
v 0.827039 1.286936 0.412447
vt 0.000000 0.000000
vt 1.000000 0.000000
vt 1.000000 1.000000
vt 0.000000 1.000000
f 957/957 958/958 959/959 960/960
v 0.827039 1.286936 0.412447
v 0.804549 1.400000 0.412447
v 0.779549 1.400000 0.430611
v 0.803942 1.277369 0.430611
vt 0.000000 0.000000
vt 1.000000 0.000000
vt 1.000000 1.000000
vt 0.000000 1.000000
f 961/961 962/962 963/963 964/964
v 0.803942 1.277369 0.430611
v 0.779549 1.400000 0.430611
v 0.770000 1.400000 0.460000
v 0.795120 1.273714 0.460000
vt 0.000000 0.000000
vt 1.000000 0.000000
vt 1.000000 1.000000
vt 0.000000 1.000000
f 965/965 966/966 967/967 968/968
usemtl accent
v 0.100000 0.080000 0.000000
v 1.900000 0.080000 0.000000
v 1.900000 0.220000 0.000000
v 0.100000 0.220000 0.000000
vt 0.000000 0.000000
vt 1.000000 0.000000
vt 1.000000 1.000000
vt 0.000000 1.000000
f 969/969 970/970 971/971 972/972
v 1.900000 0.080000 0.440000
v 0.100000 0.080000 0.440000
v 0.100000 0.220000 0.440000
v 1.900000 0.220000 0.440000
vt 0.000000 0.000000
vt 1.000000 0.000000
vt 1.000000 1.000000
vt 0.000000 1.000000
f 973/973 974/974 975/975 976/976
v 0.100000 0.080000 0.440000
v 0.100000 0.080000 0.000000
v 0.100000 0.220000 0.000000
v 0.100000 0.220000 0.440000
vt 0.000000 0.000000
vt 1.000000 0.000000
vt 1.000000 1.000000
vt 0.000000 1.000000
f 977/977 978/978 979/979 980/980
v 1.900000 0.080000 0.000000
v 1.900000 0.080000 0.440000
v 1.900000 0.220000 0.440000
v 1.900000 0.220000 0.000000
vt 0.000000 0.000000
vt 1.000000 0.000000
vt 1.000000 1.000000
vt 0.000000 1.000000
f 981/981 982/982 983/983 984/984
v 0.100000 0.220000 0.000000
v 1.900000 0.220000 0.000000
v 1.900000 0.220000 0.440000
v 0.100000 0.220000 0.440000
vt 0.000000 0.000000
vt 1.000000 0.000000
vt 1.000000 1.000000
vt 0.000000 1.000000
f 985/985 986/986 987/987 988/988
v 0.100000 0.080000 0.440000
v 1.900000 0.080000 0.440000
v 1.900000 0.080000 0.000000
v 0.100000 0.080000 0.000000
vt 0.000000 0.000000
vt 1.000000 0.000000
vt 1.000000 1.000000
vt 0.000000 1.000000
f 989/989 990/990 991/991 992/992
